<svg xmlns="http://www.w3.org/2000/svg" viewBox="0 0 48 48"><title>Asset 25</title><g id="Layer_2" data-name="Layer 2"><g id="Layer_1-2" data-name="Layer 1"><path d="M30.42,7a1.52,1.52,0,0,1,1.06.44l9.08,9.08A1.52,1.52,0,0,1,41,17.58V30.42a1.52,1.52,0,0,1-.44,1.06l-9.08,9.08a1.5,1.5,0,0,1-1.06.44H17.58a1.52,1.52,0,0,1-1.06-.44L7.44,31.48A1.5,1.5,0,0,1,7,30.42V17.58a1.5,1.5,0,0,1,.44-1.06l9.08-9.08A1.46,1.46,0,0,1,17.58,7H30.42m0-7H17.58a8.5,8.5,0,0,0-6,2.49L2.49,11.57a8.52,8.52,0,0,0-2.49,6V30.42a8.52,8.52,0,0,0,2.49,6l9.08,9.08a8.52,8.52,0,0,0,6,2.49H30.42a8.53,8.53,0,0,0,6-2.49l9.08-9.08a8.52,8.52,0,0,0,2.49-6V17.58a8.52,8.52,0,0,0-2.49-6L36.43,2.49a8.52,8.52,0,0,0-6-2.49Z"/></g></g></svg>