<svg xmlns="http://www.w3.org/2000/svg" viewBox="0 0 48 48"><title>Asset 24</title><g id="Layer_2" data-name="Layer 2"><g id="Layer_1-2" data-name="Layer 1"><path d="M23.87,8.36A10.18,10.18,0,0,0,29.41,10a10.56,10.56,0,0,0,1.49-.11,10.27,10.27,0,0,0,5.6,4.33,10.07,10.07,0,0,0,3.1,6.22,10.1,10.1,0,0,0,.06,6.9,10,10,0,0,0-3,6.25A10.11,10.11,0,0,0,31.14,38a9.91,9.91,0,0,0-1.33-.09,10.2,10.2,0,0,0-5.67,1.72A10.22,10.22,0,0,0,18.59,38a10.56,10.56,0,0,0-1.49.11,10.27,10.27,0,0,0-5.6-4.33,10.07,10.07,0,0,0-3.1-6.22,10.07,10.07,0,0,0-.06-6.89,10.12,10.12,0,0,0,3-6.26A10.14,10.14,0,0,0,16.87,10a9.65,9.65,0,0,0,1.32.09,10.26,10.26,0,0,0,5.68-1.72m0-8.36a3.22,3.22,0,0,0-2.41,1.08L20.6,2a3.21,3.21,0,0,1-2.41,1.08A3.22,3.22,0,0,1,17,2.84l-1.17-.47a3.26,3.26,0,0,0-1.21-.24,3.19,3.19,0,0,0-3.08,2.3l-.33,1.19A3.14,3.14,0,0,1,8.3,7.91L7,8a3.14,3.14,0,0,0-2.95,3.69l.23,1.21a3.11,3.11,0,0,1-1.58,3.3l-1.1.59a3.09,3.09,0,0,0-1,4.58l.74,1a3.08,3.08,0,0,1,0,3.65L.67,27a3.11,3.11,0,0,0,1.1,4.57l1.11.58a3.1,3.1,0,0,1,1.63,3.27L4.3,36.62a3.14,3.14,0,0,0,3,3.64l1.26.05a3.2,3.2,0,0,1,2.93,2.25l.35,1.19A3.16,3.16,0,0,0,14.9,46a3.22,3.22,0,0,0,1.28-.26l1.15-.48A3.31,3.31,0,0,1,18.59,45a3.18,3.18,0,0,1,2.37,1l.84.91a3.22,3.22,0,0,0,4.78,0L27.4,46A3.21,3.21,0,0,1,31,45.16l1.17.47a3.26,3.26,0,0,0,1.21.24,3.19,3.19,0,0,0,3.08-2.3l.33-1.19a3.15,3.15,0,0,1,2.89-2.29L41,40a3.14,3.14,0,0,0,2.95-3.69l-.23-1.21a3.1,3.1,0,0,1,1.59-3.3l1.09-.59a3.08,3.08,0,0,0,1-4.58l-.74-1a3.09,3.09,0,0,1,0-3.65l.72-1a3.1,3.1,0,0,0-1.1-4.57l-1.1-.58a3.09,3.09,0,0,1-1.64-3.27l.21-1.21a3.14,3.14,0,0,0-3-3.64l-1.26,0A3.21,3.21,0,0,1,36.5,5.44l-.35-1.19A3.16,3.16,0,0,0,33.1,2a3.22,3.22,0,0,0-1.28.26l-1.15.48A3.23,3.23,0,0,1,29.41,3,3.22,3.22,0,0,1,27,2L26.2,1a3.2,3.2,0,0,0-2.37-1Z"/></g></g></svg>