<svg xmlns="http://www.w3.org/2000/svg" viewBox="0 0 48 48"><title>Asset 21</title><g id="Layer_2" data-name="Layer 2"><g id="Layer_1-2" data-name="Layer 1"><path d="M18,0H13a3.5,3.5,0,0,0,.45,7,3.71,3.71,0,0,0,.47,0A7.31,7.31,0,0,1,15,7h3a3.5,3.5,0,0,0,0-7ZM6.76,3.49a3.48,3.48,0,0,0-2.5,1.06H4.05v0H4v0H3.87V5H3.73v0h0v0h0v0h-.2v0h0v0h0v0h-.1v0h0v0h0v0h0v0h0l0,0h0l0,0h0v0h0V6H3V6H3v0H3l0,0h0v0h0v0h0v0h0v0h0l0,0h0v0h0l0,0h0v0h0v0h0v0h0l0,0h0v0h0l0,0h0v0h0l0,0h0l0,0h0v0h0l0,0h0l0,.05h0l0,0h0l0,0h0l0,.06h0A.75.75,0,0,0,2.34,7h0a14.7,14.7,0,0,0-.91,1.65A3.5,3.5,0,0,0,3.09,13.3a3.43,3.43,0,0,0,1.49.33,3.5,3.5,0,0,0,3.17-2,8.09,8.09,0,0,1,1.52-2.2A3.5,3.5,0,0,0,6.76,3.49ZM3.5,14.93A3.5,3.5,0,0,0,0,18.43v5a3.5,3.5,0,0,0,7,0v-5a3.5,3.5,0,0,0-3.5-3.5Zm0,14.9h-.1A3.49,3.49,0,0,0,0,33.42a14.53,14.53,0,0,0,1,4.9,3.5,3.5,0,0,0,3.26,2.25,3.63,3.63,0,0,0,1.25-.23,3.5,3.5,0,0,0,2-4.52A8.11,8.11,0,0,1,7,33.24a3.5,3.5,0,0,0-3.49-3.41Zm5.58,9.52a3.5,3.5,0,0,0-1.82,6.5c.31.19.64.37,1,.53h0l.06,0h0l.06,0h0a14.72,14.72,0,0,0,3.54,1.24,3.61,3.61,0,0,0,.73.07,3.5,3.5,0,0,0,.72-6.92,7.9,7.9,0,0,1-2.46-1,3.39,3.39,0,0,0-1.8-.51ZM26.88,41h-5a3.5,3.5,0,1,0,0,7h5a3.5,3.5,0,0,0,0-7ZM39.4,39a3.49,3.49,0,0,0-2,.6,8,8,0,0,1-2.4,1.1,3.5,3.5,0,1,0,1.79,6.76,14.67,14.67,0,0,0,4.53-2.06,3.5,3.5,0,0,0-2-6.4Zm5.1-9.86a3.5,3.5,0,0,0-3.5,3.5V33a8.08,8.08,0,0,1-.38,2.44,3.49,3.49,0,0,0,2.25,4.4A3.4,3.4,0,0,0,44,40a3.52,3.52,0,0,0,3.33-2.43c.11-.35.21-.71.3-1.07h0v0h0v0h0v0h0v0h0v0h0v0h0v0h0v0h0A14.72,14.72,0,0,0,48,34h0v-.07h0v0h0v0h0v0h0v0h0v0h0v0h0v0h0v0h0v0h0v0h0v0h0v0h0v0h0v0h0v0h0v0h0v-.33a3.5,3.5,0,0,0-3.5-3.5Zm0-15a3.5,3.5,0,0,0-3.5,3.5v5a3.5,3.5,0,1,0,7,0v-5a3.5,3.5,0,0,0-3.5-3.5ZM40.82,3.09a3.5,3.5,0,0,0-2.38,6.06,8,8,0,0,1,1.63,2.12A3.5,3.5,0,1,0,46.24,8c-.14-.27-.29-.53-.44-.78h0v0h0v0h0v0h0v0h0v0h0V7h0V7h0v0h-.16v0h0v0h0l0,0h0l0,0h0A15,15,0,0,0,43.2,4a3.5,3.5,0,0,0-2.38-.93ZM33,0H28a3.5,3.5,0,0,0,0,7h5c.22,0,.44,0,.65,0H34a3.5,3.5,0,0,0,.29-7c-.33,0-.67,0-1,0H33Z"/></g></g></svg>