<svg xmlns="http://www.w3.org/2000/svg" viewBox="0 0 48 48"><title>Asset 26</title><g id="Layer_2" data-name="Layer 2"><g id="Layer_1-2" data-name="Layer 1"><path d="M24,7c7.42,0,12.61,1.77,13.78,3,1.51,1.55,3.53,8.47,3.22,17-.25,6.89-1.89,10.49-2.64,11.15C36.89,39.25,31.86,41,23.91,41c-7,0-12.57-1.49-14.24-2.88C8.93,37.44,7.22,33.56,7,26.44c-.24-8.28,1.72-15,3.17-16.48C11.36,8.77,16.55,7,24,7m0-7C16.23,0,8.49,1.69,5.19,5.07-1.43,11.82-2,37.49,5.19,43.5c3.6,3,11.15,4.5,18.72,4.5s15.16-1.5,18.85-4.5c7.36-6,6.61-31.68,0-38.43C39.45,1.69,31.71,0,24,0Z"/></g></g></svg>