<svg id="Capa_1" enable-background="new 0 0 512 512" height="512" viewBox="0 0 512 512" width="512" xmlns="http://www.w3.org/2000/svg"><g><g><g><g><g><g><circle cx="256" cy="256" fill="#ffce00" r="256"/></g></g></g></g></g><path d="m512 256c0-7.868-.355-15.654-1.05-23.341l-132.438-132.438-230.028 4.827-30.865 285.076 121.316 121.316c5.64.371 11.331.56 17.065.56 141.385 0 256-114.615 256-256z" fill="#ffa300"/><g><path d="m127.237 117.262v173.923h257.527v-173.923c0-14.567-11.809-26.376-26.376-26.376h-204.775c-14.567 0-26.376 11.809-26.376 26.376zm34.93 19.041c-7.557 0-13.683-6.126-13.683-13.683s6.126-13.683 13.683-13.683 13.683 6.126 13.683 13.683-6.126 13.683-13.683 13.683zm187.666 0c-7.557 0-13.683-6.126-13.683-13.683s6.126-13.683 13.683-13.683 13.683 6.126 13.683 13.683-6.126 13.683-13.683 13.683z" fill="#afb4c8"/></g><g><path d="m384.763 117.262c0-14.567-11.809-26.376-26.376-26.376h-96.597v200.299h122.974v-173.923zm-34.93 19.041c-7.557 0-13.683-6.126-13.683-13.683s6.126-13.683 13.683-13.683 13.683 6.126 13.683 13.683-6.126 13.683-13.683 13.683z" fill="#7e8596"/></g><g><path d="m378.475 398.193h-244.95c-10.89 0-19.717-8.828-19.717-19.717v-128.476h284.385v128.475c0 10.89-8.828 19.718-19.718 19.718z" fill="#7584f2"/></g><g><path d="m261.79 250v148.193h116.685c10.89 0 19.718-8.828 19.718-19.718v-128.475z" fill="#606aea"/></g><g><path d="m398.193 277.696h-284.386l-8.807-103.659c-1.353-12.871 8.739-24.08 21.681-24.08h258.637c12.942 0 23.034 11.209 21.681 24.08z" fill="#606aea"/></g><g><path d="m385.319 149.957h-123.529v127.739h136.403l8.807-103.659c1.353-12.871-8.74-24.08-21.681-24.08z" fill="#4855b7"/></g><g><path d="m235.187 277.696c10.547-9.985 17.136-24.111 17.136-39.747 0-30.187-24.56-54.746-54.747-54.746s-54.746 24.559-54.746 54.746h30c0-13.645 11.101-24.746 24.746-24.746s24.747 11.101 24.747 24.746c0 13.646-11.102 24.747-24.747 24.747h-14.644v30h14.644c13.646 0 24.747 11.101 24.747 24.747s-11.102 24.747-24.747 24.747-24.746-11.101-24.746-24.747h-30c0 30.188 24.559 54.747 54.746 54.747s54.747-24.559 54.747-54.747c-.001-15.636-6.59-29.761-17.136-39.747z" fill="#fff"/><g><path d="m345.82 361.153h-30v-138.555l-25.385 12.838-13.539-26.772 47.155-23.846 21.769 13.386z" fill="#e9edf5"/></g></g></g></svg>