<svg id="Capa_1" enable-background="new 0 0 512 512" height="512" viewBox="0 0 512 512" width="512" xmlns="http://www.w3.org/2000/svg"><g><g><g><g><g><g><g><g><circle cx="256" cy="256" fill="#ff6c52" r="256"/></g></g></g></g></g></g></g><path d="m510.625 282.694-115.796-115.795-268.654 264.645 74.783 74.524c17.73 3.885 36.147 5.932 55.042 5.932 132.37 0 241.276-100.466 254.625-229.306z" fill="#ff432e"/><g><g><path d="m301.474 73.544h-157.23c-14.953 0-27.074 12.122-27.074 27.074v310.764c0 14.953 12.121 27.074 27.074 27.074h223.51c14.953 0 27.074-12.122 27.074-27.074v-244.483l-49.194-36.201z" fill="#ffce00"/></g><g><path d="m301.474 73.544h-45.354v364.913h111.635c14.953 0 27.074-12.122 27.074-27.074v-244.484l-52.452-38.482z" fill="#fdba12"/></g><g><path d="m301.474 139.824c0 14.953 12.121 27.074 27.074 27.074h66.281l-93.355-93.355z" fill="#ffdc4a"/></g></g><g><path d="m347.887 388.412h-183.774v-141.412h183.773v141.412zm-153.774-30h123.773v-81.412h-123.773z" fill="#fff"/></g><g><path d="m347.887 247h-91.767v30h61.767v81.412h-61.767v30h91.767z" fill="#e9edf5"/></g></g></svg>