<svg id="Capa_1" enable-background="new 0 0 512 512" height="512" viewBox="0 0 512 512" width="512" xmlns="http://www.w3.org/2000/svg"><g><g><g><g><g><g><g><circle cx="256" cy="256" fill="#bfe1ff" r="256"/></g></g></g></g></g></g><path d="m512 256c0-1.853-.02-3.701-.059-5.545l-162.695-162.694-152.764 49.711 45.428 319.94 51.825 51.825c123.493-18.243 218.265-124.673 218.265-253.237z" fill="#87c7ff"/><g><path d="m373.255 120.157-75.306 75.306c-4.344 13.416-14.94 24.011-28.356 28.355l-85.773 85.773c19.213 32.087 42.473 80.058 50.701 134.502 1.608 10.64 10.718 18.524 21.478 18.524s19.871-7.884 21.478-18.524c14.92-98.728 79.279-176.195 79.279-176.195 19.783-23.147 31.729-53.193 31.729-86.03.001-22.285-5.509-43.281-15.23-61.711z" fill="#06b26b"/></g><g><path d="m373.255 120.157-75.306 75.306c-4.344 13.416-14.94 24.011-28.356 28.355l-13.473 13.473v225.321c10.707-.059 19.756-7.919 21.358-18.519 14.92-98.728 79.279-176.195 79.279-176.195 19.783-23.147 31.729-53.193 31.729-86.03 0-22.285-5.51-43.281-15.231-61.711z" fill="#0a9154"/></g><g><path d="m256 225.963c-24.353 0-44.095-19.742-44.095-44.094 0-12.092 4.868-23.046 12.75-31.012l-88.198 88.197c5.006 10.446 11.341 20.134 18.785 28.844 0 0 14.375 17.303 31.113 45.976l101.256-101.256-.011-.011c-8.011 8.234-19.204 13.356-31.6 13.356z" fill="#ffce00"/></g><g><path d="m287.6 212.607c-7.985 8.208-19.132 13.32-31.48 13.353v18.149l31.491-31.491z" fill="#fdba12"/></g><g><path d="m313.185 62.326-87.933 87.933.008.008c7.943-7.728 18.783-12.493 30.74-12.493 24.353 0 44.095 19.742 44.095 44.095 0 11.957-4.767 22.795-12.494 30.738l.011.011 87.933-87.932c-13.05-27.231-35.129-49.31-62.36-62.36z" fill="#606aea"/></g><g><path d="m313.185 62.326-57.065 57.065v18.386c24.297.065 43.974 19.779 43.974 44.092 0 11.957-4.767 22.795-12.494 30.738l.011.011 87.933-87.932c-13.049-27.231-35.128-49.31-62.359-62.36z" fill="#4a5bd3"/></g><g><path d="m224.988 150.523c.089-.088.183-.17.272-.257l-.008-.008z" fill="#7584f2"/></g><g><path d="m235.584 142.775 79.514-79.514c-17.791-8.881-37.861-13.879-59.098-13.879-36.366 0-69.305 14.656-93.246 38.378l62.514 62.514c3.049-2.966 6.513-5.508 10.316-7.499z" fill="#4855b7"/></g><g><path d="m256.121 49.384v72.855l58.977-58.977c-17.758-8.866-37.785-13.859-58.977-13.878z" fill="#27488f"/></g><g><path d="m162.754 87.761c-24.229 24.009-39.24 57.303-39.24 94.108 0 21.237 4.997 41.306 13.879 59.098l79.514-79.514c2.18-4.167 5.021-7.928 8.361-11.178z" fill="#ff583e"/></g></g></svg>