<svg xmlns="http://www.w3.org/2000/svg" viewBox="0 0 134.88 120"><title>icon_9</title><g id="Layer_2" data-name="Layer 2"><g id="Layer_1-2" data-name="Layer 1"><path d="M124.18,11.74A36.27,36.27,0,0,0,97.2,0,33.91,33.91,0,0,0,76,7.32a43.22,43.22,0,0,0-8.57,8.94,43.22,43.22,0,0,0-8.57-8.94A33.91,33.91,0,0,0,37.68,0a36.27,36.27,0,0,0-27,11.74C3.8,19.23,0,29.45,0,40.54,0,51.94,4.25,62.38,13.38,73.4c8.16,9.85,19.9,19.85,33.49,31.43,4.64,4,9.89,8.44,15.36,13.21a7.9,7.9,0,0,0,10.42,0c5.46-4.77,10.73-9.26,15.37-13.21C101.6,93.25,113.34,83.25,121.5,73.4c9.13-11,13.38-21.46,13.38-32.87C134.88,29.45,131.08,19.23,124.18,11.74Z"/></g></g></svg>