<svg version="1.0" xmlns="http://www.w3.org/2000/svg" width="1230.000000pt" height="1280.000000pt" viewBox="0 0 1230.000000 1280.000000" preserveAspectRatio="xMidYMid meet">
<g transform="translate(0.000000,1280.000000) scale(0.100000,-0.100000)">
<path d="M5884 12733 c-195 -267 -523 -594 -811 -809 -799 -598 -1692 -833
-2623 -693 -323 49 -627 136 -991 285 -89 36 -162 64 -164 62 -1 -2 -15 -50
-30 -108 -81 -313 -232 -577 -460 -805 -188 -189 -366 -296 -667 -401 l-138
-49 0 -36 0 -36 113 -48 c203 -88 358 -189 511 -335 l78 -76 -183 -60 -183
-60 145 -57 c219 -86 404 -201 568 -353 53 -48 72 -76 106 -149 209 -447 320
-1083 300 -1705 -42 -1284 -453 -2716 -1302 -4545 -121 -259 -146 -351 -147
-530 -1 -143 16 -221 74 -336 158 -311 596 -558 1288 -725 474 -114 826 -170
1997 -319 905 -115 1315 -181 1670 -271 383 -97 634 -210 757 -342 50 -54 76
-99 103 -180 l17 -53 81 3 80 3 21 61 c12 33 33 81 48 106 31 51 118 133 128
121 4 -5 22 -50 40 -100 18 -51 35 -93 39 -93 3 0 25 54 49 119 48 134 88 201
129 220 131 61 476 156 761 210 349 67 625 107 1522 221 966 123 1364 188
1805 296 184 44 436 123 560 174 55 23 163 63 240 89 178 61 299 111 400 166
339 184 503 425 482 704 -11 138 -53 259 -163 471 -97 186 -303 616 -409 855
-935 2106 -1129 3779 -568 4887 114 226 252 416 424 585 202 199 373 311 622
408 139 55 135 64 -57 127 -83 26 -200 72 -262 102 -111 53 -266 150 -299 186
-16 18 -15 20 36 53 73 46 130 74 289 142 74 31 138 60 142 64 4 3 -75 35
-175 70 -218 76 -352 139 -473 219 -184 124 -316 258 -446 451 -114 171 -182
320 -244 536 -19 65 -36 121 -38 122 -2 2 -75 -26 -162 -62 -380 -159 -721
-252 -1099 -301 -166 -22 -591 -25 -750 -6 -642 78 -1218 317 -1765 731 -301
227 -591 514 -795 785 l-57 76 -57 0 -57 0 -50 -67z"/>
</g>
</svg>
