<svg xmlns="http://www.w3.org/2000/svg" viewBox="0 0 127.38 130"><title>icon_12</title><g id="Layer_2" data-name="Layer 2"><g id="Layer_1-2" data-name="Layer 1"><path d="M123,84.57l-2.9,1.62a8.45,8.45,0,0,0-4.21,8.92l.61,3.28a8.45,8.45,0,0,1-7.83,10l-3.33.19a8.41,8.41,0,0,0-7.67,6.2L96.82,118a8.48,8.48,0,0,1-11.4,5.59l-3.09-1.28a8.48,8.48,0,0,0-9.62,2.27l-2.18,2.5a8.45,8.45,0,0,1-12.68.11l-2.21-2.48A8.43,8.43,0,0,0,46,122.58l-3.07,1.3a8.44,8.44,0,0,1-11.48-5.4l-.93-3.2a8.49,8.49,0,0,0-7.78-6.1l-3.33-.13a8.47,8.47,0,0,1-8-9.86L12,95.91A8.46,8.46,0,0,0,7.64,87L4.71,85.47A8.48,8.48,0,0,1,1.78,73.11L3.7,70.39a8.49,8.49,0,0,0-.08-9.88l-2-2.69A8.46,8.46,0,0,1,4.36,45.43l2.91-1.62a8.43,8.43,0,0,0,4.2-8.92l-.61-3.28a8.45,8.45,0,0,1,7.83-10L22,21.43a8.39,8.39,0,0,0,7.67-6.2L30.57,12A8.48,8.48,0,0,1,42,6.41l3.09,1.28a8.48,8.48,0,0,0,9.62-2.27l2.18-2.5a8.45,8.45,0,0,1,12.68-.11l2.22,2.48A8.43,8.43,0,0,0,81.4,7.42l3.06-1.3a8.44,8.44,0,0,1,11.48,5.4l.94,3.2a8.48,8.48,0,0,0,7.77,6.1L108,21a8.46,8.46,0,0,1,8,9.86l-.56,3.28A8.45,8.45,0,0,0,119.76,43l2.93,1.57a8.48,8.48,0,0,1,2.93,12.36l-1.92,2.72a8.47,8.47,0,0,0,.08,9.88l2,2.69A8.45,8.45,0,0,1,123,84.57Z"/></g></g></svg>