<svg xmlns="http://www.w3.org/2000/svg" viewBox="0 0 127.14 121.48"><title>icon_4</title><g id="Layer_2" data-name="Layer 2"><g id="Layer_1-2" data-name="Layer 1"><path d="M99.3,121a5.2,5.2,0,0,1-2.45-.61l-30.37-16a6.24,6.24,0,0,0-5.82,0l-30.37,16a5.2,5.2,0,0,1-2.45.61,5.38,5.38,0,0,1-4-1.9,5.17,5.17,0,0,1-1.14-4.25L28.46,81a6.24,6.24,0,0,0-1.8-5.54L2.09,51.52a5.25,5.25,0,0,1,2.92-9l34-4.94a6.22,6.22,0,0,0,4.71-3.42L58.86,3.43a5.25,5.25,0,0,1,9.42,0L83.47,34.2a6.22,6.22,0,0,0,4.71,3.42l34,4.94a5.25,5.25,0,0,1,2.91,9L100.48,75.47A6.24,6.24,0,0,0,98.68,81l5.8,33.82a5.17,5.17,0,0,1-1.14,4.25A5.36,5.36,0,0,1,99.3,121Z"/><path d="M63.57,1a4.65,4.65,0,0,1,4.26,2.65L83,34.42a6.79,6.79,0,0,0,5.09,3.7l34,4.93a4.76,4.76,0,0,1,2.64,8.11l-24.57,24a6.75,6.75,0,0,0-1.94,6l5.8,33.82a4.68,4.68,0,0,1-1,3.85,4.85,4.85,0,0,1-3.66,1.72,4.71,4.71,0,0,1-2.21-.56L66.71,104a6.71,6.71,0,0,0-6.28,0l-30.37,16a4.75,4.75,0,0,1-2.22.56,4.85,4.85,0,0,1-3.66-1.72,4.64,4.64,0,0,1-1-3.85L29,81.09a6.76,6.76,0,0,0-1.95-6l-24.57-24a4.76,4.76,0,0,1,2.64-8.11l34-4.93a6.75,6.75,0,0,0,5.09-3.7L59.31,3.65A4.66,4.66,0,0,1,63.57,1m0-1a5.69,5.69,0,0,0-5.16,3.21L43.22,34a5.74,5.74,0,0,1-4.33,3.15l-34,4.93a5.76,5.76,0,0,0-3.19,9.82L26.32,75.83A5.77,5.77,0,0,1,28,80.92l-5.8,33.82a5.74,5.74,0,0,0,8.35,6.07l30.37-16a5.77,5.77,0,0,1,5.36,0l30.37,16a5.74,5.74,0,0,0,8.35-6.07l-5.8-33.82a5.75,5.75,0,0,1,1.66-5.09L125.4,51.88a5.76,5.76,0,0,0-3.19-9.82l-34-4.93A5.78,5.78,0,0,1,83.92,34L68.73,3.21A5.68,5.68,0,0,0,63.57,0Z"/></g></g></svg>