<svg version="1.0" xmlns="http://www.w3.org/2000/svg" width="1222.000000pt" height="1280.000000pt" viewBox="0 0 1222.000000 1280.000000" preserveAspectRatio="xMidYMid meet">
<g transform="translate(0.000000,1280.000000) scale(0.100000,-0.100000)">
<path d="M5795 12785 c-635 -58 -1284 -293 -1844 -667 -960 -642 -1653 -1661
-1850 -2723 -41 -220 -53 -350 -58 -607 l-6 -258 -96 -62 c-397 -257 -825
-659 -1120 -1053 -290 -388 -515 -825 -654 -1275 -219 -708 -220 -1451 -2
-2155 477 -1539 1865 -2746 3410 -2964 140 -20 167 -22 332 -30 454 -21 895
41 1340 188 152 50 342 125 425 167 26 13 51 24 55 23 4 0 -41 -25 -102 -54
-60 -29 -101 -53 -90 -53 11 0 52 -5 90 -11 298 -50 673 -49 975 0 36 6 74 11
85 11 11 0 -29 24 -90 53 -60 29 -106 54 -102 54 4 1 29 -10 55 -23 279 -141
756 -280 1132 -331 230 -31 648 -36 848 -10 359 46 618 109 925 224 997 374
1865 1160 2352 2131 224 446 357 913 400 1400 74 836 -165 1709 -677 2473
-164 245 -311 421 -552 663 -240 239 -452 414 -697 572 l-96 62 -6 258 c-8
412 -62 726 -188 1105 -318 950 -995 1786 -1890 2333 -52 32 -175 99 -274 149
-648 329 -1353 472 -2030 410z"/>
</g>
</svg>