<?xml version="1.0" encoding="utf-8"?>
<!-- Generator: Adobe Illustrator 25.2.1, SVG Export Plug-In . SVG Version: 6.00 Build 0)  -->
<svg version="1.1" id="Layer_1" xmlns="http://www.w3.org/2000/svg" xmlns:xlink="http://www.w3.org/1999/xlink" x="0px" y="0px"
	 viewBox="0 0 237.6 299.2" style="enable-background:new 0 0 237.6 299.2;" xml:space="preserve">
<style type="text/css">
	.st0{fill:#FFFFFF;stroke:#BEE900;stroke-width:12;stroke-linecap:round;stroke-linejoin:round;}
	.st1{fill:#BEE900;stroke:#BEE900;stroke-width:18;stroke-linecap:square;stroke-linejoin:round;}
	.st2{fill:none;stroke:#231F20;stroke-width:8;stroke-linecap:round;stroke-linejoin:round;}
	.st3{fill:#100101;}
</style>
<rect x="7.6" y="6" class="st0" width="214.1" height="214.1"/>
<rect x="9" y="245.9" class="st1" width="211.4" height="44.3"/>
<path class="st2" d="M115.1,225.1"/>
<path class="st2" d="M92.6,245.9"/>
<path class="st2" d="M115.1,225.1"/>
<path class="st2" d="M133.8,246.1"/>
<g>
	<g>
		<path class="st3" d="M50.7,265.3c-0.4-0.6-1-1-1.7-1.2c0.5-0.9,0.4-2-0.1-2.9c-0.4-0.6-1-1-1.7-1.2c0.1-0.2,0.2-0.5,0.3-0.7
			c0.1-0.7,0-1.5-0.4-2.1c-0.4-0.6-1-1-1.7-1.2c0.5-0.9,0.4-2-0.1-2.9c-0.9-1.3-2.6-1.6-3.9-0.8l-2.8,1.9c-1.5-0.8-3.1-1.3-4.7-1.6
			c-0.5-0.8-1.1-1.5-1.8-2.2l-1.2-1.1c-0.8-0.8-2.2-0.9-3.2-0.3c-1.2,0.8-1.5,2.3-0.7,3.5c0,0,0.1,0.1,0.1,0.1
			c-3.8,0.8-7.2,2.8-9.8,5.7c-2.8,3.2-4.3,7.3-4.3,11.5c0,0.8,0.1,1.6,0.2,2.4c0.8,6.2,4.9,11.5,10.7,13.9c2.1,0.9,4.4,1.3,6.7,1.3
			c3.7,0,7.2-1.1,10.2-3.3c2.9-2.1,5.1-5,6.3-8.4c0.1-0.3,0-0.7-0.4-0.8c-0.3-0.1-0.7,0-0.8,0.4c-1.1,3.1-3.2,5.8-5.9,7.8
			c-2.8,2-6.1,3-9.5,3c-1.8,0-3.5-0.3-5.2-0.8l4.9-3.3c0,0,0,0,0,0c0,0,0,0,0,0l4.1-2.7h0c0.4-0.2,0.6-0.6,0.7-1
			c0.1-0.4,0-0.9-0.2-1.2l-0.1-0.1l0.8-0.5c0.6-0.4,1.2-0.5,1.9-0.4c1,0.2,2-0.1,2.8-0.6l6.6-4.4c0,0.6-0.1,1.1-0.2,1.7
			c-0.1,0.3,0.2,0.6,0.5,0.7c0,0,0.1,0,0.1,0c0.3,0,0.5-0.2,0.6-0.5c0.2-0.9,0.3-1.8,0.3-2.8l1.9-1.2c0.6-0.4,1.1-1,1.2-1.8
			C51.3,266.6,51.1,265.9,50.7,265.3L50.7,265.3z M37.2,255l-1.8,1.2l-0.4-1c-0.2-0.4-0.3-0.8-0.5-1.2
			C35.4,254.3,36.4,254.6,37.2,255L37.2,255z M18.1,259.2c2.5-2.8,5.8-4.7,9.5-5.4c0.6,1.4,0.7,3,0.4,4.5l-1.5,6.4
			c-0.2-0.2-0.5-0.4-0.9-0.5c-0.4-0.1-0.9,0-1.2,0.2l-4.2,2.8c0,0,0,0,0,0c0,0,0,0,0,0l-6,4c0-0.4-0.1-0.9-0.1-1.3
			C14.1,266,15.5,262.1,18.1,259.2L18.1,259.2z M33.8,278.2c0,0.1-0.1,0.2-0.2,0.3l-3.6,2.4l-6.7-9.9c-0.2-0.3-0.6-0.4-0.8-0.2
			c-0.3,0.2-0.4,0.6-0.2,0.8l6.7,9.9l-5.1,3.4c-5.1-2.2-8.7-6.9-9.6-12.4l6-4l0.7,1c0.1,0.2,0.3,0.3,0.5,0.3c0.1,0,0.2,0,0.3-0.1
			c0.3-0.2,0.4-0.6,0.2-0.8l-0.7-1l3.7-2.4c0.1-0.1,0.2-0.1,0.3-0.1c0.1,0,0.2,0.1,0.3,0.2l8.2,12.3C33.8,278,33.8,278.1,33.8,278.2
			L33.8,278.2z M49.9,267.1c-0.1,0.4-0.3,0.8-0.7,1l-2.1,1.4c0,0,0,0,0,0l-7.6,5c-0.6,0.4-1.2,0.5-1.9,0.4c-1-0.2-2,0.1-2.8,0.6
			l-0.8,0.5L27.4,266l1.7-7.5c0.4-1.9,0.2-3.9-0.6-5.7c0,0,0,0,0-0.1c-0.2-0.3-0.3-0.7-0.6-1c-0.4-0.6-0.2-1.4,0.4-1.8
			c0.5-0.3,1.2-0.3,1.6,0.2l1.2,1.1c1.3,1.2,2.2,2.7,2.8,4.3l0.6,1.7c0,0,0,0,0,0c0,0,0,0,0,0c0,0,0,0,0,0c0,0,0,0.1,0,0.1
			c0.2,0.3,0.6,0.4,0.8,0.2l6.5-4.3c0.7-0.5,1.7-0.3,2.2,0.4c0.5,0.7,0.3,1.7-0.4,2.2l-0.6,0.4c0,0,0,0,0,0l-1.2,0.8c0,0,0,0,0,0
			c0,0,0,0,0,0c-0.3,0.2-0.3,0.6-0.1,0.8c0.2,0.3,0.6,0.4,0.8,0.2l1.3-0.8c0.4-0.2,0.8-0.3,1.2-0.2c0.4,0.1,0.8,0.3,1,0.7
			c0.2,0.4,0.3,0.8,0.2,1.2c-0.1,0.4-0.3,0.8-0.7,1l-1.8,1.2c-0.3,0.2-0.4,0.6-0.2,0.8c0.1,0.2,0.3,0.3,0.5,0.3c0.1,0,0.2,0,0.3-0.1
			l0.3-0.2l1-0.6c0.7-0.5,1.7-0.3,2.2,0.4c0.5,0.7,0.3,1.7-0.4,2.2l-0.9,0.6c0,0,0,0,0,0l-0.9,0.6c-0.3,0.2-0.4,0.6-0.2,0.8
			c0.1,0.2,0.3,0.3,0.5,0.3c0.1,0,0.2,0,0.3-0.1l0.3-0.2l1-0.6c0.4-0.2,0.8-0.3,1.2-0.2c0.4,0.1,0.8,0.3,1,0.7
			C49.9,266.3,50,266.7,49.9,267.1L49.9,267.1z M49.9,267.1"/>
	</g>
</g>
<g>
	<path d="M70.4,262.3h-6.9v4.4h5.7c0.5,0,0.9,0.1,1.2,0.4s0.4,0.6,0.4,1s-0.1,0.7-0.4,0.9s-0.7,0.4-1.2,0.4h-5.7v5.7
		c0,0.7-0.2,1.3-0.5,1.6s-0.7,0.5-1.2,0.5c-0.5,0-0.9-0.2-1.3-0.5S60,275.7,60,275v-13.2c0-0.5,0.1-0.9,0.2-1.2s0.4-0.5,0.7-0.7
		s0.7-0.2,1.2-0.2h8.2c0.6,0,1,0.1,1.2,0.4s0.4,0.6,0.4,1c0,0.4-0.1,0.7-0.4,1S70.9,262.3,70.4,262.3z"/>
	<path d="M82.4,271.4h-6.3c0,0.7,0.2,1.4,0.4,1.9s0.7,1,1.1,1.3s1,0.4,1.6,0.4c0.4,0,0.7,0,1-0.1s0.6-0.2,0.9-0.4s0.6-0.4,0.8-0.6
		s0.6-0.5,1-0.9c0.2-0.1,0.4-0.2,0.7-0.2c0.3,0,0.6,0.1,0.8,0.3s0.3,0.4,0.3,0.8c0,0.3-0.1,0.6-0.3,1s-0.6,0.8-1,1.1s-1,0.7-1.7,0.9
		s-1.5,0.4-2.4,0.4c-2.1,0-3.7-0.6-4.8-1.8s-1.7-2.8-1.7-4.8c0-0.9,0.1-1.8,0.4-2.6s0.7-1.5,1.2-2.1s1.2-1,2-1.3s1.7-0.5,2.6-0.5
		c1.2,0,2.3,0.3,3.2,0.8s1.6,1.2,2,2s0.7,1.7,0.7,2.6c0,0.8-0.2,1.3-0.7,1.6S83.2,271.4,82.4,271.4z M76.1,269.5h5.8
		c-0.1-1.1-0.4-1.9-0.9-2.5s-1.2-0.8-2-0.8c-0.8,0-1.5,0.3-2,0.8S76.3,268.5,76.1,269.5z"/>
	<path d="M96.7,271.4h-6.3c0,0.7,0.2,1.4,0.4,1.9s0.7,1,1.1,1.3s1,0.4,1.6,0.4c0.4,0,0.7,0,1-0.1s0.6-0.2,0.9-0.4s0.6-0.4,0.8-0.6
		s0.6-0.5,1-0.9c0.2-0.1,0.4-0.2,0.7-0.2c0.3,0,0.6,0.1,0.8,0.3s0.3,0.4,0.3,0.8c0,0.3-0.1,0.6-0.3,1s-0.6,0.8-1,1.1s-1,0.7-1.7,0.9
		s-1.5,0.4-2.4,0.4c-2.1,0-3.7-0.6-4.8-1.8s-1.7-2.8-1.7-4.8c0-0.9,0.1-1.8,0.4-2.6s0.7-1.5,1.2-2.1s1.2-1,2-1.3s1.7-0.5,2.6-0.5
		c1.2,0,2.3,0.3,3.2,0.8s1.6,1.2,2,2s0.7,1.7,0.7,2.6c0,0.8-0.2,1.3-0.7,1.6S97.5,271.4,96.7,271.4z M90.4,269.5h5.8
		c-0.1-1.1-0.4-1.9-0.9-2.5s-1.2-0.8-2-0.8c-0.8,0-1.5,0.3-2,0.8S90.5,268.5,90.4,269.5z"/>
	<path d="M110.8,275.3v-0.3c-0.4,0.5-0.9,0.9-1.3,1.2s-0.9,0.5-1.4,0.7s-1,0.2-1.6,0.2c-0.8,0-1.5-0.2-2.1-0.5s-1.2-0.8-1.7-1.4
		s-0.8-1.3-1.1-2.1s-0.4-1.7-0.4-2.6c0-2,0.5-3.6,1.5-4.7s2.3-1.7,3.9-1.7c0.9,0,1.7,0.2,2.3,0.5s1.2,0.8,1.9,1.5v-4.7
		c0-0.7,0.1-1.2,0.4-1.5s0.6-0.5,1.1-0.5s0.9,0.2,1.1,0.5s0.4,0.8,0.4,1.4v14.1c0,0.6-0.1,1.1-0.4,1.4s-0.6,0.5-1.1,0.5
		c-0.4,0-0.8-0.2-1.1-0.5S110.8,275.8,110.8,275.3z M104.5,270.6c0,0.9,0.1,1.6,0.4,2.2s0.6,1.1,1.1,1.4s1,0.5,1.5,0.5
		c0.6,0,1.1-0.1,1.5-0.4s0.8-0.7,1.1-1.3s0.4-1.4,0.4-2.3c0-0.9-0.1-1.6-0.4-2.2s-0.7-1.1-1.1-1.4s-1-0.5-1.6-0.5
		c-0.6,0-1.1,0.2-1.6,0.5s-0.8,0.8-1.1,1.4S104.5,269.7,104.5,270.6z"/>
	<path d="M120,261.1v4.9c0.6-0.6,1.2-1.1,1.8-1.4s1.4-0.5,2.3-0.5c1.1,0,2,0.3,2.8,0.8s1.4,1.2,1.9,2.2s0.7,2.1,0.7,3.4
		c0,1-0.1,1.9-0.4,2.7s-0.6,1.5-1.1,2.1s-1,1.1-1.7,1.4s-1.4,0.5-2.2,0.5c-0.5,0-1-0.1-1.4-0.2s-0.8-0.3-1.1-0.5s-0.6-0.4-0.8-0.6
		s-0.5-0.5-0.8-0.9v0.3c0,0.6-0.1,1.1-0.4,1.4s-0.7,0.5-1.1,0.5c-0.5,0-0.8-0.2-1.1-0.5s-0.4-0.8-0.4-1.4v-14c0-0.6,0.1-1.1,0.4-1.5
		s0.6-0.5,1.1-0.5c0.5,0,0.9,0.2,1.1,0.5S120,260.6,120,261.1z M120.1,270.6c0,1.3,0.3,2.3,0.9,2.9s1.3,1,2.3,1c0.8,0,1.5-0.3,2.1-1
		s0.9-1.7,0.9-3c0-0.8-0.1-1.6-0.4-2.2s-0.6-1.1-1-1.4s-1-0.5-1.6-0.5c-0.6,0-1.2,0.2-1.6,0.5s-0.9,0.8-1.1,1.4
		S120.1,269.8,120.1,270.6z"/>
	<path d="M140.1,275.3c-0.8,0.6-1.5,1.1-2.2,1.4s-1.5,0.5-2.4,0.5c-0.8,0-1.5-0.2-2.2-0.5s-1.1-0.8-1.4-1.3s-0.5-1.2-0.5-1.8
		c0-0.9,0.3-1.6,0.8-2.2s1.3-1,2.3-1.2c0.2,0,0.7-0.2,1.5-0.3s1.5-0.3,2.1-0.5s1.2-0.3,1.9-0.5c0-0.8-0.2-1.5-0.5-1.9
		s-0.9-0.6-1.9-0.6c-0.8,0-1.4,0.1-1.8,0.3s-0.8,0.6-1.1,1s-0.5,0.8-0.6,0.9s-0.4,0.2-0.8,0.2c-0.4,0-0.7-0.1-0.9-0.3
		s-0.4-0.5-0.4-0.9c0-0.6,0.2-1.1,0.6-1.6s1-1,1.9-1.3s1.9-0.5,3.2-0.5c1.4,0,2.5,0.2,3.3,0.5s1.4,0.9,1.7,1.6s0.5,1.7,0.5,2.9
		c0,0.8,0,1.4,0,1.9s0,1.1,0,1.7c0,0.6,0.1,1.2,0.3,1.9s0.3,1.1,0.3,1.3c0,0.3-0.2,0.6-0.5,0.9s-0.7,0.4-1,0.4c-0.3,0-0.7-0.2-1-0.5
		S140.4,275.9,140.1,275.3z M139.9,270.6c-0.5,0.2-1.2,0.4-2,0.5s-1.5,0.3-1.9,0.4s-0.7,0.3-1,0.5s-0.5,0.6-0.5,1.1
		c0,0.5,0.2,0.9,0.6,1.2s0.8,0.5,1.4,0.5c0.6,0,1.2-0.1,1.8-0.4s0.9-0.6,1.2-1.1c0.3-0.5,0.4-1.3,0.4-2.4V270.6z"/>
	<path d="M157.7,273.1c0,0.4-0.1,0.8-0.4,1.3s-0.6,0.9-1.1,1.3s-1.1,0.7-1.8,1s-1.6,0.4-2.5,0.4c-2,0-3.5-0.6-4.6-1.7
		s-1.7-2.7-1.7-4.6c0-1.3,0.3-2.5,0.8-3.5s1.2-1.8,2.2-2.3s2.1-0.8,3.4-0.8c0.8,0,1.6,0.1,2.3,0.4s1.3,0.6,1.8,0.9s0.8,0.8,1.1,1.2
		s0.4,0.8,0.4,1.2c0,0.4-0.1,0.7-0.4,1s-0.6,0.4-1,0.4c-0.3,0-0.5-0.1-0.7-0.2s-0.4-0.4-0.6-0.7c-0.4-0.6-0.8-1-1.2-1.3
		s-1-0.4-1.6-0.4c-0.9,0-1.7,0.4-2.3,1.1s-0.9,1.7-0.9,3c0,0.6,0.1,1.2,0.2,1.7s0.4,0.9,0.6,1.3s0.6,0.6,1,0.8s0.8,0.3,1.3,0.3
		c0.6,0,1.2-0.1,1.6-0.4s0.9-0.8,1.2-1.4c0.2-0.4,0.4-0.6,0.6-0.8s0.5-0.3,0.8-0.3c0.4,0,0.7,0.1,1,0.4S157.7,272.8,157.7,273.1z"/>
	<path d="M167.6,275.6l-2.8-4.6l-1.7,1.6v2.5c0,0.6-0.2,1.1-0.5,1.4s-0.7,0.5-1.1,0.5c-0.5,0-0.9-0.2-1.2-0.5s-0.4-0.8-0.4-1.5
		v-13.6c0-0.7,0.1-1.3,0.4-1.6s0.7-0.6,1.2-0.6c0.5,0,0.9,0.2,1.2,0.5s0.4,0.8,0.4,1.5v7.8l3.6-3.8c0.4-0.5,0.8-0.8,1-1
		s0.5-0.3,0.9-0.3c0.4,0,0.7,0.1,1,0.4s0.4,0.6,0.4,1c0,0.5-0.4,1.1-1.3,1.9l-1.7,1.6l3.3,5.2c0.2,0.4,0.4,0.7,0.5,0.9
		s0.2,0.4,0.2,0.6c0,0.5-0.1,0.9-0.4,1.2s-0.6,0.4-1.1,0.4c-0.4,0-0.7-0.1-0.9-0.3S167.9,276.2,167.6,275.6z"/>
	<path d="M179.6,269.7v-8.3c0-0.7,0.2-1.2,0.5-1.6s0.7-0.5,1.2-0.5c0.5,0,1,0.2,1.3,0.5s0.5,0.9,0.5,1.6v8.4c0,1,0.1,1.8,0.3,2.4
		s0.6,1.1,1.1,1.5s1.3,0.5,2.3,0.5c1.4,0,2.3-0.4,2.9-1.1s0.8-1.8,0.8-3.3v-8.5c0-0.7,0.2-1.2,0.5-1.6s0.7-0.5,1.3-0.5
		s0.9,0.2,1.3,0.5s0.5,0.9,0.5,1.6v8.3c0,1.3-0.1,2.5-0.4,3.4s-0.8,1.7-1.5,2.4c-0.6,0.6-1.4,1-2.2,1.3s-1.8,0.4-2.9,0.4
		c-1.3,0-2.5-0.1-3.4-0.4s-1.7-0.7-2.3-1.3s-1-1.4-1.3-2.3S179.6,271,179.6,269.7z"/>
	<path d="M207.9,272.9c0,0.9-0.2,1.6-0.6,2.3s-1.1,1.1-1.9,1.4s-1.9,0.5-3.1,0.5c-1.1,0-2.1-0.2-3-0.5s-1.4-0.8-1.8-1.3
		s-0.6-1.1-0.6-1.6c0-0.4,0.1-0.7,0.4-0.9s0.6-0.4,0.9-0.4c0.3,0,0.6,0.1,0.8,0.2s0.4,0.4,0.5,0.7c0.3,0.6,0.7,1,1.2,1.3
		s1.1,0.4,1.9,0.4c0.6,0,1.2-0.1,1.6-0.4s0.6-0.6,0.6-1c0-0.6-0.2-1-0.6-1.2s-1.1-0.5-2.1-0.7c-1.1-0.3-2-0.6-2.7-0.9
		s-1.2-0.7-1.7-1.2s-0.6-1.1-0.6-1.8c0-0.6,0.2-1.2,0.6-1.8s0.9-1,1.7-1.4s1.6-0.5,2.7-0.5c0.8,0,1.6,0.1,2.2,0.3s1.2,0.4,1.7,0.7
		s0.8,0.6,1,1s0.3,0.7,0.3,1c0,0.4-0.1,0.7-0.4,0.9s-0.6,0.4-1,0.4c-0.3,0-0.6-0.1-0.8-0.3s-0.5-0.5-0.8-0.8
		c-0.2-0.3-0.5-0.6-0.9-0.8s-0.8-0.3-1.3-0.3c-0.6,0-1.1,0.1-1.4,0.4s-0.6,0.6-0.6,0.9c0,0.3,0.1,0.6,0.4,0.8s0.7,0.4,1.1,0.5
		s1.1,0.3,2,0.5c1,0.2,1.8,0.5,2.4,0.9s1.1,0.7,1.4,1.2S207.9,272.3,207.9,272.9z"/>
	<path d="M211.7,269.3l-0.4-5.6c-0.1-1.1-0.1-1.9-0.1-2.4c0-0.6,0.2-1.2,0.5-1.5s0.8-0.5,1.3-0.5c0.7,0,1.1,0.2,1.3,0.7
		s0.3,1.1,0.3,2c0,0.5,0,1-0.1,1.6l-0.5,5.8c-0.1,0.7-0.2,1.2-0.4,1.6s-0.5,0.6-0.9,0.6c-0.4,0-0.7-0.2-0.9-0.5
		S211.7,270.1,211.7,269.3z M213,277.1c-0.5,0-0.9-0.2-1.2-0.5s-0.5-0.7-0.5-1.3c0-0.5,0.2-0.9,0.5-1.2s0.8-0.5,1.2-0.5
		s0.9,0.2,1.3,0.5s0.5,0.8,0.5,1.2c0,0.5-0.2,1-0.5,1.3S213.4,277.1,213,277.1z"/>
</g>
</svg>
