<svg id="Layer_1" data-name="Layer 1" xmlns="http://www.w3.org/2000/svg" viewBox="0 0 160 160"><defs><style>.cls-1{fill:#ff375f;}.cls-2{fill:#fff;}</style></defs><path d="M33.59,136.11a1.45,1.45,0,0,1-1.07-.46,1.5,1.5,0,0,1,0-2.12L39.34,127c-.87-1.67-2.67-5.21-4.34-8.71-2.33-4.89-3.34-16.69.93-25.23,3-6.08,3.78-12.38,4.43-17.94.16-1.35.31-2.66.49-3.9a29.29,29.29,0,0,0-.09-6.83c-.33-3.62-.67-7.37,2.66-8.62a4.8,4.8,0,0,1,3.83.09,7.53,7.53,0,0,1,3.4,4,1.5,1.5,0,0,1-2.83,1A4.56,4.56,0,0,0,46,58.52a1.82,1.82,0,0,0-1.5,0c-1.07.4-1,2.07-.72,5.54a31.83,31.83,0,0,1,.07,7.52c-.18,1.22-.33,2.5-.48,3.83-.68,5.8-1.45,12.38-4.72,18.93-3.71,7.41-3,18.15-.91,22.6,2.26,4.74,4.78,9.56,4.8,9.6l.52,1-8.39,8.14A1.51,1.51,0,0,1,33.59,136.11Z"/><path d="M60,156.34a1.53,1.53,0,0,1-1-.42,1.5,1.5,0,0,1,0-2.12c6.69-6.93,7.37-7.16,7.73-7.28a8.91,8.91,0,0,1,1.94-.21c3.52-.22,12.89-.81,18.77-3.84,7.21-3.71,17.56-16.93,17.67-17.06a1.5,1.5,0,0,1,2.36,1.84c-.44.57-10.87,13.87-18.66,17.89-6.43,3.31-16.26,3.93-20,4.17l-1.1.07c-.9.73-3.95,3.77-6.59,6.5A1.49,1.49,0,0,1,60,156.34Z"/><path class="cls-1" d="M114.32,70.77A5,5,0,0,0,117,72.49v2.79l-1.86,1.48a5,5,0,0,0-.81,7.07A5,5,0,0,0,117,85.56v2.79l-1.86,1.48a5,5,0,0,0-.81,7.07A5,5,0,0,0,117,98.63v2.78l-1.86,1.48a5,5,0,0,0-.81,7.08A5,5,0,0,0,117,111.7v9.52a9.14,9.14,0,0,1-9.14,9.14H56.39a9.14,9.14,0,0,1-9.14-9.14V14.31a9.15,9.15,0,0,1,9.14-9.15h51.46A9.15,9.15,0,0,1,117,14.31v47.9l-1.86,1.48A5,5,0,0,0,114.32,70.77Z"/><path d="M107.85,131.86H56.39a10.65,10.65,0,0,1-10.63-10.64V14.31A10.65,10.65,0,0,1,56.39,3.66h51.46a10.66,10.66,0,0,1,10.64,10.65V62.93l-2.42,1.93a3.54,3.54,0,0,0-.57,5,3.48,3.48,0,0,0,1.86,1.2l1.13.28V76l-2.42,1.93a3.54,3.54,0,0,0-1.32,2.37,3.55,3.55,0,0,0,2.61,3.81l1.13.28v4.68L116.07,91a3.54,3.54,0,0,0-1.32,2.37,3.55,3.55,0,0,0,2.61,3.81l1.13.28v4.67l-2.42,1.93a3.56,3.56,0,0,0-.57,5,3.51,3.51,0,0,0,1.86,1.21l1.13.28v10.69A10.65,10.65,0,0,1,107.85,131.86ZM56.39,6.66a7.65,7.65,0,0,0-7.63,7.65V121.22a7.64,7.64,0,0,0,7.63,7.64h51.46a7.65,7.65,0,0,0,7.64-7.64v-8.47a6.44,6.44,0,0,1-2.34-1.85,6.54,6.54,0,0,1,1-9.18l1.29-1v-1a6.53,6.53,0,0,1-1.29-11l1.29-1v-1a6.53,6.53,0,0,1-1.29-11l1.29-1v-1a6.43,6.43,0,0,1-2.34-1.84h0a6.54,6.54,0,0,1,1-9.19l1.29-1V14.31a7.65,7.65,0,0,0-7.64-7.65Z"/><path d="M118.28,74.16a6.6,6.6,0,0,1-5.13-2.46,6.55,6.55,0,0,1,1-9.19l3.1-2.46a6.54,6.54,0,0,1,8.14,10.23l-3.1,2.46A6.5,6.5,0,0,1,118.28,74.16Zm3.08-12.53a3.51,3.51,0,0,0-2.2.77l-3.09,2.46a3.55,3.55,0,0,0-.57,5,3.57,3.57,0,0,0,5,.56l3.1-2.47a3.53,3.53,0,0,0-1.8-6.28A2.82,2.82,0,0,0,121.36,61.63Z"/><path d="M118.28,87.23a6.53,6.53,0,0,1-4.08-11.65l3.1-2.46a6.52,6.52,0,0,1,10.6,5.12,7,7,0,0,1-.06.92,6.49,6.49,0,0,1-2.4,4.18l-3.1,2.47A6.5,6.5,0,0,1,118.28,87.23Zm3.09-12.53a3.54,3.54,0,0,0-2.2.76l-3.1,2.47a3.54,3.54,0,0,0-1.32,2.37,3.55,3.55,0,0,0,5.72,3.17l3.1-2.47a3.55,3.55,0,0,0,1.3-2.25,4,4,0,0,0,0-.51,3.59,3.59,0,0,0-.76-2.22A3.54,3.54,0,0,0,121.37,74.7Z"/><path d="M118.28,100.3a6.53,6.53,0,0,1-4.08-11.65l3.1-2.46a6.45,6.45,0,0,1,4.79-1.39,6.5,6.5,0,0,1,5.81,6.49,6.13,6.13,0,0,1-.17,1.51,6.49,6.49,0,0,1-2.28,3.61l-3.11,2.47A6.5,6.5,0,0,1,118.28,100.3Zm3.08-12.54a3.46,3.46,0,0,0-2.19.77L116.07,91a3.54,3.54,0,0,0-1.32,2.37,3.55,3.55,0,0,0,5.72,3.17l3.1-2.47a3.55,3.55,0,0,0,1.24-2,3,3,0,0,0,.09-.82,3.51,3.51,0,0,0-3.14-3.51A2.61,2.61,0,0,0,121.36,87.76Z"/><path d="M118.26,113.36a6.67,6.67,0,0,1-1.65-.21,6.53,6.53,0,0,1-2.41-11.43l3.1-2.47a6.52,6.52,0,0,1,10.6,5.13v.18a6.55,6.55,0,0,1-2.46,4.91l-3.1,2.47A6.53,6.53,0,0,1,118.26,113.36Zm3.1-12.53a3.53,3.53,0,0,0-2.19.76l-3.1,2.47a3.56,3.56,0,0,0-.57,5,3.55,3.55,0,0,0,5,.56l3.1-2.47a3.59,3.59,0,0,0,1.34-2.63v-.12a3.59,3.59,0,0,0-.76-2.22A3.54,3.54,0,0,0,121.36,100.83Z"/><path d="M110.19,24.15H48.51a1.5,1.5,0,0,1,0-3h61.68a1.5,1.5,0,0,1,0,3Z"/><path d="M85.93,16H77.42a1.5,1.5,0,0,1,0-3h8.51a1.5,1.5,0,0,1,0,3Z"/><path class="cls-2" d="M65.48,104.56a3.92,3.92,0,0,1-1.4-2.09l1.76-.69a2.59,2.59,0,0,0,.71,1.26,1.74,1.74,0,0,0,1.25.48,1.81,1.81,0,0,0,1.07-.32,1,1,0,0,0,.44-.86,1.13,1.13,0,0,0-.42-.91,5.28,5.28,0,0,0-1.51-.76l-.61-.22a4.18,4.18,0,0,1-1.63-1,2.34,2.34,0,0,1-.68-1.73,2.61,2.61,0,0,1,.4-1.42,2.78,2.78,0,0,1,1.14-1,3.59,3.59,0,0,1,1.66-.37,3.3,3.3,0,0,1,2.13.63A3.34,3.34,0,0,1,70.86,97l-1.66.69a1.7,1.7,0,0,0-.53-.77,1.53,1.53,0,0,0-1-.31,1.77,1.77,0,0,0-1,.28.9.9,0,0,0-.39.75.93.93,0,0,0,.37.75A4.17,4.17,0,0,0,67.9,99l.62.21a4.74,4.74,0,0,1,2,1.17,3,3,0,0,1,.19,3.55,3,3,0,0,1-1.28,1,4.19,4.19,0,0,1-1.62.33A3.81,3.81,0,0,1,65.48,104.56Z"/><path class="cls-2" d="M75,104.61a5.31,5.31,0,0,1-1.88-7.14A5,5,0,0,1,75,95.6a5.2,5.2,0,0,1,2.64-.69,4.81,4.81,0,0,1,3.72,1.62l-1.32,1.28a3,3,0,0,0-2.39-1.12,3.44,3.44,0,0,0-1.69.42,3,3,0,0,0-1.2,1.2,3.86,3.86,0,0,0,0,3.58,3,3,0,0,0,1.2,1.2,3.45,3.45,0,0,0,1.69.43,3.27,3.27,0,0,0,2.63-1.31l1.33,1.26a4.85,4.85,0,0,1-1.74,1.36,5.23,5.23,0,0,1-2.23.46A5.3,5.3,0,0,1,75,104.61Z"/><path class="cls-2" d="M86.17,95.13h2.15l3.73,9.94H90l-.83-2.37h-3.8l-.84,2.37H82.45ZM88.54,101l-.87-2.5-.37-1.2h-.11l-.36,1.2-.89,2.5Z"/><path class="cls-2" d="M93.4,95.13h2.18l4,6.66h.11l-.11-1.91V95.13h1.86v9.94h-2l-4.22-7h-.11l.11,1.92v5.12H93.4Z"/><path class="cls-2" d="M73.88,111.79H76.3l2.63,7h.12l2.63-7h2.43v9.94H82.25v-4.9l.11-1.66h-.11l-2.53,6.56H78.27l-2.54-6.56h-.11l.11,1.66v4.9H73.88Z"/><path class="cls-2" d="M86.37,111.79h6.31v1.77H88.25v2.31h4v1.78h-4V120h4.43v1.78H86.37Z"/></svg>