<svg id="Layer_1" data-name="Layer 1" xmlns="http://www.w3.org/2000/svg" viewBox="0 0 160 160"><defs><style>.cls-1{fill:#ffd401;}.cls-1,.cls-10,.cls-11,.cls-12,.cls-2,.cls-3,.cls-4,.cls-5,.cls-6,.cls-7,.cls-8,.cls-9{fill-rule:evenodd;}.cls-2{fill:#ffbd03;}.cls-3{fill:#fff9e1;}.cls-4{fill:#fc0;}.cls-14,.cls-5{fill:#4a1e01;}.cls-6{fill:#913807;}.cls-7{fill:#ffb600;}.cls-13,.cls-8{fill:#fff;}.cls-10{fill:#ff4e00;}.cls-11{fill:#4d4d4d;}.cls-12{fill:#2b2b2a;}</style></defs><path class="cls-1" d="M31.19,42.29h94.42V92.71c0,41.89-24.2,58.22-47.21,65.94-23-7.72-47.21-24.05-47.21-65.94Z"/><path class="cls-2" d="M99.4,148.48q-2.5,1.72-5.1,3.19L74.07,157.1c-.91-.35-1.82-.72-2.73-1.1Zm9.77-8.36c-.82.86-1.65,1.69-2.5,2.5L66,153.52c-.78-.39-1.55-.79-2.31-1.21Zm5.78-7.29c-.52.77-1,1.52-1.58,2.25L59.12,149.62c-.66-.43-1.31-.86-1.95-1.31Zm3.85-6.78c-.34.72-.7,1.43-1.07,2.12l-64.4,17.25c-.55-.45-1.09-.91-1.64-1.39Zm2.67-6.46q-.36,1-.75,2L48.47,141c-.46-.48-.93-1-1.38-1.46Zm1.83-6.23c-.16.67-.33,1.32-.5,2l-78.41,21c-.39-.5-.77-1-1.14-1.52Zm1.22-6.07q-.15,1-.33,1.92L41,131.5c-.33-.51-.65-1-1-1.57Zm.72-5.93c0,.63-.11,1.26-.18,1.88L38.22,126.51c-.26-.54-.52-1.08-.77-1.63Zm.33-5.83c0,.62,0,1.24-.07,1.85L36,121.36c-.21-.54-.41-1.1-.61-1.66Zm0-5.75v1.83L34.23,116.09c-.16-.56-.32-1.13-.47-1.7Zm0-5.75v1.83L32.9,110.7,32.57,109Zm0-5.74v1.83L32,105.21c-.08-.58-.15-1.18-.22-1.77Zm0-5.74v1.83L31.43,99.62c0-.6-.08-1.2-.11-1.8Zm0-5.74v1.83L31.2,93.93c0-.4,0-.81,0-1.22v-.6Zm0-5.74V62.9L31.19,88.2V86.37Zm0-5.75v1.83L31.19,82.45V80.62Zm0-5.74v1.83L31.19,76.71V74.88Zm0-5.74v1.83L31.19,71V69.14ZM110,42.29h6.82L31.19,65.23V63.4Zm-21.43,0h6.83l-64.2,17.2V57.66Zm-21.43,0H74L31.19,53.74V51.91ZM31.19,46.17,45.7,42.29h6.83L31.19,48Z"/><path class="cls-3" d="M44.32,56.72v36.9c0,25.66,10.89,41.56,34.08,50.1,23.2-8.54,34.08-24.44,34.08-50.1V56.72Z"/><path class="cls-4" d="M90.62,16.62a5.79,5.79,0,0,1,11,2.95,5.8,5.8,0,0,1,9.88,5.7,5.8,5.8,0,0,1,8.06,8.07,5.79,5.79,0,0,1,5.7,9.87,5.8,5.8,0,0,1,3,11,5.8,5.8,0,0,1-1.06,11.5H87.85a5.79,5.79,0,0,1-5.29-3.43A5.81,5.81,0,0,1,79.12,57V17.67a5.8,5.8,0,0,1,11.5-1.05M74.25,62.29A5.81,5.81,0,0,1,69,65.72H29.63a5.8,5.8,0,0,1-1.05-11.5,5.79,5.79,0,0,1,3-11,5.79,5.79,0,0,1,5.7-9.87,5.8,5.8,0,0,1,8.07-8.07,5.79,5.79,0,0,1,9.87-5.7,5.8,5.8,0,0,1,11-2.95,5.8,5.8,0,0,1,11.5,1.05V57A5.82,5.82,0,0,1,74.25,62.29Z"/><path class="cls-5" d="M84.92,14.74h0A2.94,2.94,0,0,0,82,17.67V57a2.94,2.94,0,0,0,2.93,2.94,2.94,2.94,0,0,0,2.93,2.93h39.32a2.94,2.94,0,0,0,0-5.87h-20l19.31-5.17A2.93,2.93,0,0,0,125,46.16l-19.32,5.17,17.32-10a2.93,2.93,0,0,0-2.93-5.08l-17.32,10,14.14-14.14A2.93,2.93,0,0,0,112.72,28L98.59,42.11l10-17.31a3,3,0,0,0-1.08-4h0a2.94,2.94,0,0,0-4,1.07l-10,17.32,5.18-19.31A2.94,2.94,0,0,0,93,18.35L87.85,37.66v-20a2.94,2.94,0,0,0-2.93-2.93m-13,0h0a2.94,2.94,0,0,1,2.93,2.93V57a2.94,2.94,0,0,1-2.93,2.94A2.94,2.94,0,0,1,69,62.86H29.63a2.94,2.94,0,0,1,0-5.87h20L30.31,51.82a2.93,2.93,0,0,1,1.52-5.66l19.31,5.17-17.31-10a2.93,2.93,0,0,1,2.93-5.08l17.31,10L39.94,32.12A2.93,2.93,0,0,1,44.08,28L58.22,42.11l-10-17.31a3,3,0,0,1,1.07-4h0a3,3,0,0,1,4,1.07l10,17.32L58.12,19.87a2.93,2.93,0,0,1,5.66-1.52L69,37.66v-20A2.94,2.94,0,0,1,71.89,14.74Z"/><path class="cls-6" d="M78.4,28.43A19.52,19.52,0,1,1,58.89,48,19.52,19.52,0,0,1,78.4,28.43"/><path class="cls-7" d="M82,52.36c.57,0,1,.71,1,1.59s-.46,1.59-1,1.59-1-.71-1-1.59.46-1.59,1-1.59m-7.09,0c.56,0,1,.71,1,1.59s-.46,1.59-1,1.59-1-.71-1-1.59S74.29,52.36,74.86,52.36Zm-5.94,1.71,9-4.9a1,1,0,0,1,1,0l9,4.9a1,1,0,0,1,.52,1c-1.06,7.29-3.69,7.81-9.32,12.81a1,1,0,0,1-1.37,0c-5.63-5-8.26-5.52-9.32-12.81A1,1,0,0,1,68.92,54.07Z"/><path class="cls-8" d="M69.93,39a5.71,5.71,0,1,1-5.71,5.71A5.7,5.7,0,0,1,69.93,39"/><path class="cls-9" d="M69.93,41.41a3.25,3.25,0,0,1,2.1.77l-.19,0a1.1,1.1,0,1,0,1.09,1.24,3.29,3.29,0,0,1,.25,1.26,3.25,3.25,0,1,1-3.25-3.25"/><path class="cls-8" d="M86.88,39a5.71,5.71,0,1,1-5.71,5.71A5.71,5.71,0,0,1,86.88,39"/><path class="cls-9" d="M86.88,41.41a3.25,3.25,0,0,1,2.1.77l-.19,0a1.1,1.1,0,1,0,1.09,1.24,3.29,3.29,0,0,1,.25,1.26,3.25,3.25,0,1,1-3.25-3.25"/><path class="cls-10" d="M78.4,48.83s-5.07,2.53-5.07,7.34c0,5.94,2,10.81-2.51,9.32S65.18,45,78.4,48.83"/><path class="cls-11" d="M72.31,3.85H84.5a3.18,3.18,0,0,1,3,3l2.28,21.46c5.3,1,8.78,2.59,8.78,4.43,0,3-9,5.37-20.2,5.37s-20.19-2.41-20.19-5.37c0-1.84,3.48-3.46,8.78-4.43L69.27,6.89a3.18,3.18,0,0,1,3-3"/><polygon class="cls-12" points="66.54 32.54 90.27 32.54 89.64 26.69 67.17 26.69 66.54 32.54"/><path class="cls-13" d="M80.39,32.54H76.5a1.21,1.21,0,0,1-.83-.35h0a1.18,1.18,0,0,1-.34-.83v-3.5a1.2,1.2,0,0,1,.34-.83h0a1.2,1.2,0,0,1,.83-.34h3.89a1.18,1.18,0,0,1,.83.34h0a1.19,1.19,0,0,1,.35.83v3.5a1.2,1.2,0,0,1-1.18,1.18m-3.89-.91h3.89a.27.27,0,0,0,.27-.27v-3.5a.27.27,0,0,0-.08-.19h0a.26.26,0,0,0-.19-.08H76.5a.23.23,0,0,0-.18.08h0a.32.32,0,0,0-.07.19v3.5a.29.29,0,0,0,.07.19h0A.23.23,0,0,0,76.5,31.63Z"/><path class="cls-14" d="M69.61,131.13a1.69,1.69,0,0,1-.28,1,1.81,1.81,0,0,1-.79.61,2.91,2.91,0,0,1-1.15.21,3.63,3.63,0,0,1-.44,0,5.73,5.73,0,0,1-.7-.13,5.16,5.16,0,0,1-.91-.31V131a6,6,0,0,0,.87.45,2.36,2.36,0,0,0,.92.18.79.79,0,0,0,.58-.15.42.42,0,0,0,.13-.28.47.47,0,0,0-.22-.4,3.47,3.47,0,0,0-.67-.33,5.46,5.46,0,0,1-.84-.44,2,2,0,0,1-.59-.6,1.48,1.48,0,0,1-.23-.85,1.64,1.64,0,0,1,.23-.85,1.59,1.59,0,0,1,.71-.61,2.69,2.69,0,0,1,1.16-.23,3.73,3.73,0,0,1,.91.1,3.68,3.68,0,0,1,.68.21,3.24,3.24,0,0,1,.37.18v1.38a3.81,3.81,0,0,0-.79-.46,2.2,2.2,0,0,0-1-.21.71.71,0,0,0-.47.13.39.39,0,0,0-.15.31.37.37,0,0,0,.15.3,2.11,2.11,0,0,0,.52.31,10.11,10.11,0,0,1,1.08.57,2.26,2.26,0,0,1,.64.58A1.45,1.45,0,0,1,69.61,131.13Z"/><path class="cls-14" d="M76,132.39a4.4,4.4,0,0,1-1.51.46,5.21,5.21,0,0,1-.8.05,4.19,4.19,0,0,1-1.37-.21,3.07,3.07,0,0,1-1-.62,2.66,2.66,0,0,1-.66-1,3.18,3.18,0,0,1-.22-1.21,3.05,3.05,0,0,1,.26-1.32,2.52,2.52,0,0,1,.73-.94,3.13,3.13,0,0,1,1.07-.56,4.38,4.38,0,0,1,1.27-.18,7.12,7.12,0,0,1,2.26.44v1.56a6.48,6.48,0,0,0-.86-.45,2.59,2.59,0,0,0-1-.18,2.31,2.31,0,0,0-1,.2,1.72,1.72,0,0,0-.72.58,1.46,1.46,0,0,0-.27.88,1.47,1.47,0,0,0,.24.81,1.74,1.74,0,0,0,.65.58,2,2,0,0,0,1,.22,3,3,0,0,0,.81-.1,4.64,4.64,0,0,0,.64-.23l.53-.3Z"/><path class="cls-14" d="M83.64,132.83h-1.8l-.48-1.19H78.82l-.48,1.19H76.53L79.12,127h1.95ZM81,130.63l-.86-2.14-.86,2.14Z"/><path class="cls-14" d="M90.77,132.83H89.2l-3-3.26v3.26H84.42V127H86l3,3.24V127h1.76Z"/><path class="cls-14" d="M78.75,140.11H77v-3.39l-1.59,2h-.14l-1.59-2v3.39H72v-5.85h1.6l1.79,2.2,1.81-2.2h1.6Z"/><path class="cls-14" d="M84.63,140.11H80.22v-5.85h4.34v1.17H82v1.08h2.46v1.17H82v1.25h2.65Z"/></svg>