<svg id="Layer_1" data-name="Layer 1" xmlns="http://www.w3.org/2000/svg" viewBox="0 0 160 160"><defs><style>.cls-1{fill:#66d4cf;}.cls-2{fill:#fff;}</style></defs><path d="M33.59,135.49a1.48,1.48,0,0,1-1.07-.45,1.5,1.5,0,0,1,0-2.12l6.79-6.58c-.87-1.68-2.67-5.21-4.34-8.72-2.33-4.89-3.34-16.68.93-25.22,3-6.09,3.78-12.39,4.43-18,.16-1.35.31-2.65.49-3.9a29.2,29.2,0,0,0-.09-6.82c-.33-3.63-.67-7.38,2.66-8.63a4.89,4.89,0,0,1,3.83.09,7.53,7.53,0,0,1,3.4,4,1.5,1.5,0,0,1-.93,1.91,1.48,1.48,0,0,1-1.9-.91A4.58,4.58,0,0,0,46,57.9a1.9,1.9,0,0,0-1.5,0c-1.07.4-1,2.08-.72,5.54A31.91,31.91,0,0,1,43.82,71c-.18,1.22-.33,2.5-.48,3.82-.68,5.81-1.45,12.38-4.72,18.94-3.71,7.4-3,18.15-.91,22.59,2.26,4.75,4.78,9.56,4.8,9.61l.52,1-8.39,8.14A1.51,1.51,0,0,1,33.59,135.49Z"/><path d="M60,155.73A1.5,1.5,0,0,1,59,153.18c6.69-6.93,7.37-7.15,7.73-7.28a8.57,8.57,0,0,1,1.94-.2c3.52-.23,12.89-.82,18.77-3.84,7.2-3.72,17.56-16.93,17.67-17.07a1.5,1.5,0,1,1,2.36,1.85c-.44.56-10.87,13.87-18.66,17.88-6.43,3.32-16.26,3.94-20,4.17-.41,0-.84.05-1.1.08-.9.72-3.95,3.76-6.59,6.5A1.53,1.53,0,0,1,60,155.73Z"/><path class="cls-1" d="M114.32,70.15A5,5,0,0,0,117,71.87v2.79l-1.86,1.48a5,5,0,0,0-.81,7.07A5,5,0,0,0,117,84.94v2.79l-1.86,1.48a5,5,0,0,0-.81,7.07A5,5,0,0,0,117,98v2.78l-1.86,1.48a5,5,0,0,0-.81,7.08,5,5,0,0,0,2.67,1.73v9.52a9.14,9.14,0,0,1-9.14,9.14H56.39a9.14,9.14,0,0,1-9.14-9.14V13.69a9.15,9.15,0,0,1,9.14-9.15h51.46A9.15,9.15,0,0,1,117,13.69v47.9l-1.86,1.48A5,5,0,0,0,114.32,70.15Z"/><path d="M107.85,131.24H56.39A10.65,10.65,0,0,1,45.76,120.6V13.69A10.65,10.65,0,0,1,56.39,3h51.46a10.66,10.66,0,0,1,10.64,10.65V62.32l-2.42,1.93a3.54,3.54,0,0,0-.57,5,3.42,3.42,0,0,0,1.86,1.2l1.13.29v4.68l-2.42,1.93a3.52,3.52,0,0,0,1.29,6.17l1.13.29v4.68l-2.42,1.93a3.51,3.51,0,0,0-.57,5,3.46,3.46,0,0,0,1.87,1.21l1.12.29v4.67l-2.42,1.93a3.55,3.55,0,0,0-.57,5,3.51,3.51,0,0,0,1.86,1.21l1.13.29V120.6A10.65,10.65,0,0,1,107.85,131.24ZM56.39,6a7.65,7.65,0,0,0-7.63,7.65V120.6a7.64,7.64,0,0,0,7.63,7.64h51.46a7.64,7.64,0,0,0,7.64-7.64v-8.46a6.54,6.54,0,0,1-1.29-11l1.29-1v-1a6.54,6.54,0,0,1-3.72-6.66A6.48,6.48,0,0,1,114.2,88l1.29-1V86a6.54,6.54,0,0,1-3.72-6.66A6.48,6.48,0,0,1,114.2,75l1.29-1v-1a6.43,6.43,0,0,1-2.34-1.84h0a6.55,6.55,0,0,1,1-9.19l1.29-1V13.69A7.65,7.65,0,0,0,107.85,6Z"/><path d="M118.28,73.54a6.62,6.62,0,0,1-5.13-2.45,6.55,6.55,0,0,1,1-9.19l3.1-2.47a6.54,6.54,0,0,1,8.14,10.23l-3.1,2.47A6.55,6.55,0,0,1,118.28,73.54ZM121.36,61a3.57,3.57,0,0,0-2.2.77l-3.09,2.47a3.54,3.54,0,0,0-.57,5,3.57,3.57,0,0,0,5,.56l3.1-2.47a3.53,3.53,0,0,0-1.8-6.28Z"/><path d="M118.28,86.61A6.53,6.53,0,0,1,114.2,75l3.1-2.47a6.53,6.53,0,0,1,10.6,5.12,6.88,6.88,0,0,1-.06.92,6.52,6.52,0,0,1-2.4,4.19l-3.1,2.47A6.55,6.55,0,0,1,118.28,86.61Zm3.09-12.53a3.49,3.49,0,0,0-2.2.77l-3.1,2.47a3.53,3.53,0,0,0,4.4,5.53l3.1-2.47a3.5,3.5,0,0,0,1.3-2.24,4.05,4.05,0,0,0,0-.52,3.51,3.51,0,0,0-3.53-3.54Z"/><path d="M118.28,99.68A6.53,6.53,0,0,1,114.2,88l3.1-2.47a6.45,6.45,0,0,1,4.79-1.39,6.53,6.53,0,0,1,4.4,2.43,6.42,6.42,0,0,1,1.41,4.06,6.27,6.27,0,0,1-.17,1.52,6.43,6.43,0,0,1-2.29,3.6l-3.1,2.48A6.55,6.55,0,0,1,118.28,99.68Zm3.08-12.54a3.52,3.52,0,0,0-2.19.77l-3.1,2.48a3.51,3.51,0,0,0-.57,5,3.56,3.56,0,0,0,5,.57l3.1-2.47a3.53,3.53,0,0,0,1.24-2,3.15,3.15,0,0,0,.09-.83,3.47,3.47,0,0,0-.76-2.19,3.56,3.56,0,0,0-2.38-1.32Z"/><path d="M118.26,112.75a6.24,6.24,0,0,1-1.65-.22,6.43,6.43,0,0,1-3.46-2.24,6.56,6.56,0,0,1,1-9.19l3.1-2.47a6.53,6.53,0,0,1,10.6,5.13v.18a6.58,6.58,0,0,1-2.46,4.92l-3.1,2.47A6.53,6.53,0,0,1,118.26,112.75Zm3.1-12.54a3.49,3.49,0,0,0-2.19.77l-3.1,2.47a3.55,3.55,0,0,0-.57,5,3.55,3.55,0,0,0,5,.56l3.1-2.47a3.56,3.56,0,0,0,1.34-2.63v-.12a3.53,3.53,0,0,0-3.54-3.55Z"/><path d="M110.19,23.53H48.51a1.5,1.5,0,1,1,0-3h61.68a1.5,1.5,0,0,1,0,3Z"/><path d="M85.93,15.34H77.42a1.5,1.5,0,0,1,0-3h8.51a1.5,1.5,0,0,1,0,3Z"/><path class="cls-2" d="M65.48,103.94a3.89,3.89,0,0,1-1.4-2.08l1.76-.7a2.67,2.67,0,0,0,.71,1.27,1.78,1.78,0,0,0,1.25.47,1.8,1.8,0,0,0,1.07-.31,1,1,0,0,0,.44-.87,1.14,1.14,0,0,0-.42-.91,5.28,5.28,0,0,0-1.51-.76l-.61-.22a4.18,4.18,0,0,1-1.63-1,2.33,2.33,0,0,1-.68-1.73,2.57,2.57,0,0,1,.4-1.41,2.81,2.81,0,0,1,1.14-1,3.72,3.72,0,0,1,1.66-.37,3.24,3.24,0,0,1,2.13.64,3.37,3.37,0,0,1,1.07,1.47l-1.66.7a1.65,1.65,0,0,0-.53-.77,1.48,1.48,0,0,0-1-.31,1.7,1.7,0,0,0-1,.28.88.88,0,0,0-.39.74,1,1,0,0,0,.37.76,4,4,0,0,0,1.24.6l.62.21a5,5,0,0,1,2,1.17,2.68,2.68,0,0,1,.69,1.91,2.72,2.72,0,0,1-.5,1.65,3,3,0,0,1-1.28,1,4,4,0,0,1-1.62.34A3.82,3.82,0,0,1,65.48,103.94Z"/><path class="cls-2" d="M75,104a5.21,5.21,0,0,1,0-9,5.2,5.2,0,0,1,2.64-.69,4.81,4.81,0,0,1,3.72,1.63L80.07,97.2a3,3,0,0,0-2.39-1.13,3.44,3.44,0,0,0-1.69.42,3.1,3.1,0,0,0-1.2,1.21,3.57,3.57,0,0,0-.44,1.79,3.62,3.62,0,0,0,.44,1.79,3.08,3.08,0,0,0,1.2,1.2,3.44,3.44,0,0,0,1.69.42,3.26,3.26,0,0,0,2.63-1.3l1.33,1.26a4.94,4.94,0,0,1-1.74,1.35A5.45,5.45,0,0,1,75,104Z"/><path class="cls-2" d="M86.17,94.52h2.15l3.73,9.93H90l-.83-2.37h-3.8l-.84,2.37H82.45Zm2.37,5.84-.87-2.5-.37-1.19h-.11l-.36,1.19-.89,2.5Z"/><path class="cls-2" d="M93.4,94.52h2.18l4,6.66h.11l-.11-1.92V94.52h1.86v9.93h-2l-4.22-7h-.11l.11,1.91v5.12H93.4Z"/><path class="cls-2" d="M73.88,111.17H76.3l2.63,7h.12l2.63-7h2.43v9.94H82.25v-4.9l.11-1.65h-.11l-2.53,6.55H78.27l-2.54-6.55h-.11l.11,1.65v4.9H73.88Z"/><path class="cls-2" d="M86.37,111.17h6.31V113H88.25v2.3h4V117h-4v2.3h4.43v1.78H86.37Z"/></svg>