<svg xmlns="http://www.w3.org/2000/svg" xmlns:xlink="http://www.w3.org/1999/xlink" width="500" zoomAndPan="magnify" viewBox="0 0 375 374.999991" height="500" preserveAspectRatio="xMidYMid meet" version="1.0"><defs><g/><clipPath id="521360a8f0"><path d="M 150.039062 149.144531 L 330.039062 149.144531 L 330.039062 367.394531 L 150.039062 367.394531 Z M 150.039062 149.144531 " clip-rule="nonzero"/></clipPath><clipPath id="755decf7d6"><path d="M 150.039062 149.144531 L 330.039062 149.144531 L 330.039062 367.394531 L 150.039062 367.394531 Z M 150.039062 149.144531 " clip-rule="nonzero"/></clipPath><clipPath id="23b6aad4c8"><path d="M 167.285156 149.144531 L 312.796875 149.144531 C 322.320312 149.144531 330.039062 156.863281 330.039062 166.382812 L 330.039062 350.15625 C 330.039062 359.675781 322.320312 367.394531 312.796875 367.394531 L 167.285156 367.394531 C 157.761719 367.394531 150.039062 359.675781 150.039062 350.15625 L 150.039062 166.382812 C 150.039062 156.863281 157.761719 149.144531 167.285156 149.144531 " clip-rule="nonzero"/></clipPath></defs><path fill="#d32731" d="M 250.136719 129.144531 C 253.511719 130.546875 261.199219 135.949219 262.085938 136.546875 C 267.265625 140.019531 252.125 174.429688 242.191406 188.90625 C 232.261719 203.394531 218.550781 215.5 202.390625 222.015625 C 199.957031 223 196.808594 223.703125 195.0625 221.757812 C 194.175781 220.757812 187.777344 171.53125 204.980469 164.484375 C 214.3125 160.667969 222.414062 158.167969 230.5 151.539062 C 232.515625 149.867188 250.765625 129.417969 250.136719 129.144531 " fill-opacity="1" fill-rule="nonzero"/><path fill="#af2026" d="M 96.425781 332.847656 C 97.613281 334.046875 126.394531 337.132812 126.808594 334.148438 C 131.617188 299.265625 127.882812 282.03125 120.882812 247.609375 C 120.625 246.351562 91.1875 247.878906 90.785156 250.582031 C 85.792969 284.433594 95.109375 331.503906 96.425781 332.847656 " fill-opacity="1" fill-rule="nonzero"/><path fill="#3c2319" d="M 128.597656 327.316406 C 129.128906 336.746094 129.671875 346.179688 130.203125 355.609375 C 130.34375 357.925781 129.011719 361.414062 127.125 362.785156 C 120.957031 367.242188 78.949219 366.472656 73.023438 363.511719 C 69.90625 361.957031 66.8125 359.910156 65.570312 356.683594 C 63.25 350.59375 68.101562 343.636719 74.257812 341.476562 C 80.453125 339.320312 87.824219 341.019531 92.445312 345.695312 C 92.890625 346.152344 92.160156 332.816406 91.574219 331.488281 C 88.855469 325.332031 117.035156 332.476562 128.597656 327.316406 " fill-opacity="1" fill-rule="nonzero"/><path fill="#f0f0ef" d="M 86.40625 329.890625 C 86.265625 333.703125 88.996094 337.21875 92.144531 337.277344 C 101.59375 337.476562 111.039062 337.675781 120.484375 337.875 C 123.691406 337.949219 127.066406 337.949219 129.902344 336.019531 C 132.734375 334.074219 134.625 329.445312 132.964844 326.230469 C 131.476562 323.316406 128.125 322.972656 125.25 322.929688 C 117.421875 322.800781 109.605469 322.671875 101.777344 322.542969 C 96.867188 322.457031 86.75 320.542969 86.40625 329.890625 " fill-opacity="1" fill-rule="nonzero"/><path fill="#af2026" d="M 207.558594 330.074219 C 206.46875 331.347656 177.976562 336.492188 177.34375 333.53125 C 170.058594 299.078125 172.535156 281.632812 177.074219 246.792969 C 177.246094 245.523438 206.714844 244.9375 207.300781 247.609375 C 214.714844 281.019531 208.773438 328.632812 207.558594 330.074219 " fill-opacity="1" fill-rule="nonzero"/><path fill="#3c2319" d="M 175.070312 326.84375 C 175.210938 336.289062 175.355469 345.734375 175.484375 355.183594 C 175.527344 357.511719 177.101562 360.882812 179.078125 362.113281 C 185.546875 366.128906 227.394531 362.355469 233.105469 358.984375 C 236.082031 357.210938 239.03125 354.953125 240.03125 351.636719 C 241.921875 345.40625 236.582031 338.804688 230.300781 337.105469 C 223.960938 335.375 216.71875 337.621094 212.453125 342.605469 C 212.039062 343.078125 211.808594 329.730469 212.292969 328.375 C 214.585938 322.042969 186.976562 331.175781 175.070312 326.84375 " fill-opacity="1" fill-rule="nonzero"/><path fill="#f0f0ef" d="M 217.332031 326.417969 C 217.761719 330.203125 215.285156 333.890625 212.136719 334.191406 C 202.734375 335.0625 193.316406 335.933594 183.914062 336.804688 C 180.738281 337.089844 177.359375 337.347656 174.398438 335.617188 C 171.433594 333.890625 169.214844 329.402344 170.648438 326.058594 C 171.921875 323.058594 175.226562 322.488281 178.105469 322.230469 C 185.902344 321.542969 193.6875 320.859375 201.488281 320.171875 C 206.371094 319.742188 216.332031 317.113281 217.332031 326.417969 " fill-opacity="1" fill-rule="nonzero"/><path fill="#af2026" d="M 109.261719 310.710938 C 140.21875 321.402344 175.585938 314.855469 193.488281 307.738281 C 221.914062 296.449219 225.375 273.773438 224.632812 272.515625 C 223.789062 271.128906 208.988281 273.800781 189.582031 274.1875 C 158.738281 274.816406 132.546875 273.1875 101.847656 274.789062 C 92.21875 275.300781 73.699219 273.328125 73.453125 278.617188 C 73.167969 284.992188 99.429688 307.324219 109.261719 310.710938 " fill-opacity="1" fill-rule="nonzero"/><path fill="#d32731" d="M 242.878906 280.132812 C 239.5 288.933594 198.753906 303.894531 151.871094 304.839844 C 104.984375 305.78125 61.261719 292.921875 54.976562 281.703125 C 52.402344 277.117188 61.574219 274.875 68.660156 256.523438 C 70.550781 251.636719 72.339844 246.238281 73.839844 240.277344 L 74.070312 239.335938 C 83.972656 199.421875 75.789062 195.792969 87.179688 173.6875 C 100.445312 147.953125 138.472656 149.636719 163.203125 156.554688 C 173.609375 159.46875 189.882812 164.097656 198.082031 171.128906 C 218.75 188.863281 217.460938 216.742188 219.222656 236.40625 C 219.59375 240.535156 220.09375 244.308594 220.96875 247.535156 C 221.699219 250.28125 222.726562 252.839844 223.945312 255.253906 C 230.957031 269.34375 245.769531 272.644531 242.878906 280.132812 " fill-opacity="1" fill-rule="nonzero"/><path fill="#af2026" d="M 139.804688 304.839844 L 138.945312 206.109375 L 142.410156 206.082031 L 143.28125 304.808594 L 139.804688 304.839844 " fill-opacity="1" fill-rule="nonzero"/><path fill="#3c2319" d="M 223.945312 255.253906 C 217.832031 257.484375 207.15625 261.8125 193.816406 264.414062 C 165.4375 269.929688 134.308594 278.332031 68.417969 257.96875 C 70.304688 253.082031 72.339844 246.238281 73.839844 240.277344 L 74.070312 239.335938 C 88.769531 243.5625 118.523438 248.964844 141.953125 247.910156 C 168.828125 246.695312 199.042969 241.535156 218.949219 233.804688 C 219.320312 237.933594 220.09375 244.308594 220.96875 247.535156 C 221.699219 250.28125 222.726562 252.839844 223.945312 255.253906 " fill-opacity="1" fill-rule="nonzero"/><path fill="#f6ab1f" d="M 148.292969 248.566406 L 148.035156 248.566406 L 140.046875 248.78125 C 134.765625 248.910156 130.574219 253.324219 130.714844 258.597656 C 130.84375 263.914062 135.269531 268.144531 140.550781 267.957031 L 148.535156 267.742188 C 151.097656 267.683594 153.472656 266.613281 155.234375 264.769531 C 157.007812 262.914062 157.9375 260.484375 157.867188 257.925781 C 157.792969 255.339844 156.734375 252.953125 154.890625 251.195312 C 153.085938 249.496094 150.753906 248.566406 148.292969 248.566406 Z M 140.292969 271.871094 C 133.007812 271.871094 126.980469 266.054688 126.78125 258.738281 C 126.59375 251.265625 132.492188 245.050781 139.949219 244.851562 L 147.933594 244.648438 C 151.484375 244.566406 154.976562 245.863281 157.582031 248.351562 C 160.214844 250.835938 161.703125 254.179688 161.789062 257.796875 C 161.886719 261.425781 160.570312 264.855469 158.082031 267.472656 C 155.605469 270.085938 152.242188 271.570312 148.636719 271.65625 L 140.648438 271.871094 L 140.292969 271.871094 " fill-opacity="1" fill-rule="nonzero"/><path fill="#f6aaa1" d="M 217.1875 122.230469 C 217.460938 161.210938 182.898438 193.050781 140.019531 193.335938 C 97.140625 193.605469 65.054688 161.582031 64.796875 122.601562 C 64.539062 83.617188 96.195312 52.4375 139.074219 52.152344 C 181.96875 51.867188 216.933594 83.234375 217.1875 122.230469 " fill-opacity="1" fill-rule="nonzero"/><path fill="#f0f0ef" d="M 66.699219 153.394531 C 59.101562 155.867188 54.363281 164.5 56.566406 171.871094 C 58.769531 179.246094 67.558594 184.191406 75.386719 182.460938 C 69.519531 188.191406 69.332031 198.335938 74.984375 204.253906 C 80.625 210.167969 91.230469 210.925781 97.757812 205.882812 C 96.140625 213.054688 99.746094 221.027344 106.316406 224.816406 C 112.882812 228.617188 121.957031 227.972656 127.867188 223.285156 C 131.789062 230.53125 141.050781 234.746094 149.421875 233.089844 C 157.792969 231.433594 164.535156 224.042969 165.109375 215.898438 C 173.136719 219 182.527344 221.144531 190.238281 217.355469 C 197.941406 213.570312 200.832031 201.496094 193.445312 197.179688 C 201.433594 199.4375 210.863281 198.195312 216.773438 192.578125 C 222.671875 186.960938 223.574219 176.6875 217.5625 171.1875 C 224.472656 168.214844 229.484375 161.511719 230.15625 154.308594 C 230.828125 147.09375 227.164062 139.664062 220.910156 135.578125 C 227.707031 131.890625 227.324219 124 222.828125 117.914062 C 217.976562 111.355469 213.855469 112.726562 206.285156 114.585938 C 198.710938 116.441406 186.832031 126.375 179.976562 129.945312 C 153.832031 143.578125 121.242188 141.449219 93.203125 131.875 C 83.703125 128.632812 70.808594 117.898438 60.902344 124.902344 C 45.046875 136.132812 55.078125 157.183594 66.699219 153.394531 " fill-opacity="1" fill-rule="nonzero"/><path fill="#3c2319" d="M 117.964844 127.375 C 117.980469 129.703125 116.75 131.589844 115.21875 131.589844 C 113.683594 131.605469 112.425781 129.730469 112.410156 127.417969 C 112.398438 125.101562 113.628906 123.214844 115.160156 123.203125 C 116.691406 123.1875 117.949219 125.058594 117.964844 127.375 " fill-opacity="1" fill-rule="nonzero"/><path fill="#3c2319" d="M 165.550781 127.058594 C 165.566406 129.390625 164.335938 131.261719 162.804688 131.273438 C 161.257812 131.289062 160.011719 129.417969 160 127.101562 C 159.984375 124.789062 161.214844 122.902344 162.746094 122.886719 C 164.277344 122.871094 165.539062 124.746094 165.550781 127.058594 " fill-opacity="1" fill-rule="nonzero"/><path fill="#f0f0ef" d="M 102.738281 115.527344 C 102.921875 116.613281 103.652344 117.640625 104.8125 117.828125 C 106.34375 118.085938 107.730469 116.828125 108.917969 116.054688 C 111.683594 114.242188 118.238281 116.671875 119.46875 112.570312 C 120.441406 109.269531 115.34375 107.640625 113.027344 107.554688 L 112.253906 107.554688 C 109.59375 107.640625 106.757812 109.3125 104.855469 111.082031 C 103.925781 111.957031 103.007812 113.042969 102.75 114.328125 C 102.664062 114.714844 102.664062 115.128906 102.738281 115.527344 " fill-opacity="1" fill-rule="nonzero"/><path fill="#f0f0ef" d="M 157.179688 109.195312 C 156.777344 110.667969 157.566406 112.414062 159.140625 112.957031 C 160.085938 113.296875 161.144531 113.167969 162.144531 113.042969 C 164.050781 112.785156 166.066406 112.554688 167.828125 113.269531 C 169.246094 113.855469 170.660156 115.054688 172.121094 114.527344 C 173.007812 114.214844 173.480469 113.3125 173.625 112.457031 C 173.894531 110.65625 172.980469 108.8125 171.476562 107.609375 C 168.011719 104.839844 158.609375 103.851562 157.179688 109.195312 " fill-opacity="1" fill-rule="nonzero"/><path fill="#d32731" d="M 80.082031 51.195312 C 100.488281 22.273438 142.953125 20.113281 166.839844 25.945312 C 209.675781 36.390625 227.824219 28.902344 252.769531 12.441406 C 254.644531 15.984375 255.644531 15.96875 256.402344 19.898438 C 248.03125 27.375 242.550781 35.734375 226.835938 43.476562 C 219.234375 47.222656 200.816406 48.980469 199.929688 49.964844 C 187.347656 63.96875 213.109375 78.644531 202.261719 87.164062 C 200.800781 88.320312 69.917969 107.769531 68.246094 100.28125 C 64.335938 82.691406 69.53125 66.140625 80.082031 51.195312 " fill-opacity="1" fill-rule="nonzero"/><path fill="#f0f0ef" d="M 71.394531 121.84375 C 86.578125 111.96875 107.875 102.738281 125.894531 100.792969 C 146.589844 98.566406 160.429688 96.878906 178.144531 101.953125 C 185.574219 104.082031 195.234375 107.140625 202.289062 110.296875 C 208.429688 113.070312 216.273438 115.414062 221.339844 110.984375 C 226.164062 106.753906 225.019531 98.453125 220.609375 93.792969 C 216.203125 89.148438 202.847656 79.875 196.59375 78.445312 C 162.390625 70.671875 131.230469 70.570312 96.941406 80.003906 C 84.089844 83.546875 70.148438 91.433594 60.144531 100.335938 C 48.722656 110.496094 59.328125 129.703125 71.394531 121.84375 " fill-opacity="1" fill-rule="nonzero"/><path fill="#f0f0ef" d="M 274.679688 16.183594 C 274.753906 25.117188 267.136719 32.417969 257.679688 32.476562 C 248.230469 32.546875 240.519531 25.34375 240.460938 16.414062 C 240.402344 7.46875 248.015625 0.167969 257.464844 0.109375 C 266.921875 0.0507812 274.625 7.238281 274.679688 16.183594 " fill-opacity="1" fill-rule="nonzero"/><path fill="#f6aaa1" d="M 115.289062 128.972656 C 116.707031 128.773438 118.164062 128.960938 119.46875 129.53125 L 119.8125 129.761719 L 119.898438 130.21875 C 119.882812 131.0625 119.867188 131.902344 119.867188 132.761719 C 117.621094 133.5625 115.132812 132.632812 112.753906 132.777344 C 111.265625 132.859375 109.363281 132.105469 110.78125 130.519531 C 111.640625 129.546875 114.085938 129.144531 115.289062 128.972656 " fill-opacity="1" fill-rule="nonzero"/><path fill="#f6aaa1" d="M 166.410156 128.773438 C 166.910156 128.960938 167.398438 129.21875 167.742188 129.632812 C 168.070312 130.03125 168.214844 130.644531 167.96875 131.105469 C 167.597656 131.816406 166.640625 131.890625 165.851562 131.859375 C 163.535156 131.804688 161.199219 131.730469 158.882812 131.675781 C 158.238281 127.703125 163.890625 127.800781 166.410156 128.773438 " fill-opacity="1" fill-rule="nonzero"/><path fill="#f0f0ef" d="M 118.59375 135.949219 C 115.257812 133.703125 111.96875 131.203125 108.074219 130.175781 C 104.039062 129.101562 99.761719 129.703125 95.582031 129.832031 C 91.402344 129.945312 86.863281 129.417969 83.773438 126.617188 C 80.753906 123.859375 79.335938 119.113281 75.457031 117.8125 C 72.265625 116.757812 68.402344 119.058594 67.828125 122.371094 C 67.558594 123.914062 67.929688 125.515625 68.589844 126.945312 C 70.234375 130.460938 73.527344 132.960938 77.074219 134.546875 C 80.625 136.132812 84.460938 136.933594 88.210938 137.960938 C 93.632812 139.449219 98.914062 141.421875 104.425781 142.519531 C 107.128906 143.0625 109.863281 143.394531 112.613281 143.664062 C 115.574219 143.980469 118.539062 144.222656 121.5 144.40625 C 123.144531 144.507812 131.046875 144.734375 128.554688 141.476562 C 127.566406 140.191406 125.59375 139.707031 124.175781 139.105469 C 122.199219 138.277344 120.367188 137.132812 118.59375 135.949219 " fill-opacity="1" fill-rule="nonzero"/><path fill="#f0f0ef" d="M 161.5 134.234375 C 162.460938 133.375 163.304688 132.390625 164.265625 131.519531 C 166.996094 129.046875 170.53125 127.644531 174.082031 126.6875 C 177.644531 125.730469 181.308594 125.171875 184.84375 124.128906 C 190.023438 122.617188 194.890625 120.027344 198.957031 116.484375 C 201.101562 114.585938 203.105469 112.382812 205.753906 111.3125 C 208.417969 110.226562 212.039062 110.742188 213.324219 113.296875 C 214.054688 114.757812 213.855469 116.554688 213.125 118.015625 C 212.378906 119.472656 211.164062 120.644531 209.890625 121.644531 C 206.15625 124.585938 201.703125 126.445312 197.265625 128.175781 C 183.871094 133.417969 170.160156 137.863281 156.476562 142.308594 C 155.304688 142.691406 154.058594 143.0625 152.886719 142.691406 C 151.710938 142.320312 151.269531 139.648438 152.371094 139.121094 C 152.972656 138.835938 159.554688 135.992188 161.5 134.234375 " fill-opacity="1" fill-rule="nonzero"/><path fill="#f04053" d="M 155.5625 135.375 C 155.605469 140.335938 148.492188 144.40625 139.691406 144.480469 C 130.886719 144.523438 123.734375 140.550781 123.703125 135.589844 C 123.675781 130.617188 130.773438 126.546875 139.574219 126.488281 C 148.378906 126.429688 155.535156 130.402344 155.5625 135.375 " fill-opacity="1" fill-rule="nonzero"/><path fill="#f58393" d="M 110.335938 142.863281 C 110.363281 146.265625 106.070312 149.039062 100.777344 149.082031 C 95.464844 149.109375 91.144531 146.394531 91.128906 142.992188 C 91.101562 139.605469 95.378906 136.820312 100.691406 136.789062 C 106 136.746094 110.320312 139.476562 110.335938 142.863281 " fill-opacity="1" fill-rule="nonzero"/><path fill="#f58393" d="M 190.023438 140.761719 C 190.054688 144.164062 185.773438 146.9375 180.464844 146.980469 C 175.15625 147.007812 170.847656 144.277344 170.820312 140.890625 C 170.789062 137.492188 175.082031 134.71875 180.378906 134.691406 C 185.6875 134.648438 190.011719 137.375 190.023438 140.761719 " fill-opacity="1" fill-rule="nonzero"/><path fill="#3c2319" d="M 134.335938 193.265625 C 135.496094 193.449219 138.214844 193.878906 138.746094 194.9375 C 139.144531 195.777344 139.390625 198.824219 135.511719 199.664062 C 133.148438 200.179688 130.460938 200.507812 128.3125 201.679688 C 124.933594 203.539062 127.011719 206.769531 126.4375 209.726562 C 125.722656 213.585938 120.3125 217.601562 117.21875 218.058594 C 112.3125 218.800781 109.25 218.730469 102.808594 215.683594 C 98.558594 213.683594 100.1875 208.910156 100.332031 205.566406 C 100.375 204.523438 100.101562 196.152344 100.761719 195.851562 C 106.144531 193.4375 109.078125 192.179688 115.445312 191.75 C 121.730469 191.320312 127.410156 192.191406 134.335938 193.265625 " fill-opacity="1" fill-rule="nonzero"/><path fill="#3c2319" d="M 254.558594 118.472656 C 257.164062 114.425781 261.3125 111.328125 266.023438 110.367188 C 270.730469 109.410156 275.941406 110.742188 279.359375 114.128906 C 282.765625 117.515625 284.113281 122.929688 282.335938 127.386719 C 281.164062 130.359375 278.601562 132.832031 275.480469 133.574219 C 274.109375 133.90625 272.589844 133.933594 271.445312 134.761719 C 270.617188 135.363281 270.058594 136.347656 269.097656 136.707031 C 267.582031 137.261719 266.066406 135.976562 264.863281 134.890625 C 261.300781 131.6875 257.304688 130.703125 253.328125 128.445312 C 249.449219 126.246094 252.496094 121.671875 254.558594 118.472656 " fill-opacity="1" fill-rule="nonzero"/><path fill="#f0f0ef" d="M 240.445312 122.699219 C 238.472656 123.558594 235.921875 127.074219 234.980469 129.402344 C 234.191406 131.390625 234.792969 133.703125 236.007812 135.449219 C 240.519531 141.878906 250.507812 146.421875 256.875 150.835938 C 259.367188 152.566406 262.058594 154.351562 265.105469 154.496094 C 270.945312 154.753906 274.882812 149.039062 275.539062 143.777344 C 276.199219 138.535156 273.179688 134.246094 269.226562 131.089844 C 263.417969 126.429688 250.191406 118.429688 240.445312 122.699219 " fill-opacity="1" fill-rule="nonzero"/><path fill="#d32731" d="M 75.703125 182.488281 C 71.792969 180.902344 67.800781 179.304688 63.621094 179.046875 C 59.457031 178.789062 54.992188 180.089844 52.230469 183.460938 C 48.480469 188.035156 48.25 197.824219 51.214844 203.023438 C 54.175781 208.226562 58.382812 210.140625 63.394531 212.96875 C 71.335938 217.457031 81.253906 219.859375 90.011719 221.914062 C 91.1875 222.1875 103.609375 198.953125 99.746094 192.734375 C 96.167969 186.976562 81.582031 184.863281 75.703125 182.488281 " fill-opacity="1" fill-rule="nonzero"/><path fill="#dfdcdb" d="M 104.367188 184.417969 C 102.679688 183.089844 98.371094 182.519531 95.867188 182.804688 C 93.75 183.046875 91.972656 184.660156 91.015625 186.578125 C 87.496094 193.578125 88.222656 204.511719 87.351562 212.210938 C 87.007812 215.214844 86.707031 218.429688 88.023438 221.171875 C 90.570312 226.417969 97.46875 227.171875 102.421875 225.257812 C 107.375 223.359375 109.707031 218.671875 110.621094 213.699219 C 111.96875 206.382812 112.753906 190.964844 104.367188 184.417969 " fill-opacity="1" fill-rule="nonzero"/><path fill="#a21e21" d="M 160.15625 170.015625 C 159.539062 171.714844 158.09375 173.230469 156.292969 173.457031 C 154.546875 173.6875 152.871094 172.730469 151.570312 171.558594 C 150.265625 170.386719 149.179688 168.984375 147.734375 167.984375 C 147.132812 167.570312 144.972656 166.726562 142.367188 165.65625 C 135.824219 162.941406 126.539062 158.652344 132.5625 155.4375 C 134.839844 154.210938 140.164062 155.667969 142.765625 155.453125 C 147.820312 155.023438 151.355469 153.296875 154.445312 149.195312 C 156.90625 152.066406 158.566406 155.910156 159.554688 159.769531 C 159.984375 161.398438 160.300781 163.042969 160.484375 164.628906 C 160.699219 166.429688 160.773438 168.300781 160.15625 170.015625 " fill-opacity="1" fill-rule="nonzero"/><path fill="#f04053" d="M 160.15625 170.015625 C 159.539062 171.714844 158.09375 173.230469 156.292969 173.457031 C 154.546875 173.6875 152.871094 172.730469 151.570312 171.558594 C 150.265625 170.386719 149.179688 168.984375 147.734375 167.984375 C 147.132812 167.570312 144.972656 166.726562 142.367188 165.65625 C 143.339844 164.140625 144.871094 162.613281 146.386719 162.082031 C 147.203125 161.796875 153.445312 162.625 152.726562 164.214844 C 153.832031 161.8125 156.261719 160.054688 158.910156 159.796875 L 159.554688 159.769531 C 159.984375 161.398438 160.300781 163.042969 160.484375 164.628906 C 160.699219 166.429688 160.773438 168.300781 160.15625 170.015625 " fill-opacity="1" fill-rule="nonzero"/><g clip-path="url(#521360a8f0)"><path fill="#ffffff" d="M 167.285156 149.144531 L 312.796875 149.144531 C 322.320312 149.144531 330.039062 156.863281 330.039062 166.382812 L 330.039062 350.15625 C 330.039062 359.675781 322.320312 367.394531 312.796875 367.394531 L 167.285156 367.394531 C 157.761719 367.394531 150.039062 359.675781 150.039062 350.15625 L 150.039062 166.382812 C 150.039062 156.863281 157.761719 149.144531 167.285156 149.144531 " fill-opacity="1" fill-rule="nonzero"/></g><g clip-path="url(#755decf7d6)"><g clip-path="url(#23b6aad4c8)"><path stroke-linecap="butt" transform="matrix(0.749707, 0, 0, 0.749477, 150.040967, 149.144623)" fill="none" stroke-linejoin="miter" d="M 23.001233 -0.000122427 L 217.092644 -0.000122427 C 229.795521 -0.000122427 240.091207 10.298729 240.091207 23.000298 L 240.091207 268.20261 C 240.091207 280.904179 229.795521 291.203031 217.092644 291.203031 L 23.001233 291.203031 C 10.298356 291.203031 -0.00254092 280.904179 -0.00254092 268.20261 L -0.00254092 23.000298 C -0.00254092 10.298729 10.298356 -0.000122427 23.001233 -0.000122427 " stroke="#cb2c2c" stroke-width="8" stroke-opacity="1" stroke-miterlimit="4"/></g></g><g fill="#cb2c2c" fill-opacity="1"><g transform="translate(189.389913, 347.662982)"><g><path d="M 9.074219 -3.597656 C 9.074219 -3.277344 8.914062 -3.003906 8.617188 -2.773438 C 8.320312 -2.519531 7.882812 -2.40625 7.289062 -2.40625 C 6.78125 -2.40625 6.277344 -2.496094 5.820312 -2.726562 C 5.363281 -2.933594 4.925781 -3.183594 4.539062 -3.507812 C 4.125 -3.828125 3.78125 -4.171875 3.460938 -4.539062 C 3.140625 -4.902344 2.863281 -5.269531 2.660156 -5.589844 L 0.6875 -3.597656 C 1.238281 -2.910156 1.789062 -2.359375 2.335938 -1.902344 C 2.886719 -1.445312 3.460938 -1.078125 4.054688 -0.800781 C 4.628906 -0.503906 5.226562 -0.296875 5.867188 -0.183594 C 6.507812 -0.046875 7.171875 0 7.882812 0 C 8.9375 0 9.832031 -0.160156 10.585938 -0.480469 C 11.34375 -0.800781 11.960938 -1.214844 12.464844 -1.71875 C 12.949219 -2.199219 13.3125 -2.726562 13.542969 -3.277344 C 13.773438 -3.828125 13.886719 -4.332031 13.886719 -4.789062 C 13.886719 -5.683594 13.679688 -6.460938 13.269531 -7.125 C 12.855469 -7.792969 12.328125 -8.363281 11.710938 -8.867188 C 11.066406 -9.371094 10.402344 -9.808594 9.671875 -10.199219 C 8.9375 -10.5625 8.273438 -10.929688 7.652344 -11.25 C 7.011719 -11.574219 6.507812 -11.871094 6.09375 -12.191406 C 5.683594 -12.488281 5.476562 -12.832031 5.476562 -13.199219 C 5.476562 -13.496094 5.613281 -13.773438 5.933594 -14.023438 C 6.234375 -14.253906 6.691406 -14.390625 7.289062 -14.390625 C 7.792969 -14.390625 8.273438 -14.277344 8.730469 -14.070312 C 9.1875 -13.839844 9.625 -13.589844 10.039062 -13.269531 C 10.425781 -12.949219 10.792969 -12.605469 11.113281 -12.238281 C 11.433594 -11.871094 11.6875 -11.527344 11.917969 -11.207031 L 13.886719 -13.199219 C 12.785156 -14.503906 11.664062 -15.421875 10.519531 -15.972656 C 9.371094 -16.523438 8.089844 -16.796875 6.691406 -16.796875 C 5.636719 -16.796875 4.71875 -16.613281 3.964844 -16.292969 C 3.207031 -15.972656 2.589844 -15.558594 2.109375 -15.078125 C 1.605469 -14.574219 1.261719 -14.046875 1.03125 -13.496094 C 0.800781 -12.949219 0.6875 -12.441406 0.6875 -12.007812 C 0.6875 -11.089844 0.894531 -10.3125 1.304688 -9.648438 C 1.71875 -8.984375 2.222656 -8.410156 2.863281 -7.90625 C 3.484375 -7.402344 4.148438 -6.964844 4.882812 -6.601562 C 5.613281 -6.210938 6.277344 -5.867188 6.898438 -5.546875 C 7.515625 -5.226562 8.042969 -4.902344 8.457031 -4.605469 C 8.867188 -4.285156 9.074219 -3.964844 9.074219 -3.597656 Z M 9.074219 -3.597656 "/></g></g></g><g fill="#cb2c2c" fill-opacity="1"><g transform="translate(203.962614, 347.662982)"><g><path d="M 9.074219 -2.40625 C 8.480469 -2.40625 7.953125 -2.566406 7.492188 -2.910156 C 7.035156 -3.253906 6.667969 -3.710938 6.371094 -4.285156 C 6.074219 -4.835938 5.84375 -5.476562 5.707031 -6.210938 C 5.546875 -6.921875 5.476562 -7.652344 5.476562 -8.410156 C 5.476562 -9.144531 5.546875 -9.875 5.707031 -10.585938 C 5.84375 -11.296875 6.074219 -11.9375 6.371094 -12.511719 C 6.667969 -13.0625 7.035156 -13.519531 7.492188 -13.863281 C 7.953125 -14.207031 8.480469 -14.390625 9.074219 -14.390625 C 9.511719 -14.390625 9.921875 -14.277344 10.289062 -14.09375 C 10.65625 -13.910156 10.976562 -13.703125 11.25 -13.496094 C 11.550781 -13.222656 11.824219 -12.925781 12.078125 -12.605469 L 13.886719 -14.390625 C 13.496094 -14.828125 13.039062 -15.214844 12.535156 -15.582031 C 12.078125 -15.878906 11.527344 -16.15625 10.839844 -16.40625 C 10.152344 -16.660156 9.371094 -16.796875 8.480469 -16.796875 C 7.171875 -16.796875 6.027344 -16.546875 5.0625 -16.0625 C 4.101562 -15.582031 3.277344 -14.941406 2.636719 -14.160156 C 1.992188 -13.359375 1.488281 -12.464844 1.167969 -11.457031 C 0.847656 -10.449219 0.6875 -9.417969 0.6875 -8.363281 C 0.6875 -7.308594 0.847656 -6.277344 1.167969 -5.269531 C 1.488281 -4.261719 1.972656 -3.390625 2.613281 -2.613281 C 3.253906 -1.832031 4.078125 -1.191406 5.0625 -0.710938 C 6.027344 -0.230469 7.171875 0 8.480469 0 C 9.371094 0 10.152344 -0.113281 10.839844 -0.367188 C 11.527344 -0.597656 12.078125 -0.871094 12.535156 -1.191406 C 13.039062 -1.535156 13.496094 -1.949219 13.886719 -2.40625 L 12.078125 -4.195312 C 11.824219 -3.851562 11.550781 -3.550781 11.25 -3.300781 C 10.976562 -3.070312 10.65625 -2.863281 10.289062 -2.679688 C 9.921875 -2.496094 9.511719 -2.40625 9.074219 -2.40625 Z M 9.074219 -2.40625 "/></g></g></g><g fill="#cb2c2c" fill-opacity="1"><g transform="translate(218.535315, 347.662982)"><g><path d="M 8.683594 -4.789062 L 10.058594 0 L 14.847656 0 L 10.058594 -16.796875 L 5.246094 -16.796875 L 0.457031 0 L 4.054688 0 L 5.429688 -4.789062 Z M 7.996094 -7.195312 L 6.117188 -7.195312 L 7.058594 -10.496094 Z M 7.996094 -7.195312 "/></g></g></g><g fill="#cb2c2c" fill-opacity="1"><g transform="translate(233.841241, 347.662982)"><g><path d="M 1.144531 -16.796875 L 1.144531 0 L 4.742188 0 L 4.742188 -10.082031 L 10.152344 0 L 15.535156 0 L 15.535156 -16.796875 L 11.9375 -16.796875 L 11.9375 -6.714844 L 6.554688 -16.796875 Z M 1.144531 -16.796875 "/></g></g></g><g fill="#cb2c2c" fill-opacity="1"><g transform="translate(250.521946, 347.662982)"><g/></g></g><g fill="#cb2c2c" fill-opacity="1"><g transform="translate(257.395871, 347.662982)"><g><path d="M 19.132812 -16.796875 L 13.152344 -16.796875 L 10.152344 -6.300781 L 7.148438 -16.796875 L 1.144531 -16.796875 L 1.144531 0 L 4.742188 0 L 4.742188 -8.386719 L 7.148438 0 L 11.9375 0 L 14.34375 -8.386719 L 14.34375 0 L 19.132812 0 Z M 19.132812 -16.796875 "/></g></g></g><g fill="#cb2c2c" fill-opacity="1"><g transform="translate(277.673931, 347.662982)"><g><path d="M 11.9375 -3.597656 L 5.933594 -3.597656 L 5.933594 -6.601562 L 10.746094 -6.601562 L 10.746094 -10.199219 L 5.933594 -10.199219 L 5.933594 -13.199219 L 11.34375 -13.199219 L 10.746094 -16.796875 L 1.144531 -16.796875 L 1.144531 0 L 11.34375 0 Z M 11.9375 -3.597656 "/></g></g></g></svg>