<svg id="Layer_1" data-name="Layer 1" xmlns="http://www.w3.org/2000/svg" viewBox="0 0 160 160"><defs><style>.cls-1{fill:#fff;}</style></defs><rect x="23.08" y="3.12" width="113.24" height="145.08" rx="10.49"/><path d="M100.61,141.89c.11,0,18.72.29,20.37.31a.06.06,0,0,1,0,.1l-11.08,13.17a.05.05,0,0,1-.09,0l-9.19-13.54S100.59,141.89,100.61,141.89Z"/><g id="mobile"><path class="cls-1" d="M36.2,115.6H46.77a2.29,2.29,0,0,1,2.29,2.29V138.1A2.25,2.25,0,0,1,47,140.35H36.2a2.3,2.3,0,0,1-2.29-2.29V117.89A2.29,2.29,0,0,1,36.2,115.6Zm-1,21.35h9.71a.05.05,0,0,0,.05-.07,17.7,17.7,0,0,1-.52-1.82h0l-3.63-4.37a1.14,1.14,0,0,1,.2-1.43,1.05,1.05,0,0,1,1.37-.3l4,3.36a0,0,0,0,0,.07,0l1.43-2a0,0,0,0,0,0,0V118.77a0,0,0,0,0,0,0H35.16a0,0,0,0,0,0,0V136.9A.05.05,0,0,0,35.16,137Z"/><rect class="cls-1" x="38.95" y="117.07" width="4.6" height="0.53" rx="0.03" transform="translate(82.51 234.68) rotate(-180)"/><path class="cls-1" d="M40.77,130.68l3.63,4.37h0a16.55,16.55,0,0,0,.53,1.85,0,0,0,0,0,0,0h2.84a.05.05,0,0,0,0,0v-6.65l-1.44,2.05a0,0,0,0,1-.07,0l-4-3.36a1.05,1.05,0,0,0-1.37.3A1.14,1.14,0,0,0,40.77,130.68Z"/><rect class="cls-1" x="44.17" y="117.07" width="0.53" height="0.53" rx="0.03" transform="translate(88.87 234.68) rotate(-180)"/><path class="cls-1" d="M40.77,130.68l3.63,4.37h0a18.68,18.68,0,0,0,.54,1.89,8.14,8.14,0,0,0,2,3.4,2.55,2.55,0,0,0,.28.21c2,1.38,4.48-.23,4.82-3.36.25-1.94,0-9.34,0-9.34a4.83,4.83,0,0,0-.29-1.89,17.47,17.47,0,0,0-2.58-2.79,0,0,0,0,0-.07,0v5.28l0,0-1.2,1.73-1.44,2.05a0,0,0,0,1-.07,0l-4-3.36a1.05,1.05,0,0,0-1.37.3A1.14,1.14,0,0,0,40.77,130.68Z"/><circle class="cls-1" cx="41.31" cy="138.63" r="1.15"/></g><path class="cls-1" d="M64.46,123.55a1.35,1.35,0,0,0-.34-1,3.86,3.86,0,0,0-1.22-.7,5.57,5.57,0,0,1-2.34-1.45,2.87,2.87,0,0,1-.72-2,2.79,2.79,0,0,1,1-2.2,3.67,3.67,0,0,1,2.46-.82,3.58,3.58,0,0,1,1.78.42,2.85,2.85,0,0,1,1.2,1.18,3.56,3.56,0,0,1,.42,1.74H64.49a1.84,1.84,0,0,0-.32-1.16,1.15,1.15,0,0,0-.93-.39,1.18,1.18,0,0,0-.89.33,1.25,1.25,0,0,0-.32.91,1.15,1.15,0,0,0,.35.81,4.16,4.16,0,0,0,1.27.75,5.29,5.29,0,0,1,2.29,1.4,3.1,3.1,0,0,1,.72,2.11,2.79,2.79,0,0,1-.9,2.21,3.55,3.55,0,0,1-2.44.79,4.16,4.16,0,0,1-1.91-.43,3.21,3.21,0,0,1-1.35-1.23,3.59,3.59,0,0,1-.48-1.89h2.19a2.11,2.11,0,0,0,.36,1.36,1.5,1.5,0,0,0,1.19.42C64.08,124.76,64.46,124.36,64.46,123.55Z"/><path class="cls-1" d="M70.91,124.79c.61,0,.92-.4.93-1.19h2a3,3,0,0,1-.81,2.13,2.73,2.73,0,0,1-2,.8,3,3,0,0,1-2.37-1,4.37,4.37,0,0,1-.83-2.84v-.64a4.46,4.46,0,0,1,.81-2.89,2.86,2.86,0,0,1,2.38-1A2.75,2.75,0,0,1,73,119a3.36,3.36,0,0,1,.78,2.33h-2a2.08,2.08,0,0,0-.23-1,.76.76,0,0,0-.71-.36.85.85,0,0,0-.79.39,3.44,3.44,0,0,0-.25,1.51v.82A6.14,6.14,0,0,0,70,124a1,1,0,0,0,.32.57A1,1,0,0,0,70.91,124.79Z"/><path class="cls-1" d="M78.82,126.39a3.16,3.16,0,0,1-.18-.63,1.79,1.79,0,0,1-1.53.77,2.31,2.31,0,0,1-1.68-.66,2.38,2.38,0,0,1-.66-1.73,2.43,2.43,0,0,1,.81-2,3.51,3.51,0,0,1,2.32-.7h.64v-.65a1.22,1.22,0,0,0-.19-.76.65.65,0,0,0-.54-.23c-.53,0-.79.31-.79.93h-2.1a2.33,2.33,0,0,1,.83-1.84,3.09,3.09,0,0,1,2.12-.73,2.83,2.83,0,0,1,2,.69,2.55,2.55,0,0,1,.73,2v3.78a4.1,4.1,0,0,0,.29,1.63v.13Zm-1.24-1.5a1.1,1.1,0,0,0,.59-.15.93.93,0,0,0,.37-.33v-1.67H78a1.05,1.05,0,0,0-.84.34,1.29,1.29,0,0,0-.31.91C76.88,124.59,77.11,124.89,77.58,124.89Z"/><path class="cls-1" d="M84.08,118.35l.06.8a2.25,2.25,0,0,1,1.87-1q2.07,0,2.13,2.91v5.28H86v-5.13a1.82,1.82,0,0,0-.21-1,.79.79,0,0,0-.71-.31,1,1,0,0,0-.89.59v5.84H82.11v-8Z"/><path class="cls-1" d="M99.81,117.39H97.14v9H95v-9H92.32v-1.82h7.49Z"/><path class="cls-1" d="M99.17,122.11a4.41,4.41,0,0,1,.86-2.87,3.28,3.28,0,0,1,4.79,0,4.43,4.43,0,0,1,.86,2.88v.52a4.36,4.36,0,0,1-.86,2.86,3.3,3.3,0,0,1-4.79,0,4.4,4.4,0,0,1-.86-2.88Zm2.11.53c0,1.43.38,2.15,1.15,2.15s1.09-.6,1.15-1.8v-.88a3.42,3.42,0,0,0-.3-1.63.93.93,0,0,0-.86-.53.92.92,0,0,0-.84.53,3.42,3.42,0,0,0-.3,1.63Z"/><path class="cls-1" d="M64.46,137.46a1.35,1.35,0,0,0-.34-1,4.07,4.07,0,0,0-1.22-.7,5.66,5.66,0,0,1-2.34-1.44,2.89,2.89,0,0,1-.72-2,2.75,2.75,0,0,1,1-2.19,4,4,0,0,1,4.24-.41,2.9,2.9,0,0,1,1.2,1.18,3.56,3.56,0,0,1,.42,1.74H64.49a1.81,1.81,0,0,0-.32-1.15,1.13,1.13,0,0,0-.93-.4,1.15,1.15,0,0,0-.89.34,1.23,1.23,0,0,0-.32.91,1.14,1.14,0,0,0,.35.8,4.16,4.16,0,0,0,1.27.75,5.38,5.38,0,0,1,2.29,1.4,3.13,3.13,0,0,1,.72,2.12,2.78,2.78,0,0,1-.9,2.2,3.55,3.55,0,0,1-2.44.8,4.16,4.16,0,0,1-1.91-.43,3.34,3.34,0,0,1-1.35-1.23,3.65,3.65,0,0,1-.48-1.9h2.19a2.07,2.07,0,0,0,.36,1.36,1.5,1.5,0,0,0,1.19.42C64.08,138.67,64.46,138.27,64.46,137.46Z"/><path class="cls-1" d="M71.82,140.3a2.84,2.84,0,0,1-.18-.62,1.79,1.79,0,0,1-1.53.77,2.24,2.24,0,0,1-1.67-.67,2.37,2.37,0,0,1-.67-1.73,2.42,2.42,0,0,1,.81-2,3.53,3.53,0,0,1,2.32-.71h.64v-.64a1.17,1.17,0,0,0-.19-.77.65.65,0,0,0-.54-.22c-.52,0-.79.3-.79.92h-2.1a2.32,2.32,0,0,1,.84-1.84,3.1,3.1,0,0,1,2.11-.72,2.91,2.91,0,0,1,2,.68,2.61,2.61,0,0,1,.72,2v3.78a3.9,3.9,0,0,0,.3,1.62v.13Zm-1.24-1.5a1.2,1.2,0,0,0,.59-.14,1,1,0,0,0,.37-.34v-1.67H71a1.09,1.09,0,0,0-.84.35,1.32,1.32,0,0,0-.31.91C69.88,138.5,70.12,138.8,70.58,138.8Z"/><path class="cls-1" d="M77.69,137.33l1-5.06H80.9l-2.21,8h-2l-2.22-8h2.2Z"/><path class="cls-1" d="M85,140.45a3.26,3.26,0,0,1-2.52-1,3.85,3.85,0,0,1-.91-2.76v-.64a4.58,4.58,0,0,1,.83-2.93,2.89,2.89,0,0,1,2.39-1,2.74,2.74,0,0,1,2.28,1,4.65,4.65,0,0,1,.78,2.87v1H83.7a2.21,2.21,0,0,0,.39,1.31,1.31,1.31,0,0,0,1.08.41,2.37,2.37,0,0,0,1.76-.72l.82,1.27a2.7,2.7,0,0,1-1.12.87A3.85,3.85,0,0,1,85,140.45Zm-1.32-4.93h2.1v-.2a2.23,2.23,0,0,0-.24-1.09.82.82,0,0,0-.77-.37.88.88,0,0,0-.8.4A2.77,2.77,0,0,0,83.71,135.52Z"/><rect class="cls-1" x="34.81" y="14.87" width="90.37" height="90.37" rx="2.33"/></svg>