<svg xmlns="http://www.w3.org/2000/svg" viewBox="0 0 160 160"><defs><style>.cls-1{isolation:isolate;}.cls-2{fill:#ffcced;}.cls-3{fill:#000139;}.cls-4{fill:#eaaeee;mix-blend-mode:multiply;}.cls-5{fill:#fc413c;}.cls-6{fill:#fff;}.cls-7{fill:#020202;}</style></defs><g class="cls-1"><g id="Layer_1" data-name="Layer 1"><path class="cls-2" d="M136.44,30.89v81.49a17.22,17.22,0,0,1-17.22,17.22H107.81a44.62,44.62,0,0,1-21.88,23.05c-.87.4-2.06.72-2.66,0a2,2,0,0,1-.36-1.14c-.48-6,3.68-11.26,3.79-17.22a10.81,10.81,0,0,0-1.22-4.66H40.91a17.22,17.22,0,0,1-17.22-17.22V30.89A17.22,17.22,0,0,1,40.91,13.67h78.31a17.22,17.22,0,0,1,17.22,17.22Z"/><path class="cls-3" d="M84.33,153.34a1.56,1.56,0,0,1-1.27-.54,2.31,2.31,0,0,1-.42-1.3c-.26-3.25.83-6.32,1.88-9.28a25.65,25.65,0,0,0,1.9-8,10.32,10.32,0,0,0-1.11-4.39H40.91a17.51,17.51,0,0,1-17.49-17.49V30.89a17.52,17.52,0,0,1,17.49-17.5h78.31a17.49,17.49,0,0,1,17.49,17.5v81.49a17.51,17.51,0,0,1-17.49,17.49H108a44.89,44.89,0,0,1-21.95,23A4.15,4.15,0,0,1,84.33,153.34ZM40.91,13.94A17,17,0,0,0,24,30.89v81.49a17,17,0,0,0,16.94,17H85.48a.26.26,0,0,1,.25.16A11,11,0,0,1,87,134.27,25.84,25.84,0,0,1,85,142.4c-1,2.91-2.1,5.92-1.85,9a1.79,1.79,0,0,0,.3,1c.53.65,1.69.25,2.33,0a44.37,44.37,0,0,0,21.75-22.91.26.26,0,0,1,.25-.16h11.41a17,17,0,0,0,16.95-17V30.89a16.95,16.95,0,0,0-16.95-17Z"/><path class="cls-4" d="M136.44,59.27v53.11a17.22,17.22,0,0,1-17.22,17.22H107.81a44.62,44.62,0,0,1-21.88,23.05c-.87.4-2.06.72-2.66,0a2,2,0,0,1-.36-1.14c-.48-6,3.68-11.26,3.79-17.22a10.81,10.81,0,0,0-1.22-4.66H40.91a17.22,17.22,0,0,1-17.22-17.22V104l.87-.47c2.6,9.47,11,16.5,20.28,19.81s19.3,3.44,29.12,3.13c10.94-.34,21.87-1.19,32.73-2.55,4-.5,8.2-1.11,11.76-3.12,6.13-3.45,9.39-10.37,11.56-17.06a104.08,104.08,0,0,0,2.16-55.84A17.13,17.13,0,0,1,136.44,59.27Z"/><path class="cls-5" d="M49.41,10.93A8,8,0,0,0,45,6.46a3.85,3.85,0,0,0-1.22-.37,2.88,2.88,0,0,0-2.5,1.09A3.17,3.17,0,0,0,41,10.43a11.48,11.48,0,0,0,2.07,2.94L49,20.12c2.35-3.44,4.75-7,5-10.87a2.34,2.34,0,0,0-1.5-2.68,2.87,2.87,0,0,0-2.72.8,4.58,4.58,0,0,0-1,2.23"/><path class="cls-3" d="M48.79,9.89h0a.08.08,0,0,1-.07-.07,4.68,4.68,0,0,1,1-2.26,3,3,0,0,1,2.82-.82.07.07,0,0,1,0,.08.11.11,0,0,1-.11,0,2.76,2.76,0,0,0-2.62.78,4.58,4.58,0,0,0-1,2.2A.08.08,0,0,1,48.79,9.89Z"/><path class="cls-3" d="M52.81,14h0s-.07-.05-.05-.09c.16-.36.3-.71.43-1.06a.09.09,0,0,1,.1,0c.05,0,.07,0,.06.08-.13.34-.27.7-.43,1.07A.1.1,0,0,1,52.81,14Z"/><path class="cls-3" d="M49,20.42a.11.11,0,0,1-.08,0l-3.15-3.63s0-.07,0-.09.1,0,.12,0L49,20.32a.06.06,0,0,1,0,.09Z"/><path class="cls-3" d="M43.09,13.67a.11.11,0,0,1-.07,0l-.61-.72a0,0,0,0,1,0-.08.1.1,0,0,1,.12,0l.61.71a.05.05,0,0,1,0,.09Z"/><path class="cls-3" d="M49.41,11.23a.08.08,0,0,1-.08-.05A7.91,7.91,0,0,0,45,6.74a4.08,4.08,0,0,0-1.18-.36,2.85,2.85,0,0,0-2.42,1.06,3.15,3.15,0,0,0-.27,3.2.07.07,0,0,1-.06.08.09.09,0,0,1-.1,0,3.24,3.24,0,0,1,.28-3.3,3,3,0,0,1,2.59-1.13,4.08,4.08,0,0,1,1.25.38,8,8,0,0,1,4.43,4.52s0,.07-.06.07Z"/><path class="cls-6" d="M36.46,27.43a4.66,4.66,0,0,1-2.41-2.36,8.58,8.58,0,0,1-.35-.83c-.14-.38-.25-.76-.36-1.15A11.7,11.7,0,0,1,33,24.24a8.58,8.58,0,0,1-.35.83,4.66,4.66,0,0,1-2.41,2.36,6.22,6.22,0,0,1,3,5.47c0-.33,0,.8.07.46,0,.34,0-.79.08-.46A6.2,6.2,0,0,1,36.46,27.43Z"/><path class="cls-6" d="M43.33,37a2.36,2.36,0,0,1-1.2-1.19,3,3,0,0,1-.18-.41,5.54,5.54,0,0,1-.17-.58c-.06.2-.11.39-.18.58a3,3,0,0,1-.18.41A2.36,2.36,0,0,1,40.22,37a3.1,3.1,0,0,1,1.52,2.73c0-.17,0,.4,0,.23,0,.17,0-.4,0-.23A3.1,3.1,0,0,1,43.33,37Z"/><path class="cls-6" d="M36.27,42.7a2.38,2.38,0,0,1-1.21-1.19c-.07-.13-.12-.27-.18-.41a5.54,5.54,0,0,1-.17-.58,5.58,5.58,0,0,1-.18.58,3,3,0,0,1-.18.41,2.32,2.32,0,0,1-1.2,1.19,3.11,3.11,0,0,1,1.52,2.73c0-.17,0,.4,0,.23,0,.17,0-.4,0-.23A3.1,3.1,0,0,1,36.27,42.7Z"/><path class="cls-6" d="M124.59,102.23a4.63,4.63,0,0,1-2.41-2.36,6.24,6.24,0,0,1-.36-.84,11.52,11.52,0,0,1-.35-1.14c-.1.38-.21.77-.35,1.15a8.67,8.67,0,0,1-.36.83,4.63,4.63,0,0,1-2.41,2.36,6.23,6.23,0,0,1,3.05,5.47c0-.34,0,.8.07.46,0,.34,0-.8.07-.46A6.23,6.23,0,0,1,124.59,102.23Z"/><path class="cls-6" d="M131.46,111.77a2.32,2.32,0,0,1-1.21-1.18,4.08,4.08,0,0,1-.17-.42,5.4,5.4,0,0,1-.18-.57c-.05.19-.11.39-.18.58s-.11.28-.17.41a2.32,2.32,0,0,1-1.21,1.18,3.09,3.09,0,0,1,1.52,2.74c0-.17,0,.4,0,.23,0,.17,0-.4,0-.23A3.13,3.13,0,0,1,131.46,111.77Z"/><path class="cls-6" d="M124.39,117.5a2.32,2.32,0,0,1-1.2-1.19,3,3,0,0,1-.18-.41,5.58,5.58,0,0,1-.18-.58,5.54,5.54,0,0,1-.17.58,3,3,0,0,1-.18.41,2.4,2.4,0,0,1-1.2,1.19,3.11,3.11,0,0,1,1.52,2.73c0-.17,0,.4,0,.23,0,.17,0-.4,0-.23A3.11,3.11,0,0,1,124.39,117.5Z"/><path class="cls-7" d="M24.58,153.93c-.43,0-.64-.11-.64-.32s.23-.4.7-.68a7.24,7.24,0,0,0,1.43-1.23,3.77,3.77,0,0,0,1.27-2.2c0-.37-.68-.95-2-1.73a3.68,3.68,0,0,1-2-3.37,11,11,0,0,1,.22-1.66,10.35,10.35,0,0,1,1.4-3.21A15.43,15.43,0,0,1,27.72,136a5.29,5.29,0,0,1,1.17-.79,3.58,3.58,0,0,1,1.64-.48A2,2,0,0,1,32.28,136a1.16,1.16,0,0,1,.18.6,1,1,0,0,1-.19.6.56.56,0,0,1-.48.29l-.29,0c-.15,0-.23-.17-.23-.45,0-.5-.17-.75-.5-.75a1,1,0,0,0-.35.06,4.79,4.79,0,0,0-2.2,1.79,16.83,16.83,0,0,0-1.83,3.11,10,10,0,0,0-1.14,3.55,2.52,2.52,0,0,0,.11.66,1.33,1.33,0,0,0,.73.69c2.1,1.13,3.29,1.92,3.55,2.39a2,2,0,0,1,.26,1,2.77,2.77,0,0,1-.58,1.51,8.32,8.32,0,0,1-2,1.89A4.68,4.68,0,0,1,24.58,153.93Z"/><path class="cls-7" d="M33.21,151.35a2.49,2.49,0,0,1-2.12-1.23,2.3,2.3,0,0,1-.36-1.34,10,10,0,0,1,1.06-3.91A9.67,9.67,0,0,1,33,142.69a1.43,1.43,0,0,1,1.19-.56c.95,0,1.43.3,1.43.9a.32.32,0,0,1-.11.26,3.14,3.14,0,0,1-.61.23,2,2,0,0,0-1.11,1.12,10.25,10.25,0,0,0-1.07,4.56,1,1,0,0,0,.43.9.56.56,0,0,0,.26.07c.29,0,.91-.51,1.85-1.54a.57.57,0,0,1,.46-.2H36c.15,0,.22.08.22.24a3.44,3.44,0,0,1-.65,1.64A2.78,2.78,0,0,1,33.21,151.35Z"/><path class="cls-7" d="M42.29,150.69a.79.79,0,0,1-.28,0,2.18,2.18,0,0,1-1.57-2.34c0-.44,0-.66-.14-.66s-.34.41-1,1.21c-.36.47-.7.89-1,1.26a1.38,1.38,0,0,1-1,.57,1.63,1.63,0,0,1-1.58-1.61,2.12,2.12,0,0,1,.06-.49,12.19,12.19,0,0,1,2.38-5,2.11,2.11,0,0,1,1.61-1,1.47,1.47,0,0,1,.93.33c.28.22.42.41.42.56a.8.8,0,0,1-.08.38q-.23.42-.48.42a.89.89,0,0,1-.44-.1.68.68,0,0,0-.27-.12c-.08,0-.19.09-.32.28a14.45,14.45,0,0,0-1.71,3.45,1.38,1.38,0,0,0-.12.42c0,.07,0,.1.06.1q.3,0,1.71-1.77a10.74,10.74,0,0,1,2.18-2.36,1.48,1.48,0,0,1,.38-.06.65.65,0,0,1,.26,0,1.16,1.16,0,0,1,.55,1.13,2.8,2.8,0,0,1-.1.74,11.13,11.13,0,0,0-.35,2.54,3.83,3.83,0,0,0,.33,1.56.57.57,0,0,1,.08.26C42.78,150.6,42.62,150.69,42.29,150.69Z"/><path class="cls-7" d="M45,151.11a1.25,1.25,0,0,1-.54-.12,1.48,1.48,0,0,1-1.09-1.33,1.89,1.89,0,0,1,0-.44q.57-2.52,1.11-5c.11-.52.33-.78.68-.8a1.16,1.16,0,0,1,.33.06c.55.18.82.46.84.86a2.22,2.22,0,0,1-.1.51,7.24,7.24,0,0,0-.42,1.85c0,.15,0,.22.08.22s.19-.13.38-.4c.87-1.23,1.67-2.29,2.4-3.17a1.56,1.56,0,0,1,1.11-.72,1.13,1.13,0,0,1,.58.16,1.35,1.35,0,0,1,.67,1.23,2.17,2.17,0,0,1-.06.48,27.31,27.31,0,0,0-.91,4.86,2.44,2.44,0,0,0,.14,1.15.93.93,0,0,1,0,.22.32.32,0,0,1-.16.25.62.62,0,0,1-.34.11,1.14,1.14,0,0,1-.75-.32,2.27,2.27,0,0,1-.8-1.75c0-1,0-1.63,0-1.87a4.67,4.67,0,0,0,0-.53c0-.08,0-.12,0-.12s-.79,1.25-2.18,3.73C45.77,150.81,45.4,151.11,45,151.11Z"/><path class="cls-7" d="M65.57,153.71c-.72,0-1.12-.32-1.2-1a15.22,15.22,0,0,1-.11-1.55,27.08,27.08,0,0,1,.66-5,18.51,18.51,0,0,1,.83-3.31,14,14,0,0,0,.52-1.93,7,7,0,0,0-.7,1.43q-.52,1.22-1.29,2.82c-1.24,2.65-2.29,4.33-3.13,5a1,1,0,0,1-.64.3.7.7,0,0,1-.57-.4,5.77,5.77,0,0,1-.66-2.54c0-.91,0-1.78,0-2.6,0-1,0-2.06.1-3v-.6q-.24,0-1.37,5.22a36.48,36.48,0,0,0-.85,4.81c0,.49-.26.73-.7.73a1.14,1.14,0,0,1-.79-.34,1.24,1.24,0,0,1-.38-1c0-.2.13-1.06.4-2.58a58.5,58.5,0,0,1,2-8.46c.45-1.38,1-2.06,1.61-2.06a2.18,2.18,0,0,1,1.23.41q.6.42.6,2.25l-.1,6.21c0,.27,0,.4.14.4s1-1.21,2.22-3.64c.64-1.23,1.3-2.46,2-3.71,1.5-2.64,2.64-4,3.41-4a.71.71,0,0,1,.28.06.93.93,0,0,1,.57.85,1.39,1.39,0,0,1-.1.5c-1.11,3.1-2,5.78-2.6,8a23.26,23.26,0,0,0-.93,5.62,3,3,0,0,0,.58,2.1.33.33,0,0,1,.11.24.49.49,0,0,1-.21.32A1.25,1.25,0,0,1,65.57,153.71Z"/><path class="cls-7" d="M71.17,151.31c-2,0-3-.94-3-2.8,0-.17,0-.57.11-1.17a8.06,8.06,0,0,1,.85-2.39c.88-1.74,1.83-2.62,2.84-2.62a2,2,0,0,1,1.86,1.23,1.64,1.64,0,0,1,.2.8,2.26,2.26,0,0,1-.3,1.07,9.22,9.22,0,0,1-3.21,3.24c-.36.17-.54.35-.54.53a.67.67,0,0,0,0,.24c.12.42.36.64.72.64a4.11,4.11,0,0,0,2.12-1c.58-.42,1-.75,1.25-1s.57-.48.76-.48a.5.5,0,0,1,.27.1.63.63,0,0,1,.22.5,1.9,1.9,0,0,1-.41.93,5.5,5.5,0,0,1-1.33,1.31,3.49,3.49,0,0,1-1.65.78C71.67,151.29,71.41,151.31,71.17,151.31Zm-.75-4.17a3.63,3.63,0,0,0,1-1.25,5.6,5.6,0,0,0,.72-1.63c0-.11-.07-.16-.2-.16a.25.25,0,0,0-.22.1,21,21,0,0,0-1.49,2.74C70.22,147,70.29,147.11,70.42,147.14Z"/></g></g></svg>