<svg id="Layer_1" data-name="Layer 1" xmlns="http://www.w3.org/2000/svg" viewBox="0 0 160 160"><defs><style>.cls-1{fill:#b5e523;}.cls-2{fill:#302b35;}.cls-3{fill:#ead701;}.cls-4{fill:none;stroke:#302b35;stroke-linecap:round;stroke-linejoin:round;stroke-width:8px;}</style></defs><path d="M50.84,76.52C44.56,68.06,35.69,55,34.06,49.34c-.58-2-.42-3.2-.11-3.61s1.75-1,3.91-1a19.32,19.32,0,0,1,3.75.41l7.3,1.46V39.12c0-8.15-6.43-11-9.89-12.57l-.74-.34c6.25-5.13,28-14.77,40.35-14.77S112.72,21.08,119,26.21l-.74.34c-3.46,1.54-9.89,4.42-9.89,12.57v7.44l7.3-1.46a19.48,19.48,0,0,1,3.75-.41c2.17,0,3.52.52,3.91,1s.47,1.61-.11,3.61c-1.63,5.63-10.5,18.72-16.78,27.18Z"/><path class="cls-1" d="M78.63,13.11c-7.21-.2-18.27-1.16-19.85-3.4,0,8.51,2.09,23.28,4,26C68,39.27,65.68,47.86,78.63,48.31c13-.45,10.63-9,15.81-12.63,1.94-2.69,4-17.46,4-26C96.89,12,85.83,12.91,78.63,13.11Z"/><path d="M78.63,49.13h0c-9-.32-11.1-4.5-12.93-8.19-.89-1.8-1.72-3.49-3.32-4.59l-.12-.08-.08-.12C60.08,33.28,58,18.35,58,9.71V7.15l1.48,2.09c1,1.47,9.28,2.78,19.18,3,9.9-.27,18.14-1.58,19.18-3l1.48-2.09V9.71c0,8.64-2.11,23.57-4.19,26.44l-.08.12-.11.08c-1.6,1.1-2.44,2.79-3.33,4.59-1.83,3.69-3.9,7.87-12.92,8.19ZM63.4,35.1a12.71,12.71,0,0,1,3.73,5.11c1.79,3.6,3.47,7,11.5,7.29,8-.29,9.71-3.69,11.49-7.29a12.71,12.71,0,0,1,3.73-5.11c1.59-2.49,3.56-15.07,3.79-23.81-4.32,2.06-15.31,2.53-19,2.63h0c-3.69-.1-14.67-.57-19-2.63C59.84,20,61.81,32.61,63.4,35.1Z"/><path class="cls-2" d="M78.63,27.24c-1.19.09-4.32,4.49-3.14,5.51s3.14-.21,3.14-.21,2,1.22,3.13.21S79.81,27.33,78.63,27.24Z"/><path class="cls-2" d="M63.52,20.89c.69-1.63,8.36-2,10.65.58s-.31,6.78-3,6.81S61.2,26.39,63.52,20.89Z"/><path class="cls-2" d="M93.73,20.89c-.69-1.63-8.36-2-10.64.58s.31,6.78,3,6.81S96.05,26.39,93.73,20.89Z"/><path class="cls-2" d="M78.63,35.89c-5.77,0-11.41-2.19-13.33-3.78C66.49,35.89,68.76,44.25,78.63,44c9.86.3,12.13-8.06,13.33-11.84C90,33.7,84.4,35.89,78.63,35.89Z"/><polygon class="cls-1" points="67.74 32.81 68.22 34.75 68.71 36.69 69.83 35.24 70.94 33.78 69.34 33.3 67.74 32.81"/><polygon class="cls-1" points="89.52 32.81 89.03 34.75 88.55 36.69 87.43 35.24 86.31 33.78 87.92 33.3 89.52 32.81"/><polygon class="cls-1" points="70.28 34.18 70.94 36.13 71.61 38.08 72.71 36.45 73.8 34.83 72.04 34.52 70.28 34.18"/><polygon class="cls-1" points="86.98 34.18 86.31 36.13 85.64 38.08 84.55 36.45 83.45 34.83 85.22 34.52 86.98 34.18"/><polygon class="cls-1" points="73.41 34.95 74.27 36.91 75.12 38.88 76.19 37.08 77.25 35.27 75.33 35.14 73.41 34.95"/><polygon class="cls-1" points="83.84 34.95 82.99 36.91 82.13 38.88 81.07 37.08 80 35.27 81.92 35.14 83.84 34.95"/><polygon class="cls-1" points="78.63 35.16 76.55 35.12 78.63 39.08 80.71 35.12 78.63 35.16"/><polygon class="cls-1" points="78.63 44.41 80.71 44.45 78.63 40.49 76.55 44.45 78.63 44.41"/><polygon class="cls-1" points="73.93 43.85 73.44 41.91 72.96 39.98 71.84 41.43 70.72 42.88 72.32 43.37 73.93 43.85"/><polygon class="cls-1" points="83.33 43.85 83.81 41.91 84.3 39.98 85.42 41.43 86.53 42.88 84.93 43.37 83.33 43.85"/><polygon class="cls-1" points="76.94 44.41 76.45 42.47 75.97 40.53 74.85 41.98 73.73 43.44 75.33 43.92 76.94 44.41"/><polygon class="cls-1" points="80.32 44.41 80.8 42.47 81.29 40.53 82.41 41.98 83.53 43.44 81.92 43.92 80.32 44.41"/><path class="cls-2" d="M112.05,52.58a1.24,1.24,0,0,1-.46-.29,1.29,1.29,0,0,1-.19-1.6,6.2,6.2,0,0,0,.49-1.13l.08-.19c.07-.13.13-.27.19-.39a5.44,5.44,0,0,1-9.08-3.31l-.09.38a1.06,1.06,0,0,1-.06.19,6.66,6.66,0,0,0-.36,1.24,1.31,1.31,0,0,1-1.18,1.1,1.22,1.22,0,0,1-.54-.07,1.3,1.3,0,0,1-.79-.83,6.07,6.07,0,0,1-.21-2,1.09,1.09,0,0,1,0-.18,13.52,13.52,0,0,1,1.08-3.4,1.51,1.51,0,0,1,.11-.22c-.35.14-.69.3-1,.46a1.26,1.26,0,0,1-1,0,1.17,1.17,0,0,1-.55-.39,1.29,1.29,0,0,1,0-1.57,9,9,0,0,1,1-1.21.67.67,0,0,1,.15-.14,14.08,14.08,0,0,1,4.1-2c-.09-.33-.15-.62-.21-.94a7.63,7.63,0,0,1-.11-3.62,1.28,1.28,0,0,1,1.12-1,1.29,1.29,0,0,1,1.33.77,7,7,0,0,1,.53,1.51,3,3,0,0,1,.41-.76h0a6.61,6.61,0,0,1,.78-.85,1.27,1.27,0,0,1,1.3-.25L109,32a1.28,1.28,0,0,1,.68,1.31l-.1.86a2.6,2.6,0,0,1-.2.72c-.05.14-.12.31-.18.5a3.7,3.7,0,0,0-.11.49,1.7,1.7,0,0,0,0,.28l.26.34.1-.09a1.87,1.87,0,0,1,1.92-1.19,1.37,1.37,0,0,1,.35.08,1,1,0,0,1,.28.14,1,1,0,0,1,.29.07,1.3,1.3,0,0,1,.31.16,1.89,1.89,0,0,1,.71,2.14c0,.05,0,.09,0,.14l.41-.1a1.53,1.53,0,0,0,.15-.23,5.67,5.67,0,0,0,.42-1,2.51,2.51,0,0,1,.31-.68l.47-.73a1.3,1.3,0,0,1,1.36-.56l.16.05a1.28,1.28,0,0,1,.84,1,6.73,6.73,0,0,1,0,1.14h0a3.18,3.18,0,0,1-.18.84,7.23,7.23,0,0,1,1.37-.81,1.32,1.32,0,0,1,1-.06,1.3,1.3,0,0,1,.49.32,1.29,1.29,0,0,1,.19,1.52,7.68,7.68,0,0,1-2.41,2.7c-.24.2-.49.4-.76.59a14.11,14.11,0,0,1,1.85,4.16.69.69,0,0,1,0,.2,9.24,9.24,0,0,1,0,1.61,1.31,1.31,0,0,1-1.06,1.17,1.27,1.27,0,0,1-.67-.06,1.31,1.31,0,0,1-.73-.66c-.16-.35-.32-.69-.49-1l-.06.24a13.44,13.44,0,0,1-1.36,3.3l-.11.15a6.27,6.27,0,0,1-1.45,1.4A1.28,1.28,0,0,1,112.05,52.58Z"/><path class="cls-3" d="M117.81,46.45a13.15,13.15,0,0,0-1.69-3.78l0,0,0,0a9.32,9.32,0,0,0-2.7-1.28c-.46-.16-.93-.29-1.39-.44h0a1.77,1.77,0,0,0,.07-.29h0l1.33.35a6.08,6.08,0,0,0,2.84.12h0l0,0c.32-.21.59-.43.87-.65a6.36,6.36,0,0,0,2.1-2.34c-1.48.76-.92.55-2.5,1.86a7.52,7.52,0,0,1-.76.57,5.54,5.54,0,0,1-2.49-.14L112.25,40l.44-.07c.36-.06.72-.12,1.09-.2a2.43,2.43,0,0,0,1.17-.47,3.31,3.31,0,0,0,.57-.75,6.38,6.38,0,0,0,.67-1.69,5.79,5.79,0,0,0,0-.93l-.49.77c-.11.12-.26.83-.67,1.54a4.63,4.63,0,0,1-.56.74l0-.07h0a10.4,10.4,0,0,1-1.87.44l-.63.1a1.87,1.87,0,0,0-.2-.4,1.69,1.69,0,0,0,.19-.33,1.43,1.43,0,0,0,0-1c.19-.34.28-.74-.11-1a1,1,0,0,1-.1.74,1.18,1.18,0,0,0-.4-.24,1.12,1.12,0,0,0-.46-.07,1,1,0,0,1,.4-.63c-.48,0-.67.33-.74.71a1.43,1.43,0,0,0-.67.78,1.1,1.1,0,0,0-.07.37,1.86,1.86,0,0,0-.41.17L109,38a10,10,0,0,1-1.15-1.55h0a.17.17,0,0,1,0,.08,4.81,4.81,0,0,1,0-.92A5.32,5.32,0,0,1,108,35c.15-.48.32-.84.32-1l.11-.9a5.09,5.09,0,0,0-.62.69,6.43,6.43,0,0,0-.58,1.72,3.3,3.3,0,0,0,0,1,2.28,2.28,0,0,0,.6,1.1c.22.3.46.58.7.86l.29.33c-.4-.17-.79-.35-1.17-.55a5.5,5.5,0,0,1-2-1.49,8.27,8.27,0,0,1-.21-.92c-.37-2-.07-1.5-.73-3a6.6,6.6,0,0,0,.12,3.15A7.23,7.23,0,0,0,105,37v0l0,0a6,6,0,0,0,2.26,1.73c.41.21.82.4,1.24.59h0c0,.1-.1.19-.13.27l0,0L107.08,39a9.49,9.49,0,0,0-2.89-.75h-.08a13,13,0,0,0-3.73,1.8,9.1,9.1,0,0,0-.91,1.06l1.25-.56a13.14,13.14,0,0,1,3.51-1.69,9.17,9.17,0,0,1,2.62.71c.44.18.89.35,1.32.56l.15,0c0,.06,0,.12,0,.18l-.15,0a28.35,28.35,0,0,0-3.4.3,5.26,5.26,0,0,0-1.76.52,6,6,0,0,0-.9,1.44,12.06,12.06,0,0,0-1,3,5.06,5.06,0,0,0,.15,1.6,7.5,7.5,0,0,1,.43-1.49,13.62,13.62,0,0,1,.94-2.89,6.42,6.42,0,0,1,.74-1.21,12.27,12.27,0,0,1,3.71-.65,4.15,4.15,0,1,0,5.27,5.34,4.17,4.17,0,0,0-.33-3.54,12.36,12.36,0,0,1,2.43,2.88,6.18,6.18,0,0,1-.22,1.4A13.15,13.15,0,0,1,113.12,50a7.16,7.16,0,0,1-.63,1.42,5.14,5.14,0,0,0,1.15-1.13,12.07,12.07,0,0,0,1.22-3,6.61,6.61,0,0,0,.24-1.69,5.21,5.21,0,0,0-1-1.53,31.84,31.84,0,0,0-2.41-2.41l-.14-.08.11-.15.15.07c.46.12.91.27,1.36.42a9,9,0,0,1,2.47,1.14,13,13,0,0,1,1.6,3.55c.21.4.4.81.6,1.24A8.17,8.17,0,0,0,117.81,46.45Z"/><path class="cls-2" d="M45.24,52.67a1.57,1.57,0,0,0,.47-.3,1.3,1.3,0,0,0,.18-1.6,5.91,5.91,0,0,1-.49-1.13l-.08-.19c-.07-.13-.13-.26-.19-.39a5.44,5.44,0,0,0,9.08-3.31l.09.38a1.06,1.06,0,0,0,.06.19,6.66,6.66,0,0,1,.36,1.24,1.31,1.31,0,0,0,1.18,1.1,1.22,1.22,0,0,0,.54-.07,1.28,1.28,0,0,0,.79-.83,6.37,6.37,0,0,0,.22-2c0-.06,0-.12,0-.18a13.12,13.12,0,0,0-1.08-3.4,1.51,1.51,0,0,0-.11-.22c.35.14.69.3,1,.46a1.26,1.26,0,0,0,1,0,1.22,1.22,0,0,0,.55-.38,1.31,1.31,0,0,0,0-1.58,9,9,0,0,0-1-1.21.67.67,0,0,0-.15-.14,14.34,14.34,0,0,0-4.1-2c.09-.33.15-.62.21-.94a7.63,7.63,0,0,0,.11-3.62,1.28,1.28,0,0,0-1.12-1,1.28,1.28,0,0,0-1.33.78,6.83,6.83,0,0,0-.53,1.5,3,3,0,0,0-.41-.76h0a7.36,7.36,0,0,0-.78-.85,1.27,1.27,0,0,0-1.3-.25l-.16.06a1.28,1.28,0,0,0-.68,1.31l.1.86a2.6,2.6,0,0,0,.2.72c0,.14.12.31.18.5a3.7,3.7,0,0,1,.11.49,1.7,1.7,0,0,1,0,.28l-.26.34-.1-.09a1.89,1.89,0,0,0-1.92-1.19,1.37,1.37,0,0,0-.35.08,1,1,0,0,0-.28.14,1,1,0,0,0-.29.07,1.3,1.3,0,0,0-.31.16A1.89,1.89,0,0,0,44,37.84s0,.09,0,.14l-.41-.1a1.53,1.53,0,0,1-.15-.23A5.67,5.67,0,0,1,43,36.7a2.66,2.66,0,0,0-.31-.68l-.47-.73a1.3,1.3,0,0,0-1.36-.56l-.16.05a1.28,1.28,0,0,0-.84,1,6.73,6.73,0,0,0,0,1.14h0a3.18,3.18,0,0,0,.18.84A7.23,7.23,0,0,0,38.62,37a1.32,1.32,0,0,0-1-.06,1.29,1.29,0,0,0-.68,1.85,7.59,7.59,0,0,0,2.41,2.69c.24.2.49.4.76.59a14.11,14.11,0,0,0-1.85,4.16.69.69,0,0,0,0,.2,9.24,9.24,0,0,0,0,1.61,1.31,1.31,0,0,0,1.06,1.17,1.27,1.27,0,0,0,.67-.06,1.31,1.31,0,0,0,.73-.66c.16-.35.32-.69.49-1l.06.24A13.44,13.44,0,0,0,42.54,51l.11.15a6.13,6.13,0,0,0,1.46,1.4A1.29,1.29,0,0,0,45.24,52.67Z"/><path class="cls-3" d="M39.48,46.53a13.15,13.15,0,0,1,1.69-3.78l0,0,0,0a9.32,9.32,0,0,1,2.7-1.28c.46-.16.93-.29,1.39-.44h0a1.77,1.77,0,0,1-.07-.29h0L43.92,41a6.08,6.08,0,0,1-2.84.12h0l0,0c-.32-.21-.59-.43-.87-.65A6.36,6.36,0,0,1,38,38.14c1.48.76.92.55,2.5,1.86a7.52,7.52,0,0,0,.76.57,5.54,5.54,0,0,0,2.49-.14c.41-.09.83-.21,1.25-.33L44.6,40c-.36-.06-.72-.12-1.09-.2a2.43,2.43,0,0,1-1.17-.47,3.31,3.31,0,0,1-.57-.75,6.25,6.25,0,0,1-.67-1.69,5.79,5.79,0,0,1,0-.93l.49.77c.11.12.26.84.67,1.54a4.63,4.63,0,0,0,.56.74l0-.07h0a10.4,10.4,0,0,0,1.87.44l.63.1a2.14,2.14,0,0,1,.2-.4,1.69,1.69,0,0,1-.19-.33,1.43,1.43,0,0,1,0-1c-.19-.34-.28-.74.11-1a1,1,0,0,0,.1.74,1.18,1.18,0,0,1,.4-.24,1.12,1.12,0,0,1,.46-.07,1,1,0,0,0-.4-.63c.48,0,.67.34.74.71a1.43,1.43,0,0,1,.67.78,1.1,1.1,0,0,1,.07.37,1.38,1.38,0,0,1,.41.18l.42-.48a10,10,0,0,0,1.15-1.55h0a.17.17,0,0,0,0,.08,4.87,4.87,0,0,0,0-.92A5.32,5.32,0,0,0,49.3,35c-.15-.48-.32-.84-.32-1l-.11-.9a5.09,5.09,0,0,1,.62.69,6.43,6.43,0,0,1,.58,1.72,3.3,3.3,0,0,1,0,.95,2.28,2.28,0,0,1-.6,1.1c-.22.3-.46.58-.7.86l-.29.33c.4-.17.79-.35,1.17-.55a5.5,5.5,0,0,0,2-1.49,8.27,8.27,0,0,0,.21-.92c.37-2,.07-1.5.73-3A6.6,6.6,0,0,1,52.51,36,7.23,7.23,0,0,1,52.26,37v0l0,0A6,6,0,0,1,50,38.83c-.41.22-.82.4-1.24.59h0c0,.1.1.19.13.27l0,0,1.35-.56a9.49,9.49,0,0,1,2.89-.75h.08a13,13,0,0,1,3.73,1.8,9.1,9.1,0,0,1,.91,1.06l-1.25-.56A13.14,13.14,0,0,0,53.06,39a9.17,9.17,0,0,0-2.62.71c-.44.18-.89.35-1.31.56l-.16,0c0,.06,0,.12,0,.18l.15,0a28.35,28.35,0,0,1,3.4.3,5.26,5.26,0,0,1,1.76.52,6,6,0,0,1,.9,1.44,12.06,12.06,0,0,1,1,3.05,5.06,5.06,0,0,1-.15,1.6,7.5,7.5,0,0,0-.43-1.49A13.62,13.62,0,0,0,54.63,43a6.42,6.42,0,0,0-.74-1.21,12.27,12.27,0,0,0-3.71-.65,4.15,4.15,0,1,1-5.27,5.34,4.17,4.17,0,0,1,.33-3.54,12.57,12.57,0,0,0-2.43,2.88,6.18,6.18,0,0,0,.22,1.4A13.15,13.15,0,0,0,44.17,50a7.16,7.16,0,0,0,.63,1.42,5.14,5.14,0,0,1-1.15-1.13,12.07,12.07,0,0,1-1.22-3,6.61,6.61,0,0,1-.24-1.69,5.21,5.21,0,0,1,1-1.53,33.82,33.82,0,0,1,2.41-2.41l.14-.08-.11-.15-.15.07c-.46.12-.91.27-1.36.42a9,9,0,0,0-2.47,1.14,13,13,0,0,0-1.6,3.55c-.21.4-.4.81-.6,1.24A8.17,8.17,0,0,1,39.48,46.53Z"/><path d="M126.65,152.85H33.35c-9.35,0-16-9.91-13.18-19.63l16.53-57c1.82-6.28,7.15-10.54,13.18-10.54H109.7c6,0,11.3,4.21,13.15,10.43l17,57C142.7,142.86,136,152.85,126.65,152.85Z"/><path class="cls-4" d="M52.22,67.6l.58-.09.57-.1.37,0a1.18,1.18,0,0,1,.25,0l.23,0s0,.13.07.24.07.21.11.33.08.24.12.34a1.79,1.79,0,0,0,.09.21.44.44,0,0,0,.09.15l.12.16.09.08L55,69a.35.35,0,0,0,.16,0h.38s.07,0,.08,0,.08-.06.13-.12l.15-.23.14-.24a.74.74,0,0,0,.06-.18c0-.08,0-.16,0-.22l0-.19,0-.16,0-.19-.06-.24a1.17,1.17,0,0,0,0-.2l0-.11s0-.08,0-.15a1.67,1.67,0,0,1-.08-.2l-.09-.17-.06-.11-.11-.11a1.92,1.92,0,0,0-.21-.16L55,65.89a.91.91,0,0,0-.17-.12.51.51,0,0,0-.18-.06l-.17,0-.13-.06-.21-.11L54,65.37l-.16-.08-.09-.07a.37.37,0,0,0-.1-.07l-.1,0L53.35,65,53.18,65l-.1-.06a.33.33,0,0,1-.11-.08l-.19-.18-.19-.19-.1-.11-.19-.13-.2-.13s0,0-.07-.08a1.58,1.58,0,0,0-.13-.18l-.14-.18a1.26,1.26,0,0,1-.1-.15s-.07-.1-.12-.18l-.16-.23-.14-.22a.79.79,0,0,0-.08-.13s0-.07,0-.16a.41.41,0,0,0,0-.16.25.25,0,0,0,0-.09L51,62.18,50.89,62l0-.09,0-.08v-.09c0-.06,0-.15,0-.27l0-.37c0-.13,0-.24,0-.34s0-.17,0-.2v-.14a1.48,1.48,0,0,0,0-.21,1.46,1.46,0,0,1,0-.21.42.42,0,0,1,0-.13s0-.08,0-.18,0-.16,0-.19.07-.18.12-.32A1.33,1.33,0,0,0,51,59l.15-.12a.54.54,0,0,0,.15-.12l.08-.08.13-.13a1.59,1.59,0,0,1,.13-.13l.07-.08.23-.14.22-.12.29-.06.45-.1.44-.09.29-.05.38-.07.48-.08.4-.07.21,0H56l.19,0a.6.6,0,0,1,.17.07,1.42,1.42,0,0,1,.22.14l.3.21.27.21.16.12a.76.76,0,0,1,.13.23,1.15,1.15,0,0,1,.1.26c0,.06.05.2.09.39s.07.39.12.59.08.4.11.59.06.32.07.39l-2.29.39-.08-.05-.11-.07-.12-.17c0-.08-.09-.12-.1-.14s0-.08,0-.17a.35.35,0,0,0,0-.16.44.44,0,0,0-.09-.15.64.64,0,0,0-.12-.16l-.1-.08L54.74,60h-.68l-.16,0-.12.08-.16.13a.72.72,0,0,0-.07.11l-.06.09a2,2,0,0,0,0,.27,1.44,1.44,0,0,1,0,.25l.07.34.06.33s.06.13.13.25a.8.8,0,0,0,.13.22l.19.13.19.13.11.11c.05.05.12.11.18.18l.19.19.12.1a1,1,0,0,0,.16.05.44.44,0,0,1,.17.06l.19.13.19.13a.42.42,0,0,0,.13.08l.23.12.22.12.13.06a1.71,1.71,0,0,0,.14.11l.23.17.23.19.14.09.1,0,.16.08.16.08.1,0,.08.11.12.17a1.27,1.27,0,0,1,.13.19,1.2,1.2,0,0,1,.08.15s.07.14.12.25.11.23.16.35.11.22.15.32a.46.46,0,0,1,.07.18l0,.14c0,.07,0,.16,0,.25l.06.29,0,.23,0,.19q0,.12,0,.27a2.89,2.89,0,0,1,0,.29l0,.17-.06.17c0,.1,0,.16,0,.19s0,.09,0,.19l0,.33c0,.12,0,.23,0,.33s0,.17,0,.19a.85.85,0,0,0-.09.14l-.13.23-.15.23-.11.16-.1.08-.14.13-.17.14-.12.09-.19.13-.27.15a1.38,1.38,0,0,0-.24.14l-.13.07-.15,0-.19,0a3.83,3.83,0,0,1-1.12,0L54,71.07l-.29,0-.2,0-.18-.13c-.09-.05-.18-.12-.28-.19l-.26-.2-.18-.16-.06-.07s-.05-.09-.08-.14,0-.09-.07-.14a.88.88,0,0,1,0-.1c0-.09,0-.23-.11-.44s-.11-.42-.16-.66-.11-.45-.16-.66-.08-.35-.1-.44ZM53,61.43c-.07,0-.1,0-.07.1a.11.11,0,0,0,.09.06.12.12,0,0,0,.07-.1Q53.07,61.41,53,61.43Zm.42,2.14c-.06,0-.09,0-.07.09s.06.07.09.06.06,0,.07-.09S53.45,63.55,53.38,63.57Z"/><path class="cls-4" d="M60.49,67a.13.13,0,0,1,.1,0l.12.23a1.13,1.13,0,0,1,.11.26.42.42,0,0,1,.09-.22.53.53,0,0,1,.15-.17h.09l.15,0,.15,0,.1,0s0,0,.07-.08a.41.41,0,0,0,.05-.11.73.73,0,0,0-.09-.18.42.42,0,0,0-.1-.13,1.41,1.41,0,0,0-.24,0l-.24,0v0l-.63.09a.14.14,0,0,1,0-.09v-.09l.06-.08a.58.58,0,0,0,.07-.11.72.72,0,0,0,.06-.17L60.6,66v-.07l0-.1-.28.22s0-.1,0-.21,0-.18,0-.21,0-.13,0-.24,0-.17,0-.18l.08-.09s.06-.08,0-.1a.29.29,0,0,0,0-.1.88.88,0,0,1,0-.16l0-.16a.16.16,0,0,1,0-.1l.06-.11.12-.17.12-.17.09-.11s0,0,.08,0l.09,0,0-.34h-.24a.49.49,0,0,0-.23,0l-.16.1a.63.63,0,0,0-.14.12,2.57,2.57,0,0,1,0-.27c0-.13.05-.22.06-.25l.07-.08.13-.13.14-.13.08-.07.07-.08a.37.37,0,0,0,.07-.1.64.64,0,0,1-.12.06l-.18.07-.18.07-.13,0s0,0,0,0H60l-.18-.13a1,1,0,0,1-.17-.15.45.45,0,0,1,.05-.1.25.25,0,0,1,.07-.09s0,0,.07,0,.06,0,.07,0,0,0,0-.11,0-.08,0-.09l-.11-.16-.1-.16a.72.72,0,0,1,0-.19v-.19l-.1,0-.09,0-.11-.07s-.07-.06-.07-.08a.33.33,0,0,1,0-.13c0-.08,0-.14,0-.19s0-.11,0-.2a1.13,1.13,0,0,1,0-.14s0-.05,0-.1l0-.17a.75.75,0,0,1,0-.16c0-.05,0-.08,0-.09v-.17l-.09-.09-.1-.06a.49.49,0,0,0,0-.12l0-.2c0-.08,0-.14,0-.2a.5.5,0,0,1,0-.14s0-.1,0-.17a1.5,1.5,0,0,0,0-.22,1.54,1.54,0,0,1,0-.19.44.44,0,0,1,0-.09.5.5,0,0,1,0-.15,1.29,1.29,0,0,0,.07-.21A1.41,1.41,0,0,1,59,58.2a.46.46,0,0,1,.07-.13l-.15,0,0-.17a.34.34,0,0,1,.08-.13l.18-.26c.08-.09.15-.19.23-.3a2.16,2.16,0,0,1,.2-.25,2,2,0,0,1,.24-.22l.21-.19a1.32,1.32,0,0,1,.26-.12l.38-.16.38-.14a.83.83,0,0,1,.25-.08,1.86,1.86,0,0,1,.28,0l.23,0L62,56l.19,0,.26,0,.21,0h.24l.2,0,.21,0,.14,0,.21.07.31.12.32.12.21.09.17.09.22.14.21.13.11.07a.37.37,0,0,1,0,.1c0,.06,0,.12.07.19l.06.21a.82.82,0,0,1,.06.16c0,.08,0,.23.09.41s.07.38.11.57.06.38.09.54,0,.26,0,.3a1.55,1.55,0,0,1,0,.23c0,.1,0,.19,0,.29s0,.17,0,.24a.19.19,0,0,1,0,.1c-.83.08-1.24.12-2.07.22,0,0,0,0-.05-.08a1.62,1.62,0,0,1-.06-.17,1.72,1.72,0,0,1-.07-.21l-.06-.19,0-.11,0-.22,0-.22V59a.48.48,0,0,0,0-.12c0-.06-.05-.13-.07-.21l-.09-.2a.31.31,0,0,1,0-.12,1.57,1.57,0,0,1,0-.26,1.23,1.23,0,0,0,0-.24L61.92,58c-.15.42-.22.63-.36,1,.21,1.61.31,2.41.52,4a1.26,1.26,0,0,0-.07.17.41.41,0,0,0,0,.18s0,.06.07.1l.11.05.15,1.16.09.07a.24.24,0,0,1,.09.08V65l0,.21,0,.22v.11c0,.05,0,.18.08.39s.08.44.13.69.1.47.14.68.06.37.07.4,0,0,0,.12L63,68l0,.14c0,.06,0,.08,0,.08a.23.23,0,0,1,0,.1.25.25,0,0,1-.07.09.23.23,0,0,0,.07.08l.09.08.08,0h.07l.13-.19a1.46,1.46,0,0,1,.14-.19l.06,0h.08a.25.25,0,0,1,.09.08s.07.07.08.07l.11,0,.17-.06.17-.08.13-.06.13-.19a.5.5,0,0,1,.14-.1l.14-.09a.92.92,0,0,1-.24,0,.59.59,0,0,1-.23-.09l0-.14,0-.2s0-.15,0-.34,0-.38,0-.59,0-.4,0-.58a2.57,2.57,0,0,0,0-.34c0-.05,0-.12,0-.21l0-.32a2,2,0,0,1,0-.32c0-.1,0-.17,0-.22h.22l.22,0,.17.06.16.06s0,0,.06,0h.17s.07,0,.07,0l.15-.1a.44.44,0,0,1,.15-.09l.16,0,.24,0,.24,0,.16,0s0,.07,0,.15a1.7,1.7,0,0,0,0,.22v.22c0,.07,0,.12,0,.15a.58.58,0,0,1,0,.1,1.24,1.24,0,0,1,0,.16l0,.16a.44.44,0,0,0,0,.09s0,0,.08.07a.28.28,0,0,1,.08.09.58.58,0,0,1,0,.19.51.51,0,0,1-.07.15l-.12,0H65.7a.24.24,0,0,0-.08.09.47.47,0,0,1-.06.1l-.15.1-.15.11-.07.08a.2.2,0,0,0,0,.09.17.17,0,0,0,0,.11.49.49,0,0,1,0,.12.33.33,0,0,0,.13-.06c.07,0,.12,0,.13,0a.22.22,0,0,1,.1.07.29.29,0,0,1,.08.08.84.84,0,0,1,.12-.19.91.91,0,0,1,.14-.18h0l0,0H66a.51.51,0,0,1,.1.17.61.61,0,0,0,.09.16l.08.09.1.07s0,0,.08,0h.09v.07a.08.08,0,0,1,0,.06c0,.08,0,.19,0,.32s0,.25-.06.38a2.75,2.75,0,0,1,0,.34c0,.1,0,.16,0,.17l-.08.11-.14.21-.18.24a1,1,0,0,1-.13.17.73.73,0,0,1-.14.1l-.15.09-.2.07-.31.09-.31.08-.2.05h-.09l-.19,0-.21,0-.17,0-.18,0-.2,0-.2,0H62l-.1,0-.18-.07-.2-.07-.16-.07a.5.5,0,0,1-.21-.2,2.36,2.36,0,0,1-.15-.25s-.07-.14-.13-.27a1.86,1.86,0,0,0-.1-.22v-.09l0-.16,0-.15v-.1a.25.25,0,0,0,0-.09.61.61,0,0,0-.07-.14,1.09,1.09,0,0,0-.08-.15s0-.08,0-.09,0-.09,0-.21,0-.18,0-.2S60.44,67,60.49,67Zm-.56-5q0,.11.09.06s.07,0,.06-.08a.12.12,0,0,0-.09-.09S59.92,61.88,59.93,62Zm.1-2.56-.13.17-.13.17a.57.57,0,0,0-.07.12s0,0,0,0v0s0,0,0,0,0,0,0,0l.09-.1.13-.18.11-.17a1.18,1.18,0,0,1,.08-.12.27.27,0,0,0,0-.09.27.27,0,0,1,0-.08Zm.63,6.79c0,.1.06.15.14.14s.11-.07.09-.18-.06-.16-.14-.15S60.65,66.06,60.66,66.18ZM60.91,61l-.07.1c0,.05-.05.14-.09.28s-.09.27-.14.43-.09.29-.13.43a2.83,2.83,0,0,0-.08.28v.22l.1,0a.21.21,0,0,0,.08,0l.08-.09.06-.1a.44.44,0,0,0,0-.12c0-.07,0-.14,0-.22s0-.15,0-.22a.35.35,0,0,1,0-.13s0-.08,0-.17a.44.44,0,0,1,.06-.17l.18.14h.16a.43.43,0,0,0,.08-.19.69.69,0,0,0,0-.17.86.86,0,0,0-.17-.17.44.44,0,0,0-.2-.11A.3.3,0,0,0,60.91,61Zm-.55.49-.07.06a.14.14,0,0,0,0,.09,0,0,0,0,0,0,.06.14.14,0,0,0,.13,0,.16.16,0,0,0,0-.15A0,0,0,0,0,60.36,61.44Zm1.06,6.27H61.3a.24.24,0,0,0-.12,0s0,0,0,0a.13.13,0,0,0,.16,0c.08,0,.13,0,.14-.09S61.46,67.72,61.42,67.71Zm-.55-2.24c0,.1.06.15.13.14s.11-.07.1-.17-.07-.17-.14-.16S60.85,65.35,60.87,65.47Zm-.83-7c0,.11.06.15.14.14s.12-.07.1-.17-.06-.17-.14-.15S60,58.34,60,58.45Zm.16,1.17c0,.1.07.15.14.13s.12-.06.1-.17-.06-.16-.14-.15S60.19,59.5,60.2,59.62Zm1,6.82c0,.11.07.16.14.15s.11-.07.09-.18-.06-.17-.14-.16S61.15,66.32,61.16,66.44Zm-.11-2.38a.13.13,0,0,0-.07.06l0,.08s0,0,0,0a.11.11,0,0,0,.13,0,.12.12,0,0,0,0-.14S61.08,64.05,61.05,64.06Zm.66,4.34.38-.56.17.15s0-.1,0-.21a1.8,1.8,0,0,0,0-.21,1.93,1.93,0,0,0,0-.24c0-.1,0-.16,0-.17l-.08-.09S62,67,62,67s0,.07.05.16a.32.32,0,0,1,0,.18.35.35,0,0,1,0,.1l-.11.2-.12.24a1.14,1.14,0,0,1-.09.19l-.06.08a.25.25,0,0,1-.07.09Zm-1.34-9.66a1.19,1.19,0,0,0,.1.17c.05.08.08.13.1.13a.19.19,0,0,0,.09.05h.08c0-.23-.05-.35-.08-.57l-.16,0,0-.33s0,.08-.06.18,0,.15,0,.17a.14.14,0,0,0,0,.09S60.36,58.7,60.37,58.74Zm.27,1.5.11.14s0-.08,0-.17.05-.17.07-.18.06,0,.07,0H61a.28.28,0,0,1,.1.06l.09.09-.09-.67L61,59.6l-.16.09s0,0-.08,0h-.08a1.15,1.15,0,0,0-.07.19.52.52,0,0,0,0,.17A.46.46,0,0,0,60.64,60.24Zm.27,2.17c0,.1.06.15.14.14s.11-.07.09-.17-.06-.17-.14-.16S60.89,62.3,60.91,62.41Zm.55,2.8c0,.12.06.17.13.16s.11-.08.1-.19-.07-.16-.14-.15S61.44,65.1,61.46,65.21ZM61,60.44c-.06,0-.09,0-.07.09s.05.07.08.06.07,0,.08-.09S61.08,60.43,61,60.44Zm-.39-2.59c0,.12.06.17.14.16s.12-.08.1-.19-.06-.17-.14-.16S60.6,57.74,60.62,57.85ZM61.46,64c0,.1.06.15.13.14s.11-.07.1-.17-.06-.17-.14-.16S61.44,63.91,61.46,64Zm-.65-6c0,.11.06.17.14.15a.08.08,0,0,0,.08-.06A.24.24,0,0,0,61,58a.2.2,0,0,0,0-.11.09.09,0,0,0-.09,0C60.82,57.82,60.79,57.89,60.81,58Zm.75,5.24c0,.07,0,.1.08.08s.07,0,.06-.08,0-.07-.08-.09S61.55,63.17,61.56,63.24ZM61,58.36a.23.23,0,0,0,0,.12.37.37,0,0,0,0,.11.1.1,0,0,0,.1,0c.08,0,.11-.07.1-.19s-.07-.16-.15-.15A.08.08,0,0,0,61,58.36ZM62,66c0,.1,0,.15.13.14s.11-.07.09-.17-.06-.17-.13-.16S62,65.87,62,66Zm-.7-5.6c0,.08,0,.1.08.07s.07-.05.06-.08a.09.09,0,0,0-.08-.09S61.32,60.32,61.33,60.39Zm.06-.43c0,.11.06.17.14.16s.11-.08.1-.19-.07-.17-.14-.16S61.37,59.85,61.39,60Zm1-2.42c-.07,0-.1,0-.08.09a.1.1,0,0,0,.1.06s.06,0,.06-.08S62.51,57.53,62.44,57.54Zm.46-.1a.31.31,0,0,0,0,.24.13.13,0,0,0,.1,0c.08,0,.11-.07.1-.18s-.06-.17-.14-.16A.1.1,0,0,0,62.9,57.44Zm.32.08c0,.12.06.17.14.16s.12-.07.1-.18-.06-.17-.14-.16S63.21,57.41,63.22,57.52Zm1,7.34c0,.12.06.17.13.16a.08.08,0,0,0,.08-.06.24.24,0,0,0,0-.12.27.27,0,0,0,0-.12.08.08,0,0,0-.09,0Q64.22,64.69,64.23,64.86Zm.23.54a.23.23,0,0,0,0,.12.21.21,0,0,0,0,.11.08.08,0,0,0,.09,0c.08,0,.11-.07.1-.18s-.06-.17-.14-.16A.11.11,0,0,0,64.46,65.4Zm.17-.42.19,0,.18,0h.12a.57.57,0,0,1,.19.12.76.76,0,0,1,.16.17v-.17a.62.62,0,0,1,0-.16.73.73,0,0,0-.09-.09s-.07-.06-.09-.06H65l-.13,0-.1,0-.15.09a.8.8,0,0,0-.14.11Zm.57,1.79s0,0,0,0,0,.06-.06.15l-.06.19s0,.05,0,.1l0,.17,0,.17,0,.09s0,.08,0,.17a.58.58,0,0,1-.07.18h.09L65,68l.06-.09.07-.1h.16l.13-.1c.08-.06.12-.09.14-.09a.9.9,0,0,1,.22-.06l.22-.05,0-.33a.72.72,0,0,1-.23,0l-.23-.06s-.05,0-.1-.14a.76.76,0,0,0-.09-.17H65.2ZM65.09,66a.45.45,0,0,0,.07-.09l0-.1a1.08,1.08,0,0,0,0-.16v-.17l-.2,0Zm-.79-7.81a.25.25,0,0,0,0,.12.21.21,0,0,0,0,.11.1.1,0,0,0,.1,0c.08,0,.11-.07.1-.18s-.06-.17-.14-.16A.1.1,0,0,0,64.3,58.14Zm1.56,10.43c0,.12.06.17.13.16a.07.07,0,0,0,.07-.06.25.25,0,0,0,0-.12.2.2,0,0,0,0-.11.08.08,0,0,0-.08,0C65.88,68.4,65.85,68.46,65.86,68.57Zm0-3.59-.11,0a.6.6,0,0,0-.07.17.63.63,0,0,0,0,.19l.15-.1a.67.67,0,0,0,.14-.11.3.3,0,0,0,0-.11v-.13Z"/><path class="cls-4" d="M67.89,68.69a1.14,1.14,0,0,1,0-.15,2.48,2.48,0,0,0,0-.27A2.13,2.13,0,0,1,68,68a.69.69,0,0,0,0-.16s0-.13,0-.24l0-.32a2.66,2.66,0,0,1,0-.3,1.14,1.14,0,0,0,0-.15,2.29,2.29,0,0,1,0-.32c0-.16,0-.34,0-.53v-.54a2.94,2.94,0,0,1,0-.31s0-.12,0-.23,0-.23,0-.35,0-.25,0-.36,0-.19,0-.24,0-.08,0-.16l0-.27q0-.15,0-.27a.49.49,0,0,0,0-.16,2.75,2.75,0,0,0,0-.39c0-.2,0-.44,0-.7s0-.56,0-.86,0-.58,0-.85,0-.5,0-.7,0-.33,0-.39,0-.16,0-.34,0-.38.06-.6,0-.41.06-.59,0-.3,0-.34,0,0,0-.09,0-.07,0-.08,0-.18,0-.3l0-.38a3.28,3.28,0,0,1,0-.34,1.26,1.26,0,0,1,0-.16.26.26,0,0,1,.07-.1.24.24,0,0,1,.08-.09,3.26,3.26,0,0,1,.46-.07l.69-.09.69-.09.47-.07h.26l.23,0,.17,0,.22,0,.18,0,.1,0c0,.12.06.21.08.27l.06.22c0,.08,0,.14.06.18a1.62,1.62,0,0,0,0,.21c0,.12,0,.24.07.37s0,.25.07.36a1.94,1.94,0,0,1,0,.22c0,.09,0,.22.08.41s.08.4.13.61.1.41.13.6.06.32.08.39,0,.1,0,.19l0,.26.06.24a.39.39,0,0,0,0,.14.43.43,0,0,0,0,.1.88.88,0,0,0,0,.15.44.44,0,0,1,.06.16l0,.09s0,.1,0,.22,0,.23.07.37,0,.26.07.37a1.69,1.69,0,0,0,0,.21s0,.06,0,.12a1.33,1.33,0,0,1,.05.19l.06.21.05.14.09.26.09.25v1s0,.07,0,.14a1.08,1.08,0,0,1,0,.21l.06.21a.62.62,0,0,1,0,.11,1.24,1.24,0,0,1,0,.19,1.14,1.14,0,0,0,.06.25c0,.09,0,.18,0,.25a.9.9,0,0,1,0,.15v.17a.94.94,0,0,0,0,.16l.06.26c0,.1,0,.18.06.26a.9.9,0,0,1,0,.15v.67a.4.4,0,0,0,.06.13l.1.21a2,2,0,0,1,.1.21.4.4,0,0,1,.06.11.61.61,0,0,1,0,.19c0,.11,0,.18,0,.24v.21a.73.73,0,0,1,0,.21.4.4,0,0,1-.13.1.36.36,0,0,1-.15.08h-.18l-.25,0h-.68l-.32,0-.31,0-.2,0a.93.93,0,0,1-.1-.16c0-.09-.07-.15-.07-.16s0-.14,0-.28,0-.31-.07-.48,0-.33-.07-.48a1.82,1.82,0,0,1,0-.27,1.13,1.13,0,0,0-.08-.19.69.69,0,0,0-.09-.15l-.09,0-.17,0-.2,0-.16,0h-.15l-.11,0-.2,0-.2,0-.11,0s-.06,0-.13.08l-.15.11-.09.09a.21.21,0,0,0-.06.08.32.32,0,0,1,0,.13l0,.24,0,.27c0,.09,0,.16,0,.21v.18s0,.12,0,.2l0,.26a2,2,0,0,1,0,.25.61.61,0,0,1,0,.14,1,1,0,0,1,0,.17A.57.57,0,0,1,70,69l-.18.06-.26.07-.27.07-.18,0-.17,0-.21,0h-.36a.42.42,0,0,1-.14-.06l-.16-.09L68,69.1s-.07-.06-.07-.08v-.14Zm1-8.54a.18.18,0,0,0-.07.05.2.2,0,0,0,0,.08s0,.06,0,.06a.1.1,0,0,0,.13,0,.14.14,0,0,0,0-.14S68.87,60.14,68.84,60.15Zm0-2.52c.05-.2.08-.3.13-.51h-.17ZM69.33,61c0,.11,0,.17.13.16a.08.08,0,0,0,.08-.06.49.49,0,0,0,0-.12.2.2,0,0,0,0-.11s0-.06-.08-.05S69.32,60.86,69.33,61Zm1.12,3.29a.66.66,0,0,0,.15.18.79.79,0,0,0,.18.15,1.35,1.35,0,0,0,.29,0l.19,0,.14,0a.3.3,0,0,0,.07-.08l.08-.1a.78.78,0,0,0,.06-.25,1.74,1.74,0,0,0,0-.26.26.26,0,0,1,0-.07v-.08s0-.06,0-.11l0-.08a1,1,0,0,0,0-.22c0-.11,0-.23-.07-.36l-.06-.37c0-.11,0-.18,0-.22a2.6,2.6,0,0,1-.05-.28c0-.14,0-.3-.08-.47s0-.33-.08-.47,0-.24,0-.28,0-.08,0-.16a2,2,0,0,1-.07-.26,2,2,0,0,0-.07-.26A1.12,1.12,0,0,0,71,60v-.15a1.14,1.14,0,0,1,.14-.27c.07-.14.13-.23.15-.27H71.1a1.46,1.46,0,0,0-.16.17l-.15.19a.25.25,0,0,0,0-.08.34.34,0,0,1,0-.09v-.17l.16-.17.15-.18a.34.34,0,0,0,0-.17.55.55,0,0,1,0-.17s0,0,.07-.08l.09-.09v-.15c0-.1,0-.17,0-.22a2.63,2.63,0,0,0,0-.3l-.09,0-.16,0-.17,0-.09,0a.83.83,0,0,1-.12-.24.55.55,0,0,1-.06-.25l-.45.86a.89.89,0,0,0,0-.24,2.07,2.07,0,0,0,0-.26s0,0-.08-.08-.08-.07-.08-.09l0-.07,0-.08-.6,0a.58.58,0,0,0,.06.26.88.88,0,0,0,.12.23s.08,0,.17-.07a.54.54,0,0,1,.17-.09v.15a.32.32,0,0,0,0,.16l.09.18a.4.4,0,0,0,.09.14,1.05,1.05,0,0,0,.24.08,1,1,0,0,0,.26.06l-.09.11a1,1,0,0,1-.13.17l-.14.16-.09.09s0,0-.08,0h-.09s-.08.12-.15.25-.12.23-.14.27a.46.46,0,0,1,.22-.13.56.56,0,0,1,.26-.06l.1.07.16.14a.67.67,0,0,1,.15.14.77.77,0,0,1,.1.12v.22a8.34,8.34,0,0,1,0,1c0,.34,0,.68,0,1s0,.68,0,1,0,.68,0,1Zm-.61,1.45a.25.25,0,0,0,0,.12.21.21,0,0,0,0,.11A.08.08,0,0,0,70,66c.07,0,.11-.06.1-.18s0-.17-.13-.16A.09.09,0,0,0,69.84,65.72Zm-.3-4.51c0,.08,0,.11.08.09s.07,0,.07-.08a.12.12,0,0,0-.08-.09S69.53,61.14,69.54,61.21Zm0-1.33s.08.07.1.07l.24-.09a1.16,1.16,0,0,0,.22-.12l-.23-.08a1.18,1.18,0,0,0-.26-.06.25.25,0,0,0-.09.08.24.24,0,0,0-.06.11S69.54,59.84,69.59,59.88Zm0-2.46c0,.11,0,.16-.11.17s-.13-.05-.13-.15,0-.17.1-.18S69.63,57.31,69.64,57.42Zm-.16,1.19c0,.11,0,.16.13.15s.11-.06.11-.16,0-.17-.14-.17S69.47,58.5,69.48,58.61Zm.12,1.85c0,.11.06.16.13.16s.12-.07.11-.18,0-.17-.13-.17S69.6,60.34,69.6,60.46Zm.52,5.19c0,.11,0,.16.13.16s.11-.07.1-.18,0-.17-.13-.16S70.11,65.53,70.12,65.65Zm.17.16c0,.11,0,.17.12.16a.08.08,0,0,0,.08-.06.49.49,0,0,0,0-.12.2.2,0,0,0,0-.11s0-.05-.08-.05S70.28,65.69,70.29,65.81Zm.11-6.58c0,.1,0,.15-.11.16s-.12,0-.12-.15,0-.17.1-.18S70.4,59.11,70.4,59.23Zm0-.35h-.17l.16-.18ZM70.74,65c0,.08,0,.1.07.08s.07,0,.07-.08a.09.09,0,0,0-.08-.09S70.73,65,70.74,65Zm.12-6.17c0,.12,0,.18-.11.18a.09.09,0,0,1-.09-.05.21.21,0,0,1,0-.11.5.5,0,0,1,0-.12.1.1,0,0,1,.09-.06C70.81,58.68,70.85,58.74,70.86,58.85Zm-.08-.57s0,.06-.07.08-.07,0-.08-.07,0-.11.07-.1A.09.09,0,0,1,70.78,58.28Zm.26-.79c0,.12,0,.17.13.17a.08.08,0,0,0,.08-.06.5.5,0,0,0,0-.12l0-.12a.11.11,0,0,0-.09,0C71.07,57.32,71,57.38,71,57.49Zm.44-.85c0,.1,0,.15.13.15s.12-.06.11-.16,0-.17-.13-.17S71.47,56.52,71.48,56.64Zm.14,1.75c0,.07,0,.1.08.09a.11.11,0,0,0,.07-.09s0-.07-.08-.09S71.61,58.31,71.62,58.39Zm.23,2.1q0,.16.12.15c.08,0,.12-.06.11-.16s0-.17-.12-.17S71.84,60.38,71.85,60.49Zm-.11-2.94c0,.07,0,.1.08.07s.07,0,.07-.08a.09.09,0,0,0-.08-.09S71.74,57.48,71.74,57.55ZM72,60a.25.25,0,0,0,0,.12.27.27,0,0,0,0,.12.11.11,0,0,0,.09.05c.08,0,.12-.07.11-.18s0-.17-.12-.17A.1.1,0,0,0,72,60Zm1.1,7.32q0,.16.12.15c.08,0,.11,0,.11-.16s0-.17-.12-.16S73.1,67.23,73.1,67.34Z"/><path class="cls-4" d="M80.72,68.4c0-.14-.08-.29-.13-.45s-.09-.32-.13-.47-.06-.25-.07-.3,0-.11-.06-.25-.06-.28-.1-.43,0-.29-.08-.42-.05-.22-.06-.25,0-.11,0-.22,0-.22-.08-.34-.07-.25-.1-.36l-.06-.25s0-.12-.08-.26l-.08-.26s0-.16-.05-.36-.06-.41-.1-.64-.07-.45-.09-.65,0-.32-.06-.37a.87.87,0,0,0,0-.21c0-.11-.06-.24-.1-.37a3.61,3.61,0,0,1-.1-.38l-.06-.22v-.17a.93.93,0,0,0-.25.06.61.61,0,0,0-.22.11.67.67,0,0,0-.11.24.52.52,0,0,0,0,.26c0,.12,0,.34,0,.64s0,.63,0,1,0,.66,0,1,0,.52,0,.64v.25c0,.64,0,1.27-.09,1.9s-.08,1.25-.08,1.89c-.88,0-1.33,0-2.21,0,0,0,0,0-.09-.07l-.07-.1a.93.93,0,0,0,0-.13c0-.07,0-.13,0-.19V68a1.47,1.47,0,0,0,0-.16c0-.06,0-.16,0-.29s0-.26,0-.41,0-.27,0-.4a1.75,1.75,0,0,0,0-.25l0-.09c0-.05,0-.11,0-.16s0-.1,0-.16,0-.08,0-.09a.68.68,0,0,0-.08-.17.51.51,0,0,1-.07-.17.2.2,0,0,1,0-.09.25.25,0,0,1,0-.08h.15s0,0,0-.07,0-.07,0-.08a.51.51,0,0,0-.07-.17L76.12,65a1.6,1.6,0,0,0,0-.17c0-.1,0-.17,0-.23v-.25c0-.11,0-.18,0-.2s0-.24,0-.41l0-.49c0-.16,0-.36,0-.61l.16-.17-.09-.08a.36.36,0,0,1-.07-.09v-.67l.08-.08.08-.1.15-.09.17-.07-.17-.08-.15-.09-.1-.09c-.05,0-.07-.07-.07-.08l-.1-5.54.53-.05.79-.08.8,0h.67l.24,0,.25.06.19,0s0,0,.09.06l.07.1a.49.49,0,0,1,0,.16,2,2,0,0,1,0,.26c0,.1,0,.19,0,.27a.91.91,0,0,0,0,.16.42.42,0,0,0,0,.09s0,.1,0,.16l0,.15,0,.1c0,.07,0,.18.08.31s.07.28.1.42a3.56,3.56,0,0,1,.09.39,1.82,1.82,0,0,0,0,.23s0,.08,0,.17a.87.87,0,0,0,0,.17s0,.14.09.29a4,4,0,0,1,.14.48c.05.17.1.33.14.48l.09.26.07.34c0,.14.07.28.1.43s.06.27.09.38a1.21,1.21,0,0,1,0,.2c0,.07,0,.17,0,.31s0,.29,0,.45,0,.3,0,.44,0,.24,0,.31h.13c.06,0,.09,0,.11,0l.25-.08.23-.09.08-.06.07-.09a10,10,0,0,0,0-1c0-.49,0-1,0-1.57s0-1.09,0-1.58,0-.83,0-1,0-.2,0-.38,0-.36.06-.55,0-.38.07-.55,0-.31,0-.38l.08-.08a.26.26,0,0,1,.1-.07l.17-.1.15-.06h.94l.24,0h.31a.93.93,0,0,1,.25.08l.24.11c-.15.33-.22.49-.36.82h-.12a.16.16,0,0,1,0,.09.08.08,0,0,0,0,.08.7.7,0,0,0,.15.19l.17.17-.35.14.32.36a.48.48,0,0,0-.18,0,.24.24,0,0,0-.15,0l-.09.07-.15.14-.16.15a.44.44,0,0,0-.1.12.15.15,0,0,0,0,.08.08.08,0,0,0,0,0v0a.69.69,0,0,0,.06.13,1,1,0,0,1,.1.17l.09.15s0,.06,0,.06a.19.19,0,0,0,.19,0c.09,0,.13-.08.14-.13a1.55,1.55,0,0,0,0,.18.54.54,0,0,0,0,.16l.07.17a.44.44,0,0,0,.08.16c0,.37,0,.56,0,.93s0,.55,0,.92c0,0,0,.17,0,.34s-.06.38-.09.59-.05.41-.07.59a2.45,2.45,0,0,0,0,.34V63l0,.36v.6A.42.42,0,0,1,84,64s0,.1-.07.16a.88.88,0,0,0,0,.15.42.42,0,0,0,0,.09.62.62,0,0,0,.06.19c0,.09.08.15.08.16a2.19,2.19,0,0,1,0,.5c0,.24,0,.5-.07.76s-.06.52-.08.76-.05.4-.07.5a.93.93,0,0,1-.07.24c-.05.12-.08.21-.1.25a.36.36,0,0,1-.07.09.29.29,0,0,1-.08.08s.08,0,.15.06.13.09.14.12l0,.14a1.6,1.6,0,0,1,0,.21l0,.2v.13a.47.47,0,0,1-.13.18c-.08.08-.15.14-.18.14l-.38-.06L82.51,69l-.58-.07-.38-.05h-.3L81,68.8l-.21-.09Zm-4.49-7.77c0,.11,0,.16.12.16s.12-.06.12-.16,0-.17-.13-.17S76.23,60.52,76.23,60.63Zm.47,4.15-.12,0-.12,0s0,0,0,0,.07.07.16.07.14,0,.16-.08S76.73,64.79,76.7,64.78Zm-.33-5.67c0,.12,0,.17.12.17s.12-.06.11-.17,0-.17-.12-.17S76.36,59,76.37,59.11Zm0,1.18c0,.11,0,.17.12.17s.11-.06.11-.18,0-.17-.12-.17S76.38,60.17,76.39,60.29ZM76.48,66q0,.15.12.15c.08,0,.11,0,.11-.16s0-.17-.12-.17S76.48,65.9,76.48,66Zm0-2.12c0,.08,0,.11.07.09s.08,0,.08-.07a.12.12,0,0,0-.08-.1S76.49,63.83,76.49,63.9ZM76.54,60q0,.15.12.15c.08,0,.12,0,.12-.16s0-.17-.12-.17S76.54,59.84,76.54,60Zm0,1.67c0,.12,0,.17.12.17a.08.08,0,0,0,.08-.06.36.36,0,0,0,0-.11.5.5,0,0,0,0-.12.09.09,0,0,0-.09,0C76.61,61.46,76.57,61.52,76.57,61.63Zm0,.52q0,.15.12.15c.07,0,.11,0,.11-.16s0-.17-.12-.17S76.58,62,76.58,62.15Zm.1-5a.26.26,0,0,0,0,.24.11.11,0,0,0,.1,0c.08,0,.12-.06.11-.17s0-.17-.12-.17A.11.11,0,0,0,76.68,57.14Zm.07,4.54a.26.26,0,0,0,0,.24.11.11,0,0,0,.09,0c.08,0,.11-.06.11-.17s0-.17-.12-.17A.09.09,0,0,0,76.75,61.68Zm.15,1.64q0,.15.12.15c.08,0,.11,0,.11-.16s0-.17-.12-.17S76.9,63.2,76.9,63.32ZM77,65.59c0,.07,0,.1.08.07s.07,0,.07-.08,0-.07-.08-.09S77,65.51,77,65.59Zm0-9.34c0,.11,0,.16.13.16s.12,0,.12-.16,0-.17-.13-.17S77,56.14,77,56.25Zm.08,6.22c0,.11,0,.17.12.17s.11-.06.11-.17,0-.18-.12-.17S77.05,62.35,77.05,62.47Zm0,2.69c0,.12,0,.17.12.17s.11-.06.11-.17,0-.17-.12-.17S77.08,65.05,77.08,65.16Zm.07-8.41c0,.11,0,.16.12.16s.12-.06.12-.16,0-.17-.12-.17S77.14,56.64,77.15,56.75Zm0,3.2q0,.15.12.15c.08,0,.12-.05.12-.16s0-.17-.12-.17S77.18,59.83,77.18,60Zm0,2.86c0,.11,0,.16.12.16s.12-.06.12-.16,0-.17-.12-.17S77.21,62.7,77.21,62.81Zm.11-6.52a.24.24,0,0,0,0,.12.21.21,0,0,0,0,.11.1.1,0,0,0,.09.06q.12,0,.12-.18c0-.11,0-.17-.13-.17A.1.1,0,0,0,77.32,56.29Zm.3,4.83.16-.35h-.16Zm0,.84c0,.11,0,.16.12.16s.12-.06.11-.16,0-.17-.11-.17S77.67,61.85,77.67,62Zm0,1.85c0,.11,0,.17.11.17s.12-.06.12-.17,0-.17-.12-.17S77.68,63.69,77.69,63.81Zm.13-3.37c0,.12,0,.17.12.17s.07,0,.08,0a.37.37,0,0,0,0-.24.08.08,0,0,0-.08,0C77.86,60.27,77.82,60.33,77.82,60.44Zm0,3.54c0,.1,0,.16.12.16s.11-.06.11-.16,0-.17-.11-.17S77.84,63.87,77.84,64ZM78,62.34a.26.26,0,0,0,0,.24.11.11,0,0,0,.09.05c.08,0,.11-.06.11-.17s0-.17-.11-.17A.11.11,0,0,0,78,62.34Zm.34-5.78-.08,0a.35.35,0,0,0,0,.08,0,0,0,0,0,0,.06.1.1,0,0,0,.14,0,.12.12,0,0,0,0-.14S78.38,56.55,78.35,56.56Zm.11,4c0,.11,0,.16.12.16s.11-.05.11-.16,0-.17-.11-.17S78.46,60.5,78.46,60.61Zm.31-2.19c0,.11,0,.17.12.17s.12-.05.12-.17,0-.17-.12-.17S78.77,58.31,78.77,58.42Zm1,1.7q0,.15.12.15t.12-.15q0-.18-.12-.18T79.73,60.12Zm0,.67c0,.1,0,.16.11.16s.12-.05.12-.16,0-.17-.11-.17S79.73,60.67,79.73,60.79ZM80,62.64h.48v-.17H80Zm0,.17c0,.11,0,.16.12.16s.11,0,.12-.16,0-.17-.12-.17S80,62.7,80,62.81Zm.51-1.13a.26.26,0,0,0,0,.24.11.11,0,0,0,.09,0c.07,0,.11,0,.12-.17s0-.17-.12-.17A.11.11,0,0,0,80.52,61.68Zm.11,1.81c0,.11,0,.16.11.16s.12,0,.12-.15,0-.18-.11-.18S80.63,63.38,80.63,63.49Zm0,1.58c0,.08,0,.11.06.1a.09.09,0,0,0,.08-.08.11.11,0,0,0-.07-.09S80.65,65,80.65,65.07Zm.4-1.24v-.17H80.9Zm-.17.84a.28.28,0,0,0,.09-.08A.36.36,0,0,0,81,64.5v-.34C81,64.36,81,64.47,80.88,64.67Zm.57-.35-.08.05a.15.15,0,0,0,0,.08s0,0,0,.06a.11.11,0,0,0,.13,0,.12.12,0,0,0,0-.14A0,0,0,0,0,81.45,64.32Zm-.1-.31h.16l0-.84h-.16Zm.32,2.24a.2.2,0,0,0,0,.11.27.27,0,0,0,0,.12.08.08,0,0,0,.08.06c.07,0,.11-.06.12-.17s0-.17-.11-.18A.1.1,0,0,0,81.67,66.25Zm.22,1,.16-.16h-.16Zm.2-6.22c0,.11,0,.17.12.17s.12,0,.12-.17,0-.17-.11-.17S82.1,60.87,82.09,61Zm0,1c0,.11,0,.16.11.16s.12,0,.12-.15,0-.17-.11-.18S82.07,61.89,82.07,62Zm.22,1.86v-.17h-.16Zm.08.31a.18.18,0,0,0-.07,0,.16.16,0,0,0,0,.08,0,0,0,0,0,0,.06.1.1,0,0,0,.12,0,.17.17,0,0,0,0-.14A0,0,0,0,0,82.37,64.17Zm-.07,1.42a.24.24,0,0,0,0,.12.2.2,0,0,0,0,.11.1.1,0,0,0,.09.06c.07,0,.11,0,.11-.17s0-.17-.1-.17A.09.09,0,0,0,82.3,65.59Zm-.07,1.31c0,.1,0,.15.11.16s.11,0,.12-.16,0-.17-.11-.17S82.24,66.78,82.23,66.9Zm.26-2.11c-.06,0-.1,0-.08.07s0,.08.06.08.07,0,.09-.07S82.56,64.79,82.49,64.79Zm.05-2.94c0,.11,0,.17.11.17s.12-.05.12-.17,0-.17-.11-.17S82.54,61.73,82.54,61.85ZM83,64l-.08,0-.17.15a1.35,1.35,0,0,0-.15.17H83V64Zm-.4,1.71c0,.11,0,.17.11.17s.11,0,.12-.17,0-.17-.11-.17S82.58,65.6,82.58,65.72Zm0,1c0,.11,0,.16.1.16s.12,0,.12-.15,0-.17-.11-.18S82.55,66.62,82.55,66.73Zm.61-5.8A.47.47,0,0,0,83,61a.4.4,0,0,0-.06.13.34.34,0,0,0,0,.11l.11,0c.06,0,.1,0,.11,0a1.25,1.25,0,0,0,.09-.16l.08-.18Zm-.06-2.76h.08s0,0,.07,0a.61.61,0,0,0,.09-.22c0-.13.08-.23.1-.29V57.5a1.87,1.87,0,0,0-.07-.18.68.68,0,0,0-.08-.17C83.21,57.56,83.18,57.76,83.1,58.17Zm.32-2.09c-.07,0-.11,0-.1.07s.05.08.08.08.07,0,.09-.07S83.49,56.08,83.42,56.08Zm-.06.4c0,.12,0,.18.11.18s.13,0,.13-.17,0-.17-.11-.17S83.36,56.37,83.36,56.48Zm-.09,8.57-.07,0a.22.22,0,0,0,0,.08.06.06,0,0,0,0,.06.09.09,0,0,0,.13,0,.15.15,0,0,0,0-.14A0,0,0,0,0,83.27,65.05Zm0-1.7v0a.36.36,0,0,0,.07.09l.08.07.17-.15-.15-.18a.18.18,0,0,0,.17,0,.27.27,0,0,0,.14-.14.58.58,0,0,0,0-.27,1,1,0,0,0-.1-.24s0,.07-.08.13l-.1.2c0,.07-.07.14-.1.2l-.06.14a.14.14,0,0,0,0,.07A.13.13,0,0,0,83.23,63.35Zm.07-1.82.17-.15H83.3Zm.22-4.87c0,.12,0,.17.11.18s.13-.05.13-.17,0-.17-.11-.18S83.52,56.55,83.52,56.66Zm-.15,9.18c-.07,0-.09,0-.07.07s0,.08.06.08a.09.09,0,0,0,.09-.07S83.44,65.84,83.37,65.84Zm0,.67c-.06,0-.08,0-.07.08s0,.08.07.08.07,0,.09-.08S83.41,66.51,83.34,66.51ZM84,56.08l-.15.09s0,0,0,0a.43.43,0,0,1,0,0,.2.2,0,0,1,0,0s0,0,0,0l.34-.32A.42.42,0,0,0,84,56.08Zm-.49,9.51c0,.11,0,.16.11.16s.12,0,.12-.15,0-.17-.11-.18S83.5,65.48,83.49,65.59Zm0,.5c0,.11,0,.16.11.16s.11,0,.12-.15,0-.17-.11-.18S83.48,66,83.47,66.09Z"/><path class="cls-4" d="M89.5,68.81c0-.26,0-.53,0-.82s0-.56,0-.81,0-.44,0-.54,0-.29.07-.62.09-.67.14-1,.11-.72.16-1,.07-.53.08-.62l0-.4.06-.72c0-.28.05-.58.08-.89s.05-.6.08-.87,0-.53.06-.74,0-.34,0-.4a3.41,3.41,0,0,1,.06-.4c0-.21.07-.44.11-.69s.08-.47.12-.69,0-.34.06-.39a1.58,1.58,0,0,1,0-.23c0-.1,0-.22,0-.35s0-.24,0-.36,0-.19,0-.23l.19-.16.21,0,.31,0h.18l.26,0,.22,0h.13l.39.07.59.11.59.12a2.58,2.58,0,0,1,.39.09.24.24,0,0,1,.08.09.37.37,0,0,1,.07.1.71.71,0,0,1,0,.12l0,.19a1.8,1.8,0,0,0,0,.22.57.57,0,0,0,0,.16.62.62,0,0,0,0,.16.3.3,0,0,0,0,.16s0,.13,0,.26v.4c0,.14,0,.28,0,.41a2.19,2.19,0,0,0,0,.29.62.62,0,0,0,0,.18c0,.1,0,.21,0,.33s0,.22,0,.32a1.92,1.92,0,0,1,0,.2,1.35,1.35,0,0,0,0,.21v.37c0,.14,0,.27,0,.38a1,1,0,0,0,0,.22,1.32,1.32,0,0,0,0,.18c0,.09.05.16.07.17s0,0,.07,0h.08a.66.66,0,0,0,.2-.14l.16-.15s0-.07,0-.17,0-.15,0-.17a.62.62,0,0,1,0-.11l.08-.2a1.8,1.8,0,0,0,.08-.21.34.34,0,0,0,0-.13.1.1,0,0,0,0-.07V60a.58.58,0,0,1,0-.13c0-.06,0-.13.08-.2a1.19,1.19,0,0,1,.08-.2.79.79,0,0,0,0-.12,1.62,1.62,0,0,1,.06-.19c0-.09.06-.2.09-.31s.06-.22.09-.31a.69.69,0,0,0,.06-.18l.1-.31.17-.5c.06-.17.11-.34.16-.49l.11-.31.09-.09a.28.28,0,0,1,.1-.06l.2,0,.31,0h.5l.42.06.65.08.64.08.42.06c-.85,5.34-1.27,8-2.12,13.34l-.07.06-.09.08-.18.07a.4.4,0,0,1-.15,0l-1.62-.24s0-.07,0-.21,0-.23,0-.31l0-.23,0-.26c0-.06,0-.19.08-.4s.1-.43.15-.68.1-.47.15-.68.07-.34.08-.39l0-.25c0-.15,0-.3.08-.47s0-.34.08-.51l0-.38,0-.28c0-.12,0-.23,0-.34s0-.2,0-.28l0-.16c-.06-.08-.08-.12-.14-.19a.78.78,0,0,0-.19.13.57.57,0,0,0-.16.17,1.23,1.23,0,0,0-.06.17,2.26,2.26,0,0,0-.1.31c0,.11-.06.22-.08.31a1.37,1.37,0,0,0,0,.18l-.1.16a1,1,0,0,0-.1.16s0,.1,0,.21-.07.23-.1.36-.07.25-.1.36a1,1,0,0,1-.07.21.49.49,0,0,1,0,.12c0,.06,0,.13-.08.2s-.06.15-.08.22a.62.62,0,0,0,0,.11l0,.12,0,.22,0,.22v.11l-.1.32-.16.49c0,.17-.11.34-.16.49l-.11.32s0,0-.07.09-.08.06-.1.06L94,70l-.25,0-.26,0-.19,0s-.06,0-.13-.09L93,69.7,93,69.61a.28.28,0,0,1,0-.08.9.9,0,0,1,0-.13c0-.06,0-.13,0-.21l0-.2a.72.72,0,0,1,0-.15c0-.13,0-.39,0-.76s0-.78,0-1.21,0-.86,0-1.25v-.94l0-.15v-.25a.67.67,0,0,0-.05-.19.6.6,0,0,0-.07-.17s0,0-.06,0l-.09,0h-.09s-.06,0-.06,0,0,0-.06.08l-.06.14a.47.47,0,0,0-.06.15.36.36,0,0,0,0,.11c-.23,2.16-.35,3.24-.58,5.4l-.27,0-.4,0-.4-.06-.26,0-.18,0-.26-.08-.27-.08a1.13,1.13,0,0,1-.16-.06C89.49,69.24,89.49,69.06,89.5,68.81Zm1.53-4c0,.1,0,.16.1.17s.11,0,.13-.15,0-.17-.1-.18S91,64.64,91,64.76Zm1.06-7.51c0,.11,0,.17.1.18s.13,0,.14-.16,0-.17-.1-.18S92.1,57.13,92.09,57.25Zm.47.65c-.07,0-.1,0-.09.06s0,.09.07.09.06,0,.08-.07S92.63,57.9,92.56,57.9Zm2,3.86c0,.1,0,.16.1.17s.12,0,.14-.14,0-.18-.1-.19S94.53,61.64,94.51,61.76Zm-.19,4c0,.11,0,.16.09.17s.12,0,.13-.14,0-.17-.09-.18S94.33,65.69,94.32,65.8Zm.49-.28c0,.11,0,.18.1.19s.12,0,.13-.16,0-.18-.09-.18S94.83,65.41,94.81,65.52Zm.54-1.62c0,.1,0,.16.09.17s.12,0,.14-.14,0-.17-.1-.18S95.36,63.79,95.35,63.9Zm.52-1.63c0,.11,0,.17.1.18s.12,0,.14-.15,0-.18-.1-.19S95.89,62.15,95.87,62.27Zm.61-2.4a.43.43,0,0,0-.17.08.35.35,0,0,0,0,.17v.08a.32.32,0,0,0,0,.08l.4-.45A.41.41,0,0,0,96.48,59.87Zm-.08-.24c0,.11,0,.16.09.18s.13,0,.14-.14,0-.18-.09-.19S96.41,59.52,96.4,59.63Zm-.12.83c0,.11,0,.17.1.18s.12,0,.14-.15,0-.18-.09-.19S96.3,60.34,96.28,60.46Zm-.2,1.5c0,.1,0,.16.1.17s.12,0,.13-.14,0-.17-.09-.18S96.09,61.85,96.08,62Zm.69-3A.66.66,0,0,0,97,59a.87.87,0,0,0,.25-.06s0,0,.08-.08l0-.08-.57-.08Zm-.06.9a.22.22,0,0,0,0,.11.25.25,0,0,0,0,.12.1.1,0,0,0,.08.07c.08,0,.13,0,.14-.15s0-.18-.09-.19A.1.1,0,0,0,96.71,59.89Zm-.07.5a.37.37,0,0,0,0,.11.25.25,0,0,0,0,.12.1.1,0,0,0,.08.07c.08,0,.13,0,.14-.16s0-.17-.09-.19A.11.11,0,0,0,96.64,60.39Zm-.18,1.33a.22.22,0,0,0,0,.11.25.25,0,0,0,0,.12.11.11,0,0,0,.08.07q.12,0,.15-.15c0-.12,0-.18-.1-.19A.08.08,0,0,0,96.46,61.72Zm0,.8c0,.12,0,.18.09.19s.13,0,.14-.16,0-.17-.09-.18S96.49,62.41,96.48,62.52Zm.29-1.74c0,.07,0,.09.06.08a.08.08,0,0,0,.09-.06.11.11,0,0,0-.07-.09S96.78,60.7,96.77,60.78Zm.22-.73c0,.11,0,.17.09.19s.13,0,.15-.16,0-.17-.1-.19S97,59.93,97,60.05Zm-.19,1.33c0,.1,0,.16.1.17s.12,0,.14-.14,0-.17-.1-.18S96.82,61.27,96.8,61.38Zm.09.52c0,.11,0,.18.1.19a.09.09,0,0,0,.09-.05.35.35,0,0,0,0-.11.24.24,0,0,0,0-.12.07.07,0,0,0-.07-.06Q96.92,61.74,96.89,61.9ZM98,57.56a.24.24,0,0,0-.09.08l0,.09c0,.05,0,.11,0,.16a.77.77,0,0,1,0,.15c0,.06,0,.09,0,.09a.52.52,0,0,1-.17.09.65.65,0,0,1-.18,0l.8.12-.07-.09a.25.25,0,0,1-.05-.11.49.49,0,0,1,0-.13,1.25,1.25,0,0,1,0-.21c0-.07,0-.14,0-.21a.32.32,0,0,1,0-.14A.37.37,0,0,0,98,57.56Zm-.55,2-.09.06-.08.08.34-.11-.08,0Zm-.29,1,.31.05-.26-.37Zm.55-3.44a.31.31,0,0,0,0,.24s0,.06.08.06.13,0,.15-.15,0-.18-.1-.19A.13.13,0,0,0,97.75,57.14Zm-.31,2c0,.1,0,.16.1.17s.13,0,.14-.14,0-.17-.09-.18S97.46,59,97.44,59.1Zm.24-.49c0,.12,0,.18.1.19s.13,0,.14-.15,0-.18-.09-.19S97.7,58.5,97.68,58.61Zm-.21,1.51q0,.16.09.18c.08,0,.13,0,.14-.15s0-.18-.09-.19S97.48,60,97.47,60.12Zm-.89,6.15c0,.11,0,.17.09.19s.12,0,.13-.16,0-.17-.08-.19S96.59,66.15,96.58,66.27ZM97.8,59c0,.1,0,.16.1.17s.12,0,.14-.14,0-.17-.1-.19S97.81,58.86,97.8,59Zm.69.61-.3,0a.52.52,0,0,0-.21.06s-.07.07-.11.17a1.34,1.34,0,0,0-.08.19h.15a.4.4,0,0,0,.15,0L98.2,60a1.09,1.09,0,0,0,.17-.13l.17-.13.11-.09h-.16Zm-1.13,4.85c-.07,0-.09,0-.09.06s0,.08.06.09.07,0,.09-.07S97.42,64.45,97.36,64.44Zm1-6.53a.22.22,0,0,0,0,.11.25.25,0,0,0,0,.12.1.1,0,0,0,.08.07c.08,0,.13,0,.14-.16s0-.17-.09-.19A.1.1,0,0,0,98.31,57.91Zm-.08,2c0,.1-.07.14-.14.13S98,60,98,59.86s.06-.16.14-.15S98.24,59.78,98.23,59.9Zm.06-.6c-.07,0-.11,0-.11.07a.11.11,0,0,0,.07.09s.07,0,.1-.07S98.36,59.31,98.29,59.3Zm.19-1.58c0,.1,0,.16.09.17s.13,0,.15-.14,0-.17-.1-.19S98.49,57.6,98.48,57.72Zm-.09.92c0,.07,0,.1.06.09s.08,0,.09-.07a.1.1,0,0,0-.07-.1S98.4,58.56,98.39,58.64Zm-.25,3.27L98,62l-.09.08.35-.12h-.16Zm.19-1.76c0,.07,0,.11.06.1s.08,0,.08-.06,0-.08-.06-.11S98.34,60.08,98.33,60.15Zm0,1.2q-.1,0-.09.06c0,.05,0,.09.06.09a.1.1,0,0,0,.1-.06S98.36,61.36,98.3,61.35Zm-.47,2.56.16,0,0-.17Zm1-6.48c0,.11,0,.17.1.18a.07.07,0,0,0,.09,0,.36.36,0,0,0,0-.11.25.25,0,0,0,0-.12.08.08,0,0,0-.07-.07C98.93,57.26,98.88,57.31,98.86,57.43Zm.17.34a.15.15,0,0,0-.09,0l0,.07s0,0,0,.06a.11.11,0,0,0,.13,0,.12.12,0,0,0,0-.13S99.06,57.76,99,57.77Zm-.58,3.17.17-.15-.15,0Zm-.59,4.21a.25.25,0,0,0,0,.12.17.17,0,0,0,0,.12.09.09,0,0,0,.07.06q.12,0,.15-.15c0-.11,0-.18-.09-.19A.13.13,0,0,0,97.86,65.15Zm1.07-6.35.33.05-.3-.22Zm.15-.66c0,.11,0,.18.09.19s.13,0,.15-.15,0-.18-.1-.19S99.09,58,99.08,58.14Zm-.36,2.34c0,.1,0,.16.09.17s.13,0,.14-.14,0-.17-.09-.19S98.73,60.36,98.72,60.48Zm-.08.49c0,.11,0,.16.09.18s.13,0,.15-.14,0-.18-.1-.19S98.66,60.86,98.64,61Zm0,.33c0,.11,0,.17.09.19s.13,0,.15-.16,0-.17-.1-.18S98.61,61.18,98.59,61.3ZM98,65c0,.11,0,.16.09.18s.13,0,.14-.14,0-.18-.08-.19S98,64.85,98,65Zm1.39-7.1.17,0,0-.34Z"/><path class="cls-4" d="M99.16,70.3c0-.09,0-.15,0-.17s0-.11,0-.2a.33.33,0,0,1,0-.13.33.33,0,0,1,.07-.14l.15-.24.14-.24.07-.15s0-.08,0-.18a.47.47,0,0,1,0-.19.54.54,0,0,1,.08-.15,1,1,0,0,1,.11-.15l.17,0a.44.44,0,0,0,.17-.06s0,0,0-.09a.23.23,0,0,1,0-.09l-.25,0c0-.1,0-.27,0-.51s0-.49.08-.75.07-.52.1-.76,0-.4.07-.49,0-.23.09-.47.1-.52.17-.84.14-.65.21-1,.14-.69.21-1,.13-.59.17-.83.08-.38.09-.46,0-.06,0-.15,0-.19.06-.31l.06-.34,0-.27,0-.22.06-.32c0-.13,0-.24,0-.34a1.69,1.69,0,0,1,0-.21s0,0-.08-.08a.31.31,0,0,1,0-.11.79.79,0,0,1,.11-.15.58.58,0,0,0,.1-.15l0-.09,0-.16,0-.15,0-.09.12-.19c0-.08.08-.12.1-.12l.28,0c.89.16,1.76.35,2.62.58s1.72.44,2.61.63l0,.09s0,.06,0,.07a.61.61,0,0,1,0,.15c0,.07-.06.15-.1.23l-.1.24a1.65,1.65,0,0,1-.07.16c0,.06-.06.14-.12.25l-.13.26a.57.57,0,0,0-.06.12l-.13.06-.2.07-.22,0-.16,0-.14-.1a.52.52,0,0,1-.15-.14,1.34,1.34,0,0,1,0-.18,1.26,1.26,0,0,0,0-.19l-.15-.11-.15-.11s0,0,0-.08a.19.19,0,0,1,0-.09s-.1,0-.19,0a.2.2,0,0,0-.16.11.41.41,0,0,0,0,.27.63.63,0,0,0,.07.25l-.26,0-.25,0-.2,0-.23.06-.27.09-.55,2.81a.46.46,0,0,1,.1.1,1.4,1.4,0,0,1,.12.18,1.62,1.62,0,0,1,.1.18.51.51,0,0,1,.05.12.26.26,0,0,1,0,.13,1,1,0,0,1-.08.19l-.09.19,0,.13.44.09-.13-.2.09-.06.17-.07.16-.07.11,0,.16,0h.65l-.27-.23.93.19-.44,2-.18,0-.27-.07-.28-.08-.17,0s-.08,0-.19-.12l-.24-.15-.15-.13-.12-.1s0,0,0-.09,0-.1,0-.16,0-.12,0-.17a.16.16,0,0,0,0-.1s-.06,0-.14,0-.14.06-.16.05,0,0,0,0,0,0,0,0a.2.2,0,0,0,0,.09.24.24,0,0,1,.06.11s0,0,0,0v.09s0,0,0,0a.19.19,0,0,1-.08.08l-.1.06a.34.34,0,0,1-.17,0,.6.6,0,0,0-.18.06.73.73,0,0,0-.11.14.44.44,0,0,0-.09.15c0,.09-.07.26-.13.49s-.12.48-.19.74-.14.5-.19.73l-.12.49s0,.09,0,.22l-.06.27s0,.16,0,.34a1.65,1.65,0,0,0,.11.2,1.73,1.73,0,0,0,.12.19s0,0,0,0a.17.17,0,0,0,0,.05l.77.15a.2.2,0,0,0,.13.11l.15,0,.09,0s0,0,0,0,.06,0,.13,0l.2-.07.21-.07.12,0h.32l.18,0h.11l-.36,1.72s0,0-.13.07l-.19,0-.32-.07-.42-.09-.46-.11-.69-.17-.82-.18-.81-.19-.69-.16-.46-.1A.9.9,0,0,0,99.16,70.3Zm1-3.92c0,.12,0,.18.08.19s.13,0,.15-.15,0-.18-.09-.19S100.21,66.27,100.19,66.38Zm-.06.34q0,.15.09.18c.07,0,.12,0,.14-.14s0-.18-.09-.19S100.15,66.61,100.13,66.72Zm-.1,2.37c0,.1,0,.16.09.17s.12,0,.14-.13,0-.18-.09-.19S100.05,69,100,69.09Zm.49-1.55a1.82,1.82,0,0,0-.07.25,1.3,1.3,0,0,0,0,.26c0,.08,0,.1,0,.08a.26.26,0,0,0,.08-.11,1.17,1.17,0,0,0,0-.2,1.5,1.5,0,0,0,0-.2.28.28,0,0,0,0-.15S100.54,67.47,100.52,67.54Zm-.35,1.83q0,.1.06.09s.07,0,.08-.07a.09.09,0,0,0,0-.1S100.18,69.3,100.17,69.37Zm.57-2.45s.06.08.08.08l.09-.49a1.2,1.2,0,0,0-.12.14.29.29,0,0,0-.09.16A.14.14,0,0,0,100.74,66.92Zm-.39,2c0,.11,0,.18.09.19s.12,0,.14-.15,0-.18-.08-.19S100.37,68.86,100.35,69Zm1.48-7.59.19-.14-.16,0Zm-1.45,8.45a.72.72,0,0,0,.06.17s0,0,0,.06,0,0,0,0,0-.09.08-.2.09-.17.12-.18l.11,0,.22-.07.21-.06.12-.06v-.29a1.64,1.64,0,0,0,0-.22,1.36,1.36,0,0,1,0-.18.64.64,0,0,0-.06-.1.3.3,0,0,0-.07-.08s0,0-.08,0l-.08,0a.54.54,0,0,1,0,.11.55.55,0,0,1,0,.09,2.65,2.65,0,0,1,0,.27,2.65,2.65,0,0,0,0,.27.78.78,0,0,0-.24,0,.89.89,0,0,0-.23,0l-.12.15a.28.28,0,0,0-.06.34Zm.37-2.16c0,.12,0,.18.08.19s.12,0,.14-.15,0-.17-.08-.19S100.77,67.56,100.75,67.67Zm.47-1.41a.34.34,0,0,0,0,.12.76.76,0,0,0,0,.14s0,0,0,0a.16.16,0,0,0,.1-.15c0-.09,0-.15,0-.19S101.24,66.22,101.22,66.26Zm0,.48c0,.1,0,.16.08.17s.13,0,.15-.13,0-.17-.09-.19S101.24,66.63,101.22,66.74Zm1.34-6.25a.44.44,0,0,0,.06.17s0,0,0,0l0,0s.07,0,.09,0,0-.08,0-.17l-.06-.18s0,0,0,0h-.13A.65.65,0,0,0,102.56,60.49Zm-.83,4.11.16,0,0-.17-.16,0Zm.16-.65c0,.11,0,.18.09.19s.12,0,.14-.15,0-.17-.08-.19S101.91,63.84,101.89,64Zm.58-1.17c-.07,0-.09,0-.09.07s0,.08.06.09a.11.11,0,0,0,.1-.06C102.56,62.83,102.54,62.8,102.47,62.78Zm.48-2.49c0,.07,0,.11.06.11s.08,0,.08-.06a.1.1,0,0,0,0-.11Q103,60.19,103,60.29Zm-.29,2.1q0,.15.09.18c.08,0,.13,0,.15-.14s0-.17-.09-.19S102.68,62.28,102.66,62.39Z"/><path class="cls-1" d="M52.22,67.6l.58-.09.57-.1.37,0a1.18,1.18,0,0,1,.25,0l.23,0s0,.13.07.24.07.21.11.33.08.24.12.34a1.79,1.79,0,0,0,.09.21.44.44,0,0,0,.09.15l.12.16.09.08L55,69a.35.35,0,0,0,.16,0h.38s.07,0,.08,0,.08-.06.13-.12l.15-.23.14-.24a.74.74,0,0,0,.06-.18c0-.08,0-.16,0-.22l0-.19,0-.16,0-.19-.06-.24a1.17,1.17,0,0,0,0-.2l0-.11s0-.08,0-.15a1.67,1.67,0,0,1-.08-.2l-.09-.17-.06-.11-.11-.11a1.92,1.92,0,0,0-.21-.16L55,65.89a.91.91,0,0,0-.17-.12.51.51,0,0,0-.18-.06l-.17,0-.13-.06-.21-.11L54,65.37l-.16-.08-.09-.07a.37.37,0,0,0-.1-.07l-.1,0L53.35,65,53.18,65l-.1-.06a.33.33,0,0,1-.11-.08l-.19-.18-.19-.19-.1-.11-.19-.13-.2-.13s0,0-.07-.08a1.58,1.58,0,0,0-.13-.18l-.14-.18a1.26,1.26,0,0,1-.1-.15s-.07-.1-.12-.18l-.16-.23-.14-.22a.79.79,0,0,0-.08-.13s0-.07,0-.16a.41.41,0,0,0,0-.16.25.25,0,0,0,0-.09L51,62.18,50.89,62l0-.09,0-.08v-.09c0-.06,0-.15,0-.27l0-.37c0-.13,0-.24,0-.34s0-.17,0-.2v-.14a1.48,1.48,0,0,0,0-.21,1.46,1.46,0,0,1,0-.21.42.42,0,0,1,0-.13s0-.08,0-.18,0-.16,0-.19.07-.18.12-.32A1.33,1.33,0,0,0,51,59l.15-.12a.54.54,0,0,0,.15-.12l.08-.08.13-.13a1.59,1.59,0,0,1,.13-.13l.07-.08.23-.14.22-.12.29-.06.45-.1.44-.09.29-.05.38-.07.48-.08.4-.07.21,0H56l.19,0a.6.6,0,0,1,.17.07,1.42,1.42,0,0,1,.22.14l.3.21.27.21.16.12a.76.76,0,0,1,.13.23,1.15,1.15,0,0,1,.1.26c0,.06.05.2.09.39s.07.39.12.59.08.4.11.59.06.32.07.39l-2.29.39-.08-.05-.11-.07-.12-.17c0-.08-.09-.12-.1-.14s0-.08,0-.17a.35.35,0,0,0,0-.16.44.44,0,0,0-.09-.15.64.64,0,0,0-.12-.16l-.1-.08L54.74,60h-.68l-.16,0-.12.08-.16.13a.72.72,0,0,0-.07.11l-.06.09a2,2,0,0,0,0,.27,1.44,1.44,0,0,1,0,.25l.07.34.06.33s.06.13.13.25a.8.8,0,0,0,.13.22l.19.13.19.13.11.11c.05.05.12.11.18.18l.19.19.12.1a1,1,0,0,0,.16.05.44.44,0,0,1,.17.06l.19.13.19.13a.42.42,0,0,0,.13.08l.23.12.22.12.13.06a1.71,1.71,0,0,0,.14.11l.23.17.23.19.14.09.1,0,.16.08.16.08.1,0,.08.11.12.17a1.27,1.27,0,0,1,.13.19,1.2,1.2,0,0,1,.08.15s.07.14.12.25.11.23.16.35.11.22.15.32a.46.46,0,0,1,.07.18l0,.14c0,.07,0,.16,0,.25l.06.29,0,.23,0,.19q0,.12,0,.27a2.89,2.89,0,0,1,0,.29l0,.17-.06.17c0,.1,0,.16,0,.19s0,.09,0,.19l0,.33c0,.12,0,.23,0,.33s0,.17,0,.19a.85.85,0,0,0-.09.14l-.13.23-.15.23-.11.16-.1.08-.14.13-.17.14-.12.09-.19.13-.27.15a1.38,1.38,0,0,0-.24.14l-.13.07-.15,0-.19,0a3.83,3.83,0,0,1-1.12,0L54,71.07l-.29,0-.2,0-.18-.13c-.09-.05-.18-.12-.28-.19l-.26-.2-.18-.16-.06-.07s-.05-.09-.08-.14,0-.09-.07-.14a.88.88,0,0,1,0-.1c0-.09,0-.23-.11-.44s-.11-.42-.16-.66-.11-.45-.16-.66-.08-.35-.1-.44ZM53,61.43c-.07,0-.1,0-.07.1a.11.11,0,0,0,.09.06.12.12,0,0,0,.07-.1Q53.07,61.41,53,61.43Zm.42,2.14c-.06,0-.09,0-.07.09s.06.07.09.06.06,0,.07-.09S53.45,63.55,53.38,63.57Z"/><path class="cls-1" d="M60.49,67a.13.13,0,0,1,.1,0l.12.23a1.13,1.13,0,0,1,.11.26.42.42,0,0,1,.09-.22.53.53,0,0,1,.15-.17h.09l.15,0,.15,0,.1,0s0,0,.07-.08a.41.41,0,0,0,.05-.11.73.73,0,0,0-.09-.18.42.42,0,0,0-.1-.13,1.41,1.41,0,0,0-.24,0l-.24,0v0l-.63.09a.14.14,0,0,1,0-.09v-.09l.06-.08a.58.58,0,0,0,.07-.11.72.72,0,0,0,.06-.17L60.6,66v-.07l0-.1-.28.22s0-.1,0-.21,0-.18,0-.21,0-.13,0-.24,0-.17,0-.18l.08-.09s.06-.08,0-.1a.29.29,0,0,0,0-.1.88.88,0,0,1,0-.16l0-.16a.16.16,0,0,1,0-.1l.06-.11.12-.17.12-.17.09-.11s0,0,.08,0l.09,0,0-.34h-.24a.49.49,0,0,0-.23,0l-.16.1a.63.63,0,0,0-.14.12,2.57,2.57,0,0,1,0-.27c0-.13.05-.22.06-.25l.07-.08.13-.13.14-.13.08-.07.07-.08a.37.37,0,0,0,.07-.1.64.64,0,0,1-.12.06l-.18.07-.18.07-.13,0s0,0,0,0H60l-.18-.13a1,1,0,0,1-.17-.15.45.45,0,0,1,.05-.1.25.25,0,0,1,.07-.09s0,0,.07,0,.06,0,.07,0,0,0,0-.11,0-.08,0-.09l-.11-.16-.1-.16a.72.72,0,0,1,0-.19v-.19l-.1,0-.09,0-.11-.07s-.07-.06-.07-.08a.33.33,0,0,1,0-.13c0-.08,0-.14,0-.19s0-.11,0-.2a1.13,1.13,0,0,1,0-.14s0-.05,0-.1l0-.17a.75.75,0,0,1,0-.16c0-.05,0-.08,0-.09v-.17l-.09-.09-.1-.06a.49.49,0,0,0,0-.12l0-.2c0-.08,0-.14,0-.2a.5.5,0,0,1,0-.14s0-.1,0-.17a1.5,1.5,0,0,0,0-.22,1.54,1.54,0,0,1,0-.19.44.44,0,0,1,0-.09.5.5,0,0,1,0-.15,1.29,1.29,0,0,0,.07-.21A1.41,1.41,0,0,1,59,58.2a.46.46,0,0,1,.07-.13l-.15,0,0-.17a.34.34,0,0,1,.08-.13l.18-.26c.08-.09.15-.19.23-.3a2.16,2.16,0,0,1,.2-.25,2,2,0,0,1,.24-.22l.21-.19a1.32,1.32,0,0,1,.26-.12l.38-.16.38-.14a.83.83,0,0,1,.25-.08,1.86,1.86,0,0,1,.28,0l.23,0L62,56l.19,0,.26,0,.21,0h.24l.2,0,.21,0,.14,0,.21.07.31.12.32.12.21.09.17.09.22.14.21.13.11.07a.37.37,0,0,1,0,.1c0,.06,0,.12.07.19l.06.21a.82.82,0,0,1,.06.16c0,.08,0,.23.09.41s.07.38.11.57.06.38.09.54,0,.26,0,.3a1.55,1.55,0,0,1,0,.23c0,.1,0,.19,0,.29s0,.17,0,.24a.19.19,0,0,1,0,.1c-.83.08-1.24.12-2.07.22,0,0,0,0-.05-.08a1.62,1.62,0,0,1-.06-.17,1.72,1.72,0,0,1-.07-.21l-.06-.19,0-.11,0-.22,0-.22V59a.48.48,0,0,0,0-.12c0-.06-.05-.13-.07-.21l-.09-.2a.31.31,0,0,1,0-.12,1.57,1.57,0,0,1,0-.26,1.23,1.23,0,0,0,0-.24L61.92,58c-.15.42-.22.63-.36,1,.21,1.61.31,2.41.52,4a1.26,1.26,0,0,0-.07.17.41.41,0,0,0,0,.18s0,.06.07.1l.11.05.15,1.16.09.07a.24.24,0,0,1,.09.08V65l0,.21,0,.22v.11c0,.05,0,.18.08.39s.08.44.13.69.1.47.14.68.06.37.07.4,0,0,0,.12L63,68l0,.14c0,.06,0,.08,0,.08a.23.23,0,0,1,0,.1.25.25,0,0,1-.07.09.23.23,0,0,0,.07.08l.09.08.08,0h.07l.13-.19a1.46,1.46,0,0,1,.14-.19l.06,0h.08a.25.25,0,0,1,.09.08s.07.07.08.07l.11,0,.17-.06.17-.08.13-.06.13-.19a.5.5,0,0,1,.14-.1l.14-.09a.92.92,0,0,1-.24,0,.59.59,0,0,1-.23-.09l0-.14,0-.2s0-.15,0-.34,0-.38,0-.59,0-.4,0-.58a2.57,2.57,0,0,0,0-.34c0-.05,0-.12,0-.21l0-.32a2,2,0,0,1,0-.32c0-.1,0-.17,0-.22h.22l.22,0,.17.06.16.06s0,0,.06,0h.17s.07,0,.07,0l.15-.1a.44.44,0,0,1,.15-.09l.16,0,.24,0,.24,0,.16,0s0,.07,0,.15a1.7,1.7,0,0,0,0,.22v.22c0,.07,0,.12,0,.15a.58.58,0,0,1,0,.1,1.24,1.24,0,0,1,0,.16l0,.16a.44.44,0,0,0,0,.09s0,0,.08.07a.28.28,0,0,1,.08.09.58.58,0,0,1,0,.19.51.51,0,0,1-.07.15l-.12,0H65.7a.24.24,0,0,0-.08.09.47.47,0,0,1-.06.1l-.15.1-.15.11-.07.08a.2.2,0,0,0,0,.09.17.17,0,0,0,0,.11.49.49,0,0,1,0,.12.33.33,0,0,0,.13-.06c.07,0,.12,0,.13,0a.22.22,0,0,1,.1.07.29.29,0,0,1,.08.08.84.84,0,0,1,.12-.19.91.91,0,0,1,.14-.18h0l0,0H66a.51.51,0,0,1,.1.17.61.61,0,0,0,.09.16l.08.09.1.07s0,0,.08,0h.09v.07a.08.08,0,0,1,0,.06c0,.08,0,.19,0,.32s0,.25-.06.38a2.75,2.75,0,0,1,0,.34c0,.1,0,.16,0,.17l-.08.11-.14.21-.18.24a1,1,0,0,1-.13.17.73.73,0,0,1-.14.1l-.15.09-.2.07-.31.09-.31.08-.2.05h-.09l-.19,0-.21,0-.17,0-.18,0-.2,0-.2,0H62l-.1,0-.18-.07-.2-.07-.16-.07a.5.5,0,0,1-.21-.2,2.36,2.36,0,0,1-.15-.25s-.07-.14-.13-.27a1.86,1.86,0,0,0-.1-.22v-.09l0-.16,0-.15v-.1a.25.25,0,0,0,0-.09.61.61,0,0,0-.07-.14,1.09,1.09,0,0,0-.08-.15s0-.08,0-.09,0-.09,0-.21,0-.18,0-.2S60.44,67,60.49,67Zm-.56-5q0,.11.09.06s.07,0,.06-.08a.12.12,0,0,0-.09-.09S59.92,61.88,59.93,62Zm.1-2.56-.13.17-.13.17a.57.57,0,0,0-.07.12s0,0,0,0v0s0,0,0,0,0,0,0,0l.09-.1.13-.18.11-.17a1.18,1.18,0,0,1,.08-.12.27.27,0,0,0,0-.09.27.27,0,0,1,0-.08Zm.63,6.79c0,.1.06.15.14.14s.11-.07.09-.18-.06-.16-.14-.15S60.65,66.06,60.66,66.18ZM60.91,61l-.07.1c0,.05-.05.14-.09.28s-.09.27-.14.43-.09.29-.13.43a2.83,2.83,0,0,0-.08.28v.22l.1,0a.21.21,0,0,0,.08,0l.08-.09.06-.1a.44.44,0,0,0,0-.12c0-.07,0-.14,0-.22s0-.15,0-.22a.35.35,0,0,1,0-.13s0-.08,0-.17a.44.44,0,0,1,.06-.17l.18.14h.16a.43.43,0,0,0,.08-.19.69.69,0,0,0,0-.17.86.86,0,0,0-.17-.17.44.44,0,0,0-.2-.11A.3.3,0,0,0,60.91,61Zm-.55.49-.07.06a.14.14,0,0,0,0,.09,0,0,0,0,0,0,.06.14.14,0,0,0,.13,0,.16.16,0,0,0,0-.15A0,0,0,0,0,60.36,61.44Zm1.06,6.27H61.3a.24.24,0,0,0-.12,0s0,0,0,0a.13.13,0,0,0,.16,0c.08,0,.13,0,.14-.09S61.46,67.72,61.42,67.71Zm-.55-2.24c0,.1.06.15.13.14s.11-.07.1-.17-.07-.17-.14-.16S60.85,65.35,60.87,65.47Zm-.83-7c0,.11.06.15.14.14s.12-.07.1-.17-.06-.17-.14-.15S60,58.34,60,58.45Zm.16,1.17c0,.1.07.15.14.13s.12-.06.1-.17-.06-.16-.14-.15S60.19,59.5,60.2,59.62Zm1,6.82c0,.11.07.16.14.15s.11-.07.09-.18-.06-.17-.14-.16S61.15,66.32,61.16,66.44Zm-.11-2.38a.13.13,0,0,0-.07.06l0,.08s0,0,0,0a.11.11,0,0,0,.13,0,.12.12,0,0,0,0-.14S61.08,64.05,61.05,64.06Zm.66,4.34.38-.56.17.15s0-.1,0-.21a1.8,1.8,0,0,0,0-.21,1.93,1.93,0,0,0,0-.24c0-.1,0-.16,0-.17l-.08-.09S62,67,62,67s0,.07.05.16a.32.32,0,0,1,0,.18.35.35,0,0,1,0,.1l-.11.2-.12.24a1.14,1.14,0,0,1-.09.19l-.06.08a.25.25,0,0,1-.07.09Zm-1.34-9.66a1.19,1.19,0,0,0,.1.17c.05.08.08.13.1.13a.19.19,0,0,0,.09.05h.08c0-.23-.05-.35-.08-.57l-.16,0,0-.33s0,.08-.06.18,0,.15,0,.17a.14.14,0,0,0,0,.09S60.36,58.7,60.37,58.74Zm.27,1.5.11.14s0-.08,0-.17.05-.17.07-.18.06,0,.07,0H61a.28.28,0,0,1,.1.06l.09.09-.09-.67L61,59.6l-.16.09s0,0-.08,0h-.08a1.15,1.15,0,0,0-.07.19.52.52,0,0,0,0,.17A.46.46,0,0,0,60.64,60.24Zm.27,2.17c0,.1.06.15.14.14s.11-.07.09-.17-.06-.17-.14-.16S60.89,62.3,60.91,62.41Zm.55,2.8c0,.12.06.17.13.16s.11-.08.1-.19-.07-.16-.14-.15S61.44,65.1,61.46,65.21ZM61,60.44c-.06,0-.09,0-.07.09s.05.07.08.06.07,0,.08-.09S61.08,60.43,61,60.44Zm-.39-2.59c0,.12.06.17.14.16s.12-.08.1-.19-.06-.17-.14-.16S60.6,57.74,60.62,57.85ZM61.46,64c0,.1.06.15.13.14s.11-.07.1-.17-.06-.17-.14-.16S61.44,63.91,61.46,64Zm-.65-6c0,.11.06.17.14.15a.08.08,0,0,0,.08-.06A.24.24,0,0,0,61,58a.2.2,0,0,0,0-.11.09.09,0,0,0-.09,0C60.82,57.82,60.79,57.89,60.81,58Zm.75,5.24c0,.07,0,.1.08.08s.07,0,.06-.08,0-.07-.08-.09S61.55,63.17,61.56,63.24ZM61,58.36a.23.23,0,0,0,0,.12.37.37,0,0,0,0,.11.1.1,0,0,0,.1,0c.08,0,.11-.07.1-.19s-.07-.16-.15-.15A.08.08,0,0,0,61,58.36ZM62,66c0,.1,0,.15.13.14s.11-.07.09-.17-.06-.17-.13-.16S62,65.87,62,66Zm-.7-5.6c0,.08,0,.1.08.07s.07-.05.06-.08a.09.09,0,0,0-.08-.09S61.32,60.32,61.33,60.39Zm.06-.43c0,.11.06.17.14.16s.11-.08.1-.19-.07-.17-.14-.16S61.37,59.85,61.39,60Zm1-2.42c-.07,0-.1,0-.08.09a.1.1,0,0,0,.1.06s.06,0,.06-.08S62.51,57.53,62.44,57.54Zm.46-.1a.31.31,0,0,0,0,.24.13.13,0,0,0,.1,0c.08,0,.11-.07.1-.18s-.06-.17-.14-.16A.1.1,0,0,0,62.9,57.44Zm.32.08c0,.12.06.17.14.16s.12-.07.1-.18-.06-.17-.14-.16S63.21,57.41,63.22,57.52Zm1,7.34c0,.12.06.17.13.16a.08.08,0,0,0,.08-.06.24.24,0,0,0,0-.12.27.27,0,0,0,0-.12.08.08,0,0,0-.09,0Q64.22,64.69,64.23,64.86Zm.23.54a.23.23,0,0,0,0,.12.21.21,0,0,0,0,.11.08.08,0,0,0,.09,0c.08,0,.11-.07.1-.18s-.06-.17-.14-.16A.11.11,0,0,0,64.46,65.4Zm.17-.42.19,0,.18,0h.12a.57.57,0,0,1,.19.12.76.76,0,0,1,.16.17v-.17a.62.62,0,0,1,0-.16.73.73,0,0,0-.09-.09s-.07-.06-.09-.06H65l-.13,0-.1,0-.15.09a.8.8,0,0,0-.14.11Zm.57,1.79s0,0,0,0,0,.06-.06.15l-.06.19s0,.05,0,.1l0,.17,0,.17,0,.09s0,.08,0,.17a.58.58,0,0,1-.07.18h.09L65,68l.06-.09.07-.1h.16l.13-.1c.08-.06.12-.09.14-.09a.9.9,0,0,1,.22-.06l.22-.05,0-.33a.72.72,0,0,1-.23,0l-.23-.06s-.05,0-.1-.14a.76.76,0,0,0-.09-.17H65.2ZM65.09,66a.45.45,0,0,0,.07-.09l0-.1a1.08,1.08,0,0,0,0-.16v-.17l-.2,0Zm-.79-7.81a.25.25,0,0,0,0,.12.21.21,0,0,0,0,.11.1.1,0,0,0,.1,0c.08,0,.11-.07.1-.18s-.06-.17-.14-.16A.1.1,0,0,0,64.3,58.14Zm1.56,10.43c0,.12.06.17.13.16a.07.07,0,0,0,.07-.06.25.25,0,0,0,0-.12.2.2,0,0,0,0-.11.08.08,0,0,0-.08,0C65.88,68.4,65.85,68.46,65.86,68.57Zm0-3.59-.11,0a.6.6,0,0,0-.07.17.63.63,0,0,0,0,.19l.15-.1a.67.67,0,0,0,.14-.11.3.3,0,0,0,0-.11v-.13Z"/><path class="cls-1" d="M67.89,68.69a1.14,1.14,0,0,1,0-.15,2.48,2.48,0,0,0,0-.27A2.13,2.13,0,0,1,68,68a.69.69,0,0,0,0-.16s0-.13,0-.24l0-.32a2.66,2.66,0,0,1,0-.3,1.14,1.14,0,0,0,0-.15,2.29,2.29,0,0,1,0-.32c0-.16,0-.34,0-.53v-.54a2.94,2.94,0,0,1,0-.31s0-.12,0-.23,0-.23,0-.35,0-.25,0-.36,0-.19,0-.24,0-.08,0-.16l0-.27q0-.15,0-.27a.49.49,0,0,0,0-.16,2.75,2.75,0,0,0,0-.39c0-.2,0-.44,0-.7s0-.56,0-.86,0-.58,0-.85,0-.5,0-.7,0-.33,0-.39,0-.16,0-.34,0-.38.06-.6,0-.41.06-.59,0-.3,0-.34,0,0,0-.09,0-.07,0-.08,0-.18,0-.3l0-.38a3.28,3.28,0,0,1,0-.34,1.26,1.26,0,0,1,0-.16.26.26,0,0,1,.07-.1.24.24,0,0,1,.08-.09,3.26,3.26,0,0,1,.46-.07l.69-.09.69-.09.47-.07h.26l.23,0,.17,0,.22,0,.18,0,.1,0c0,.12.06.21.08.27l.06.22c0,.08,0,.14.06.18a1.62,1.62,0,0,0,0,.21c0,.12,0,.24.07.37s0,.25.07.36a1.94,1.94,0,0,1,0,.22c0,.09,0,.22.08.41s.08.4.13.61.1.41.13.6.06.32.08.39,0,.1,0,.19l0,.26.06.24a.39.39,0,0,0,0,.14.43.43,0,0,0,0,.1.88.88,0,0,0,0,.15.44.44,0,0,1,.06.16l0,.09s0,.1,0,.22,0,.23.07.37,0,.26.07.37a1.69,1.69,0,0,0,0,.21s0,.06,0,.12a1.33,1.33,0,0,1,.05.19l.06.21.05.14.09.26.09.25v1s0,.07,0,.14a1.08,1.08,0,0,1,0,.21l.06.21a.62.62,0,0,1,0,.11,1.24,1.24,0,0,1,0,.19,1.14,1.14,0,0,0,.06.25c0,.09,0,.18,0,.25a.9.9,0,0,1,0,.15v.17a.94.94,0,0,0,0,.16l.06.26c0,.1,0,.18.06.26a.9.9,0,0,1,0,.15v.67a.4.4,0,0,0,.06.13l.1.21a2,2,0,0,1,.1.21.4.4,0,0,1,.06.11.61.61,0,0,1,0,.19c0,.11,0,.18,0,.24v.21a.73.73,0,0,1,0,.21.4.4,0,0,1-.13.1.36.36,0,0,1-.15.08h-.18l-.25,0h-.68l-.32,0-.31,0-.2,0a.93.93,0,0,1-.1-.16c0-.09-.07-.15-.07-.16s0-.14,0-.28,0-.31-.07-.48,0-.33-.07-.48a1.82,1.82,0,0,1,0-.27,1.13,1.13,0,0,0-.08-.19.69.69,0,0,0-.09-.15l-.09,0-.17,0-.2,0-.16,0h-.15l-.11,0-.2,0-.2,0-.11,0s-.06,0-.13.08l-.15.11-.09.09a.21.21,0,0,0-.06.08.32.32,0,0,1,0,.13l0,.24,0,.27c0,.09,0,.16,0,.21v.18s0,.12,0,.2l0,.26a2,2,0,0,1,0,.25.61.61,0,0,1,0,.14,1,1,0,0,1,0,.17A.57.57,0,0,1,70,69l-.18.06-.26.07-.27.07-.18,0-.17,0-.21,0h-.36a.42.42,0,0,1-.14-.06l-.16-.09L68,69.1s-.07-.06-.07-.08v-.14Zm1-8.54a.18.18,0,0,0-.07.05.2.2,0,0,0,0,.08s0,.06,0,.06a.1.1,0,0,0,.13,0,.14.14,0,0,0,0-.14S68.87,60.14,68.84,60.15Zm0-2.52c.05-.2.08-.3.13-.51h-.17ZM69.33,61c0,.11,0,.17.13.16a.08.08,0,0,0,.08-.06.49.49,0,0,0,0-.12.2.2,0,0,0,0-.11s0-.06-.08-.05S69.32,60.86,69.33,61Zm1.12,3.29a.66.66,0,0,0,.15.18.79.79,0,0,0,.18.15,1.35,1.35,0,0,0,.29,0l.19,0,.14,0a.3.3,0,0,0,.07-.08l.08-.1a.78.78,0,0,0,.06-.25,1.74,1.74,0,0,0,0-.26.26.26,0,0,1,0-.07v-.08s0-.06,0-.11l0-.08a1,1,0,0,0,0-.22c0-.11,0-.23-.07-.36l-.06-.37c0-.11,0-.18,0-.22a2.6,2.6,0,0,1-.05-.28c0-.14,0-.3-.08-.47s0-.33-.08-.47,0-.24,0-.28,0-.08,0-.16a2,2,0,0,1-.07-.26,2,2,0,0,0-.07-.26A1.12,1.12,0,0,0,71,60v-.15a1.14,1.14,0,0,1,.14-.27c.07-.14.13-.23.15-.27H71.1a1.46,1.46,0,0,0-.16.17l-.15.19a.25.25,0,0,0,0-.08.34.34,0,0,1,0-.09v-.17l.16-.17.15-.18a.34.34,0,0,0,0-.17.55.55,0,0,1,0-.17s0,0,.07-.08l.09-.09v-.15c0-.1,0-.17,0-.22a2.63,2.63,0,0,0,0-.3l-.09,0-.16,0-.17,0-.09,0a.83.83,0,0,1-.12-.24.55.55,0,0,1-.06-.25l-.45.86a.89.89,0,0,0,0-.24,2.07,2.07,0,0,0,0-.26s0,0-.08-.08-.08-.07-.08-.09l0-.07,0-.08-.6,0a.58.58,0,0,0,.06.26.88.88,0,0,0,.12.23s.08,0,.17-.07a.54.54,0,0,1,.17-.09v.15a.32.32,0,0,0,0,.16l.09.18a.4.4,0,0,0,.09.14,1.05,1.05,0,0,0,.24.08,1,1,0,0,0,.26.06l-.09.11a1,1,0,0,1-.13.17l-.14.16-.09.09s0,0-.08,0h-.09s-.08.12-.15.25-.12.23-.14.27a.46.46,0,0,1,.22-.13.56.56,0,0,1,.26-.06l.1.07.16.14a.67.67,0,0,1,.15.14.77.77,0,0,1,.1.12v.22a8.34,8.34,0,0,1,0,1c0,.34,0,.68,0,1s0,.68,0,1,0,.68,0,1Zm-.61,1.45a.25.25,0,0,0,0,.12.21.21,0,0,0,0,.11A.08.08,0,0,0,70,66c.07,0,.11-.06.1-.18s0-.17-.13-.16A.09.09,0,0,0,69.84,65.72Zm-.3-4.51c0,.08,0,.11.08.09s.07,0,.07-.08a.12.12,0,0,0-.08-.09S69.53,61.14,69.54,61.21Zm0-1.33s.08.07.1.07l.24-.09a1.16,1.16,0,0,0,.22-.12l-.23-.08a1.18,1.18,0,0,0-.26-.06.25.25,0,0,0-.09.08.24.24,0,0,0-.06.11S69.54,59.84,69.59,59.88Zm0-2.46c0,.11,0,.16-.11.17s-.13-.05-.13-.15,0-.17.1-.18S69.63,57.31,69.64,57.42Zm-.16,1.19c0,.11,0,.16.13.15s.11-.06.11-.16,0-.17-.14-.17S69.47,58.5,69.48,58.61Zm.12,1.85c0,.11.06.16.13.16s.12-.07.11-.18,0-.17-.13-.17S69.6,60.34,69.6,60.46Zm.52,5.19c0,.11,0,.16.13.16s.11-.07.1-.18,0-.17-.13-.16S70.11,65.53,70.12,65.65Zm.17.16c0,.11,0,.17.12.16a.08.08,0,0,0,.08-.06.49.49,0,0,0,0-.12.2.2,0,0,0,0-.11s0-.05-.08-.05S70.28,65.69,70.29,65.81Zm.11-6.58c0,.1,0,.15-.11.16s-.12,0-.12-.15,0-.17.1-.18S70.4,59.11,70.4,59.23Zm0-.35h-.17l.16-.18ZM70.74,65c0,.08,0,.1.07.08s.07,0,.07-.08a.09.09,0,0,0-.08-.09S70.73,65,70.74,65Zm.12-6.17c0,.12,0,.18-.11.18a.09.09,0,0,1-.09-.05.21.21,0,0,1,0-.11.5.5,0,0,1,0-.12.1.1,0,0,1,.09-.06C70.81,58.68,70.85,58.74,70.86,58.85Zm-.08-.57s0,.06-.07.08-.07,0-.08-.07,0-.11.07-.1A.09.09,0,0,1,70.78,58.28Zm.26-.79c0,.12,0,.17.13.17a.08.08,0,0,0,.08-.06.5.5,0,0,0,0-.12l0-.12a.11.11,0,0,0-.09,0C71.07,57.32,71,57.38,71,57.49Zm.44-.85c0,.1,0,.15.13.15s.12-.06.11-.16,0-.17-.13-.17S71.47,56.52,71.48,56.64Zm.14,1.75c0,.07,0,.1.08.09a.11.11,0,0,0,.07-.09s0-.07-.08-.09S71.61,58.31,71.62,58.39Zm.23,2.1q0,.16.12.15c.08,0,.12-.06.11-.16s0-.17-.12-.17S71.84,60.38,71.85,60.49Zm-.11-2.94c0,.07,0,.1.08.07s.07,0,.07-.08a.09.09,0,0,0-.08-.09S71.74,57.48,71.74,57.55ZM72,60a.25.25,0,0,0,0,.12.27.27,0,0,0,0,.12.11.11,0,0,0,.09.05c.08,0,.12-.07.11-.18s0-.17-.12-.17A.1.1,0,0,0,72,60Zm1.1,7.32q0,.16.12.15c.08,0,.11,0,.11-.16s0-.17-.12-.16S73.1,67.23,73.1,67.34Z"/><path class="cls-1" d="M80.72,68.4c0-.14-.08-.29-.13-.45s-.09-.32-.13-.47-.06-.25-.07-.3,0-.11-.06-.25-.06-.28-.1-.43,0-.29-.08-.42-.05-.22-.06-.25,0-.11,0-.22,0-.22-.08-.34-.07-.25-.1-.36l-.06-.25s0-.12-.08-.26l-.08-.26s0-.16-.05-.36-.06-.41-.1-.64-.07-.45-.09-.65,0-.32-.06-.37a.87.87,0,0,0,0-.21c0-.11-.06-.24-.1-.37a3.61,3.61,0,0,1-.1-.38l-.06-.22v-.17a.93.93,0,0,0-.25.06.61.61,0,0,0-.22.11.67.67,0,0,0-.11.24.52.52,0,0,0,0,.26c0,.12,0,.34,0,.64s0,.63,0,1,0,.66,0,1,0,.52,0,.64v.25c0,.64,0,1.27-.09,1.9s-.08,1.25-.08,1.89c-.88,0-1.33,0-2.21,0,0,0,0,0-.09-.07l-.07-.1a.93.93,0,0,0,0-.13c0-.07,0-.13,0-.19V68a1.47,1.47,0,0,0,0-.16c0-.06,0-.16,0-.29s0-.26,0-.41,0-.27,0-.4a1.75,1.75,0,0,0,0-.25l0-.09c0-.05,0-.11,0-.16s0-.1,0-.16,0-.08,0-.09a.68.68,0,0,0-.08-.17.51.51,0,0,1-.07-.17.2.2,0,0,1,0-.09.25.25,0,0,1,0-.08h.15s0,0,0-.07,0-.07,0-.08a.51.51,0,0,0-.07-.17L76.12,65a1.6,1.6,0,0,0,0-.17c0-.1,0-.17,0-.23v-.25c0-.11,0-.18,0-.2s0-.24,0-.41l0-.49c0-.16,0-.36,0-.61l.16-.17-.09-.08a.36.36,0,0,1-.07-.09v-.67l.08-.08.08-.1.15-.09.17-.07-.17-.08-.15-.09-.1-.09c-.05,0-.07-.07-.07-.08l-.1-5.54.53-.05.79-.08.8,0h.67l.24,0,.25.06.19,0s0,0,.09.06l.07.1a.49.49,0,0,1,0,.16,2,2,0,0,1,0,.26c0,.1,0,.19,0,.27a.91.91,0,0,0,0,.16.42.42,0,0,0,0,.09s0,.1,0,.16l0,.15,0,.1c0,.07,0,.18.08.31s.07.28.1.42a3.56,3.56,0,0,1,.09.39,1.82,1.82,0,0,0,0,.23s0,.08,0,.17a.87.87,0,0,0,0,.17s0,.14.09.29a4,4,0,0,1,.14.48c.05.17.1.33.14.48l.09.26.07.34c0,.14.07.28.1.43s.06.27.09.38a1.21,1.21,0,0,1,0,.2c0,.07,0,.17,0,.31s0,.29,0,.45,0,.3,0,.44,0,.24,0,.31h.13c.06,0,.09,0,.11,0l.25-.08.23-.09.08-.06.07-.09a10,10,0,0,0,0-1c0-.49,0-1,0-1.57s0-1.09,0-1.58,0-.83,0-1,0-.2,0-.38,0-.36.06-.55,0-.38.07-.55,0-.31,0-.38l.08-.08a.26.26,0,0,1,.1-.07l.17-.1.15-.06h.94l.24,0h.31a.93.93,0,0,1,.25.08l.24.11c-.15.33-.22.49-.36.82h-.12a.16.16,0,0,1,0,.09.08.08,0,0,0,0,.08.7.7,0,0,0,.15.19l.17.17-.35.14.32.36a.48.48,0,0,0-.18,0,.24.24,0,0,0-.15,0l-.09.07-.15.14-.16.15a.44.44,0,0,0-.1.12.15.15,0,0,0,0,.08.08.08,0,0,0,0,0v0a.69.69,0,0,0,.06.13,1,1,0,0,1,.1.17l.09.15s0,.06,0,.06a.19.19,0,0,0,.19,0c.09,0,.13-.08.14-.13a1.55,1.55,0,0,0,0,.18.54.54,0,0,0,0,.16l.07.17a.44.44,0,0,0,.08.16c0,.37,0,.56,0,.93s0,.55,0,.92c0,0,0,.17,0,.34s-.06.38-.09.59-.05.41-.07.59a2.45,2.45,0,0,0,0,.34V63l0,.36v.6A.42.42,0,0,1,84,64s0,.1-.07.16a.88.88,0,0,0,0,.15.42.42,0,0,0,0,.09.62.62,0,0,0,.06.19c0,.09.08.15.08.16a2.19,2.19,0,0,1,0,.5c0,.24,0,.5-.07.76s-.06.52-.08.76-.05.4-.07.5a.93.93,0,0,1-.07.24c-.05.12-.08.21-.1.25a.36.36,0,0,1-.07.09.29.29,0,0,1-.08.08s.08,0,.15.06.13.09.14.12l0,.14a1.6,1.6,0,0,1,0,.21l0,.2v.13a.47.47,0,0,1-.13.18c-.08.08-.15.14-.18.14l-.38-.06L82.51,69l-.58-.07-.38-.05h-.3L81,68.8l-.21-.09Zm-4.49-7.77c0,.11,0,.16.12.16s.12-.06.12-.16,0-.17-.13-.17S76.23,60.52,76.23,60.63Zm.47,4.15-.12,0-.12,0s0,0,0,0,.07.07.16.07.14,0,.16-.08S76.73,64.79,76.7,64.78Zm-.33-5.67c0,.12,0,.17.12.17s.12-.06.11-.17,0-.17-.12-.17S76.36,59,76.37,59.11Zm0,1.18c0,.11,0,.17.12.17s.11-.06.11-.18,0-.17-.12-.17S76.38,60.17,76.39,60.29ZM76.48,66q0,.15.12.15c.08,0,.11,0,.11-.16s0-.17-.12-.17S76.48,65.9,76.48,66Zm0-2.12c0,.08,0,.11.07.09s.08,0,.08-.07a.12.12,0,0,0-.08-.1S76.49,63.83,76.49,63.9ZM76.54,60q0,.15.12.15c.08,0,.12,0,.12-.16s0-.17-.12-.17S76.54,59.84,76.54,60Zm0,1.67c0,.12,0,.17.12.17a.08.08,0,0,0,.08-.06.36.36,0,0,0,0-.11.5.5,0,0,0,0-.12.09.09,0,0,0-.09,0C76.61,61.46,76.57,61.52,76.57,61.63Zm0,.52q0,.15.12.15c.07,0,.11,0,.11-.16s0-.17-.12-.17S76.58,62,76.58,62.15Zm.1-5a.26.26,0,0,0,0,.24.11.11,0,0,0,.1,0c.08,0,.12-.06.11-.17s0-.17-.12-.17A.11.11,0,0,0,76.68,57.14Zm.07,4.54a.26.26,0,0,0,0,.24.11.11,0,0,0,.09,0c.08,0,.11-.06.11-.17s0-.17-.12-.17A.09.09,0,0,0,76.75,61.68Zm.15,1.64q0,.15.12.15c.08,0,.11,0,.11-.16s0-.17-.12-.17S76.9,63.2,76.9,63.32ZM77,65.59c0,.07,0,.1.08.07s.07,0,.07-.08,0-.07-.08-.09S77,65.51,77,65.59Zm0-9.34c0,.11,0,.16.13.16s.12,0,.12-.16,0-.17-.13-.17S77,56.14,77,56.25Zm.08,6.22c0,.11,0,.17.12.17s.11-.06.11-.17,0-.18-.12-.17S77.05,62.35,77.05,62.47Zm0,2.69c0,.12,0,.17.12.17s.11-.06.11-.17,0-.17-.12-.17S77.08,65.05,77.08,65.16Zm.07-8.41c0,.11,0,.16.12.16s.12-.06.12-.16,0-.17-.12-.17S77.14,56.64,77.15,56.75Zm0,3.2q0,.15.12.15c.08,0,.12-.05.12-.16s0-.17-.12-.17S77.18,59.83,77.18,60Zm0,2.86c0,.11,0,.16.12.16s.12-.06.12-.16,0-.17-.12-.17S77.21,62.7,77.21,62.81Zm.11-6.52a.24.24,0,0,0,0,.12.21.21,0,0,0,0,.11.1.1,0,0,0,.09.06q.12,0,.12-.18c0-.11,0-.17-.13-.17A.1.1,0,0,0,77.32,56.29Zm.3,4.83.16-.35h-.16Zm0,.84c0,.11,0,.16.12.16s.12-.06.11-.16,0-.17-.11-.17S77.67,61.85,77.67,62Zm0,1.85c0,.11,0,.17.11.17s.12-.06.12-.17,0-.17-.12-.17S77.68,63.69,77.69,63.81Zm.13-3.37c0,.12,0,.17.12.17s.07,0,.08,0a.37.37,0,0,0,0-.24.08.08,0,0,0-.08,0C77.86,60.27,77.82,60.33,77.82,60.44Zm0,3.54c0,.1,0,.16.12.16s.11-.06.11-.16,0-.17-.11-.17S77.84,63.87,77.84,64ZM78,62.34a.26.26,0,0,0,0,.24.11.11,0,0,0,.09.05c.08,0,.11-.06.11-.17s0-.17-.11-.17A.11.11,0,0,0,78,62.34Zm.34-5.78-.08,0a.35.35,0,0,0,0,.08,0,0,0,0,0,0,.06.1.1,0,0,0,.14,0,.12.12,0,0,0,0-.14S78.38,56.55,78.35,56.56Zm.11,4c0,.11,0,.16.12.16s.11-.05.11-.16,0-.17-.11-.17S78.46,60.5,78.46,60.61Zm.31-2.19c0,.11,0,.17.12.17s.12-.05.12-.17,0-.17-.12-.17S78.77,58.31,78.77,58.42Zm1,1.7q0,.15.12.15t.12-.15q0-.18-.12-.18T79.73,60.12Zm0,.67c0,.1,0,.16.11.16s.12-.05.12-.16,0-.17-.11-.17S79.73,60.67,79.73,60.79ZM80,62.64h.48v-.17H80Zm0,.17c0,.11,0,.16.12.16s.11,0,.12-.16,0-.17-.12-.17S80,62.7,80,62.81Zm.51-1.13a.26.26,0,0,0,0,.24.11.11,0,0,0,.09,0c.07,0,.11,0,.12-.17s0-.17-.12-.17A.11.11,0,0,0,80.52,61.68Zm.11,1.81c0,.11,0,.16.11.16s.12,0,.12-.15,0-.18-.11-.18S80.63,63.38,80.63,63.49Zm0,1.58c0,.08,0,.11.06.1a.09.09,0,0,0,.08-.08.11.11,0,0,0-.07-.09S80.65,65,80.65,65.07Zm.4-1.24v-.17H80.9Zm-.17.84a.28.28,0,0,0,.09-.08A.36.36,0,0,0,81,64.5v-.34C81,64.36,81,64.47,80.88,64.67Zm.57-.35-.08.05a.15.15,0,0,0,0,.08s0,0,0,.06a.11.11,0,0,0,.13,0,.12.12,0,0,0,0-.14A0,0,0,0,0,81.45,64.32Zm-.1-.31h.16l0-.84h-.16Zm.32,2.24a.2.2,0,0,0,0,.11.27.27,0,0,0,0,.12.08.08,0,0,0,.08.06c.07,0,.11-.06.12-.17s0-.17-.11-.18A.1.1,0,0,0,81.67,66.25Zm.22,1,.16-.16h-.16Zm.2-6.22c0,.11,0,.17.12.17s.12,0,.12-.17,0-.17-.11-.17S82.1,60.87,82.09,61Zm0,1c0,.11,0,.16.11.16s.12,0,.12-.15,0-.17-.11-.18S82.07,61.89,82.07,62Zm.22,1.86v-.17h-.16Zm.08.31a.18.18,0,0,0-.07,0,.16.16,0,0,0,0,.08,0,0,0,0,0,0,.06.1.1,0,0,0,.12,0,.17.17,0,0,0,0-.14A0,0,0,0,0,82.37,64.17Zm-.07,1.42a.24.24,0,0,0,0,.12.2.2,0,0,0,0,.11.1.1,0,0,0,.09.06c.07,0,.11,0,.11-.17s0-.17-.1-.17A.09.09,0,0,0,82.3,65.59Zm-.07,1.31c0,.1,0,.15.11.16s.11,0,.12-.16,0-.17-.11-.17S82.24,66.78,82.23,66.9Zm.26-2.11c-.06,0-.1,0-.08.07s0,.08.06.08.07,0,.09-.07S82.56,64.79,82.49,64.79Zm.05-2.94c0,.11,0,.17.11.17s.12-.05.12-.17,0-.17-.11-.17S82.54,61.73,82.54,61.85ZM83,64l-.08,0-.17.15a1.35,1.35,0,0,0-.15.17H83V64Zm-.4,1.71c0,.11,0,.17.11.17s.11,0,.12-.17,0-.17-.11-.17S82.58,65.6,82.58,65.72Zm0,1c0,.11,0,.16.1.16s.12,0,.12-.15,0-.17-.11-.18S82.55,66.62,82.55,66.73Zm.61-5.8A.47.47,0,0,0,83,61a.4.4,0,0,0-.06.13.34.34,0,0,0,0,.11l.11,0c.06,0,.1,0,.11,0a1.25,1.25,0,0,0,.09-.16l.08-.18Zm-.06-2.76h.08s0,0,.07,0a.61.61,0,0,0,.09-.22c0-.13.08-.23.1-.29V57.5a1.87,1.87,0,0,0-.07-.18.68.68,0,0,0-.08-.17C83.21,57.56,83.18,57.76,83.1,58.17Zm.32-2.09c-.07,0-.11,0-.1.07s.05.08.08.08.07,0,.09-.07S83.49,56.08,83.42,56.08Zm-.06.4c0,.12,0,.18.11.18s.13,0,.13-.17,0-.17-.11-.17S83.36,56.37,83.36,56.48Zm-.09,8.57-.07,0a.22.22,0,0,0,0,.08.06.06,0,0,0,0,.06.09.09,0,0,0,.13,0,.15.15,0,0,0,0-.14A0,0,0,0,0,83.27,65.05Zm0-1.7v0a.36.36,0,0,0,.07.09l.08.07.17-.15-.15-.18a.18.18,0,0,0,.17,0,.27.27,0,0,0,.14-.14.58.58,0,0,0,0-.27,1,1,0,0,0-.1-.24s0,.07-.08.13l-.1.2c0,.07-.07.14-.1.2l-.06.14a.14.14,0,0,0,0,.07A.13.13,0,0,0,83.23,63.35Zm.07-1.82.17-.15H83.3Zm.22-4.87c0,.12,0,.17.11.18s.13-.05.13-.17,0-.17-.11-.18S83.52,56.55,83.52,56.66Zm-.15,9.18c-.07,0-.09,0-.07.07s0,.08.06.08a.09.09,0,0,0,.09-.07S83.44,65.84,83.37,65.84Zm0,.67c-.06,0-.08,0-.07.08s0,.08.07.08.07,0,.09-.08S83.41,66.51,83.34,66.51ZM84,56.08l-.15.09s0,0,0,0a.43.43,0,0,1,0,0,.2.2,0,0,1,0,0s0,0,0,0l.34-.32A.42.42,0,0,0,84,56.08Zm-.49,9.51c0,.11,0,.16.11.16s.12,0,.12-.15,0-.17-.11-.18S83.5,65.48,83.49,65.59Zm0,.5c0,.11,0,.16.11.16s.11,0,.12-.15,0-.17-.11-.18S83.48,66,83.47,66.09Z"/><path class="cls-1" d="M89.5,68.81c0-.26,0-.53,0-.82s0-.56,0-.81,0-.44,0-.54,0-.29.07-.62.09-.67.14-1,.11-.72.16-1,.07-.53.08-.62l0-.4.06-.72c0-.28.05-.58.08-.89s.05-.6.08-.87,0-.53.06-.74,0-.34,0-.4a3.41,3.41,0,0,1,.06-.4c0-.21.07-.44.11-.69s.08-.47.12-.69,0-.34.06-.39a1.58,1.58,0,0,1,0-.23c0-.1,0-.22,0-.35s0-.24,0-.36,0-.19,0-.23l.19-.16.21,0,.31,0h.18l.26,0,.22,0h.13l.39.07.59.11.59.12a2.58,2.58,0,0,1,.39.09.24.24,0,0,1,.08.09.37.37,0,0,1,.07.1.71.71,0,0,1,0,.12l0,.19a1.8,1.8,0,0,0,0,.22.57.57,0,0,0,0,.16.62.62,0,0,0,0,.16.3.3,0,0,0,0,.16s0,.13,0,.26v.4c0,.14,0,.28,0,.41a2.19,2.19,0,0,0,0,.29.62.62,0,0,0,0,.18c0,.1,0,.21,0,.33s0,.22,0,.32a1.92,1.92,0,0,1,0,.2,1.35,1.35,0,0,0,0,.21v.37c0,.14,0,.27,0,.38a1,1,0,0,0,0,.22,1.32,1.32,0,0,0,0,.18c0,.09.05.16.07.17s0,0,.07,0h.08a.66.66,0,0,0,.2-.14l.16-.15s0-.07,0-.17,0-.15,0-.17a.62.62,0,0,1,0-.11l.08-.2a1.8,1.8,0,0,0,.08-.21.34.34,0,0,0,0-.13.1.1,0,0,0,0-.07V60a.58.58,0,0,1,0-.13c0-.06,0-.13.08-.2a1.19,1.19,0,0,1,.08-.2.79.79,0,0,0,0-.12,1.62,1.62,0,0,1,.06-.19c0-.09.06-.2.09-.31s.06-.22.09-.31a.69.69,0,0,0,.06-.18l.1-.31.17-.5c.06-.17.11-.34.16-.49l.11-.31.09-.09a.28.28,0,0,1,.1-.06l.2,0,.31,0h.5l.42.06.65.08.64.08.42.06c-.85,5.34-1.27,8-2.12,13.34l-.07.06-.09.08-.18.07a.4.4,0,0,1-.15,0l-1.62-.24s0-.07,0-.21,0-.23,0-.31l0-.23,0-.26c0-.06,0-.19.08-.4s.1-.43.15-.68.1-.47.15-.68.07-.34.08-.39l0-.25c0-.15,0-.3.08-.47s0-.34.08-.51l0-.38,0-.28c0-.12,0-.23,0-.34s0-.2,0-.28l0-.16c-.06-.08-.08-.12-.14-.19a.78.78,0,0,0-.19.13.57.57,0,0,0-.16.17,1.23,1.23,0,0,0-.06.17,2.26,2.26,0,0,0-.1.31c0,.11-.06.22-.08.31a1.37,1.37,0,0,0,0,.18l-.1.16a1,1,0,0,0-.1.16s0,.1,0,.21-.07.23-.1.36-.07.25-.1.36a1,1,0,0,1-.07.21.49.49,0,0,1,0,.12c0,.06,0,.13-.08.2s-.06.15-.08.22a.62.62,0,0,0,0,.11l0,.12,0,.22,0,.22v.11l-.1.32-.16.49c0,.17-.11.34-.16.49l-.11.32s0,0-.07.09-.08.06-.1.06L94,70l-.25,0-.26,0-.19,0s-.06,0-.13-.09L93,69.7,93,69.61a.28.28,0,0,1,0-.08.9.9,0,0,1,0-.13c0-.06,0-.13,0-.21l0-.2a.72.72,0,0,1,0-.15c0-.13,0-.39,0-.76s0-.78,0-1.21,0-.86,0-1.25v-.94l0-.15v-.25a.67.67,0,0,0-.05-.19.6.6,0,0,0-.07-.17s0,0-.06,0l-.09,0h-.09s-.06,0-.06,0,0,0-.06.08l-.06.14a.47.47,0,0,0-.06.15.36.36,0,0,0,0,.11c-.23,2.16-.35,3.24-.58,5.4l-.27,0-.4,0-.4-.06-.26,0-.18,0-.26-.08-.27-.08a1.13,1.13,0,0,1-.16-.06C89.49,69.24,89.49,69.06,89.5,68.81Zm1.53-4c0,.1,0,.16.1.17s.11,0,.13-.15,0-.17-.1-.18S91,64.64,91,64.76Zm1.06-7.51c0,.11,0,.17.1.18s.13,0,.14-.16,0-.17-.1-.18S92.1,57.13,92.09,57.25Zm.47.65c-.07,0-.1,0-.09.06s0,.09.07.09.06,0,.08-.07S92.63,57.9,92.56,57.9Zm2,3.86c0,.1,0,.16.1.17s.12,0,.14-.14,0-.18-.1-.19S94.53,61.64,94.51,61.76Zm-.19,4c0,.11,0,.16.09.17s.12,0,.13-.14,0-.17-.09-.18S94.33,65.69,94.32,65.8Zm.49-.28c0,.11,0,.18.1.19s.12,0,.13-.16,0-.18-.09-.18S94.83,65.41,94.81,65.52Zm.54-1.62c0,.1,0,.16.09.17s.12,0,.14-.14,0-.17-.1-.18S95.36,63.79,95.35,63.9Zm.52-1.63c0,.11,0,.17.1.18s.12,0,.14-.15,0-.18-.1-.19S95.89,62.15,95.87,62.27Zm.61-2.4a.43.43,0,0,0-.17.08.35.35,0,0,0,0,.17v.08a.32.32,0,0,0,0,.08l.4-.45A.41.41,0,0,0,96.48,59.87Zm-.08-.24c0,.11,0,.16.09.18s.13,0,.14-.14,0-.18-.09-.19S96.41,59.52,96.4,59.63Zm-.12.83c0,.11,0,.17.1.18s.12,0,.14-.15,0-.18-.09-.19S96.3,60.34,96.28,60.46Zm-.2,1.5c0,.1,0,.16.1.17s.12,0,.13-.14,0-.17-.09-.18S96.09,61.85,96.08,62Zm.69-3A.66.66,0,0,0,97,59a.87.87,0,0,0,.25-.06s0,0,.08-.08l0-.08-.57-.08Zm-.06.9a.22.22,0,0,0,0,.11.25.25,0,0,0,0,.12.1.1,0,0,0,.08.07c.08,0,.13,0,.14-.15s0-.18-.09-.19A.1.1,0,0,0,96.71,59.89Zm-.07.5a.37.37,0,0,0,0,.11.25.25,0,0,0,0,.12.1.1,0,0,0,.08.07c.08,0,.13,0,.14-.16s0-.17-.09-.19A.11.11,0,0,0,96.64,60.39Zm-.18,1.33a.22.22,0,0,0,0,.11.25.25,0,0,0,0,.12.11.11,0,0,0,.08.07q.12,0,.15-.15c0-.12,0-.18-.1-.19A.08.08,0,0,0,96.46,61.72Zm0,.8c0,.12,0,.18.09.19s.13,0,.14-.16,0-.17-.09-.18S96.49,62.41,96.48,62.52Zm.29-1.74c0,.07,0,.09.06.08a.08.08,0,0,0,.09-.06.11.11,0,0,0-.07-.09S96.78,60.7,96.77,60.78Zm.22-.73c0,.11,0,.17.09.19s.13,0,.15-.16,0-.17-.1-.19S97,59.93,97,60.05Zm-.19,1.33c0,.1,0,.16.1.17s.12,0,.14-.14,0-.17-.1-.18S96.82,61.27,96.8,61.38Zm.09.52c0,.11,0,.18.1.19a.09.09,0,0,0,.09-.05.35.35,0,0,0,0-.11.24.24,0,0,0,0-.12.07.07,0,0,0-.07-.06Q96.92,61.74,96.89,61.9ZM98,57.56a.24.24,0,0,0-.09.08l0,.09c0,.05,0,.11,0,.16a.77.77,0,0,1,0,.15c0,.06,0,.09,0,.09a.52.52,0,0,1-.17.09.65.65,0,0,1-.18,0l.8.12-.07-.09a.25.25,0,0,1-.05-.11.49.49,0,0,1,0-.13,1.25,1.25,0,0,1,0-.21c0-.07,0-.14,0-.21a.32.32,0,0,1,0-.14A.37.37,0,0,0,98,57.56Zm-.55,2-.09.06-.08.08.34-.11-.08,0Zm-.29,1,.31.05-.26-.37Zm.55-3.44a.31.31,0,0,0,0,.24s0,.06.08.06.13,0,.15-.15,0-.18-.1-.19A.13.13,0,0,0,97.75,57.14Zm-.31,2c0,.1,0,.16.1.17s.13,0,.14-.14,0-.17-.09-.18S97.46,59,97.44,59.1Zm.24-.49c0,.12,0,.18.1.19s.13,0,.14-.15,0-.18-.09-.19S97.7,58.5,97.68,58.61Zm-.21,1.51q0,.16.09.18c.08,0,.13,0,.14-.15s0-.18-.09-.19S97.48,60,97.47,60.12Zm-.89,6.15c0,.11,0,.17.09.19s.12,0,.13-.16,0-.17-.08-.19S96.59,66.15,96.58,66.27ZM97.8,59c0,.1,0,.16.1.17s.12,0,.14-.14,0-.17-.1-.19S97.81,58.86,97.8,59Zm.69.61-.3,0a.52.52,0,0,0-.21.06s-.07.07-.11.17a1.34,1.34,0,0,0-.08.19h.15a.4.4,0,0,0,.15,0L98.2,60a1.09,1.09,0,0,0,.17-.13l.17-.13.11-.09h-.16Zm-1.13,4.85c-.07,0-.09,0-.09.06s0,.08.06.09.07,0,.09-.07S97.42,64.45,97.36,64.44Zm1-6.53a.22.22,0,0,0,0,.11.25.25,0,0,0,0,.12.1.1,0,0,0,.08.07c.08,0,.13,0,.14-.16s0-.17-.09-.19A.1.1,0,0,0,98.31,57.91Zm-.08,2c0,.1-.07.14-.14.13S98,60,98,59.86s.06-.16.14-.15S98.24,59.78,98.23,59.9Zm.06-.6c-.07,0-.11,0-.11.07a.11.11,0,0,0,.07.09s.07,0,.1-.07S98.36,59.31,98.29,59.3Zm.19-1.58c0,.1,0,.16.09.17s.13,0,.15-.14,0-.17-.1-.19S98.49,57.6,98.48,57.72Zm-.09.92c0,.07,0,.1.06.09s.08,0,.09-.07a.1.1,0,0,0-.07-.1S98.4,58.56,98.39,58.64Zm-.25,3.27L98,62l-.09.08.35-.12h-.16Zm.19-1.76c0,.07,0,.11.06.1s.08,0,.08-.06,0-.08-.06-.11S98.34,60.08,98.33,60.15Zm0,1.2q-.1,0-.09.06c0,.05,0,.09.06.09a.1.1,0,0,0,.1-.06S98.36,61.36,98.3,61.35Zm-.47,2.56.16,0,0-.17Zm1-6.48c0,.11,0,.17.1.18a.07.07,0,0,0,.09,0,.36.36,0,0,0,0-.11.25.25,0,0,0,0-.12.08.08,0,0,0-.07-.07C98.93,57.26,98.88,57.31,98.86,57.43Zm.17.34a.15.15,0,0,0-.09,0l0,.07s0,0,0,.06a.11.11,0,0,0,.13,0,.12.12,0,0,0,0-.13S99.06,57.76,99,57.77Zm-.58,3.17.17-.15-.15,0Zm-.59,4.21a.25.25,0,0,0,0,.12.17.17,0,0,0,0,.12.09.09,0,0,0,.07.06q.12,0,.15-.15c0-.11,0-.18-.09-.19A.13.13,0,0,0,97.86,65.15Zm1.07-6.35.33.05-.3-.22Zm.15-.66c0,.11,0,.18.09.19s.13,0,.15-.15,0-.18-.1-.19S99.09,58,99.08,58.14Zm-.36,2.34c0,.1,0,.16.09.17s.13,0,.14-.14,0-.17-.09-.19S98.73,60.36,98.72,60.48Zm-.08.49c0,.11,0,.16.09.18s.13,0,.15-.14,0-.18-.1-.19S98.66,60.86,98.64,61Zm0,.33c0,.11,0,.17.09.19s.13,0,.15-.16,0-.17-.1-.18S98.61,61.18,98.59,61.3ZM98,65c0,.11,0,.16.09.18s.13,0,.14-.14,0-.18-.08-.19S98,64.85,98,65Zm1.39-7.1.17,0,0-.34Z"/><path class="cls-1" d="M99.16,70.3c0-.09,0-.15,0-.17s0-.11,0-.2a.33.33,0,0,1,0-.13.33.33,0,0,1,.07-.14l.15-.24.14-.24.07-.15s0-.08,0-.18a.47.47,0,0,1,0-.19.54.54,0,0,1,.08-.15,1,1,0,0,1,.11-.15l.17,0a.44.44,0,0,0,.17-.06s0,0,0-.09a.23.23,0,0,1,0-.09l-.25,0c0-.1,0-.27,0-.51s0-.49.08-.75.07-.52.1-.76,0-.4.07-.49,0-.23.09-.47.1-.52.17-.84.14-.65.21-1,.14-.69.21-1,.13-.59.17-.83.08-.38.09-.46,0-.06,0-.15,0-.19.06-.31l.06-.34,0-.27,0-.22.06-.32c0-.13,0-.24,0-.34a1.69,1.69,0,0,1,0-.21s0,0-.08-.08a.31.31,0,0,1,0-.11.79.79,0,0,1,.11-.15.58.58,0,0,0,.1-.15l0-.09,0-.16,0-.15,0-.09.12-.19c0-.08.08-.12.1-.12l.28,0c.89.16,1.76.35,2.62.58s1.72.44,2.61.63l0,.09s0,.06,0,.07a.61.61,0,0,1,0,.15c0,.07-.06.15-.1.23l-.1.24a1.65,1.65,0,0,1-.07.16c0,.06-.06.14-.12.25l-.13.26a.57.57,0,0,0-.06.12l-.13.06-.2.07-.22,0-.16,0-.14-.1a.52.52,0,0,1-.15-.14,1.34,1.34,0,0,1,0-.18,1.26,1.26,0,0,0,0-.19l-.15-.11-.15-.11s0,0,0-.08a.19.19,0,0,1,0-.09s-.1,0-.19,0a.2.2,0,0,0-.16.11.41.41,0,0,0,0,.27.63.63,0,0,0,.07.25l-.26,0-.25,0-.2,0-.23.06-.27.09-.55,2.81a.46.46,0,0,1,.1.1,1.4,1.4,0,0,1,.12.18,1.62,1.62,0,0,1,.1.18.51.51,0,0,1,.05.12.26.26,0,0,1,0,.13,1,1,0,0,1-.08.19l-.09.19,0,.13.44.09-.13-.2.09-.06.17-.07.16-.07.11,0,.16,0h.65l-.27-.23.93.19-.44,2-.18,0-.27-.07-.28-.08-.17,0s-.08,0-.19-.12l-.24-.15-.15-.13-.12-.1s0,0,0-.09,0-.1,0-.16,0-.12,0-.17a.16.16,0,0,0,0-.1s-.06,0-.14,0-.14.06-.16.05,0,0,0,0,0,0,0,0a.2.2,0,0,0,0,.09.24.24,0,0,1,.06.11s0,0,0,0v.09s0,0,0,0a.19.19,0,0,1-.08.08l-.1.06a.34.34,0,0,1-.17,0,.6.6,0,0,0-.18.06.73.73,0,0,0-.11.14.44.44,0,0,0-.09.15c0,.09-.07.26-.13.49s-.12.48-.19.74-.14.5-.19.73l-.12.49s0,.09,0,.22l-.06.27s0,.16,0,.34a1.65,1.65,0,0,0,.11.2,1.73,1.73,0,0,0,.12.19s0,0,0,0a.17.17,0,0,0,0,.05l.77.15a.2.2,0,0,0,.13.11l.15,0,.09,0s0,0,0,0,.06,0,.13,0l.2-.07.21-.07.12,0h.32l.18,0h.11l-.36,1.72s0,0-.13.07l-.19,0-.32-.07-.42-.09-.46-.11-.69-.17-.82-.18-.81-.19-.69-.16-.46-.1A.9.9,0,0,0,99.16,70.3Zm1-3.92c0,.12,0,.18.08.19s.13,0,.15-.15,0-.18-.09-.19S100.21,66.27,100.19,66.38Zm-.06.34q0,.15.09.18c.07,0,.12,0,.14-.14s0-.18-.09-.19S100.15,66.61,100.13,66.72Zm-.1,2.37c0,.1,0,.16.09.17s.12,0,.14-.13,0-.18-.09-.19S100.05,69,100,69.09Zm.49-1.55a1.82,1.82,0,0,0-.07.25,1.3,1.3,0,0,0,0,.26c0,.08,0,.1,0,.08a.26.26,0,0,0,.08-.11,1.17,1.17,0,0,0,0-.2,1.5,1.5,0,0,0,0-.2.28.28,0,0,0,0-.15S100.54,67.47,100.52,67.54Zm-.35,1.83q0,.1.06.09s.07,0,.08-.07a.09.09,0,0,0,0-.1S100.18,69.3,100.17,69.37Zm.57-2.45s.06.08.08.08l.09-.49a1.2,1.2,0,0,0-.12.14.29.29,0,0,0-.09.16A.14.14,0,0,0,100.74,66.92Zm-.39,2c0,.11,0,.18.09.19s.12,0,.14-.15,0-.18-.08-.19S100.37,68.86,100.35,69Zm1.48-7.59.19-.14-.16,0Zm-1.45,8.45a.72.72,0,0,0,.06.17s0,0,0,.06,0,0,0,0,0-.09.08-.2.09-.17.12-.18l.11,0,.22-.07.21-.06.12-.06v-.29a1.64,1.64,0,0,0,0-.22,1.36,1.36,0,0,1,0-.18.64.64,0,0,0-.06-.1.3.3,0,0,0-.07-.08s0,0-.08,0l-.08,0a.54.54,0,0,1,0,.11.55.55,0,0,1,0,.09,2.65,2.65,0,0,1,0,.27,2.65,2.65,0,0,0,0,.27.78.78,0,0,0-.24,0,.89.89,0,0,0-.23,0l-.12.15a.28.28,0,0,0-.06.34Zm.37-2.16c0,.12,0,.18.08.19s.12,0,.14-.15,0-.17-.08-.19S100.77,67.56,100.75,67.67Zm.47-1.41a.34.34,0,0,0,0,.12.76.76,0,0,0,0,.14s0,0,0,0a.16.16,0,0,0,.1-.15c0-.09,0-.15,0-.19S101.24,66.22,101.22,66.26Zm0,.48c0,.1,0,.16.08.17s.13,0,.15-.13,0-.17-.09-.19S101.24,66.63,101.22,66.74Zm1.34-6.25a.44.44,0,0,0,.06.17s0,0,0,0l0,0s.07,0,.09,0,0-.08,0-.17l-.06-.18s0,0,0,0h-.13A.65.65,0,0,0,102.56,60.49Zm-.83,4.11.16,0,0-.17-.16,0Zm.16-.65c0,.11,0,.18.09.19s.12,0,.14-.15,0-.17-.08-.19S101.91,63.84,101.89,64Zm.58-1.17c-.07,0-.09,0-.09.07s0,.08.06.09a.11.11,0,0,0,.1-.06C102.56,62.83,102.54,62.8,102.47,62.78Zm.48-2.49c0,.07,0,.11.06.11s.08,0,.08-.06a.1.1,0,0,0,0-.11Q103,60.19,103,60.29Zm-.29,2.1q0,.15.09.18c.08,0,.13,0,.15-.14s0-.17-.09-.19S102.68,62.28,102.66,62.39Z"/></svg>