<svg id="Layer_1" data-name="Layer 1" xmlns="http://www.w3.org/2000/svg" viewBox="0 0 160 160"><defs><style>.cls-1{opacity:0.4;}.cls-2{fill:#fa97aa;}.cls-3{fill:#fb5273;}.cls-4{fill:#fff;}</style></defs><g class="cls-1"><path class="cls-2" d="M78.06,56.2c-.73-.82-4-4.41-2.83-6.06,1.38-1.87,2.32,1.53,2.76,2.19-.17-2.09,3.25-5,3.17-1.75,0,2.32-2,3.88-3.1,5.62"/><path class="cls-2" d="M78.21,56.05a15.44,15.44,0,0,1-2.72-3.8,2,2,0,0,1,0-2c.18-.23.45-.5.76-.38a1.51,1.51,0,0,1,.61.64c.39.62.58,1.36,1,2,.11.16.42.12.4-.11a3,3,0,0,1,.65-1.89,2.58,2.58,0,0,1,1.4-1.1c.63-.11.69.72.69,1.16a5.18,5.18,0,0,1-1,2.85c-.65.95-1.43,1.78-2,2.74-.15.24.23.46.38.22,1.22-1.91,3.26-3.56,3.13-6,0-.6-.26-1.37-1-1.37a2.42,2.42,0,0,0-1.65,1,3.59,3.59,0,0,0-1,2.44l.4-.11c-.5-.77-1.24-3.65-2.66-2.68-1.72,1.17-.17,3.57.69,4.75.52.72,1.1,1.4,1.69,2.07.19.21.5-.1.31-.31Z"/></g><path class="cls-2" d="M124.09,154.25H35.91a8,8,0,0,1-8-8V41.4a8,8,0,0,1,8-8h88.18a8,8,0,0,1,8,8V146.25A8,8,0,0,1,124.09,154.25ZM35.91,34.51A6.89,6.89,0,0,0,29,41.4V146.25a6.89,6.89,0,0,0,6.88,6.89h88.18a6.89,6.89,0,0,0,6.88-6.89V41.4a6.89,6.89,0,0,0-6.88-6.89Z"/><path class="cls-2" d="M127.67,149.2H32.33V38.45h95.34Zm-94.28-1.06h93.22V39.51H33.39Z"/><path class="cls-3" d="M74.73,40.54c-6.06-4.1-14.32-7.87-18.66-14.38C53.48,22.27,49.71,14.55,52,9.77c2.82-5.93,9-2.18,12.2,1,4.15,4.06,5.19,8.35,7.94,13.08.36-5.34,1-11.7,5.16-15.64S88.17,5,89.83,10.6C93.07,21.52,82.56,33.34,75,40"/><path class="cls-2" d="M81.4,44.05c-1.78-4-3.73-9.72-3.26-14.88C78.42,26,79.69,20,82.68,18.31c8.66-4.74,7.45,9.27,7.16,13.84,1.39-3.34,6-8.62,10.27-7.56,3.59.89,3,6.17,1.6,9-4.15,8.5-13.41,6.67-20.31,10.43"/><path class="cls-4" d="M56.1,9.17c-2.63.6-2.35,4-2.08,6.06.5,3.83,2.72,7,4.57,10.32a.56.56,0,0,0,1-.56c-1.62-2.88-3.58-5.69-4.28-9-.32-1.51-1-5.28,1.13-5.77.69-.15.4-1.22-.3-1.07Z"/><path class="cls-4" d="M60.63,27.2s0,0,0,0l0-.13v0l0-.15a0,0,0,0,1,0,0l0-.14v0l0-.14a.05.05,0,0,1,0,0l.09-.11-.06,0,.11-.09a.46.46,0,0,1-.13.08.44.44,0,0,0-.16.14.5.5,0,0,0-.1.19.45.45,0,0,0,0,.23.37.37,0,0,0,.07.2l.08.11a.58.58,0,0,0,.25.15l.15,0a.57.57,0,0,0,.28-.08l.12-.06.15-.13a.75.75,0,0,0,.12-.14v0h0l.06-.14v0l0-.17a.58.58,0,0,0,0-.17v0a1,1,0,0,0-.07-.15v0a.36.36,0,0,0-.14-.16.5.5,0,0,0-.19-.1.55.55,0,0,0-.22,0,.48.48,0,0,0-.21.07l-.11.09a.49.49,0,0,0-.14.24l0,.15a.55.55,0,0,0,.07.28Z"/><path class="cls-4" d="M62.37,28.18l-.22.19.11-.08-.07.05-.13.1h0l-.09.12-.05.13a.28.28,0,0,0,0,.22c.13,1,0,.05,0,.08l.05.13.09.11h0a.48.48,0,0,0,.11.09l.13.05.15,0,.15,0h0a.61.61,0,0,0,.17-.07l.09-.05A.57.57,0,0,0,63,29.1a.38.38,0,0,0,.09-.19.33.33,0,0,0,0-.22.36.36,0,0,0-.06-.2L63,28.37a.72.72,0,0,0-.24-.14l-.15,0a.57.57,0,0,0-.28.08l-.08.05a.05.05,0,0,0,0,0l.13-.06h0l.15,0h0l.15,0h0l.24.15h0l.15.24h0l0,.15h0L63,29h0l-.06.13h0l-.09.11h0l-.11.08,0,0,.19-.16.18-.14a.49.49,0,0,0,.11-.18.42.42,0,0,0,0-.22.38.38,0,0,0,0-.21.42.42,0,0,0-.11-.18L63,28.09a.53.53,0,0,0-.28-.07l-.14,0a.48.48,0,0,0-.25.14Z"/><path class="cls-4" d="M64.81,30.62h0L64,29.83l-.06.06-.09.08a0,0,0,0,1,0,0,.67.67,0,0,0-.16.4.41.41,0,0,0,0,.21.42.42,0,0,0,.11.18l.12.09a.53.53,0,0,0,.28.07l.14,0a.48.48,0,0,0,.25-.14l0,0,0,0a.44.44,0,0,0,.12-.18.41.41,0,0,0,0-.22.39.39,0,0,0,0-.21.44.44,0,0,0-.12-.18l-.11-.09a.55.55,0,0,0-.28-.07l-.15,0a.49.49,0,0,0-.24.14l-.06.06h0l.79.79v0l0,0,.09-.08,0,0a.44.44,0,0,0,.12-.18.41.41,0,0,0,0-.22.39.39,0,0,0,0-.21.44.44,0,0,0-.12-.18l-.11-.09a.55.55,0,0,0-.28-.07l-.15,0a.49.49,0,0,0-.24.14h0a.67.67,0,0,0-.16.4.41.41,0,0,0,0,.21.42.42,0,0,0,.11.18l.12.09a.53.53,0,0,0,.28.07l.14,0a.56.56,0,0,0,.25-.14Z"/><path class="cls-4" d="M99.47,27.16c.76.29.78,1.44.76,2.11a7.64,7.64,0,0,1-.6,2.62A9.42,9.42,0,0,1,95,36.75c-.64.32-.08,1.27.56,1a10.51,10.51,0,0,0,5.34-6c.6-1.71,1.06-4.85-1.1-5.66-.67-.25-1,.82-.29,1.07Z"/><path class="cls-4" d="M92.33,38.48h0l-.12-.09a.12.12,0,0,1,0,.05l-.08-.12a.17.17,0,0,1,0,.05l0-.13a.13.13,0,0,1,0,.06l0-.15a.06.06,0,0,1,0,0,.36.36,0,0,0,0,.21.57.57,0,0,0,.12.18.44.44,0,0,0,.18.12.38.38,0,0,0,.21,0l.15,0a.45.45,0,0,0,.24-.14l.09-.11a.57.57,0,0,0,.08-.28v0l0-.18v0l0-.08,0-.08,0,0-.1-.14,0,0-.13-.11a.42.42,0,0,0-.21-.06.41.41,0,0,0-.22,0,.39.39,0,0,0-.19.1.4.4,0,0,0-.14.15l-.06.14a.48.48,0,0,0,0,.29l.06.13a.46.46,0,0,0,.19.2Z"/><path class="cls-4" d="M90.48,39.34h0l-.14,0h0l-.13,0h0l-.11-.09h0l-.09-.11h0L90,39a0,0,0,0,1,0,0l0-.15v0a.3.3,0,0,0,0,.21.42.42,0,0,0,.11.18.44.44,0,0,0,.18.12.38.38,0,0,0,.21,0l.15,0a.52.52,0,0,0,.25-.14l.08-.11a.57.57,0,0,0,.08-.28v0h0a.68.68,0,0,1,0-.15h0s0-.12,0-.13h0L91,38.41h0l-.11-.09h0l-.07,0-.07,0h0l-.15,0h0a.41.41,0,0,0-.22,0,.57.57,0,0,0-.18.12.42.42,0,0,0-.11.18.38.38,0,0,0,0,.21l0,.15a.53.53,0,0,0,.14.24l.12.09a.54.54,0,0,0,.28.08Z"/><path class="cls-4" d="M88.07,39.66v.19a.54.54,0,0,0,.05.22.61.61,0,0,0,.29.29.54.54,0,0,0,.22,0l.15,0a.61.61,0,0,0,.24-.15l.09-.11a.53.53,0,0,0,.07-.28v-.19a.41.41,0,0,0,0-.22.57.57,0,0,0-.12-.18.42.42,0,0,0-.18-.11.38.38,0,0,0-.21,0l-.15,0a.63.63,0,0,0-.24.14l-.09.12a.54.54,0,0,0-.08.28Z"/><path class="cls-2" d="M83.93,6.37v.16a.29.29,0,0,0,0,.16.26.26,0,0,0,.08.13.42.42,0,0,0,.14.09.29.29,0,0,0,.16,0h.11a.42.42,0,0,0,.18-.11l.07-.08a.42.42,0,0,0,.06-.21V6.37a.27.27,0,0,0,0-.16.34.34,0,0,0-.09-.14A.3.3,0,0,0,84.51,6a.41.41,0,0,0-.16,0h-.11a.52.52,0,0,0-.19.11L84,6.16a.37.37,0,0,0-.06.21Z"/><path class="cls-2" d="M87.41,12.83h.16a.33.33,0,0,0,.17,0,.26.26,0,0,0,.13-.08.42.42,0,0,0,.09-.14.41.41,0,0,0,0-.16V12.3a.42.42,0,0,0-.11-.18l-.08-.07a.55.55,0,0,0-.22-.06h-.16a.32.32,0,0,0-.16,0,.38.38,0,0,0-.13.09.3.3,0,0,0-.09.13.29.29,0,0,0,0,.16v.11a.52.52,0,0,0,.11.19l.08.06a.42.42,0,0,0,.21.06Z"/><path class="cls-2" d="M82.56,15.27a.75.75,0,0,0,0-1.5.75.75,0,0,0,0,1.5Z"/><path class="cls-2" d="M80.45,10.73a.75.75,0,0,0,0-1.5.75.75,0,0,0,0,1.5Z"/><path class="cls-2" d="M78,14.13a.75.75,0,0,0,0-1.5.75.75,0,0,0,0,1.5Z"/><path class="cls-3" d="M85.79,21.25a.75.75,0,0,0,0-1.5.75.75,0,0,0,0,1.5Z"/><path class="cls-3" d="M87.74,24a.75.75,0,0,0,0-1.5.75.75,0,0,0,0,1.5Z"/><path class="cls-3" d="M84.66,24.17a.75.75,0,0,0,0-1.5.75.75,0,0,0,0,1.5Z"/><path class="cls-3" d="M82.07,22.39a.75.75,0,0,0,0-1.5.75.75,0,0,0,0,1.5Z"/><path class="cls-3" d="M81,25.2v.16a.41.41,0,0,0,0,.16.3.3,0,0,0,.09.13.38.38,0,0,0,.13.09.33.33,0,0,0,.17,0l.11,0a.42.42,0,0,0,.18-.11l.07-.08a.54.54,0,0,0,0-.21V25.2a.41.41,0,0,0,0-.16.34.34,0,0,0-.09-.14.26.26,0,0,0-.13-.08.32.32,0,0,0-.16,0h-.12a.42.42,0,0,0-.18.11l-.06.09a.37.37,0,0,0-.06.21Z"/><path class="cls-3" d="M85.79,26.92a.75.75,0,0,0,0-1.5.75.75,0,0,0,0,1.5Z"/><path class="cls-2" d="M119.37,33.93h4.74a7.19,7.19,0,0,1,7.18,7.18v7.06Z"/><path class="cls-2" d="M40.69,33.93H36a7.18,7.18,0,0,0-7.18,7.18v7.06Z"/><path class="cls-2" d="M119.37,153.21h4.74a7.18,7.18,0,0,0,7.18-7.18V139Z"/><path class="cls-2" d="M40.69,153.21H36A7.17,7.17,0,0,1,28.78,146V139Z"/><path class="cls-3" d="M55.17,140.17a3.47,3.47,0,0,1-1.24-1.84l1.55-.61a2.42,2.42,0,0,0,.63,1.11,1.68,1.68,0,0,0,2,.14.87.87,0,0,0,.4-.76,1,1,0,0,0-.38-.81,4.88,4.88,0,0,0-1.33-.66l-.53-.2a3.79,3.79,0,0,1-1.45-.9,2.07,2.07,0,0,1-.6-1.53,2.25,2.25,0,0,1,.36-1.24,2.35,2.35,0,0,1,1-.89,3.18,3.18,0,0,1,1.47-.33,2.88,2.88,0,0,1,1.87.56,2.94,2.94,0,0,1,.95,1.31l-1.46.61a1.47,1.47,0,0,0-.47-.68,1.32,1.32,0,0,0-.87-.28,1.5,1.5,0,0,0-.88.25.77.77,0,0,0-.35.66.86.86,0,0,0,.33.67,3.54,3.54,0,0,0,1.09.53l.55.18a4.18,4.18,0,0,1,1.74,1,2.33,2.33,0,0,1,.61,1.68,2.38,2.38,0,0,1-.44,1.45,2.68,2.68,0,0,1-1.13.89,3.55,3.55,0,0,1-1.43.29A3.32,3.32,0,0,1,55.17,140.17Z"/><path class="cls-3" d="M63.59,140.21a4.68,4.68,0,0,1-1.66-6.3,4.45,4.45,0,0,1,1.66-1.65,4.63,4.63,0,0,1,2.33-.61,4.22,4.22,0,0,1,3.28,1.44L68,134.21a2.68,2.68,0,0,0-2.11-1,3.1,3.1,0,0,0-1.49.37,2.77,2.77,0,0,0-1.06,1.06,3.16,3.16,0,0,0-.39,1.58,3.11,3.11,0,0,0,.39,1.58,2.7,2.7,0,0,0,1.06,1.06,3,3,0,0,0,1.49.38,2.9,2.9,0,0,0,2.32-1.15l1.17,1.11a4.24,4.24,0,0,1-1.54,1.19,4.5,4.5,0,0,1-2,.41A4.62,4.62,0,0,1,63.59,140.21Z"/><path class="cls-3" d="M73.41,131.85h1.9l3.3,8.77H76.78l-.73-2.1H72.69l-.73,2.1H70.13Zm2.1,5.16-.77-2.21-.32-1.05h-.1L74,134.8,73.22,137Z"/><path class="cls-3" d="M79.79,131.85h1.93l3.52,5.88h.1l-.1-1.69v-4.19h1.65v8.77H85.15l-3.73-6.21h-.09l.09,1.69v4.52H79.79Z"/><path class="cls-3" d="M91.75,131.85h2.13L96.21,138h.09l2.33-6.16h2.14v8.77H99.13V136.3l.1-1.46h-.1l-2.23,5.78H95.62l-2.24-5.78h-.1l.1,1.46v4.32H91.75Z"/><path class="cls-3" d="M102.77,131.85h5.56v1.57h-3.91v2h3.52V137h-3.52v2h3.91v1.57h-5.56Z"/></svg>