<svg id="Layer_1" data-name="Layer 1" xmlns="http://www.w3.org/2000/svg" viewBox="0 0 160 160"><defs><style>.cls-1{fill:#e22739;}.cls-2{fill:#fff;}</style></defs><path class="cls-1" d="M120.68,152.89H39.32A14.29,14.29,0,0,1,25,138.6V21.4A14.29,14.29,0,0,1,39.32,7.11h81.36A14.29,14.29,0,0,1,135,21.4V138.6A14.29,14.29,0,0,1,120.68,152.89Z"/><path class="cls-2" d="M63,23.88a2.75,2.75,0,0,1-1-1.48L63.1,22a2,2,0,0,0,.58,1,1.37,1.37,0,0,0,1,.38,1.48,1.48,0,0,0,.92-.28.89.89,0,0,0,.37-.76.94.94,0,0,0-.33-.74A3.62,3.62,0,0,0,64.48,21L64,20.79a3.41,3.41,0,0,1-1.23-.73,1.69,1.69,0,0,1-.5-1.27,1.82,1.82,0,0,1,.29-1,2.08,2.08,0,0,1,.82-.73,2.57,2.57,0,0,1,1.19-.27,2.35,2.35,0,0,1,1.53.46,2.29,2.29,0,0,1,.76,1l-1,.43a1.32,1.32,0,0,0-.43-.61,1.25,1.25,0,0,0-.81-.26,1.37,1.37,0,0,0-.84.25.78.78,0,0,0-.34.65.76.76,0,0,0,.3.62,3.28,3.28,0,0,0,1,.47l.46.16a3.62,3.62,0,0,1,1.45.85,1.89,1.89,0,0,1,.51,1.39,1.94,1.94,0,0,1-.36,1.2,2.34,2.34,0,0,1-.93.72,3.17,3.17,0,0,1-1.17.23A2.65,2.65,0,0,1,63,23.88Z"/><path class="cls-2" d="M69.25,24.06a2.54,2.54,0,0,1-1-1,3.14,3.14,0,0,1,0-2.84,2.58,2.58,0,0,1,1-1,2.69,2.69,0,0,1,1.39-.35,2.59,2.59,0,0,1,1.45.38,2.16,2.16,0,0,1,.86,1l-1,.43a1.3,1.3,0,0,0-1.32-.83,1.37,1.37,0,0,0-.76.22,1.48,1.48,0,0,0-.56.6,1.87,1.87,0,0,0-.21.9,1.91,1.91,0,0,0,.21.91,1.5,1.5,0,0,0,.56.61,1.45,1.45,0,0,0,.76.21,1.65,1.65,0,0,0,.85-.21,1.43,1.43,0,0,0,.53-.63L73,23a2.42,2.42,0,0,1-.9,1.05,2.68,2.68,0,0,1-1.45.38A2.79,2.79,0,0,1,69.25,24.06Z"/><path class="cls-2" d="M74.52,24.19a1.63,1.63,0,0,1-.68-.62,1.74,1.74,0,0,1-.24-.91,1.53,1.53,0,0,1,.6-1.27,2.48,2.48,0,0,1,1.54-.47,3.43,3.43,0,0,1,.82.09,3,3,0,0,1,.58.19v-.27a1,1,0,0,0-.36-.78,1.35,1.35,0,0,0-.91-.3,1.6,1.6,0,0,0-.75.18,1.53,1.53,0,0,0-.57.47l-.78-.6a2.33,2.33,0,0,1,.9-.74,2.7,2.7,0,0,1,1.22-.26,2.51,2.51,0,0,1,1.74.55A2,2,0,0,1,78.24,21v3.24h-1.1v-.62h0a1.82,1.82,0,0,1-.63.56,1.92,1.92,0,0,1-.94.22A2.19,2.19,0,0,1,74.52,24.19Zm1.93-.9a1.49,1.49,0,0,0,.51-.52,1.4,1.4,0,0,0,.18-.7,2.17,2.17,0,0,0-.54-.21,2.36,2.36,0,0,0-.65-.08A1.42,1.42,0,0,0,75,22a.81.81,0,0,0-.29.64.75.75,0,0,0,.27.59,1.1,1.1,0,0,0,.71.23A1.41,1.41,0,0,0,76.45,23.29Z"/><path class="cls-2" d="M79.46,19.06h1.07v.68h0a1.74,1.74,0,0,1,.67-.61,2,2,0,0,1,.94-.23,1.83,1.83,0,0,1,1.44.55A2.18,2.18,0,0,1,84.12,21v3.29H83V21.11a1.18,1.18,0,0,0-.3-.89,1.15,1.15,0,0,0-.83-.29,1.13,1.13,0,0,0-.67.21,1.41,1.41,0,0,0-.46.56,1.7,1.7,0,0,0-.16.74v2.81H79.46Z"/><path class="cls-2" d="M89.24,24.22a1.45,1.45,0,0,1-.5-.3,1.6,1.6,0,0,1-.43-1.19V20.05H87.4v-1h.91V17.59h1.11v1.47h1.27v1H89.42v2.44a.85.85,0,0,0,.17.59.64.64,0,0,0,.53.2,1,1,0,0,0,.3,0,1.15,1.15,0,0,0,.29-.15v1.09a2.15,2.15,0,0,1-1.47,0Z"/><path class="cls-2" d="M92.58,24.05a2.56,2.56,0,0,1-1-1,3.07,3.07,0,0,1,0-2.81,2.56,2.56,0,0,1,1-1,2.92,2.92,0,0,1,2.81,0,2.66,2.66,0,0,1,1,1,3.05,3.05,0,0,1,0,2.8,2.56,2.56,0,0,1-1,1,2.92,2.92,0,0,1-2.81,0Zm2.2-.87a1.49,1.49,0,0,0,.58-.61,2,2,0,0,0,0-1.83,1.52,1.52,0,0,0-.58-.6,1.61,1.61,0,0,0-1.59,0,1.52,1.52,0,0,0-.58.6,2,2,0,0,0,0,1.83,1.49,1.49,0,0,0,.58.61,1.68,1.68,0,0,0,1.59,0Z"/><path class="cls-2" d="M46.74,28.52h3.39a5.58,5.58,0,0,1,2.74.64,4.42,4.42,0,0,1,1.8,1.76,5.36,5.36,0,0,1,.63,2.63,5.29,5.29,0,0,1-.63,2.62,4.39,4.39,0,0,1-1.8,1.77,5.69,5.69,0,0,1-2.74.63H46.74Zm3.31,8.26a3.33,3.33,0,0,0,2.48-.87,3.2,3.2,0,0,0,.86-2.36,3.24,3.24,0,0,0-.86-2.37,3.37,3.37,0,0,0-2.48-.86H48.63v6.46Z"/><path class="cls-2" d="M58.08,38.3a3.62,3.62,0,0,1-1.36-1.36,4.16,4.16,0,0,1,0-3.88,3.58,3.58,0,0,1,1.36-1.37,3.94,3.94,0,0,1,2-.5,3.89,3.89,0,0,1,2,.5,3.58,3.58,0,0,1,1.36,1.37,4.16,4.16,0,0,1,0,3.88A3.62,3.62,0,0,1,62,38.3a3.89,3.89,0,0,1-2,.5A3.94,3.94,0,0,1,58.08,38.3Zm3-1.45a1.87,1.87,0,0,0,.72-.73A2.34,2.34,0,0,0,62,35a2.28,2.28,0,0,0-.26-1.11,1.81,1.81,0,0,0-.72-.73,2,2,0,0,0-1-.26,1.91,1.91,0,0,0-1,.26,1.83,1.83,0,0,0-.73.73A2.17,2.17,0,0,0,58.08,35a2.23,2.23,0,0,0,.27,1.11,1.91,1.91,0,0,0,1.71,1A2,2,0,0,0,61,36.85Z"/><path class="cls-2" d="M64.32,31.42h2.07l1.23,4.64h.1l1.43-4.64H71l1.43,4.64h.09l1.24-4.64h2l-2.29,7.15h-2l-1.46-4.63H70l-1.45,4.63h-2Z"/><path class="cls-2" d="M76.82,31.42h1.72v.89h.12a2.27,2.27,0,0,1,.91-.82,2.77,2.77,0,0,1,1.28-.3,2.42,2.42,0,0,1,2,.79,3.18,3.18,0,0,1,.68,2.14v4.45H81.65V34.35a1.55,1.55,0,0,0-.35-1.07,1.31,1.31,0,0,0-1-.38,1.49,1.49,0,0,0-1.2.58,2.26,2.26,0,0,0-.45,1.45v3.64H76.82Z"/><path class="cls-2" d="M85.23,28.52h1.84V38.57H85.23Z"/><path class="cls-2" d="M90.25,38.3a3.53,3.53,0,0,1-1.35-1.36,4.09,4.09,0,0,1,0-3.88,3.49,3.49,0,0,1,1.35-1.37,4.15,4.15,0,0,1,4,0,3.49,3.49,0,0,1,1.35,1.37,4.09,4.09,0,0,1,0,3.88A3.53,3.53,0,0,1,94.2,38.3a4.15,4.15,0,0,1-4,0Zm3-1.45a1.87,1.87,0,0,0,.72-.73A2.24,2.24,0,0,0,94.2,35a2.17,2.17,0,0,0-.27-1.11,1.81,1.81,0,0,0-.72-.73,1.94,1.94,0,0,0-1-.26,2,2,0,0,0-1,.26,1.81,1.81,0,0,0-.72.73A2.08,2.08,0,0,0,90.25,35a2.13,2.13,0,0,0,.28,1.11,1.9,1.9,0,0,0,.72.74,2,2,0,0,0,1,.25A1.93,1.93,0,0,0,93.21,36.85Z"/><path class="cls-2" d="M97.76,38.13A2.26,2.26,0,0,1,97,36.38a2.2,2.2,0,0,1,.38-1.26,2.49,2.49,0,0,1,1-.84,3.5,3.5,0,0,1,1.46-.3,4.84,4.84,0,0,1,1.89.33V34a1.18,1.18,0,0,0-.44-1,1.81,1.81,0,0,0-1.18-.36,2.24,2.24,0,0,0-1,.23,2.35,2.35,0,0,0-.78.61l-1.18-.93a3.5,3.5,0,0,1,1.31-1,3.89,3.89,0,0,1,1.71-.37,3.63,3.63,0,0,1,2.5.76,2.8,2.8,0,0,1,.86,2.22v4.4H101.8v-.73h-.11a2.24,2.24,0,0,1-.85.69,2.6,2.6,0,0,1-1.21.27A2.65,2.65,0,0,1,97.76,38.13Zm3.57-1.27a1.72,1.72,0,0,0,.47-1.21,3.5,3.5,0,0,0-1.5-.33c-1,0-1.43.35-1.43,1.06a.88.88,0,0,0,.31.71,1.26,1.26,0,0,0,.88.28A1.63,1.63,0,0,0,101.33,36.86Z"/><path class="cls-2" d="M106.56,38.31A3.37,3.37,0,0,1,105.31,37a4.45,4.45,0,0,1,0-3.94,3.33,3.33,0,0,1,1.25-1.35,3.22,3.22,0,0,1,1.76-.49,2.62,2.62,0,0,1,1.29.32,2.42,2.42,0,0,1,.86.78h.11l-.11-1V28.52h1.82V38.57h-1.71v-.85h-.11a2.21,2.21,0,0,1-.85.77,2.66,2.66,0,0,1-1.3.31A3.22,3.22,0,0,1,106.56,38.31Zm3-1.48a2,2,0,0,0,.71-.74,2.36,2.36,0,0,0,0-2.19,2,2,0,0,0-.71-.74,2,2,0,0,0-1-.26,1.92,1.92,0,0,0-1,.26,1.87,1.87,0,0,0-.71.74,2.36,2.36,0,0,0,0,2.19,1.81,1.81,0,0,0,.71.74,1.84,1.84,0,0,0,1,.27A1.87,1.87,0,0,0,109.6,36.83Z"/><path class="cls-2" d="M36.41,74.29a1.18,1.18,0,0,1-1.18-1.18V58.87a6.58,6.58,0,0,1,6.58-6.57h6.3a1.17,1.17,0,0,1,0,2.34h-6.3a4.24,4.24,0,0,0-4.23,4.23V73.11A1.17,1.17,0,0,1,36.41,74.29Z"/><path class="cls-2" d="M122.92,74.29a1.17,1.17,0,0,1-1.17-1.18V58.87a4.24,4.24,0,0,0-4.23-4.23h-6.3a1.17,1.17,0,1,1,0-2.34h6.3a6.57,6.57,0,0,1,6.57,6.57V73.11A1.17,1.17,0,0,1,122.92,74.29Z"/><path class="cls-2" d="M56.05,141.16H41.81a6.59,6.59,0,0,1-6.58-6.58V120.34a1.18,1.18,0,1,1,2.35,0v14.24a4.24,4.24,0,0,0,4.23,4.23H56.05a1.18,1.18,0,1,1,0,2.35Z"/><path class="cls-2" d="M117.52,141.16H103.28a1.18,1.18,0,1,1,0-2.35h14.24a4.24,4.24,0,0,0,4.23-4.23V120.34a1.17,1.17,0,1,1,2.34,0v14.24A6.58,6.58,0,0,1,117.52,141.16Z"/><polygon class="cls-2" points="91.36 52.22 81.06 59.29 70.76 52.22 76.41 52.22 76.41 45.69 85.71 45.69 85.71 52.22 91.36 52.22"/></svg>