<svg id="Layer_1" data-name="Layer 1" xmlns="http://www.w3.org/2000/svg" xmlns:xlink="http://www.w3.org/1999/xlink" viewBox="0 0 160 160"><defs><style>.cls-1{fill:#fff;}.cls-2{fill:#0037c2;}.cls-3{fill:url(#linear-gradient);}.cls-4{fill:url(#linear-gradient-2);}.cls-5{fill:url(#linear-gradient-3);}.cls-6{fill:url(#linear-gradient-4);}</style><linearGradient id="linear-gradient" x1="78.71" y1="231.41" x2="103.99" y2="231.41" gradientTransform="matrix(1, 0.13, 0, 1, 0, -221.91)" gradientUnits="userSpaceOnUse"><stop offset="0" stop-color="#ffcc01"/><stop offset="1" stop-color="#ff9000"/></linearGradient><linearGradient id="linear-gradient-2" x1="78.71" y1="239.65" x2="119.39" y2="239.65" xlink:href="#linear-gradient"/><linearGradient id="linear-gradient-3" x1="56.01" y1="235.87" x2="81.29" y2="235.87" xlink:href="#linear-gradient"/><linearGradient id="linear-gradient-4" x1="40.61" y1="250.16" x2="81.29" y2="250.16" xlink:href="#linear-gradient"/></defs><path class="cls-1" d="M114.3,46.71,45.7,57.29a5.2,5.2,0,0,0-4.3,5V151.8a3.6,3.6,0,0,0,4.3,3.65l68.6-10.58a5.2,5.2,0,0,0,4.3-5V50.36A3.6,3.6,0,0,0,114.3,46.71Z"/><path class="cls-2" d="M45,156.24a4.31,4.31,0,0,1-4.37-4.44V62.26a6,6,0,0,1,4.93-5.7L114.18,46a4.49,4.49,0,0,1,3.66,1,4.38,4.38,0,0,1,1.5,3.4V139.9a6,6,0,0,1-4.93,5.7L45.82,156.17A4.29,4.29,0,0,1,45,156.24Zm69.38-108.8L45.82,58a4.45,4.45,0,0,0-3.69,4.24V151.8a2.94,2.94,0,0,0,1,2.28,3.07,3.07,0,0,0,2.47.64l68.59-10.58a4.45,4.45,0,0,0,3.69-4.24V50.36a2.93,2.93,0,0,0-1-2.28A3,3,0,0,0,114.41,47.44Z"/><path class="cls-2" d="M121,31.2,39,43.1a2.75,2.75,0,0,0-2.3,2.63v24.5a2,2,0,0,0,2.3,2l82-11.9a2.75,2.75,0,0,0,2.3-2.63V33.17A2,2,0,0,0,121,31.2Z"/><path class="cls-3" d="M80,38.44a1.15,1.15,0,0,1-1-.33,1.16,1.16,0,0,1-.26-1,132.66,132.66,0,0,1,3.87-14.28C86,12.66,89.73,6.51,93.7,4.5a6.35,6.35,0,0,1,6.63.43c3.49,2.27,4.51,6,2.94,10.66C100,25.53,85.76,37.6,80,38.44Zm15.8-32a4.21,4.21,0,0,0-1.23.4c-6,3.05-11,20.15-12.9,28.53,5.48-2.4,16.46-12.1,19.17-20.24,1.2-3.61.51-6.2-2.12-7.91A4.18,4.18,0,0,0,95.8,6.4Z"/><path class="cls-4" d="M84.62,38.47a15.9,15.9,0,0,1-5,0,1.11,1.11,0,0,1-.84-1.49,1.52,1.52,0,0,1,1.62-1.08c6.06,1,12-2.51,18.33-6.26s13-7.71,19.77-6.56a1.12,1.12,0,0,1,.84,1.5,1.52,1.52,0,0,1-1.62,1.08c-5.86-1-11.72,2.48-17.93,6.18C94.86,34.72,89.82,37.71,84.62,38.47Z"/><path class="cls-5" d="M80,38.43c-5.76.83-20-7.12-23.27-16.1-1.57-4.25-.55-8.23,2.94-11.51,2.7-2.55,5.1-2.68,6.63-2.35,4,.85,7.7,5.92,11.09,15.07a106.17,106.17,0,0,1,3.87,13.15A1.4,1.4,0,0,1,81,37.81,1.55,1.55,0,0,1,80,38.43ZM64.2,11a5.44,5.44,0,0,0-2.92,1.62,7.31,7.31,0,0,0-2.12,8.52C61.87,28.48,72.85,35,78.33,35.81,76.43,28,71.46,12.32,65.43,11A3.4,3.4,0,0,0,64.2,11Z"/><path class="cls-6" d="M75.38,39.8c-5.21.75-10.24-.78-15.16-2.28-6.21-1.89-12.07-3.68-17.93-1a1.14,1.14,0,0,1-1.62-.6,1.49,1.49,0,0,1,.84-1.74c6.8-3.13,13.39-1.13,19.77.82s12.27,3.73,18.33.95a1.13,1.13,0,0,1,1.62.6,1.49,1.49,0,0,1-.84,1.74A18.07,18.07,0,0,1,75.38,39.8Z"/><path class="cls-1" d="M59.94,58.59a2.2,2.2,0,0,1-1-1.33L60,56.68a1.72,1.72,0,0,0,.57.89,1.23,1.23,0,0,0,1,.23,1.63,1.63,0,0,0,.9-.41,1,1,0,0,0,.38-.81.8.8,0,0,0-.33-.68,3.08,3.08,0,0,0-1.14-.41l-.45-.1a2.78,2.78,0,0,1-1.22-.54,1.46,1.46,0,0,1-.49-1.18,2,2,0,0,1,.29-1,2.7,2.7,0,0,1,.81-.84,2.8,2.8,0,0,1,1.17-.43,2.08,2.08,0,0,1,1.51.23,1.88,1.88,0,0,1,.75.92l-1,.58a1.17,1.17,0,0,0-.43-.54,1.08,1.08,0,0,0-.8-.14,1.51,1.51,0,0,0-.83.37.91.91,0,0,0-.33.69.64.64,0,0,0,.3.57,2.67,2.67,0,0,0,.94.32l.45.09a2.92,2.92,0,0,1,1.43.63A1.65,1.65,0,0,1,64,56.41a2.12,2.12,0,0,1-.36,1.23,2.74,2.74,0,0,1-.92.84,3.29,3.29,0,0,1-1.15.4A2.46,2.46,0,0,1,59.94,58.59Z"/><path class="cls-1" d="M66.08,57.87a2,2,0,0,1-.94-.83,2.66,2.66,0,0,1-.34-1.36,3.18,3.18,0,0,1,.34-1.44,3,3,0,0,1,.94-1.11,3.09,3.09,0,0,1,1.38-.55,2.44,2.44,0,0,1,1.43.17,1.66,1.66,0,0,1,.84.91l-1,.57a1.1,1.1,0,0,0-1.3-.62,1.56,1.56,0,0,0-.75.32,1.88,1.88,0,0,0-.56.68,2.09,2.09,0,0,0-.2.91,1.8,1.8,0,0,0,.2.87,1.25,1.25,0,0,0,1.31.62,1.82,1.82,0,0,0,.83-.33,1.7,1.7,0,0,0,.53-.7l1,.29a2.79,2.79,0,0,1-.88,1.16,2.92,2.92,0,0,1-1.43.59A2.62,2.62,0,0,1,66.08,57.87Z"/><path class="cls-1" d="M71.29,57.25a1.25,1.25,0,0,1-.67-.52,1.5,1.5,0,0,1-.24-.86A1.76,1.76,0,0,1,71,54.53a2.77,2.77,0,0,1,1.52-.68,3.28,3.28,0,0,1,.81,0,2.88,2.88,0,0,1,.57.11v-.26a.82.82,0,0,0-.35-.72,1.25,1.25,0,0,0-.9-.17,2,2,0,0,0-.74.28,1.76,1.76,0,0,0-.56.56l-.77-.49a3,3,0,0,1,.88-.86,3.07,3.07,0,0,1,1.21-.43,2.19,2.19,0,0,1,1.71.3A1.71,1.71,0,0,1,75,53.58v3.19l-1.09.16v-.61h-.05a2.15,2.15,0,0,1-1.55,1A2,2,0,0,1,71.29,57.25Zm1.9-1.16a1.77,1.77,0,0,0,.5-.59,1.54,1.54,0,0,0,.18-.72,1.94,1.94,0,0,0-.54-.13,2.23,2.23,0,0,0-.63,0,1.64,1.64,0,0,0-.92.38.94.94,0,0,0-.29.68.63.63,0,0,0,.27.54,1,1,0,0,0,.71.12A1.74,1.74,0,0,0,73.19,56.09Z"/><path class="cls-1" d="M76.16,51.48l1-.15V52h.05a2.15,2.15,0,0,1,.66-.69,2.07,2.07,0,0,1,.93-.37,1.59,1.59,0,0,1,1.42.34,1.88,1.88,0,0,1,.49,1.42v3.24l-1.11.16V53a.86.86,0,0,0-1.11-1,1.18,1.18,0,0,0-.66.3,1.52,1.52,0,0,0-.45.61,1.83,1.83,0,0,0-.17.76v2.77l-1.1.16Z"/><path class="cls-1" d="M85.59,49.12l-2,.29V48.33l5.14-.74v1.07l-2,.29v6.12l-1.12.16Z"/><path class="cls-1" d="M89.84,54.42a2.07,2.07,0,0,1-1-.84,2.54,2.54,0,0,1-.34-1.34,3.08,3.08,0,0,1,.34-1.43,3.14,3.14,0,0,1,1-1.12,3.06,3.06,0,0,1,1.38-.56,2.55,2.55,0,0,1,1.39.16,2.17,2.17,0,0,1,1,.85,2.51,2.51,0,0,1,.34,1.33,3.1,3.1,0,0,1-.34,1.43,3.21,3.21,0,0,1-1,1.12,3.09,3.09,0,0,1-1.39.55A2.42,2.42,0,0,1,89.84,54.42ZM92,53.24a1.79,1.79,0,0,0,.58-.67,2,2,0,0,0,.22-.94,1.62,1.62,0,0,0-.22-.88,1.18,1.18,0,0,0-.58-.5,1.46,1.46,0,0,0-.78-.09,1.66,1.66,0,0,0-.78.32,1.8,1.8,0,0,0-.58.67,2,2,0,0,0-.22.93,1.71,1.71,0,0,0,.22.88,1.19,1.19,0,0,0,.58.51,1.46,1.46,0,0,0,.78.09A1.77,1.77,0,0,0,92,53.24Z"/><path class="cls-1" d="M96.39,46.48l1.26-.19,1.11,4.47.12.61h.06l.16-.65,1.44-4.84,1.12-.16L103,50.14l.16.59h.06l.12-.63,1.12-4.79,1.25-.18-1.9,7.46-1.19.18-1.37-4.54-.15-.62h-.06l-.17.67-1.43,4.95-1.16.17Z"/><path class="cls-1" d="M106.46,46.13a.62.62,0,0,1-.22-.5.81.81,0,0,1,.22-.56.85.85,0,0,1,.53-.29.63.63,0,0,1,.52.14.6.6,0,0,1,.22.49.79.79,0,0,1-.22.56.77.77,0,0,1-.52.29A.61.61,0,0,1,106.46,46.13Zm0,1,1.11-.16v5.12l-1.11.16Z"/><path class="cls-1" d="M108.91,46.73l1.06-.15v.67h0a2,2,0,0,1,.66-.69,2.21,2.21,0,0,1,.92-.37,1.58,1.58,0,0,1,1.42.34,1.88,1.88,0,0,1,.49,1.42v3.24l-1.1.16V48.25a.87.87,0,0,0-1.12-1,1.18,1.18,0,0,0-.66.3,1.73,1.73,0,0,0-.45.61,1.85,1.85,0,0,0-.16.76v2.77l-1.11.16Z"/><g id="mobile"><path class="cls-1" d="M46.21,51.43l4.14-.6a1.53,1.53,0,0,1,1.81,1.55V62.1a1.39,1.39,0,0,1-1.07,1.31H51l-4.8.7a1.53,1.53,0,0,1-1.81-1.55V53.5A2.16,2.16,0,0,1,46.21,51.43Zm-.53,11,3.49-.51a.77.77,0,0,0,.64-.9h0a.48.48,0,0,0-.14-.25l-1.76-1.87a.6.6,0,0,1,.11-.75c.35-.43.7-.25.7-.25L50.24,59a.7.7,0,0,0,1-.26l.22-.35a.71.71,0,0,0,.12-.39v-5a.56.56,0,0,0-.66-.57l-5.21.76a.79.79,0,0,0-.67.76v8A.57.57,0,0,0,45.68,62.45Z"/><path class="cls-1" d="M47,52.35,49.32,52l0,0v-.24s0,0,0,0L47,52.07s0,0,0,0v.23A0,0,0,0,0,47,52.35Z"/><path class="cls-1" d="M47.91,58.91l1.76,1.87a.48.48,0,0,1,.14.25l.09.33a.55.55,0,0,0,.64.38l.35-.05a.79.79,0,0,0,.66-.75V58.16l-.34.54a.7.7,0,0,1-1,.26l-1.52-1.05s-.35-.18-.7.25A.6.6,0,0,0,47.91,58.91Z"/><path class="cls-1" d="M49.68,52l.23,0a0,0,0,0,0,0,0v-.23a0,0,0,0,0,0,0l-.23,0,0,0v.23A0,0,0,0,0,49.68,52Z"/><path class="cls-1" d="M47.91,58.91l1.76,1.87a.48.48,0,0,1,.14.25,7.36,7.36,0,0,0,.24.78,3.49,3.49,0,0,0,1,1.6l.15.09c1,.55,2.29-.46,2.46-2.09.13-1,0-4.78,0-4.78a2.31,2.31,0,0,0-.15-.94,1.06,1.06,0,0,0-.18-.24c-.39-.43-1.18,0-1.18.58v1.15h0l-.61,1-.34.54a.7.7,0,0,1-1,.26l-1.52-1.05s-.35-.18-.7.25A.6.6,0,0,0,47.91,58.91Z"/><ellipse class="cls-1" cx="48.19" cy="62.95" rx="0.63" ry="0.55" transform="translate(-30.72 55.36) rotate(-47.07)"/></g></svg>