<svg id="Layer_1" data-name="Layer 1" xmlns="http://www.w3.org/2000/svg" viewBox="0 0 160 160"><defs><style>.cls-1{fill:#302b35;}.cls-2{fill:#ead701;}.cls-3{fill:#fff900;}.cls-4{fill:none;stroke:#302b35;stroke-linecap:round;stroke-linejoin:round;stroke-width:8px;}.cls-5{fill:#dc1818;}</style></defs><path class="cls-1" d="M113.76,9.66C108.28,22.1,94.38,20.08,89.59,19a8.06,8.06,0,0,0,.46-2.7,8.14,8.14,0,0,0-1.12-4.14,6.81,6.81,0,0,0,1.12-6C88.21,7.3,86.51,8.36,85.49,9a7.14,7.14,0,0,0-5.91,0c-1-.64-2.72-1.7-4.56-2.87a6.84,6.84,0,0,0,1.12,6A8.14,8.14,0,0,0,75,16.27a8.32,8.32,0,0,0,.46,2.7C70.69,20.08,56.8,22.1,51.32,9.66,38.49,20.38,31.82,34.53,32.07,38.94c7.1-10.6,15.34-1.37,15.34-1.37s6.05-9.66,13.32-2.9c2.57-5.76,6.51-6.25,9.86-5.12.83,7.17,6.56,14.17,12,14.17s11.12-7,11.95-14.17c3.34-1.13,7.28-.64,9.86,5.12,7.27-6.76,13.31,2.9,13.31,2.9s8.24-9.23,15.34,1.37C133.26,34.53,126.59,20.38,113.76,9.66Z"/><path class="cls-2" d="M77.15,12.78l4,2.13a2.62,2.62,0,0,1-2.57.9C77,15.49,77.15,12.78,77.15,12.78Z"/><path class="cls-2" d="M87.93,12.78l-4.05,2.13a2.62,2.62,0,0,0,2.57.9C88.12,15.49,87.93,12.78,87.93,12.78Z"/><path class="cls-2" d="M87.92,16.73a5.35,5.35,0,0,1-.3,1h0a4.25,4.25,0,0,1-1.41,1.65,5,5,0,0,1-1.11.54l-.29-.55-.62.8a8.14,8.14,0,0,1-3.31,0l-.61-.8-.29.55a4.82,4.82,0,0,1-1.12-.54,4.34,4.34,0,0,1-1.41-1.65h0a4.29,4.29,0,0,1-.29-1c0,.06.29.89,2.07,1.46l.47.91.54-.65a16.15,16.15,0,0,0,2.3.25,16.16,16.16,0,0,0,2.29-.25l.54.65.47-.91C87.62,17.62,87.9,16.79,87.92,16.73Z"/><path class="cls-3" d="M138.62,95.75a56.4,56.4,0,1,1-112.79,0c0-31.14,25.25-71.4,56.39-71.4S138.62,64.61,138.62,95.75Z"/><path class="cls-1" d="M82.22,153.87A58.19,58.19,0,0,1,24.1,95.75c0-15.87,6.3-34,16.85-48.39C52.61,31.41,67.27,22.63,82.22,22.63s29.61,8.78,41.27,24.73C134,61.79,140.34,79.88,140.34,95.75A58.18,58.18,0,0,1,82.22,153.87Zm0-127.79c-13.82,0-27.49,8.28-38.48,23.31C33.6,63.25,27.55,80.58,27.55,95.75a54.67,54.67,0,0,0,109.34,0c0-15.17-6-32.5-16.18-46.36C109.71,34.36,96.05,26.08,82.22,26.08Z"/><path class="cls-4" d="M61.19,38.26a4.64,4.64,0,0,1-.45,3.09A3.35,3.35,0,0,1,58.29,43a3.67,3.67,0,0,1-2.55-.17,2.08,2.08,0,0,1-1-1.33,3,3,0,0,1-.08-1.09,2.12,2.12,0,0,1,.33-.85,8.88,8.88,0,0,0,1.55.74,2.58,2.58,0,0,0,1.23.24,1.19,1.19,0,0,0,.53-.2.43.43,0,0,0,.16-.24,1.28,1.28,0,0,0,0-.31.91.91,0,0,0-.54-.63,8,8,0,0,0-1.12-.5c-.43-.17-.87-.36-1.32-.58a3.86,3.86,0,0,1-1.25-1,3.75,3.75,0,0,1-.8-1.65,4.57,4.57,0,0,1,0-1.84A3.94,3.94,0,0,1,54,32a2.24,2.24,0,0,1,.58-1.85A3.71,3.71,0,0,1,56.87,29c1.92-.35,3.05.46,3.36,2.4A2.53,2.53,0,0,1,59.38,34a5.25,5.25,0,0,0-3.53-1.11,2.65,2.65,0,0,0,1.26,1.68,8.56,8.56,0,0,0,1,.47c.34.15.67.3,1,.47a5.83,5.83,0,0,1,.93.58A3.32,3.32,0,0,1,61.19,38.26Z"/><path class="cls-4" d="M68.25,28.49c.11.61.18,1,.2,1.23s0,.43.06.65a2.34,2.34,0,0,1-.05.69,3.73,3.73,0,0,1-.23.69A1.43,1.43,0,0,1,67,32.5a1.51,1.51,0,0,1-1.1-.26,4,4,0,0,1-.9-1,14.67,14.67,0,0,0,.1,3.39,5.55,5.55,0,0,0,1.34,3.32,1.43,1.43,0,0,0,1.23.43,3.68,3.68,0,0,0,1.57-.65,3.51,3.51,0,0,1,.13,1.17,3.81,3.81,0,0,1-.18,1,2.64,2.64,0,0,1-.41.76,2.88,2.88,0,0,1-2,.94,3.4,3.4,0,0,1-3.33-1.41,7.1,7.1,0,0,1-.88-1.71A12.44,12.44,0,0,1,62,36a9.12,9.12,0,0,1,.16-4.23,5.27,5.27,0,0,1,1.64-2.58,2.39,2.39,0,0,1,.44-.89,1.39,1.39,0,0,1,1-.53,3,3,0,0,1,1.57.36A2.76,2.76,0,0,0,68.25,28.49Z"/><path class="cls-4" d="M78.34,40.07a2.11,2.11,0,0,1-.49.42,1.83,1.83,0,0,1-.94.28c-.82,0-1.38-.74-1.69-2.36a9.38,9.38,0,0,1-1.25.16,4.41,4.41,0,0,1-.93,0,5.13,5.13,0,0,1-.4,1.91,1.16,1.16,0,0,1-1,.64A1.39,1.39,0,0,1,71,41a1.62,1.62,0,0,1-.47-.27l-.17-.15c-.2-6.18,0-10,.7-11.3a2.09,2.09,0,0,1,.71-.89,1.48,1.48,0,0,1,.65-.22l.39,0h.11c0-.15-.05-.23-.09-.39l.13-.21a1.45,1.45,0,0,1,.45-.38,1.87,1.87,0,0,1,.9-.27,1.91,1.91,0,0,1,1.76.88,11,11,0,0,1,1.27,3.73,82.9,82.9,0,0,1,1.18,8.29A1.66,1.66,0,0,1,78.34,40.07ZM73.13,36.3a5.45,5.45,0,0,1,1-.15,3.56,3.56,0,0,1,.61,0c-.51-2.37-1-4.36-1.37-6C73.25,32,73.16,34,73.13,36.3Z"/><path class="cls-4" d="M85,27.12a1.84,1.84,0,0,1,1.55-.56,1.8,1.8,0,0,1,1.48.6,3.28,3.28,0,0,1,.36,2c0,1-.2,2.75-.47,5.34s-.42,4.45-.46,5.58a2.25,2.25,0,0,1-1.69.56.75.75,0,0,1-.68-.27c-.89-.25-1.82-2.81-3-7.68-.06,2.73.37,5.9-.06,7.47-.07.25-.63.45-1.34.46s-1.08-.37-1.13-1.16c-.31-4.75-.47-7.13-.81-11.88a3.71,3.71,0,0,1,2.12-.91,1.24,1.24,0,0,1,.76.19,1.11,1.11,0,0,1,.42-.08c.47,0,.81.27,1,.83a20,20,0,0,1,.74,2.89c.28,1.37.45,2.24.52,2.6s.18.87.3,1.51.25,1.27.37,1.88c0-1.14.07-2.14.08-3,0-2.37,0-4.15,0-5.34C85,27.74,85,27.54,85,27.12Z"/><path class="cls-4" d="M94.58,27.46a2.85,2.85,0,0,1,.61-.15,3.45,3.45,0,0,1,.86,0,.85.85,0,0,1,.65.3,1.8,1.8,0,0,1,.72,0c.62.06,1,.47,1.1,1.21a75.87,75.87,0,0,1,.17,7.77c1-4,1.73-6.37,2-7.14s.62-1.23,1-1.32a1.46,1.46,0,0,1,.8.09,3.47,3.47,0,0,1,.91,0q1.2.18,1.47.72a3,3,0,0,1,.09,1.73s-.33,1.56-.94,4.6-1,5.25-1.24,6.61a2.63,2.63,0,0,1-1.51.15c-.6-.09-.85-.52-.76-1.32.35-2.89.52-4.33.86-7.22-1.45,5-2.45,7.41-3.13,7.32l-.21,0c-.29,0-.51-.25-.68-.65-.37-.87-.62-3.32-.81-7.36-.49,3.29-.42,7.25-1,8.17-.13.19-.77.28-1.19.25-.68-.07-1-.49-1-1.28.24-4.75.35-7.13.56-11.89a.85.85,0,0,1,.27-.27A2,2,0,0,1,94.58,27.46Z"/><path class="cls-4" d="M111.19,34.35c-.87-.21-1.31-.31-2.19-.5a16.46,16.46,0,0,0-.51,2.07l0,.13c1.85.32,2.86.52,3,.56a6.22,6.22,0,0,1-.11.87c-.18.83-.57,1.18-1.18,1.06-.84-.18-1.26-.26-2.1-.42-.1,1,0,1.55.39,1.78a.66.66,0,0,0,.28.11,4.64,4.64,0,0,0,2-.23c.23.22.28.64.14,1.25a2.88,2.88,0,0,1-1,1.61,2.76,2.76,0,0,1-2.37.39,3.24,3.24,0,0,1-2.21-1.51,6.31,6.31,0,0,1-.38-4.25,11.19,11.19,0,0,1,1.36-3.9l-.4,0a3.09,3.09,0,0,1-.09-2c.32-1.91,1-2.78,2.13-2.59l.52.1a14.69,14.69,0,0,1,1.8.53c.91.3,2.6.48,2.87.78a5.26,5.26,0,0,1-.21,1.88,5.32,5.32,0,0,1-.68,1.83A.94.94,0,0,1,111.19,34.35Z"/><path class="cls-5" d="M61.19,38.26a4.64,4.64,0,0,1-.45,3.09A3.35,3.35,0,0,1,58.29,43a3.67,3.67,0,0,1-2.55-.17,2.08,2.08,0,0,1-1-1.33,3,3,0,0,1-.08-1.09,2.12,2.12,0,0,1,.33-.85,8.88,8.88,0,0,0,1.55.74,2.58,2.58,0,0,0,1.23.24,1.19,1.19,0,0,0,.53-.2.43.43,0,0,0,.16-.24,1.28,1.28,0,0,0,0-.31.91.91,0,0,0-.54-.63,8,8,0,0,0-1.12-.5c-.43-.17-.87-.36-1.32-.58a3.86,3.86,0,0,1-1.25-1,3.75,3.75,0,0,1-.8-1.65,4.57,4.57,0,0,1,0-1.84A3.94,3.94,0,0,1,54,32a2.24,2.24,0,0,1,.58-1.85A3.71,3.71,0,0,1,56.87,29c1.92-.35,3.05.46,3.36,2.4A2.53,2.53,0,0,1,59.38,34a5.25,5.25,0,0,0-3.53-1.11,2.65,2.65,0,0,0,1.26,1.68,8.56,8.56,0,0,0,1,.47c.34.15.67.3,1,.47a5.83,5.83,0,0,1,.93.58A3.32,3.32,0,0,1,61.19,38.26Z"/><path class="cls-5" d="M68.25,28.49c.11.61.18,1,.2,1.23s0,.43.06.65a2.34,2.34,0,0,1-.05.69,3.73,3.73,0,0,1-.23.69A1.43,1.43,0,0,1,67,32.5a1.51,1.51,0,0,1-1.1-.26,4,4,0,0,1-.9-1,14.67,14.67,0,0,0,.1,3.39,5.55,5.55,0,0,0,1.34,3.32,1.43,1.43,0,0,0,1.23.43,3.68,3.68,0,0,0,1.57-.65,3.51,3.51,0,0,1,.13,1.17,3.81,3.81,0,0,1-.18,1,2.64,2.64,0,0,1-.41.76,2.88,2.88,0,0,1-2,.94,3.4,3.4,0,0,1-3.33-1.41,7.1,7.1,0,0,1-.88-1.71A12.44,12.44,0,0,1,62,36a9.12,9.12,0,0,1,.16-4.23,5.27,5.27,0,0,1,1.64-2.58,2.39,2.39,0,0,1,.44-.89,1.39,1.39,0,0,1,1-.53,3,3,0,0,1,1.57.36A2.76,2.76,0,0,0,68.25,28.49Z"/><path class="cls-5" d="M78.34,40.07a2.11,2.11,0,0,1-.49.42,1.83,1.83,0,0,1-.94.28c-.82,0-1.38-.74-1.69-2.36a9.38,9.38,0,0,1-1.25.16,4.41,4.41,0,0,1-.93,0,5.13,5.13,0,0,1-.4,1.91,1.16,1.16,0,0,1-1,.64A1.39,1.39,0,0,1,71,41a1.62,1.62,0,0,1-.47-.27l-.17-.15c-.2-6.18,0-10,.7-11.3a2.09,2.09,0,0,1,.71-.89,1.48,1.48,0,0,1,.65-.22l.39,0h.11c0-.15-.05-.23-.09-.39l.13-.21a1.45,1.45,0,0,1,.45-.38,1.87,1.87,0,0,1,.9-.27,1.91,1.91,0,0,1,1.76.88,11,11,0,0,1,1.27,3.73,82.9,82.9,0,0,1,1.18,8.29A1.66,1.66,0,0,1,78.34,40.07ZM73.13,36.3a5.45,5.45,0,0,1,1-.15,3.56,3.56,0,0,1,.61,0c-.51-2.37-1-4.36-1.37-6C73.25,32,73.16,34,73.13,36.3Z"/><path class="cls-5" d="M85,27.12a1.84,1.84,0,0,1,1.55-.56,1.8,1.8,0,0,1,1.48.6,3.28,3.28,0,0,1,.36,2c0,1-.2,2.75-.47,5.34s-.42,4.45-.46,5.58a2.25,2.25,0,0,1-1.69.56.75.75,0,0,1-.68-.27c-.89-.25-1.82-2.81-3-7.68-.06,2.73.37,5.9-.06,7.47-.07.25-.63.45-1.34.46s-1.08-.37-1.13-1.16c-.31-4.75-.47-7.13-.81-11.88a3.71,3.71,0,0,1,2.12-.91,1.24,1.24,0,0,1,.76.19,1.11,1.11,0,0,1,.42-.08c.47,0,.81.27,1,.83a20,20,0,0,1,.74,2.89c.28,1.37.45,2.24.52,2.6s.18.87.3,1.51.25,1.27.37,1.88c0-1.14.07-2.14.08-3,0-2.37,0-4.15,0-5.34C85,27.74,85,27.54,85,27.12Z"/><path class="cls-5" d="M94.58,27.46a2.85,2.85,0,0,1,.61-.15,3.45,3.45,0,0,1,.86,0,.85.85,0,0,1,.65.3,1.8,1.8,0,0,1,.72,0c.62.06,1,.47,1.1,1.21a75.87,75.87,0,0,1,.17,7.77c1-4,1.73-6.37,2-7.14s.62-1.23,1-1.32a1.46,1.46,0,0,1,.8.09,3.47,3.47,0,0,1,.91,0q1.2.18,1.47.72a3,3,0,0,1,.09,1.73s-.33,1.56-.94,4.6-1,5.25-1.24,6.61a2.63,2.63,0,0,1-1.51.15c-.6-.09-.85-.52-.76-1.32.35-2.89.52-4.33.86-7.22-1.45,5-2.45,7.41-3.13,7.32l-.21,0c-.29,0-.51-.25-.68-.65-.37-.87-.62-3.32-.81-7.36-.49,3.29-.42,7.25-1,8.17-.13.19-.77.28-1.19.25-.68-.07-1-.49-1-1.28.24-4.75.35-7.13.56-11.89a.85.85,0,0,1,.27-.27A2,2,0,0,1,94.58,27.46Z"/><path class="cls-5" d="M111.19,34.35c-.87-.21-1.31-.31-2.19-.5a16.46,16.46,0,0,0-.51,2.07l0,.13c1.85.32,2.86.52,3,.56a6.22,6.22,0,0,1-.11.87c-.18.83-.57,1.18-1.18,1.06-.84-.18-1.26-.26-2.1-.42-.1,1,0,1.55.39,1.78a.66.66,0,0,0,.28.11,4.64,4.64,0,0,0,2-.23c.23.22.28.64.14,1.25a2.88,2.88,0,0,1-1,1.61,2.76,2.76,0,0,1-2.37.39,3.24,3.24,0,0,1-2.21-1.51,6.31,6.31,0,0,1-.38-4.25,11.19,11.19,0,0,1,1.36-3.9l-.4,0a3.09,3.09,0,0,1-.09-2c.32-1.91,1-2.78,2.13-2.59l.52.1a14.69,14.69,0,0,1,1.8.53c.91.3,2.6.48,2.87.78a5.26,5.26,0,0,1-.21,1.88,5.32,5.32,0,0,1-.68,1.83A.94.94,0,0,1,111.19,34.35Z"/></svg>