<svg id="Layer_1" data-name="Layer 1" xmlns="http://www.w3.org/2000/svg" viewBox="0 0 160 160"><defs><style>.cls-1{fill:#efbf9c;}.cls-2{fill:#e84500;}</style></defs><path class="cls-1" d="M131.27,67.26H28.73a1.92,1.92,0,0,1-1.93-1.92h0a1.92,1.92,0,0,1,1.93-1.93H131.27a1.92,1.92,0,0,1,1.93,1.93h0A1.92,1.92,0,0,1,131.27,67.26Z"/><path class="cls-1" d="M34.23,65.63h91.55a0,0,0,0,1,0,0v80.61a7.85,7.85,0,0,1-7.85,7.85H42.08a7.85,7.85,0,0,1-7.85-7.85V65.63a0,0,0,0,1,0,0Z"/><path class="cls-1" d="M123.8,61.92H36a2.1,2.1,0,0,1-2.22-2.12c1.45-21.6,21.53-38.7,46.11-38.7S124.57,38.2,126,59.8A2.1,2.1,0,0,1,123.8,61.92Z"/><path class="cls-1" d="M87.92,12.92a1.3,1.3,0,0,1-.7,1h0l-.08,0a7.45,7.45,0,0,0-2.52,3.12,8.76,8.76,0,0,0-.29,4.74H79a8.76,8.76,0,0,0-.29-4.74A7.26,7.26,0,0,0,76.17,14l-.1-.07a1.28,1.28,0,0,1-.71-1c0-1.17,2.81-2.12,6.29-2.12S87.92,11.75,87.92,12.92Z"/><path class="cls-1" d="M105.66,23.77c1.12-1.36,2.27-2.67,3.41-4l3.48-3.94A39.51,39.51,0,0,1,116.11,12a21.66,21.66,0,0,1,4.39-3l.15.15a21.66,21.66,0,0,1-3,4.39A39.51,39.51,0,0,1,113.76,17l-3.94,3.48c-1.34,1.14-2.65,2.29-4,3.41Z"/><path class="cls-1" d="M101.15,21.76c.39-1.14.8-2.28,1.25-3.39a9,9,0,0,1,.69-1.67,5.71,5.71,0,0,1,1.22-1.4l.1,0a5.41,5.41,0,0,1-.36,1.82,8.69,8.69,0,0,1-.89,1.57c-.61,1-1.25,2.06-1.91,3.07Z"/><path class="cls-1" d="M109.29,27.23q3.34-1.82,6.74-3.56c1.14-.58,2.23-1.25,3.41-1.72a23.34,23.34,0,0,1,3.66-1.18l0,.1a22.16,22.16,0,0,1-3.25,2.05c-1.11.61-2.32,1-3.49,1.52-2.35,1-4.7,1.95-7.07,2.89Z"/><path class="cls-1" d="M54.39,22.55c-1.36-1.12-2.67-2.28-4-3.41l-3.94-3.49a37.17,37.17,0,0,1-3.86-3.56,22.07,22.07,0,0,1-3-4.39l.15-.15a22.07,22.07,0,0,1,4.39,3,36.29,36.29,0,0,1,3.56,3.87l3.48,3.93c1.14,1.34,2.3,2.66,3.41,4Z"/><path class="cls-1" d="M59,20.43Q58,18.92,57,17.37a9.74,9.74,0,0,1-.89-1.57A5.42,5.42,0,0,1,55.79,14l.1,0a5.35,5.35,0,0,1,1.22,1.4,9.39,9.39,0,0,1,.7,1.66c.44,1.12.85,2.25,1.24,3.4Z"/><path class="cls-1" d="M46.69,29.38c-1.21-.08-2.41-.18-3.61-.31a8.84,8.84,0,0,1-1.78-.22A5.54,5.54,0,0,1,39.62,28l0-.1a5.38,5.38,0,0,1,1.86-.14,8.22,8.22,0,0,1,1.74.44c1.16.31,2.32.66,3.47,1Z"/><path class="cls-1" d="M50.87,26q-3.55-1.41-7.06-2.9a37.36,37.36,0,0,1-3.5-1.52,22.63,22.63,0,0,1-3.25-2l0-.1a22.34,22.34,0,0,1,3.66,1.18c1.18.47,2.28,1.13,3.41,1.71q3.39,1.74,6.75,3.57Z"/><path class="cls-1" d="M119.28,35.48a2.28,2.28,0,0,1,1.88,2.23,2.18,2.18,0,0,1-1.35-.77A2.16,2.16,0,0,1,119.28,35.48Z"/><path class="cls-1" d="M117,32.83a2.18,2.18,0,0,1,1.35.77,2.21,2.21,0,0,1,.54,1.46,2.16,2.16,0,0,1-1.35-.77A2.26,2.26,0,0,1,117,32.83Z"/><path class="cls-1" d="M122,32.78a2.18,2.18,0,0,1-.77,1.35,2.16,2.16,0,0,1-1.46.53,2.16,2.16,0,0,1,.77-1.34A2.2,2.2,0,0,1,122,32.78Z"/><path class="cls-1" d="M33,41.38a2.23,2.23,0,0,1,1.55.11,2.17,2.17,0,0,1,1.11,1.09,2.21,2.21,0,0,1-1.54-.11A2.26,2.26,0,0,1,33,41.38Z"/><path class="cls-1" d="M29.85,40a2.23,2.23,0,0,1,1.55.11,2.15,2.15,0,0,1,1.11,1.08A2.13,2.13,0,0,1,31,41,2.18,2.18,0,0,1,29.85,40Z"/><path class="cls-1" d="M34.33,37.76a2.23,2.23,0,0,1-.11,1.55,2.21,2.21,0,0,1-1.09,1.11,2.17,2.17,0,0,1,.12-1.55A2.15,2.15,0,0,1,34.33,37.76Z"/><path class="cls-1" d="M32.37,42.15a2.17,2.17,0,0,1-.11,1.55,2.15,2.15,0,0,1-1.08,1.11,2.18,2.18,0,0,1,.11-1.55A2.22,2.22,0,0,1,32.37,42.15Z"/><path class="cls-2" d="M57.47,49.09l-.07-2L58,42l.09-.3.07-.11-.07-.18.12-.52,0-.61.11-.32,0-.06.05-.3,0-.29.14-.72.09-.82.14-.22v-.12l.13-.13v-.12l.39,0,.22-.09.29,0,0-.09.27.25.11.3.28.31.09.07.06.43.21.2,0,.57.2.56.05.48.07.34.22.47.16.52.16.18.07.54,0,.07,0,.34.11.18.05.34,0,.59.11.45.14,0,.09.89.22,1,0,.11,0,.07.09.38,0,.25.5,1.38.11.5h.07l.13-.18.34-1.09v-.2l.39-.93v-.13l.27-.79.11-.59.2-.45.14-.48.11-.22,0,0,.06-.41.28-.84.11-.18.72-2.15.09-.18.66-2.23.22-.14,0-.13h.09l.09-.09v-.14l.27-.07.09-.16.36-.18.36,0,.34.15.14.18.29,1.18.16.41.11.11.05.18-.05.48.19.27v.27l.11.18.09.45,0,.77.09.2,0,.52.12.43,0,0,0,.38.07.07-.1.43.12.11,0,.27.09.09,0,.77.09.27-.13.7.07.32,0,.29.12.14-.09.18,0,.7.16.18,0,.32.18.47,0,.59,0,.13v.48l0,.16,0,.52-.07.11,0,.7,0,.27-.06.18.18.25-.18.18-.27.05v.18l.11.15-.41.09H69.9l-.2.14-.45,0-.28.12-.27-.07-.09-.21-.22-.15,0-.59,0-.25-.07-.09-.16-1.54,0-.27,0,0v-.18L68.07,49l0-.79-.14-1v-.41l0-.14-.07-1.51,0-.11-.07-.43.07,0,0-.5-.07-.2,0-.32,0-.13,0-.68-.06-.27-.12-.72,0-.48-.05-.43-.11-.13-.14.29,0,.16-.09.25-.11.49-.3.64,0,.45.09.09-.2.63v-.31h-.14l-.09.45L65.9,45l-.22.42-.05.21-.09.22-.14.75v.56l-.09.39-.15.13-.14.73-.14.43-.2.86,0,.63-.16.16-.12.29-.15.23,0,.2-.41.34-.42.11-.14.14-.23.07-.74-.48-1.67-5.24-.41-1.88-.09-.58-.36-1.25-.07,0,0-.12h-.09l-.13,1-.05.16-.18,2.07.05.43-.07.55,0,.27-.06.2v1.24l0,.34L59,49l-.2,1.8,0,.32,0,.45-.11.37-.52.49-.47.18-.41,0,.25-3.05Z"/><path class="cls-2" d="M73.63,52.43h-.25L73,52.34l-.22-.2,0-.09v-.2l-.16-.25v-.75l-.07-.29-.2-4.79.18-.79-.27-2.92,0-.88.07-1.33-.07-.34-.07-.18,0-.18v-.91l.13-.34v-.49l.14-.14v-.11h.2l.47-.14.07-.18h.18l.18.18h.19l.11.09.47-.16,2.44.09.77.18,0,.09-.22.16,0,.07.09.05-.18.29v.25l-.29.22-.57.14-.22,0-1.74,0,0,.45.09.07v.12l0,.09.07.36v.22l.05.36.06,1.45.07.43v1.61H75l.54-.23h1.94l.3.27-.12.09,0,.27-.43.54-.16.09-.88.12-1.17,0-.12.09.12.86-.14.86v1.13l0,.25v.7l0,.34-.09.15v.25l-.16.84v.43l.41.18.77.11,1.67-.2.88.2-.18.39-.2.09-.16.34,0,.24-.22.12-.77.13-.43.16-1.94.07-.57-.09Zm-.77-.38H73v0L72.86,52Z"/><path class="cls-2" d="M86.53,52.48l-.54-1-.23-.32-.14-.41-.38-.7-.07-.31-.09-.09L84.81,49l-.07-.34-.18-.38L84.47,48l-.07,0,0-.18-.25-.59L84,47l0-.23-.27-.47-.2-.57-.09-.34-.09-.15,0-.09-.18-.27-.2-.66-.1-.09,0-.18,0-.07-.21-.59-.13-.25-.16-.49-.2-.45,0-.21-.11,0,0,.14v.36l-.11.45v6l-.09.39,0,.36.09.14,0,.31.09.57-.11.43-.14.2-.07.23v.33l.09.32-.13.41-.18.09h-.2L81,52.43l-.09.12h-.7l-.34-.3,0-.45,0-.41V50l-.07-.79L80,42.87l.09-.43V41.27L80,40.93l.23-2.69.09-.29v-.27l.07-.12,0-.45.05-.34,0-.06.21-.07.27.11L81,37l.13.16.12,0,.06.09.21,0,.13.14.12.5.06.07L82,38l.18.25v.09l.32.31v.05l0,.09h.09l0,.13.11,0,.21.63.22.36,0,.16.14.36.14.12,0,.29.14.25.15.18.09.25v.2l.14.14.11.4.25.34.2.46v.15l.21.18L85,44l.23.68.18.34.4,1.1.12.09,0,.57.43.95.09.4.09-.11V43.19l.09-.54V41.5l.2-3.12.16-.09.25-.57.57-.38.27,0,.13.07.27-.25.16.13v.16l.14.09h.07l-.3,5.34-.07.22,0,1.29.07.16v1.11l-.07.29.13,5.29.12,1.1-.32.32L88.2,53l-.36.1L87.61,53l-.13,0h-.59l-.2-.11Z"/><path class="cls-2" d="M93.49,52.5h-.14l-.61-.18-.5-.41-.52-.49L91.43,51l-.36-.88-.32-1.67-.09-.2V38.6l0-.31v-.43l.06,0,0-.13L91,37.5l.2,0h.32l.07-.16.4,0,.11,0,0,.21.11.13L92.18,39l.38,5.31,0,.14,0,.72.13,1v.58l.07.23v1.29l.11.29.16.77.23.59.2.29v.07l.41.56.54.27,1.11,0,.2-.12.23-.27.11-.38.11-.14.07-.27.11-.16.23-.92.34-5V40.23L96.9,39H97v.36h.09l.13-.95-.09-.07-.15.14v-.63l.06-.14,0-.47h.11l.27-.14.09.09.18-.07.07.07H98l.27.09.09.14h.14l.07.27.07.72.13.54.18,1.84,0,.92-.13,1v.4l.11.12-.13,1.53-.16.59,0,.61,0,.38,0,.09-.19,1.9-.11.18-.09.61-.18.5-.16.29-.07.23-.18.27-.09.32-.13.18-.18.38-.34.45-.54.43-.39.18-1.17.19H93.62ZM97,38.6l0,.34,0,0Z"/></svg>