<?xml version="1.0" encoding="utf-8"?>
<!-- Generator: Adobe Illustrator 25.2.1, SVG Export Plug-In . SVG Version: 6.00 Build 0)  -->
<svg version="1.1" id="Layer_1" xmlns="http://www.w3.org/2000/svg" xmlns:xlink="http://www.w3.org/1999/xlink" x="0px" y="0px"
	 viewBox="0 0 273.3 383.3" style="enable-background:new 0 0 273.3 383.3;" xml:space="preserve">
<style type="text/css">
	.st0{fill:#231F20;stroke:#231F20;stroke-width:6;stroke-miterlimit:10;}
	.st1{fill:#FFFFFF;stroke:#231F20;stroke-width:6;stroke-miterlimit:10;}
	.st2{enable-background:new    ;}
	.st3{fill:#FFFFFF;}
	.st4{fill:none;stroke:#231F20;stroke-width:6;stroke-miterlimit:10;}
</style>
<path class="st0" d="M22,113h229.3c10.5,0,19,8.5,19,19v229.3c0,10.5-8.5,19-19,19H22c-10.5,0-19-8.5-19-19V132
	C3,121.5,11.5,113,22,113z"/>
<path class="st1" d="M32.3,127.2H241c8.3,0,15,6.7,15,15V351c0,8.3-6.7,15-15,15H32.3c-8.3,0-15-6.7-15-15V142.2
	C17.2,133.9,24,127.2,32.3,127.2z"/>
<path class="st0" d="M13.4,3h246.5c5.8,0,10.4,4.7,10.4,10.4v53.9c0,5.8-4.7,10.4-10.4,10.4H13.4C7.7,77.8,3,73.1,3,67.3V13.4
	C3,7.7,7.7,3,13.4,3z"/>
<path class="st0" d="M226.2,74.1c-1.2-1.6-1-3.9,0.5-5.2c0.6-0.5,1.4-0.8,2.2-0.8h37.9c1.9,0,3.5,1.7,3.5,3.7c0,0.9-0.3,1.7-0.8,2.3
	l-8.4,10.6L250.6,98c-1.2,1.6-3.4,1.8-4.9,0.5c-0.2-0.1-0.3-0.3-0.5-0.5l-10.5-13.3L226.2,74.1z"/>
<g class="st2">
	<path class="st3" d="M37.9,46.2l-1-2.6h-8.4l-1,2.7c-0.4,1-0.7,1.7-1,2.1s-0.7,0.5-1.3,0.5c-0.5,0-1-0.2-1.4-0.6s-0.6-0.8-0.6-1.3
		c0-0.3,0-0.6,0.1-0.9c0.1-0.3,0.2-0.7,0.5-1.3L29,31.4c0.2-0.4,0.3-0.9,0.5-1.4c0.2-0.5,0.4-1,0.7-1.4c0.2-0.4,0.6-0.6,0.9-0.9
		c0.4-0.2,0.9-0.3,1.5-0.3c0.6,0,1.1,0.1,1.5,0.3c0.4,0.2,0.7,0.5,0.9,0.9c0.2,0.3,0.4,0.7,0.6,1.1c0.2,0.4,0.4,0.9,0.6,1.6
		l5.4,13.4c0.4,1,0.6,1.8,0.6,2.2c0,0.5-0.2,0.9-0.6,1.3c-0.4,0.4-0.9,0.6-1.5,0.6c-0.3,0-0.6-0.1-0.8-0.2s-0.4-0.3-0.6-0.5
		s-0.3-0.5-0.5-0.9C38.2,46.9,38,46.5,37.9,46.2z M29.6,40.4h6.2l-3.1-8.6L29.6,40.4z"/>
	<path class="st3" d="M55.8,46.7v-0.4c-0.5,0.6-1,1.1-1.5,1.5c-0.5,0.4-1.1,0.7-1.6,0.8c-0.6,0.2-1.2,0.3-1.9,0.3
		c-0.9,0-1.8-0.2-2.6-0.6c-0.8-0.4-1.5-1-2-1.7c-0.6-0.7-1-1.6-1.3-2.6c-0.3-1-0.4-2-0.4-3.2c0-2.4,0.6-4.3,1.8-5.7s2.7-2,4.7-2
		c1.1,0,2.1,0.2,2.8,0.6c0.8,0.4,1.5,1,2.2,1.8v-5.7c0-0.8,0.2-1.4,0.5-1.8c0.3-0.4,0.8-0.6,1.4-0.6s1,0.2,1.4,0.6
		c0.3,0.4,0.5,0.9,0.5,1.6v17c0,0.7-0.2,1.3-0.5,1.7s-0.8,0.6-1.3,0.6c-0.5,0-1-0.2-1.3-0.6C55.9,47.9,55.8,47.4,55.8,46.7z
		 M48.2,41c0,1,0.2,1.9,0.5,2.7c0.3,0.7,0.8,1.3,1.3,1.7s1.2,0.6,1.9,0.6c0.7,0,1.3-0.2,1.9-0.5c0.6-0.4,1-0.9,1.3-1.6
		c0.3-0.7,0.5-1.6,0.5-2.7c0-1-0.2-1.9-0.5-2.7c-0.3-0.7-0.8-1.3-1.4-1.7c-0.6-0.4-1.2-0.6-1.9-0.6c-0.7,0-1.3,0.2-1.9,0.6
		s-1,1-1.3,1.7C48.3,39.1,48.2,40,48.2,41z"/>
	<path class="st3" d="M73.9,46.7v-0.4c-0.5,0.6-1,1.1-1.5,1.5c-0.5,0.4-1.1,0.7-1.6,0.8c-0.6,0.2-1.2,0.3-1.9,0.3
		c-0.9,0-1.8-0.2-2.6-0.6c-0.8-0.4-1.5-1-2-1.7c-0.6-0.7-1-1.6-1.3-2.6c-0.3-1-0.4-2-0.4-3.2c0-2.4,0.6-4.3,1.8-5.7s2.7-2,4.7-2
		c1.1,0,2.1,0.2,2.8,0.6c0.8,0.4,1.5,1,2.2,1.8v-5.7c0-0.8,0.2-1.4,0.5-1.8c0.3-0.4,0.8-0.6,1.4-0.6s1,0.2,1.4,0.6
		c0.3,0.4,0.5,0.9,0.5,1.6v17c0,0.7-0.2,1.3-0.5,1.7s-0.8,0.6-1.3,0.6c-0.5,0-1-0.2-1.3-0.6C74.1,47.9,73.9,47.4,73.9,46.7z
		 M66.3,41c0,1,0.2,1.9,0.5,2.7c0.3,0.7,0.8,1.3,1.3,1.7s1.2,0.6,1.9,0.6c0.7,0,1.3-0.2,1.9-0.5c0.6-0.4,1-0.9,1.3-1.6
		c0.3-0.7,0.5-1.6,0.5-2.7c0-1-0.2-1.9-0.5-2.7c-0.3-0.7-0.8-1.3-1.4-1.7c-0.6-0.4-1.2-0.6-1.9-0.6c-0.7,0-1.3,0.2-1.9,0.6
		s-1,1-1.3,1.7C66.5,39.1,66.3,40,66.3,41z"/>
	<path class="st3" d="M88.9,33.5h0.4v-2.3c0-0.6,0-1.1,0-1.5c0-0.4,0.1-0.7,0.3-0.9c0.2-0.3,0.4-0.5,0.7-0.6s0.6-0.2,0.9-0.2
		c0.5,0,0.9,0.2,1.3,0.6c0.3,0.2,0.4,0.5,0.5,0.9c0.1,0.4,0.1,0.9,0.1,1.5v2.6h1.4c0.5,0,1,0.1,1.3,0.4c0.3,0.3,0.4,0.6,0.4,1
		c0,0.5-0.2,0.9-0.6,1.1c-0.4,0.2-1,0.3-1.8,0.3h-0.7v7.1c0,0.6,0,1.1,0.1,1.4c0,0.3,0.2,0.6,0.3,0.8c0.2,0.2,0.5,0.3,0.9,0.3
		c0.2,0,0.5,0,0.9-0.1s0.7-0.1,0.9-0.1c0.3,0,0.6,0.1,0.8,0.4c0.2,0.2,0.4,0.6,0.4,0.9c0,0.6-0.3,1.1-1,1.4s-1.7,0.5-2.9,0.5
		c-1.2,0-2.1-0.2-2.7-0.6s-1-1-1.2-1.7c-0.2-0.7-0.3-1.7-0.3-2.9v-7.4h-0.5c-0.6,0-1-0.1-1.3-0.4s-0.4-0.6-0.4-1
		c0-0.4,0.2-0.7,0.5-1C87.9,33.6,88.3,33.5,88.9,33.5z"/>
	<path class="st3" d="M113.4,41c0,1.2-0.2,2.2-0.5,3.2c-0.4,1-0.9,1.8-1.6,2.5s-1.5,1.2-2.4,1.6s-2,0.6-3.2,0.6
		c-1.2,0-2.2-0.2-3.2-0.6c-0.9-0.4-1.7-0.9-2.4-1.6c-0.7-0.7-1.2-1.5-1.6-2.5c-0.4-1-0.5-2-0.5-3.2c0-1.2,0.2-2.2,0.5-3.2
		c0.4-1,0.9-1.8,1.5-2.5c0.7-0.7,1.5-1.2,2.4-1.6s2-0.6,3.2-0.6c1.2,0,2.2,0.2,3.2,0.6c1,0.4,1.8,0.9,2.4,1.6
		c0.7,0.7,1.2,1.5,1.6,2.5C113.2,38.8,113.4,39.9,113.4,41z M109.5,41c0-1.6-0.3-2.8-1-3.7c-0.7-0.9-1.6-1.3-2.8-1.3
		c-0.8,0-1.4,0.2-2,0.6s-1,1-1.3,1.7c-0.3,0.8-0.5,1.7-0.5,2.7c0,1,0.2,1.9,0.5,2.6c0.3,0.8,0.7,1.3,1.3,1.7c0.6,0.4,1.2,0.6,2,0.6
		c1.2,0,2.1-0.4,2.8-1.3C109.2,43.8,109.5,42.6,109.5,41z"/>
	<path class="st3" d="M137.6,44.1c0,0.5-0.1,1-0.4,1.5c-0.3,0.5-0.7,1.1-1.3,1.6c-0.6,0.5-1.3,0.9-2.2,1.2c-0.9,0.3-1.9,0.5-3,0.5
		c-2.4,0-4.3-0.7-5.6-2.1s-2-3.3-2-5.6c0-1.6,0.3-3,0.9-4.2c0.6-1.2,1.5-2.2,2.7-2.8c1.2-0.7,2.5-1,4.2-1c1,0,1.9,0.1,2.8,0.4
		c0.8,0.3,1.5,0.7,2.1,1.1c0.6,0.5,1,1,1.3,1.5c0.3,0.5,0.5,1,0.5,1.5c0,0.5-0.2,0.9-0.5,1.2c-0.3,0.3-0.8,0.5-1.3,0.5
		c-0.3,0-0.6-0.1-0.8-0.2c-0.2-0.2-0.5-0.4-0.7-0.8c-0.5-0.7-1-1.3-1.5-1.6c-0.5-0.4-1.2-0.5-2-0.5c-1.1,0-2.1,0.4-2.8,1.3
		c-0.7,0.9-1,2.1-1,3.7c0,0.7,0.1,1.4,0.3,2c0.2,0.6,0.4,1.1,0.8,1.6s0.8,0.8,1.2,1s1,0.3,1.6,0.3c0.8,0,1.4-0.2,2-0.5
		c0.6-0.4,1-0.9,1.5-1.6c0.2-0.4,0.5-0.8,0.8-1s0.6-0.4,1-0.4c0.5,0,0.9,0.2,1.2,0.5S137.6,43.7,137.6,44.1z"/>
	<path class="st3" d="M155.4,41c0,1.2-0.2,2.2-0.5,3.2c-0.4,1-0.9,1.8-1.6,2.5s-1.5,1.2-2.4,1.6c-0.9,0.4-2,0.6-3.2,0.6
		c-1.2,0-2.2-0.2-3.2-0.6c-0.9-0.4-1.7-0.9-2.4-1.6c-0.7-0.7-1.2-1.5-1.6-2.5c-0.4-1-0.5-2-0.5-3.2c0-1.2,0.2-2.2,0.5-3.2
		c0.4-1,0.9-1.8,1.5-2.5c0.7-0.7,1.5-1.2,2.4-1.6c1-0.4,2-0.6,3.2-0.6c1.2,0,2.2,0.2,3.2,0.6c1,0.4,1.8,0.9,2.5,1.6
		c0.7,0.7,1.2,1.5,1.6,2.5C155.2,38.8,155.4,39.9,155.4,41z M151.5,41c0-1.6-0.3-2.8-1-3.7c-0.7-0.9-1.6-1.3-2.8-1.3
		c-0.8,0-1.4,0.2-2,0.6c-0.6,0.4-1,1-1.3,1.7c-0.3,0.8-0.5,1.7-0.5,2.7c0,1,0.2,1.9,0.5,2.6c0.3,0.8,0.7,1.3,1.3,1.7
		c0.6,0.4,1.2,0.6,2,0.6c1.2,0,2.1-0.4,2.8-1.3C151.2,43.8,151.5,42.6,151.5,41z"/>
	<path class="st3" d="M162,35.3v0.5c0.7-0.9,1.4-1.6,2.2-2c0.8-0.4,1.7-0.6,2.8-0.6c1,0,1.9,0.2,2.7,0.7c0.8,0.4,1.4,1.1,1.8,1.9
		c0.3,0.5,0.4,1,0.5,1.5c0.1,0.5,0.1,1.2,0.1,2.1v7.2c0,0.8-0.2,1.4-0.5,1.8c-0.4,0.4-0.8,0.6-1.4,0.6c-0.6,0-1-0.2-1.4-0.6
		c-0.4-0.4-0.5-1-0.5-1.7v-6.4c0-1.3-0.2-2.2-0.5-2.9c-0.4-0.7-1.1-1-2.1-1c-0.7,0-1.3,0.2-1.9,0.6c-0.6,0.4-1,1-1.2,1.7
		c-0.2,0.6-0.3,1.7-0.3,3.2v4.8c0,0.8-0.2,1.4-0.5,1.8s-0.8,0.6-1.4,0.6c-0.6,0-1-0.2-1.4-0.6c-0.4-0.4-0.5-1-0.5-1.7V35.4
		c0-0.7,0.2-1.3,0.5-1.6c0.3-0.4,0.8-0.5,1.3-0.5c0.3,0,0.6,0.1,0.9,0.2c0.3,0.2,0.5,0.4,0.7,0.7C161.9,34.5,162,34.9,162,35.3z"/>
	<path class="st3" d="M176.2,33.5h0.4v-2.3c0-0.6,0-1.1,0-1.5c0-0.4,0.1-0.7,0.3-0.9c0.2-0.3,0.4-0.5,0.7-0.6s0.6-0.2,0.9-0.2
		c0.5,0,0.9,0.2,1.3,0.6c0.3,0.2,0.4,0.5,0.5,0.9c0.1,0.4,0.1,0.9,0.1,1.5v2.6h1.4c0.5,0,1,0.1,1.3,0.4c0.3,0.3,0.4,0.6,0.4,1
		c0,0.5-0.2,0.9-0.6,1.1c-0.4,0.2-1,0.3-1.8,0.3h-0.7v7.1c0,0.6,0,1.1,0.1,1.4c0,0.3,0.2,0.6,0.3,0.8c0.2,0.2,0.5,0.3,0.9,0.3
		c0.2,0,0.5,0,0.9-0.1c0.4-0.1,0.7-0.1,0.9-0.1c0.3,0,0.6,0.1,0.8,0.4c0.2,0.2,0.4,0.6,0.4,0.9c0,0.6-0.3,1.1-1,1.4
		s-1.7,0.5-2.9,0.5c-1.2,0-2.1-0.2-2.7-0.6s-1-1-1.2-1.7c-0.2-0.7-0.3-1.7-0.3-2.9v-7.4h-0.5c-0.6,0-1-0.1-1.3-0.4
		c-0.3-0.3-0.4-0.6-0.4-1c0-0.4,0.2-0.7,0.5-1C175.2,33.6,175.6,33.5,176.2,33.5z"/>
	<path class="st3" d="M196,46.7c-0.9,0.7-1.8,1.3-2.7,1.6s-1.9,0.5-2.9,0.5c-1,0-1.9-0.2-2.6-0.6c-0.8-0.4-1.3-0.9-1.7-1.6
		c-0.4-0.7-0.6-1.4-0.6-2.2c0-1.1,0.3-2,1-2.7c0.7-0.7,1.6-1.2,2.8-1.5c0.2-0.1,0.9-0.2,1.8-0.4c1-0.2,1.8-0.4,2.5-0.5
		c0.7-0.2,1.4-0.4,2.3-0.6c0-1-0.3-1.8-0.6-2.2s-1.1-0.7-2.3-0.7c-1,0-1.7,0.1-2.2,0.4c-0.5,0.3-0.9,0.7-1.3,1.2
		c-0.4,0.5-0.6,0.9-0.8,1.1c-0.1,0.2-0.5,0.3-0.9,0.3c-0.4,0-0.8-0.1-1.1-0.4c-0.3-0.3-0.5-0.6-0.5-1.1c0-0.7,0.2-1.3,0.7-2
		c0.5-0.6,1.2-1.2,2.3-1.6c1-0.4,2.3-0.6,3.8-0.6c1.7,0,3,0.2,4,0.6c1,0.4,1.7,1,2.1,1.9c0.4,0.9,0.6,2,0.6,3.5c0,0.9,0,1.7,0,2.3
		c0,0.6,0,1.3,0,2.1c0,0.7,0.1,1.5,0.4,2.3c0.2,0.8,0.4,1.3,0.4,1.5c0,0.4-0.2,0.8-0.6,1.1c-0.4,0.3-0.8,0.5-1.3,0.5
		c-0.4,0-0.8-0.2-1.2-0.6C196.9,48,196.5,47.4,196,46.7z M195.8,41.1c-0.6,0.2-1.4,0.4-2.5,0.7c-1.1,0.2-1.8,0.4-2.2,0.5
		c-0.4,0.1-0.8,0.3-1.2,0.6c-0.4,0.3-0.6,0.8-0.6,1.3c0,0.6,0.2,1.1,0.7,1.5c0.4,0.4,1,0.6,1.7,0.6c0.8,0,1.5-0.2,2.1-0.5
		s1.1-0.8,1.4-1.3c0.3-0.6,0.5-1.5,0.5-2.9V41.1z"/>
	<path class="st3" d="M217.3,44.1c0,0.5-0.1,1-0.4,1.5c-0.3,0.5-0.7,1.1-1.3,1.6c-0.6,0.5-1.3,0.9-2.2,1.2c-0.9,0.3-1.9,0.5-3,0.5
		c-2.4,0-4.3-0.7-5.6-2.1c-1.3-1.4-2-3.3-2-5.6c0-1.6,0.3-3,0.9-4.2c0.6-1.2,1.5-2.2,2.7-2.8c1.2-0.7,2.5-1,4.2-1
		c1,0,1.9,0.1,2.8,0.4c0.8,0.3,1.5,0.7,2.1,1.1c0.6,0.5,1,1,1.3,1.5c0.3,0.5,0.5,1,0.5,1.5c0,0.5-0.2,0.9-0.5,1.2
		c-0.3,0.3-0.8,0.5-1.3,0.5c-0.3,0-0.6-0.1-0.8-0.2c-0.2-0.2-0.5-0.4-0.7-0.8c-0.5-0.7-1-1.3-1.5-1.6c-0.5-0.4-1.2-0.5-2-0.5
		c-1.1,0-2.1,0.4-2.8,1.3c-0.7,0.9-1,2.1-1,3.7c0,0.7,0.1,1.4,0.3,2c0.2,0.6,0.4,1.1,0.8,1.6s0.8,0.8,1.2,1s1,0.3,1.6,0.3
		c0.8,0,1.4-0.2,2-0.5c0.6-0.4,1-0.9,1.5-1.6c0.2-0.4,0.5-0.8,0.8-1c0.3-0.2,0.6-0.4,1-0.4c0.5,0,0.9,0.2,1.2,0.5
		S217.3,43.7,217.3,44.1z"/>
	<path class="st3" d="M220.9,33.5h0.4v-2.3c0-0.6,0-1.1,0-1.5c0-0.4,0.1-0.7,0.3-0.9c0.2-0.3,0.4-0.5,0.7-0.6s0.6-0.2,0.9-0.2
		c0.5,0,0.9,0.2,1.3,0.6c0.3,0.2,0.4,0.5,0.5,0.9c0.1,0.4,0.1,0.9,0.1,1.5v2.6h1.4c0.5,0,1,0.1,1.3,0.4s0.4,0.6,0.4,1
		c0,0.5-0.2,0.9-0.6,1.1c-0.4,0.2-1,0.3-1.8,0.3h-0.7v7.1c0,0.6,0,1.1,0.1,1.4c0,0.3,0.2,0.6,0.3,0.8c0.2,0.2,0.5,0.3,0.9,0.3
		c0.2,0,0.5,0,0.9-0.1c0.4-0.1,0.7-0.1,0.9-0.1c0.3,0,0.6,0.1,0.8,0.4s0.4,0.6,0.4,0.9c0,0.6-0.3,1.1-1,1.4s-1.7,0.5-2.9,0.5
		c-1.2,0-2.1-0.2-2.7-0.6s-1-1-1.2-1.7c-0.2-0.7-0.3-1.7-0.3-2.9v-7.4h-0.5c-0.6,0-1-0.1-1.3-0.4c-0.3-0.3-0.4-0.6-0.4-1
		c0-0.4,0.2-0.7,0.5-1S220.3,33.5,220.9,33.5z"/>
	<path class="st3" d="M243.4,43.8c0,1.1-0.3,2-0.8,2.7c-0.5,0.8-1.3,1.3-2.3,1.7s-2.2,0.6-3.7,0.6c-1.4,0-2.6-0.2-3.6-0.6
		s-1.7-1-2.2-1.6c-0.5-0.6-0.7-1.3-0.7-1.9c0-0.4,0.2-0.8,0.5-1.1c0.3-0.3,0.7-0.5,1.1-0.5c0.4,0,0.7,0.1,0.9,0.3
		c0.2,0.2,0.4,0.5,0.6,0.8c0.4,0.7,0.9,1.2,1.4,1.5c0.6,0.3,1.3,0.5,2.3,0.5c0.8,0,1.4-0.2,1.9-0.5c0.5-0.3,0.7-0.7,0.7-1.2
		c0-0.7-0.3-1.2-0.8-1.5c-0.5-0.3-1.4-0.6-2.5-0.9c-1.3-0.3-2.4-0.7-3.2-1c-0.8-0.4-1.5-0.8-2-1.4c-0.5-0.6-0.8-1.3-0.8-2.2
		c0-0.8,0.2-1.5,0.7-2.2c0.5-0.7,1.1-1.2,2-1.7c0.9-0.4,2-0.6,3.3-0.6c1,0,1.9,0.1,2.7,0.3c0.8,0.2,1.5,0.5,2,0.8
		c0.5,0.3,0.9,0.7,1.2,1.2c0.3,0.4,0.4,0.8,0.4,1.2c0,0.4-0.1,0.8-0.4,1.1c-0.3,0.3-0.7,0.4-1.3,0.4c-0.4,0-0.7-0.1-1-0.3
		s-0.6-0.6-1-1c-0.3-0.4-0.6-0.7-1-0.9s-0.9-0.3-1.6-0.3c-0.7,0-1.3,0.1-1.7,0.4c-0.5,0.3-0.7,0.7-0.7,1.1c0,0.4,0.2,0.7,0.5,1
		s0.8,0.5,1.4,0.6c0.6,0.2,1.4,0.4,2.4,0.6c1.2,0.3,2.2,0.6,2.9,1c0.8,0.4,1.3,0.9,1.7,1.4C243.2,42.5,243.4,43.1,243.4,43.8z"/>
	<path class="st3" d="M248,39.5l-0.5-6.8c-0.1-1.3-0.1-2.3-0.1-2.8c0-0.8,0.2-1.4,0.6-1.8c0.4-0.4,1-0.7,1.6-0.7
		c0.8,0,1.4,0.3,1.6,0.8c0.3,0.6,0.4,1.4,0.4,2.4c0,0.6,0,1.3-0.1,1.9l-0.6,7c-0.1,0.8-0.2,1.5-0.4,1.9c-0.2,0.4-0.6,0.7-1.1,0.7
		c-0.5,0-0.9-0.2-1.1-0.6S248.1,40.4,248,39.5z M249.5,48.9c-0.6,0-1.1-0.2-1.5-0.6c-0.4-0.4-0.6-0.9-0.6-1.6c0-0.6,0.2-1.1,0.6-1.5
		c0.4-0.4,0.9-0.6,1.5-0.6s1.1,0.2,1.5,0.6c0.4,0.4,0.6,0.9,0.6,1.5c0,0.7-0.2,1.2-0.6,1.6C250.6,48.7,250.1,48.9,249.5,48.9z"/>
</g>
<line class="st4" x1="270.3" y1="48.9" x2="270.3" y2="72.1"/>
</svg>
