<svg id="Layer_1" data-name="Layer 1" xmlns="http://www.w3.org/2000/svg" viewBox="0 0 160 160"><defs><style>.cls-1{fill:#fff900;}.cls-2{fill:#302b35;}.cls-3{fill:#4c494f;}.cls-4{fill:#d0d2d3;}.cls-5{fill:none;stroke:#302b35;stroke-linecap:round;stroke-linejoin:round;stroke-width:10.02px;}.cls-6{fill:#b5e523;}.cls-7{fill:#ead701;}</style></defs><circle class="cls-1" cx="78.87" cy="100.67" r="54.05"/><path class="cls-2" d="M78.87,156.37a55.7,55.7,0,1,1,55.7-55.7A55.76,55.76,0,0,1,78.87,156.37Zm0-108.09a52.4,52.4,0,1,0,52.4,52.39A52.45,52.45,0,0,0,78.87,48.28Z"/><ellipse class="cls-3" cx="78.35" cy="33.26" rx="24.96" ry="19.82"/><path class="cls-2" d="M78.35,13.44c13.78,0,25,8.87,25,19.82s-11.17,19.82-25,19.82-25-8.88-25-19.82,11.17-19.82,25-19.82m0-3.3a31.64,31.64,0,0,0-19.7,6.52c-5.52,4.38-8.56,10.28-8.56,16.6s3,12.22,8.56,16.6a31.7,31.7,0,0,0,19.7,6.52,31.72,31.72,0,0,0,19.7-6.52c5.52-4.38,8.56-10.28,8.56-16.6s-3-12.22-8.56-16.6a31.66,31.66,0,0,0-19.7-6.52Z"/><path class="cls-4" d="M78.35,14.62c-10.25,0-8,9.4-8,9.4-2,0-3.52,3.69-1.87,5.47s3.6,7.73,3.6,7.73l6.26.49,6.26-.49s1.94-6,3.59-7.73S88.33,24,86.34,24C86.34,24,88.6,14.62,78.35,14.62Z"/><path class="cls-4" d="M73.62,16A3.58,3.58,0,0,1,76,12c1.89-.63,1.48-2.18.62-2.85s.4-3.8,2.16-4.08-1.08,1.59,0,2.33S82.36,10,81.56,11.5s2.22,2.27,1.48,5.56S73.9,17.34,73.62,16Z"/><path class="cls-2" d="M78.35,39.14h-.11L72,38.64a1.42,1.42,0,0,1-1.24-1c-.72-2.19-2.24-6.09-3.29-7.21a4.77,4.77,0,0,1-.6-5.17A4.7,4.7,0,0,1,68.76,23c-.23-2.5.3-6.18,3.42-8.25a5,5,0,0,1,3.37-4.12,1.76,1.76,0,0,0,.36-.17.69.69,0,0,0-.16-.21,2.66,2.66,0,0,1-.68-2.91c.41-1.58,1.68-3.41,3.49-3.7a3.28,3.28,0,0,1,.52,0,1.63,1.63,0,0,1,1.53.85,2.05,2.05,0,0,1-.39,2.18l0,0C83.32,9,83.44,10.83,82.9,12c.08.13.21.31.31.46A6.58,6.58,0,0,1,84.4,14.7c3.22,2.06,3.77,5.8,3.53,8.33a4.72,4.72,0,0,1,1.92,2.26,4.77,4.77,0,0,1-.61,5.17c-1,1.12-2.57,5-3.28,7.21a1.42,1.42,0,0,1-1.24,1l-6.26.49Z"/><path class="cls-4" d="M86.34,24s1.44-6-3.21-8.41c-.25-2.13-2.23-2.9-1.57-4.11.8-1.47-1.7-3.35-2.78-4.09s1.76-2.61,0-2.33-3,3.42-2.16,4.08S77.89,11.38,76,12a3.6,3.6,0,0,0-2.43,3.6C68.92,18,70.36,24,70.36,24c-2,0-3.52,3.69-1.87,5.47s3.6,7.73,3.6,7.73l6.26.49,6.26-.49s1.94-6,3.59-7.73S88.33,24,86.34,24Z"/><path class="cls-2" d="M71.51,21.33c.34-.8,4.12-1,5.24.29S76.6,25,75.29,25,70.37,24,71.51,21.33Z"/><path class="cls-2" d="M85.2,21.33c-.34-.8-4.11-1-5.24.29S80.12,25,81.43,25,86.34,24,85.2,21.33Z"/><path class="cls-2" d="M78.35,34.5c-.22,0-4.13,0-5.57-1.29s-2.49-6.41-2.49-6.41,1.71,1.25,8.06,1.25,8.06-1.25,8.06-1.25-1,5.11-2.49,6.41S78.57,34.5,78.35,34.5Z"/><path class="cls-4" d="M78.35,27.51l-8.18-.85c1.21,1.89,1.34,2.74,2.3,2.6s.41-1.36,1.36-1,.25,1.51,1.43,1.54.52-1.37,1.38-1.31c1.29.09.55,1.3,1.71,1.27s.42-1.18,1.71-1.27c.85-.06.19,1.34,1.38,1.31s.48-1.16,1.42-1.54.4.84,1.36,1,1.09-.71,2.31-2.6Z"/><path class="cls-4" d="M78.35,35l-5.17-.29L71.6,31.88c.54,1.19.74-.38,1.73,0,.72.29.37,1.36,1.48,1.5,1.31.16.53-1.55,1.87-1.41s-.28,1.75,1.67,1.72S78.69,32.12,80,32s.56,1.57,1.87,1.41c1.11-.14.76-1.21,1.48-1.5,1-.38,1.19,1.19,1.72,0l-1.58,2.79Z"/><path class="cls-5" d="M61.88,49.69l.36-.06.37-.06.24,0H63l.15,0a.58.58,0,0,0,0,.13,1.89,1.89,0,0,1,.06.18,1.89,1.89,0,0,0,.06.18c0,.06,0,.1,0,.12a.5.5,0,0,0,.06.08l.08.09.05,0,0,0H64a.24.24,0,0,0,.09-.07,1.47,1.47,0,0,0,.1-.13.51.51,0,0,0,.09-.13.23.23,0,0,0,0-.1s0-.09,0-.12,0-.07,0-.1l0-.1,0-.1a.59.59,0,0,0,0-.13l0-.11s0-.05,0-.06a.45.45,0,0,0,0-.08.54.54,0,0,1,0-.11l0-.1,0,0L64,48.89l-.13-.09-.15-.09-.11-.06-.11,0-.1,0-.09,0-.12-.06L63,48.44l-.1,0,0,0s0,0-.07,0l-.06,0-.1,0-.1,0-.07,0-.07,0-.11-.09-.12-.1-.06-.07L62,47.81l-.12-.06,0,0-.08-.1-.08-.1a.33.33,0,0,1-.06-.08l-.08-.09-.09-.13-.08-.12a.25.25,0,0,0-.05-.07.55.55,0,0,1,0-.09c0-.05,0-.08,0-.09l0,0,0-.07a.56.56,0,0,0,0-.08s0,0,0-.05v-.09a.86.86,0,0,0,0-.15,1.48,1.48,0,0,0,0-.21,1,1,0,0,0,0-.18v-.11a.25.25,0,0,1,0-.08v-.12s0-.08,0-.11a.35.35,0,0,1,0-.07.33.33,0,0,1,0-.1l0-.11.08-.17.07-.14.09-.06a.37.37,0,0,0,.1-.07s0,0,.05-.05a.27.27,0,0,0,.08-.07l.09-.07.05,0,.15-.08.14-.07.18,0,.29-.06.28,0,.18,0,.24,0,.31-.05.25,0,.14,0h.52l.12,0,.11,0,.14.07.18.12.17.11.1.07.08.12.06.14a2.19,2.19,0,0,0,0,.22c0,.1,0,.21.07.32l.06.33c0,.1,0,.17,0,.21l-1.47.23,0,0L64.08,46,64,46l-.06-.08s0-.05,0-.09,0-.08,0-.09a.28.28,0,0,0,0-.08s-.06-.08-.08-.09l-.06,0-.06,0h-.52a.15.15,0,0,0-.08,0l-.11.07-.05.06,0,0a.9.9,0,0,1,0,.15l0,.14,0,.18,0,.18.08.14c0,.06.06.11.08.12l.12.07.12.07.06.06.11.1.12.1.07,0,.1,0,.11,0,.12.07.12.07.07,0,.15.06.14.06.08,0,.08,0a.71.71,0,0,1,.14.1l.15.1.09,0,.06,0,.1,0,.1,0,.06,0s0,0,0,.05l.08.1.07.1,0,.08.08.14.09.19a1.31,1.31,0,0,0,.09.17.82.82,0,0,1,0,.11v.07l0,.14,0,.16,0,.13v.1s0,.09,0,.15a.77.77,0,0,0,0,.15v.1a.41.41,0,0,0,0,.09.39.39,0,0,1,0,.11l0,.1,0,.18,0,.19,0,.1-.06.08-.09.13-.1.12-.08.1-.06,0-.1.07-.11.08-.08.05-.13.07-.17.09-.16.08-.09,0-.09,0-.13,0a2.49,2.49,0,0,1-.72,0l-.72-.06-.18,0-.13,0-.11-.06-.17-.1-.17-.11-.11-.09s0,0,0,0l0-.07L62,51a.15.15,0,0,1,0-.06l-.06-.23c0-.12-.06-.24-.08-.37L61.69,50c0-.12,0-.2,0-.24Zm.62-3.41s-.06,0,0,0,0,0,0,0,0,0,.05,0S62.55,46.27,62.5,46.28Zm.22,1.17s-.06,0,0,0a.07.07,0,0,0,.06,0,.07.07,0,0,0,0-.06S62.76,47.44,62.72,47.45Z"/><path class="cls-5" d="M67.19,49.27l.06,0s0,.07.07.13a.35.35,0,0,1,.06.14.4.4,0,0,1,.07-.12.35.35,0,0,1,.1-.09h.06l.09,0,.1,0s0,0,.06,0,0,0,0,0a.15.15,0,0,0,0-.06.23.23,0,0,0,0-.1l-.06-.07-.16,0h-.15v0l-.41.05a.13.13,0,0,1,0-.05v0l0,0,0-.06a.64.64,0,0,0,0-.1l0-.09v-.1a2,2,0,0,1-.19.12l0-.11,0-.11s0-.08,0-.14a.62.62,0,0,1,0-.09s0,0,0-.05,0,0,0-.06a.35.35,0,0,0,0-.06s0,0,0-.08l0-.09a.35.35,0,0,1,0-.06l0-.06.08-.09.08-.09.06-.07s0,0,0,0h.06l0-.19h-.3l-.1.06-.09.06a.58.58,0,0,1,0-.15.48.48,0,0,1,0-.13l0-.05.09-.07.09-.07,0,0,.05,0,0,0-.07,0-.12,0-.12,0-.08,0H67L66.83,47s-.09-.06-.1-.08a.15.15,0,0,1,0-.06l0,0h.09s0,0,0-.06,0,0,0,0l-.06-.09-.07-.09v-.21l-.06,0-.06,0-.06,0s0,0,0,0l0-.07s0-.08,0-.11a.54.54,0,0,0,0-.11V46s0,0,0-.05a.29.29,0,0,0,0-.09l0-.1a.1.1,0,0,0,0,0v-.1l-.06,0-.06,0a.18.18,0,0,0,0-.06.43.43,0,0,1,0-.11s0-.08,0-.11a.45.45,0,0,1,0-.08.34.34,0,0,0,0-.09.49.49,0,0,0,0-.12s0-.08,0-.11v0a.17.17,0,0,1,0-.08.83.83,0,0,0,0-.12.61.61,0,0,1,.05-.12.21.21,0,0,1,0-.07h-.1V44.3l0-.07.12-.14.15-.17.13-.14.16-.12.14-.11a.64.64,0,0,1,.16-.07l.24-.09.25-.08.16,0,.17,0,.15,0h.12l.12,0h.17l.13,0h.5l.13,0,.2.07.19.06.14.05.1,0,.14.07.13.07.07,0a.16.16,0,0,1,0,.06l0,.1a.36.36,0,0,0,0,.11l0,.09,0,.23.06.31c0,.11,0,.21.05.29s0,.15,0,.17v.13s0,.1,0,.15,0,.1,0,.14,0,0,0,0l-1.32.13s0,0,0,0l0-.09,0-.12a.51.51,0,0,0,0-.1v-.18l0-.12v-.07s0,0,0-.06a.56.56,0,0,0,0-.12l0-.11a.13.13,0,0,1,0-.07v-.27l-.75.08c-.1.24-.14.35-.24.58.11.88.16,1.32.26,2.2,0,0,0,.05,0,.09a.27.27,0,0,0,0,.1.13.13,0,0,0,0,.06s.06,0,.07,0l.07.64.07,0,0,0v.37s0,.1,0,.22,0,.24.08.37,0,.26.08.38,0,.2,0,.21a.1.1,0,0,1,0,.07v.2s0,0,0,.06a.23.23,0,0,1,0,0l0,0,.06,0h.1L69,50l.08-.11h.09s0,0,.06,0l0,0,.07,0,.11,0,.12,0,.08,0,.09-.11.09-.06.09,0-.15,0a.41.41,0,0,1-.15,0v-.69c0-.12,0-.22,0-.32a.56.56,0,0,0,0-.19.68.68,0,0,0,0-.12,1,1,0,0,0,0-.17,1.15,1.15,0,0,1,0-.18.54.54,0,0,1,0-.11h.28l.11,0a.27.27,0,0,0,.1,0h.19s0,0,.1-.06l.1-.05.1,0,.16,0,.15,0H71a.54.54,0,0,1,0,.08V48a.18.18,0,0,1,0,.06.31.31,0,0,1,0,.08l0,.09v0s0,0,0,0l0,0a.36.36,0,0,1,0,.11l0,.08h-.39a.23.23,0,0,0,0,0s0,0,0,.06l-.1,0-.09.06-.06,0s0,0,0,.05a.18.18,0,0,0,0,.06.1.1,0,0,1,0,.06l.09,0,.08,0,.06,0s0,0,0,0l.08-.11.1-.1h.1s0,0,0,.09l.06.09.05,0,.06,0h.11v0a0,0,0,0,1,0,0q0,.08,0,.18a1.55,1.55,0,0,0,0,.21c0,.07,0,.13,0,.18s0,.09,0,.1l0,.06-.1.11a1.34,1.34,0,0,1-.11.14l-.09.09-.09.06-.1,0-.13,0-.2.06-.2,0-.13,0h-.18l-.14,0-.11,0H68.11l-.06,0-.12,0-.12,0-.1,0a.36.36,0,0,1-.14-.11l-.09-.14s0-.07-.07-.14L67.35,50v-.28l0,0-.05-.08,0-.08,0,0s0,0,0-.12a.62.62,0,0,1,0-.11Zm-.27-2.76s0,.05.06,0,0,0,0,0a.06.06,0,0,0-.06,0S66.92,46.47,66.92,46.51ZM67,45.1l-.08.09-.09.1,0,.06a0,0,0,0,1,0,0v0s0,0,0,0,0,0,0,0l.06-.06a.39.39,0,0,0,.08-.1l.08-.09,0-.07v-.05a.08.08,0,0,1,0,0S67.06,45.07,67,45.1Zm.28,3.73c0,.05,0,.08.09.07s.07,0,.06-.09,0-.09-.09-.09S67.3,48.76,67.31,48.83ZM67.56,46l0,.06a1.13,1.13,0,0,0-.07.15l-.09.24a1.17,1.17,0,0,0-.09.24l-.06.15v.12l.06,0,.06,0,0,0,0-.06a.22.22,0,0,0,0-.06.53.53,0,0,0,0-.13s0-.08,0-.12,0-.05,0-.07a.22.22,0,0,0,0-.09l0-.1.12.08h.1a.19.19,0,0,0,0-.11l0-.09a.39.39,0,0,0-.11-.09.22.22,0,0,0-.12-.06Zm-.36.28,0,0a.08.08,0,0,0,0,.05s0,0,0,0a.07.07,0,0,0,.08,0,.06.06,0,0,0,0-.08Zm.57,3.44a.11.11,0,0,0-.08,0l-.07,0s0,0,0,0a.1.1,0,0,0,.1,0c.06,0,.09,0,.1-.05S67.79,49.67,67.77,49.67Zm-.31-1.23c0,.05,0,.08.08.07a.07.07,0,0,0,.06-.09c0-.07,0-.09-.08-.09S67.45,48.37,67.46,48.44Zm-.41-3.85s0,.08.09.07.07,0,.07-.09,0-.09-.09-.09S67.05,44.52,67.05,44.59Zm.09.63c0,.06,0,.09.09.08s.07,0,.06-.1,0-.09-.09-.08S67.13,45.16,67.14,45.22ZM67.63,49c0,.06,0,.09.08.08s.07,0,.06-.1,0-.09-.08-.09S67.62,48.9,67.63,49Zm0-1.31,0,0,0,.05s0,0,0,0a.08.08,0,0,0,.08,0,.06.06,0,0,0,0-.07ZM67.94,50l.26-.31.11.08a.8.8,0,0,1,0-.11.68.68,0,0,1,0-.12,1.23,1.23,0,0,1,0-.13c0-.06,0-.09,0-.1l0,0-.06,0a.22.22,0,0,1,0,.09.25.25,0,0,1,0,.1l0,.06-.07.11-.08.13a.64.64,0,0,0-.06.1l0,0a.23.23,0,0,1,0,.05Zm-.68-5.3.06.1.06.07.06,0h0l0-.32-.11,0,0-.18a.19.19,0,0,0,0,.09.43.43,0,0,0,0,.1.11.11,0,0,0,0,.05Zm.14.82.07.08,0-.1a.41.41,0,0,1,0-.09l0,0h.06l.06,0s0,0,0,.05l0-.37-.1.06-.1,0h-.11l0,.11,0,.09A.44.44,0,0,0,67.4,45.56Zm.14,1.2c0,.05,0,.08.08.07s.08,0,.07-.09,0-.09-.09-.09S67.53,46.69,67.54,46.76Zm.3,1.53c0,.06,0,.09.08.09s.07-.05.07-.11,0-.09-.09-.08S67.83,48.23,67.84,48.29Zm-.2-2.62s-.06,0,0,0a.05.05,0,0,0,0,0,.06.06,0,0,0,0,0S67.68,45.67,67.64,45.67Zm-.21-1.42c0,.07,0,.09.09.09s.07,0,.06-.11,0-.09-.08-.08S67.42,44.19,67.43,44.25Zm.43,3.39c0,.06,0,.08.08.08s.07,0,.07-.1,0-.09-.09-.08S67.85,47.58,67.86,47.64Zm-.31-3.31c0,.07,0,.09.09.09a.1.1,0,0,0,0,0s0,0,0-.06a.14.14,0,0,0,0-.07s0,0-.06,0S67.54,44.27,67.55,44.33Zm.39,2.88s0,0,0,0a.05.05,0,0,0,0,0s0,0,0,0S67.93,47.17,67.94,47.21Zm-.25-2.68a.13.13,0,0,0,0,.06.14.14,0,0,0,0,.07l.07,0s.07,0,.06-.11,0-.09-.09-.08A.07.07,0,0,0,67.69,44.53Zm.5,4.18c0,.06,0,.09.08.08a.08.08,0,0,0,.07-.09c0-.07,0-.09-.09-.09S68.18,48.65,68.19,48.71Zm-.35-3.06s0,.05,0,0a.05.05,0,0,0,0,0,0,0,0,0,0-.05,0S67.83,45.61,67.84,45.65Zm0-.24c0,.06,0,.09.09.08s.07,0,.07-.1,0-.09-.09-.09S67.88,45.34,67.88,45.41Zm.71-1.34s-.06,0,0,0a.05.05,0,0,0,.06,0,.07.07,0,0,0,0,0S68.63,44.07,68.59,44.07Zm.3,0a.07.07,0,0,0,0,.06s0,.05,0,.06a.06.06,0,0,0,.06,0c.05,0,.07,0,.07-.1s0-.1-.09-.09S68.9,44,68.89,44Zm.19,0c0,.06,0,.09.09.08s.08,0,.07-.1,0-.09-.09-.08S69.08,44,69.08,44.06Zm.54,4c0,.06,0,.09.08.09a0,0,0,0,0,0,0,.13.13,0,0,0,0-.06.11.11,0,0,0,0-.06.06.06,0,0,0-.06,0A.08.08,0,0,0,69.62,48.08Zm.14.29a.17.17,0,0,0,0,.07.09.09,0,0,0,0,.06.06.06,0,0,0,.06,0s.06,0,.06-.11,0-.09-.08-.08A.06.06,0,0,0,69.76,48.37Zm.12-.23h.31a.26.26,0,0,1,.12.06.45.45,0,0,1,.1.1v-.1l0-.08s0,0,0-.05a.07.07,0,0,0-.06,0H70l-.1.06-.09.06Zm.34,1h0a.41.41,0,0,0,0,.09l0,.1a.18.18,0,0,1,0,.06l0,.09a.29.29,0,0,1,0,.09.18.18,0,0,0,0,.06.41.41,0,0,0,0,.09l0,.1s0,0,0,0h0l0,0,0,0,0-.05h.1l.09,0,.09-.05.14,0,.14,0v-.18a.42.42,0,0,1-.15,0l-.15,0s0,0-.06-.08a.18.18,0,0,0-.06-.08s0,0,0,0h0Zm-.06-.45s0,0,0,0l0-.06a.55.55,0,0,0,0-.09.44.44,0,0,0,0-.09h-.13Zm-.4-4.28a.08.08,0,0,0,0,.07.14.14,0,0,0,0,.06.07.07,0,0,0,.06,0s.08,0,.07-.1,0-.09-.09-.09A.1.1,0,0,0,69.76,44.39Zm.86,5.72c0,.06,0,.09.08.09a.07.07,0,0,0,0,0V50.1a.14.14,0,0,0,0-.07l0,0C70.63,50,70.61,50.05,70.62,50.11Zm0-2-.08,0a.64.64,0,0,0,0,.1.33.33,0,0,0,0,.1l.09,0,.09-.06,0-.06v-.07Z"/><path class="cls-5" d="M71.93,50.17a.34.34,0,0,1,0-.09s0-.1,0-.15a.77.77,0,0,1,0-.15.54.54,0,0,1,0-.08s0-.08,0-.13a1.1,1.1,0,0,1,0-.18.7.7,0,0,1,0-.16V49a2.81,2.81,0,0,0,0-.3c0-.1,0-.2,0-.29v-.17s0-.07,0-.13,0-.12,0-.19a1.34,1.34,0,0,1,0-.2c0-.06,0-.1,0-.13a.44.44,0,0,1,0-.09l0-.14a.61.61,0,0,1,0-.15.44.44,0,0,0,0-.09s0-.11,0-.22,0-.23,0-.38,0-.3,0-.47,0-.32,0-.46,0-.28,0-.39,0-.18,0-.21,0-.09,0-.19,0-.21,0-.33,0-.22,0-.32a1.52,1.52,0,0,0,0-.19.13.13,0,0,0,0,0v0s0-.1,0-.17v-.21c0-.06,0-.13,0-.18a.31.31,0,0,1,0-.09l0-.06s0,0,.06,0l.29,0,.43-.06.44-.05.3,0h.42l.14,0,.11,0,.06,0c0,.06,0,.11,0,.15l0,.12,0,.1a.43.43,0,0,0,0,.12c0,.06,0,.12,0,.2s0,.13,0,.2l0,.11a2,2,0,0,0,0,.23c0,.11.05.22.08.33s.06.23.08.33,0,.17,0,.21a.89.89,0,0,0,0,.11s0,.09,0,.14l0,.13a.22.22,0,0,0,0,.08.13.13,0,0,0,0,0l0,.09a.59.59,0,0,1,0,.08.18.18,0,0,1,0,0,.5.5,0,0,1,0,.12c0,.06,0,.13,0,.21a1.77,1.77,0,0,1,0,.2.89.89,0,0,1,0,.11l0,.07,0,.1,0,.11,0,.09a.87.87,0,0,0,0,.13.74.74,0,0,0,.06.14v.55a.32.32,0,0,0,0,.08l0,.11s0,.08,0,.12A.39.39,0,0,1,76,48a.62.62,0,0,1,0,.1l0,.14a1,1,0,0,1,0,.14s0,.07,0,.08v.09l0,.09s0,.09,0,.14l0,.14a.2.2,0,0,1,0,.08v.37a.17.17,0,0,0,0,.07.75.75,0,0,0,.07.12l.06.11,0,.07a.58.58,0,0,1,0,.1.72.72,0,0,1,0,.13v.11a.31.31,0,0,1,0,.12l-.09.06-.1,0h-.71l-.21,0-.2,0-.13,0s0,0-.06-.09l0-.08s0-.08,0-.16,0-.16,0-.26,0-.18,0-.26,0-.13,0-.15a.45.45,0,0,0-.05-.1l-.06-.08h-.05l-.11,0-.13,0-.1,0h-.1l-.08,0L74,49l-.13,0h-.07l-.09,0-.1.06,0,0a.12.12,0,0,0,0,0,.32.32,0,0,1,0,.08s0,.08,0,.13a.68.68,0,0,0,0,.14.74.74,0,0,0,0,.12v.09s0,.07,0,.12,0,.09,0,.14a.51.51,0,0,1,0,.13.38.38,0,0,1,0,.08l0,.1a.41.41,0,0,1,0,.09l-.12,0-.17,0-.17,0-.12,0-.11,0h-.37l-.09,0-.1,0-.07,0s0,0,0,0v-.17Zm.7-4.69,0,0s0,0,0,0,0,0,0,0a.08.08,0,0,0,.08,0,.06.06,0,0,0,0-.08Zm0-1.38c0-.12.06-.17.09-.29h-.1Zm.26,1.83c0,.06,0,.09.08.09s0,0,0,0a.07.07,0,0,0,0-.06.15.15,0,0,0,0-.07.11.11,0,0,0-.06,0S72.93,45.86,72.93,45.93Zm.69,1.8a.3.3,0,0,0,.1.1l.11.08a1.16,1.16,0,0,0,.19,0l.12,0h.09l0,0,0-.05a.42.42,0,0,0,.05-.14.7.7,0,0,0,0-.14v0a.11.11,0,0,0,0,0,.43.43,0,0,1,0-.05.18.18,0,0,1,0,0s0-.06,0-.12,0-.13-.05-.2l0-.2a.35.35,0,0,1,0-.12,1.27,1.27,0,0,1,0-.15c0-.08,0-.17,0-.26s0-.18,0-.26,0-.13,0-.15a.81.81,0,0,0,0-.09s0-.09,0-.14a.83.83,0,0,0,0-.15l0-.08v-.09l.09-.14a1.2,1.2,0,0,1,.1-.15h-.11a.88.88,0,0,1-.1.1l-.09.1s0,0,0,0a.11.11,0,0,1,0,0v-.05a.1.1,0,0,0,0,0,.43.43,0,0,1,.1-.1l.09-.09a.16.16,0,0,0,0-.1.44.44,0,0,1,0-.09l0,0,.06,0s0,0,0-.09a.41.41,0,0,0,0-.12,1.18,1.18,0,0,0,0-.16l-.06,0-.1,0-.11,0-.06,0a.46.46,0,0,1-.07-.13.43.43,0,0,1,0-.14c-.11.19-.17.28-.29.47a.25.25,0,0,0,0-.13c0-.07,0-.12,0-.14l-.05,0s-.06,0-.06,0l0,0a.1.1,0,0,1,0,0l-.39,0a.38.38,0,0,0,0,.14.42.42,0,0,0,.08.13s.05,0,.11,0l.1-.05v.08c0,.05,0,.08,0,.09l.05.1s0,.07.06.07l.15,0,.16,0,0,.06a.38.38,0,0,1-.09.09l-.09.09s0,0-.06,0h-.1l-.1.14a.71.71,0,0,0-.09.15s.06-.05.14-.08a.45.45,0,0,1,.17,0l.06,0,.1.07.1.08.06.07v.12a5,5,0,0,1,0,.55c0,.18,0,.37,0,.55l0,.56a5.23,5.23,0,0,0,0,.56Zm-.4.8a.14.14,0,0,0,0,.06.11.11,0,0,0,0,.06.09.09,0,0,0,.06,0s.07,0,.07-.1,0-.09-.08-.09S73.23,48.51,73.22,48.53Zm-.16-2.47s0,0,0,0,0,0,0,0,0,0,0-.05S73.06,46,73.06,46.06Zm0-.73.06,0,.15,0,.15-.06-.15,0-.16,0-.06,0s0,0,0,.05S73.08,45.3,73.11,45.33Zm0-1.35c0,.06,0,.09-.07.09S73,44.05,73,44s0-.1.07-.1S73.16,43.92,73.16,44Zm-.11.65c0,.06,0,.08.08.08s.07,0,.07-.09,0-.09-.08-.09S73,44.57,73.05,44.63Zm.06,1c0,.06,0,.09.08.09s.08,0,.07-.1,0-.09-.08-.09S73.11,45.58,73.11,45.64Zm.29,2.84c0,.07,0,.1.08.09s.07,0,.06-.09,0-.1-.08-.09S73.39,48.42,73.4,48.48Zm.1.09c0,.07,0,.09.08.09a0,0,0,0,0,0,0,.15.15,0,0,0,0-.07.14.14,0,0,0,0-.06,0,0,0,0,0-.05,0S73.5,48.51,73.5,48.57ZM73.63,45c0,.06,0,.09-.07.09s-.08,0-.08-.08,0-.09.07-.1S73.63,44.9,73.63,45Zm0-.19h-.1l.09-.1Zm.15,3.37s0,.06,0,0,0,0,0,0a0,0,0,0,0,0,0S73.8,48.1,73.8,48.14Zm.13-3.38c0,.06,0,.09-.07.1a.06.06,0,0,1-.06,0,.09.09,0,0,1,0-.06.14.14,0,0,1,0-.07.05.05,0,0,1,0,0C73.9,44.67,73.92,44.7,73.93,44.76Zm-.05-.32s0,0,0,.05,0,0,0,0,0-.06,0-.06S73.88,44.42,73.88,44.44Zm.17-.43c0,.07,0,.1.08.09a0,0,0,0,0,.05,0,.13.13,0,0,0,0-.06.15.15,0,0,0,0-.07.07.07,0,0,0-.06,0C74.07,43.92,74.05,44,74.05,44Zm.28-.47c0,.06,0,.09.09.08s.07,0,.07-.09,0-.09-.08-.09A.09.09,0,0,0,74.33,43.54Zm.08,1s0,.06,0,0,.05,0,.05,0,0,0-.05,0S74.41,44.46,74.41,44.5Zm.13,1.15c0,.06,0,.09.08.09s.08,0,.07-.09,0-.1-.08-.09S74.54,45.59,74.54,45.65ZM74.49,44s0,.05.05,0,0,0,0,0a0,0,0,0,0,0,0S74.49,44,74.49,44Zm.16,1.36a.07.07,0,0,0,0,.06.14.14,0,0,0,0,.06.06.06,0,0,0,.06,0c.05,0,.07,0,.07-.1s0-.09-.08-.09A.05.05,0,0,0,74.65,45.4Zm.66,4c0,.05,0,.08.07.08s.07,0,.07-.09,0-.09-.08-.09S75.3,49.34,75.31,49.41Z"/><path class="cls-5" d="M80.23,50c0-.08,0-.16-.08-.25a1.52,1.52,0,0,1-.09-.25c0-.08,0-.14,0-.17s0-.06,0-.13l-.06-.24c0-.08,0-.16,0-.23a.93.93,0,0,0,0-.14.5.5,0,0,1,0-.12c0-.05,0-.12-.05-.19a1.07,1.07,0,0,0-.07-.19c0-.07,0-.12,0-.14a.59.59,0,0,0,0-.14c0-.08,0-.13,0-.15a1.26,1.26,0,0,1,0-.19q0-.16-.06-.36c0-.12,0-.24-.07-.35s0-.18,0-.2a.49.49,0,0,0,0-.12l-.06-.2c0-.08,0-.14-.07-.21s0-.1,0-.12V45.8l-.16,0a.38.38,0,0,0-.14.06.46.46,0,0,0-.07.13.37.37,0,0,0,0,.15c0,.06,0,.18,0,.35s0,.34,0,.53,0,.36,0,.52,0,.29,0,.35v.14a8.94,8.94,0,0,1,0,1,8.94,8.94,0,0,0-.05,1H77.3s0,0,0,0a.23.23,0,0,1,0,0V50a.38.38,0,0,1,0-.1v-.2s0-.09,0-.16l0-.22,0-.22a.88.88,0,0,1,0-.14.18.18,0,0,1,0-.05l0-.09,0-.08,0,0a.29.29,0,0,0-.05-.1l0-.09a.07.07,0,0,1,0-.05.09.09,0,0,1,0,0h.1a.1.1,0,0,1,0,0s0,0,0,0a.42.42,0,0,0,0-.1.45.45,0,0,1,0-.09V48a.62.62,0,0,1,0-.12v-.14a.66.66,0,0,0,0-.11c0-.06,0-.14,0-.23l0-.27q0-.13,0-.33l.1-.09-.05-.05a.23.23,0,0,1,0,0v-.37l.05,0,.06,0,.09,0,.11,0-.11,0-.1,0-.06,0,0,0-.06-3,.34,0,.51,0,.5,0H79l.15,0,.16,0,.11,0a.09.09,0,0,1,.06,0,.23.23,0,0,1,0,0s0,0,0,.09l0,.15,0,.14,0,.09,0,.05,0,.09a.41.41,0,0,0,0,.08l0,0,0,.17.06.23c0,.08,0,.15.06.22a.39.39,0,0,0,0,.12v.1s0,.08,0,.09,0,.08,0,.16a1.57,1.57,0,0,1,.1.26l.09.26a.79.79,0,0,1,.05.15c0,.05,0,.11,0,.18l.06.24.06.21a.62.62,0,0,1,0,.11s0,.09,0,.17,0,.16,0,.24l0,.25a1.1,1.1,0,0,0,0,.16h.08s.06,0,.06,0a.49.49,0,0,0,.17,0l.14,0,.06,0,0,0c0-.07,0-.3,0-.56s0-.56,0-.86,0-.6,0-.87,0-.46,0-.56a2,2,0,0,1,0-.21c0-.1,0-.2,0-.3s0-.21,0-.31,0-.16,0-.2,0,0,0,0a.09.09,0,0,1,.06,0s0,0,.1-.06l.1,0h1l.16,0,.15.06-.23.45h-.07l0,0a.11.11,0,0,0,0,0l.1.1.11.1-.22.07.21.2-.12,0h-.09l-.06,0-.1.08-.1.08L82,44.2a.06.06,0,0,0,0,0v0a.23.23,0,0,0,0,.07l.06.09a.9.9,0,0,1,0,.09l0,0a.21.21,0,0,0,.21-.08.22.22,0,0,0,0,.1.2.2,0,0,0,0,.08l0,.1a.31.31,0,0,0,0,.09l0,.5,0,.51a1.29,1.29,0,0,1,0,.19c0,.09,0,.2,0,.32s0,.22,0,.32a.89.89,0,0,0,0,.19v.64l0,0,0,.08,0,.09a.13.13,0,0,0,0,0,.22.22,0,0,0,0,.1c0,.05,0,.08,0,.09a2,2,0,0,1,0,.28c0,.13,0,.26,0,.41s0,.28,0,.41,0,.23,0,.28a.58.58,0,0,1-.05.13l-.06.14,0,0-.06,0s.06,0,.1,0a.25.25,0,0,1,.09.07s0,0,0,.08l0,.11s0,.08,0,.11v.07s0,.06-.08.1-.09.08-.12.08l-.24,0-.38,0-.37,0-.25,0h-.2l-.14,0-.14-.05A1,1,0,0,1,80.23,50Zm-2.89-4.26c0,.06,0,.09.08.09s.07,0,.07-.09,0-.09-.07-.09S77.34,45.66,77.34,45.72ZM77.63,48h-.15s0,0,0,0,0,0,.1,0,.09,0,.1,0S77.66,48,77.63,48Zm-.2-3.1c0,.06,0,.09.08.09s.08,0,.07-.09,0-.1-.07-.09S77.43,44.83,77.43,44.89Zm0,.64c0,.07,0,.1.08.1s.08,0,.07-.1,0-.09-.07-.09S77.44,45.47,77.44,45.53Zm0,3.14c0,.06,0,.09.08.09s.07,0,.07-.09,0-.09-.07-.09S77.49,48.61,77.49,48.67Zm0-1.15a0,0,0,0,0,0,0s0,0,0,0,0,0,0-.05S77.5,47.47,77.5,47.52Zm0-2.17c0,.06,0,.09.08.09s.08,0,.08-.09,0-.09-.08-.09S77.54,45.29,77.54,45.35Zm0,.92c0,.06,0,.09.07.09a.06.06,0,0,0,.06,0,.13.13,0,0,0,0-.06.19.19,0,0,0,0-.07,0,0,0,0,0-.05,0S77.56,46.21,77.56,46.27Zm0,.28c0,.06,0,.09.08.09s.07,0,.07-.09,0-.09-.07-.09S77.56,46.49,77.56,46.55Zm.08-2.74a.08.08,0,0,0,0,.07.14.14,0,0,0,0,.06.06.06,0,0,0,.06,0s.07,0,.07-.1,0-.09-.08-.09A.05.05,0,0,0,77.64,43.81Zm0,2.49a.14.14,0,0,0,0,.06.14.14,0,0,0,0,.07.07.07,0,0,0,.06,0s.07,0,.07-.1,0-.09-.07-.09A.06.06,0,0,0,77.67,46.3Zm.1.89c0,.06,0,.09.07.09s.08,0,.08-.09,0-.09-.08-.09S77.77,47.13,77.77,47.19Zm0,1.25s0,.05,0,0,0,0,0,0a0,0,0,0,0,0,0S77.81,48.4,77.81,48.44Zm0-5.12c0,.06,0,.09.08.09s.08,0,.08-.09,0-.09-.08-.09S77.82,43.26,77.82,43.32Zm0,3.41c0,.06,0,.09.08.09s.07,0,.07-.09,0-.1-.07-.1S77.86,46.67,77.86,46.73Zm0,1.47c0,.07,0,.1.07.1s.08,0,.08-.1,0-.09-.08-.09S77.88,48.14,77.88,48.2Zm.05-4.6a.08.08,0,0,0,.16,0c0-.07,0-.1-.08-.1S77.93,43.53,77.93,43.6Zm0,1.75a.07.07,0,0,0,.08.08s.07,0,.07-.08,0-.1-.07-.1S78,45.28,78,45.35Zm0,1.57S78,47,78,47a.07.07,0,0,0,.08-.08c0-.07,0-.1-.08-.1S78,46.85,78,46.92Zm.08-3.58a.1.1,0,0,0,0,.07.14.14,0,0,0,0,.06.06.06,0,0,0,.06,0s.07,0,.07-.09,0-.1-.08-.1A.05.05,0,0,0,78.05,43.34ZM78.23,46l.1-.19h-.1Zm0,.46c0,.06,0,.09.08.09s.07,0,.07-.09,0-.09-.07-.09S78.26,46.39,78.26,46.45Zm0,1c0,.07,0,.1.07.1s.08,0,.08-.1,0-.09-.08-.09S78.27,47.4,78.27,47.46Zm.09-1.84c0,.06,0,.09.08.09a.05.05,0,0,0,0,0,.13.13,0,0,0,0-.06.15.15,0,0,0,0-.07.05.05,0,0,0,0,0S78.36,45.56,78.36,45.62Zm0,1.94a.07.07,0,0,0,.08.08s.07,0,.07-.08,0-.1-.07-.1S78.37,47.49,78.37,47.56Zm.11-.9a.14.14,0,0,0,0,.06.14.14,0,0,0,0,.07.06.06,0,0,0,.06,0s.07,0,.07-.1,0-.09-.08-.09A.05.05,0,0,0,78.48,46.66Zm.22-3.17s0,0,0,0l0,0s0,0,0,0a.1.1,0,0,0,.09,0,.08.08,0,0,0,0-.08S78.72,43.48,78.7,43.49Zm.07,2.22c0,.06,0,.09.07.09s.08,0,.08-.09,0-.09-.08-.09S78.77,45.65,78.77,45.71Zm.2-1.2c0,.06,0,.09.07.09s.08,0,.08-.09,0-.09-.08-.09S79,44.45,79,44.51Zm.61.93c0,.06,0,.09.07.09s.08,0,.08-.09,0-.09-.07-.09S79.58,45.38,79.58,45.44Zm0,.37c0,.06,0,.08.07.08s.08,0,.08-.08a.09.09,0,0,0-.08-.1C79.6,45.71,79.58,45.75,79.58,45.81Zm.16,1H80v-.1h-.31Zm0,.1a.07.07,0,0,0,.08.08s.07,0,.07-.08,0-.1-.07-.1S79.76,46.85,79.76,46.92Zm.33-.62a.14.14,0,0,0,0,.06.14.14,0,0,0,0,.07.05.05,0,0,0,0,0s.08,0,.08-.1,0-.09-.07-.09A.06.06,0,0,0,80.09,46.3Zm.07,1c0,.06,0,.09.07.09s.08,0,.08-.09,0-.09-.08-.09S80.16,47.23,80.16,47.29Zm0,.87s0,.06,0,.05a.11.11,0,0,0,0,0s0,0,0-.05S80.17,48.12,80.17,48.16Zm.26-.68v-.1h-.11Zm-.11.46a.13.13,0,0,0,.06,0l.05,0v-.18Zm.37-.19,0,0,0,0s0,0,0,0a.08.08,0,0,0,.08,0s0,0,0-.07S80.71,47.74,80.69,47.75Zm-.06-.18h.1v-.47h-.11Zm.21,1.23a.14.14,0,0,0,0,.06.08.08,0,0,0,0,.07.05.05,0,0,0,0,0s.07,0,.07-.09,0-.1-.07-.1A.05.05,0,0,0,80.84,48.8Zm.14.53.1-.09H81Zm.11-3.41c0,.06,0,.09.08.1s.07,0,.07-.1,0-.09-.07-.09S81.09,45.86,81.09,45.92Zm0,.56c0,.05,0,.08.07.08s.08,0,.08-.08,0-.09-.07-.1S81.08,46.41,81.08,46.48Zm.15,1V47.4h-.1Zm0,.18,0,0,0,0s0,0,0,0a.08.08,0,0,0,.08,0,.07.07,0,0,0,0-.07S81.3,47.66,81.28,47.67Zm0,.77a.14.14,0,0,0,0,.07.14.14,0,0,0,0,.06.05.05,0,0,0,.05,0s.07,0,.08-.09,0-.1-.07-.1A.06.06,0,0,0,81.24,48.44Zm0,.72c0,.05,0,.08.07.08s.08,0,.08-.08,0-.09-.07-.1S81.2,49.09,81.2,49.16ZM81.36,48s-.06,0,0,0a0,0,0,0,0,0,.05s0,0,.06,0S81.4,48,81.36,48Zm0-1.61c0,.06,0,.1.07.1s.08,0,.08-.1,0-.09-.07-.09S81.38,46.33,81.38,46.39Zm.29,1.19,0,0-.11.08-.1.09h.3v-.21Zm-.25.93c0,.06,0,.1.07.1s.08,0,.08-.09,0-.1-.07-.1S81.42,48.45,81.42,48.51Zm0,.56a.08.08,0,0,0,.07.09s.08,0,.08-.09,0-.09-.07-.09S81.41,49,81.4,49.07Zm.37-3.18s-.08,0-.09,0a.09.09,0,0,0,0,.06l0,.06h.08l.07,0,.06-.09,0-.09Zm0-1.51h.1a.59.59,0,0,0,.06-.12.53.53,0,0,1,.06-.16V44s0,0,0-.1a.31.31,0,0,0,0-.09C81.79,44,81.77,44.15,81.72,44.38Zm.2-1.15s-.07,0-.06,0a0,0,0,0,0,0,0,.07.07,0,0,0,.06,0S82,43.23,81.92,43.23Zm0,.22c0,.07,0,.1.07.1s.08,0,.08-.09,0-.1-.07-.1S81.88,43.39,81.88,43.45Zm0,4.7,0,0a.05.05,0,0,0,0,0s0,0,0,0a.07.07,0,0,0,.08,0,.06.06,0,0,0,0-.07S81.88,48.14,81.86,48.15Zm0-.94v0l0,0,.06,0,.1-.09-.1-.09a.19.19,0,0,0,.12,0,.14.14,0,0,0,.08-.07.27.27,0,0,0,0-.15.46.46,0,0,0-.07-.13.25.25,0,0,0,0,.07l-.06.11-.07.11,0,.07a.1.1,0,0,1,0,0S81.82,47.21,81.83,47.21Zm0-1,.11-.09h-.1ZM82,43.55c0,.06,0,.1.08.1s.08,0,.08-.09,0-.1-.08-.1S82,43.49,82,43.55Zm0,5s-.05,0-.05,0,0,0,.05,0,0,0,0,0S82,48.58,81.93,48.58Zm0,.37s-.06,0,0,0,0,0,0,0a.05.05,0,0,0,0,0S82,49,81.92,49Zm.36-5.72a.28.28,0,0,0-.1.05l0,0v.07l.21-.17ZM82,48.44c0,.06,0,.09.07.09s.07,0,.07-.08,0-.1-.06-.1S82,48.38,82,48.44Zm0,.28c0,.06,0,.09.07.09s.07,0,.07-.09,0-.09-.06-.09S82,48.66,82,48.72Z"/><path class="cls-5" d="M85.91,50.23c0-.14,0-.29,0-.45s0-.31,0-.45a2,2,0,0,1,0-.29,2.45,2.45,0,0,1,0-.34c0-.18,0-.37.08-.57s0-.4.08-.58,0-.29,0-.33l0-.23,0-.39,0-.49,0-.48,0-.4,0-.22s0-.1,0-.22,0-.24.07-.37,0-.26.07-.38,0-.19,0-.22,0-.06,0-.12a1.11,1.11,0,0,0,0-.19c0-.07,0-.14,0-.2v-.13l.12-.08h.13l.2,0h.12l.16,0h.22l.25,0,.38.07.37.06.25,0,.05,0,0,.06s0,0,0,.06,0,.07,0,.11,0,.08,0,.12a.64.64,0,0,0,0,.09L89,44a.26.26,0,0,0,0,.09v.35a1.69,1.69,0,0,0,0,.23v.16a.58.58,0,0,0,0,.1,1,1,0,0,1,0,.18c0,.06,0,.12,0,.18a.39.39,0,0,1,0,.11.66.66,0,0,0,0,.11,1.62,1.62,0,0,0,0,.21,1.27,1.27,0,0,0,0,.2.38.38,0,0,0,0,.13.43.43,0,0,0,0,.1l0,.09h.09l.13-.08.1-.08s0,0,0-.09,0-.08,0-.09,0,0,0-.07a1.17,1.17,0,0,0,.05-.11l0-.11,0-.07s0,0,0,0v0a.13.13,0,0,1,0-.07l0-.12,0-.1a.17.17,0,0,0,0-.07.43.43,0,0,1,0-.1l.06-.17a.84.84,0,0,1,0-.17l0-.1.06-.17.1-.27c0-.1.07-.19.1-.27l.06-.17,0,0,.07,0H91l.26,0,.41,0,.41,0,.27,0c-.44,2.93-.65,4.39-1.09,7.32,0,0,0,0,0,0l-.06,0-.11,0-.1,0-1-.15s0,0,0-.11,0-.13,0-.17l0-.13,0-.15s0-.1,0-.21A3.41,3.41,0,0,0,90,49.9c0-.14.06-.26.09-.38s0-.18,0-.21l0-.14c0-.08,0-.16,0-.26s0-.18,0-.27l0-.22,0-.15c0-.06,0-.12,0-.18s0-.12,0-.16v-.09l-.08-.1-.13.07a.36.36,0,0,0-.09.09A.41.41,0,0,0,90,48l-.06.17a.69.69,0,0,1,0,.17l0,.1-.07.09-.06.09a.62.62,0,0,1,0,.11,1.94,1.94,0,0,1,0,.2l-.06.2,0,.11s0,0,0,.07l-.05.11s0,.08,0,.11a.14.14,0,0,0,0,.07v.06l0,.12V50s0,.09-.06.18l-.09.27-.1.27-.06.17,0,0-.07,0h-.27l-.18,0-.12,0a.18.18,0,0,1-.08,0l-.09-.07-.06-.05,0,0s0,0,0-.07a.52.52,0,0,0,0-.11.5.5,0,0,0,0-.12v-.07c0-.08,0-.22,0-.42s0-.43,0-.67,0-.47,0-.68,0-.37,0-.47v-.27a.36.36,0,0,0,0-.11L88,47.56h-.19a.07.07,0,0,0,0,.05l0,.07a.36.36,0,0,0,0,.09.15.15,0,0,0,0,.06l-.3,3-.17,0-.26,0-.26,0-.17,0-.12,0-.17,0L86,50.55l-.11,0ZM86.84,48c0,.06,0,.09.07.1s.08,0,.08-.08,0-.1-.06-.1S86.85,48,86.84,48Zm.59-4.11c0,.06,0,.1.06.1s.08,0,.09-.09a.08.08,0,0,0-.07-.1C87.46,43.81,87.43,43.84,87.43,43.9Zm.3.36s-.06,0,0,0,0,.05,0,.05a.05.05,0,0,0,.06,0S87.78,44.26,87.73,44.26ZM89,46.39a.08.08,0,0,0,.07.09c.05,0,.08,0,.08-.08s0-.09-.06-.1S89,46.32,89,46.39ZM89,48.61s0,.09.07.09.07,0,.08-.08a.08.08,0,0,0-.06-.1S89,48.54,89,48.61Zm.32-.16c0,.07,0,.1.06.11s.08,0,.08-.09,0-.09-.06-.1S89.29,48.39,89.29,48.45Zm.31-.88s0,.09.06.09.08,0,.09-.07,0-.1-.06-.11S89.61,47.51,89.6,47.57Zm.31-.9c0,.07,0,.1.06.11s.08,0,.09-.09,0-.1-.06-.1S89.92,46.61,89.91,46.67Zm.34-1.31a.19.19,0,0,0-.11,0,.51.51,0,0,0,0,.09v.08l.25-.24Zm0-.13q0,.09.06.09s.08,0,.09-.07,0-.1-.07-.1S90.2,45.17,90.2,45.23Zm-.06.45c0,.06,0,.1.06.1s.08,0,.09-.08,0-.1-.06-.1S90.15,45.62,90.14,45.68Zm-.1.83c0,.05,0,.09.06.09s.08,0,.08-.07,0-.1-.06-.11S90,46.44,90,46.51Zm.38-1.63.16,0,.16,0,.05,0,0,0-.36,0Zm0,.49s0,0,0,.06a.15.15,0,0,0,0,.07.09.09,0,0,0,.06,0s.08,0,.08-.09,0-.09-.06-.1A.07.07,0,0,0,90.4,45.37Zm0,.28a.06.06,0,0,0,0,.06.09.09,0,0,0,.06.1s.08,0,.09-.08,0-.1-.06-.11A.06.06,0,0,0,90.37,45.65Zm-.1.73,0,.06a.13.13,0,0,0,0,.06.05.05,0,0,0,.06,0s.08,0,.08-.08,0-.1-.06-.11Zm0,.44c0,.06,0,.09.06.1s.08,0,.09-.08,0-.1-.06-.11S90.31,46.76,90.3,46.82Zm.15-1s0,0,0,0a.09.09,0,0,0,.06,0,.07.07,0,0,0,0,0S90.46,45.82,90.45,45.86Zm.13-.4c0,.06,0,.1.07.1s.07,0,.08-.08,0-.1-.06-.1S90.59,45.4,90.58,45.46Zm-.09.73c0,.06,0,.09.06.1a.08.08,0,0,0,.09-.08c0-.06,0-.09-.07-.1S90.49,46.13,90.49,46.19Zm.06.29c0,.06,0,.1.07.1a0,0,0,0,0,0,0,.14.14,0,0,0,0-.06.16.16,0,0,0,0-.07,0,0,0,0,0,0,0S90.56,46.42,90.55,46.48Zm.65-2.38,0,0v0a.28.28,0,0,0,0,.09v.09s0,0,0,.05a.34.34,0,0,1-.1,0l-.11,0,.5.07a.11.11,0,0,1,0,0s0,0,0-.06l0-.07s0-.07,0-.11,0-.08,0-.12a.25.25,0,0,1,0-.08Zm-.31,1.13,0,0s0,0,0,0l.21-.06,0,0Zm-.16.53.19,0-.17-.2ZM91,43.87a.09.09,0,0,0,0,.06A.09.09,0,0,0,91,44a.1.1,0,0,0,0,0s.08,0,.09-.09,0-.09-.06-.1A0,0,0,0,0,91,43.87Zm-.17,1.07c0,.06,0,.09.07.1S91,45,91,45s0-.09-.07-.1S90.86,44.88,90.85,44.94Zm.15-.26c0,.06,0,.09.06.1s.08,0,.09-.08,0-.1-.07-.11S91,44.61,91,44.68Zm-.12.82c0,.06,0,.1.07.11s.08,0,.09-.09,0-.09-.07-.1S90.89,45.44,90.88,45.5Zm-.45,3.38c0,.06,0,.09.06.1s.08,0,.09-.08,0-.1-.06-.11S90.44,48.81,90.43,48.88Zm.65-4s0,.09.06.09.08,0,.09-.07,0-.1-.07-.1S91.08,44.82,91.08,44.88Zm.44.34-.18,0c-.08,0-.13,0-.13,0a.17.17,0,0,0-.07.09.41.41,0,0,0,0,.11h.19l.07,0,.11-.07.1-.07.07-.05h-.11Zm-.63,2.65s0,0,0,0,0,.05,0,.05,0,0,.06,0S90.94,47.88,90.89,47.87Zm.49-3.58s0,0,0,.06a.15.15,0,0,0,0,.07.09.09,0,0,0,.06,0s.08,0,.09-.09,0-.09-.07-.1A.07.07,0,0,0,91.38,44.29Zm0,1.1s0,.08-.08.07-.07,0-.07-.1,0-.09.09-.08S91.37,45.32,91.36,45.39Zm0-.33s-.07,0-.06,0a0,0,0,0,0,0,0,0,0,0,0,0,.06,0S91.43,45.07,91.39,45.06Zm.09-.87a.08.08,0,0,0,.07.1.08.08,0,0,0,.09-.08c0-.06,0-.1-.07-.1S91.49,44.13,91.48,44.19Zm0,.5s0,.06,0,.05,0,0,.06,0a.08.08,0,0,0,0-.06S91.45,44.66,91.44,44.69Zm-.1,1.8-.06,0,0,0,.22-.06h-.11Zm.09-1s0,.07,0,.06a.09.09,0,0,0,.06,0,.05.05,0,0,0,0-.06S91.44,45.49,91.43,45.52Zm0,.66s-.06,0-.06,0a.07.07,0,0,0,0,.05.08.08,0,0,0,.07,0S91.48,46.19,91.44,46.18Zm-.25,1.41h.1v-.09ZM91.72,44c0,.06,0,.1.06.11a.06.06,0,0,0,.06,0,.08.08,0,0,0,0-.06.06.06,0,0,0,0-.06s0,0,0,0S91.73,44,91.72,44Zm.11.19,0,0,0,0s0,0,0,0a.06.06,0,0,0,.08,0,.05.05,0,0,0,0-.07ZM91.52,46l.11-.08h-.09Zm-.29,2.31a.14.14,0,0,0,0,.06.08.08,0,0,0,0,.07,0,0,0,0,0,0,0s.07,0,.08-.08,0-.1-.06-.11Zm.56-3.48.21,0-.2-.13Zm.08-.36c0,.06,0,.09.06.1s.08,0,.09-.08,0-.1-.06-.11S91.88,44.36,91.87,44.43Zm-.18,1.28s0,.09.06.09.08,0,.09-.07,0-.1-.06-.1S91.7,45.65,91.69,45.71Zm0,.27c0,.06,0,.09.06.1A.08.08,0,0,0,91.8,46c0-.06,0-.1-.06-.1S91.66,45.92,91.65,46Zm0,.18c0,.06,0,.1.06.1s.08,0,.09-.08,0-.1-.06-.1S91.63,46.1,91.62,46.16Zm-.29,2c0,.06,0,.09.06.1a.08.08,0,0,0,.09-.08c0-.06,0-.1-.06-.1S91.34,48.11,91.33,48.17Zm.75-3.9.1,0,0-.19Z"/><path class="cls-5" d="M92.18,51.11s0-.07,0-.09a.89.89,0,0,1,0-.11l0-.07a.18.18,0,0,1,0-.08l.09-.13.08-.13,0-.08a.65.65,0,0,0,0-.1c0-.06,0-.09,0-.1a.15.15,0,0,1,0-.08l.06-.08.11,0,.11,0a0,0,0,0,0,0,0s0,0,0-.05l-.17,0s0-.14,0-.28,0-.27,0-.41,0-.29,0-.42a2.65,2.65,0,0,1,0-.27s0-.12,0-.26,0-.28.09-.46.08-.35.11-.55l.12-.55q0-.26.09-.45c0-.13,0-.22,0-.25l0-.09,0-.17,0-.18,0-.16,0-.11,0-.18c0-.07,0-.13,0-.19a.54.54,0,0,0,0-.11s0,0,0-.05a.15.15,0,0,1,0-.06l.07-.08a.21.21,0,0,0,.06-.08v-.27l.07-.1s0-.07.07-.07l.17,0c.57.09,1.12.2,1.67.33s1.1.26,1.66.37v.05l0,0a.27.27,0,0,1,0,.08L97,45.1s0,.09,0,.13l0,.09a.69.69,0,0,1-.06.13l-.08.15a.15.15,0,0,0,0,.06l-.08,0-.13,0-.14,0h-.1l-.09,0-.1-.08a.65.65,0,0,0,0-.1.23.23,0,0,0,0-.1l-.09-.06-.1-.07s0,0,0,0a.08.08,0,0,1,0,0,.16.16,0,0,0-.12,0c-.06,0-.09,0-.1.06a.21.21,0,0,0,0,.14.39.39,0,0,0,0,.14l-.15,0-.17,0-.12,0-.15,0-.17,0c-.11.62-.16.93-.27,1.55l.06,0a.39.39,0,0,1,.08.1l.07.1a.17.17,0,0,1,0,.07s0,0,0,.07a.47.47,0,0,1,0,.1,1.17,1.17,0,0,1,0,.11l0,.07L95,48,95,47.85l0,0,.11,0,.1,0,.07,0h.51l-.17-.13.59.12L96,48.84l-.12,0-.18,0-.17-.05-.11,0-.13-.06-.16-.09-.1-.07s-.07,0-.07-.06,0,0,0,0a.28.28,0,0,0,0-.09s0-.06,0-.09a.35.35,0,0,0,0-.06s-.05,0-.1,0-.08,0-.09,0,0,0,0,0,0,0,0,0,0,0,0,0,0,.05,0,.06,0,0,0,0v0h0a.23.23,0,0,1,0,.05l-.06,0-.11,0-.11,0a.3.3,0,0,0-.07.08l-.06.09s0,.13-.07.26-.06.26-.1.41-.07.27-.11.4L94,50s0,.05,0,.12a.64.64,0,0,0,0,.15.89.89,0,0,0,0,.18l.07.11.09.11v0l0,0,.5.09a.15.15,0,0,0,.09.07l.1,0h.09l.08,0,.13,0,.13,0s.07,0,.08,0a.11.11,0,0,1,.08,0h.31l-.19.94-.08,0-.12,0-.2,0-.28-.06-.3-.06-.45-.1-.53-.11-.53-.11-.45-.1-.29-.06A.44.44,0,0,1,92.18,51.11ZM92.75,49c0,.06,0,.09.06.1s.07,0,.08-.08,0-.1,0-.1S92.76,48.91,92.75,49Zm0,.18c0,.06,0,.09.06.1s.07,0,.08-.07,0-.1,0-.11S92.73,49.09,92.72,49.15Zm0,1.31s0,.09.06.09.07,0,.08-.07,0-.1,0-.1S92.72,50.39,92.71,50.46Zm.27-.85a.58.58,0,0,0,0,.14.71.71,0,0,0,0,.14s0,0,0,0a.1.1,0,0,0,.05-.06l0-.11s0-.07,0-.11a.11.11,0,0,0,0-.08S93,49.57,93,49.61Zm-.18,1s0,.06,0,0l0,0a0,0,0,0,0,0-.06S92.81,50.57,92.8,50.61Zm.31-1.34.06,0,0-.27-.07.08a.27.27,0,0,0-.06.09Zm-.2,1.12c0,.07,0,.1.06.11s.08,0,.09-.08,0-.1-.06-.11A.08.08,0,0,0,92.91,50.39Zm.77-4.16.12-.08-.1,0ZM93,50.87A.41.41,0,0,0,93,51a.08.08,0,0,1,0,0s0,0,0,0,0,0,0-.11,0-.09.07-.1l.07,0,.14,0,.13,0,.08,0v0s0-.06,0-.1a.53.53,0,0,0,0-.13.87.87,0,0,0,0-.1.09.09,0,0,0,0,0l0,0,0,0h-.06v.06s0,0,0,.05a.61.61,0,0,1,0,.15.61.61,0,0,0,0,.14H93.2l-.15,0-.07.08-.06.09Zm.18-1.19c0,.07,0,.1.06.11s.08,0,.09-.08,0-.1-.06-.11S93.14,49.62,93.13,49.68Zm.27-.77a.25.25,0,0,1,0,.07v.07a0,0,0,0,0,0,0,.07.07,0,0,0,.06-.08.1.1,0,0,0,0-.11S93.41,48.89,93.4,48.91Zm0,.26c0,.06,0,.09,0,.1s.08,0,.09-.07,0-.1-.06-.11S93.43,49.11,93.42,49.17Zm.7-3.43a.43.43,0,0,0,0,.1h.1s0,0,0-.1a.64.64,0,0,0,0-.1h-.11A.41.41,0,0,1,94.12,45.74ZM93.69,48l.1,0,0-.09-.1,0Zm.09-.36c0,.07,0,.1.06.11s.08,0,.09-.08,0-.1-.06-.11S93.79,47.58,93.78,47.64Zm.34-.63s-.06,0-.05,0,0,.05,0,.05a.07.07,0,0,0,.06,0S94.16,47,94.12,47Zm.25-1.37s0,.06,0,.06,0,0,0,0a.07.07,0,0,0,0-.06S94.37,45.6,94.37,45.64Zm-.14,1.15c0,.06,0,.09.06.1s.08,0,.09-.07,0-.1,0-.11S94.24,46.73,94.23,46.79Z"/><path class="cls-6" d="M61.88,49.69l.36-.06.37-.06.24,0H63l.15,0a.58.58,0,0,0,0,.13,1.89,1.89,0,0,1,.06.18,1.89,1.89,0,0,0,.06.18c0,.06,0,.1,0,.12a.5.5,0,0,0,.06.08l.08.09.05,0,0,0H64a.24.24,0,0,0,.09-.07,1.47,1.47,0,0,0,.1-.13.51.51,0,0,0,.09-.13.23.23,0,0,0,0-.1s0-.09,0-.12,0-.07,0-.1l0-.1,0-.1a.59.59,0,0,0,0-.13l0-.11s0-.05,0-.06a.45.45,0,0,0,0-.08.54.54,0,0,1,0-.11l0-.1,0,0L64,48.89l-.13-.09-.15-.09-.11-.06-.11,0-.1,0-.09,0-.12-.06L63,48.44l-.1,0,0,0s0,0-.07,0l-.06,0-.1,0-.1,0-.07,0-.07,0-.11-.09-.12-.1-.06-.07L62,47.81l-.12-.06,0,0-.08-.1-.08-.1a.33.33,0,0,1-.06-.08l-.08-.09-.09-.13-.08-.12a.25.25,0,0,0-.05-.07.55.55,0,0,1,0-.09c0-.05,0-.08,0-.09l0,0,0-.07a.56.56,0,0,0,0-.08s0,0,0-.05v-.09a.86.86,0,0,0,0-.15,1.48,1.48,0,0,0,0-.21,1,1,0,0,0,0-.18v-.11a.25.25,0,0,1,0-.08v-.12s0-.08,0-.11a.35.35,0,0,1,0-.07.33.33,0,0,1,0-.1l0-.11.08-.17.07-.14.09-.06a.37.37,0,0,0,.1-.07s0,0,.05-.05a.27.27,0,0,0,.08-.07l.09-.07.05,0,.15-.08.14-.07.18,0,.29-.06.28,0,.18,0,.24,0,.31-.05.25,0,.14,0h.52l.12,0,.11,0,.14.07.18.12.17.11.1.07.08.12.06.14a2.19,2.19,0,0,0,0,.22c0,.1,0,.21.07.32l.06.33c0,.1,0,.17,0,.21l-1.47.23,0,0L64.08,46,64,46l-.06-.08s0-.05,0-.09,0-.08,0-.09a.28.28,0,0,0,0-.08s-.06-.08-.08-.09l-.06,0-.06,0h-.52a.15.15,0,0,0-.08,0l-.11.07-.05.06,0,0a.9.9,0,0,1,0,.15l0,.14,0,.18,0,.18.08.14c0,.06.06.11.08.12l.12.07.12.07.06.06.11.1.12.1.07,0,.1,0,.11,0,.12.07.12.07.07,0,.15.06.14.06.08,0,.08,0a.71.71,0,0,1,.14.1l.15.1.09,0,.06,0,.1,0,.1,0,.06,0s0,0,0,.05l.08.1.07.1,0,.08.08.14.09.19a1.31,1.31,0,0,0,.09.17.82.82,0,0,1,0,.11v.07l0,.14,0,.16,0,.13v.1s0,.09,0,.15a.77.77,0,0,0,0,.15v.1a.41.41,0,0,0,0,.09.39.39,0,0,1,0,.11l0,.1,0,.18,0,.19,0,.1-.06.08-.09.13-.1.12-.08.1-.06,0-.1.07-.11.08-.08.05-.13.07-.17.09-.16.08-.09,0-.09,0-.13,0a2.49,2.49,0,0,1-.72,0l-.72-.06-.18,0-.13,0-.11-.06-.17-.1-.17-.11-.11-.09s0,0,0,0l0-.07L62,51a.15.15,0,0,1,0-.06l-.06-.23c0-.12-.06-.24-.08-.37L61.69,50c0-.12,0-.2,0-.24Zm.62-3.41s-.06,0,0,0,0,0,0,0,0,0,.05,0S62.55,46.27,62.5,46.28Zm.22,1.17s-.06,0,0,0a.07.07,0,0,0,.06,0,.07.07,0,0,0,0-.06S62.76,47.44,62.72,47.45Z"/><path class="cls-6" d="M67.19,49.27l.06,0s0,.07.07.13a.35.35,0,0,1,.06.14.4.4,0,0,1,.07-.12.35.35,0,0,1,.1-.09h.06l.09,0,.1,0s0,0,.06,0,0,0,0,0a.15.15,0,0,0,0-.06.23.23,0,0,0,0-.1l-.06-.07-.16,0h-.15v0l-.41.05a.13.13,0,0,1,0-.05v0l0,0,0-.06a.64.64,0,0,0,0-.1l0-.09v-.1a2,2,0,0,1-.19.12l0-.11,0-.11s0-.08,0-.14a.62.62,0,0,1,0-.09s0,0,0-.05,0,0,0-.06a.35.35,0,0,0,0-.06s0,0,0-.08l0-.09a.35.35,0,0,1,0-.06l0-.06.08-.09.08-.09.06-.07s0,0,0,0h.06l0-.19h-.3l-.1.06-.09.06a.58.58,0,0,1,0-.15.48.48,0,0,1,0-.13l0-.05.09-.07.09-.07,0,0,.05,0,0,0-.07,0-.12,0-.12,0-.08,0H67L66.83,47s-.09-.06-.1-.08a.15.15,0,0,1,0-.06l0,0h.09s0,0,0-.06,0,0,0,0l-.06-.09-.07-.09v-.21l-.06,0-.06,0-.06,0s0,0,0,0l0-.07s0-.08,0-.11a.54.54,0,0,0,0-.11V46s0,0,0-.05a.29.29,0,0,0,0-.09l0-.1a.1.1,0,0,0,0,0v-.1l-.06,0-.06,0a.18.18,0,0,0,0-.06.43.43,0,0,1,0-.11s0-.08,0-.11a.45.45,0,0,1,0-.08.34.34,0,0,0,0-.09.49.49,0,0,0,0-.12s0-.08,0-.11v0a.17.17,0,0,1,0-.08.83.83,0,0,0,0-.12.61.61,0,0,1,.05-.12.21.21,0,0,1,0-.07h-.1V44.3l0-.07.12-.14.15-.17.13-.14.16-.12.14-.11a.64.64,0,0,1,.16-.07l.24-.09.25-.08.16,0,.17,0,.15,0h.12l.12,0h.17l.13,0h.5l.13,0,.2.07.19.06.14.05.1,0,.14.07.13.07.07,0a.16.16,0,0,1,0,.06l0,.1a.36.36,0,0,0,0,.11l0,.09,0,.23.06.31c0,.11,0,.21.05.29s0,.15,0,.17v.13s0,.1,0,.15,0,.1,0,.14,0,0,0,0l-1.32.13s0,0,0,0l0-.09,0-.12a.51.51,0,0,0,0-.1v-.18l0-.12v-.07s0,0,0-.06a.56.56,0,0,0,0-.12l0-.11a.13.13,0,0,1,0-.07v-.27l-.75.08c-.1.24-.14.35-.24.58.11.88.16,1.32.26,2.2,0,0,0,.05,0,.09a.27.27,0,0,0,0,.1.13.13,0,0,0,0,.06s.06,0,.07,0l.07.64.07,0,0,0v.37s0,.1,0,.22,0,.24.08.37,0,.26.08.38,0,.2,0,.21a.1.1,0,0,1,0,.07v.2s0,0,0,.06a.23.23,0,0,1,0,0l0,0,.06,0h.1L69,50l.08-.11h.09s0,0,.06,0l0,0,.07,0,.11,0,.12,0,.08,0,.09-.11.09-.06.09,0-.15,0a.41.41,0,0,1-.15,0v-.69c0-.12,0-.22,0-.32a.56.56,0,0,0,0-.19.68.68,0,0,0,0-.12,1,1,0,0,0,0-.17,1.15,1.15,0,0,1,0-.18.54.54,0,0,1,0-.11h.28l.11,0a.27.27,0,0,0,.1,0h.19s0,0,.1-.06l.1-.05.1,0,.16,0,.15,0H71a.54.54,0,0,1,0,.08V48a.18.18,0,0,1,0,.06.31.31,0,0,1,0,.08l0,.09v0s0,0,0,0l0,0a.36.36,0,0,1,0,.11l0,.08h-.39a.23.23,0,0,0,0,0s0,0,0,.06l-.1,0-.09.06-.06,0s0,0,0,.05a.18.18,0,0,0,0,.06.1.1,0,0,1,0,.06l.09,0,.08,0,.06,0s0,0,0,0l.08-.11.1-.1h.1s0,0,0,.09l.06.09.05,0,.06,0h.11v0a0,0,0,0,1,0,0q0,.08,0,.18a1.55,1.55,0,0,0,0,.21c0,.07,0,.13,0,.18s0,.09,0,.1l0,.06-.1.11a1.34,1.34,0,0,1-.11.14l-.09.09-.09.06-.1,0-.13,0-.2.06-.2,0-.13,0h-.18l-.14,0-.11,0H68.11l-.06,0-.12,0-.12,0-.1,0a.36.36,0,0,1-.14-.11l-.09-.14s0-.07-.07-.14L67.35,50v-.28l0,0-.05-.08,0-.08,0,0s0,0,0-.12a.62.62,0,0,1,0-.11Zm-.27-2.76s0,.05.06,0,0,0,0,0a.06.06,0,0,0-.06,0S66.92,46.47,66.92,46.51ZM67,45.1l-.08.09-.09.1,0,.06a0,0,0,0,1,0,0v0s0,0,0,0,0,0,0,0l.06-.06a.39.39,0,0,0,.08-.1l.08-.09,0-.07v-.05a.08.08,0,0,1,0,0S67.06,45.07,67,45.1Zm.28,3.73c0,.05,0,.08.09.07s.07,0,.06-.09,0-.09-.09-.09S67.3,48.76,67.31,48.83ZM67.56,46l0,.06a1.13,1.13,0,0,0-.07.15l-.09.24a1.17,1.17,0,0,0-.09.24l-.06.15v.12l.06,0,.06,0,0,0,0-.06a.22.22,0,0,0,0-.06.53.53,0,0,0,0-.13s0-.08,0-.12,0-.05,0-.07a.22.22,0,0,0,0-.09l0-.1.12.08h.1a.19.19,0,0,0,0-.11l0-.09a.39.39,0,0,0-.11-.09.22.22,0,0,0-.12-.06Zm-.36.28,0,0a.08.08,0,0,0,0,.05s0,0,0,0a.07.07,0,0,0,.08,0,.06.06,0,0,0,0-.08Zm.57,3.44a.11.11,0,0,0-.08,0l-.07,0s0,0,0,0a.1.1,0,0,0,.1,0c.06,0,.09,0,.1-.05S67.79,49.67,67.77,49.67Zm-.31-1.23c0,.05,0,.08.08.07a.07.07,0,0,0,.06-.09c0-.07,0-.09-.08-.09S67.45,48.37,67.46,48.44Zm-.41-3.85s0,.08.09.07.07,0,.07-.09,0-.09-.09-.09S67.05,44.52,67.05,44.59Zm.09.63c0,.06,0,.09.09.08s.07,0,.06-.1,0-.09-.09-.08S67.13,45.16,67.14,45.22ZM67.63,49c0,.06,0,.09.08.08s.07,0,.06-.1,0-.09-.08-.09S67.62,48.9,67.63,49Zm0-1.31,0,0,0,.05s0,0,0,0a.08.08,0,0,0,.08,0,.06.06,0,0,0,0-.07ZM67.94,50l.26-.31.11.08a.8.8,0,0,1,0-.11.68.68,0,0,1,0-.12,1.23,1.23,0,0,1,0-.13c0-.06,0-.09,0-.1l0,0-.06,0a.22.22,0,0,1,0,.09.25.25,0,0,1,0,.1l0,.06-.07.11-.08.13a.64.64,0,0,0-.06.1l0,0a.23.23,0,0,1,0,.05Zm-.68-5.3.06.1.06.07.06,0h0l0-.32-.11,0,0-.18a.19.19,0,0,0,0,.09.43.43,0,0,0,0,.1.11.11,0,0,0,0,.05Zm.14.82.07.08,0-.1a.41.41,0,0,1,0-.09l0,0h.06l.06,0s0,0,0,.05l0-.37-.1.06-.1,0h-.11l0,.11,0,.09A.44.44,0,0,0,67.4,45.56Zm.14,1.2c0,.05,0,.08.08.07s.08,0,.07-.09,0-.09-.09-.09S67.53,46.69,67.54,46.76Zm.3,1.53c0,.06,0,.09.08.09s.07-.05.07-.11,0-.09-.09-.08S67.83,48.23,67.84,48.29Zm-.2-2.62s-.06,0,0,0a.05.05,0,0,0,0,0,.06.06,0,0,0,0,0S67.68,45.67,67.64,45.67Zm-.21-1.42c0,.07,0,.09.09.09s.07,0,.06-.11,0-.09-.08-.08S67.42,44.19,67.43,44.25Zm.43,3.39c0,.06,0,.08.08.08s.07,0,.07-.1,0-.09-.09-.08S67.85,47.58,67.86,47.64Zm-.31-3.31c0,.07,0,.09.09.09a.1.1,0,0,0,0,0s0,0,0-.06a.14.14,0,0,0,0-.07s0,0-.06,0S67.54,44.27,67.55,44.33Zm.39,2.88s0,0,0,0a.05.05,0,0,0,0,0s0,0,0,0S67.93,47.17,67.94,47.21Zm-.25-2.68a.13.13,0,0,0,0,.06.14.14,0,0,0,0,.07l.07,0s.07,0,.06-.11,0-.09-.09-.08A.07.07,0,0,0,67.69,44.53Zm.5,4.18c0,.06,0,.09.08.08a.08.08,0,0,0,.07-.09c0-.07,0-.09-.09-.09S68.18,48.65,68.19,48.71Zm-.35-3.06s0,.05,0,0a.05.05,0,0,0,0,0,0,0,0,0,0-.05,0S67.83,45.61,67.84,45.65Zm0-.24c0,.06,0,.09.09.08s.07,0,.07-.1,0-.09-.09-.09S67.88,45.34,67.88,45.41Zm.71-1.34s-.06,0,0,0a.05.05,0,0,0,.06,0,.07.07,0,0,0,0,0S68.63,44.07,68.59,44.07Zm.3,0a.07.07,0,0,0,0,.06s0,.05,0,.06a.06.06,0,0,0,.06,0c.05,0,.07,0,.07-.1s0-.1-.09-.09S68.9,44,68.89,44Zm.19,0c0,.06,0,.09.09.08s.08,0,.07-.1,0-.09-.09-.08S69.08,44,69.08,44.06Zm.54,4c0,.06,0,.09.08.09a0,0,0,0,0,0,0,.13.13,0,0,0,0-.06.11.11,0,0,0,0-.06.06.06,0,0,0-.06,0A.08.08,0,0,0,69.62,48.08Zm.14.29a.17.17,0,0,0,0,.07.09.09,0,0,0,0,.06.06.06,0,0,0,.06,0s.06,0,.06-.11,0-.09-.08-.08A.06.06,0,0,0,69.76,48.37Zm.12-.23h.31a.26.26,0,0,1,.12.06.45.45,0,0,1,.1.1v-.1l0-.08s0,0,0-.05a.07.07,0,0,0-.06,0H70l-.1.06-.09.06Zm.34,1h0a.41.41,0,0,0,0,.09l0,.1a.18.18,0,0,1,0,.06l0,.09a.29.29,0,0,1,0,.09.18.18,0,0,0,0,.06.41.41,0,0,0,0,.09l0,.1s0,0,0,0h0l0,0,0,0,0-.05h.1l.09,0,.09-.05.14,0,.14,0v-.18a.42.42,0,0,1-.15,0l-.15,0s0,0-.06-.08a.18.18,0,0,0-.06-.08s0,0,0,0h0Zm-.06-.45s0,0,0,0l0-.06a.55.55,0,0,0,0-.09.44.44,0,0,0,0-.09h-.13Zm-.4-4.28a.08.08,0,0,0,0,.07.14.14,0,0,0,0,.06.07.07,0,0,0,.06,0s.08,0,.07-.1,0-.09-.09-.09A.1.1,0,0,0,69.76,44.39Zm.86,5.72c0,.06,0,.09.08.09a.07.07,0,0,0,0,0V50.1a.14.14,0,0,0,0-.07l0,0C70.63,50,70.61,50.05,70.62,50.11Zm0-2-.08,0a.64.64,0,0,0,0,.1.33.33,0,0,0,0,.1l.09,0,.09-.06,0-.06v-.07Z"/><path class="cls-6" d="M71.93,50.17a.34.34,0,0,1,0-.09s0-.1,0-.15a.77.77,0,0,1,0-.15.54.54,0,0,1,0-.08s0-.08,0-.13a1.1,1.1,0,0,1,0-.18.7.7,0,0,1,0-.16V49a2.81,2.81,0,0,0,0-.3c0-.1,0-.2,0-.29v-.17s0-.07,0-.13,0-.12,0-.19a1.34,1.34,0,0,1,0-.2c0-.06,0-.1,0-.13a.44.44,0,0,1,0-.09l0-.14a.61.61,0,0,1,0-.15.44.44,0,0,0,0-.09s0-.11,0-.22,0-.23,0-.38,0-.3,0-.47,0-.32,0-.46,0-.28,0-.39,0-.18,0-.21,0-.09,0-.19,0-.21,0-.33,0-.22,0-.32a1.52,1.52,0,0,0,0-.19.13.13,0,0,0,0,0v0s0-.1,0-.17v-.21c0-.06,0-.13,0-.18a.31.31,0,0,1,0-.09l0-.06s0,0,.06,0l.29,0,.43-.06.44-.05.3,0h.42l.14,0,.11,0,.06,0c0,.06,0,.11,0,.15l0,.12,0,.1a.43.43,0,0,0,0,.12c0,.06,0,.12,0,.2s0,.13,0,.2l0,.11a2,2,0,0,0,0,.23c0,.11.05.22.08.33s.06.23.08.33,0,.17,0,.21a.89.89,0,0,0,0,.11s0,.09,0,.14l0,.13a.22.22,0,0,0,0,.08.13.13,0,0,0,0,0l0,.09a.59.59,0,0,1,0,.08.18.18,0,0,1,0,0,.5.5,0,0,1,0,.12c0,.06,0,.13,0,.21a1.77,1.77,0,0,1,0,.2.89.89,0,0,1,0,.11l0,.07,0,.1,0,.11,0,.09a.87.87,0,0,0,0,.13.74.74,0,0,0,.06.14v.55a.32.32,0,0,0,0,.08l0,.11s0,.08,0,.12A.39.39,0,0,1,76,48a.62.62,0,0,1,0,.1l0,.14a1,1,0,0,1,0,.14s0,.07,0,.08v.09l0,.09s0,.09,0,.14l0,.14a.2.2,0,0,1,0,.08v.37a.17.17,0,0,0,0,.07.75.75,0,0,0,.07.12l.06.11,0,.07a.58.58,0,0,1,0,.1.72.72,0,0,1,0,.13v.11a.31.31,0,0,1,0,.12l-.09.06-.1,0h-.71l-.21,0-.2,0-.13,0s0,0-.06-.09l0-.08s0-.08,0-.16,0-.16,0-.26,0-.18,0-.26,0-.13,0-.15a.45.45,0,0,0-.05-.1l-.06-.08h-.05l-.11,0-.13,0-.1,0h-.1l-.08,0L74,49l-.13,0h-.07l-.09,0-.1.06,0,0a.12.12,0,0,0,0,0,.32.32,0,0,1,0,.08s0,.08,0,.13a.68.68,0,0,0,0,.14.74.74,0,0,0,0,.12v.09s0,.07,0,.12,0,.09,0,.14a.51.51,0,0,1,0,.13.38.38,0,0,1,0,.08l0,.1a.41.41,0,0,1,0,.09l-.12,0-.17,0-.17,0-.12,0-.11,0h-.37l-.09,0-.1,0-.07,0s0,0,0,0v-.17Zm.7-4.69,0,0s0,0,0,0,0,0,0,0a.08.08,0,0,0,.08,0,.06.06,0,0,0,0-.08Zm0-1.38c0-.12.06-.17.09-.29h-.1Zm.26,1.83c0,.06,0,.09.08.09s0,0,0,0a.07.07,0,0,0,0-.06.15.15,0,0,0,0-.07.11.11,0,0,0-.06,0S72.93,45.86,72.93,45.93Zm.69,1.8a.3.3,0,0,0,.1.1l.11.08a1.16,1.16,0,0,0,.19,0l.12,0h.09l0,0,0-.05a.42.42,0,0,0,.05-.14.7.7,0,0,0,0-.14v0a.11.11,0,0,0,0,0,.43.43,0,0,1,0-.05.18.18,0,0,1,0,0s0-.06,0-.12,0-.13-.05-.2l0-.2a.35.35,0,0,1,0-.12,1.27,1.27,0,0,1,0-.15c0-.08,0-.17,0-.26s0-.18,0-.26,0-.13,0-.15a.81.81,0,0,0,0-.09s0-.09,0-.14a.83.83,0,0,0,0-.15l0-.08v-.09l.09-.14a1.2,1.2,0,0,1,.1-.15h-.11a.88.88,0,0,1-.1.1l-.09.1s0,0,0,0a.11.11,0,0,1,0,0v-.05a.1.1,0,0,0,0,0,.43.43,0,0,1,.1-.1l.09-.09a.16.16,0,0,0,0-.1.44.44,0,0,1,0-.09l0,0,.06,0s0,0,0-.09a.41.41,0,0,0,0-.12,1.18,1.18,0,0,0,0-.16l-.06,0-.1,0-.11,0-.06,0a.46.46,0,0,1-.07-.13.43.43,0,0,1,0-.14c-.11.19-.17.28-.29.47a.25.25,0,0,0,0-.13c0-.07,0-.12,0-.14l-.05,0s-.06,0-.06,0l0,0a.1.1,0,0,1,0,0l-.39,0a.38.38,0,0,0,0,.14.42.42,0,0,0,.08.13s.05,0,.11,0l.1-.05v.08c0,.05,0,.08,0,.09l.05.1s0,.07.06.07l.15,0,.16,0,0,.06a.38.38,0,0,1-.09.09l-.09.09s0,0-.06,0h-.1l-.1.14a.71.71,0,0,0-.09.15s.06-.05.14-.08a.45.45,0,0,1,.17,0l.06,0,.1.07.1.08.06.07v.12a5,5,0,0,1,0,.55c0,.18,0,.37,0,.55l0,.56a5.23,5.23,0,0,0,0,.56Zm-.4.8a.14.14,0,0,0,0,.06.11.11,0,0,0,0,.06.09.09,0,0,0,.06,0s.07,0,.07-.1,0-.09-.08-.09S73.23,48.51,73.22,48.53Zm-.16-2.47s0,0,0,0,0,0,0,0,0,0,0-.05S73.06,46,73.06,46.06Zm0-.73.06,0,.15,0,.15-.06-.15,0-.16,0-.06,0s0,0,0,.05S73.08,45.3,73.11,45.33Zm0-1.35c0,.06,0,.09-.07.09S73,44.05,73,44s0-.1.07-.1S73.16,43.92,73.16,44Zm-.11.65c0,.06,0,.08.08.08s.07,0,.07-.09,0-.09-.08-.09S73,44.57,73.05,44.63Zm.06,1c0,.06,0,.09.08.09s.08,0,.07-.1,0-.09-.08-.09S73.11,45.58,73.11,45.64Zm.29,2.84c0,.07,0,.1.08.09s.07,0,.06-.09,0-.1-.08-.09S73.39,48.42,73.4,48.48Zm.1.09c0,.07,0,.09.08.09a0,0,0,0,0,0,0,.15.15,0,0,0,0-.07.14.14,0,0,0,0-.06,0,0,0,0,0-.05,0S73.5,48.51,73.5,48.57ZM73.63,45c0,.06,0,.09-.07.09s-.08,0-.08-.08,0-.09.07-.1S73.63,44.9,73.63,45Zm0-.19h-.1l.09-.1Zm.15,3.37s0,.06,0,0,0,0,0,0a0,0,0,0,0,0,0S73.8,48.1,73.8,48.14Zm.13-3.38c0,.06,0,.09-.07.1a.06.06,0,0,1-.06,0,.09.09,0,0,1,0-.06.14.14,0,0,1,0-.07.05.05,0,0,1,0,0C73.9,44.67,73.92,44.7,73.93,44.76Zm-.05-.32s0,0,0,.05,0,0,0,0,0-.06,0-.06S73.88,44.42,73.88,44.44Zm.17-.43c0,.07,0,.1.08.09a0,0,0,0,0,.05,0,.13.13,0,0,0,0-.06.15.15,0,0,0,0-.07.07.07,0,0,0-.06,0C74.07,43.92,74.05,44,74.05,44Zm.28-.47c0,.06,0,.09.09.08s.07,0,.07-.09,0-.09-.08-.09A.09.09,0,0,0,74.33,43.54Zm.08,1s0,.06,0,0,.05,0,.05,0,0,0-.05,0S74.41,44.46,74.41,44.5Zm.13,1.15c0,.06,0,.09.08.09s.08,0,.07-.09,0-.1-.08-.09S74.54,45.59,74.54,45.65ZM74.49,44s0,.05.05,0,0,0,0,0a0,0,0,0,0,0,0S74.49,44,74.49,44Zm.16,1.36a.07.07,0,0,0,0,.06.14.14,0,0,0,0,.06.06.06,0,0,0,.06,0c.05,0,.07,0,.07-.1s0-.09-.08-.09A.05.05,0,0,0,74.65,45.4Zm.66,4c0,.05,0,.08.07.08s.07,0,.07-.09,0-.09-.08-.09S75.3,49.34,75.31,49.41Z"/><path class="cls-6" d="M80.23,50c0-.08,0-.16-.08-.25a1.52,1.52,0,0,1-.09-.25c0-.08,0-.14,0-.17s0-.06,0-.13l-.06-.24c0-.08,0-.16,0-.23a.93.93,0,0,0,0-.14.5.5,0,0,1,0-.12c0-.05,0-.12-.05-.19a1.07,1.07,0,0,0-.07-.19c0-.07,0-.12,0-.14a.59.59,0,0,0,0-.14c0-.08,0-.13,0-.15a1.26,1.26,0,0,1,0-.19q0-.16-.06-.36c0-.12,0-.24-.07-.35s0-.18,0-.2a.49.49,0,0,0,0-.12l-.06-.2c0-.08,0-.14-.07-.21s0-.1,0-.12V45.8l-.16,0a.38.38,0,0,0-.14.06.46.46,0,0,0-.07.13.37.37,0,0,0,0,.15c0,.06,0,.18,0,.35s0,.34,0,.53,0,.36,0,.52,0,.29,0,.35v.14a8.94,8.94,0,0,1,0,1,8.94,8.94,0,0,0-.05,1H77.3s0,0,0,0a.23.23,0,0,1,0,0V50a.38.38,0,0,1,0-.1v-.2s0-.09,0-.16l0-.22,0-.22a.88.88,0,0,1,0-.14.18.18,0,0,1,0-.05l0-.09,0-.08,0,0a.29.29,0,0,0-.05-.1l0-.09a.07.07,0,0,1,0-.05.09.09,0,0,1,0,0h.1a.1.1,0,0,1,0,0s0,0,0,0a.42.42,0,0,0,0-.1.45.45,0,0,1,0-.09V48a.62.62,0,0,1,0-.12v-.14a.66.66,0,0,0,0-.11c0-.06,0-.14,0-.23l0-.27q0-.13,0-.33l.1-.09-.05-.05a.23.23,0,0,1,0,0v-.37l.05,0,.06,0,.09,0,.11,0-.11,0-.1,0-.06,0,0,0-.06-3,.34,0,.51,0,.5,0H79l.15,0,.16,0,.11,0a.09.09,0,0,1,.06,0,.23.23,0,0,1,0,0s0,0,0,.09l0,.15,0,.14,0,.09,0,.05,0,.09a.41.41,0,0,0,0,.08l0,0,0,.17.06.23c0,.08,0,.15.06.22a.39.39,0,0,0,0,.12v.1s0,.08,0,.09,0,.08,0,.16a1.57,1.57,0,0,1,.1.26l.09.26a.79.79,0,0,1,.05.15c0,.05,0,.11,0,.18l.06.24.06.21a.62.62,0,0,1,0,.11s0,.09,0,.17,0,.16,0,.24l0,.25a1.1,1.1,0,0,0,0,.16h.08s.06,0,.06,0a.49.49,0,0,0,.17,0l.14,0,.06,0,0,0c0-.07,0-.3,0-.56s0-.56,0-.86,0-.6,0-.87,0-.46,0-.56a2,2,0,0,1,0-.21c0-.1,0-.2,0-.3s0-.21,0-.31,0-.16,0-.2,0,0,0,0a.09.09,0,0,1,.06,0s0,0,.1-.06l.1,0h1l.16,0,.15.06-.23.45h-.07l0,0a.11.11,0,0,0,0,0l.1.1.11.1-.22.07.21.2-.12,0h-.09l-.06,0-.1.08-.1.08L82,44.2a.06.06,0,0,0,0,0v0a.23.23,0,0,0,0,.07l.06.09a.9.9,0,0,1,0,.09l0,0a.21.21,0,0,0,.21-.08.22.22,0,0,0,0,.1.2.2,0,0,0,0,.08l0,.1a.31.31,0,0,0,0,.09l0,.5,0,.51a1.29,1.29,0,0,1,0,.19c0,.09,0,.2,0,.32s0,.22,0,.32a.89.89,0,0,0,0,.19v.64l0,0,0,.08,0,.09a.13.13,0,0,0,0,0,.22.22,0,0,0,0,.1c0,.05,0,.08,0,.09a2,2,0,0,1,0,.28c0,.13,0,.26,0,.41s0,.28,0,.41,0,.23,0,.28a.58.58,0,0,1-.05.13l-.06.14,0,0-.06,0s.06,0,.1,0a.25.25,0,0,1,.09.07s0,0,0,.08l0,.11s0,.08,0,.11v.07s0,.06-.08.1-.09.08-.12.08l-.24,0-.38,0-.37,0-.25,0h-.2l-.14,0-.14-.05A1,1,0,0,1,80.23,50Zm-2.89-4.26c0,.06,0,.09.08.09s.07,0,.07-.09,0-.09-.07-.09S77.34,45.66,77.34,45.72ZM77.63,48h-.15s0,0,0,0,0,0,.1,0,.09,0,.1,0S77.66,48,77.63,48Zm-.2-3.1c0,.06,0,.09.08.09s.08,0,.07-.09,0-.1-.07-.09S77.43,44.83,77.43,44.89Zm0,.64c0,.07,0,.1.08.1s.08,0,.07-.1,0-.09-.07-.09S77.44,45.47,77.44,45.53Zm0,3.14c0,.06,0,.09.08.09s.07,0,.07-.09,0-.09-.07-.09S77.49,48.61,77.49,48.67Zm0-1.15a0,0,0,0,0,0,0s0,0,0,0,0,0,0-.05S77.5,47.47,77.5,47.52Zm0-2.17c0,.06,0,.09.08.09s.08,0,.08-.09,0-.09-.08-.09S77.54,45.29,77.54,45.35Zm0,.92c0,.06,0,.09.07.09a.06.06,0,0,0,.06,0,.13.13,0,0,0,0-.06.19.19,0,0,0,0-.07,0,0,0,0,0-.05,0S77.56,46.21,77.56,46.27Zm0,.28c0,.06,0,.09.08.09s.07,0,.07-.09,0-.09-.07-.09S77.56,46.49,77.56,46.55Zm.08-2.74a.08.08,0,0,0,0,.07.14.14,0,0,0,0,.06.06.06,0,0,0,.06,0s.07,0,.07-.1,0-.09-.08-.09A.05.05,0,0,0,77.64,43.81Zm0,2.49a.14.14,0,0,0,0,.06.14.14,0,0,0,0,.07.07.07,0,0,0,.06,0s.07,0,.07-.1,0-.09-.07-.09A.06.06,0,0,0,77.67,46.3Zm.1.89c0,.06,0,.09.07.09s.08,0,.08-.09,0-.09-.08-.09S77.77,47.13,77.77,47.19Zm0,1.25s0,.05,0,0,0,0,0,0a0,0,0,0,0,0,0S77.81,48.4,77.81,48.44Zm0-5.12c0,.06,0,.09.08.09s.08,0,.08-.09,0-.09-.08-.09S77.82,43.26,77.82,43.32Zm0,3.41c0,.06,0,.09.08.09s.07,0,.07-.09,0-.1-.07-.1S77.86,46.67,77.86,46.73Zm0,1.47c0,.07,0,.1.07.1s.08,0,.08-.1,0-.09-.08-.09S77.88,48.14,77.88,48.2Zm.05-4.6a.08.08,0,0,0,.16,0c0-.07,0-.1-.08-.1S77.93,43.53,77.93,43.6Zm0,1.75a.07.07,0,0,0,.08.08s.07,0,.07-.08,0-.1-.07-.1S78,45.28,78,45.35Zm0,1.57S78,47,78,47a.07.07,0,0,0,.08-.08c0-.07,0-.1-.08-.1S78,46.85,78,46.92Zm.08-3.58a.1.1,0,0,0,0,.07.14.14,0,0,0,0,.06.06.06,0,0,0,.06,0s.07,0,.07-.09,0-.1-.08-.1A.05.05,0,0,0,78.05,43.34ZM78.23,46l.1-.19h-.1Zm0,.46c0,.06,0,.09.08.09s.07,0,.07-.09,0-.09-.07-.09S78.26,46.39,78.26,46.45Zm0,1c0,.07,0,.1.07.1s.08,0,.08-.1,0-.09-.08-.09S78.27,47.4,78.27,47.46Zm.09-1.84c0,.06,0,.09.08.09a.05.05,0,0,0,0,0,.13.13,0,0,0,0-.06.15.15,0,0,0,0-.07.05.05,0,0,0,0,0S78.36,45.56,78.36,45.62Zm0,1.94a.07.07,0,0,0,.08.08s.07,0,.07-.08,0-.1-.07-.1S78.37,47.49,78.37,47.56Zm.11-.9a.14.14,0,0,0,0,.06.14.14,0,0,0,0,.07.06.06,0,0,0,.06,0s.07,0,.07-.1,0-.09-.08-.09A.05.05,0,0,0,78.48,46.66Zm.22-3.17s0,0,0,0l0,0s0,0,0,0a.1.1,0,0,0,.09,0,.08.08,0,0,0,0-.08S78.72,43.48,78.7,43.49Zm.07,2.22c0,.06,0,.09.07.09s.08,0,.08-.09,0-.09-.08-.09S78.77,45.65,78.77,45.71Zm.2-1.2c0,.06,0,.09.07.09s.08,0,.08-.09,0-.09-.08-.09S79,44.45,79,44.51Zm.61.93c0,.06,0,.09.07.09s.08,0,.08-.09,0-.09-.07-.09S79.58,45.38,79.58,45.44Zm0,.37c0,.06,0,.08.07.08s.08,0,.08-.08a.09.09,0,0,0-.08-.1C79.6,45.71,79.58,45.75,79.58,45.81Zm.16,1H80v-.1h-.31Zm0,.1a.07.07,0,0,0,.08.08s.07,0,.07-.08,0-.1-.07-.1S79.76,46.85,79.76,46.92Zm.33-.62a.14.14,0,0,0,0,.06.14.14,0,0,0,0,.07.05.05,0,0,0,0,0s.08,0,.08-.1,0-.09-.07-.09A.06.06,0,0,0,80.09,46.3Zm.07,1c0,.06,0,.09.07.09s.08,0,.08-.09,0-.09-.08-.09S80.16,47.23,80.16,47.29Zm0,.87s0,.06,0,.05a.11.11,0,0,0,0,0s0,0,0-.05S80.17,48.12,80.17,48.16Zm.26-.68v-.1h-.11Zm-.11.46a.13.13,0,0,0,.06,0l.05,0v-.18Zm.37-.19,0,0,0,0s0,0,0,0a.08.08,0,0,0,.08,0s0,0,0-.07S80.71,47.74,80.69,47.75Zm-.06-.18h.1v-.47h-.11Zm.21,1.23a.14.14,0,0,0,0,.06.08.08,0,0,0,0,.07.05.05,0,0,0,0,0s.07,0,.07-.09,0-.1-.07-.1A.05.05,0,0,0,80.84,48.8Zm.14.53.1-.09H81Zm.11-3.41c0,.06,0,.09.08.1s.07,0,.07-.1,0-.09-.07-.09S81.09,45.86,81.09,45.92Zm0,.56c0,.05,0,.08.07.08s.08,0,.08-.08,0-.09-.07-.1S81.08,46.41,81.08,46.48Zm.15,1V47.4h-.1Zm0,.18,0,0,0,0s0,0,0,0a.08.08,0,0,0,.08,0,.07.07,0,0,0,0-.07S81.3,47.66,81.28,47.67Zm0,.77a.14.14,0,0,0,0,.07.14.14,0,0,0,0,.06.05.05,0,0,0,.05,0s.07,0,.08-.09,0-.1-.07-.1A.06.06,0,0,0,81.24,48.44Zm0,.72c0,.05,0,.08.07.08s.08,0,.08-.08,0-.09-.07-.1S81.2,49.09,81.2,49.16ZM81.36,48s-.06,0,0,0a0,0,0,0,0,0,.05s0,0,.06,0S81.4,48,81.36,48Zm0-1.61c0,.06,0,.1.07.1s.08,0,.08-.1,0-.09-.07-.09S81.38,46.33,81.38,46.39Zm.29,1.19,0,0-.11.08-.1.09h.3v-.21Zm-.25.93c0,.06,0,.1.07.1s.08,0,.08-.09,0-.1-.07-.1S81.42,48.45,81.42,48.51Zm0,.56a.08.08,0,0,0,.07.09s.08,0,.08-.09,0-.09-.07-.09S81.41,49,81.4,49.07Zm.37-3.18s-.08,0-.09,0a.09.09,0,0,0,0,.06l0,.06h.08l.07,0,.06-.09,0-.09Zm0-1.51h.1a.59.59,0,0,0,.06-.12.53.53,0,0,1,.06-.16V44s0,0,0-.1a.31.31,0,0,0,0-.09C81.79,44,81.77,44.15,81.72,44.38Zm.2-1.15s-.07,0-.06,0a0,0,0,0,0,0,0,.07.07,0,0,0,.06,0S82,43.23,81.92,43.23Zm0,.22c0,.07,0,.1.07.1s.08,0,.08-.09,0-.1-.07-.1S81.88,43.39,81.88,43.45Zm0,4.7,0,0a.05.05,0,0,0,0,0s0,0,0,0a.07.07,0,0,0,.08,0,.06.06,0,0,0,0-.07S81.88,48.14,81.86,48.15Zm0-.94v0l0,0,.06,0,.1-.09-.1-.09a.19.19,0,0,0,.12,0,.14.14,0,0,0,.08-.07.27.27,0,0,0,0-.15.46.46,0,0,0-.07-.13.25.25,0,0,0,0,.07l-.06.11-.07.11,0,.07a.1.1,0,0,1,0,0S81.82,47.21,81.83,47.21Zm0-1,.11-.09h-.1ZM82,43.55c0,.06,0,.1.08.1s.08,0,.08-.09,0-.1-.08-.1S82,43.49,82,43.55Zm0,5s-.05,0-.05,0,0,0,.05,0,0,0,0,0S82,48.58,81.93,48.58Zm0,.37s-.06,0,0,0,0,0,0,0a.05.05,0,0,0,0,0S82,49,81.92,49Zm.36-5.72a.28.28,0,0,0-.1.05l0,0v.07l.21-.17ZM82,48.44c0,.06,0,.09.07.09s.07,0,.07-.08,0-.1-.06-.1S82,48.38,82,48.44Zm0,.28c0,.06,0,.09.07.09s.07,0,.07-.09,0-.09-.06-.09S82,48.66,82,48.72Z"/><path class="cls-6" d="M85.91,50.23c0-.14,0-.29,0-.45s0-.31,0-.45a2,2,0,0,1,0-.29,2.45,2.45,0,0,1,0-.34c0-.18,0-.37.08-.57s0-.4.08-.58,0-.29,0-.33l0-.23,0-.39,0-.49,0-.48,0-.4,0-.22s0-.1,0-.22,0-.24.07-.37,0-.26.07-.38,0-.19,0-.22,0-.06,0-.12a1.11,1.11,0,0,0,0-.19c0-.07,0-.14,0-.2v-.13l.12-.08h.13l.2,0h.12l.16,0h.22l.25,0,.38.07.37.06.25,0,.05,0,0,.06s0,0,0,.06,0,.07,0,.11,0,.08,0,.12a.64.64,0,0,0,0,.09L89,44a.26.26,0,0,0,0,.09v.35a1.69,1.69,0,0,0,0,.23v.16a.58.58,0,0,0,0,.1,1,1,0,0,1,0,.18c0,.06,0,.12,0,.18a.39.39,0,0,1,0,.11.66.66,0,0,0,0,.11,1.62,1.62,0,0,0,0,.21,1.27,1.27,0,0,0,0,.2.38.38,0,0,0,0,.13.43.43,0,0,0,0,.1l0,.09h.09l.13-.08.1-.08s0,0,0-.09,0-.08,0-.09,0,0,0-.07a1.17,1.17,0,0,0,.05-.11l0-.11,0-.07s0,0,0,0v0a.13.13,0,0,1,0-.07l0-.12,0-.1a.17.17,0,0,0,0-.07.43.43,0,0,1,0-.1l.06-.17a.84.84,0,0,1,0-.17l0-.1.06-.17.1-.27c0-.1.07-.19.1-.27l.06-.17,0,0,.07,0H91l.26,0,.41,0,.41,0,.27,0c-.44,2.93-.65,4.39-1.09,7.32,0,0,0,0,0,0l-.06,0-.11,0-.1,0-1-.15s0,0,0-.11,0-.13,0-.17l0-.13,0-.15s0-.1,0-.21A3.41,3.41,0,0,0,90,49.9c0-.14.06-.26.09-.38s0-.18,0-.21l0-.14c0-.08,0-.16,0-.26s0-.18,0-.27l0-.22,0-.15c0-.06,0-.12,0-.18s0-.12,0-.16v-.09l-.08-.1-.13.07a.36.36,0,0,0-.09.09A.41.41,0,0,0,90,48l-.06.17a.69.69,0,0,1,0,.17l0,.1-.07.09-.06.09a.62.62,0,0,1,0,.11,1.94,1.94,0,0,1,0,.2l-.06.2,0,.11s0,0,0,.07l-.05.11s0,.08,0,.11a.14.14,0,0,0,0,.07v.06l0,.12V50s0,.09-.06.18l-.09.27-.1.27-.06.17,0,0-.07,0h-.27l-.18,0-.12,0a.18.18,0,0,1-.08,0l-.09-.07-.06-.05,0,0s0,0,0-.07a.52.52,0,0,0,0-.11.5.5,0,0,0,0-.12v-.07c0-.08,0-.22,0-.42s0-.43,0-.67,0-.47,0-.68,0-.37,0-.47v-.27a.36.36,0,0,0,0-.11L88,47.56h-.19a.07.07,0,0,0,0,.05l0,.07a.36.36,0,0,0,0,.09.15.15,0,0,0,0,.06l-.3,3-.17,0-.26,0-.26,0-.17,0-.12,0-.17,0L86,50.55l-.11,0ZM86.84,48c0,.06,0,.09.07.1s.08,0,.08-.08,0-.1-.06-.1S86.85,48,86.84,48Zm.59-4.11c0,.06,0,.1.06.1s.08,0,.09-.09a.08.08,0,0,0-.07-.1C87.46,43.81,87.43,43.84,87.43,43.9Zm.3.36s-.06,0,0,0,0,.05,0,.05a.05.05,0,0,0,.06,0S87.78,44.26,87.73,44.26ZM89,46.39a.08.08,0,0,0,.07.09c.05,0,.08,0,.08-.08s0-.09-.06-.1S89,46.32,89,46.39ZM89,48.61s0,.09.07.09.07,0,.08-.08a.08.08,0,0,0-.06-.1S89,48.54,89,48.61Zm.32-.16c0,.07,0,.1.06.11s.08,0,.08-.09,0-.09-.06-.1S89.29,48.39,89.29,48.45Zm.31-.88s0,.09.06.09.08,0,.09-.07,0-.1-.06-.11S89.61,47.51,89.6,47.57Zm.31-.9c0,.07,0,.1.06.11s.08,0,.09-.09,0-.1-.06-.1S89.92,46.61,89.91,46.67Zm.34-1.31a.19.19,0,0,0-.11,0,.51.51,0,0,0,0,.09v.08l.25-.24Zm0-.13q0,.09.06.09s.08,0,.09-.07,0-.1-.07-.1S90.2,45.17,90.2,45.23Zm-.06.45c0,.06,0,.1.06.1s.08,0,.09-.08,0-.1-.06-.1S90.15,45.62,90.14,45.68Zm-.1.83c0,.05,0,.09.06.09s.08,0,.08-.07,0-.1-.06-.11S90,46.44,90,46.51Zm.38-1.63.16,0,.16,0,.05,0,0,0-.36,0Zm0,.49s0,0,0,.06a.15.15,0,0,0,0,.07.09.09,0,0,0,.06,0s.08,0,.08-.09,0-.09-.06-.1A.07.07,0,0,0,90.4,45.37Zm0,.28a.06.06,0,0,0,0,.06.09.09,0,0,0,.06.1s.08,0,.09-.08,0-.1-.06-.11A.06.06,0,0,0,90.37,45.65Zm-.1.73,0,.06a.13.13,0,0,0,0,.06.05.05,0,0,0,.06,0s.08,0,.08-.08,0-.1-.06-.11Zm0,.44c0,.06,0,.09.06.1s.08,0,.09-.08,0-.1-.06-.11S90.31,46.76,90.3,46.82Zm.15-1s0,0,0,0a.09.09,0,0,0,.06,0,.07.07,0,0,0,0,0S90.46,45.82,90.45,45.86Zm.13-.4c0,.06,0,.1.07.1s.07,0,.08-.08,0-.1-.06-.1S90.59,45.4,90.58,45.46Zm-.09.73c0,.06,0,.09.06.1a.08.08,0,0,0,.09-.08c0-.06,0-.09-.07-.1S90.49,46.13,90.49,46.19Zm.06.29c0,.06,0,.1.07.1a0,0,0,0,0,0,0,.14.14,0,0,0,0-.06.16.16,0,0,0,0-.07,0,0,0,0,0,0,0S90.56,46.42,90.55,46.48Zm.65-2.38,0,0v0a.28.28,0,0,0,0,.09v.09s0,0,0,.05a.34.34,0,0,1-.1,0l-.11,0,.5.07a.11.11,0,0,1,0,0s0,0,0-.06l0-.07s0-.07,0-.11,0-.08,0-.12a.25.25,0,0,1,0-.08Zm-.31,1.13,0,0s0,0,0,0l.21-.06,0,0Zm-.16.53.19,0-.17-.2ZM91,43.87a.09.09,0,0,0,0,.06A.09.09,0,0,0,91,44a.1.1,0,0,0,0,0s.08,0,.09-.09,0-.09-.06-.1A0,0,0,0,0,91,43.87Zm-.17,1.07c0,.06,0,.09.07.1S91,45,91,45s0-.09-.07-.1S90.86,44.88,90.85,44.94Zm.15-.26c0,.06,0,.09.06.1s.08,0,.09-.08,0-.1-.07-.11S91,44.61,91,44.68Zm-.12.82c0,.06,0,.1.07.11s.08,0,.09-.09,0-.09-.07-.1S90.89,45.44,90.88,45.5Zm-.45,3.38c0,.06,0,.09.06.1s.08,0,.09-.08,0-.1-.06-.11S90.44,48.81,90.43,48.88Zm.65-4s0,.09.06.09.08,0,.09-.07,0-.1-.07-.1S91.08,44.82,91.08,44.88Zm.44.34-.18,0c-.08,0-.13,0-.13,0a.17.17,0,0,0-.07.09.41.41,0,0,0,0,.11h.19l.07,0,.11-.07.1-.07.07-.05h-.11Zm-.63,2.65s0,0,0,0,0,.05,0,.05,0,0,.06,0S90.94,47.88,90.89,47.87Zm.49-3.58s0,0,0,.06a.15.15,0,0,0,0,.07.09.09,0,0,0,.06,0s.08,0,.09-.09,0-.09-.07-.1A.07.07,0,0,0,91.38,44.29Zm0,1.1s0,.08-.08.07-.07,0-.07-.1,0-.09.09-.08S91.37,45.32,91.36,45.39Zm0-.33s-.07,0-.06,0a0,0,0,0,0,0,0,0,0,0,0,0,.06,0S91.43,45.07,91.39,45.06Zm.09-.87a.08.08,0,0,0,.07.1.08.08,0,0,0,.09-.08c0-.06,0-.1-.07-.1S91.49,44.13,91.48,44.19Zm0,.5s0,.06,0,.05,0,0,.06,0a.08.08,0,0,0,0-.06S91.45,44.66,91.44,44.69Zm-.1,1.8-.06,0,0,0,.22-.06h-.11Zm.09-1s0,.07,0,.06a.09.09,0,0,0,.06,0,.05.05,0,0,0,0-.06S91.44,45.49,91.43,45.52Zm0,.66s-.06,0-.06,0a.07.07,0,0,0,0,.05.08.08,0,0,0,.07,0S91.48,46.19,91.44,46.18Zm-.25,1.41h.1v-.09ZM91.72,44c0,.06,0,.1.06.11a.06.06,0,0,0,.06,0,.08.08,0,0,0,0-.06.06.06,0,0,0,0-.06s0,0,0,0S91.73,44,91.72,44Zm.11.19,0,0,0,0s0,0,0,0a.06.06,0,0,0,.08,0,.05.05,0,0,0,0-.07ZM91.52,46l.11-.08h-.09Zm-.29,2.31a.14.14,0,0,0,0,.06.08.08,0,0,0,0,.07,0,0,0,0,0,0,0s.07,0,.08-.08,0-.1-.06-.11Zm.56-3.48.21,0-.2-.13Zm.08-.36c0,.06,0,.09.06.1s.08,0,.09-.08,0-.1-.06-.11S91.88,44.36,91.87,44.43Zm-.18,1.28s0,.09.06.09.08,0,.09-.07,0-.1-.06-.1S91.7,45.65,91.69,45.71Zm0,.27c0,.06,0,.09.06.1A.08.08,0,0,0,91.8,46c0-.06,0-.1-.06-.1S91.66,45.92,91.65,46Zm0,.18c0,.06,0,.1.06.1s.08,0,.09-.08,0-.1-.06-.1S91.63,46.1,91.62,46.16Zm-.29,2c0,.06,0,.09.06.1a.08.08,0,0,0,.09-.08c0-.06,0-.1-.06-.1S91.34,48.11,91.33,48.17Zm.75-3.9.1,0,0-.19Z"/><path class="cls-6" d="M92.18,51.11s0-.07,0-.09a.89.89,0,0,1,0-.11l0-.07a.18.18,0,0,1,0-.08l.09-.13.08-.13,0-.08a.65.65,0,0,0,0-.1c0-.06,0-.09,0-.1a.15.15,0,0,1,0-.08l.06-.08.11,0,.11,0a0,0,0,0,0,0,0s0,0,0-.05l-.17,0s0-.14,0-.28,0-.27,0-.41,0-.29,0-.42a2.65,2.65,0,0,1,0-.27s0-.12,0-.26,0-.28.09-.46.08-.35.11-.55l.12-.55q0-.26.09-.45c0-.13,0-.22,0-.25l0-.09,0-.17,0-.18,0-.16,0-.11,0-.18c0-.07,0-.13,0-.19a.54.54,0,0,0,0-.11s0,0,0-.05a.15.15,0,0,1,0-.06l.07-.08a.21.21,0,0,0,.06-.08v-.27l.07-.1s0-.07.07-.07l.17,0c.57.09,1.12.2,1.67.33s1.1.26,1.66.37v.05l0,0a.27.27,0,0,1,0,.08L97,45.1s0,.09,0,.13l0,.09a.69.69,0,0,1-.06.13l-.08.15a.15.15,0,0,0,0,.06l-.08,0-.13,0-.14,0h-.1l-.09,0-.1-.08a.65.65,0,0,0,0-.1.23.23,0,0,0,0-.1l-.09-.06-.1-.07s0,0,0,0a.08.08,0,0,1,0,0,.16.16,0,0,0-.12,0c-.06,0-.09,0-.1.06a.21.21,0,0,0,0,.14.39.39,0,0,0,0,.14l-.15,0-.17,0-.12,0-.15,0-.17,0c-.11.62-.16.93-.27,1.55l.06,0a.39.39,0,0,1,.08.1l.07.1a.17.17,0,0,1,0,.07s0,0,0,.07a.47.47,0,0,1,0,.1,1.17,1.17,0,0,1,0,.11l0,.07L95,48,95,47.85l0,0,.11,0,.1,0,.07,0h.51l-.17-.13.59.12L96,48.84l-.12,0-.18,0-.17-.05-.11,0-.13-.06-.16-.09-.1-.07s-.07,0-.07-.06,0,0,0,0a.28.28,0,0,0,0-.09s0-.06,0-.09a.35.35,0,0,0,0-.06s-.05,0-.1,0-.08,0-.09,0,0,0,0,0,0,0,0,0,0,0,0,0,0,.05,0,.06,0,0,0,0v0h0a.23.23,0,0,1,0,.05l-.06,0-.11,0-.11,0a.3.3,0,0,0-.07.08l-.06.09s0,.13-.07.26-.06.26-.1.41-.07.27-.11.4L94,50s0,.05,0,.12a.64.64,0,0,0,0,.15.89.89,0,0,0,0,.18l.07.11.09.11v0l0,0,.5.09a.15.15,0,0,0,.09.07l.1,0h.09l.08,0,.13,0,.13,0s.07,0,.08,0a.11.11,0,0,1,.08,0h.31l-.19.94-.08,0-.12,0-.2,0-.28-.06-.3-.06-.45-.1-.53-.11-.53-.11-.45-.1-.29-.06A.44.44,0,0,1,92.18,51.11ZM92.75,49c0,.06,0,.09.06.1s.07,0,.08-.08,0-.1,0-.1S92.76,48.91,92.75,49Zm0,.18c0,.06,0,.09.06.1s.07,0,.08-.07,0-.1,0-.11S92.73,49.09,92.72,49.15Zm0,1.31s0,.09.06.09.07,0,.08-.07,0-.1,0-.1S92.72,50.39,92.71,50.46Zm.27-.85a.58.58,0,0,0,0,.14.71.71,0,0,0,0,.14s0,0,0,0a.1.1,0,0,0,.05-.06l0-.11s0-.07,0-.11a.11.11,0,0,0,0-.08S93,49.57,93,49.61Zm-.18,1s0,.06,0,0l0,0a0,0,0,0,0,0-.06S92.81,50.57,92.8,50.61Zm.31-1.34.06,0,0-.27-.07.08a.27.27,0,0,0-.06.09Zm-.2,1.12c0,.07,0,.1.06.11s.08,0,.09-.08,0-.1-.06-.11A.08.08,0,0,0,92.91,50.39Zm.77-4.16.12-.08-.1,0ZM93,50.87A.41.41,0,0,0,93,51a.08.08,0,0,1,0,0s0,0,0,0,0,0,0-.11,0-.09.07-.1l.07,0,.14,0,.13,0,.08,0v0s0-.06,0-.1a.53.53,0,0,0,0-.13.87.87,0,0,0,0-.1.09.09,0,0,0,0,0l0,0,0,0h-.06v.06s0,0,0,.05a.61.61,0,0,1,0,.15.61.61,0,0,0,0,.14H93.2l-.15,0-.07.08-.06.09Zm.18-1.19c0,.07,0,.1.06.11s.08,0,.09-.08,0-.1-.06-.11S93.14,49.62,93.13,49.68Zm.27-.77a.25.25,0,0,1,0,.07v.07a0,0,0,0,0,0,0,.07.07,0,0,0,.06-.08.1.1,0,0,0,0-.11S93.41,48.89,93.4,48.91Zm0,.26c0,.06,0,.09,0,.1s.08,0,.09-.07,0-.1-.06-.11S93.43,49.11,93.42,49.17Zm.7-3.43a.43.43,0,0,0,0,.1h.1s0,0,0-.1a.64.64,0,0,0,0-.1h-.11A.41.41,0,0,1,94.12,45.74ZM93.69,48l.1,0,0-.09-.1,0Zm.09-.36c0,.07,0,.1.06.11s.08,0,.09-.08,0-.1-.06-.11S93.79,47.58,93.78,47.64Zm.34-.63s-.06,0-.05,0,0,.05,0,.05a.07.07,0,0,0,.06,0S94.16,47,94.12,47Zm.25-1.37s0,.06,0,.06,0,0,0,0a.07.07,0,0,0,0-.06S94.37,45.6,94.37,45.64Zm-.14,1.15c0,.06,0,.09.06.1s.08,0,.09-.07,0-.1,0-.11S94.24,46.73,94.23,46.79Z"/><path class="cls-2" d="M60.9,35.15A5,5,0,0,1,59,34.76a4.41,4.41,0,0,1-2.55-3.14c-.48-2.56,1-4.07,2-5.07a3.9,3.9,0,0,0,.75-.92l-.07-.11a3.15,3.15,0,0,1,0-3.94,1.15,1.15,0,0,1,.87-.41,1.13,1.13,0,0,1,1.12,1.25.86.86,0,0,0,0,.32,2.58,2.58,0,0,0,.42.27l.46.27.08,0a3.78,3.78,0,0,1,1.64,3.54,5,5,0,0,1-.69,1.93c-.44.8-.44.81-.15,1.05a3.05,3.05,0,0,1,.36,4.29A3,3,0,0,1,60.9,35.15Z"/><path class="cls-7" d="M57.58,31.41c-.7-3.74,3.87-4.51,2.45-6.54a2.05,2.05,0,0,1,0-2.57c-.14,1.28.58,1.41,1.4,1.93a2.62,2.62,0,0,1,1.2,2.55c-.12,1.49-2,2.63-.44,3.93a1.91,1.91,0,0,1,.22,2.7c-.68.81-2,.71-2.95.31A3.29,3.29,0,0,1,57.58,31.41Z"/><path class="cls-2" d="M95.79,35.15a5,5,0,0,0,1.88-.39,4.39,4.39,0,0,0,2.55-3.14c.49-2.56-1-4.07-2-5.07a4.18,4.18,0,0,1-.75-.92s0,0,.07-.11a3.15,3.15,0,0,0,0-3.94,1.17,1.17,0,0,0-.88-.41,1.11,1.11,0,0,0-.43.09,1.14,1.14,0,0,0-.69,1.16.79.79,0,0,1,0,.32,2.35,2.35,0,0,1-.43.27l-.45.27-.08,0A3.76,3.76,0,0,0,93,26.87a4.85,4.85,0,0,0,.69,1.93c.44.8.43.81.15,1.05a3.05,3.05,0,0,0-.36,4.29A3,3,0,0,0,95.79,35.15Z"/><path class="cls-7" d="M99.11,31.41c.71-3.74-3.86-4.51-2.44-6.54a2.07,2.07,0,0,0,0-2.57c.14,1.28-.58,1.41-1.39,1.93a2.62,2.62,0,0,0-1.2,2.55c.11,1.49,2,2.63.44,3.93a1.92,1.92,0,0,0-.23,2.7,2.61,2.61,0,0,0,2.95.31A3.27,3.27,0,0,0,99.11,31.41Z"/></svg>