<svg xmlns="http://www.w3.org/2000/svg" viewBox="0 0 50.16 67.4"><defs><style>.cls-1{fill:#eaeaea;}</style></defs><g id="Layer_2" data-name="Layer 2"><g id="Layer_44" data-name="Layer 44"><path class="cls-1" d="M35.49,0H3.77A3.76,3.76,0,0,0,0,3.76V42.48a17,17,0,0,0,17,17H41.65A8.51,8.51,0,0,0,50.16,51V14.67A14.67,14.67,0,0,0,35.49,0Zm4.64,9.58a2.38,2.38,0,0,1,.23-1.05A1.64,1.64,0,0,1,41,7.82a1.83,1.83,0,0,1,.94-.25,1.61,1.61,0,0,1,1.25.5,2,2,0,0,1,.46,1.43v.42H41.18a1,1,0,0,0,.3.61,1,1,0,0,0,.64.23,1.11,1.11,0,0,0,.94-.43l.51.57a1.58,1.58,0,0,1-.63.51,2.14,2.14,0,0,1-.88.19,1.89,1.89,0,0,1-1.39-.53,1.85,1.85,0,0,1-.54-1.39ZM33.9,6.3h1.41l1.34,3.79L38,6.3H39.4v5.22H38.32V10.1l.11-2.47L37,11.52h-.74L34.87,7.64,35,10.1v1.42H33.9Zm-6,1.34h1l0,.45A1.35,1.35,0,0,1,30,7.57a1.12,1.12,0,0,1,.92.36A1.71,1.71,0,0,1,31.22,9v2.5h-1V9A.66.66,0,0,0,30,8.56a.63.63,0,0,0-.48-.15.7.7,0,0,0-.65.38v2.73h-1Zm-1.95.86a.54.54,0,0,0-.44-.16.65.65,0,0,0-.41.12.44.44,0,0,0-.15.35h-1a1,1,0,0,1,.21-.62,1.2,1.2,0,0,1,.58-.45,2.16,2.16,0,0,1,.86-.17,1.71,1.71,0,0,1,1.14.36,1.27,1.27,0,0,1,.42,1v1.68a1.81,1.81,0,0,0,.15.83v.06H26.2a1.25,1.25,0,0,1-.1-.34,1.26,1.26,0,0,1-1,.42,1.37,1.37,0,0,1-.94-.33,1.16,1.16,0,0,1,.08-1.78,2.29,2.29,0,0,1,1.32-.34h.48V8.93A.65.65,0,0,0,25.92,8.5ZM12.46,11.89c-.12,1.12-1,1.7-1.72,1.21l-.1-.08H6.77a.8.8,0,0,1-.8-.8V5a.8.8,0,0,1,.8-.81h3.81a.81.81,0,0,1,.81.81V6.86a6.62,6.62,0,0,1,.95,1,1.63,1.63,0,0,1,.1.68S12.55,11.2,12.46,11.89ZM17,8.12a2.79,2.79,0,0,0,.76.32,3.4,3.4,0,0,1,1.34.69,1.35,1.35,0,0,1,.41,1A1.26,1.26,0,0,1,19,11.21a2.22,2.22,0,0,1-1.38.39,2.8,2.8,0,0,1-1.1-.22,1.7,1.7,0,0,1-.75-.61,1.55,1.55,0,0,1-.26-.89h1.08c0,.58.34.87,1,.87a1,1,0,0,0,.6-.16.52.52,0,0,0,.22-.44.54.54,0,0,0-.22-.46,2.69,2.69,0,0,0-.77-.35A6.11,6.11,0,0,1,16.51,9a1.47,1.47,0,0,1-.89-1.3,1.24,1.24,0,0,1,.24-.75,1.5,1.5,0,0,1,.68-.52,2.53,2.53,0,0,1,1-.19,2.4,2.4,0,0,1,1,.2,1.56,1.56,0,0,1,.68.58,1.47,1.47,0,0,1,.24.83H18.39a.7.7,0,0,0-.23-.55.88.88,0,0,0-.63-.2,1,1,0,0,0-.61.16.53.53,0,0,0-.22.44A.5.5,0,0,0,17,8.12Zm5.62,3.29a1.73,1.73,0,0,1-.81.19,1.7,1.7,0,0,1-1.32-.53A2.11,2.11,0,0,1,20,9.61V9.54a2,2,0,0,1,.48-1.43A1.85,1.85,0,0,1,22.92,8a1.44,1.44,0,0,1,.44,1.1h-1a.68.68,0,0,0-.19-.49.58.58,0,0,0-.47-.19.65.65,0,0,0-.55.26,1.57,1.57,0,0,0-.18.86v.11a1.57,1.57,0,0,0,.18.86.65.65,0,0,0,.56.26.63.63,0,0,0,.46-.16.52.52,0,0,0,.19-.42h1a1.32,1.32,0,0,1-.21.73A1.49,1.49,0,0,1,22.57,11.41Z"/><path d="M45.58,58.55a15.71,15.71,0,0,1-2.14,1.31l-.06,0L24.25,67.34a.81.81,0,0,1-1.15-.63v-7.2H41.65A8.52,8.52,0,0,0,45.58,58.55Z"/><path class="cls-1" d="M12.46,11.89c-.12,1.12-1,1.7-1.72,1.21l-.1-.08H6.77a.8.8,0,0,1-.8-.8V5a.8.8,0,0,1,.8-.81h3.81a.81.81,0,0,1,.81.81V6.86a6.62,6.62,0,0,1,.95,1,1.63,1.63,0,0,1,.1.68S12.55,11.2,12.46,11.89Z"/><path class="cls-1" d="M19.05,9.13a1.35,1.35,0,0,1,.41,1A1.26,1.26,0,0,1,19,11.21a2.22,2.22,0,0,1-1.38.39,2.8,2.8,0,0,1-1.1-.22,1.7,1.7,0,0,1-.75-.61,1.55,1.55,0,0,1-.26-.89h1.08c0,.58.34.87,1,.87a1,1,0,0,0,.6-.16.52.52,0,0,0,.22-.44.54.54,0,0,0-.22-.46,2.69,2.69,0,0,0-.77-.35A6.11,6.11,0,0,1,16.51,9a1.47,1.47,0,0,1-.89-1.3,1.24,1.24,0,0,1,.24-.75,1.5,1.5,0,0,1,.68-.52,2.53,2.53,0,0,1,1-.19,2.4,2.4,0,0,1,1,.2,1.56,1.56,0,0,1,.68.58,1.47,1.47,0,0,1,.24.83H18.39a.7.7,0,0,0-.23-.55.88.88,0,0,0-.63-.2,1,1,0,0,0-.61.16.53.53,0,0,0-.22.44.5.5,0,0,0,.25.43,2.79,2.79,0,0,0,.76.32A3.4,3.4,0,0,1,19.05,9.13Z"/><path class="cls-1" d="M22.39,10.18h1a1.32,1.32,0,0,1-.21.73,1.49,1.49,0,0,1-.58.5,1.73,1.73,0,0,1-.81.19,1.7,1.7,0,0,1-1.32-.53A2.11,2.11,0,0,1,20,9.61V9.54a2,2,0,0,1,.48-1.43A1.85,1.85,0,0,1,22.92,8a1.44,1.44,0,0,1,.44,1.1h-1a.68.68,0,0,0-.19-.49.58.58,0,0,0-.47-.19.65.65,0,0,0-.55.26,1.57,1.57,0,0,0-.18.86v.11a1.57,1.57,0,0,0,.18.86.65.65,0,0,0,.56.26.63.63,0,0,0,.46-.16A.52.52,0,0,0,22.39,10.18Z"/><path class="cls-1" d="M27.25,11.46v.06H26.2a1.25,1.25,0,0,1-.1-.34,1.26,1.26,0,0,1-1,.42,1.37,1.37,0,0,1-.94-.33,1.16,1.16,0,0,1,.08-1.78,2.29,2.29,0,0,1,1.32-.34h.48V8.93a.65.65,0,0,0-.14-.43.54.54,0,0,0-.44-.16.65.65,0,0,0-.41.12.44.44,0,0,0-.15.35h-1a1,1,0,0,1,.21-.62,1.2,1.2,0,0,1,.58-.45,2.16,2.16,0,0,1,.86-.17,1.71,1.71,0,0,1,1.14.36,1.27,1.27,0,0,1,.42,1v1.68A1.81,1.81,0,0,0,27.25,11.46Z"/><path class="cls-1" d="M31.22,9v2.5h-1V9A.66.66,0,0,0,30,8.56a.63.63,0,0,0-.48-.15.7.7,0,0,0-.65.38v2.73h-1V7.64h1l0,.45A1.35,1.35,0,0,1,30,7.57a1.12,1.12,0,0,1,.92.36A1.71,1.71,0,0,1,31.22,9Z"/><polygon class="cls-1" points="39.4 6.3 39.4 11.52 38.32 11.52 38.32 10.1 38.43 7.63 37.02 11.52 36.28 11.52 34.87 7.64 34.98 10.1 34.98 11.52 33.9 11.52 33.9 6.3 35.31 6.3 36.65 10.09 37.98 6.3 39.4 6.3"/><path class="cls-1" d="M43.65,9.92H41.18a1,1,0,0,0,.3.61,1,1,0,0,0,.64.23,1.11,1.11,0,0,0,.94-.43l.51.57a1.58,1.58,0,0,1-.63.51,2.14,2.14,0,0,1-.88.19,1.89,1.89,0,0,1-1.39-.53,1.85,1.85,0,0,1-.54-1.39v-.1a2.38,2.38,0,0,1,.23-1.05A1.64,1.64,0,0,1,41,7.82a1.83,1.83,0,0,1,.94-.25,1.61,1.61,0,0,1,1.25.5,2,2,0,0,1,.46,1.43Z"/><g id="mobile"><path d="M10.58,4.17H6.77A.8.8,0,0,0,6,5v7.24a.8.8,0,0,0,.8.8h3.87a.81.81,0,0,0,.75-.8V5A.81.81,0,0,0,10.58,4.17Zm-.15,6L9,9a.38.38,0,0,0-.49.1.41.41,0,0,0-.07.51l1.3,1.57a5.52,5.52,0,0,0,.19.67H6.4V5.29H11V9.41Z"/><rect x="7.77" y="4.7" width="1.64" height="0.19" rx="0.03" transform="translate(17.19 9.6) rotate(-180)"/><path d="M8.42,9.56l1.3,1.57a5.52,5.52,0,0,0,.19.67H11V9.41l-.53.75L9,9a.38.38,0,0,0-.49.1A.41.41,0,0,0,8.42,9.56Z"/><rect x="9.64" y="4.7" width="0.19" height="0.19" rx="0.03" transform="translate(19.46 9.6) rotate(-180)"/><path d="M12.46,11.89c-.12,1.12-1,1.7-1.72,1.21l-.1-.08a2.87,2.87,0,0,1-.73-1.22,5.52,5.52,0,0,1-.19-.67L8.42,9.56a.41.41,0,0,1,.07-.51A.38.38,0,0,1,9,9l1.45,1.21L11,9.41l.43-.62V6.86a6.62,6.62,0,0,1,.95,1,1.63,1.63,0,0,1,.1.68S12.55,11.2,12.46,11.89Z"/><circle cx="8.62" cy="12.4" r="0.41"/></g><path d="M17.71,8.44A2.79,2.79,0,0,1,17,8.12a.5.5,0,0,1-.25-.43.53.53,0,0,1,.22-.44,1,1,0,0,1,.61-.16.88.88,0,0,1,.63.2.7.7,0,0,1,.23.55h1.07A1.47,1.47,0,0,0,19.22,7a1.56,1.56,0,0,0-.68-.58,2.4,2.4,0,0,0-1-.2,2.53,2.53,0,0,0-1,.19,1.5,1.5,0,0,0-.68.52,1.24,1.24,0,0,0-.24.75A1.47,1.47,0,0,0,16.51,9a6.11,6.11,0,0,0,.89.35,2.69,2.69,0,0,1,.77.35.54.54,0,0,1,.22.46.52.52,0,0,1-.22.44,1,1,0,0,1-.6.16c-.69,0-1-.29-1-.87H15.46a1.55,1.55,0,0,0,.26.89,1.7,1.7,0,0,0,.75.61,2.8,2.8,0,0,0,1.1.22A2.22,2.22,0,0,0,19,11.21a1.26,1.26,0,0,0,.51-1.06,1.35,1.35,0,0,0-.41-1A3.4,3.4,0,0,0,17.71,8.44Z"/><path d="M22.2,10.6a.63.63,0,0,1-.46.16.65.65,0,0,1-.56-.26A1.57,1.57,0,0,1,21,9.64V9.53a1.57,1.57,0,0,1,.18-.86.65.65,0,0,1,.55-.26.58.58,0,0,1,.47.19.68.68,0,0,1,.19.49h1A1.44,1.44,0,0,0,22.92,8a1.85,1.85,0,0,0-2.48.12A2,2,0,0,0,20,9.54v.07a2.11,2.11,0,0,0,.48,1.46,1.7,1.7,0,0,0,1.32.53,1.73,1.73,0,0,0,.81-.19,1.49,1.49,0,0,0,.58-.5,1.32,1.32,0,0,0,.21-.73h-1A.52.52,0,0,1,22.2,10.6Z"/><path d="M27.1,10.63V9a1.27,1.27,0,0,0-.42-1,1.71,1.71,0,0,0-1.14-.36,2.16,2.16,0,0,0-.86.17,1.2,1.2,0,0,0-.58.45,1,1,0,0,0-.21.62h1a.44.44,0,0,1,.15-.35.65.65,0,0,1,.41-.12.54.54,0,0,1,.44.16.65.65,0,0,1,.14.43v.22h-.48a2.29,2.29,0,0,0-1.32.34,1.16,1.16,0,0,0-.08,1.78,1.37,1.37,0,0,0,.94.33,1.26,1.26,0,0,0,1-.42,1.25,1.25,0,0,0,.1.34h1.05v-.06A1.81,1.81,0,0,1,27.1,10.63Zm-1-.2a.76.76,0,0,1-.29.27.87.87,0,0,1-.42.1.56.56,0,0,1-.38-.12.42.42,0,0,1-.13-.32V10.3c0-.36.31-.54.83-.54h.39Z"/><path d="M30.91,7.93A1.12,1.12,0,0,0,30,7.57a1.35,1.35,0,0,0-1.11.52l0-.45h-1v3.88h1V8.79a.7.7,0,0,1,.65-.38.63.63,0,0,1,.48.15.66.66,0,0,1,.15.48v2.48h1V9A1.71,1.71,0,0,0,30.91,7.93Z"/><path d="M38,6.3l-1.33,3.79L35.31,6.3H33.9v5.22H35V10.1l-.11-2.46,1.41,3.88H37l1.41-3.89-.11,2.47v1.42H39.4V6.3Z"/><path d="M43.65,9.5a2,2,0,0,0-.46-1.43,1.61,1.61,0,0,0-1.25-.5,1.83,1.83,0,0,0-.94.25,1.64,1.64,0,0,0-.64.71,2.38,2.38,0,0,0-.23,1.05v.1a1.85,1.85,0,0,0,.54,1.39,1.89,1.89,0,0,0,1.39.53,2.14,2.14,0,0,0,.88-.19,1.58,1.58,0,0,0,.63-.51l-.51-.57a1.11,1.11,0,0,1-.94.43,1,1,0,0,1-.64-.23,1,1,0,0,1-.3-.61h2.47Zm-1-.29H41.19a1.07,1.07,0,0,1,.25-.59.63.63,0,0,1,.5-.21.66.66,0,0,1,.51.19.72.72,0,0,1,.18.53Z"/></g></g></svg>