<svg id="Layer_1" data-name="Layer 1" xmlns="http://www.w3.org/2000/svg" viewBox="0 0 160 160"><defs><style>.cls-1{fill:#ff9f0a;}.cls-2{fill:#fff;}</style></defs><rect class="cls-1" x="24.13" y="4.22" width="111.61" height="139.94" rx="12.26"/><path class="cls-1" d="M101,142.94l15,.13-7.48,12.45Z"/><path d="M108.48,156.78h0a1,1,0,0,1-.85-.5l-6.48-11.43H59.44a1,1,0,0,1,0-2h42.27a1,1,0,0,1,.87.51l5.92,10.44,6.31-10.46a1,1,0,0,1,.86-.49h8.11a11.1,11.1,0,0,0,11.09-11.08V16.31A11.1,11.1,0,0,0,123.78,5.22H36.34A11.1,11.1,0,0,0,25.25,16.31V120.85a1,1,0,0,1-2,0V16.31A13.1,13.1,0,0,1,36.34,3.22h87.44a13.1,13.1,0,0,1,13.09,13.09V131.77a13.1,13.1,0,0,1-13.09,13.08h-7.55l-6.9,11.45A1,1,0,0,1,108.48,156.78Z"/><g id="mobile"><path class="cls-2" d="M36.53,117h7.24a1.53,1.53,0,0,1,1.53,1.53v13.76a1.54,1.54,0,0,1-1.42,1.53H36.53A1.52,1.52,0,0,1,35,132.33V118.57A1.53,1.53,0,0,1,36.53,117Zm-.71,14.5H42.5a11.31,11.31,0,0,1-.37-1.28l-2.47-3a.78.78,0,0,1,.14-1,.72.72,0,0,1,.93-.21l2.76,2.31,1-1.43v-7.82H35.82Z"/><rect class="cls-2" x="38.43" y="118.05" width="3.13" height="0.36" rx="0.03" transform="translate(79.99 236.46) rotate(-180)"/><path class="cls-2" d="M39.66,127.29l2.47,3a11.31,11.31,0,0,0,.37,1.28h2V127l-1,1.43-2.76-2.31a.72.72,0,0,0-.93.21A.78.78,0,0,0,39.66,127.29Z"/><rect class="cls-2" x="41.98" y="118.05" width="0.36" height="0.36" rx="0.03" transform="translate(84.31 236.46) rotate(-180)"/><path class="cls-2" d="M39.66,127.29l2.47,3a11.31,11.31,0,0,0,.37,1.28,5.53,5.53,0,0,0,1.38,2.32l.19.14c1.38.93,3-.16,3.27-2.28.17-1.32,0-6.35,0-6.35a3.26,3.26,0,0,0-.2-1.28,12.38,12.38,0,0,0-1.8-1.94v3.68L44.48,127l-1,1.43-2.76-2.31a.72.72,0,0,0-.93.21A.78.78,0,0,0,39.66,127.29Z"/><circle class="cls-2" cx="40.04" cy="132.69" r="0.78"/></g><path class="cls-2" d="M55.1,128.68a3.33,3.33,0,0,1-1.21-1.8l1.53-.6a2.23,2.23,0,0,0,.61,1.1,1.52,1.52,0,0,0,1.08.4,1.54,1.54,0,0,0,.92-.27.86.86,0,0,0,.39-.75,1,1,0,0,0-.37-.78,4.75,4.75,0,0,0-1.3-.66l-.53-.19a3.66,3.66,0,0,1-1.42-.88,2,2,0,0,1-.58-1.49,2.28,2.28,0,0,1,.34-1.23,2.4,2.4,0,0,1,1-.87,3.18,3.18,0,0,1,1.44-.32,2.73,2.73,0,0,1,2.76,1.83l-1.43.6a1.42,1.42,0,0,0-.46-.67,1.29,1.29,0,0,0-.85-.27,1.42,1.42,0,0,0-.87.25.75.75,0,0,0-.34.64.82.82,0,0,0,.32.65,3.63,3.63,0,0,0,1.07.53l.54.18a4,4,0,0,1,1.71,1,2.54,2.54,0,0,1,.16,3.07,2.52,2.52,0,0,1-1.11.87,3.53,3.53,0,0,1-1.39.29A3.25,3.25,0,0,1,55.1,128.68Z"/><path class="cls-2" d="M62.58,128.91a3.05,3.05,0,0,1-1.15-1.16,3.65,3.65,0,0,1,0-3.36,3,3,0,0,1,1.15-1.15,3.28,3.28,0,0,1,1.66-.42,3.39,3.39,0,0,1,1.75.43A2.48,2.48,0,0,1,67,124.5l-1.44.6a1.37,1.37,0,0,0-1.36-.82,1.56,1.56,0,0,0-1.19.49,1.86,1.86,0,0,0-.46,1.3,1.88,1.88,0,0,0,.46,1.31,1.6,1.6,0,0,0,1.19.49,1.51,1.51,0,0,0,1.44-.87l1.42.63A3,3,0,0,1,66,128.88a3.61,3.61,0,0,1-3.4,0Z"/><path class="cls-2" d="M68.45,128.75a1.92,1.92,0,0,1-.63-1.49,1.82,1.82,0,0,1,.33-1.08,1.93,1.93,0,0,1,.89-.72,3,3,0,0,1,1.24-.26,4.31,4.31,0,0,1,1.62.28v-.26a1,1,0,0,0-.37-.82,1.55,1.55,0,0,0-1-.31,1.75,1.75,0,0,0-.83.2,1.92,1.92,0,0,0-.67.52L68,124a3,3,0,0,1,1.12-.89,3.42,3.42,0,0,1,1.46-.31,3.15,3.15,0,0,1,2.14.64,2.41,2.41,0,0,1,.73,1.9v3.77H71.9v-.63h-.09a2.14,2.14,0,0,1-.73.59,2.49,2.49,0,0,1-2.63-.34Zm3-1.09a1.47,1.47,0,0,0,.4-1,3,3,0,0,0-1.28-.29c-.82,0-1.22.31-1.22.92a.75.75,0,0,0,.26.6,1.08,1.08,0,0,0,.76.24A1.41,1.41,0,0,0,71.5,127.66Z"/><path class="cls-2" d="M74.9,123h1.48v.77h.1a1.92,1.92,0,0,1,.78-.71,2.36,2.36,0,0,1,1.09-.25,2.1,2.1,0,0,1,1.68.67,2.75,2.75,0,0,1,.57,1.83v3.81H79v-3.61a1.31,1.31,0,0,0-.3-.92,1.11,1.11,0,0,0-.84-.32,1.22,1.22,0,0,0-1,.49,1.94,1.94,0,0,0-.39,1.24v3.12H74.9Z"/><path class="cls-2" d="M85.12,120.54h5.44v1.53H86.74v2.09h3.44v1.54H86.74v3.43H85.12Z"/><path class="cls-2" d="M92.65,128.89a3.08,3.08,0,0,1-1.16-1.16,3.57,3.57,0,0,1,0-3.32,3.18,3.18,0,0,1,1.16-1.17,3.39,3.39,0,0,1,1.69-.42,3.33,3.33,0,0,1,1.68.42,3,3,0,0,1,1.16,1.17,3.49,3.49,0,0,1,0,3.32A2.94,2.94,0,0,1,96,128.89a3.23,3.23,0,0,1-1.68.43A3.29,3.29,0,0,1,92.65,128.89Zm2.53-1.24a1.61,1.61,0,0,0,.62-.62,2.18,2.18,0,0,0,0-1.91,1.67,1.67,0,0,0-1.46-.84,1.65,1.65,0,0,0-.84.22,1.58,1.58,0,0,0-.61.62,2,2,0,0,0,0,1.9,1.55,1.55,0,0,0,.61.63,1.65,1.65,0,0,0,.84.22A1.6,1.6,0,0,0,95.18,127.65Z"/><path class="cls-2" d="M98.68,123h1.47v.81h.1a1.86,1.86,0,0,1,.71-.71,2,2,0,0,1,1.05-.28,2.11,2.11,0,0,1,.77.13v1.57a4,4,0,0,0-.55-.17,1.78,1.78,0,0,0-.47-.06,1.32,1.32,0,0,0-1.1.51,1.9,1.9,0,0,0-.41,1.27v3H98.68Z"/><path class="cls-2" d="M106.82,120.54h3a3.16,3.16,0,0,1,1.48.34,2.66,2.66,0,0,1,1.06,1,2.74,2.74,0,0,1,0,2.82,2.61,2.61,0,0,1-1.06,1,3.16,3.16,0,0,1-1.48.34h-1.41v3.16h-1.62Zm3.08,3.9a1.28,1.28,0,0,0,.94-.35,1.21,1.21,0,0,0,0-1.68,1.32,1.32,0,0,0-.94-.34h-1.46v2.37Z"/><path class="cls-2" d="M114.14,120.54h2.91a4.87,4.87,0,0,1,2.34.54,3.77,3.77,0,0,1,1.53,1.51,4.94,4.94,0,0,1,0,4.49,3.83,3.83,0,0,1-1.53,1.51,4.87,4.87,0,0,1-2.34.54h-2.91Zm2.83,7a2.85,2.85,0,0,0,2.13-.74,3.16,3.16,0,0,0,0-4,2.89,2.89,0,0,0-2.13-.74h-1.21v5.52Z"/><path class="cls-2" d="M123,120.54h5.45v1.53h-3.83v2.09h3.44v1.54h-3.44v3.43H123Z"/></svg>