<svg id="Layer_1" data-name="Layer 1" xmlns="http://www.w3.org/2000/svg" viewBox="0 0 160 160"><defs><style>.cls-1{fill:#0a84ff;}</style></defs><path d="M122.86,154H37.14a17.83,17.83,0,0,1-17.8-17.8V23.81A17.83,17.83,0,0,1,37.14,6h85.72a17.83,17.83,0,0,1,17.8,17.8V136.19A17.83,17.83,0,0,1,122.86,154ZM37.14,7.47A16.36,16.36,0,0,0,20.8,23.81V136.19a16.36,16.36,0,0,0,16.34,16.34h85.72a16.36,16.36,0,0,0,16.34-16.34V23.81A16.36,16.36,0,0,0,122.86,7.47Z"/><path d="M32.35,31a4.27,4.27,0,0,1-1.55-2.3l1.94-.76a2.93,2.93,0,0,0,.79,1.39,1.89,1.89,0,0,0,1.37.52,2,2,0,0,0,1.18-.35,1.07,1.07,0,0,0,.49-.95,1.25,1.25,0,0,0-.47-1,6,6,0,0,0-1.66-.84l-.67-.24A4.71,4.71,0,0,1,32,25.31a2.59,2.59,0,0,1-.75-1.9,2.84,2.84,0,0,1,.45-1.56,3,3,0,0,1,1.25-1.11,4.08,4.08,0,0,1,1.84-.41,3.57,3.57,0,0,1,2.34.7,3.65,3.65,0,0,1,1.18,1.63l-1.82.76a1.85,1.85,0,0,0-.59-.85,1.64,1.64,0,0,0-1.08-.34,1.84,1.84,0,0,0-1.11.31,1,1,0,0,0-.44.82,1.05,1.05,0,0,0,.42.84,4.28,4.28,0,0,0,1.36.66l.69.23a5.44,5.44,0,0,1,2.18,1.29,3.28,3.28,0,0,1,.21,3.92,3.3,3.3,0,0,1-1.42,1.11,4.44,4.44,0,0,1-1.78.37A4.16,4.16,0,0,1,32.35,31Z"/><path d="M40.67,31.05a2.45,2.45,0,0,1-.79-1.9,2.34,2.34,0,0,1,.41-1.38,2.58,2.58,0,0,1,1.13-.92A3.93,3.93,0,0,1,43,26.53a5.53,5.53,0,0,1,2.07.35v-.34a1.3,1.3,0,0,0-.48-1,2,2,0,0,0-1.3-.39,2.36,2.36,0,0,0-1.06.25,2.56,2.56,0,0,0-.85.66L40.1,25a3.87,3.87,0,0,1,1.43-1.13,4.43,4.43,0,0,1,1.86-.4,4,4,0,0,1,2.73.83,3.07,3.07,0,0,1,.93,2.42v4.8h-2v-.79H45a3.07,3.07,0,0,1-4.29.31Zm3.89-1.39a1.84,1.84,0,0,0,.52-1.31A3.89,3.89,0,0,0,43.44,28q-1.56,0-1.56,1.17a1,1,0,0,0,.34.77,1.38,1.38,0,0,0,1,.3A1.79,1.79,0,0,0,44.56,29.66Z"/><path d="M47.88,23.73h2.28l2,5.08h.12l2-5.08h2.25l-3.34,7.8h-2Z"/><path d="M58.93,31.24a3.84,3.84,0,0,1-1.47-1.47,4.3,4.3,0,0,1-.52-2.12,4.25,4.25,0,0,1,.52-2.08,4,4,0,0,1,1.43-1.52,3.84,3.84,0,0,1,2-.57A4.1,4.1,0,0,1,63,24a3.43,3.43,0,0,1,1.32,1.43,4.42,4.42,0,0,1,.45,2,5,5,0,0,1,0,.68H58.89a2.21,2.21,0,0,0,.75,1.41,2.15,2.15,0,0,0,1.41.48,2.26,2.26,0,0,0,1.19-.3,2.17,2.17,0,0,0,.79-.8l1.62.8A3.94,3.94,0,0,1,61,31.78,4.09,4.09,0,0,1,58.93,31.24Zm3.94-4.56a1.62,1.62,0,0,0-.26-.72,1.92,1.92,0,0,0-.66-.6,2,2,0,0,0-1-.24,1.87,1.87,0,0,0-1.23.42A2.34,2.34,0,0,0,59,26.68Z"/><path d="M72.18,31A5.51,5.51,0,0,1,70.1,29a6,6,0,0,1,0-5.79,5.51,5.51,0,0,1,2.08-2.07,5.63,5.63,0,0,1,2.9-.76,5.29,5.29,0,0,1,4.1,1.79l-1.45,1.41a3.3,3.3,0,0,0-2.63-1.24,3.82,3.82,0,0,0-1.87.47,3.35,3.35,0,0,0-1.32,1.32,4.3,4.3,0,0,0,0,4,3.35,3.35,0,0,0,1.32,1.32,3.82,3.82,0,0,0,1.87.47A3.57,3.57,0,0,0,78,28.38l1.47,1.39a5.45,5.45,0,0,1-1.92,1.5,5.82,5.82,0,0,1-2.46.51A5.63,5.63,0,0,1,72.18,31Z"/><path d="M82.37,31.23a3.83,3.83,0,0,1-1.48-1.48,4.49,4.49,0,0,1,0-4.23A3.85,3.85,0,0,1,82.37,24a4.48,4.48,0,0,1,4.3,0,3.83,3.83,0,0,1,1.47,1.49,4.49,4.49,0,0,1,0,4.23,3.8,3.8,0,0,1-1.47,1.48,4.48,4.48,0,0,1-4.3,0Zm3.23-1.58a2.11,2.11,0,0,0,.78-.79,2.54,2.54,0,0,0,.29-1.23,2.49,2.49,0,0,0-.29-1.21,2.16,2.16,0,0,0-2.93-.79,2,2,0,0,0-.78.79,2.39,2.39,0,0,0-.3,1.21,2.42,2.42,0,0,0,.3,1.22,2,2,0,0,0,.78.8,2.2,2.2,0,0,0,2.15,0Z"/><path d="M90.05,23.73h1.88v1h.12a2.5,2.5,0,0,1,1-.9,3,3,0,0,1,1.39-.33,2.67,2.67,0,0,1,2.14.86,3.47,3.47,0,0,1,.74,2.34v4.85h-2v-4.6a1.7,1.7,0,0,0-.38-1.17,1.41,1.41,0,0,0-1.07-.41,1.59,1.59,0,0,0-1.31.63,2.46,2.46,0,0,0-.5,1.57v4h-2Z"/><path d="M101.16,31.48a2.25,2.25,0,0,1-.8-.48,2.58,2.58,0,0,1-.72-2v-3.6H98.28V23.73h1.36v-2.2h2v2.2h1.91v1.71h-1.91v3.23a1.15,1.15,0,0,0,.26.86.93.93,0,0,0,.73.24,1.28,1.28,0,0,0,.48-.07,3.5,3.5,0,0,0,.5-.26v2a3.81,3.81,0,0,1-1.39.26A3,3,0,0,1,101.16,31.48Z"/><path d="M105.43,31.05a2.45,2.45,0,0,1-.8-1.9,2.41,2.41,0,0,1,.41-1.38,2.67,2.67,0,0,1,1.14-.92,3.93,3.93,0,0,1,1.59-.32,5.51,5.51,0,0,1,2.06.35v-.34a1.3,1.3,0,0,0-.48-1,2,2,0,0,0-1.29-.39,2.33,2.33,0,0,0-1.06.25,2.46,2.46,0,0,0-.85.66l-1.29-1a3.83,3.83,0,0,1,1.42-1.13,4.51,4.51,0,0,1,1.87-.4,4,4,0,0,1,2.72.83,3,3,0,0,1,.94,2.42v4.8h-2v-.79h-.12a2.76,2.76,0,0,1-.92.75,3,3,0,0,1-1.33.29A2.88,2.88,0,0,1,105.43,31.05Zm3.89-1.39a1.88,1.88,0,0,0,.51-1.31A3.85,3.85,0,0,0,108.2,28q-1.56,0-1.56,1.17a1,1,0,0,0,.33.77,1.43,1.43,0,0,0,1,.3A1.79,1.79,0,0,0,109.32,29.66Z"/><path d="M115.14,31.25a3.71,3.71,0,0,1-1.46-1.48,4.57,4.57,0,0,1,0-4.27A3.84,3.84,0,0,1,115.14,24a4.18,4.18,0,0,1,2.12-.54,4.29,4.29,0,0,1,2.23.56,3.24,3.24,0,0,1,1.35,1.59l-1.84.76a1.77,1.77,0,0,0-1.74-1,2,2,0,0,0-1.51.63,2.63,2.63,0,0,0,0,3.32,2,2,0,0,0,1.51.63,1.92,1.92,0,0,0,1.83-1.11l1.82.8a3.7,3.7,0,0,1-1.44,1.59,4.15,4.15,0,0,1-2.21.57A4.28,4.28,0,0,1,115.14,31.25Z"/><path d="M124.6,31.48a2.25,2.25,0,0,1-.8-.48,2.58,2.58,0,0,1-.71-2v-3.6h-1.37V23.73h1.37v-2.2h2v2.2H127v1.71h-1.91v3.23a1.19,1.19,0,0,0,.26.86.94.94,0,0,0,.73.24,1.37,1.37,0,0,0,.49-.07,4.14,4.14,0,0,0,.49-.26v2a3.81,3.81,0,0,1-1.39.26A3.08,3.08,0,0,1,124.6,31.48Z"/><path class="cls-1" d="M32.48,69.5a.73.73,0,0,1-.73-.73V53.25a6.63,6.63,0,0,1,6.62-6.62h6.87a.73.73,0,0,1,0,1.46H38.37a5.16,5.16,0,0,0-5.16,5.16V68.77A.73.73,0,0,1,32.48,69.5Z"/><path class="cls-1" d="M126.79,69.5a.73.73,0,0,1-.73-.73V53.25a5.17,5.17,0,0,0-5.16-5.16H114a.73.73,0,1,1,0-1.46h6.87a6.62,6.62,0,0,1,6.61,6.62V68.77A.73.73,0,0,1,126.79,69.5Z"/><path class="cls-1" d="M53.89,142.39H38.37a6.63,6.63,0,0,1-6.62-6.61V120.25a.73.73,0,1,1,1.46,0v15.53a5.16,5.16,0,0,0,5.16,5.15H53.89a.73.73,0,1,1,0,1.46Z"/><path class="cls-1" d="M120.9,142.39H105.37a.73.73,0,1,1,0-1.46H120.9a5.16,5.16,0,0,0,5.16-5.15V120.25a.73.73,0,1,1,1.45,0v15.53A6.62,6.62,0,0,1,120.9,142.39Z"/><path class="cls-1" d="M78.49,53.16A.91.91,0,0,1,78,53L66.84,45.35a.73.73,0,0,1,.83-1.2l10.82,7.43L89.3,44.15a.73.73,0,0,1,1,.19.72.72,0,0,1-.19,1L79,53A.82.82,0,0,1,78.49,53.16Zm-.33-1.36Z"/><path class="cls-1" d="M78.49,47.4a.91.91,0,0,1-.5-.15L66.84,39.59a.72.72,0,0,1-.18-1,.72.72,0,0,1,1-.19l10.82,7.43L89.3,38.39a.73.73,0,1,1,.82,1.2L79,47.24A.82.82,0,0,1,78.49,47.4ZM78.16,46Z"/></svg>