<svg id="Layer_1" data-name="Layer 1" xmlns="http://www.w3.org/2000/svg" viewBox="0 0 160 160"><defs><style>.cls-1{fill:#f4690b;}.cls-1,.cls-10,.cls-11,.cls-12,.cls-2,.cls-3,.cls-4,.cls-5,.cls-6,.cls-7,.cls-8,.cls-9{fill-rule:evenodd;}.cls-2{fill:#ff8533;}.cls-3{fill:#fff9e1;}.cls-4{fill:#7c3201;}.cls-5{fill:#632300;}.cls-6{fill:#f2a01d;}.cls-7{fill:#e59117;}.cls-8{fill:#fc3b00;}.cls-9{fill:#ea2c00;}.cls-10{fill:#cc710d;}.cls-11{fill:#bc6208;}.cls-12{fill:#fff;opacity:0.7;}.cls-13{fill:#4a1e01;}</style></defs><path class="cls-1" d="M30.66,36.67h98.68v70.2a49.34,49.34,0,0,1-98.68,0Z"/><path class="cls-2" d="M115.89,36.67h7.48v93.64a50.24,50.24,0,0,1-7.48,10.33Zm-15.86,0h7.49V147.76a49.25,49.25,0,0,1-7.49,4.17Zm-15.85,0h7.49V154.8A48.56,48.56,0,0,1,84.18,156Zm-15.85,0h7.49V156a48.56,48.56,0,0,1-7.49-1.23Zm-15.85,0H60V151.93a49.63,49.63,0,0,1-7.48-4.17Zm-8.37,0v104a49.87,49.87,0,0,1-7.48-10.33V36.67Z"/><path class="cls-3" d="M44.17,53.13v54.31c0,19.37,16.15,35.26,35.83,35.26s35.83-15.89,35.83-35.26V53.13Z"/><path class="cls-4" d="M33.7,34.79h92.6v7.47c0,4.11-4.86,7.47-10.8,7.47h-71c-5.94,0-10.8-3.36-10.8-7.47Z"/><path class="cls-5" d="M120.9,34.79v7.47c0,4.11-4.86,7.47-10.8,7.47h5.4c5.94,0,10.8-3.36,10.8-7.47V34.79Z"/><path class="cls-5" d="M33.7,34.79v6h0c2.29,0,2.59-1.75,4.21-1.75s2.46,1.75,4.21,1.75,2.59-1.75,4.21-1.75,2.46,1.75,4.21,1.75,2.58-1.75,4.21-1.75,2.46,1.75,4.21,1.75,2.58-1.75,4.2-1.75,2.47,1.75,4.21,1.75,2.59-1.75,4.21-1.75,2.47,1.75,4.21,1.75,2.59-1.75,4.21-1.75,2.46,1.75,4.21,1.75,2.59-1.75,4.21-1.75,2.46,1.75,4.21,1.75,2.58-1.75,4.21-1.75,2.46,1.75,4.2,1.75,2.59-1.75,4.21-1.75,2.47,1.75,4.21,1.75,2.59-1.75,4.21-1.75,2.46,1.75,4.21,1.75,2.59-1.75,4.21-1.75,1.92,1.75,4.21,1.75h0v-6H33.7Z"/><path class="cls-6" d="M80,13.51c18.84,0,35.5,7.37,45.69,18.69-1.75.27-2.14,1.71-3.6,1.71-1.62,0-2.46-1.76-4.21-1.76s-2.59,1.76-4.21,1.76-2.46-1.76-4.21-1.76-2.58,1.76-4.21,1.76-2.46-1.76-4.21-1.76-2.58,1.76-4.2,1.76-2.47-1.76-4.21-1.76S90,33.91,88.42,33.91,86,32.15,84.21,32.15,81.62,33.91,80,33.91s-2.46-1.76-4.21-1.76-2.59,1.76-4.21,1.76-2.46-1.76-4.21-1.76-2.58,1.76-4.21,1.76S60.7,32.15,59,32.15s-2.59,1.76-4.21,1.76-2.47-1.76-4.21-1.76S48,33.91,46.33,33.91s-2.46-1.76-4.21-1.76-2.59,1.76-4.21,1.76c-1.46,0-1.85-1.44-3.6-1.71C44.5,20.88,61.16,13.51,80,13.51"/><path class="cls-7" d="M124.54,31l-.08-.08c-.38-.39-.77-.77-1.16-1.15h0C113,19.83,97.43,13.51,80,13.51c-1.49,0-3,.05-4.43.14,15.73,1,29.63,7.11,39.05,16.27a2.45,2.45,0,0,1-1,.21c-1.62,0-2.46-1.76-4.21-1.76s-2.58,1.76-4.21,1.76-2.46-1.76-4.21-1.76-2.58,1.76-4.2,1.76-2.47-1.76-4.21-1.76S90,30.13,88.42,30.13,86,28.37,84.21,28.37,81.62,30.13,80,30.13s-2.46-1.76-4.21-1.76-2.59,1.76-4.21,1.76-2.46-1.76-4.21-1.76-2.58,1.76-4.21,1.76S60.7,28.37,59,28.37s-2.59,1.76-4.21,1.76-2.47-1.76-4.21-1.76S48,30.13,46.33,30.13s-2.46-1.76-4.21-1.76-2.59,1.76-4.21,1.76a2.15,2.15,0,0,1-1.21-.39c-.83.79-1.63,1.61-2.39,2.46,1.75.27,2.14,1.71,3.6,1.71,1.62,0,2.46-1.76,4.21-1.76s2.59,1.76,4.21,1.76,2.46-1.76,4.21-1.76,2.58,1.76,4.21,1.76,2.46-1.76,4.21-1.76,2.58,1.76,4.2,1.76,2.47-1.76,4.21-1.76,2.59,1.76,4.21,1.76,2.47-1.76,4.21-1.76,2.59,1.76,4.21,1.76,2.46-1.76,4.21-1.76,2.59,1.76,4.21,1.76,2.46-1.76,4.21-1.76,2.58,1.76,4.21,1.76,2.46-1.76,4.2-1.76,2.59,1.76,4.21,1.76,2.47-1.76,4.21-1.76,2.59,1.76,4.21,1.76,2.46-1.76,4.21-1.76,2.59,1.76,4.21,1.76c1.46,0,1.85-1.44,3.6-1.71C125.32,31.78,124.93,31.38,124.54,31Z"/><path class="cls-8" d="M80,3.79a6.54,6.54,0,1,1-6.54,6.54A6.54,6.54,0,0,1,80,3.79"/><path class="cls-9" d="M83.06,4.55a6.54,6.54,0,0,1-8.84,8.84,6.54,6.54,0,1,0,8.84-8.84Z"/><path class="cls-10" d="M33.7,31c2.29,0,2.59,1.75,4.21,1.75S40.37,31,42.12,31s2.59,1.75,4.21,1.75S48.79,31,50.54,31s2.58,1.75,4.21,1.75S57.21,31,59,31s2.58,1.75,4.2,1.75S65.63,31,67.37,31s2.59,1.75,4.21,1.75S74.05,31,75.79,31s2.59,1.75,4.21,1.75S82.46,31,84.21,31s2.59,1.75,4.21,1.75S90.88,31,92.63,31s2.58,1.75,4.21,1.75S99.3,31,101,31s2.59,1.75,4.21,1.75S107.72,31,109.46,31s2.59,1.75,4.21,1.75S116.13,31,117.88,31s2.59,1.75,4.21,1.75S124,31,126.3,31s5.11,1.81,5.11,4.06-2.83,4.06-5.11,4.06-2.59-1.76-4.21-1.76-2.46,1.76-4.21,1.76-2.59-1.76-4.21-1.76-2.46,1.76-4.21,1.76-2.58-1.76-4.21-1.76-2.46,1.76-4.21,1.76-2.58-1.76-4.2-1.76-2.47,1.76-4.21,1.76S90,37.32,88.42,37.32,86,39.08,84.21,39.08,81.62,37.32,80,37.32s-2.46,1.76-4.21,1.76-2.59-1.76-4.21-1.76-2.46,1.76-4.21,1.76-2.58-1.76-4.21-1.76S60.7,39.08,59,39.08s-2.59-1.76-4.21-1.76-2.47,1.76-4.21,1.76S48,37.32,46.33,37.32s-2.46,1.76-4.21,1.76-2.59-1.76-4.21-1.76S36,39.08,33.7,39.08,28.59,37.26,28.59,35,31.42,31,33.7,31"/><path class="cls-11" d="M126.3,36.76c-2.29,0-2.59-1.75-4.21-1.75s-2.46,1.75-4.21,1.75S115.29,35,113.67,35s-2.46,1.75-4.21,1.75S106.88,35,105.25,35s-2.46,1.75-4.21,1.75S98.46,35,96.84,35s-2.47,1.75-4.21,1.75S90,35,88.42,35,86,36.76,84.21,36.76,81.62,35,80,35s-2.46,1.75-4.21,1.75S73.2,35,71.58,35s-2.46,1.75-4.21,1.75S64.79,35,63.16,35,60.7,36.76,59,36.76,56.37,35,54.75,35s-2.47,1.75-4.21,1.75S48,35,46.33,35s-2.46,1.75-4.21,1.75S39.53,35,37.91,35,36,36.76,33.7,36.76a5.64,5.64,0,0,1-4.85-2.9A2.93,2.93,0,0,0,28.59,35c0,2.24,2.83,4.06,5.11,4.06s2.59-1.76,4.21-1.76,2.46,1.76,4.21,1.76,2.59-1.76,4.21-1.76,2.46,1.76,4.21,1.76,2.58-1.76,4.21-1.76,2.46,1.76,4.21,1.76,2.58-1.76,4.2-1.76,2.47,1.76,4.21,1.76,2.59-1.76,4.21-1.76,2.47,1.76,4.21,1.76,2.59-1.76,4.21-1.76,2.46,1.76,4.21,1.76,2.59-1.76,4.21-1.76,2.46,1.76,4.21,1.76,2.58-1.76,4.21-1.76,2.46,1.76,4.2,1.76,2.59-1.76,4.21-1.76,2.47,1.76,4.21,1.76,2.59-1.76,4.21-1.76,2.46,1.76,4.21,1.76,2.59-1.76,4.21-1.76,1.92,1.76,4.21,1.76,5.11-1.82,5.11-4.06a2.93,2.93,0,0,0-.26-1.16A5.64,5.64,0,0,1,126.3,36.76Z"/><path class="cls-12" d="M77.14,7.91c-.53.73-1.29,1.08-1.69.79s-.28-1.12.25-1.85S77,5.77,77.39,6.06,77.68,7.18,77.14,7.91Z"/><path class="cls-13" d="M69.59,129.22a2,2,0,0,1-.35,1.17,2.13,2.13,0,0,1-1,.76,3.49,3.49,0,0,1-1.42.26c-.15,0-.33,0-.55,0a7.52,7.52,0,0,1-.86-.16,7.24,7.24,0,0,1-1.13-.39v-1.77a9.32,9.32,0,0,0,1.08.56,2.85,2.85,0,0,0,1.13.23,1,1,0,0,0,.72-.19.55.55,0,0,0,.17-.35.59.59,0,0,0-.28-.49,4.12,4.12,0,0,0-.82-.41,5.92,5.92,0,0,1-1-.55,2.38,2.38,0,0,1-.74-.74,1.86,1.86,0,0,1-.28-1,2,2,0,0,1,.28-1.06,2,2,0,0,1,.88-.75,3.27,3.27,0,0,1,1.44-.29,4.93,4.93,0,0,1,1.12.12,6.27,6.27,0,0,1,.85.26c.22.1.37.18.46.23v1.7a6.74,6.74,0,0,0-1-.57,2.73,2.73,0,0,0-1.17-.25.87.87,0,0,0-.59.16.48.48,0,0,0-.18.38.46.46,0,0,0,.18.37,3,3,0,0,0,.65.38,13.85,13.85,0,0,1,1.34.71,2.72,2.72,0,0,1,.78.72A1.73,1.73,0,0,1,69.59,129.22Z"/><path class="cls-13" d="M77.54,130.78a4.54,4.54,0,0,1-.92.37,5.08,5.08,0,0,1-.94.2,8,8,0,0,1-1,.06,5,5,0,0,1-1.69-.26,3.75,3.75,0,0,1-1.3-.76,3.22,3.22,0,0,1-.82-1.19,3.89,3.89,0,0,1-.28-1.5,4,4,0,0,1,.32-1.63,3.19,3.19,0,0,1,.91-1.17,3.77,3.77,0,0,1,1.32-.68,5.42,5.42,0,0,1,1.57-.23,8.69,8.69,0,0,1,2.79.55v1.92a7.17,7.17,0,0,0-1.06-.55,3.1,3.1,0,0,0-1.23-.23,2.9,2.9,0,0,0-1.18.25,2.16,2.16,0,0,0-.88.72,1.76,1.76,0,0,0-.34,1.08,1.89,1.89,0,0,0,.29,1,2.13,2.13,0,0,0,.82.72,2.46,2.46,0,0,0,1.17.27,3.54,3.54,0,0,0,1-.13,4.19,4.19,0,0,0,.79-.28,7.3,7.3,0,0,0,.66-.37Z"/><path class="cls-13" d="M86.94,131.32H84.71l-.59-1.46H81l-.6,1.46H78.15l3.2-7.23h2.41Zm-3.32-2.72L82.56,126,81.5,128.6Z"/><path class="cls-13" d="M95.75,131.32H93.81l-3.75-4v4H87.9v-7.23h1.94l3.74,4v-4h2.17Z"/><path class="cls-13" d="M80.89,140.32H78.71v-4.18l-2,2.42h-.17l-2-2.42v4.18H72.48V133.1h2l2.22,2.71,2.23-2.71h2Z"/><path class="cls-13" d="M88.16,140.32H82.71V133.1h5.36v1.45H84.89v1.32h3v1.46h-3v1.54h3.27Z"/></svg>