<?xml version="1.0" encoding="UTF-8"?>
<svg id="Layer_1" data-name="Layer 1" xmlns="http://www.w3.org/2000/svg" xmlns:xlink="http://www.w3.org/1999/xlink" viewBox="0 0 500 500">
  <defs>
    <style>
      .cls-1 {
        fill: #8dc43f;
      }

      .cls-1, .cls-2, .cls-3, .cls-4, .cls-5, .cls-6, .cls-7, .cls-8, .cls-9 {
        stroke-width: 0px;
      }

      .cls-2 {
        fill: #176d38;
      }

      .cls-3 {
        fill: none;
      }

      .cls-4 {
        fill: #fdccab;
      }

      .cls-10, .cls-6 {
        fill: #06a64f;
      }

      .cls-5 {
        fill: #fff;
      }

      .cls-7 {
        fill: #231f20;
      }

      .cls-8 {
        fill: #ec2227;
      }

      .cls-11 {
        clip-path: url(#clippath);
      }

      .cls-9 {
        fill: #a8aaad;
      }
    </style>
    <clipPath id="clippath">
      <path class="cls-6" d="m374.19,373.87c1.12-.45,20.64-5.26,46.45-2.38,0,0-3.37,38.34-2.59,38.32h.78s-41.63.79-41.63.79l-3-36.74Z"/>
    </clipPath>
  </defs>
  <g>
    <path class="cls-5" d="m142.26,91.25h256.78c10.02,0,18.15,8.13,18.15,18.15v256.78c0,29.11-23.64,52.75-52.75,52.75h-222.18c-29.11,0-52.75-23.64-52.75-52.75v-222.18c0-29.11,23.64-52.75,52.75-52.75Z"/>
    <path class="cls-2" d="m364.44,420.43h-222.18c-29.91,0-54.25-24.34-54.25-54.25v-222.18c0-29.91,24.34-54.25,54.25-54.25h256.78c10.83,0,19.65,8.81,19.65,19.65v256.78c0,29.91-24.34,54.25-54.25,54.25ZM142.26,92.75c-28.26,0-51.25,22.99-51.25,51.25v222.18c0,28.26,22.99,51.25,51.25,51.25h222.18c28.26,0,51.25-22.99,51.25-51.25V109.4c0-9.18-7.47-16.65-16.65-16.65H142.26Z"/>
  </g>
  <g>
    <path class="cls-9" d="m435.77,410.5c-.62-1.91-2.4-3.21-4.41-3.21-.03,0-.06,0-.08,0-.51,0-2.78.05-6.27.11.37-6.77,1.45-20.55,2.56-33.2.22-2.51-1.6-4.73-4.1-5.01-2.82-.31-5.67-.55-8.53-.71.79-.71,1.55-1.42,2.27-2.11,1.84-1.81,3.95-4.02,5.58-6.66.5-.83.89-1.62,1.19-2.41.48-1.28.69-2.49.64-3.69-.05-1.86-.83-3.68-2.14-5.01-.03-.03-.06-.06-.09-.08-1.31-1.26-3.01-2.04-4.69-2.15-.29-.02-.57-.04-.84-.04-1.81,0-3.24.49-4.52,1.03-.03.01-.07.03-.1.04-1.16.51-2.24,1.11-3.21,1.76-3.62,2.4-6.15,5.05-7.97,7.11-1.2,1.38-2.27,2.8-3.22,4.23-1.25-1.41-2.62-2.71-4.1-3.87-2.06-1.58-4.02-2.82-6.04-3.81-1.06-.51-2.36-1.06-3.93-1.36-.41-.08-1.04-.18-1.78-.18-.49,0-.98.04-1.46.13-2.18.38-4.06,1.82-4.93,3.77-.62,1.36-.78,2.84-.49,4.41.16.83.43,1.64.84,2.49.54,1.09,1.24,2.11,2.17,3.13,1.65,1.78,3.34,3.37,5.1,4.82-4.6.74-7.62,1.5-8.47,1.85-1.39.56-2.39,1.75-2.75,3.16,0,0,0,0,0,0-.79-.3-1.62-.45-2.48-.45-.72,0-1.47.11-2.26.34-.82.25-1.61.6-2.48,1.12-1.72,1.06-3,2.26-4.06,3.39-.49-.38-.97-.7-1.42-.99-.17-.11-.35-.21-.54-.29l-.11-.05c-.28-.14-.56-.26-.85-.37-.18-.07-.36-.12-.54-.16-.28-.08-.83-.24-1.56-.26-.12,0-.24-.01-.36-.01-1.63,0-3.23.66-4.4,1.82-.02.02-.05.05-.07.07-1.4,1.44-2.07,3.3-2.01,5.54,0,.05,0,.09,0,.14.03.48.09.95.19,1.42-.39.17-.76.38-1.1.66-1.02.85-1.63,2.09-1.68,3.42l-.62,18.71c-2.61.08-4.55.15-5.59.21-.93.05-1.73.1-2.66.56-1.44.72-2.41,2.14-2.55,3.75l-.45,5.26c-.54-4.16-.14-7.41-.1-7.74.18-1.32-.21-2.66-1.08-3.67-.87-1.01-2.14-1.59-3.47-1.6,0,0-9.63-.06-9.64-.06-2.51,0-4.57,2-4.63,4.51-.88,34.34,15.26,42.09,31.16,45.13,3.4.65,8.38.97,15.24.97,19.89,0,49.95-2.69,64.39-3.99,3.4-.3,5.85-.52,6.92-.6,2.47-.16,4.37-2.24,4.32-4.71l-.14-7.56c-.02-1.28-.57-2.49-1.52-3.35-.86-.78-1.97-1.2-3.11-1.2-.12,0-.24,0-.36.01-.09,0-2.27.18-5.69.45l-.25-8.72c5.09-.03,8.2-.04,8.2-.04,1.48,0,2.86-.72,3.73-1.92.87-1.2,1.11-2.74.65-4.14l-3.28-10.14Zm-63.41-20.29c-.04-.66-.22-1.28-.5-1.83.31-.28.62-.57.92-.88l1.7,20.89c-.34,0-.68.01-1.02.02l-1.1-18.2Zm-35.77,36.45c.66.35,1.41.55,2.18.55,0,0,3.92-.02,10.16-.05l.47,10.45c-.31-.1-.63-.19-.93-.29-6.31-2.12-9.88-6.27-11.87-10.66Zm75.77,9.96c-11.42.93-24.52,2.01-30.1,2.56-3.94.39-9.14.83-14.49.83h0c-.73,0-1.43-.02-2.14-.03l.06-12.91c14.33-.08,31.79-.17,45.56-.24l1.11,9.79Z"/>
    <g>
      <path class="cls-5" d="m433.46,408.18c-.62-1.91-2.4-3.21-4.41-3.21-.03,0-.06,0-.08,0-.51,0-2.78.05-6.27.11.37-6.77,1.45-20.55,2.56-33.2.22-2.51-1.6-4.73-4.1-5.01-2.82-.31-5.67-.55-8.53-.71.79-.71,1.55-1.42,2.27-2.11,1.84-1.81,3.95-4.02,5.58-6.66.5-.83.89-1.62,1.19-2.41.48-1.28.69-2.49.64-3.69-.05-1.86-.83-3.68-2.14-5.01-.03-.03-.06-.06-.09-.08-1.31-1.26-3.01-2.04-4.69-2.15-.29-.02-.57-.04-.84-.04-1.81,0-3.24.49-4.52,1.03-.03.01-.07.03-.1.04-1.16.51-2.24,1.11-3.21,1.76-3.62,2.4-6.15,5.05-7.97,7.11-1.2,1.38-2.27,2.8-3.22,4.23-1.25-1.41-2.62-2.71-4.1-3.87-2.06-1.58-4.02-2.82-6.04-3.81-1.06-.51-2.36-1.06-3.93-1.36-.41-.08-1.04-.18-1.78-.18-.49,0-.98.04-1.46.13-2.18.38-4.06,1.82-4.93,3.77-.62,1.36-.78,2.84-.49,4.41.16.83.43,1.64.84,2.49.54,1.09,1.24,2.11,2.17,3.13,1.65,1.78,3.34,3.37,5.1,4.82-4.6.74-7.62,1.5-8.47,1.85-1.39.56-2.39,1.75-2.75,3.16,0,0,0,0,0,0-.79-.3-1.62-.45-2.48-.45-.72,0-1.47.11-2.26.34-.82.25-1.61.6-2.48,1.12-1.72,1.06-3,2.26-4.06,3.39-.49-.38-.97-.7-1.42-.99-.17-.11-.35-.21-.54-.29l-.11-.05c-.28-.14-.56-.26-.85-.37-.18-.07-.36-.12-.54-.16-.28-.08-.83-.24-1.56-.26-.12,0-.24-.01-.36-.01-1.63,0-3.23.66-4.4,1.82-.02.02-.05.05-.07.07-1.4,1.44-2.07,3.3-2.01,5.54,0,.05,0,.09,0,.14.03.48.09.95.19,1.42-.39.17-.76.38-1.1.66-1.02.85-1.63,2.09-1.68,3.42l-.62,18.71c-2.61.08-4.55.15-5.59.21-.93.05-1.73.1-2.66.56-1.44.72-2.41,2.14-2.55,3.75l-.45,5.26c-.54-4.16-.14-7.41-.1-7.74.18-1.32-.21-2.66-1.08-3.67-.87-1.01-2.14-1.59-3.47-1.6,0,0-9.63-.06-9.64-.06-2.51,0-4.57,2-4.63,4.51-.88,34.34,15.26,42.09,31.16,45.13,3.4.65,8.38.97,15.24.97,19.89,0,49.95-2.69,64.39-3.99,3.4-.3,5.85-.52,6.92-.6,2.47-.16,4.37-2.24,4.32-4.71l-.14-7.56c-.02-1.28-.57-2.49-1.52-3.35-.86-.78-1.97-1.2-3.11-1.2-.12,0-.24,0-.36.01-.09,0-2.27.18-5.69.45l-.25-8.72c5.09-.03,8.2-.04,8.2-.04,1.48,0,2.86-.72,3.73-1.92.87-1.2,1.11-2.74.65-4.14l-3.28-10.14Zm-99.18,16.16c.66.35,1.41.55,2.18.55,0,0,3.92-.02,10.16-.05l.47,10.45c-.31-.1-.63-.19-.93-.29-6.31-2.12-9.88-6.27-11.87-10.66Zm75.77,9.96c-11.42.93-24.52,2.01-30.1,2.56-3.94.39-9.14.83-14.49.83h0c-.73,0-1.43-.02-2.14-.03l.06-12.91c14.33-.08,31.79-.17,45.56-.24l1.11,9.79Z"/>
      <path class="cls-9" d="m359.57,454.58c-6.88,0-11.89-.32-15.31-.98-16.11-3.09-32.46-10.92-31.57-45.64.07-2.81,2.33-5,5.13-5,.01,0,9.65.06,9.65.06,1.48.01,2.88.66,3.85,1.78.97,1.12,1.41,2.6,1.2,4.07,0,.04-.04.34-.08.86.47-1.14,1.34-2.09,2.46-2.65,1.02-.51,1.91-.56,2.85-.61.95-.05,2.63-.12,5.14-.19l.6-18.24c.05-1.47.73-2.85,1.86-3.79.25-.21.54-.39.86-.56-.06-.38-.11-.74-.13-1.1v-.15c-.07-2.38.66-4.37,2.15-5.91l.08-.08c1.36-1.34,3.27-2.06,5.14-1.95.78.02,1.38.2,1.67.28.18.04.38.1.57.17.31.11.6.25.89.39l.11.05c.2.09.4.2.59.32.31.2.69.45,1.1.74.86-.9,2.13-2.09,3.86-3.15.9-.53,1.72-.9,2.6-1.17,1.63-.48,3.13-.48,4.56-.05.5-1.34,1.55-2.44,2.88-2.98.93-.37,3.74-1.06,7.5-1.7-1.5-1.29-2.91-2.66-4.31-4.16-.96-1.05-1.69-2.11-2.25-3.25-.43-.88-.72-1.74-.89-2.62-.31-1.68-.14-3.26.52-4.71.93-2.09,2.96-3.65,5.3-4.06.5-.09,1.02-.14,1.54-.14.78,0,1.44.11,1.87.18,1.63.31,2.96.89,4.05,1.41,2.04,1,4.05,2.27,6.13,3.87,1.31,1.02,2.56,2.18,3.74,3.46.89-1.3,1.86-2.56,2.9-3.75,1.83-2.08,4.4-4.77,8.07-7.2,1-.67,2.11-1.28,3.29-1.8l.11-.05c1.54-.64,3.33-1.23,5.6-1.03,1.78.12,3.61.95,5,2.29l.1.1c1.39,1.41,2.22,3.36,2.28,5.35.05,1.27-.17,2.54-.67,3.88-.31.82-.71,1.64-1.23,2.49-1.67,2.69-3.8,4.93-5.66,6.76-.42.41-.89.85-1.4,1.32,2.47.15,4.94.37,7.37.64,2.8.31,4.79,2.75,4.54,5.55-1.15,13.1-2.16,26.07-2.53,32.64l5.82-.11c2.23,0,4.2,1.43,4.88,3.55h0l3.28,10.14c.5,1.55.23,3.27-.72,4.59-.96,1.32-2.5,2.12-4.13,2.13l-7.69.04.22,7.68,5.16-.41c1.44-.12,2.81.37,3.86,1.32,1.04.95,1.66,2.3,1.68,3.71l.14,7.56c.05,2.74-2.05,5.04-4.79,5.22-1.09.07-3.79.32-6.91.59-14.45,1.29-44.51,3.99-64.43,3.99h-.02Zm-41.75-50.61c-2.25,0-4.07,1.77-4.13,4.02-.87,33.97,15.06,41.62,30.75,44.63,3.36.64,8.31.96,15.12.96h.02c19.88,0,49.91-2.69,64.34-3.98,3.12-.28,5.82-.52,6.93-.6,2.2-.15,3.9-1.99,3.86-4.2l-.14-7.56c-.02-1.13-.52-2.22-1.36-2.98-.84-.76-1.96-1.15-3.1-1.06l-5.69.45c-.14.01-.27-.03-.37-.13-.1-.09-.16-.22-.17-.36l-.25-8.72c0-.13.05-.27.14-.36.09-.1.22-.15.36-.15l8.2-.04c1.31,0,2.56-.65,3.33-1.71.77-1.06.99-2.44.58-3.69l-3.28-10.14c-.55-1.71-2.13-2.86-3.93-2.86l-6.35.11c-.15.04-.27-.05-.37-.15-.1-.1-.15-.24-.14-.38.35-6.39,1.38-19.74,2.57-33.21.2-2.25-1.41-4.22-3.66-4.47-2.8-.31-5.66-.55-8.5-.71-.2-.01-.38-.14-.45-.33-.07-.19-.01-.4.14-.54.88-.79,1.61-1.48,2.26-2.1,1.82-1.79,3.9-3.97,5.51-6.57.48-.8.86-1.56,1.15-2.33.45-1.21.65-2.36.61-3.49-.05-1.74-.77-3.44-1.99-4.68l-.08-.08c-1.22-1.17-2.81-1.91-4.38-2.01-2.15-.18-3.72.36-5.14.95l-.09.04c-1.13.5-2.19,1.08-3.14,1.72-3.58,2.37-6.09,5-7.88,7.03-1.15,1.32-2.22,2.72-3.17,4.18-.09.13-.23.21-.38.22-.16.01-.31-.05-.41-.17-1.26-1.42-2.62-2.7-4.03-3.81-2.03-1.56-3.98-2.79-5.95-3.76-1.03-.49-2.29-1.03-3.8-1.32-.65-.12-1.94-.25-3.05-.04-2.02.35-3.76,1.69-4.56,3.48-.57,1.27-.72,2.65-.45,4.12.15.79.41,1.56.8,2.36.52,1.05,1.2,2.04,2.09,3.01,1.62,1.75,3.27,3.31,5.05,4.77.15.13.22.33.17.52-.05.19-.21.33-.4.36-4.69.75-7.61,1.51-8.36,1.82-1.21.49-2.13,1.54-2.45,2.81-.04.15-.14.27-.28.33-.14.06-.3.06-.43,0-1.28-.49-2.77-.55-4.37-.08-.79.24-1.54.58-2.36,1.06-1.83,1.13-3.13,2.43-3.95,3.3-.18.19-.47.21-.67.06-.5-.39-1.01-.72-1.39-.96-.15-.1-.31-.18-.48-.26l-.12-.06c-.26-.13-.53-.25-.8-.35-.16-.06-.32-.11-.48-.15-.29-.08-.79-.23-1.46-.25-.13,0-.24-.01-.35-.01-1.49,0-2.97.61-4.04,1.67,0,0-.06.06-.06.06-1.3,1.34-1.93,3.08-1.87,5.17v.12c.03.44.09.88.19,1.35.05.23-.07.47-.29.56-.39.17-.71.36-.98.59-.91.75-1.45,1.86-1.49,3.05l-.62,18.71c0,.26-.22.48-.49.48-2.72.08-4.59.15-5.58.21-.91.05-1.63.09-2.46.5-1.28.64-2.15,1.92-2.27,3.35l-.45,5.26c-.02.26-.23.45-.49.46,0,0,0,0-.01,0-.25,0-.47-.19-.5-.44-.55-4.24-.15-7.51-.1-7.87.16-1.18-.19-2.38-.97-3.28-.78-.9-1.91-1.42-3.1-1.43,0,0-9.58-.06-9.64-.06Zm47.64,34.23c-.73,0-1.45-.02-2.15-.03-.27,0-.49-.23-.49-.5l.06-12.91c0-.28.22-.5.5-.5l45.56-.24h0c.25,0,.47.19.5.45l1.11,9.79c.02.13-.02.27-.11.38-.09.1-.21.17-.35.18-15.17,1.23-25.57,2.12-30.09,2.56-3.94.39-9.16.83-14.53.83Zm-1.64-1.02c.54.01,1.08.02,1.64.02,5.33,0,10.52-.44,14.44-.83,5.62-.55,19.08-1.67,29.59-2.52l-1-8.83-44.61.24-.05,11.92Zm-16.73-1.38s-.1,0-.15-.02l-.34-.1c-.2-.06-.41-.12-.61-.19-5.64-1.89-9.73-5.57-12.17-10.92-.09-.2-.04-.43.11-.57.16-.15.39-.18.58-.08.6.32,1.27.49,1.94.49l10.16-.05h0c.27,0,.49.21.5.48l.47,10.45c0,.16-.07.32-.19.42-.09.07-.2.1-.31.1Zm-11.8-10.53c2.36,4.49,6.07,7.6,11.03,9.27.08.03.16.05.24.08l-.42-9.26c-5.96.03-9.68.05-9.68.05-.39,0-.79-.05-1.17-.14Z"/>
    </g>
    <g>
      <path class="cls-6" d="m350.95,418.02c.87-.05,7.82.15,7.82.15l-.12,26.24-6.54-.56-1.16-25.84Z"/>
      <polygon class="cls-6" points="412.8 417.49 419.3 416.99 420 441.04 415.43 440.66 412.8 417.49"/>
      <g>
        <path class="cls-10" d="m374.19,373.87c1.12-.45,20.64-5.26,46.45-2.38,0,0-3.37,38.34-2.59,38.32h.78s-41.63.79-41.63.79l-3-36.74Z"/>
        <g class="cls-11">
          <g>
            <path class="cls-1" d="m414.01,374.13c-6.96,0-6.97,10.81,0,10.81s6.97-10.81,0-10.81Z"/>
            <path class="cls-1" d="m380.07,370.36c-6.96,0-6.97,10.81,0,10.81s6.97-10.81,0-10.81Z"/>
            <path class="cls-1" d="m395.52,375.76c-6.96,0-6.97,10.81,0,10.81s6.97-10.81,0-10.81Z"/>
            <path class="cls-1" d="m382.05,386.68c-6.96,0-6.97,10.81,0,10.81s6.97-10.81,0-10.81Z"/>
            <path class="cls-1" d="m414.01,388.11c-6.96,0-6.97,10.81,0,10.81s6.97-10.81,0-10.81Z"/>
            <path class="cls-1" d="m396.75,396.14c-6.96,0-6.97,10.81,0,10.81s6.97-10.81,0-10.81Z"/>
            <path class="cls-1" d="m380.79,404.65c-6.96,0-6.97,10.81,0,10.81s6.97-10.81,0-10.81Z"/>
            <path class="cls-1" d="m415.62,405.73c-6.96,0-6.97,10.81,0,10.81s6.97-10.81,0-10.81Z"/>
          </g>
        </g>
      </g>
      <path class="cls-3" d="m420.64,392.15s-25.5-4.13-46.01,1.37"/>
      <path class="cls-3" d="m396.85,367.84c.27.49,2.49,48.68,2.48,48.81"/>
      <path class="cls-8" d="m327.44,408.16s-3.38,24.31,17.24,31.23c11.57,3.88,24.85,3.15,35.72,2.08,10.87-1.07,50.06-4.16,50.06-4.16l.14,7.56c-7.11.47-68.76,6.87-85.37,3.69-15.17-2.91-28.19-9.69-27.4-40.46l9.61.06Z"/>
      <path class="cls-1" d="m348.62,388.2c.91.14,16.81-.02,16.81-.02l1.48,24.35-19.07-.56.79-23.77Z"/>
      <path class="cls-1" d="m348.62,388.2c.91.14,16.81-.02,16.81-.02l1.48,24.35-19.07-.56.79-23.77Z"/>
      <g>
        <polygon class="cls-5" points="365.52 389.74 348.29 398.01 348.23 399.75 365.62 391.41 365.52 389.74"/>
        <polygon class="cls-5" points="348.09 403.95 348.04 405.62 366.07 398.87 365.97 397.26 348.09 403.95"/>
        <path class="cls-5" d="m355.72,388.25l-7.28,5.08-.06,1.93,10.06-7.02c-.9,0-1.82.01-2.72.01Z"/>
        <polygon class="cls-5" points="366.46 405.32 347.83 411.83 347.83 411.97 351.79 412.09 366.56 406.92 366.46 405.32"/>
      </g>
      <g id="SVGID">
        <path class="cls-3" d="m348.62,388.2c.91.14,16.81-.02,16.81-.02l1.48,24.35-19.07-.56.79-23.77Z"/>
      </g>
      <polyline class="cls-3" points="356.27 413.97 357.58 387.51 356.85 387.45"/>
      <path class="cls-8" d="m337.19,411.67s.33-.05.84-.08c9.23-.51,91.02-1.98,91.02-1.98l3.28,10.14-95.88.51.73-8.6Z"/>
      <path class="cls-7" d="m359.26,420.64h-.5s-.09,20.92-.09,20.92c.17.01.33.02.5.04l.09-20.96Z"/>
      <path class="cls-7" d="m351.07,420.68h-.5s.9,19.94.9,19.94c.17.03.34.06.51.09l-.9-20.03Z"/>
      <path class="cls-7" d="m358.76,420.64h-.5s-.09,20.88-.09,20.88c.17.01.33.02.5.04l.09-20.92Z"/>
      <path class="cls-7" d="m351.57,420.68h-.5s.9,20.03.9,20.03c.17.03.34.06.51.09l-.9-20.12Z"/>
      <path class="cls-7" d="m419.9,437.65c.17-.01.33-.03.5-.04l-.5-17.29h-.5s.5,17.33.5,17.33Z"/>
      <path class="cls-7" d="m414.63,438.07c.17-.01.33-.03.5-.04l-2.01-17.68h-.5s2.01,17.72,2.01,17.72Z"/>
      <path class="cls-7" d="m415.13,438.03c.17-.01.33-.03.5-.04l-2-17.64h-.5s2.01,17.68,2.01,17.68Z"/>
      <path class="cls-7" d="m419.4,437.69c.17-.01.34-.03.5-.04l-.5-17.33h-.5s.5,17.37.5,17.37Z"/>
      <path class="cls-7" d="m417.52,409.32c.44,0,.88-.02,1.3-.02h0s-.37,0-.37,0c-.1-1.63.35-8.59.98-16.83-.28-.04-.63-.08-1.01-.13-.7,9.27-1,14.95-.89,16.98Z"/>
      <path class="cls-7" d="m377.65,410.1l-1.35-16.48c-.33.08-.66.16-.99.25l1.33,16.26c.64-.01,1.29-.03,1.93-.04l-.93.02Z"/>
      <path class="cls-7" d="m374.73,374.24c1.73-.45,9.82-2.37,21.88-2.98-.02-.36-.04-.69-.06-.99-12.76.63-21.41,2.68-22.54,3.14l-.34.14,1.58,19.3c.33-.08.66-.17.99-.25l-1.5-18.36Z"/>
      <path class="cls-7" d="m420.1,371.94c-.67,7.59-1.2,14.06-1.62,19.41.38.05.72.09,1.01.13.51-6.61,1.12-13.92,1.65-19.94l.04-.49-.49-.05c-8.51-.95-16.39-1.06-23.18-.77.02.31.04.64.06.99,6.52-.29,14.14-.19,22.51.72Z"/>
      <path class="cls-7" d="m374.5,393.03c-.27.07-.43.35-.35.62.06.22.26.37.48.37.04,0,.09,0,.13-.02.18-.05.37-.09.56-.14l-.08-1.01c-.24.06-.49.12-.74.19Z"/>
      <path class="cls-7" d="m398.6,390.18c.02.33.03.67.05,1,8.77-.06,16.24.72,19.76,1.17.02-.33.05-.66.08-1-3.57-.45-11.08-1.23-19.88-1.16Z"/>
      <path class="cls-7" d="m420.56,392.64c.27.04.53-.14.58-.42.04-.27-.14-.53-.41-.58-.03,0-.46-.07-1.23-.18-.03.34-.05.67-.08,1,.71.1,1.12.16,1.15.17Z"/>
      <path class="cls-7" d="m397.59,390.19c-6.83.1-14.34.73-21.36,2.41l.08,1.01c7-1.69,14.51-2.32,21.33-2.42-.02-.33-.03-.67-.05-1Z"/>
      <path class="cls-7" d="m418.41,392.34c.38.05.72.09,1.01.13.03-.33.05-.67.08-1-.29-.04-.63-.08-1.01-.13-.03.34-.05.67-.08,1Z"/>
      <path class="cls-7" d="m376.22,392.6c-.33.08-.66.16-.99.25l.08,1.01c.33-.08.66-.17.99-.25l-.08-1.01Z"/>
      <path class="cls-7" d="m397.29,367.6c-.13-.24-.44-.33-.68-.2-.21.12-.31.37-.24.59.04.2.1,1.02.17,2.28.32-.02.65-.03.98-.05-.11-1.58-.19-2.54-.23-2.63Z"/>
      <path class="cls-7" d="m397.63,391.19c.33,6.75.65,13.6.88,18.49.34,0,.68-.01,1.02-.02-.22-4.9-.55-11.74-.88-18.48-.34,0-.68,0-1.02.01Z"/>
      <path class="cls-7" d="m398.6,390.18c-.37-7.52-.75-14.78-1.01-18.96-.33.01-.65.03-.98.05.24,4.07.61,11.36.98,18.93.34,0,.68,0,1.02-.01Z"/>
      <path class="cls-7" d="m397.59,371.21c-.02-.35-.04-.68-.06-.99-.33.01-.65.03-.98.05.02.31.04.64.06.99.33-.02.65-.03.98-.05Z"/>
      <path class="cls-7" d="m398.6,390.18c-.34,0-.67,0-1.02.01.02.33.03.67.05,1,.34,0,.68,0,1.02-.01-.02-.33-.03-.67-.05-1Z"/>
      <path class="cls-7" d="m380.35,440.98c-6.68.66-13.99,1.13-21.18.62v.51c7.35.52,14.72,0,21.23-.63,6.3-.62,22.11-1.92,34.29-2.9l-.06-.5c-12.2.99-28.02,2.29-34.28,2.9Z"/>
      <path class="cls-7" d="m430.42,436.81c-.13.01-4.19.33-10.02.8v.5c5.94-.48,10.06-.8,10.06-.8l.14,7.56c-7.11.47-68.76,6.87-85.37,3.69-15.17-2.91-28.19-9.69-27.4-40.46l9.61.06s-3.38,24.31,17.24,31.23c2.22.74,4.49,1.32,6.81,1.75l-.02-.52c-2.26-.43-4.47-.99-6.62-1.71-19.98-6.71-16.94-30.45-16.9-30.69l.08-.57-10.68-.07v.49c-.77,29.44,10.56,37.67,27.79,40.97,3.35.64,8.45.9,14.56.9,19.53,0,49.24-2.66,63.93-3.98,3.42-.31,5.9-.53,7.01-.6l.48-.03-.16-8.57-.53.04Z"/>
      <path class="cls-7" d="m358.16,441.53c-1.91-.16-3.81-.4-5.69-.73l.02.51c1.87.32,3.77.56,5.66.72v-.51Z"/>
      <path class="cls-7" d="m351.99,441.23l-.02-.51c-.17-.03-.34-.06-.51-.09l.02.52c.17.03.34.06.51.09Z"/>
      <path class="cls-7" d="m358.66,441.56v.51c.16.01.33.02.5.03v-.51c-.16-.01-.33-.02-.5-.04Z"/>
      <path class="cls-7" d="m358.66,441.56c-.17-.01-.33-.02-.5-.04v.51c.17.01.33.02.5.04v-.51Z"/>
      <path class="cls-7" d="m352.47,440.8c-.17-.03-.34-.06-.51-.09l.02.51c.17.03.34.06.51.09l-.02-.51Z"/>
      <path class="cls-7" d="m415.69,438.49c1.29-.1,2.54-.2,3.72-.3v-.5c-1.21.1-2.47.2-3.78.3l.06.5Z"/>
      <path class="cls-7" d="m419.91,438.15c.17-.01.34-.03.5-.04v-.5c-.18.01-.35.03-.52.04v.5Z"/>
      <path class="cls-7" d="m414.63,438.07l.06.5c.17-.01.33-.03.5-.04l-.06-.5c-.17.01-.33.03-.5.04Z"/>
      <path class="cls-7" d="m419.41,438.19c.17-.01.33-.03.5-.04v-.5c-.18.01-.35.03-.52.04v.5Z"/>
      <path class="cls-7" d="m415.19,438.53c.17-.01.34-.03.5-.04l-.06-.5c-.17.01-.33.03-.5.04l.06.5Z"/>
      <path class="cls-7" d="m380.4,441.47c-6.51.64-13.88,1.15-21.23.63v.5c7.24.51,14.57.03,21.28-.63,6.26-.61,22.1-1.92,34.3-2.9l-.06-.5c-12.18.98-27.99,2.28-34.29,2.9Z"/>
      <path class="cls-7" d="m429.96,437.85l.12,6.55c-1.27.1-3.55.3-6.56.57-17.58,1.58-64.28,5.76-78.21,3.09-13.42-2.57-27.66-7.96-27-39.46l8.56.06c-.34,3.74-1.37,24.83,17.64,31.21,2.27.76,4.61,1.34,6.99,1.79l-.02-.51c-2.31-.44-4.59-1.01-6.81-1.75-20.62-6.93-17.24-31.23-17.24-31.23l-9.61-.06c-.79,30.77,12.23,37.56,27.4,40.46,16.61,3.18,78.26-3.21,85.37-3.69l-.14-7.56s-4.11.33-10.04.8v.5c4.7-.38,8.25-.66,9.55-.76Z"/>
      <path class="cls-7" d="m358.16,442.04c-1.9-.16-3.79-.4-5.66-.72l.02.51c1.86.31,3.74.55,5.64.7v-.5Z"/>
      <path class="cls-7" d="m358.66,442.07v.5c.16.01.33.02.5.04v-.5c-.16-.01-.33-.02-.5-.03Z"/>
      <path class="cls-7" d="m352.01,441.74l-.02-.51c-.17-.03-.34-.05-.51-.09l.02.51c.17.03.34.06.51.09Z"/>
      <path class="cls-7" d="m358.16,442.04v.5c.16.01.33.02.5.04v-.5c-.17-.01-.33-.02-.5-.04Z"/>
      <path class="cls-7" d="m352.52,441.83l-.02-.51c-.17-.03-.34-.06-.51-.09l.02.51c.17.03.34.06.51.09Z"/>
      <path class="cls-7" d="m415.74,438.99c1.28-.1,2.51-.2,3.68-.3v-.5c-1.2.1-2.45.2-3.74.3l.06.5Z"/>
      <path class="cls-7" d="m419.93,438.66c.17-.01.34-.03.5-.04v-.5c-.18.01-.35.03-.52.04v.5Z"/>
      <path class="cls-7" d="m414.69,438.57l.06.5c.17-.01.33-.03.5-.04l-.06-.5c-.17.01-.33.03-.5.04Z"/>
      <path class="cls-7" d="m419.43,438.7c.17-.01.34-.03.5-.04v-.5c-.18.01-.35.03-.52.04v.5Z"/>
      <path class="cls-7" d="m415.19,438.53l.06.5c.17-.01.34-.03.5-.04l-.06-.5c-.17.01-.33.03-.5.04Z"/>
      <path class="cls-7" d="m348.05,405.32l.04-1.08.16-4.79.04-1.13.11-3.4.04-1.25.18-5.47c.41.06,3.89.07,7.58.05.28,0,.56,0,.84,0v-.27s1.03-.26,1.02.01v.25c3.82-.02,7.37-.06,7.37-.06l.11,1.86.07,1.08.39,6.42.06,1.05.43,7.02.06,1.04.22,3.68c.17,0,.34,0,.5-.01l-1.37-22.65h-.48c-6.37.07-16.08.13-16.72.03l-.56-.09-.77,23.17c.17,0,.33,0,.5-.01l.18-5.44Z"/>
      <path class="cls-7" d="m364.95,388.68l.1,1.58.49-.23-.11-1.86s-3.54.04-7.38.06l-.02.5c2.94-.02,5.72-.04,6.93-.05Z"/>
      <path class="cls-7" d="m366.26,410.34c.17,0,.33,0,.5-.01l-.22-3.68-.49.17.21,3.52Z"/>
      <path class="cls-7" d="m349.1,388.73c1.12.03,3.64.04,6.37.03l.72-.5c-3.69.02-7.17.02-7.58-.05l-.18,5.47.51-.36.15-4.58Z"/>
      <polygon class="cls-7" points="348.91 394.56 348.39 394.92 348.28 398.32 348.79 398.07 348.91 394.56"/>
      <polygon class="cls-7" points="365.5 397.72 365.99 397.54 365.6 391.11 365.11 391.35 365.5 397.72"/>
      <polygon class="cls-7" points="365.99 405.77 366.48 405.6 366.05 398.59 365.56 398.77 365.99 405.77"/>
      <polygon class="cls-7" points="348.75 399.2 348.24 399.45 348.09 404.24 348.59 404.05 348.75 399.2"/>
      <path class="cls-7" d="m348.56,405.13l-.51.19-.18,5.44c.17,0,.33,0,.5-.01l.19-5.62Z"/>
      <path class="cls-7" d="m357.01,388.74l.02-.5c-.28,0-.56,0-.84,0l-.72.5c.51,0,1.02,0,1.54,0Z"/>
      <polygon class="cls-7" points="348.59 404.05 348.09 404.24 348.05 405.32 348.56 405.13 348.59 404.05"/>
      <polygon class="cls-7" points="365.56 398.77 366.05 398.59 365.99 397.54 365.5 397.72 365.56 398.77"/>
      <polygon class="cls-7" points="348.79 398.07 348.28 398.32 348.24 399.45 348.75 399.2 348.79 398.07"/>
      <polygon class="cls-7" points="366.05 406.82 366.54 406.64 366.48 405.6 365.99 405.77 366.05 406.82"/>
      <polygon class="cls-7" points="365.11 391.35 365.6 391.11 365.53 390.03 365.05 390.27 365.11 391.35"/>
      <polygon class="cls-7" points="348.95 393.3 348.44 393.66 348.39 394.92 348.91 394.56 348.95 393.3"/>
      <path class="cls-7" d="m356.74,394.26l1.03-.49.25-5.02c-.26,0-.52,0-.78,0l-.24.16-.27,5.35Z"/>
      <path class="cls-7" d="m355.93,410.57c.33,0,.67-.02,1.01-.02l.03-.56-1.02.36v.22Z"/>
      <polygon class="cls-7" points="357.71 394.9 356.68 395.4 356.4 401.13 357.42 400.74 357.71 394.9"/>
      <polygon class="cls-7" points="357.37 401.84 356.35 402.22 356 409.27 357.02 408.91 357.37 401.84"/>
      <polygon class="cls-7" points="357.42 400.74 356.4 401.13 356.35 402.22 357.37 401.84 357.42 400.74"/>
      <polygon class="cls-7" points="356.97 409.99 357.02 408.91 356 409.27 355.94 410.35 356.97 409.99"/>
      <polygon class="cls-7" points="357.77 393.76 356.74 394.26 356.68 395.4 357.71 394.9 357.77 393.76"/>
      <path class="cls-7" d="m357.24,388.74c-.08,0-.15,0-.23,0v.16s.23-.16.23-.16Z"/>
      <path class="cls-7" d="m358.04,388.24v-.25c.03-.27-.99-.01-.99-.01v.27c.3,0,.61,0,.91,0,.03,0,.05,0,.08,0Z"/>
      <path class="cls-7" d="m357.24,388.74c.26,0,.52,0,.78,0l.02-.5s-.05,0-.08,0l-.73.51Z"/>
      <path class="cls-7" d="m357.24,388.74l.73-.51c-.31,0-.62,0-.93,0l-.02.5c.08,0,.15,0,.23,0Z"/>
      <path class="cls-7" d="m429.05,409.61l3.28,10.14-12.44.07v.5s13.13-.07,13.13-.07l-3.61-11.15h-.37c-.18,0-4.1.08-10.22.19v.5c6.28-.12,10.23-.19,10.23-.19Z"/>
      <path class="cls-7" d="m378.58,410.08l19.94-.39s0,0,0,0c-6.39.12-13.23.26-19.94.4Z"/>
      <path class="cls-7" d="m336.46,420.26l.73-8.6s.33-.05.84-.08c1.47-.08,4.79-.19,9.32-.31l.02-.5c-4.56.12-7.9.23-9.37.31-.87.05-.93.08-1.03.13l-.26.12-.8,9.43,14.65-.08-.02-.5-14.09.07Z"/>
      <path class="cls-7" d="m399.53,409.67l17.98-.35h0c-4.97.09-11.2.21-17.99.34,0,0,0,0,0,0Z"/>
      <path class="cls-7" d="m376.69,410.62l-.04-.5c-3.19.07-6.34.13-9.38.2l.03.5c3.05-.07,6.2-.13,9.39-.2Z"/>
      <polygon class="cls-7" points="412.62 420.36 412.56 419.86 359.26 420.14 359.26 420.64 412.62 420.36"/>
      <polygon class="cls-7" points="358.26 420.14 351.55 420.18 351.57 420.68 358.26 420.65 358.26 420.14"/>
      <polygon class="cls-7" points="351.04 420.18 350.54 420.19 350.57 420.69 351.07 420.68 351.04 420.18"/>
      <polygon class="cls-7" points="359.26 420.14 358.76 420.14 358.76 420.64 359.26 420.64 359.26 420.14"/>
      <polygon class="cls-7" points="358.76 420.14 358.26 420.14 358.26 420.65 358.76 420.64 358.76 420.14"/>
      <polygon class="cls-7" points="351.55 420.18 351.04 420.18 351.07 420.68 351.57 420.68 351.55 420.18"/>
      <polygon class="cls-7" points="413.63 420.35 418.9 420.33 418.88 419.82 413.57 419.85 413.63 420.35"/>
      <polygon class="cls-7" points="419.39 419.82 419.4 420.32 419.9 420.32 419.89 419.82 419.39 419.82"/>
      <polygon class="cls-7" points="413.12 420.36 413.06 419.85 412.56 419.86 412.62 420.36 413.12 420.36"/>
      <polygon class="cls-7" points="413.12 420.36 413.63 420.35 413.57 419.85 413.06 419.85 413.12 420.36"/>
      <polygon class="cls-7" points="418.9 420.33 419.4 420.32 419.39 419.82 418.88 419.82 418.9 420.33"/>
      <path class="cls-7" d="m398.54,410.18c0-.16-.02-.33-.02-.49l-19.94.39c-.65.01-1.29.03-1.93.04l.04.5c7.32-.15,14.85-.3,21.85-.44Z"/>
      <path class="cls-7" d="m417.52,409.32l-17.98.35c0,.17.02.33.02.49,7.38-.14,14.11-.27,19.27-.36v-.5c-.43,0-.87.02-1.31.02h0Z"/>
      <path class="cls-7" d="m399.53,409.66c-.34,0-.68.01-1.02.02,0,0,0,0,0,0l1.02-.02s0,0,0,0Z"/>
      <path class="cls-7" d="m399.53,409.67l-1.02.02c0,.17.02.33.02.49.34,0,.68-.01,1.02-.02,0-.16-.01-.32-.02-.49Z"/>
      <path class="cls-7" d="m352,410.66c-1.27.03-2.49.06-3.63.09l-.02.5c.67-.02,1.38-.04,2.1-.05l1.54-.54Z"/>
      <path class="cls-7" d="m355.93,410.57c-.23,0-.44.01-.67.02l-1.54.54c.71-.02,1.44-.03,2.18-.05l.02-.5Z"/>
      <path class="cls-7" d="m356.91,411.05c2.94-.07,6.09-.14,9.38-.21l-.03-.5c-3.27.07-6.4.14-9.32.21l-.02.5Z"/>
      <path class="cls-7" d="m352,410.66l-1.54.54c1.05-.03,2.14-.05,3.27-.08l1.54-.54c-1.13.03-2.22.05-3.27.08Z"/>
      <path class="cls-7" d="m366.79,410.83c.17,0,.33,0,.5-.01l-.03-.5c-.17,0-.34,0-.5.01l.03.5Z"/>
      <path class="cls-7" d="m347.85,411.27l.02-.5c-.17,0-.34,0-.5.01l-.02.5c.16,0,.33,0,.5-.01Z"/>
      <path class="cls-7" d="m366.29,410.84c.17,0,.33,0,.5-.01l-.03-.5c-.17,0-.33,0-.5.01l.03.5Z"/>
      <path class="cls-7" d="m348.37,410.75c-.17,0-.33,0-.5.01l-.02.5c.17,0,.33,0,.5-.01l.02-.5Z"/>
      <path class="cls-7" d="m355.91,411.07c.33,0,.67-.02,1.01-.02l.02-.5c-.34,0-.68.02-1.01.02l-.02.5Z"/>
      <path class="cls-7" d="m337,419.76l.65-7.64c.1,0,.23-.02.4-.02,1.46-.08,4.76-.19,9.28-.31l.02-.5c-4.53.12-7.85.23-9.32.31-.51.03-.79.05-.84.08l-.73,8.6,14.09-.07-.02-.5-13.52.07Z"/>
      <path class="cls-7" d="m418.83,410.3h-.37c5.34-.09,9.07-.16,10.23-.18l2.96,9.13-11.77.06v.5s12.46-.07,12.46-.07l-3.28-10.14s-3.96.07-10.22.19v.5s0,0,0,0Z"/>
      <path class="cls-7" d="m377.83,411.1l-1.11.02-.04-.47v-.03c-3.2.07-6.35.13-9.39.2l.03.5c3.4-.07,6.93-.15,10.51-.22Z"/>
      <polygon class="cls-7" points="412.56 419.86 412.5 419.36 359.26 419.64 359.26 420.14 412.56 419.86"/>
      <polygon class="cls-7" points="358.26 419.64 351.52 419.68 351.55 420.18 358.26 420.14 358.26 419.64"/>
      <polygon class="cls-7" points="350.52 419.68 350.54 420.19 351.04 420.18 351.02 419.68 350.52 419.68"/>
      <polygon class="cls-7" points="359.26 420.14 359.26 419.64 358.76 419.64 358.76 420.14 359.26 420.14"/>
      <polygon class="cls-7" points="351.52 419.68 351.02 419.68 351.04 420.18 351.55 420.18 351.52 419.68"/>
      <polygon class="cls-7" points="358.76 419.64 358.26 419.64 358.26 420.14 358.76 420.14 358.76 419.64"/>
      <polygon class="cls-7" points="413.57 419.85 418.88 419.82 418.87 419.32 413.51 419.35 413.57 419.85"/>
      <polygon class="cls-7" points="419.37 419.32 419.39 419.82 419.89 419.82 419.87 419.32 419.37 419.32"/>
      <polygon class="cls-7" points="413.06 419.85 413.01 419.35 412.5 419.36 412.56 419.86 413.06 419.85"/>
      <polygon class="cls-7" points="418.87 419.32 418.88 419.82 419.39 419.82 419.37 419.32 418.87 419.32"/>
      <polygon class="cls-7" points="413.57 419.85 413.51 419.35 413.01 419.35 413.06 419.85 413.57 419.85"/>
      <path class="cls-7" d="m418.46,410.31h.37s0,0,0,0v-.5c-5.17.1-11.9.22-19.28.36,0,.17.02.34.02.5,7.2-.14,13.78-.26,18.89-.36Z"/>
      <path class="cls-7" d="m376.73,411.12l1.11-.02c6.96-.14,14.09-.28,20.73-.41,0-.16-.02-.33-.02-.5-7,.14-14.53.28-21.85.44v.03s.04.47.04.47Z"/>
      <path class="cls-7" d="m399.58,410.66c0-.16-.02-.33-.02-.5-.34,0-.68.01-1.02.02,0,.17.02.34.02.5.34,0,.68-.01,1.02-.02Z"/>
      <path class="cls-7" d="m355.88,411.57l.02-.5c-.74.02-1.47.03-2.18.05l-1.37.48,1.08.03c.79-.02,1.61-.04,2.45-.06Z"/>
      <path class="cls-7" d="m356.89,411.55c2.95-.07,6.13-.14,9.43-.21l-.03-.5c-3.29.07-6.44.14-9.38.21l-.02.5Z"/>
      <path class="cls-7" d="m348.35,411.26v.23s1.2.04,1.2.04l.9-.31c-.72.02-1.43.04-2.1.05Z"/>
      <path class="cls-7" d="m353.73,411.12c-1.13.03-2.23.05-3.27.08l-.9.31,2.8.08,1.37-.48Z"/>
      <path class="cls-7" d="m347.84,411.77l.02-.5c-.17,0-.34,0-.5.01l-.02.5c.17,0,.33,0,.5-.01Z"/>
      <path class="cls-7" d="m367.33,411.32l-.03-.5c-.17,0-.34,0-.5.01l.03.5c.17,0,.33,0,.5-.01Z"/>
      <path class="cls-7" d="m348.9,411.74l.65-.23-1.21-.04v-.23c-.16,0-.33,0-.49.01l-.02.5c.35,0,.71-.02,1.07-.03Z"/>
      <path class="cls-7" d="m352.36,411.6l-.18.06c.41-.01.83-.02,1.25-.03l-1.08-.03Z"/>
      <path class="cls-7" d="m366.32,411.34c.17,0,.33,0,.5-.01l-.03-.5c-.17,0-.33,0-.5.01l.03.5Z"/>
      <path class="cls-7" d="m352.36,411.6l-2.8-.08-.65.23c1.04-.03,2.13-.05,3.28-.08l.18-.06Z"/>
      <path class="cls-7" d="m355.88,411.57c.33,0,.67-.02,1.01-.02l.02-.5c-.34,0-.67.02-1.01.02l-.02.5Z"/>
      <g>
        <path class="cls-8" d="m404.41,365.19c2.15-1.73,4.13-3.44,5.91-5.15,1.77-1.71,3.38-3.43,4.59-5.21.59-.88,1.1-1.81,1.27-2.68.08-.43.07-.83-.05-1.14-.07-.15-.15-.3-.27-.43-.05-.07-.12-.12-.19-.16-.07-.04-.12-.11-.2-.14-.59-.29-1.48-.19-2.28.08-.81.27-1.6.64-2.32,1.08-1.46.85-2.73,1.86-3.87,2.84-1.14.99-2.14,1.99-3.02,2.95-1.78,1.92-3.1,3.73-4.09,5.31-1.97,3.19-2.57,5.52-2.64,6.88-.05.35-.03.63-.03.88-.02.25,0,.44,0,.59,0,.31-.07.48-.19.53-.08.03-.18-.03-.33-.28-.07-.12-.17-.29-.24-.52-.06-.23-.14-.51-.19-.86-.17-1.39.12-3.88,2-7.19.93-1.65,2.2-3.53,3.96-5.56,1.78-2.01,3.97-4.26,7.04-6.3.76-.51,1.61-.98,2.53-1.39.93-.39,1.97-.77,3.24-.65.63.02,1.32.38,1.82.86.48.49.79,1.23.81,1.92.03.69-.13,1.33-.35,1.91-.22.58-.5,1.13-.82,1.65-1.28,2.07-2.99,3.9-4.86,5.75-1.89,1.84-3.98,3.65-6.25,5.49,0,0-1.92,1.55-3.95,2.94-2.04,1.38-4.13,2.67-4.44,2.23.09,0,.05-.08.1-.15.04-.07.11-.16.2-.26.18-.2.46-.46.8-.76.68-.6,1.62-1.35,2.56-2.09,1.88-1.49,3.76-2.97,3.76-2.97Z"/>
        <path class="cls-8" d="m392.35,363.88c-2.65-3.56-5.94-5.96-9.09-7.65-.79-.41-1.57-.76-2.33-.98-.74-.22-1.56-.3-1.9-.07-.15.1-.23.21-.26.46-.03.24.02.55.11.85.19.61.55,1.2.95,1.72.39.51.9,1.01,1.35,1.49.47.47.92.93,1.37,1.35.9.86,1.78,1.61,2.61,2.29,1.67,1.35,3.18,2.39,4.49,3.2,2.63,1.63,4.45,2.37,5.54,2.88,1.09.49,1.48.74,1.41,1.01-.04.17-.4.22-1.48-.01-1.08-.24-2.88-.84-5.58-2.34-2.66-1.53-6.26-3.96-10.3-8.33-.52-.58-1.02-1.24-1.41-2.02-.19-.39-.36-.82-.45-1.31-.09-.48-.12-1.06.16-1.66.27-.63.96-1.02,1.52-1.11.57-.11,1.09-.05,1.58.04.99.19,1.88.57,2.77.99,1.77.87,3.47,1.97,5.22,3.31,1.72,1.35,3.37,3,4.84,4.95,0,0,.33.4.74,1.05.44.64.95,1.53,1.41,2.46.92,1.85,1.39,3.88,1.02,3.96-.39.08-1.17-1.68-2.16-3.34-.5-.82-1-1.64-1.42-2.23-.4-.6-.69-.98-.69-.98Z"/>
        <path class="cls-8" d="m413.29,372.79c-.67.92-1.54,1.53-2.4,1.98-.86.46-1.76.66-2.6.83-1.7.26-3.22.07-4.51-.26-2.58-.68-4.22-1.98-5.22-3.01-1.01-1.06-1.44-1.9-1.63-2.44-.18-.55-.08-.82.16-.91.17-.07.33,0,.63.35.3.34.74.96,1.61,1.84.87.85,2.23,2,4.51,2.68,1.13.34,2.48.54,3.98.35.38-.02.75-.15,1.14-.22.37-.13.77-.24,1.14-.43.74-.35,1.48-.86,1.99-1.56,0,0,.1-.15.26-.37.12-.24.31-.55.41-.89.25-.67.22-1.47.57-1.57.39-.12.84.8.7,1.83-.04.51-.26.97-.41,1.31-.2.31-.34.51-.34.51Z"/>
        <path class="cls-8" d="m381.91,376.91c1.71.56,3.51.41,4.98.05,1.5-.37,2.71-.96,3.74-1.64,2.06-1.33,3.22-2.74,3.93-3.82.71-1.09.99-1.87,1.23-2.32.22-.46.4-.62.66-.6.17.02.31.18.3.71-.01.52-.18,1.4-.86,2.66-.68,1.24-1.93,2.86-4.18,4.38-1.1.74-2.5,1.54-4.23,1.97-.86.24-1.79.38-2.8.42-1,.03-2.09-.05-3.21-.43,0,0-.24-.07-.58-.24-.17-.09-.37-.2-.57-.33-.19-.16-.4-.31-.59-.5-.17-.21-.35-.4-.46-.63-.1-.23-.21-.44-.24-.63-.05-.4,0-.66.17-.69.21-.05.43.11.63.32.11.1.25.2.36.33.12.12.28.21.41.33.58.42,1.32.67,1.32.67Z"/>
        <path class="cls-8" d="m399.91,370.44c-.13,1.53-1.48,2.66-3,2.53-1.53-.13-2.66-1.48-2.53-3,.13-1.53,1.48-2.66,3-2.53,1.53.13,2.66,1.48,2.53,3Z"/>
      </g>
      <g>
        <path class="cls-7" d="m361.87,385.31c2.33-1.64,4.39-3.23,5.79-4.99.33-.44.62-.9.74-1.35.12-.46.01-.82-.32-1.07-.64-.52-1.63-.21-2.38.17-1.54.82-2.67,1.95-3.59,2.94-.92,1-1.6,1.94-2.14,2.76-1.06,1.64-1.51,2.81-1.73,3.52-.22.71-.27.98-.42.98-.07,0-.17-.22-.08-.93.1-.7.43-1.88,1.43-3.56.5-.83,1.16-1.8,2.07-2.85.92-1.04,2.04-2.23,3.68-3.24.41-.25.87-.47,1.39-.62.51-.15,1.12-.23,1.74,0,.3.14.57.31.79.59.22.27.34.65.33,1-.03.71-.36,1.27-.71,1.79-.73,1.03-1.67,1.92-2.71,2.81-1.04.88-2.19,1.75-3.43,2.61,0,0-1.05.73-2.15,1.38-1.11.64-2.22,1.25-2.36,1.01,0-.12.97-.85,2.01-1.55,1.03-.7,2.05-1.4,2.05-1.4Z"/>
        <path class="cls-7" d="m357.32,384.81c-.19-.93-.59-1.75-1.11-2.43-.55-.66-1.17-1.19-1.84-1.59-.63-.4-1.34-.64-1.78-.33-.47.26-.64.91-.67,1.47-.04,1.16.41,2.18.93,2.89.55.72,1.14,1.32,1.63,1.74,1.01.85,1.85,1.05,2.34,1.23.5.16.68.26.66.39-.01.08-.16.14-.65.09-.47-.07-1.37-.17-2.53-1-.57-.41-1.15-.99-1.79-1.73-.64-.78-1.24-1.86-1.32-3.26-.02-.68.05-1.51.71-2.19.32-.32.83-.53,1.3-.47.25-.01.45.09.68.13.21.08.41.19.62.28.73.46,1.51.99,2.14,1.77.63.76,1.13,1.73,1.36,2.82,0,0,.19.93.09,1.85-.08.92-.43,1.79-.6,1.72-.18-.08-.03-.91-.04-1.75,0-.42-.03-.83-.06-1.14-.05-.31-.08-.51-.08-.51Z"/>
        <path class="cls-7" d="m364.16,391.61c-.88.59-1.83.6-2.59.48-.78-.14-1.41-.45-1.92-.78-1.02-.68-1.54-1.49-1.82-2.08-.53-1.24-.34-1.68-.12-1.68.2-.02.2.24.67,1.27.25.49.67,1.19,1.55,1.82.44.31.99.6,1.66.74.66.14,1.49.12,2.15-.32,0,0,.28-.18.47-.44.21-.25.32-.59.5-.58.2,0,.27.48.05.9-.09.22-.26.38-.38.51-.14.1-.23.17-.23.17Z"/>
        <path class="cls-7" d="m350.92,391.36c.77.26,1.59.18,2.26.02.68-.17,1.23-.44,1.7-.75.94-.61,1.47-1.25,1.79-1.74.62-1.01.6-1.35.88-1.32.08,0,.15.08.15.33,0,.24-.08.64-.39,1.22-.31.57-.88,1.31-1.91,2.01-.5.34-1.15.71-1.94.9-.78.2-1.72.32-2.76,0,0,0-.11-.03-.27-.11-.16-.08-.36-.21-.53-.38-.37-.36-.4-.89-.23-.91.21-.04.38.26.65.43.26.19.6.3.6.3Z"/>
        <path class="cls-7" d="m358.75,387.92c-.06.7-.67,1.22-1.37,1.16-.7-.06-1.22-.67-1.16-1.37.06-.7.67-1.22,1.37-1.16.7.06,1.22.67,1.16,1.37Z"/>
      </g>
    </g>
  </g>
  <g>
    <path class="cls-7" d="m244.7,44.64c5.69,1.26,6.94,11.87,2.99,14.69-1.21.91-3.28.8-3.62-.35,2.36-2.36,1.35-13.33-.96-13.18-1.69.05-5.54,2.52-5.54,8.1,0,16.5,14.8,9.01,11.62,20.98-1.01,3.92-7.38,6.74-12.49,5.28-5.64-1.61-7.57-6.59-5.06-10.31.92-1.36,3.76-2.67,4.34-.6-2.17,1.86-2.07,5.28,1.93,6.44,3.38,1.01,10.03-.05,10.03-3.27.34-5.48-15.47-1.81-14.94-18.11.24-8.35,6.17-9.76,9.54-9.81,1.11-.05,1.93.1,2.17.15Z"/>
    <path class="cls-7" d="m265.67,65.42c-.63,1.31-4.1.3-3.47-.75.63-1.06,1.3-4.03.1-3.62-3.52,1.06-4.82,18.41-.24,17.46,3.57-.7,6.46-7.19,7.13-9.46.1-.25.29-.4.67-.4.48,0,.63.25.53.5-1.4,3.97-3.33,8.3-7.33,10.46-3.18,1.71-7.09.86-8.1-4.08-1.49-6.99.82-13.88,4.58-15.24.39-.15,1.59-.45,2.89-.4,3.13.1,4.48,2.82,3.23,5.53Z"/>
    <path class="cls-7" d="m286.83,61.25c-.39,3.62-2.17,17.36.29,17.05,2.46-.35,5.01-8.25,5.59-9.41.1-.25.48-.55.87-.3.34.3.1.96.1.96,0,0-3.08,10.36-7.62,10.82-2.41.25-3.66-1.71-4.19-4.43-.53.91-1.16,1.76-1.88,2.57-2.75,2.92-5.21,1.91-6.41.6-4.87-5.48-1.21-17.61,3.47-18.87,2.07-.55,4.1-.15,5.64.8.05-.3.14-.5.19-.6.19-.35.87-.55,1.54-.55,1.16-.05,2.51.45,2.41,1.36Zm-7.38,1.46c-4.19,2.87-5.11,16.75-1.21,15.29,1.45-.55,2.55-2.36,3.28-4.38-.24-3.82.29-8.2.77-10.82-.48-.3-1.01-.5-1.54-.55-.43,0-.87.15-1.3.45Z"/>
    <path class="cls-7" d="m299.75,61.65c-.24,2.41-.29,7.29-.34,11.82,2.12-9.36,4.58-13.43,8.97-13.43,1.73,0,2.65,1.86,2.6,3.47-.14,4.12-.96,14.29.24,14.64,2.46.8,5.06-8.2,5.59-9.36.1-.2.48-.5.87-.25.34.25.1.91.1.91,0,0-3.33,12.53-8.53,10.92-4.77-1.46-2.7-14.69-2.7-17.25,0-.71-.29-1.31-1.01-.81-3.52,2.47-5.83,14.89-6.17,17.51h-.05c-.29.96-4.1.86-4.24-1.56-.53-8.8.1-16.85.67-17.86.19-.3.53-.4.96-.4,1.21-.1,3.04.8,3.04,1.66Z"/>
    <path class="cls-7" d="m370.42,44.49c2.94.35,3.23,2.42,3.13,4.23-.14,4.12-3.9,28.58-.63,29.53,1.54.4,4.68-2.42,6.94-9.36.1-.2.53-.5.92-.25.38.25.19.6.1.91-1.45,5.13-5.74,12.68-11.04,10.87-5.54-1.86-1.21-25.2-.96-30.59.05-1.86-.63-2.11-.72-2.11-4.24-.45-11.81,27.37-11.38,30.13.05.15.05.25,0,.3,0,.1-.05.2-.14.3,0,0-.05,0-.1.05-.82.55-3.86.55-4.15-1.26-.53-3.42,1.64-28.58.39-28.58-2.6-.05-7.95,13.63-9.93,25.3-.05,2.11-.19,5.63-.19,6.09-.05,1.06-3.95.45-4.1-1.71-.29-4.38,1.06-26.61-.48-26.46-3.47.35-3.42,6.09-2.75,10.41.14.75-3.71.71-3.71-1.86,0-11.12,10.75-12.53,11.52-7.65.19,1.16.14,6.44,0,12.02,2.8-12.33,7.47-19.07,11.57-18.46,1.25.2,1.88.91,2.6,1.71.96,1.16.53,9.71.05,17.46,4.29-17.46,10.07-20.83,12.53-21.03h.53Z"/>
    <path class="cls-7" d="m393.46,61.7c1.69,2.26-1.69,8.3-6.84,7.29-1.16,4.33-.58,9.11,2.07,9.11,2.89,0,6.22-5.79,7.42-9.41.05-.2.19-.35.53-.35.53,0,.67.25.63.5-1.4,4.73-4.63,9.06-7.28,10.72-3.04,1.96-7.23.91-8.15-4.02-1.25-7.14,3.04-14.24,6.89-15.29.34-.1.87-.2,1.49-.25,1.01,0,2.22.3,3.23,1.71Zm-6.46,5.99c4.58.6,7.18-5.69,5.5-5.63-2.6.3-4.43,2.77-5.5,5.63Z"/>
  </g>
  <g>
    <path class="cls-9" d="m165.2,70.32c-.56-.56-1.21-1-1.94-1.32-.08-1.45-.62-3.56-2.74-5.45-1.72-1.54-3.8-2.19-5.87-1.84-.61.1-1.17.28-1.69.51-2.09-1.9-4.59-2.2-6.08-1.94,0,0-.07.01-.11.02-.85.18-1.58.44-2.22.73-22.22-17.57-38.37-15.11-39.14-14.98-.1.02-.21.04-.31.07-14.49,3.77-24.26,13.47-28.27,28.06-1.49,5.42-1.9,10.54-1.94,14.32-1.5,1.34-2.56,2.86-3.14,4.55-.99,2.86-.43,5.57.08,7.37.3,1.04.67,2.08,1.11,3.1.64,1.47,1.44,2.91,2.37,4.27.4.59.84,1.08,1.3,1.5-.36,2.87-.77,6.6-1.01,10.53-1.01,16.2,1.65,20.84,3.74,22.92,1.1,1.09,2.42,1.77,3.86,2.01.09,4.25,1.63,9.08,6.56,12.08,4.8,2.91,8.99,2.99,11.66,2.54.55-.09,1.05-.21,1.52-.34,2.71,3.02,8,7.15,15.93,5.81,1.18-.2,2.38-.52,3.57-.95,7.98-2.9,12.32-7.8,14.17-11.96.75.06,1.56.04,2.39-.1,2.27-.38,5.37-1.79,7.29-6.3,1.45-3.41,1.81-6.38,1.69-8.73,1.84-.81,4.18-2.8,4.61-7.75.39-4.53-1.06-8.49-2.56-11.26.13-.17.25-.35.36-.54,1.52-2.53,1.43-6.07-.26-11.12-1.7-5.06-4.53-9.14-7.19-12.14.09-.2.17-.39.23-.58.78-2.2.68-4.51.2-6.6.08-.01.15-.01.23-.03.62-.11,1.24-.28,1.82-.48,1.37,1.64,3.3,2.71,5.17,3.13.29.06.58.1.88.1.69,0,1.35-.06,1.97-.16,2.99-.51,4.63-2.1,5.48-3.34.38-.56.66-1.13.87-1.69h.04c5-.85,6.81-5.35,7-5.86.09-.24.15-.48.19-.73.65-3.95-.63-6.2-1.82-7.39Z"/>
    <g>
      <path class="cls-5" d="m162.81,69.92c-.55-.54-1.18-.98-1.89-1.29-.08-1.41-.61-3.47-2.68-5.33-1.68-1.5-3.71-2.14-5.74-1.8-.59.1-1.14.28-1.65.5-2.04-1.86-4.48-2.15-5.94-1.9,0,0-.07.01-.11.02-.83.18-1.55.43-2.17.72-21.7-17.17-37.48-14.76-38.23-14.64-.1.02-.2.04-.3.07-14.15,3.68-23.7,13.16-27.61,27.41-1.45,5.29-1.86,10.29-1.9,13.99-1.46,1.31-2.5,2.79-3.07,4.44-.97,2.79-.42,5.45.08,7.2.29,1.02.65,2.03,1.09,3.03.63,1.44,1.41,2.84,2.31,4.18.39.57.82,1.05,1.27,1.46-.35,2.8-.75,6.45-.99,10.28-.99,15.82,1.61,20.35,3.65,22.39,1.07,1.07,2.36,1.73,3.77,1.96.09,4.16,1.59,8.87,6.41,11.8,4.69,2.85,8.78,2.92,11.39,2.48.53-.09,1.03-.21,1.48-.33,2.65,2.95,7.82,6.99,15.56,5.68,1.15-.19,2.32-.51,3.49-.93,7.8-2.84,12.04-7.62,13.84-11.69.73.06,1.52.04,2.34-.1,2.21-.37,5.25-1.75,7.12-6.15,1.42-3.34,1.76-6.23,1.65-8.53,1.8-.79,4.08-2.74,4.5-7.57.38-4.42-1.04-8.29-2.5-11,.12-.17.24-.34.35-.53,1.48-2.47,1.4-5.92-.26-10.86-1.66-4.95-4.42-8.93-7.02-11.86.08-.19.16-.38.23-.57.77-2.15.66-4.41.2-6.45.08-.01.15-.01.22-.03.61-.1,1.21-.27,1.78-.47,1.34,1.6,3.22,2.64,5.05,3.06.28.06.57.09.86.09.67,0,1.32-.06,1.92-.16,2.92-.5,4.52-2.05,5.35-3.26.37-.54.65-1.1.85-1.65h.04c4.89-.83,6.65-5.23,6.84-5.72.09-.23.15-.47.19-.71.64-3.86-.62-6.06-1.78-7.22Z"/>
      <path class="cls-9" d="m117.63,162.64c-7.92,1.34-13.22-2.85-15.77-5.62-.42.11-.85.2-1.28.28-2.68.45-6.88.38-11.67-2.53-5.16-3.14-6.46-8.09-6.6-11.81-1.37-.29-2.62-.98-3.66-2.01-2.1-2.09-4.77-6.72-3.77-22.71.2-3.17.52-6.56.96-10.1-.44-.42-.83-.88-1.18-1.39-.92-1.35-1.71-2.78-2.35-4.24-.44-1.01-.81-2.04-1.11-3.08-.51-1.8-1.08-4.54-.07-7.45.57-1.65,1.6-3.16,3.05-4.49.06-4.79.72-9.6,1.91-13.92,3.95-14.4,13.6-23.98,27.91-27.7.11-.03.22-.05.34-.07.67-.11,16.59-2.57,38.36,14.56.63-.27,1.31-.49,2.03-.64l.12-.02c1.62-.27,4.04.07,6.09,1.82.49-.2.99-.34,1.5-.43,2.15-.36,4.31.31,6.08,1.9,2.06,1.84,2.67,3.89,2.79,5.36.67.33,1.27.75,1.79,1.27h0c1.23,1.23,2.56,3.54,1.9,7.58-.04.27-.11.53-.21.79-.19.51-1.99,5-6.96,5.95-.22.54-.49,1.05-.81,1.52-.87,1.28-2.56,2.92-5.63,3.44-.63.11-1.29.16-1.99.16-.32,0-.64-.03-.95-.1-1.95-.44-3.79-1.52-5.09-2.98-.47.15-.93.27-1.38.36.46,2.29.36,4.39-.31,6.24-.04.11-.09.23-.13.35,3.2,3.65,5.53,7.62,6.93,11.81,1.7,5.06,1.77,8.63.22,11.21-.07.12-.14.23-.22.34,1.35,2.57,2.82,6.5,2.43,11-.42,4.79-2.61,6.88-4.49,7.8.08,2.75-.49,5.58-1.7,8.43-1.95,4.58-5.12,6-7.43,6.4-.7.12-1.42.16-2.15.12-2.34,5.03-7.41,9.26-13.96,11.64-1.19.43-2.39.75-3.56.95Zm-15.7-6.49c.14-.02.28.03.38.13,2.89,3.21,7.86,6.78,15.18,5.54,1.12-.19,2.27-.5,3.42-.91,9.16-3.33,12.56-9.13,13.6-11.47.07-.16.24-.26.41-.25.76.06,1.51.03,2.23-.09,2.11-.36,5.01-1.67,6.81-5.9,1.2-2.83,1.75-5.64,1.62-8.35,0-.17.09-.33.25-.4,1.72-.75,3.85-2.62,4.25-7.23.38-4.44-1.12-8.3-2.45-10.77-.08-.14-.06-.32.03-.45.12-.16.23-.32.33-.49,1.41-2.36,1.32-5.7-.29-10.52-1.39-4.16-3.73-8.1-6.94-11.72-.11-.12-.13-.29-.07-.44.08-.18.15-.37.22-.54.65-1.82.71-3.92.18-6.22-.03-.11,0-.23.06-.33.07-.1.17-.16.28-.18.04,0,.08,0,.12-.01.03,0,.06,0,.09-.01.54-.09,1.12-.24,1.71-.45.17-.06.35,0,.46.13,1.2,1.43,2.96,2.5,4.83,2.92.25.06.51.08.77.08.65,0,1.27-.05,1.85-.15,2.78-.47,4.3-1.94,5.08-3.09.33-.48.6-1.01.8-1.56.05-.14.17-.24.32-.26,4.7-.8,6.38-4.98,6.56-5.46.08-.21.13-.42.17-.63.61-3.69-.57-5.76-1.66-6.86h0c-.51-.5-1.1-.91-1.77-1.2-.14-.06-.24-.2-.25-.36-.07-1.33-.57-3.28-2.54-5.04-2.02-1.81-4.61-2.26-6.94-1.23-.15.07-.33.04-.45-.07-1.87-1.71-4.18-2.04-5.59-1.8l-.09.02c-.75.16-1.45.39-2.08.69-.14.07-.31.05-.43-.05-21.59-17.08-37.25-14.66-37.9-14.55-.09.02-.18.03-.27.06-14,3.64-23.45,13.02-27.32,27.11-1.49,5.43-1.85,10.55-1.88,13.89,0,.12-.05.23-.14.31-1.42,1.27-2.41,2.7-2.96,4.27-.93,2.68-.4,5.25.09,6.95.29,1,.64,2,1.07,2.98.62,1.41,1.38,2.8,2.28,4.11.35.52.75.98,1.21,1.39.1.09.15.23.13.36-.45,3.59-.78,7.04-.98,10.26-.98,15.65,1.55,20.09,3.53,22.07.99.99,2.22,1.63,3.54,1.85.2.03.34.2.35.4.07,3.55,1.21,8.42,6.21,11.46,4.58,2.78,8.56,2.85,11.1,2.42.49-.08.97-.19,1.44-.32.01,0,.03,0,.04,0Z"/>
    </g>
    <g>
      <path class="cls-5" d="m80.82,103.28s-7.24,43.71,6.47,34.24c0,0-3.26,9.3,3.83,13.61,7.09,4.31,12.13.73,12.13.73,0,0,5.56,9.81,16.49,5.83,10.93-3.98,12.66-11.69,12.36-12.9,0,0,5.91,3.67,8.72-2.93,2.8-6.59.41-10.84.41-10.84,0,0,4.86,2.7,5.45-4.1.59-6.79-4.27-12.11-4.27-12.11,0,0,5.43,1.34,2.05-8.73-3.38-10.07-12.03-15.75-12.03-15.75l-51.6,12.94Z"/>
      <path class="cls-4" d="m83.99,103.68s-4.91,34.52,34.3,23.86c25.05-6.81,20.91-23.9,14.66-35.35l-48.96,11.49Z"/>
      <path class="cls-8" d="m123.23,124.58c.56,2.07-1.6,4.51-6.19,5.47-4.45.93-7.66,1.12-8.28-1.86-.43-2.1,1.74-4.32,6.1-5.59,4.36-1.27,7.72-.41,8.37,1.98Z"/>
      <path class="cls-5" d="m118.23,105.02c.02-.83.78-1.39,1.45-1.73,1.3-.65,2.8-.96,4.23-1.15,1.89-.25,3.97-.2,5.75.52.63.26,1.24.61,1.69,1.12.53.61,1.09,2.08.21,2.65-.21.14-.47.19-.72.22-.86.08-1.71-.11-2.55-.27-.82-.16-1.6-.19-2.44-.17-1.16.03-2.33.1-3.46.34-.83.18-1.66.58-2.53.48-.77-.09-1.35-.73-1.56-1.45-.06-.2-.08-.39-.08-.56Z"/>
      <path class="cls-5" d="m103.6,107.58c-.31-.77-1.21-1.03-1.96-1.11-1.44-.16-2.96.08-4.36.4-1.86.43-3.79,1.2-5.21,2.5-.5.46-.95,1-1.19,1.64-.29.76-.3,2.33.73,2.56.25.05.51.02.75-.05.83-.22,1.57-.7,2.3-1.14.71-.44,1.43-.74,2.23-1.01,1.1-.38,2.21-.72,3.36-.89.84-.13,1.76-.03,2.54-.44.69-.36,1.01-1.15.95-1.91-.02-.21-.06-.39-.12-.55Z"/>
      <path class="cls-7" d="m127.35,113.36c.18,1.51-.7,2.85-1.62,2.96-.92.11-2.14-.98-2.32-2.49-.18-1.51.74-2.86,1.66-2.97.92-.11,2.09.99,2.28,2.49Z"/>
      <path class="cls-7" d="m103,117.68c.18,1.51-.7,2.85-1.62,2.96-.92.11-2.14-.98-2.32-2.49-.18-1.51.74-2.86,1.66-2.97.92-.11,2.09.99,2.28,2.49Z"/>
      <path class="cls-5" d="m144.9,73.21s-6.34-7.82.71-9.33c0,0,3.02-.56,4.35,3.95,0,0,2.62-4.44,5.72-1.67,3.1,2.77.13,6.02.13,6.02,0,0,6.06-2.11,4.99,4.33,0,0-1.69,4.54-6.67,3.04,0,0,1.09,5.23-4.76,5.26,0,0-4.05-.91-3.92-4.68,0,0-8.23,6.1-7.91-2.4.18-5.02,7.35-4.53,7.35-4.53Z"/>
      <path class="cls-8" d="m78.7,93.33s-4.81-35.23,26.38-43.34c0,0,17.88-3.14,42.3,20.04,0,0,6.36,4.99-6.43,2.6-12.79-2.39-9.13,8.12-9.13,8.12l-53.11,12.58Z"/>
      <path class="cls-5" d="m76.21,100.81c-.36-.83-.67-1.67-.91-2.54-.45-1.59-.7-3.29-.14-4.89.63-1.83,2.16-3.16,3.77-4.14,6.24-3.78,46.09-17.75,56.23-8.15,0,0,7.85,11.16-2.43,14.05-10.29,2.89-6.23.02-24.79,4.27-18.56,4.25-26.57,9.64-29.75,4.96-.76-1.12-1.43-2.31-1.97-3.55Z"/>
      <g>
        <path class="cls-7" d="m125.73,116.32c.92-.11,1.8-1.46,1.62-2.96-.18-1.51-1.35-2.6-2.28-2.49s-1.85,1.46-1.66,2.97c.18,1.51,1.4,2.6,2.32,2.49Z"/>
        <path class="cls-7" d="m100.73,115.19c-.92.11-1.85,1.46-1.66,2.97.18,1.51,1.4,2.6,2.32,2.49.92-.11,1.8-1.46,1.62-2.96-.18-1.51-1.35-2.6-2.28-2.49Z"/>
        <path class="cls-7" d="m160.23,72.19c-1.01-.85-2.45-.82-3.44-.66.38-.66.77-1.62.72-2.69-.06-1.11-.58-2.11-1.54-2.98-.9-.8-1.85-1.13-2.84-.98-1.37.21-2.44,1.31-3.02,2.05-1.53-3.95-4.51-3.46-4.57-3.45-1.4.3-2.41.87-3.01,1.68-21.56-17.99-37.19-15.63-37.55-15.57h0c-16.3,4.24-22.69,15.94-25.18,25-1.58,5.75-1.83,11.19-1.76,14.72-1.67,1.14-2.77,2.46-3.27,3.92-.65,1.88-.23,3.84.14,5.14.25.87.56,1.75.93,2.59.54,1.24,1.22,2.46,2.01,3.62.56.83,1.27,1.35,2.12,1.66-1.11,7.99-3.47,29,2.06,32.51,1.25.79,2.79.69,4.59-.32-.62,2.62-1.55,9.49,4.29,13.05,6.22,3.78,10.89,1.7,12.21.94,1.06,1.6,5.76,7.8,13.89,6.42.91-.15,1.87-.41,2.87-.77,9.58-3.48,12.41-10.01,12.65-12.6.97.45,2.89,1.11,4.83.49,1.66-.53,2.95-1.85,3.84-3.95,2.11-4.96,1.37-8.61.8-10.25.76.22,1.85.36,2.85-.18,1.28-.68,2.03-2.24,2.24-4.63.48-5.49-2.45-9.98-3.77-11.69.55-.05,1.21-.25,1.75-.84,1.27-1.38,1.2-4.24-.22-8.48-1.87-5.56-5.36-9.82-8.13-12.54.61-.61,1.06-1.32,1.35-2.12,1.59-4.47-2.4-10.21-2.57-10.45l-.05-.06c-.96-.91-2.2-1.61-3.65-2.14-.14-1.33-.05-3.06,1.01-4.3,1.38-1.61,4.09-2.05,8.06-1.31.19.04.36.06.54.09-.99.25-2.02.68-2.82,1.4-.91.82-1.39,1.89-1.44,3.19-.09,2.41.49,3.96,1.73,4.61,1.95,1.03,4.92-.61,6.22-1.43.39,3.41,4.17,4.31,4.21,4.32h.09c.49,0,.94-.03,1.37-.1,1.26-.21,2.24-.74,2.91-1.56.94-1.17,1.02-2.62.96-3.45,4.83,1.07,6.56-3.4,6.57-3.45l.02-.08c.34-2.07,0-3.55-.99-4.39Zm-5.97,6.96l-.67-.2.14.68s.4,2.02-.72,3.4c-.72.89-1.92,1.34-3.58,1.36-.41-.11-3.67-1.06-3.55-4.25l.03-.86-.69.51c-1.08.8-4.27,2.69-5.97,1.8-.93-.49-1.36-1.78-1.28-3.85.04-1.06.43-1.94,1.16-2.6,1.95-1.76,5.7-1.53,5.74-1.53l.95.06h0c2.55.09,3.21-.47,3.44-.99.54-1.2-1.27-2.7-1.61-2.97-1.52-1.44-3.02-2.79-4.49-4.03.47-.67,1.32-1.15,2.53-1.41h0c.07-.01,2.68-.41,3.88,3.66l.27.91.49-.82s1.24-2.06,2.89-2.34h.04c.73-.12,1.45.14,2.16.77.8.71,1.22,1.52,1.27,2.4.09,1.63-1.15,3.02-1.16,3.03l-1.09,1.21,1.54-.53s2.45-.84,3.74.25c.75.63.99,1.84.71,3.58-.17.43-1.78,4.07-6.15,2.75Zm-23.33-.79c-14.12-4.17-45.66,6.67-52.07,10.43-.03-3.47.26-8.58,1.74-13.98,3.54-12.88,11.81-21.1,24.55-24.41h0c.21-.04,15.58-2.4,36.97,15.51.11.09.23.19.34.28.12.1.23.2.35.3,1.41,1.2,2.84,2.49,4.3,3.87.71.56,1.59,1.56,1.4,2-.07.14-.51.68-3.39.45-.17-.01-.36-.03-.56-.05-.18-.02-.36-.04-.55-.06-.84-.1-1.82-.25-2.99-.47-4.27-.8-7.25-.27-8.84,1.58-1.16,1.35-1.35,3.12-1.25,4.56Zm3.91,2.99c.32.47,3.83,5.76,2.45,9.66-.25.69-.64,1.3-1.17,1.82-.09.09-.2.18-.3.27-.11.09-.22.18-.34.27-.33.25-.69.47-1.1.67-.12.06-.25.11-.38.17-.13.06-.25.11-.39.16-.32.12-.65.24-1.01.34-4.7,1.32-6.34,1.42-8.61,1.57-2.72.18-6.12.39-16.16,2.69-6.31,1.45-11.4,3.02-15.5,4.29-3.36,1.04-6,1.85-8.08,2.24-.14.03-.29.05-.43.07-.14.02-.28.04-.41.06-.98.13-1.82.14-2.54,0-.14-.03-.28-.06-.41-.1-.14-.04-.27-.09-.4-.15-.62-.26-1.14-.67-1.55-1.28-.76-1.12-1.41-2.29-1.93-3.49h0c-.36-.81-.66-1.65-.9-2.49-.54-1.9-.59-3.38-.15-4.64.4-1.16,1.25-2.23,2.52-3.19.13-.1.26-.2.4-.29.13-.09.27-.18.41-.27.09-.06.17-.12.27-.17,3.97-2.41,19.13-8.04,32.95-10.38,7.3-1.24,14.22-1.55,18.93,0,.16.05.3.11.45.17.15.06.31.11.45.17,1.13.47,2.12,1.06,2.91,1.8Zm9.62,32.52c-.75.82-1.91.56-1.96.55l-1.33-.33.93,1.01c.05.05,4.73,5.26,4.17,11.79-.18,2.09-.79,3.43-1.8,3.97-1.34.71-3.02-.19-3.03-.2l-1.26-.69.7,1.26s2.25,4.17-.43,10.47c-.79,1.86-1.91,3.03-3.32,3.48-2.34.74-4.77-.73-4.8-.74l-.87-.53.25.99c.32,1.3-1.8,8.67-12.1,12.41-10.46,3.8-15.77-5.26-15.99-5.65l-.23-.4-.37.27s-4.9,3.37-11.67-.74c-6.71-4.08-3.68-13.03-3.65-13.12l.42-1.2-1.05.72c-1.9,1.31-3.44,1.6-4.59.87-5.05-3.2-2.78-23.68-1.69-31.59.77.14,1.64.13,2.63.01-.08,4.51.64,13.31,6.8,18.75,4.4,3.88,10.71,5.39,18.84,4.53.19.24.41.47.68.64,1.26.83,3.21.8,5.72.38.54-.09,1.1-.2,1.69-.32,2.89-.6,5.1-1.86,6.07-3.45.15-.25.26-.51.35-.77,6.71-2.66,11.14-6.45,13.21-11.31,2.82-6.62.76-14.18-2.02-20.12.5-.25.95-.53,1.35-.84,2.71,2.64,6.14,6.8,7.96,12.25,1.64,4.89,1.13,6.86.41,7.65Zm-21.74,12.24c-.06.15-.14.3-.23.45-.02.03-.05.06-.07.09-.89,1.35-2.87,2.43-5.47,2.98-2.71.56-5.41.97-6.79.07-.03-.02-.05-.05-.08-.07-.15-.11-.27-.23-.39-.37-.1-.12-.18-.24-.25-.38-.12-.23-.22-.48-.28-.78-.4-1.96,1.88-3.96,5.81-5.11.59-.17,1.17-.31,1.73-.4,1.96-.33,3.65-.18,4.79.46.7.39,1.14.94,1.33,1.63.08.3.09.61.04.93-.03.17-.08.34-.15.51Zm.91-1.65c-.24-.9-.84-1.64-1.72-2.14-1.66-.93-4.27-.98-7.16-.14-4.45,1.3-6.9,3.63-6.39,6.07.05.25.12.48.21.7-7.69.75-13.67-.7-17.81-4.36-5.99-5.28-6.62-13.94-6.53-18.25,2.22-.38,4.97-1.23,8.36-2.28,4.08-1.26,9.16-2.83,15.44-4.27,9.98-2.29,13.34-2.5,16.03-2.68,2.24-.14,4-.26,8.78-1.6.41-.11.78-.25,1.14-.39,2.71,5.77,4.73,13.11,2.02,19.46-1.93,4.53-6.06,8.1-12.28,10.66,0-.27-.02-.54-.09-.8Z"/>
      </g>
    </g>
  </g>
  <g>
    <path class="cls-9" d="m140.41,423.78c-8.63-7.14-13.46-18.05-16.18-27.89,2.53-.24,5.03-.57,7.5-1.02,1.14-.21,2.1-.95,2.6-1.99.49-1.04.45-2.26-.11-3.27-.07-.13-6.43-11.66-10.74-29.02,1.07-.11,2.12-.23,3.14-.39,1.05-.17,1.97-.79,2.52-1.71.54-.92.65-2.03.29-3.03-.1-.27-9.66-27.11-11.66-36.54-.3-1.41-1.41-2.5-2.83-2.77-.03,0-.05,0-.08-.01-1.39-.23-2.79.37-3.57,1.55-.17.26-17.12,25.8-23.56,32.68-.83.88-1.15,2.13-.86,3.3.29,1.18,1.16,2.12,2.3,2.52.11.04,1.34.46,3.39,1.04-4.54,7.77-11.88,18.75-19.38,23.33-1.1.67-1.75,1.88-1.71,3.17.04,1.29.78,2.45,1.92,3.05.22.11,2.96,1.53,7.62,3.24-10.5,13.31-22.88,25.52-23.07,25.71-.86.85-1.24,2.07-1,3.26.24,1.18,1.06,2.17,2.18,2.62,9.38,3.75,18.62,6.64,27.57,8.63-2.21,5.3-4.42,10.61-4.89,11.73-.42,1.01-.36,2.16.18,3.12.53.95,1.46,1.6,2.53,1.78.01,0,22.07,3.47,22.07,3.47,1.06.17,2.13-.15,2.94-.86.8-.71,1.24-1.75,1.2-2.82l-.54-13.24c18.66.78,28.83-3.36,29.35-3.58,1.15-.48,1.97-1.54,2.15-2.77.18-1.24-.29-2.48-1.26-3.28Z"/>
    <g>
      <path class="cls-5" d="m138.94,421.72c-8.63-7.14-13.46-18.05-16.18-27.89,2.53-.24,5.03-.57,7.5-1.02,1.14-.21,2.1-.95,2.6-1.99.49-1.04.45-2.26-.11-3.27-.07-.13-6.43-11.66-10.74-29.02,1.07-.11,2.12-.23,3.14-.39,1.05-.17,1.97-.79,2.52-1.71.54-.92.65-2.03.29-3.03-.1-.27-9.66-27.11-11.66-36.54-.3-1.41-1.41-2.5-2.83-2.77-.03,0-.05,0-.08-.01-1.39-.23-2.79.37-3.57,1.55-.17.26-17.12,25.8-23.56,32.68-.83.88-1.15,2.13-.86,3.3.29,1.18,1.16,2.12,2.3,2.52.11.04,1.34.46,3.39,1.04-4.54,7.77-11.88,18.75-19.38,23.33-1.1.67-1.75,1.88-1.71,3.17.04,1.29.78,2.45,1.92,3.05.22.11,2.96,1.53,7.62,3.24-10.5,13.31-22.88,25.52-23.07,25.71-.86.85-1.24,2.07-1,3.26.24,1.18,1.06,2.17,2.18,2.62,9.38,3.75,18.62,6.64,27.57,8.63-2.21,5.3-4.42,10.61-4.89,11.73-.42,1.01-.36,2.16.18,3.12.53.95,1.46,1.6,2.53,1.78.01,0,22.07,3.47,22.07,3.47,1.06.17,2.13-.15,2.94-.86.8-.71,1.24-1.75,1.2-2.82l-.54-13.24c18.66.78,28.83-3.36,29.35-3.58,1.15-.48,1.97-1.54,2.15-2.77.18-1.24-.29-2.48-1.26-3.28Z"/>
      <path class="cls-9" d="m82.96,445.18c-1.19-.2-2.21-.92-2.8-1.98-.6-1.07-.67-2.33-.2-3.46l4.72-11.31c-8.86-2-18-4.88-27.17-8.55-1.25-.5-2.15-1.58-2.41-2.9-.26-1.32.15-2.67,1.11-3.61.12-.12,12.2-12.01,22.7-25.25-4.35-1.62-6.88-2.93-7.17-3.08-1.26-.66-2.08-1.96-2.12-3.38-.05-1.43.68-2.77,1.9-3.52,7.19-4.39,14.25-14.71,18.99-22.77-1.87-.54-2.92-.91-2.93-.91-1.27-.44-2.22-1.49-2.55-2.79-.32-1.31.03-2.67.95-3.66,6.32-6.77,22.82-31.57,23.52-32.63.87-1.31,2.42-1.98,3.96-1.72l.09.02c1.57.3,2.8,1.51,3.14,3.07,1.98,9.36,11.55,36.22,11.65,36.49.4,1.11.28,2.34-.32,3.36-.6,1.02-1.62,1.71-2.79,1.89-.81.13-1.7.24-2.71.35,4.3,17.09,10.53,28.38,10.59,28.49.62,1.12.67,2.47.12,3.63-.55,1.15-1.62,1.98-2.88,2.21-2.3.42-4.68.75-7.07.98,3.42,12.17,8.78,21.33,15.93,27.25h0c1.06.88,1.59,2.27,1.39,3.64-.2,1.36-1.12,2.54-2.39,3.07-.43.18-10.55,4.33-29.1,3.63l.52,12.82c.05,1.19-.43,2.33-1.32,3.12-.89.79-2.08,1.14-3.25.96-10.06-1.58-22.06-3.47-22.08-3.47Zm30.36-130.74c-1.24-.21-2.49.33-3.19,1.38-.7,1.06-17.23,25.92-23.6,32.73-.74.79-1.03,1.89-.77,2.94.26,1.05,1.03,1.89,2.05,2.25.01,0,1.22.43,3.37,1.03.12.03.21.12.25.23.04.11.04.24-.02.34-4.78,8.19-12.05,18.91-19.51,23.47-.98.6-1.56,1.68-1.53,2.83.04,1.15.69,2.19,1.71,2.72.12.06,2.89,1.5,7.57,3.22.12.04.21.14.24.26.03.12,0,.25-.07.35-10.61,13.45-22.98,25.62-23.1,25.74-.77.76-1.1,1.84-.89,2.9.21,1.06.94,1.93,1.94,2.34,9.3,3.72,18.55,6.62,27.51,8.61.11.03.21.1.26.2.05.1.06.22.01.33l-4.89,11.73c-.38.91-.32,1.92.16,2.78.47.85,1.3,1.43,2.26,1.59.09.01,22.07,3.47,22.07,3.47.95.15,1.9-.13,2.62-.77.72-.64,1.1-1.55,1.07-2.51l-.54-13.24c0-.11.04-.21.11-.29.08-.08.18-.12.29-.11,18.64.78,28.77-3.37,29.19-3.55,1.02-.43,1.76-1.38,1.92-2.47.16-1.1-.27-2.22-1.12-2.92h0c-7.36-6.1-12.85-15.55-16.3-28.09-.03-.11-.01-.23.05-.32.07-.09.17-.16.28-.17,2.53-.24,5.04-.58,7.47-1.02,1.01-.18,1.87-.85,2.31-1.78.44-.93.4-2.02-.1-2.92-.06-.11-6.45-11.68-10.78-29.12-.03-.11,0-.22.06-.32.07-.09.17-.15.28-.16,1.19-.12,2.21-.24,3.12-.39.94-.15,1.76-.7,2.24-1.52.49-.82.58-1.8.26-2.7-.1-.27-9.68-27.19-11.68-36.59-.27-1.26-1.26-2.23-2.52-2.47h-.07Z"/>
    </g>
    <g>
      <path class="cls-6" d="m93.47,417.67c-.32.73-9.86,23.6-9.86,23.6l22.03,3.47-1.01-25.01-11.17-2.06Z"/>
      <path class="cls-6" d="m58.97,416.21s28.7-28.19,36.53-46.53l20.22,1.67s.29,36.03,20.93,53.13c0,0-27.81,11.68-77.69-8.27Z"/>
      <path class="cls-6" d="m98.89,348.23s-12.13,25.25-25.32,33.31c0,0,25.43,13.31,56.06,7.75,0,0-8.99-16.06-13.11-39.4l-17.63-1.65Z"/>
      <path class="cls-6" d="m112.79,317.58s-17.21,25.96-23.93,33.15c0,0,18.81,6.54,35.72,3.86,0,0-9.72-27.22-11.8-37.01Z"/>
      <path class="cls-3" d="m117.16,331.6s-7.6,11.9-22.36,11.01c0,0,.61,6.26,21.92,12.61"/>
      <path class="cls-3" d="m95.2,352.53s4.47,15.31,27.12,19.61c0,0-11.73,17.6-36.99,14.14,0,0,2.89,25.41,45.3,32.01"/>
      <path class="cls-1" d="m116.97,338.46c-.37,1.34-1.62,2.17-2.8,1.85-1.17-.32-1.83-1.67-1.45-3.02.37-1.34,1.62-2.17,2.8-1.85,1.17.32,1.83,1.67,1.45,3.02Z"/>
      <path class="cls-1" d="m116.28,394.72c-.37,1.34-1.62,2.17-2.8,1.85-1.17-.32-1.83-1.67-1.45-3.02s1.62-2.17,2.8-1.85c1.17.32,1.83,1.67,1.45,3.02Z"/>
      <path class="cls-5" d="m98.78,362.9c-.33,1.21-1.46,1.96-2.52,1.66-1.06-.29-1.64-1.51-1.31-2.72.33-1.21,1.46-1.96,2.52-1.66,1.06.29,1.64,1.51,1.31,2.72Z"/>
      <path class="cls-5" d="m111.6,355.78c-.33,1.21-1.46,1.96-2.52,1.66-1.06-.29-1.64-1.51-1.31-2.72.33-1.21,1.46-1.96,2.52-1.66s1.64,1.51,1.31,2.72Z"/>
      <path class="cls-8" d="m115.82,373.61c-.36,1.32-1.59,2.13-2.74,1.81-1.15-.32-1.79-1.64-1.43-2.96s1.59-2.13,2.74-1.81c1.15.32,1.79,1.64,1.43,2.96Z"/>
      <path class="cls-8" d="m104,344.88c-.36,1.32-1.59,2.13-2.74,1.81-1.15-.32-1.79-1.64-1.43-2.96s1.59-2.13,2.74-1.81c1.15.32,1.79,1.64,1.43,2.96Z"/>
      <path class="cls-1" d="m98.28,382.78c-.4,1.46-1.76,2.35-3.03,2-1.27-.35-1.98-1.81-1.58-3.27.4-1.46,1.76-2.35,3.03-2,1.27.35,1.98,1.81,1.58,3.27Z"/>
      <path class="cls-1" d="m87.83,397.71c-.45,1.64-1.98,2.65-3.41,2.25-1.43-.39-2.23-2.04-1.77-3.68.45-1.64,1.98-2.65,3.41-2.25,1.43.39,2.23,2.04,1.77,3.68Z"/>
      <path class="cls-8" d="m101.5,412.1c-.48,1.73-2.09,2.79-3.6,2.38s-2.35-2.16-1.87-3.89c.48-1.73,2.09-2.79,3.6-2.38s2.35,2.16,1.87,3.89Z"/>
      <path class="cls-5" d="m119.55,418.83c-.41,1.48-1.79,2.4-3.09,2.04-1.3-.36-2.02-1.85-1.61-3.33s1.79-2.4,3.09-2.04c1.3.36,2.02,1.85,1.61,3.33Z"/>
      <g>
        <path class="cls-7" d="m137.04,424.53c.02-.13-.03-.27-.14-.36-10.35-8.57-15.54-22.06-18.16-33.27,3.55-.17,7.21-.56,10.95-1.24.12-.02.23-.1.28-.22.05-.11.05-.25-.01-.35-.08-.15-7.54-13.63-11.92-33.51,2.21-.07,4.42-.26,6.6-.6.11-.02.21-.09.27-.19.06-.1.07-.22.03-.33-.06-.18-4.18-11.74-7.61-22.43.09-.13.14-.21.15-.22.12-.18.06-.42-.12-.54-.09-.06-.19-.07-.29-.05-1.72-5.41-3.24-10.52-3.91-13.72-.03-.15-.15-.27-.31-.3-.14-.05-.31.04-.4.17-.13.19-9.71,14.63-17.31,24.87-.11,0-.22,0-.34-.01-.11,0-.22.04-.3.12-.08.08-.12.19-.11.31,0,.04.03.19.11.44-2.32,3.09-4.41,5.73-5.94,7.37-.09.1-.12.23-.09.36.03.13.13.23.25.27.07.02,2.41.83,6.15,1.75.08.23.24.65.49,1.2-4.45,7.96-13.03,21.67-22.01,27.16-.12.07-.19.2-.19.34s.08.27.21.33c.1.05,4.36,2.24,11.39,4.46-11.14,14.87-25.88,29.4-26.08,29.6-.09.09-.13.22-.11.35s.11.24.24.28c11.44,4.58,21.73,7.48,30.82,9.24-2.75,6.58-6.15,14.75-6.39,15.31-.05.11-.04.23.02.34.06.1.16.17.27.19h0s22.03,3.47,22.03,3.47c.11.02.23-.02.32-.09.09-.08.13-.19.13-.31l-.68-16.8c20.24,1.43,31.27-3.02,31.45-3.09.12-.05.21-.17.23-.3Zm-52.88,16.43c.78-1.87,3.8-9.11,6.26-15,.93.18,1.86.34,2.77.5,4.07.68,7.86,1.13,11.39,1.4l.66,16.42-21.08-3.32Zm20.78-13.84c-.13,0-.26-.02-.39-.03-4.22-.33-8.83-.92-13.82-1.86-.13-.02-.26-.05-.39-.07-.13-.03-.26-.05-.39-.07-8.93-1.73-19.05-4.56-30.28-9.02,2.47-2.47,15.32-15.46,25.42-28.86.42,2.01,1.89,7.14,6.68,12.85,4.18,4.98,11.6,11.09,24.44,15.26-.12.06-.24.11-.35.19-.66.44-1.15,1.12-1.37,1.93-.22.81-.16,1.65.19,2.36.35.73.95,1.25,1.69,1.45.08.02.17.04.25.06,1.42.24,2.87-.77,3.31-2.37.22-.81.16-1.65-.19-2.36-.04-.09-.1-.16-.15-.24,2.96.82,6.17,1.54,9.67,2.13.38.06.78.13,1.17.19,1.64,2.04,3.46,3.96,5.48,5.69-2.56.89-13.09,4.06-30.57,2.81-.13,0-.26-.02-.39-.03Zm7.67-108.57c.77,3.33,2.24,8.22,3.87,13.34-1.28,1.73-6.05,7.51-14.09,9.61-.59-.09-1.18.05-1.68.37-1.45.27-2.98.42-4.62.4,6.57-8.89,14.46-20.65,16.51-23.72Zm2.64,17.22c.05,0,.1.02.16.03.46.13.83.45,1.06.92.23.49.28,1.06.12,1.62-.31,1.14-1.35,1.84-2.32,1.58-.97-.27-1.5-1.41-1.18-2.54.3-1.07,1.24-1.77,2.16-1.61Zm-12.78,6.51c.45.12.82.44,1.04.9.23.48.27,1.04.12,1.59-.15.55-.48,1.01-.92,1.3-.42.28-.9.37-1.35.24-.45-.12-.82-.44-1.04-.9-.23-.48-.27-1.04-.12-1.59.14-.52.44-.95.82-1.23.38-.29.84-.42,1.3-.35.04,0,.09.02.13.03,0,0,.01,0,.02,0Zm-2.64.51c-.16.25-.29.52-.37.83-.2.73-.14,1.48.17,2.13.32.66.86,1.13,1.53,1.31.08.02.16.04.23.05.6.1,1.21-.04,1.75-.39.6-.39,1.04-1.01,1.24-1.74.2-.73.14-1.48-.17-2.13-.17-.35-.4-.64-.68-.87,3.63-1.11,6.58-2.92,8.81-4.72-.38,1.52.39,3.04,1.74,3.42.08.02.15.04.23.05,1.31.22,2.64-.71,3.04-2.17.2-.74.14-1.51-.17-2.16-.32-.67-.88-1.15-1.55-1.33-.26-.07-.53-.08-.79-.06.86-.87,1.51-1.65,1.95-2.22,3.02,9.4,6.52,19.3,7.29,21.49-2.05.3-4.12.47-6.19.53-.13,0-.26,0-.4.01-.13,0-.26,0-.39.01-.11,0-.22,0-.34,0-2.16-.64-4.1-1.29-5.85-1.92-.16-.09-.33-.17-.51-.23-.05-.01-.11-.01-.16-.03-3.51-1.31-6.2-2.58-8.26-3.75-.27-.16-.54-.31-.79-.46-.26-.15-.5-.31-.74-.46-3.38-2.17-4.59-3.91-5.02-4.79.04-.05.08-.11.12-.17,1.51.05,2.94-.04,4.29-.23Zm29.2,46.19c-3.57.62-7.06.98-10.46,1.14-.14,0-.29.01-.43.02-.12,0-.24,0-.35.01-10.56.4-20.09-1.15-27.56-3.08,11.88.39,20.38-3.95,25.69-8.02.11-.09.23-.18.34-.26.13-.1.26-.2.38-.29,2.94-2.37,4.78-4.55,5.56-5.56,3.03,8.62,5.97,14.41,6.83,16.05Zm-10,27.92c.26.55.31,1.19.14,1.82-.35,1.28-1.53,2.07-2.61,1.77-.52-.14-.94-.51-1.2-1.04-.26-.55-.31-1.19-.14-1.82.17-.63.55-1.16,1.05-1.49.43-.29.92-.4,1.38-.32.06,0,.12.02.18.04.52.14.94.51,1.2,1.04Zm-26.64-17.31c-4.95-5.88-6.3-11.25-6.61-12.87.15.02.29.03.43.04,3.57,1.07,7.76,2.11,12.43,2.89,5.8.97,12.34,1.54,19.32,1.27,2,8.64,5.53,18.67,11.75,26.81-21.12-3.47-31.95-11.76-37.32-18.14Zm22.78-27.91c.05.07.1.15.14.23.02.03.02.07.04.1.19.45.22.97.08,1.48,0,.01,0,.02-.01.03-.32,1.09-1.32,1.77-2.26,1.51-.94-.26-1.46-1.38-1.16-2.49.12-.44.36-.8.65-1.08.15-.14.32-.26.49-.35.31-.15.64-.21.97-.15.05,0,.1.02.15.03.18.05.34.14.49.25.15.11.29.25.4.42Zm-18.94-17.61c.15-.28.3-.54.45-.81,1.72.39,3.66.79,5.75,1.14,1.55.26,3.18.49,4.87.69-.13,1.25.55,2.41,1.67,2.72.07.02.14.04.21.05,1.2.2,2.41-.65,2.78-1.98.03-.13.05-.25.07-.38,1.51.08,3.05.12,4.6.11,0,0,.01,0,.02,0,.05,0,.1,0,.15,0,.15,0,.3,0,.45,0,1.31,5.97,2.9,11.37,4.48,16.02-17.24-3.49-23.61-13.56-25.49-17.54Zm11.89.75s0,0,0-.01c.04-.14.09-.26.15-.39.35-.69,1.02-1.11,1.69-1.03.02,0,.04,0,.06,0,.05,0,.09.02.14.03.13.04.26.1.37.17.23.15.43.36.56.64.07.14.11.29.14.44.03.13.04.26.04.4,0,.12,0,.25-.03.38-.01.07-.02.15-.04.22-.28,1-1.19,1.63-2.04,1.39-.75-.21-1.2-1.01-1.11-1.89.01-.12.03-.24.07-.36Zm3.91-.1c-.03-.22-.09-.44-.17-.65.71.25,1.44.49,2.2.74-.68-.02-1.36-.05-2.03-.09Zm-13.22-6.88c.2.14.4.29.62.43.22.15.46.3.7.45,2.04,1.29,4.82,2.71,8.56,4.18-.53.3-.97.79-1.22,1.43-3.89-.44-7.47-1.11-10.42-1.78-.13-.03-.26-.06-.38-.09-.13-.03-.27-.06-.4-.09-3.29-.77-5.7-1.5-6.74-1.83,1.44-1.6,3.3-3.95,5.33-6.66.53.92,1.63,2.31,3.94,3.96Zm15.09,22.35c-.53-.01-1.05.17-1.5.49-.14.1-.28.22-.41.35-.11.11-.21.23-.3.36-.19.28-.35.6-.45.95-.42,1.52.34,3.07,1.7,3.44.08.02.15.04.23.05.86.14,1.73-.22,2.33-.91.13-.15.24-.31.34-.48.13-.23.25-.47.32-.74.01-.04.01-.08.02-.12.14-.58.11-1.18-.08-1.71-.04-.1-.06-.2-.11-.3-.12-.24-.27-.45-.45-.64-.09-.09-.18-.18-.28-.26,1.94.67,4.04,1.25,6.35,1.71-.68.9-2.38,2.94-5.1,5.19-.12.1-.25.2-.38.31-.11.09-.23.18-.34.27-5.71,4.49-15.45,9.47-29.47,7.84-.1-.03-.2-.06-.3-.09-.13-.04-.25-.08-.38-.12-.14-.04-.27-.08-.4-.13-5.61-1.75-9.48-3.5-10.91-4.18,8.73-5.68,16.96-18.68,21.43-26.6,1.86,3.68,6.8,10.98,18.14,15.3Zm-18.12-17.13s.07.02.11.03c-.02.03-.04.07-.06.1-.02-.04-.04-.09-.05-.13Z"/>
        <path class="cls-7" d="m114.92,391.32c-1.38-.38-2.85.57-3.27,2.12-.2.74-.14,1.51.17,2.16.32.67.88,1.15,1.55,1.33.08.02.16.04.24.05.6.1,1.23-.04,1.78-.4.61-.4,1.05-1.03,1.26-1.77.43-1.55-.35-3.12-1.73-3.49Zm.98,3.29c-.15.56-.49,1.03-.94,1.33-.43.29-.92.37-1.38.25-.46-.13-.83-.45-1.06-.92-.23-.49-.28-1.06-.12-1.62.3-1.07,1.24-1.77,2.16-1.61.05,0,.1.02.16.03.97.27,1.5,1.41,1.18,2.54Z"/>
        <path class="cls-7" d="m96.16,364.94c.07.02.14.04.22.05.55.09,1.13-.03,1.63-.37.55-.37.96-.94,1.15-1.62.39-1.41-.32-2.85-1.58-3.2-.62-.17-1.28-.06-1.85.32-.55.37-.96.94-1.15,1.62s-.13,1.38.16,1.98c.3.62.8,1.05,1.42,1.22Zm-.83-2.99c.14-.5.43-.91.83-1.18.34-.22.72-.31,1.08-.25.05,0,.09.02.14.03.85.23,1.32,1.24,1.04,2.24-.14.49-.43.91-.83,1.17-.38.25-.81.33-1.21.22-.4-.11-.73-.4-.93-.81-.21-.43-.25-.94-.11-1.43Z"/>
        <path class="cls-7" d="m93.3,381.4c-.22.79-.15,1.62.19,2.32.35.72.94,1.23,1.66,1.43.08.02.17.04.25.06.65.11,1.31-.04,1.9-.43.65-.43,1.13-1.1,1.35-1.9.22-.79.15-1.62-.19-2.32-.35-.72-.94-1.23-1.66-1.43-.72-.2-1.49-.07-2.16.37-.65.43-1.13,1.1-1.35,1.9Zm3.13-1.56c.06,0,.12.02.17.04.51.14.92.5,1.17,1.02.26.53.31,1.16.14,1.78-.17.61-.53,1.13-1.03,1.46-.48.32-1.02.41-1.52.27-.51-.14-.92-.5-1.17-1.02-.26-.53-.31-1.16-.14-1.78.17-.61.53-1.13,1.03-1.46.42-.28.9-.39,1.35-.31Z"/>
        <path class="cls-7" d="m86.15,393.66c-1.64-.46-3.38.68-3.89,2.52-.24.88-.17,1.8.21,2.58.38.8,1.04,1.36,1.84,1.58.09.03.19.05.28.06.72.12,1.46-.04,2.11-.48.72-.48,1.25-1.23,1.5-2.11.51-1.84-.41-3.71-2.05-4.16Zm1.3,3.95c-.19.7-.61,1.3-1.18,1.67-.55.36-1.17.47-1.76.31-.58-.16-1.06-.58-1.35-1.17-.29-.61-.35-1.33-.16-2.04.37-1.35,1.57-2.22,2.74-2.03.07.01.13.03.2.04,1.22.34,1.9,1.78,1.5,3.21Z"/>
        <path class="cls-7" d="m99.73,407.84c-1.71-.48-3.54.72-4.08,2.65-.26.93-.18,1.89.22,2.71.4.84,1.09,1.42,1.93,1.66.1.03.2.05.29.07.75.13,1.53-.05,2.21-.5.76-.5,1.32-1.29,1.57-2.21.26-.93.18-1.89-.22-2.71-.4-.84-1.09-1.42-1.93-1.66Zm1.4,4.16c-.21.75-.65,1.38-1.25,1.77-.58.39-1.25.51-1.87.33-.62-.17-1.13-.61-1.44-1.24-.31-.65-.37-1.42-.17-2.16.4-1.44,1.67-2.36,2.91-2.15.07.01.14.03.21.05.62.17,1.13.61,1.44,1.24.31.65.37,1.42.17,2.16Z"/>
      </g>
    </g>
  </g>
</svg>