<?xml version="1.0" encoding="UTF-8"?>
<svg id="Layer_1" data-name="Layer 1" xmlns="http://www.w3.org/2000/svg" viewBox="0 0 500 500">
  <defs>
    <style>
      .cls-1 {
        fill: #441d1d;
      }

      .cls-1, .cls-2, .cls-3, .cls-4, .cls-5, .cls-6 {
        stroke-width: 0px;
      }

      .cls-2 {
        fill: #f2e8e9;
      }

      .cls-3 {
        fill: #fef4f6;
      }

      .cls-4 {
        fill: #cf3c3c;
      }

      .cls-5 {
        fill: #d02a4a;
      }

      .cls-6 {
        fill: #5e7935;
      }
    </style>
  </defs>
  <ellipse class="cls-3" cx="245.8" cy="253.11" rx="149.64" ry="141.59"/>
  <g>
    <path class="cls-4" d="m51.47,304.9l1.04-.37c1.11,3.08,2.25,3.65,4.29,2.91l22.65-8.16c1.66-.6,1.94-1.78.86-4.77l1.04-.37,2.7,7.48-22.54,19.16,29.56.33,2.79,7.73-1.04.38c-1.2-3.33-2.1-3.75-3.72-3.17l-22.65,8.16c-1.83.66-2.55,1.91-1.43,5.02l-1.04.38-3.79-10.52,1.04-.37c1.09,3.03,2.46,3.57,4.29,2.92l24.56-8.85-.16-.46-32.64-.4-.24-.67,24.34-20.8-.18-.5-23.98,8.64c-2.04.73-2.54,1.95-1.43,5.02l-1.04.37-3.28-9.1Z"/>
    <path class="cls-4" d="m67.16,345.33l.95-.57c1.55,2.57,2.96,3.12,4.77,2.02l20.28-12.21c1.74-1.05,1.81-2.48.26-5.05l.95-.57,11.96,19.87-4.84,6.52-.72-.34c1.17-3.28,3.81-6.94.28-12.8l-2.23-3.71c-1.19-1.97-2.48-2.58-4.22-1.53l-9.12,5.49,3.46,5.75c1.6,2.65,3.6,3.4,7.19,1.24l.55.91-10.59,6.38-.55-.91c3.37-2.03,3.98-4.35,2.38-7l-3.46-5.75-10.14,6.11c-1.82,1.09-2,2.59-.79,4.6l2.14,3.56c2.64,4.39,6.08,5.98,12.1,6.48l.11.86-8.21,1.44-12.51-20.77Z"/>
    <path class="cls-4" d="m85.09,374.12l.83-.73c2.18,2.5,3.53,2.49,5.12,1.1l17.9-15.64c1.46-1.28,1.42-2.41-.76-4.9l.83-.73,9.45,10.81c4.5,5.16,4.33,10,.94,12.96-3.13,2.73-7.63,3.08-11.75-1.17l-4.84,13.79c-.62,1.77-.1,2.97,1.44,4.73l-.83.73-3.92-4.49,6.16-16.99-4.04-4.62-8.72,7.61c-1.6,1.39-1.61,2.93.43,5.26l-.83.73-7.38-8.45Zm17.33-5.87l5.38,6.16c3.23,3.69,6.93,2.63,9.59.3,3.16-2.76,3.23-6.51.09-10.11l-2.59-2.96c-1.37-1.56-2.65-1.96-4.12-.69l-8.35,7.29Z"/>
    <path class="cls-4" d="m107.83,399.33l.69-.86c2.59,2.07,3.91,1.83,5.23.18l14.86-18.54c1.22-1.52.97-2.62-1.62-4.69l.69-.86,11.2,8.98c5.34,4.28,6.03,9.08,3.21,12.59-2.6,3.24-6.96,4.38-11.78.92l-2.33,14.43c-.3,1.86.42,2.94,2.25,4.4l-.69.86-4.65-3.73,3.06-17.81-4.79-3.84-7.24,9.03c-1.33,1.65-1.06,3.17,1.35,5.1l-.69.86-8.76-7.01Zm16.02-8.84l6.38,5.11c3.83,3.07,7.29,1.36,9.49-1.39,2.62-3.27,2.03-6.98-1.7-9.96l-3.07-2.46c-1.62-1.3-2.96-1.46-4.17.05l-6.93,8.65Z"/>
    <path class="cls-4" d="m141.69,424.01l.53-.97c3.37,1.84,4.37,1.59,5.24,0l4.37-7.98.16-18.24c-.21-1.73-.47-2.37-2.98-3.75l.53-.97,10,5.47-.53.97c-2.75-1.51-3.81-1.78-4.17-1.12-.13.23-.2.55-.17.96l-.16,16.03,13.01-8.04c.43-.32.79-.62.96-.93.51-.93-.29-1.87-3.04-3.38l.53-.97,8.76,4.79-.53.97c-2.75-1.5-3.72-1.03-5.87.42l-13.72,8.51-4.73,8.64c-.85,1.55-.45,2.57,2.84,4.38l-.53.97-10.5-5.75Z"/>
    <path class="cls-4" d="m207.58,439.56c-3.17,4.36-7.72,7.64-14.33,6-7.46-1.85-12.11-9.15-9.51-19.66,2.15-8.66,8.89-14.73,16.78-12.77,2.83.7,3.9,1.51,5.76,2.66l3.29-.23,1.01,8.58-.77.17c-1.23-3.31-3.81-8.68-9.47-10.09-6.05-1.5-11.58,3.91-13.68,12.4-2.02,8.15,1.25,15.33,8.11,17.03,4.37,1.08,8.2-.2,12.12-4.64l.69.53Z"/>
    <path class="cls-4" d="m212.48,449.15l.06-1.1c3.31.2,4.24-.59,4.36-2.62l1.45-24.12c.1-1.72-.6-2.56-4.04-2.76l.07-1.1,11.2.67-.07,1.1c-3.22-.19-4.28.54-4.38,2.26l-.67,11.16,17.24,1.03.67-11.16c.1-1.72-1.04-2.58-4.08-2.77l.07-1.1,11.2.67-.07,1.1c-3.17-.19-4.28.54-4.38,2.26l-1.45,24.12c-.12,2.03.89,2.93,4.06,3.12l-.07,1.1-11.2-.67.07-1.1c3.04.18,4.29-.58,4.41-2.61l.71-11.86-17.24-1.03-.71,11.86c-.12,2.03.8,2.93,4.06,3.12l-.07,1.1-11.2-.67Z"/>
    <path class="cls-4" d="m249.82,450.68l-.13-1.1c3.29-.39,4.05-1.5,3.8-3.6l-2.77-23.6c-.23-1.93-1.19-2.53-4.48-2.14l-.13-1.1,14.26-1.67c6.8-.8,10.7,2.08,11.22,6.56.48,4.12-1.77,8.04-7.61,9.03l8.63,11.8c1.11,1.51,2.39,1.77,4.71,1.49l.13,1.1-5.92.7-10.53-14.69-6.1.71,1.35,11.49c.25,2.11,1.51,2.98,4.58,2.62l.13,1.1-11.14,1.31Zm4.96-17.62l8.12-.95c4.87-.57,6.09-4.23,5.67-7.74-.49-4.17-3.55-6.34-8.28-5.79l-3.9.46c-2.06.24-3.12,1.08-2.89,3.01l1.29,11.01Z"/>
    <path class="cls-4" d="m275.42,415.1l11.59-2.83.26,1.07c-3.35.82-4.31,1.73-3.78,3.88l5.71,23.39c.42,1.72,1.73,2.26,5.08,1.44l.26,1.07-11.59,2.83-.26-1.07c3.35-.82,4.27-1.9,3.85-3.62l-5.71-23.39c-.52-2.15-1.8-2.52-5.14-1.7l-.26-1.07Z"/>
    <path class="cls-4" d="m298.85,433.63c3.44,2.54,8.32,5.17,14.16,3,4.18-1.55,6.75-4.43,4.97-9.23-1.5-4.06-4.48-4.47-11.59-3.96-5.1.33-10.84.1-12.84-5.28-1.29-3.48-.59-8.35,6.08-10.82,2.98-1.1,5.18-.64,6.26-1.04.21-.08.37-.14.47-.27l1.75-1.5,5.45,6.46-.47.64c-3.96-3.2-8.44-4.98-13.24-3.2-3.36,1.24-5.9,3.92-4.32,8.19,1.62,4.39,6.3,4.55,11.14,4.12,6.16-.54,11.42-.32,13.38,4.99,2.16,5.84-1.23,9.92-6.53,11.88-2.94,1.09-6.04.73-7,1.08-.91.34-1.9,1.36-2.56,2.36l-5.81-6.8.71-.64Z"/>
    <path class="cls-4" d="m337.85,426.04l-.54-.96c2.38-1.35,4.24-2.65,3.15-4.57l-12.08-21.38c-.91-1.62-2.03-1.8-4.49-.41-4.96,2.8-5.29,6.9-5.43,10.58h-.71s-1.36-7.61-1.36-7.61l22.8-12.89,6.01,5.33-.5.64c-3.58-2.03-6.54-4.12-11.31-1.42-2.65,1.5-3.54,2.81-2.62,4.42l12.08,21.38c1.09,1.92,2.73,1.25,5.54-.34l.54.96-11.07,6.26Z"/>
    <path class="cls-4" d="m362.38,411.71l-.71-.84c2.5-2.1,2.64-3.38,1.25-5.03l-15.5-18.41c-1.14-1.35-2.34-1.2-4.77.84l-.71-.84,6.08-5.12,25.78,14.5-9.93-27.84,6.28-5.29.71.84c-2.7,2.28-2.79,3.27-1.68,4.59l15.5,18.41c1.25,1.49,2.67,1.73,5.21-.4l.71.84-8.55,7.2-.71-.84c2.47-2.08,2.5-3.55,1.25-5.03l-16.81-19.97-.37.31,10.93,30.75-.54.46-27.94-15.63-.41.34,16.41,19.49c1.39,1.66,2.71,1.71,5.21-.4l.71.84-7.4,6.23Z"/>
    <path class="cls-4" d="m380.08,350.05l28.71,9.55c2.38.93,3.81.45,5.3-1.35l.85.7-7.14,8.65-.85-.7c1.86-2.25,2.43-3.5,1.37-4.37-.27-.22-.67-.44-1.19-.64l-7.55-2.51-8.46,10.25,3.42,5.92c.48.74.88,1.3,1.29,1.63,1.23,1.01,2.38.3,4.24-1.94l.85.7-6.13,7.43-.85-.7c1.55-1.87,1.67-2.92-.56-6.54l-14.05-23.57.76-2.52Zm1.3,3.14l9.03,15.3,7.87-9.54-16.9-5.76Z"/>
    <path class="cls-4" d="m411.97,348.49c4.27-.17,9.72-1.18,12.92-6.53,2.29-3.83,2.49-7.68-1.91-10.31-3.71-2.22-6.29-.68-11.51,4.18-3.77,3.46-8.39,6.87-13.31,3.92-3.18-1.91-5.69-6.14-2.04-12.24,1.63-2.73,3.63-3.75,4.22-4.73.11-.19.21-.34.2-.5l.43-2.26,8.3,1.62.04.8c-5.09-.01-9.7,1.4-12.33,5.8-1.84,3.07-2.14,6.75,1.76,9.09,4.02,2.41,7.76-.4,11.26-3.76,4.47-4.28,8.71-7.4,13.56-4.5,5.34,3.2,5.26,8.5,2.35,13.35-1.61,2.69-4.25,4.35-4.78,5.22-.5.83-.63,2.25-.52,3.45l-8.79-1.66.15-.94Z"/>
  </g>
  <g>
    <path class="cls-6" d="m56.49,291.16c-7.73-55.74,14.4-112.6,57.38-148.8,2.26-1.91-1-5.13-3.24-3.24-44.33,37.34-66.51,95.92-58.56,153.25.4,2.92,4.82,1.67,4.42-1.22h0Z"/>
    <path class="cls-6" d="m52.89,282.34c-3.27-10.66-11.44-18.96-18.45-27.64-7.01-8.68-13.34-19.24-11.8-30.29.21-1.54.89-3.37,2.43-3.61,1.12-.17,2.14.6,2.98,1.35,16.61,14.61,26.28,36.79,25.69,58.9"/>
    <path class="cls-6" d="m53.26,281.41c4.44-10.23,13.48-17.57,21.41-25.42,7.93-7.85,15.39-17.64,15.1-28.79-.04-1.56-.51-3.45-2.01-3.86-1.09-.3-2.19.36-3.12,1.01-18.13,12.68-30.21,33.64-32.08,55.68"/>
    <path class="cls-6" d="m69.01,194.88c1.43-9.6-1.87-19.18-4.11-28.63-2.24-9.45-3.25-20.12,2.1-28.22.75-1.13,1.96-2.31,3.26-1.92.94.28,1.45,1.27,1.84,2.18,7.55,17.71,6.83,38.75-1.93,55.9"/>
    <path class="cls-6" d="m69.65,194.28c7.33-6.37,17.18-8.74,26.35-11.92,9.17-3.19,18.71-8.08,22.66-16.94.55-1.24.9-2.9-.13-3.78-.74-.64-1.85-.54-2.82-.38-18.99,3.15-36.35,15.08-46.09,31.68"/>
    <path class="cls-6" d="m41.3,191.42c-1.35,14.3,4.06,28.01,14.76,37.59,2.19,1.96,5.44-1.27,3.24-3.24-9.89-8.86-14.66-21.14-13.42-34.35.28-2.94-4.31-2.91-4.58,0h0Z"/>
    <path class="cls-6" d="m58.33,229.91c15.27-1.44,27.97-10.98,33.65-25.21,1.1-2.75-3.34-3.93-4.42-1.22-4.87,12.18-16.18,20.62-29.23,21.85-2.91.27-2.94,4.86,0,4.58h0Z"/>
    <path class="cls-4" d="m43.38,202.56c14.77,0,14.77-22.91,0-22.91s-14.77,22.91,0,22.91h0Z"/>
    <path class="cls-4" d="m87.8,215.21c14.77,0,14.77-22.91,0-22.91s-14.77,22.91,0,22.91h0Z"/>
    <path class="cls-6" d="m90.96,161.65c1.96-3.18,3.32-6.58,5.36-9.66,2.34-3.54,4.67-7.09,7.24-10.47,5.74-7.58,12.96-14.55,22.03-17.38,1.22-.38,2.57-.67,3.74-.16,4.39,1.94-1.93,10.57-3.33,12.58-3.35,4.77-7.62,8.9-12.18,12.5-7.37,5.81-15.94,10.11-24.9,12.85"/>
    <path class="cls-2" d="m40.36,190.73c4.43,0,4.43-6.87,0-6.87s-4.43,6.87,0,6.87h0Z"/>
    <path class="cls-2" d="m86.35,203.94c4.43,0,4.43-6.87,0-6.87s-4.43,6.87,0,6.87h0Z"/>
  </g>
  <g>
    <path class="cls-6" d="m420.25,311.41c26.11-49.85,24.49-110.84-3.73-159.43-1.49-2.56,2.67-4.49,4.14-1.95,29.11,50.12,30.19,112.75,3.34,164.03-1.37,2.61-5.1-.06-3.75-2.64h0Z"/>
    <path class="cls-6" d="m426.62,304.33c6.68-8.93,17.17-13.98,26.7-19.78,9.53-5.8,19.05-13.61,21.34-24.52.32-1.53.3-3.47-1.06-4.22-.99-.54-2.21-.16-3.26.26-20.57,8.14-37.16,25.75-44.08,46.76"/>
    <path class="cls-6" d="m426.59,303.32c-.72-11.13-6.75-21.09-11.56-31.16-4.81-10.07-8.53-21.8-4.48-32.2.57-1.45,1.64-3.07,3.2-2.95,1.13.09,1.94,1.08,2.59,2,12.78,18.06,17.07,41.87,11.39,63.25"/>
    <path class="cls-6" d="m441,216.56c1.9-9.52,8.24-17.42,13.54-25.56,5.3-8.13,9.85-17.84,7.55-27.27-.32-1.32-1.06-2.84-2.42-2.91-.98-.05-1.8.71-2.47,1.43-13.09,14.11-19.52,34.17-17.07,53.26"/>
    <path class="cls-6" d="m440.6,215.78c-4.74-8.47-13.22-14.03-20.77-20.13-7.55-6.1-14.88-13.92-15.61-23.6-.1-1.35.13-3.03,1.4-3.52.92-.35,1.93.12,2.79.6,16.81,9.38,29.12,26.47,32.68,45.39"/>
    <path class="cls-6" d="m468.25,222.67c-3.56,13.92-13.29,24.99-26.59,30.39-2.73,1.11-4.7-3.03-1.95-4.14,12.3-4.99,20.94-14.94,24.23-27.8.73-2.86,5.04-1.29,4.31,1.55h0Z"/>
    <path class="cls-6" d="m439.22,253.14c-13.89-6.51-22.62-19.78-23.16-35.1-.1-2.95,4.47-2.57,4.57.35.46,13.11,8.27,24.87,20.13,30.44,2.65,1.24,1.13,5.57-1.55,4.31h0Z"/>
    <path class="cls-4" d="m462.53,232.45c-13.9-4.99-6.16-26.55,7.74-21.56,13.9,4.99,6.16,26.55-7.74,21.56h0Z"/>
    <path class="cls-4" d="m416.44,229.34c-13.9-4.99-6.16-26.55,7.74-21.56,13.9,4.99,6.16,26.55-7.74,21.56h0Z"/>
    <path class="cls-6" d="m431.57,177.87c-.77-3.65-.9-7.32-1.78-10.9-1.01-4.12-2.01-8.25-3.27-12.3-2.84-9.08-7.28-18.07-14.86-23.8-1.02-.77-2.19-1.5-3.47-1.41-4.79.34-1.76,10.6-1.11,12.96,1.54,5.62,4.16,10.95,7.24,15.88,4.97,7.96,11.59,14.9,19.09,20.51"/>
    <path class="cls-2" d="m469.37,222.33c-4.17-1.5-1.85-7.96,2.32-6.47,4.17,1.5,1.85,7.96-2.32,6.47h0Z"/>
    <path class="cls-2" d="m421.62,219.23c-4.17-1.5-1.85-7.96,2.32-6.47,4.17,1.5,1.85,7.96-2.32,6.47h0Z"/>
  </g>
  <g>
    <path class="cls-1" d="m234.46,114.89c-5.78-2.39-13.04-7.42-8.75-14.39,3.2-5.2,9.45-5.53,14.97-5.13,6.6.48,12.78,3.64,19.36,4.5,1.99-7.11,9.07-14.48,14.13-19.72,5.65-5.85,12.37-10.59,20.1-13.26,14.05-4.85,31.04-2.17,41.36,8.53,6.93,7.19,10.36,17.23,11.03,27.2.73,10.95-2.77,18.39-5.93,28.47,7.76,2.56,15.03,6.59,21.3,11.82,5.59,4.66,3.03,16.42-4.77,17.01-4.35.33-9.4-4.14-13.44-5.48-12.18-4.04-24.35-8.1-36.48-12.28-24.53-8.45-48.91-17.34-72.88-27.27Z"/>
    <path class="cls-1" d="m234.46,114.27c-5.78-2.39-13.04-7.42-8.75-14.39,3.2-5.2,9.45-5.53,14.97-5.13,6.6.48,12.78,3.64,19.36,4.5,1.99-7.11,9.07-14.48,14.13-19.72,5.65-5.85,12.37-10.59,20.1-13.26,14.05-4.85,31.04-2.17,41.36,8.53,6.93,7.19,10.36,17.23,11.03,27.2.73,10.95-2.77,18.39-5.93,28.47,7.76,2.56,15.03,6.59,21.3,11.82,5.59,4.66,3.03,16.42-4.77,17.01-4.35.33-9.4-4.14-13.44-5.48-12.18-4.04-24.35-8.1-36.48-12.28-24.53-8.45-48.91-17.34-72.88-27.27Z"/>
    <path class="cls-5" d="m346.71,107.22c-22.56-12.87-47.27-21.94-72.79-26.82-4.77,4.94-11.19,11.7-13.52,18.34,27.65,8.32,54.64,18.79,80.66,31.3,2.59-8.11,5.31-14.6,5.64-22.82Z"/>
  </g>
</svg>