<svg id="Layer_1" data-name="Layer 1" xmlns="http://www.w3.org/2000/svg" viewBox="0 0 160 160"><defs><style>.cls-1{fill:#fff;}</style></defs><path class="cls-1" d="M151.46,81.38,82.83,152.2a3.91,3.91,0,0,1-5.61,0L8.55,81.38a3.9,3.9,0,0,1,2.8-6.62h22V13.22a6.59,6.59,0,0,1,6.6-6.6h77a6.6,6.6,0,0,1,6.61,6.6V74.76h25.15A3.9,3.9,0,0,1,151.46,81.38Z"/><path d="M80,154.65h0a5.13,5.13,0,0,1-3.71-1.57L7.63,82.26a5.17,5.17,0,0,1,3.72-8.77H32.07V13.22a7.88,7.88,0,0,1,7.87-7.87h77a7.88,7.88,0,0,1,7.88,7.87V73.49h23.88a5.17,5.17,0,0,1,3.72,8.77L83.74,153.08A5.13,5.13,0,0,1,80,154.65ZM11.35,76a2.63,2.63,0,0,0-1.89,4.46l68.67,70.83a2.62,2.62,0,0,0,1.89.79h0a2.63,2.63,0,0,0,1.9-.8l68.63-70.82a2.63,2.63,0,0,0-1.9-4.46H122.23V13.22a5.34,5.34,0,0,0-5.34-5.33H39.94a5.33,5.33,0,0,0-5.33,5.33V76Z"/><path d="M66.67,100.46a2.11,2.11,0,0,1-.79-1.18l.85-.35a1.61,1.61,0,0,0,.46.78A1.14,1.14,0,0,0,68,100a1.17,1.17,0,0,0,.72-.23.71.71,0,0,0,.3-.61.75.75,0,0,0-.26-.58,3,3,0,0,0-.92-.46L67.46,98a2.8,2.8,0,0,1-1-.58,1.36,1.36,0,0,1-.39-1,1.42,1.42,0,0,1,.23-.79,1.64,1.64,0,0,1,.65-.57,2,2,0,0,1,.94-.22,1.88,1.88,0,0,1,1.21.37,1.91,1.91,0,0,1,.61.83l-.82.34a1,1,0,0,0-.34-.48,1,1,0,0,0-.64-.21,1.11,1.11,0,0,0-.67.2.63.63,0,0,0-.27.52.6.6,0,0,0,.24.49,2.68,2.68,0,0,0,.76.37l.36.12a3,3,0,0,1,1.15.68,1.46,1.46,0,0,1,.41,1.11,1.52,1.52,0,0,1-.29.94,1.67,1.67,0,0,1-.74.57,2.26,2.26,0,0,1-.92.19A2.12,2.12,0,0,1,66.67,100.46Z"/><path d="M71.6,100.6a2,2,0,0,1-.76-.78,2.33,2.33,0,0,1-.27-1.13,2.29,2.29,0,0,1,.27-1.12,2,2,0,0,1,.76-.78,2.35,2.35,0,0,1,2.26,0,1.71,1.71,0,0,1,.67.83l-.81.34a1,1,0,0,0-1-.65,1.19,1.19,0,0,0-.61.17,1.14,1.14,0,0,0-.44.48,1.49,1.49,0,0,0-.17.71,1.53,1.53,0,0,0,.17.72,1.14,1.14,0,0,0,.44.48,1.1,1.1,0,0,0,.61.17,1.16,1.16,0,0,0,.66-.17,1.06,1.06,0,0,0,.43-.5l.8.35a1.92,1.92,0,0,1-.71.83,2.05,2.05,0,0,1-1.16.31A2.25,2.25,0,0,1,71.6,100.6Z"/><path d="M75.79,100.71a1.27,1.27,0,0,1-.55-.5,1.43,1.43,0,0,1-.19-.72,1.22,1.22,0,0,1,.48-1,2,2,0,0,1,1.22-.37,2.59,2.59,0,0,1,.65.07,3.11,3.11,0,0,1,.46.15v-.21a.77.77,0,0,0-.28-.62,1.09,1.09,0,0,0-.73-.24,1.31,1.31,0,0,0-.59.14,1.12,1.12,0,0,0-.45.38l-.62-.48a1.84,1.84,0,0,1,.71-.58,2.19,2.19,0,0,1,1-.21,2,2,0,0,1,1.38.44,1.58,1.58,0,0,1,.48,1.23v2.57h-.87v-.49h0a1.43,1.43,0,0,1-.5.44,1.5,1.5,0,0,1-.74.18A1.8,1.8,0,0,1,75.79,100.71Zm1.52-.72a1.05,1.05,0,0,0,.4-.41,1.09,1.09,0,0,0,.15-.56,2.14,2.14,0,0,0-.43-.17,2.22,2.22,0,0,0-.51-.06,1.15,1.15,0,0,0-.74.2.65.65,0,0,0-.23.51.57.57,0,0,0,.21.46.89.89,0,0,0,.57.19A1.12,1.12,0,0,0,77.31,100Z"/><path d="M79.7,96.63h.85v.55h0a1.24,1.24,0,0,1,.53-.48,1.48,1.48,0,0,1,.74-.19A1.42,1.42,0,0,1,83,97a1.73,1.73,0,0,1,.4,1.19v2.61h-.89V98.26a1,1,0,0,0-.24-.71.92.92,0,0,0-.66-.22.9.9,0,0,0-.53.16,1,1,0,0,0-.36.44,1.34,1.34,0,0,0-.13.59v2.23H79.7Z"/><path d="M87.45,100.73a1.08,1.08,0,0,1-.39-.24,1.27,1.27,0,0,1-.35-.94V97.42H86v-.79h.72V95.47h.89v1.16h1v.79h-1v1.93a.66.66,0,0,0,.13.47.48.48,0,0,0,.42.16.88.88,0,0,0,.24,0l.23-.12v.86a1.6,1.6,0,0,1-.65.12A1.82,1.82,0,0,1,87.45,100.73Z"/><path d="M90.1,100.59a2.06,2.06,0,0,1-.77-.78,2.35,2.35,0,0,1-.27-1.12,2.28,2.28,0,0,1,.27-1.11,2.09,2.09,0,0,1,.77-.79,2.18,2.18,0,0,1,1.11-.28,2.1,2.1,0,0,1,1.12.29,1.93,1.93,0,0,1,.76.79,2.17,2.17,0,0,1,.28,1.1,2.24,2.24,0,0,1-.28,1.12,2,2,0,0,1-.76.78,2.29,2.29,0,0,1-2.23,0Zm1.74-.69a1.21,1.21,0,0,0,.47-.48,1.51,1.51,0,0,0,.17-.73,1.47,1.47,0,0,0-.17-.72,1.21,1.21,0,0,0-.47-.48,1.23,1.23,0,0,0-.63-.16,1.28,1.28,0,0,0-.63.16,1.25,1.25,0,0,0-.46.48,1.37,1.37,0,0,0-.17.72,1.41,1.41,0,0,0,.17.73,1.25,1.25,0,0,0,.46.48,1.28,1.28,0,0,0,.63.16A1.23,1.23,0,0,0,91.84,99.9Z"/><path d="M53.76,104.14h2.69a4.54,4.54,0,0,1,2.17.5A3.48,3.48,0,0,1,60,106a4.58,4.58,0,0,1,0,4.16,3.57,3.57,0,0,1-1.42,1.41,4.54,4.54,0,0,1-2.17.5H53.76Zm2.62,6.54a2.68,2.68,0,0,0,2-.68,2.93,2.93,0,0,0,0-3.75,2.64,2.64,0,0,0-2-.69H55.26v5.12Z"/><path d="M62.75,111.89a2.8,2.8,0,0,1-1.08-1.08,3.31,3.31,0,0,1,0-3.08,2.8,2.8,0,0,1,1.08-1.08,3.26,3.26,0,0,1,3.13,0A2.78,2.78,0,0,1,67,107.73a3.31,3.31,0,0,1,0,3.08,2.78,2.78,0,0,1-1.07,1.08,3.34,3.34,0,0,1-3.13,0Zm2.35-1.15a1.56,1.56,0,0,0,.56-.58,1.89,1.89,0,0,0,0-1.77,1.56,1.56,0,0,0-.56-.58,1.62,1.62,0,0,0-1.56,0,1.51,1.51,0,0,0-.57.58,1.87,1.87,0,0,0,0,1.76,1.47,1.47,0,0,0,.57.59,1.62,1.62,0,0,0,1.56,0Z"/><path d="M67.7,106.43h1.64l1,3.68h.07l1.14-3.68H73l1.13,3.68h.08l1-3.68h1.62L75,112.11H73.44l-1.16-3.68h-.07l-1.15,3.68H69.5Z"/><path d="M77.6,106.43H79v.71h.09a1.78,1.78,0,0,1,.73-.65,2.15,2.15,0,0,1,1-.24,1.94,1.94,0,0,1,1.56.63,2.54,2.54,0,0,1,.53,1.7v3.53H81.43v-3.35a1.18,1.18,0,0,0-.28-.85,1,1,0,0,0-.77-.3,1.16,1.16,0,0,0-1,.46,1.77,1.77,0,0,0-.36,1.14v2.9H77.6Z"/><path d="M84.27,104.14h1.46v8H84.27Z"/><path d="M88.25,111.89a2.78,2.78,0,0,1-1.07-1.08,3.31,3.31,0,0,1,0-3.08,2.78,2.78,0,0,1,1.07-1.08,3.16,3.16,0,0,1,1.57-.4,3.12,3.12,0,0,1,1.56.4,2.8,2.8,0,0,1,1.08,1.08,3.31,3.31,0,0,1,0,3.08,2.8,2.8,0,0,1-1.08,1.08,3.11,3.11,0,0,1-1.56.39A3.15,3.15,0,0,1,88.25,111.89Zm2.35-1.15a1.51,1.51,0,0,0,.57-.58,2,2,0,0,0,0-1.77,1.51,1.51,0,0,0-.57-.58,1.56,1.56,0,0,0-.78-.2,1.62,1.62,0,0,0-.78.2,1.67,1.67,0,0,0-.57.58,1.87,1.87,0,0,0,0,1.76,1.49,1.49,0,0,0,1.35.79A1.56,1.56,0,0,0,90.6,110.74Z"/><path d="M94.21,111.76a1.8,1.8,0,0,1-.58-1.39,1.71,1.71,0,0,1,.3-1,2,2,0,0,1,.82-.67,2.93,2.93,0,0,1,1.16-.23,3.92,3.92,0,0,1,1.5.25v-.24a.93.93,0,0,0-.35-.76,1.43,1.43,0,0,0-.94-.29,1.65,1.65,0,0,0-.77.19,1.75,1.75,0,0,0-.62.48l-.93-.73a2.79,2.79,0,0,1,1-.83,3.25,3.25,0,0,1,1.36-.29,2.89,2.89,0,0,1,2,.6,2.24,2.24,0,0,1,.68,1.76v3.5H97.41v-.58h-.09a1.9,1.9,0,0,1-.67.54,2.34,2.34,0,0,1-2.44-.31Zm2.83-1a1.34,1.34,0,0,0,.37-.95,2.69,2.69,0,0,0-1.19-.27c-.75,0-1.13.29-1.13.85a.71.71,0,0,0,.24.56,1,1,0,0,0,.7.22A1.3,1.3,0,0,0,97,110.74Z"/><path d="M101.18,111.9a2.63,2.63,0,0,1-1-1.07,3.27,3.27,0,0,1-.36-1.56,3.32,3.32,0,0,1,.36-1.56,2.67,2.67,0,0,1,2.39-1.46,2.14,2.14,0,0,1,1,.25,2,2,0,0,1,.68.62h.09l-.09-.8v-2.18h1.45v8h-1.36v-.68h-.09a1.74,1.74,0,0,1-.67.61,2.17,2.17,0,0,1-1,.24A2.61,2.61,0,0,1,101.18,111.9Zm2.41-1.17a1.54,1.54,0,0,0,.57-.59,1.78,1.78,0,0,0,.21-.87,1.75,1.75,0,0,0-.21-.87,1.45,1.45,0,0,0-.57-.58,1.49,1.49,0,0,0-.77-.21,1.42,1.42,0,0,0-.75.21,1.45,1.45,0,0,0-.57.58,1.75,1.75,0,0,0-.21.87,1.78,1.78,0,0,0,.21.87,1.54,1.54,0,0,0,.57.59,1.42,1.42,0,0,0,.75.21A1.49,1.49,0,0,0,103.59,110.73Z"/><g id="mobile"><path d="M76.25,117.89h6.37a2.81,2.81,0,0,1,2.81,2.81v15a1.78,1.78,0,0,1-1.65,1.78H76.25a2.81,2.81,0,0,1-2.81-2.81v-14A2.81,2.81,0,0,1,76.25,117.89Zm-.83,16.9h5.37a1,1,0,0,0,1-1.26h0a1,1,0,0,0-.21-.42l-2.73-3.28A.91.91,0,0,1,79,128.7a.84.84,0,0,1,1.08-.24l2.35,2a1,1,0,0,0,1.51-.2l.32-.47a1,1,0,0,0,.19-.59V121.4a1,1,0,0,0-1-1h-8a1,1,0,0,0-1,1v12.36A1,1,0,0,0,75.42,134.79Z"/><rect x="77.43" y="119.06" width="3.64" height="0.42" rx="0.05" transform="translate(158.5 238.54) rotate(-180)"/><path d="M78.86,129.83l2.73,3.28a1,1,0,0,1,.21.42c0,.12.07.3.13.5a1,1,0,0,0,1,.76h.52a1,1,0,0,0,1-1v-4.27l-.51.74a1,1,0,0,1-1.51.2l-2.35-2a.84.84,0,0,0-1.08.24A.91.91,0,0,0,78.86,129.83Z"/><rect x="81.56" y="119.06" width="0.42" height="0.42" rx="0.05" transform="translate(163.54 238.54) rotate(-180)"/><path d="M78.86,129.83l2.73,3.28a.93.93,0,0,1,.2.41c.07.26.19.73.38,1.27a6.36,6.36,0,0,0,1.61,2.7l.22.17c1.61,1.09,3.54-.19,3.81-2.66.2-1.54,0-7.4,0-7.4a3.55,3.55,0,0,0-.23-1.49,1.52,1.52,0,0,0-.25-.38,1,1,0,0,0-1.85.63v1.77l-1,1.36-.51.74a1,1,0,0,1-1.51.2l-2.35-2a.84.84,0,0,0-1.08.24A.91.91,0,0,0,78.86,129.83Z"/><circle cx="79.3" cy="136.13" r="0.91"/></g></svg>