<svg id="Layer_1" data-name="Layer 1" xmlns="http://www.w3.org/2000/svg" viewBox="0 0 160 160"><defs><style>.cls-1{fill:#fff;}</style></defs><circle cx="80" cy="80" r="75.32"/><circle cx="80" cy="80" r="59.22"/><path class="cls-1" d="M53.46,22.92a3.31,3.31,0,0,1-1.82-1.18l1.16-1.15a2.18,2.18,0,0,0,1,.76,1.49,1.49,0,0,0,1.15,0,1.66,1.66,0,0,0,.75-.62.86.86,0,0,0,0-.84,1,1,0,0,0-.64-.58,4.89,4.89,0,0,0-1.46-.09l-.56,0A3.5,3.5,0,0,1,51.44,19a2,2,0,0,1-1.13-1.14,2.23,2.23,0,0,1-.16-1.27,2.27,2.27,0,0,1,.56-1.18,3,3,0,0,1,1.2-.86,2.85,2.85,0,0,1,1.9-.23,2.81,2.81,0,0,1,1.36.82l-1.08,1.11a1.47,1.47,0,0,0-.69-.43,1.25,1.25,0,0,0-.88.09,1.41,1.41,0,0,0-.71.56.79.79,0,0,0-.06.73.81.81,0,0,0,.56.47,3,3,0,0,0,1.19.06l.56,0a4.17,4.17,0,0,1,2,.26,2.25,2.25,0,0,1,1.19,1.28,2.29,2.29,0,0,1,.17,1.48,2.67,2.67,0,0,1-.68,1.24,3.62,3.62,0,0,1-1.17.81A3.23,3.23,0,0,1,53.46,22.92Z"/><path class="cls-1" d="M61.48,19.89a4.35,4.35,0,0,1-2-1.13,4.66,4.66,0,0,1-1.22-4.38,4.32,4.32,0,0,1,1.14-2,4.46,4.46,0,0,1,2-1.19,4.17,4.17,0,0,1,3.48.5l-.81,1.37a2.59,2.59,0,0,0-2.25-.39,2.81,2.81,0,0,0-1.31.75,2.69,2.69,0,0,0-.73,1.28,3.19,3.19,0,0,0,0,1.59,3.16,3.16,0,0,0,.78,1.39,2.57,2.57,0,0,0,1.28.72,3,3,0,0,0,1.51,0,2.85,2.85,0,0,0,1.89-1.7l1.4.75A4.33,4.33,0,0,1,65.59,19a4.62,4.62,0,0,1-1.75.9A4.51,4.51,0,0,1,61.48,19.89Z"/><path class="cls-1" d="M70.11,9.62,72,9.39l4.28,8.13-1.77.22-1-1.95-3.26.41-.46,2.13L68,18.55Zm2.67,4.76-1-2.05-.44-1h-.09l-.18,1.07-.49,2.24Z"/><path class="cls-1" d="M77.69,8.92l1.89,0L83,14.73h.1L83,13.08,83,9h1.61l-.07,8.6H82.87l-3.6-6.12h-.1l.09,1.66,0,4.43h-1.6Z"/><path class="cls-1" d="M91.89,9.8l2,.47.85,6.4.1,0,3.59-5.37,2.05.48-2,8.37L97,19.82l1-4.13.42-1.37-.09,0-3.42,5L93.63,19l-.85-6-.09,0-.24,1.42-1,4.13-1.55-.37Z"/><path class="cls-1" d="M103.76,13l5.07,2-.57,1.43L104.7,15,104,16.85l3.21,1.26-.57,1.43-3.2-1.27-.73,1.86,3.56,1.41L105.66,23l-5.07-2Z"/><path class="cls-1" d="M136.85,53A3.39,3.39,0,0,1,138,51.15l1.16,1.16a2.31,2.31,0,0,0-.76,1,1.54,1.54,0,0,0,.06,1.15,1.58,1.58,0,0,0,.62.74.87.87,0,0,0,.84,0,1,1,0,0,0,.58-.65,4.71,4.71,0,0,0,.07-1.46l0-.56a3.53,3.53,0,0,1,.24-1.65,2,2,0,0,1,1.13-1.14,2.2,2.2,0,0,1,1.26-.17,2.43,2.43,0,0,1,1.2.55,3.26,3.26,0,0,1,.87,1.19,2.75,2.75,0,0,1-.57,3.27l-1.12-1.07a1.38,1.38,0,0,0,.42-.69,1.28,1.28,0,0,0-.09-.89,1.5,1.5,0,0,0-.57-.7.76.76,0,0,0-.73-.05.84.84,0,0,0-.47.56,3.55,3.55,0,0,0,0,1.19l0,.56a4.06,4.06,0,0,1-.24,2,2.33,2.33,0,0,1-1.27,1.21,2.35,2.35,0,0,1-1.48.17,2.6,2.6,0,0,1-1.24-.67,3.39,3.39,0,0,1-.83-1.16A3.27,3.27,0,0,1,136.85,53Z"/><path class="cls-1" d="M140,61a4.42,4.42,0,0,1,1.1-2,4.68,4.68,0,0,1,4.38-1.26,4.36,4.36,0,0,1,2,1.12,4.49,4.49,0,0,1,1.2,2,4.13,4.13,0,0,1-.46,3.48l-1.38-.79a2.64,2.64,0,0,0,.37-2.26,2.93,2.93,0,0,0-.76-1.3,2.58,2.58,0,0,0-1.29-.71,3.09,3.09,0,0,0-1.59.06,3.13,3.13,0,0,0-1.39.79,2.75,2.75,0,0,0-.71,1.29,3,3,0,0,0,.06,1.51,2.82,2.82,0,0,0,1.71,1.87l-.73,1.41a4.29,4.29,0,0,1-1.55-1.13,4.67,4.67,0,0,1-.92-1.74A4.41,4.41,0,0,1,140,61Z"/><path class="cls-1" d="M150.29,69.51l.25,1.84-8.09,4.35-.24-1.77,1.94-1-.44-3.26-2.13-.44-.24-1.78Zm-4.73,2.71,2-1,1-.45v-.09l-1.07-.17L145.26,70Z"/><path class="cls-1" d="M151.08,77.16v1.89l-5.8,3.41v.1l1.66-.08,4.11,0v1.61l-8.61-.07,0-1.71,6.12-3.6v-.09l-1.66.08-4.43,0v-1.6Z"/><path class="cls-1" d="M150.3,91.29l-.46,2-6.39.9,0,.1,5.4,3.54-.46,2.06L140,98.05l.35-1.57,4.14.92,1.38.41,0-.1-5.06-3.37.28-1.23,6-.9,0-.1-1.41-.22L141.56,91l.35-1.56Z"/><path class="cls-1" d="M147.23,103.19l-2,5.09-1.44-.55,1.38-3.58-1.86-.72-1.24,3.22-1.43-.55,1.24-3.22-1.86-.72-1.38,3.58-1.44-.56,2-5.09Z"/><path class="cls-1" d="M107.53,136.6a3.41,3.41,0,0,1,1.84,1.15l-1.14,1.17a2.28,2.28,0,0,0-1-.74,1.49,1.49,0,0,0-1.15.07,1.52,1.52,0,0,0-.73.63.86.86,0,0,0,0,.84,1,1,0,0,0,.66.56,4.71,4.71,0,0,0,1.46.07l.56,0a3.53,3.53,0,0,1,1.65.22,2,2,0,0,1,1.15,1.12,2.21,2.21,0,0,1,.19,1.26,2.35,2.35,0,0,1-.55,1.2,3.05,3.05,0,0,1-1.18.88,2.7,2.7,0,0,1-3.27-.53l1.06-1.13a1.54,1.54,0,0,0,.69.42,1.29,1.29,0,0,0,.89-.11,1.39,1.39,0,0,0,.69-.58.74.74,0,0,0,0-.72.81.81,0,0,0-.56-.47,3.62,3.62,0,0,0-1.19,0l-.57.06a4.24,4.24,0,0,1-2-.22,2.59,2.59,0,0,1-1.41-2.74,2.75,2.75,0,0,1,.66-1.25,3.56,3.56,0,0,1,1.16-.84A3.28,3.28,0,0,1,107.53,136.6Z"/><path class="cls-1" d="M99.58,139.78a4.3,4.3,0,0,1,2,1.09,4.61,4.61,0,0,1,1.29,4.36,4.39,4.39,0,0,1-1.09,2,4.49,4.49,0,0,1-2,1.22,4.15,4.15,0,0,1-3.49-.43l.78-1.39a2.61,2.61,0,0,0,2.26.35,3,3,0,0,0,1.3-.77,2.72,2.72,0,0,0,.7-1.29,3.36,3.36,0,0,0-.88-3,2.63,2.63,0,0,0-1.3-.7,3,3,0,0,0-1.51.06,2.84,2.84,0,0,0-1.85,1.73l-1.42-.72a4.24,4.24,0,0,1,1.11-1.55,4.55,4.55,0,0,1,1.74-.93A4.41,4.41,0,0,1,99.58,139.78Z"/><path class="cls-1" d="M91.13,150.2l-1.85.26-4.42-8.05,1.77-.25,1,1.93,3.25-.47.42-2.14,1.78-.25Zm-2.76-4.72,1.06,2,.45,1,.1,0,.16-1.06.46-2.25Z"/><path class="cls-1" d="M83.45,151.06H81.57l-3.46-5.77H78l.09,1.66v4.11H76.5v-8.6h1.71l3.65,6.09H82l-.09-1.66v-4.43h1.6Z"/><path class="cls-1" d="M69.34,150.4l-2-.44-1-6.38-.1,0L62.74,149l-2.05-.44,1.8-8.41,1.58.34-.89,4.15-.4,1.38h.1l3.32-5.08,1.24.26,1,6,.09,0,.21-1.42.89-4.14,1.56.33Z"/><path class="cls-1" d="M57.4,147.44l-5.11-1.92.55-1.44,3.58,1.35.7-1.87-3.22-1.21.54-1.44,3.23,1.21.7-1.87-3.59-1.35.54-1.44,5.11,1.92Z"/><path class="cls-1" d="M23.64,108a3.4,3.4,0,0,1-1.13,1.86l-1.19-1.14a2.26,2.26,0,0,0,.74-1,1.49,1.49,0,0,0-.08-1.15,1.52,1.52,0,0,0-.63-.73.87.87,0,0,0-.84,0,1,1,0,0,0-.57.66,4.88,4.88,0,0,0-.05,1.46l.05.56a3.55,3.55,0,0,1-.21,1.66,2.07,2.07,0,0,1-1.11,1.16,2.21,2.21,0,0,1-1.26.19,2.31,2.31,0,0,1-1.2-.53,3.24,3.24,0,0,1-.9-1.17,2.89,2.89,0,0,1-.27-1.9,2.94,2.94,0,0,1,.78-1.38l1.14,1a1.47,1.47,0,0,0-.41.7,1.26,1.26,0,0,0,.11.88,1.46,1.46,0,0,0,.59.69.74.74,0,0,0,.72,0,.78.78,0,0,0,.46-.56,3.42,3.42,0,0,0,0-1.19l-.06-.57a4.26,4.26,0,0,1,.2-2,2.3,2.3,0,0,1,1.26-1.23,2.34,2.34,0,0,1,1.47-.2,2.71,2.71,0,0,1,1.26.64,3.63,3.63,0,0,1,.84,1.15A3.29,3.29,0,0,1,23.64,108Z"/><path class="cls-1" d="M20.4,100.1a4.42,4.42,0,0,1-3.08,3.27,4.44,4.44,0,0,1-5.61-3,4.15,4.15,0,0,1,.4-3.49l1.39.77a2.61,2.61,0,0,0-.33,2.26,3,3,0,0,0,.78,1.29,2.7,2.7,0,0,0,1.3.69,3.15,3.15,0,0,0,1.6-.09,3.11,3.11,0,0,0,1.37-.82,2.6,2.6,0,0,0,.68-1.3,2.85,2.85,0,0,0-.08-1.5,2.77,2.77,0,0,0-1.74-1.84l.71-1.43A4.34,4.34,0,0,1,19.35,96a4.54,4.54,0,0,1,.95,1.73A4.48,4.48,0,0,1,20.4,100.1Z"/><path class="cls-1" d="M9.9,91.73l-.28-1.84,8-4.49.27,1.77-1.92,1,.5,3.25,2.14.4.27,1.77Zm4.69-2.79-2,1.07-1,.47,0,.09,1.06.15,2.26.44Z"/><path class="cls-1" d="M9,84.08V82.2l5.74-3.51v-.1L13,78.7l-4.11,0V77.13l8.6-.07v1.7l-6.06,3.7v.1l1.66-.11,4.43,0V84Z"/><path class="cls-1" d="M9.51,70l.42-2,6.38-1,0-.09-5.46-3.45.42-2.06L19.72,63l-.32,1.58-4.16-.86-1.38-.38,0,.1L19,66.73,18.7,68l-6,1v.09l1.41.19,4.16.86-.32,1.56Z"/><path class="cls-1" d="M12.37,58l1.87-5.13,1.45.53L14.37,57l1.87.69,1.19-3.24,1.44.53-1.18,3.23,1.87.69,1.32-3.6,1.44.53L20.45,61Z"/></svg>