<svg id="Layer_1" data-name="Layer 1" xmlns="http://www.w3.org/2000/svg" viewBox="0 0 160 160"><defs><style>.cls-1{fill:#f60;}.cls-1,.cls-2,.cls-3,.cls-4,.cls-5,.cls-6,.cls-7,.cls-8{fill-rule:evenodd;}.cls-2{fill:#ff8500;}.cls-3{fill:#678c15;}.cls-4{fill:#fc0;}.cls-5{fill:#ffb100;}.cls-6{fill:#75a521;}.cls-7{fill:#81b72c;}.cls-8{fill:#fff9e1;}.cls-9{fill:#fff;}</style></defs><path class="cls-1" d="M80,29.06A63.48,63.48,0,1,1,16.53,92.53,63.47,63.47,0,0,1,80,29.06"/><path class="cls-2" d="M81.32,29.08V73.41L87.43,29.5c.88.1,1.75.22,2.62.35l-5.8,41.71,10.9-40.68c.86.21,1.71.44,2.56.69L86.23,74.41,103.5,33.55c.81.33,1.63.67,2.43,1L89.53,73.37l21.06-36.46c.77.42,1.54.86,2.29,1.32L90.71,76.64l27.24-35c.71.53,1.4,1.08,2.09,1.63L94.17,76.5l29.77-29.77c.63.61,1.26,1.23,1.87,1.87L94.46,80l35.37-26.74c.54.69,1.07,1.4,1.59,2.11L97.84,80.71,134.3,59.65c.46.76.9,1.52,1.33,2.3L97.22,84.12l41.1-16.68q.52,1.22,1,2.46l-39,15.83L141,74.83c.24.84.47,1.7.68,2.55L98.81,88.86l44-5.47c.12.87.23,1.75.32,2.63l-41.78,5.19h42.1c0,.44,0,.88,0,1.32s0,.89,0,1.33H99.12L143,100c-.1.88-.22,1.76-.36,2.62L101,96.79l40.68,10.89c-.21.86-.44,1.72-.68,2.56L98.12,98.76,139,116c-.33.82-.67,1.63-1,2.44l-38.79-16.4,36.47,21.05c-.43.78-.87,1.54-1.33,2.3L95.89,103.24l35,27.25c-.53.7-1.07,1.4-1.63,2.08L96,106.7l29.77,29.77c-.61.64-1.24,1.26-1.87,1.87L92.58,107l26.74,35.37c-.69.55-1.39,1.08-2.11,1.6L91.83,110.37l21,36.47c-.75.46-1.52.9-2.29,1.32L88.41,109.75l16.68,41.1c-.81.35-1.63.68-2.45,1l-15.83-39,10.9,40.67c-.85.25-1.7.47-2.56.68L83.67,111.34l5.47,44c-.87.13-1.74.24-2.62.33l-5.2-41.79V156L80,156l-1.32,0V111.65l-6.11,43.92c-.88-.1-1.75-.22-2.62-.36l5.8-41.7-10.9,40.67c-.86-.21-1.71-.43-2.56-.68l11.48-42.84L56.5,151.51c-.82-.32-1.63-.67-2.43-1l16.4-38.79L49.41,148.16c-.77-.42-1.54-.86-2.29-1.32l22.17-38.41-27.24,35c-.71-.53-1.4-1.08-2.09-1.63l25.87-33.21L36.06,138.34c-.63-.61-1.26-1.23-1.87-1.87l31.36-31.35L30.17,131.86c-.55-.7-1.07-1.4-1.59-2.11l33.58-25.39-36.46,21c-.46-.75-.9-1.51-1.33-2.29L62.78,101l-41.1,16.68q-.53-1.22-1-2.46l39-15.83L19,110.24c-.24-.84-.47-1.7-.68-2.56L61.19,96.2l-44,5.47c-.12-.86-.23-1.74-.32-2.62l41.78-5.19H16.54c0-.44,0-.88,0-1.33s0-.88,0-1.32H60.88L17,85.11c.1-.88.22-1.76.36-2.63L59,88.28,18.35,77.38c.21-.85.44-1.71.68-2.55L61.88,86.31,21,69c.33-.82.67-1.63,1-2.44L60.84,83,24.37,62c.43-.78.87-1.54,1.33-2.3L64.1,81.82l-35-27.24c.53-.71,1.07-1.4,1.63-2.08L64,78.36,34.19,48.6c.61-.64,1.24-1.26,1.87-1.87L67.42,78.08,40.68,42.71c.69-.55,1.39-1.08,2.11-1.6L68.17,74.7,47.12,38.23c.75-.46,1.52-.9,2.29-1.32L71.59,75.32,54.91,34.22c.81-.35,1.63-.68,2.45-1l15.83,39L62.29,31.57c.85-.25,1.7-.47,2.56-.69L76.33,73.73l-5.47-44c.87-.13,1.75-.24,2.62-.33l5.2,41.78V29.08l1.32,0,1.32,0"/><path class="cls-3" d="M54.66,64,56.29,63a.94.94,0,0,1,1.28.34l3.68,6.37A.94.94,0,0,1,60.9,71L59.28,72A.94.94,0,0,1,58,71.62l-3.68-6.38A.93.93,0,0,1,54.66,64"/><path class="cls-4" d="M68.92,44.08,64.21,46.8l-4.7,2.72c-23.68-41-14.27-46.44,9.41-5.44"/><path class="cls-5" d="M45.91,18.61a.56.56,0,0,1,.76-.2.56.56,0,0,1-.56,1,.56.56,0,0,1-.2-.76m.85-1.47a.56.56,0,1,1,.21.76A.56.56,0,0,1,46.76,17.14Zm.16,3.23a.56.56,0,0,1,.76-.21.55.55,0,0,1,.2.76.54.54,0,0,1-.75.2A.55.55,0,0,1,46.92,20.37Zm.86-1.48a.54.54,0,0,1,.75-.2.55.55,0,0,1,.21.75.56.56,0,0,1-.76.21A.55.55,0,0,1,47.78,18.89Zm.85-1.48a.55.55,0,0,1,.76-.2.56.56,0,1,1-.76.2Zm-.7,4.71a.56.56,0,0,1,.76-.21.55.55,0,0,1,.2.76.54.54,0,0,1-.75.2A.55.55,0,0,1,47.93,22.12Zm.86-1.48a.54.54,0,0,1,.75-.2.55.55,0,0,1,.21.75.56.56,0,0,1-.76.21A.55.55,0,0,1,48.79,20.64Zm.85-1.48a.56.56,0,1,1,.2.76A.56.56,0,0,1,49.64,19.16Zm-1.55,6.18a.56.56,0,0,1,.76-.2.55.55,0,0,1,.2.76.55.55,0,0,1-.76.2A.56.56,0,0,1,48.09,25.34Zm.85-1.47a.56.56,0,1,1,.21.76A.56.56,0,0,1,48.94,23.87Zm.86-1.48a.54.54,0,0,1,.76-.2.56.56,0,0,1-.56,1A.55.55,0,0,1,49.8,22.39Zm.85-1.48a.56.56,0,1,1,.2.76A.56.56,0,0,1,50.65,20.91ZM49.1,27.1a.56.56,0,0,1,.76-.21.55.55,0,0,1,.2.76.54.54,0,0,1-.75.2A.55.55,0,0,1,49.1,27.1ZM50,25.62a.54.54,0,0,1,.75-.2.55.55,0,0,1,.21.75.56.56,0,0,1-.76.21A.55.55,0,0,1,50,25.62Zm.85-1.48a.56.56,0,1,1,.2.76A.56.56,0,0,1,50.81,24.14Zm.85-1.47a.55.55,0,1,1,.2.75A.56.56,0,0,1,51.66,22.67Zm.85-1.48a.56.56,0,0,1,.76-.21.56.56,0,0,1-.55,1A.56.56,0,0,1,52.51,21.19Zm-2.4,7.66a.56.56,0,0,1,.76-.21.55.55,0,0,1,.2.76.54.54,0,0,1-.75.2A.55.55,0,0,1,50.11,28.85ZM51,27.37a.54.54,0,0,1,.75-.2.55.55,0,0,1,.21.75.56.56,0,0,1-.76.21A.55.55,0,0,1,51,27.37Zm.85-1.48a.56.56,0,1,1,.2.76A.56.56,0,0,1,51.82,25.89Zm.85-1.47a.56.56,0,0,1,.76-.21.55.55,0,0,1,.2.76.54.54,0,0,1-.75.2A.55.55,0,0,1,52.67,24.42Zm.86-1.48a.54.54,0,0,1,.75-.2.55.55,0,0,1,.21.75.56.56,0,0,1-.76.21A.55.55,0,0,1,53.53,22.94Zm-2.4,7.66a.55.55,0,0,1,.75-.21.56.56,0,1,1-.55,1A.55.55,0,0,1,51.13,30.6ZM52,29.12a.55.55,0,0,1,.76-.2.56.56,0,0,1-.56,1A.55.55,0,0,1,52,29.12Zm.85-1.48a.56.56,0,0,1,1,.56.55.55,0,0,1-.76.2A.56.56,0,0,1,52.83,27.64Zm.85-1.47a.56.56,0,0,1,.76-.21.55.55,0,0,1,.2.76.54.54,0,0,1-.75.2A.55.55,0,0,1,53.68,26.17Zm.86-1.48a.54.54,0,0,1,.75-.2.55.55,0,0,1,.21.75.56.56,0,0,1-.76.21A.55.55,0,0,1,54.54,24.69Zm-2.4,7.66a.54.54,0,0,1,.75-.2.55.55,0,0,1,.21.75.56.56,0,0,1-.76.21A.55.55,0,0,1,52.14,32.35ZM53,30.87a.56.56,0,1,1,.2.76A.56.56,0,0,1,53,30.87Zm.85-1.48a.56.56,0,0,1,.76-.2.56.56,0,0,1-.56,1A.56.56,0,0,1,53.84,29.39Zm.85-1.47a.56.56,0,1,1,.21.76A.56.56,0,0,1,54.69,27.92Zm.86-1.48a.55.55,0,0,1,.76-.2.56.56,0,0,1-.56,1A.54.54,0,0,1,55.55,26.44Zm-2.4,7.66a.54.54,0,0,1,.76-.2.56.56,0,0,1-.56,1A.54.54,0,0,1,53.15,34.1ZM54,32.62a.56.56,0,1,1,.2.76A.56.56,0,0,1,54,32.62Zm.85-1.47a.56.56,0,0,1,.76-.21.55.55,0,0,1,.2.76.54.54,0,0,1-.75.2A.55.55,0,0,1,54.85,31.15Zm.86-1.48a.54.54,0,0,1,.75-.2.55.55,0,0,1,.21.75.56.56,0,0,1-.76.21A.55.55,0,0,1,55.71,29.67Zm.85-1.48a.56.56,0,1,1,.2.76A.56.56,0,0,1,56.56,28.19Zm-4.27,7.39a.56.56,0,1,1,.21.76A.56.56,0,0,1,52.29,35.58Zm1.87.27a.55.55,0,0,1,.76-.2.56.56,0,1,1-.56,1A.55.55,0,0,1,54.16,35.85ZM55,34.37a.56.56,0,1,1,1,.56.55.55,0,0,1-.76.2A.56.56,0,0,1,55,34.37Zm.85-1.47a.56.56,0,0,1,.76-.21.55.55,0,0,1,.2.76.54.54,0,0,1-.75.2A.55.55,0,0,1,55.86,32.9Zm.86-1.48a.54.54,0,0,1,.75-.2.55.55,0,0,1,.21.75.56.56,0,0,1-.76.21A.54.54,0,0,1,56.72,31.42Zm.85-1.48a.56.56,0,1,1,.2.76A.56.56,0,0,1,57.57,29.94Zm-4.26,7.39a.54.54,0,0,1,.75-.2.55.55,0,0,1,.21.75.56.56,0,0,1-.76.21A.55.55,0,0,1,53.31,37.33Zm1.86.27a.56.56,0,1,1,.2.76A.56.56,0,0,1,55.17,37.6ZM56,36.13a.55.55,0,1,1,1,.55.54.54,0,0,1-.76.2A.55.55,0,0,1,56,36.13Zm.85-1.48a.56.56,0,0,1,1,.55.56.56,0,1,1-1-.55Zm.86-1.48a.56.56,0,1,1,.2.76A.55.55,0,0,1,57.73,33.17Zm.85-1.48a.56.56,0,0,1,1,.56.55.55,0,0,1-.76.2A.56.56,0,0,1,58.58,31.69Zm-4.26,7.39a.54.54,0,0,1,.75-.2.55.55,0,0,1,.21.75.56.56,0,0,1-.76.21A.55.55,0,0,1,54.32,39.08Zm1.86.27a.56.56,0,1,1,.2.76A.56.56,0,0,1,56.18,39.35ZM57,37.88a.56.56,0,0,1,.76-.21.55.55,0,0,1,.2.76.54.54,0,0,1-.75.2A.55.55,0,0,1,57,37.88Zm.86-1.48a.54.54,0,0,1,.75-.2.55.55,0,0,1,.21.75.56.56,0,0,1-.76.21A.55.55,0,0,1,57.89,36.4Zm.85-1.48a.56.56,0,1,1,.2.76A.56.56,0,0,1,58.74,34.92Zm.85-1.47a.55.55,0,1,1,1,.55.54.54,0,0,1-.76.2A.55.55,0,0,1,59.59,33.45ZM60.44,32a.56.56,0,0,1,.76-.21.56.56,0,0,1-.55,1A.56.56,0,0,1,60.44,32Zm-5.11,8.86a.55.55,0,0,1,.76-.2.56.56,0,1,1-.56,1A.56.56,0,0,1,55.33,40.83Zm1.86.27a.56.56,0,0,1,.76-.2.54.54,0,0,1,.2.76.55.55,0,0,1-.76.2A.56.56,0,0,1,57.19,41.1ZM58,39.63a.56.56,0,0,1,.76-.21.56.56,0,0,1-.55,1A.56.56,0,0,1,58,39.63Zm.86-1.48a.54.54,0,0,1,.75-.2.56.56,0,0,1,.21.76.56.56,0,0,1-.76.2A.54.54,0,0,1,58.9,38.15Zm.85-1.48a.56.56,0,1,1,.2.76A.56.56,0,0,1,59.75,36.67Zm.85-1.47a.56.56,0,0,1,.76-.21.55.55,0,0,1,.2.76.54.54,0,0,1-.75.2A.55.55,0,0,1,60.6,35.2Zm.86-1.48a.54.54,0,0,1,.75-.2.55.55,0,0,1,.21.75.56.56,0,0,1-.76.21A.55.55,0,0,1,61.46,33.72Zm-5.12,8.86a.56.56,0,1,1,.2.76A.56.56,0,0,1,56.34,42.58Zm1.86.28a.56.56,0,0,1,.76-.21.55.55,0,0,1,.2.76.54.54,0,0,1-.75.2A.55.55,0,0,1,58.2,42.86Zm.86-1.48a.54.54,0,0,1,.75-.2.55.55,0,0,1,.21.75.56.56,0,0,1-.76.21A.55.55,0,0,1,59.06,41.38Zm.85-1.48a.56.56,0,1,1,.2.76A.55.55,0,0,1,59.91,39.9Zm.85-1.48a.56.56,0,0,1,1,.56.55.55,0,0,1-.76.2A.56.56,0,0,1,60.76,38.42ZM61.61,37a.56.56,0,0,1,.76-.21.56.56,0,0,1-.55,1A.56.56,0,0,1,61.61,37Zm.86-1.48a.54.54,0,0,1,.75-.2.56.56,0,0,1,.21.76.57.57,0,0,1-.76.2A.54.54,0,0,1,62.47,35.47Zm-5.12,8.86a.56.56,0,1,1,.2.76A.56.56,0,0,1,57.35,44.33Zm1.86.28A.56.56,0,0,1,60,44.4a.55.55,0,0,1,.2.76.54.54,0,0,1-.75.2A.55.55,0,0,1,59.21,44.61Zm.86-1.48a.54.54,0,0,1,.75-.2.56.56,0,0,1,.21.76.57.57,0,0,1-.76.2A.55.55,0,0,1,60.07,43.13Zm.85-1.48a.56.56,0,1,1,.2.76A.56.56,0,0,1,60.92,41.65Zm.85-1.47a.55.55,0,1,1,1,.55.54.54,0,0,1-.76.2A.55.55,0,0,1,61.77,40.18Zm.85-1.48a.56.56,0,0,1,1,.55.56.56,0,0,1-1-.55Zm.86-1.48a.56.56,0,1,1,.2.76A.55.55,0,0,1,63.48,37.22Zm-5.12,8.86a.56.56,0,1,1,.2.76A.56.56,0,0,1,58.36,46.08Zm1.86.28a.56.56,0,0,1,1,.55.56.56,0,1,1-1-.55Zm.86-1.48a.54.54,0,0,1,.75-.2.56.56,0,0,1,.21.76.56.56,0,0,1-.76.2A.54.54,0,0,1,61.08,44.88Zm.85-1.48a.56.56,0,1,1,.2.76A.56.56,0,0,1,61.93,43.4Zm.85-1.47a.56.56,0,0,1,.76-.21.55.55,0,0,1,.2.76.54.54,0,0,1-.75.2A.55.55,0,0,1,62.78,41.93Zm.86-1.48a.54.54,0,0,1,.75-.2.55.55,0,0,1,.21.75.56.56,0,0,1-.76.21A.55.55,0,0,1,63.64,40.45ZM64.49,39a.56.56,0,1,1,.2.76A.55.55,0,0,1,64.49,39Zm-5.12,8.87a.55.55,0,1,1,1,.55.54.54,0,0,1-.76.2A.55.55,0,0,1,59.37,47.84Zm2.72-1.21a.56.56,0,1,1,.2.76A.55.55,0,0,1,62.09,46.63Zm.85-1.48a.56.56,0,1,1,1,.56.54.54,0,0,1-.76.2A.56.56,0,0,1,62.94,45.15Zm.85-1.47a.55.55,0,0,1,.76-.2.54.54,0,0,1,.2.75.55.55,0,0,1-.75.21A.56.56,0,0,1,63.79,43.68Zm.86-1.48a.56.56,0,0,1,1,.56.56.56,0,0,1-.76.2A.54.54,0,0,1,64.65,42.2Zm.85-1.48a.56.56,0,1,1,1,.56.55.55,0,0,1-.76.2A.56.56,0,0,1,65.5,40.72ZM65.66,44a.56.56,0,1,1,.2.76A.55.55,0,0,1,65.66,44Zm.85-1.48a.56.56,0,1,1,1,.56.54.54,0,0,1-.76.2A.56.56,0,0,1,66.51,42.47ZM60.16,30l.31.45a.53.53,0,0,1-.08.32.54.54,0,0,1-.75.2.55.55,0,0,1-.21-.75A.55.55,0,0,1,60.16,30Zm-1.25-1.81.52.74,0,.09a.54.54,0,0,1-.76.2.55.55,0,0,1-.2-.75A.54.54,0,0,1,58.91,28.19Zm-1.22-1.71q.31.42.63.87a.56.56,0,0,1-.71.12.55.55,0,0,1-.2-.75A.54.54,0,0,1,57.69,26.48Zm-1.2-1.63.65.88a.55.55,0,0,1-.54,0,.56.56,0,0,1-.2-.76A.31.31,0,0,1,56.49,24.85Zm-1.16-1.5.54.69a.49.49,0,0,1-.28-.07A.56.56,0,0,1,55.33,23.35Zm-3.57-4.14.72.76,0,0a.54.54,0,0,1-.75.2.55.55,0,0,1-.21-.75A.49.49,0,0,1,51.76,19.21Zm-1.34-1.3c.21.18.42.39.64.6a.51.51,0,0,1-.36-.07A.54.54,0,0,1,50.42,17.91ZM47.55,16a4.53,4.53,0,0,1,.87.39.56.56,0,0,1-.6,0A.55.55,0,0,1,47.55,16Zm-1.31.22a.9.9,0,0,1,.47-.27A.55.55,0,0,1,46.24,16.22Zm-.45,1.3a3.12,3.12,0,0,1,.1-.6.56.56,0,0,1,0,.5A.61.61,0,0,1,45.79,17.52Zm.3,2.92c0-.12-.05-.24-.07-.35A.53.53,0,0,1,46.09,20.44Zm.58,2.22c-.11-.37-.21-.72-.3-1.06a.5.5,0,0,1,.46,0,.56.56,0,0,1,.2.76A.53.53,0,0,1,46.67,22.66Zm.52,1.62c-.06-.17-.12-.34-.17-.52a.7.7,0,0,1,.06-.17.56.56,0,1,1,.2.76Zm1.08,2.91c-.07-.18-.15-.36-.21-.53A.57.57,0,0,1,48.27,27.19Zm.84,2.06c-.13-.32-.27-.64-.4-.95a.53.53,0,0,1,.3.07.56.56,0,0,1,.2.76A.4.4,0,0,1,49.11,29.25Zm.82,1.87-.45-1a.55.55,0,0,1,.54,0,.55.55,0,0,1,.2.76A.52.52,0,0,1,49.93,31.12Zm.81,1.79c-.14-.31-.28-.61-.41-.91a.54.54,0,0,1,.7-.13.55.55,0,0,1,.2.76A.55.55,0,0,1,50.74,32.91Zm.81,1.71-.32-.68a.37.37,0,0,1,.05-.11.56.56,0,0,1,.76-.21.55.55,0,0,1,.2.76A.56.56,0,0,1,51.55,34.62ZM62.12,48l-.93.54a.5.5,0,0,1,.05-.44.54.54,0,0,1,.75-.2A.32.32,0,0,1,62.12,48Zm2.38-1.38-.29.17-.29.17,0-.06A.58.58,0,0,1,64.5,46.63Zm1.31-.75-.64.37a.44.44,0,0,1-.16-.06.56.56,0,0,1-.21-.76.56.56,0,0,1,1,.45Zm2.71-1.57-.94.55a.54.54,0,0,1-.06-.63.55.55,0,0,1,1,.08Z"/><path class="cls-6" d="M65.38,48.83S56,43.5,51.78,42.63s-7.29-.3-7.21.44,1.7-.47,2.59.59,2.41,3,3.81,2.88,3.69,1.51,4.11,2.64,2.7,2.74,3.51,2.59,1.37,0,2.14,1.4,2.46,2.78,5.63,1.88,1.9-4.43-1-6.22"/><path class="cls-7" d="M66.45,48.35s-8.73-9-13.2-11.29-8-2.68-8.18-1.83,2,0,2.7,1.49,1.71,4.17,3.33,4.45,3.63,2.87,3.74,4.27,2.14,3.92,3.08,4,1.54.45,1.94,2.25,1.87,3.89,5.7,3.91,3.54-4.34.89-7.26"/><path class="cls-3" d="M65.38,48.82S65.45,38.05,66.82,34s3.38-6.46,4-6-1.26,1.24-.79,2.54,1.44,3.6.59,4.74-.53,3.94.24,4.88,1,3.7.49,4.32-.68,1.2.14,2.56,1.17,3.52-1.19,5.82-4.78-.57-4.9-4"/><path class="cls-6" d="M64.43,49.51s-3.39-12-3.18-17.07,1.7-8.3,2.51-8-1,1.79-.06,3.1,2.76,3.56,2.18,5.1.67,4.58,1.83,5.38,2.33,3.81,1.94,4.67-.38,1.55,1,2.81,2.44,3.56.54,6.88-5.53.9-6.74-2.86"/><path class="cls-3" d="M105.34,64,103.71,63a.94.94,0,0,0-1.28.34l-3.68,6.37A.94.94,0,0,0,99.1,71l1.62.94a.94.94,0,0,0,1.28-.34l3.68-6.38a.93.93,0,0,0-.34-1.27"/><path class="cls-4" d="M88.53,44.08l4.71,2.72L98,49.52c23.67-41,14.26-46.44-9.42-5.44"/><path class="cls-5" d="M111.54,18.61a.56.56,0,0,0-1,.56.55.55,0,0,0,.76.2.56.56,0,0,0,.2-.76m-.85-1.47a.56.56,0,0,0-.76-.21.56.56,0,0,0,.55,1A.56.56,0,0,0,110.69,17.14Zm-.16,3.23a.55.55,0,1,0-1,.55.54.54,0,0,0,.76.2A.55.55,0,0,0,110.53,20.37Zm-.85-1.48a.55.55,0,0,0-.76-.2.54.54,0,0,0-.2.75.55.55,0,0,0,.75.21A.56.56,0,0,0,109.68,18.89Zm-.86-1.48a.54.54,0,0,0-.75-.2.56.56,0,0,0-.21.76.57.57,0,0,0,.76.2A.54.54,0,0,0,108.82,17.41Zm.7,4.71a.56.56,0,0,0-.76-.21.55.55,0,0,0-.2.76.54.54,0,0,0,.75.2A.55.55,0,0,0,109.52,22.12Zm-.85-1.48a.56.56,0,0,0-1,.55.56.56,0,0,0,1-.55Zm-.86-1.48a.56.56,0,1,0-.2.76A.55.55,0,0,0,107.81,19.16Zm1.55,6.18a.56.56,0,0,0-1,.56.55.55,0,0,0,.76.2A.56.56,0,0,0,109.36,25.34Zm-.85-1.47a.56.56,0,0,0-.76-.21.56.56,0,0,0,.55,1A.56.56,0,0,0,108.51,23.87Zm-.86-1.48a.54.54,0,0,0-.75-.2.56.56,0,0,0-.21.76.57.57,0,0,0,.76.2A.54.54,0,0,0,107.65,22.39Zm-.85-1.48a.56.56,0,1,0-.2.76A.56.56,0,0,0,106.8,20.91Zm1.55,6.19a.55.55,0,1,0-1,.55.54.54,0,0,0,.76.2A.55.55,0,0,0,108.35,27.1Zm-.85-1.48a.55.55,0,0,0-.76-.2.54.54,0,0,0-.2.75.55.55,0,0,0,.75.21A.56.56,0,0,0,107.5,25.62Zm-.86-1.48a.56.56,0,0,0-1,.56.56.56,0,0,0,.76.2A.54.54,0,0,0,106.64,24.14Zm-.85-1.47a.56.56,0,0,0-.76-.21.56.56,0,0,0-.2.76.55.55,0,0,0,1-.55Zm-.85-1.48a.56.56,0,0,0-.76-.21.56.56,0,0,0,.55,1A.56.56,0,0,0,104.94,21.19Zm2.4,7.66a.56.56,0,0,0-.76-.21.55.55,0,0,0-.2.76.54.54,0,0,0,.75.2A.55.55,0,0,0,107.34,28.85Zm-.85-1.48a.56.56,0,0,0-1,.55.56.56,0,0,0,1-.55Zm-.86-1.48a.56.56,0,1,0-.2.76A.54.54,0,0,0,105.63,25.89Zm-.85-1.47a.55.55,0,1,0-1,.55.54.54,0,0,0,.76.2A.55.55,0,0,0,104.78,24.42Zm-.85-1.48a.55.55,0,0,0-.76-.2.54.54,0,0,0-.2.75.55.55,0,0,0,.75.21A.56.56,0,0,0,103.93,22.94Zm2.4,7.66a.56.56,0,0,0-.76-.21.56.56,0,0,0,.55,1A.56.56,0,0,0,106.33,30.6Zm-.86-1.48a.54.54,0,0,0-.75-.2.56.56,0,0,0-.21.76.57.57,0,0,0,.76.2A.54.54,0,0,0,105.47,29.12Zm-.85-1.48a.56.56,0,0,0-1,.56.55.55,0,0,0,.76.2A.56.56,0,0,0,104.62,27.64Zm-.85-1.47A.56.56,0,0,0,103,26a.56.56,0,1,0,.76.21Zm-.85-1.48a.56.56,0,0,0-1,.55.56.56,0,1,0,1-.55Zm2.4,7.66a.56.56,0,0,0-1,.55.56.56,0,0,0,1-.55Zm-.86-1.48a.56.56,0,0,0-1,.56.56.56,0,0,0,.76.2A.55.55,0,0,0,104.46,30.87Zm-.85-1.48a.56.56,0,0,0-1,.56.55.55,0,0,0,.76.2A.56.56,0,0,0,103.61,29.39Zm-.85-1.47a.56.56,0,0,0-.76-.21.56.56,0,0,0,.55,1A.56.56,0,0,0,102.76,27.92Zm-.86-1.48a.54.54,0,0,0-.75-.2.56.56,0,0,0-.21.76.57.57,0,0,0,.76.2A.54.54,0,0,0,101.9,26.44Zm2.4,7.66a.54.54,0,0,0-.75-.2.56.56,0,0,0-.21.76.57.57,0,0,0,.76.2A.54.54,0,0,0,104.3,34.1Zm-.85-1.48a.56.56,0,1,0-.2.76A.56.56,0,0,0,103.45,32.62Zm-.85-1.47a.55.55,0,1,0-1,.55.54.54,0,0,0,.76.2A.55.55,0,0,0,102.6,31.15Zm-.85-1.48a.55.55,0,0,0-.76-.2.54.54,0,0,0-.2.75.55.55,0,0,0,.75.21A.56.56,0,0,0,101.75,29.67Zm-.86-1.48a.56.56,0,0,0-1,.56.57.57,0,0,0,.76.2A.54.54,0,0,0,100.89,28.19Zm4.27,7.39a.56.56,0,0,0-.76-.21.56.56,0,0,0,.55,1A.56.56,0,0,0,105.16,35.58Zm-1.87.27a.54.54,0,0,0-.75-.2.56.56,0,0,0-.21.76.57.57,0,0,0,.76.2A.54.54,0,0,0,103.29,35.85Zm-.85-1.48a.56.56,0,0,0-1,.56.55.55,0,0,0,.76.2A.56.56,0,0,0,102.44,34.37Zm-.85-1.47a.56.56,0,0,0-.76-.21.56.56,0,1,0,.76.21Zm-.85-1.48a.56.56,0,0,0-1,.55.56.56,0,0,0,1-.55Zm-.86-1.48a.56.56,0,0,0-1,.56.56.56,0,0,0,.76.2A.55.55,0,0,0,99.88,29.94Zm4.27,7.39a.55.55,0,0,0-.76-.2.54.54,0,0,0-.2.75.55.55,0,0,0,.75.21A.56.56,0,0,0,104.15,37.33Zm-1.87.27a.56.56,0,1,0-.2.76A.55.55,0,0,0,102.28,37.6Zm-.85-1.47a.56.56,0,0,0-.76-.21.57.57,0,0,0-.2.76.54.54,0,0,0,.76.2A.55.55,0,0,0,101.43,36.13Zm-.85-1.48a.55.55,0,0,0-.76-.2.54.54,0,0,0-.2.75.55.55,0,0,0,.75.21A.56.56,0,0,0,100.58,34.65Zm-.86-1.48a.56.56,0,0,0-1,.56.57.57,0,0,0,.76.2A.54.54,0,0,0,99.72,33.17Zm-.85-1.48a.56.56,0,0,0-1,.56.56.56,0,1,0,1-.56Zm4.27,7.39a.56.56,0,0,0-1,.55.56.56,0,0,0,1-.55Zm-1.87.27a.56.56,0,1,0-.2.76A.56.56,0,0,0,101.27,39.35Zm-.85-1.47a.55.55,0,1,0-1,.55.54.54,0,0,0,.76.2A.55.55,0,0,0,100.42,37.88Zm-.85-1.48a.55.55,0,0,0-.76-.2.54.54,0,0,0-.2.75.55.55,0,0,0,.75.21A.56.56,0,0,0,99.57,36.4Zm-.86-1.48a.56.56,0,0,0-1,.56.57.57,0,0,0,.76.2A.54.54,0,0,0,98.71,34.92Zm-.85-1.47a.56.56,0,0,0-.76-.21.56.56,0,0,0-.2.76.54.54,0,0,0,.76.2A.55.55,0,0,0,97.86,33.45ZM97,32a.56.56,0,0,0-.76-.21.56.56,0,0,0,.55,1A.56.56,0,0,0,97,32Zm5.11,8.86a.54.54,0,0,0-.75-.2.56.56,0,0,0-.21.76.57.57,0,0,0,.76.2A.55.55,0,0,0,102.12,40.83Zm-1.86.27a.56.56,0,0,0-1,.56.55.55,0,0,0,.76.2A.56.56,0,0,0,100.26,41.1Zm-.85-1.47a.56.56,0,0,0-.76-.21.56.56,0,0,0,.55,1A.56.56,0,0,0,99.41,39.63Zm-.85-1.48a.56.56,0,0,0-1,.56.57.57,0,0,0,.76.2A.56.56,0,0,0,98.56,38.15Zm-.86-1.48a.56.56,0,1,0-.2.76A.55.55,0,0,0,97.7,36.67Zm-.85-1.47a.56.56,0,0,0-.76-.21.57.57,0,0,0-.2.76.54.54,0,0,0,.76.2A.55.55,0,0,0,96.85,35.2ZM96,33.72a.55.55,0,0,0-.76-.2.54.54,0,0,0-.2.75.55.55,0,0,0,.75.21A.56.56,0,0,0,96,33.72Zm5.11,8.86a.56.56,0,0,0-1,.56.57.57,0,0,0,.76.2A.54.54,0,0,0,101.11,42.58Zm-1.86.28a.56.56,0,0,0-.76-.21.57.57,0,0,0-.2.76.54.54,0,0,0,.76.2A.55.55,0,0,0,99.25,42.86Zm-.85-1.48a.55.55,0,0,0-.76-.2.54.54,0,0,0-.2.75.55.55,0,0,0,.75.21A.56.56,0,0,0,98.4,41.38Zm-.86-1.48a.56.56,0,0,0-1,.56.57.57,0,0,0,.76.2A.54.54,0,0,0,97.54,39.9Zm-.85-1.48a.56.56,0,0,0-1,.56.56.56,0,1,0,1-.56ZM95.84,37a.56.56,0,0,0-.76-.21.55.55,0,0,0-.2.76.56.56,0,0,0,.76.21A.57.57,0,0,0,95.84,37ZM95,35.47a.55.55,0,0,0-.76-.2A.56.56,0,0,0,94,36a.57.57,0,0,0,.76.2A.56.56,0,0,0,95,35.47Zm5.11,8.86a.56.56,0,1,0-.2.76A.55.55,0,0,0,100.1,44.33Zm-1.86.28a.55.55,0,1,0-1,.55.54.54,0,0,0,.76.2A.55.55,0,0,0,98.24,44.61Zm-.85-1.48a.55.55,0,0,0-.76-.2.56.56,0,0,0-.21.76.57.57,0,0,0,.76.2A.56.56,0,0,0,97.39,43.13Zm-.86-1.48a.56.56,0,0,0-1,.56.56.56,0,0,0,.76.2A.54.54,0,0,0,96.53,41.65Zm-.85-1.47a.56.56,0,0,0-.76-.21.57.57,0,0,0-.2.76.54.54,0,0,0,.76.2A.55.55,0,0,0,95.68,40.18Zm-.85-1.48a.55.55,0,0,0-.76-.2.54.54,0,0,0-.2.75.55.55,0,0,0,.75.21A.56.56,0,0,0,94.83,38.7ZM94,37.22a.57.57,0,0,0-.76-.2.56.56,0,0,0-.21.76.57.57,0,0,0,.76.2A.56.56,0,0,0,94,37.22Zm5.11,8.86a.56.56,0,1,0-.2.76A.56.56,0,0,0,99.09,46.08Zm-1.86.28a.55.55,0,0,0-.76-.2.54.54,0,0,0-.2.75.55.55,0,0,0,.75.21A.56.56,0,0,0,97.23,46.36Zm-.85-1.48a.56.56,0,0,0-1,.56.57.57,0,0,0,.76.2A.56.56,0,0,0,96.38,44.88Zm-.86-1.48a.56.56,0,1,0-.2.76A.55.55,0,0,0,95.52,43.4Zm-.85-1.47a.55.55,0,1,0-1,.55.54.54,0,0,0,.76.2A.55.55,0,0,0,94.67,41.93Zm-.85-1.48a.55.55,0,0,0-.76-.2.54.54,0,0,0-.2.75.55.55,0,0,0,.75.21A.56.56,0,0,0,93.82,40.45ZM93,39a.56.56,0,0,0-1,.56.57.57,0,0,0,.76.2A.54.54,0,0,0,93,39Zm5.12,8.87a.56.56,0,0,0-.76-.21.56.56,0,0,0-.2.76.54.54,0,0,0,.76.2A.55.55,0,0,0,98.08,47.84Zm-2.72-1.21a.56.56,0,0,0-1,.56.57.57,0,0,0,.76.2A.54.54,0,0,0,95.36,46.63Zm-.85-1.48a.56.56,0,1,0-1,.56.54.54,0,0,0,.76.2A.56.56,0,0,0,94.51,45.15Zm-.85-1.47a.54.54,0,0,0-.76-.2.54.54,0,0,0-.2.75.55.55,0,0,0,.75.21A.56.56,0,0,0,93.66,43.68Zm-.85-1.48a.57.57,0,0,0-.76-.2.56.56,0,0,0-.21.76.57.57,0,0,0,.76.2A.56.56,0,0,0,92.81,42.2ZM92,40.72a.56.56,0,1,0-.2.76A.54.54,0,0,0,92,40.72ZM91.79,44a.56.56,0,0,0-1,.56.57.57,0,0,0,.76.2A.54.54,0,0,0,91.79,44Zm-.85-1.48A.56.56,0,0,0,90,43a.54.54,0,0,0,.76.2A.55.55,0,0,0,90.94,42.47ZM97.29,30l-.3.45a.52.52,0,0,0,.07.32.54.54,0,0,0,.76.2.55.55,0,0,0-.53-1Zm1.25-1.81-.51.74a.36.36,0,0,0,0,.09.54.54,0,0,0,.76.2.55.55,0,0,0,.2-.75A.53.53,0,0,0,98.54,28.19Zm1.22-1.71-.62.87a.55.55,0,0,0,.9-.63A.47.47,0,0,0,99.76,26.48ZM101,24.85l-.66.88a.55.55,0,0,0,.74-.77A.44.44,0,0,0,101,24.85Zm1.15-1.5-.54.69a.47.47,0,0,0,.28-.07A.56.56,0,0,0,102.12,23.35Zm3.57-4.14c-.23.24-.47.49-.71.76v0a.54.54,0,0,0,.76.2.55.55,0,0,0,.2-.75A.49.49,0,0,0,105.69,19.21Zm1.34-1.3c-.21.18-.42.39-.64.6a.55.55,0,0,0,.64-.6ZM109.91,16a4.33,4.33,0,0,0-.88.39.56.56,0,0,0,.6,0A.59.59,0,0,0,109.91,16Zm1.3.22a.9.9,0,0,0-.47-.27A.55.55,0,0,0,111.21,16.22Zm.45,1.3a3.12,3.12,0,0,0-.1-.6.56.56,0,0,0,0,.5A.61.61,0,0,0,111.66,17.52Zm-.3,2.92c0-.12,0-.24.07-.35A.6.6,0,0,0,111.36,20.44Zm-.58,2.22c.12-.37.21-.72.3-1.06a.51.51,0,0,0-.46,0,.56.56,0,0,0-.2.76A.55.55,0,0,0,110.78,22.66Zm-.52,1.62c.06-.17.12-.34.17-.52a.7.7,0,0,0-.06-.17.56.56,0,1,0-.2.76Zm-1.08,2.91c.07-.18.15-.36.21-.53A.57.57,0,0,0,109.18,27.19Zm-.84,2.06c.14-.32.27-.64.4-.95a.55.55,0,0,0-.3.07.56.56,0,0,0-.2.76A.4.4,0,0,0,108.34,29.25Zm-.82,1.87c.15-.34.31-.68.45-1a.55.55,0,0,0-.54,0,.56.56,0,0,0-.2.76A.52.52,0,0,0,107.52,31.12Zm-.81,1.79.42-.91a.55.55,0,0,0-.71-.13.56.56,0,0,0-.2.76A.55.55,0,0,0,106.71,32.91Zm-.81,1.71.32-.68a.37.37,0,0,0,0-.11.55.55,0,1,0-1,.55A.56.56,0,0,0,105.9,34.62ZM95.33,48l.94.54a.57.57,0,0,0,0-.44.55.55,0,0,0-.76-.2A.41.41,0,0,0,95.33,48ZM93,46.63l.29.17.29.17,0-.06A.58.58,0,0,0,93,46.63Zm-1.31-.75.64.37a.44.44,0,0,0,.16-.06.56.56,0,0,0,.21-.76.56.56,0,0,0-1,.45Zm-2.71-1.57.95.55a.56.56,0,0,0-.71-.84A.61.61,0,0,0,88.93,44.31Z"/><path class="cls-6" d="M92.08,48.83s9.35-5.33,13.6-6.2,7.28-.3,7.2.44-1.7-.47-2.59.59-2.41,3-3.81,2.88-3.69,1.51-4.11,2.64-2.7,2.74-3.5,2.59-1.38,0-2.14,1.4S94.26,56,91.09,55.05s-1.9-4.43,1-6.22"/><path class="cls-7" d="M91,48.35s8.74-9,13.2-11.29,8-2.68,8.19-1.83-2.06,0-2.71,1.49-1.71,4.17-3.33,4.45-3.63,2.87-3.74,4.27-2.14,3.92-3.08,4S98,49.9,97.59,51.7s-1.86,3.89-5.69,3.91-3.55-4.34-.9-7.26"/><path class="cls-3" d="M92.07,48.82S92,38.05,90.63,34s-3.38-6.46-4-6,1.26,1.24.79,2.54-1.44,3.6-.59,4.74.53,3.94-.24,4.88-1,3.7-.49,4.32S86.8,45.61,86,47s-1.17,3.52,1.19,5.82,4.79-.57,4.9-4"/><path class="cls-6" d="M93,49.51s3.39-12,3.18-17.07-1.7-8.3-2.51-8,1,1.79.06,3.1-2.76,3.56-2.18,5.1S90.9,37.21,89.74,38s-2.33,3.81-1.94,4.67.38,1.55-1,2.81-2.44,3.56-.54,6.88,5.53.9,6.74-2.86"/><path class="cls-8" d="M80,45.94A46.6,46.6,0,1,1,33.41,92.53,46.59,46.59,0,0,1,80,45.94"/><path class="cls-3" d="M77.94,42.92h1.33a.67.67,0,0,1,.67.67v5.24a.67.67,0,0,1-.67.67H77.94a.67.67,0,0,1-.67-.67V43.59a.67.67,0,0,1,.67-.67"/><path class="cls-4" d="M83.67,37.09H73.54C73.54-7,83.67-7,83.67,37.09"/><path class="cls-5" d="M77,5.81a.52.52,0,1,1,.52.9.52.52,0,1,1-.52-.9M78.35,5a.51.51,0,0,1,.7.19.51.51,0,1,1-.7-.19ZM77,7.7a.51.51,0,0,1,.71.19.52.52,0,0,1-.19.7A.52.52,0,1,1,77,7.7Zm1.38-.8a.52.52,0,1,1-.19.71A.51.51,0,0,1,78.35,6.9Zm1.37-.79a.52.52,0,1,1-.19.7A.52.52,0,0,1,79.72,6.11ZM77,9.58a.52.52,0,0,1,.71.19.52.52,0,0,1-.9.52A.52.52,0,0,1,77,9.58Zm1.38-.79a.51.51,0,1,1-.19.7A.5.5,0,0,1,78.35,8.79ZM79.72,8a.52.52,0,1,1-.19.71A.53.53,0,0,1,79.72,8Zm-4.13,4.27a.52.52,0,1,1,.52.9.52.52,0,0,1-.52-.9ZM77,11.47a.52.52,0,0,1,.71.18.53.53,0,0,1-.19.71.52.52,0,0,1-.71-.19A.51.51,0,0,1,77,11.47Zm1.38-.8a.52.52,0,0,1,.51.9.52.52,0,0,1-.7-.19A.51.51,0,0,1,78.35,10.67Zm1.37-.79a.52.52,0,1,1,.52.89.52.52,0,1,1-.52-.89Zm-4.13,4.26a.53.53,0,0,1,.71.19.52.52,0,1,1-.9.52A.53.53,0,0,1,75.59,14.14ZM77,13.35a.52.52,0,0,1,.71.19.52.52,0,1,1-.9.52A.52.52,0,0,1,77,13.35Zm1.38-.79a.51.51,0,1,1-.19.7A.5.5,0,0,1,78.35,12.56Zm1.37-.8a.52.52,0,0,1,.52.9.52.52,0,0,1-.52-.9ZM81.1,11a.51.51,0,0,1,.71.19.52.52,0,0,1-.9.51A.51.51,0,0,1,81.1,11ZM75.59,16a.52.52,0,0,1,.71.19.51.51,0,0,1-.19.7.51.51,0,0,1-.71-.19A.52.52,0,0,1,75.59,16Zm1.38-.8a.52.52,0,0,1,.52.9.52.52,0,0,1-.52-.9Zm1.38-.79a.52.52,0,0,1,.51.9.52.52,0,0,1-.7-.19A.51.51,0,0,1,78.35,14.44Zm1.37-.8a.53.53,0,0,1,.71.19.52.52,0,1,1-.9.52A.53.53,0,0,1,79.72,13.64Zm1.38-.79a.52.52,0,0,1,.71.19.52.52,0,0,1-.9.52A.52.52,0,0,1,81.1,12.85Zm-5.51,5.06a.53.53,0,0,1,.71.19.52.52,0,0,1-.9.52A.53.53,0,0,1,75.59,17.91ZM77,17.12a.52.52,0,0,1,.71.19.52.52,0,1,1-.71-.19Zm1.38-.8a.52.52,0,0,1,.7.19.52.52,0,1,1-.7-.19Zm1.37-.79a.52.52,0,0,1,.71.19.51.51,0,0,1-.19.7.52.52,0,0,1-.71-.18A.53.53,0,0,1,79.72,15.53Zm1.38-.8a.52.52,0,0,1,.52.9.52.52,0,1,1-.52-.9ZM75.59,19.8a.52.52,0,1,1-.19.7A.52.52,0,0,1,75.59,19.8ZM77,19a.52.52,0,0,1,.71.19.53.53,0,0,1-.19.71A.52.52,0,1,1,77,19Zm1.38-.79a.51.51,0,0,1,.7.19.51.51,0,1,1-.7-.19Zm1.37-.8a.53.53,0,0,1,.71.19.52.52,0,0,1-.9.52A.53.53,0,0,1,79.72,17.41Zm1.38-.79a.52.52,0,0,1,.71.19.52.52,0,1,1-.71-.19Zm-5.51,5.06a.52.52,0,1,1-.19.71A.53.53,0,0,1,75.59,21.68ZM77,20.89a.51.51,0,0,1,.71.19.52.52,0,0,1-.19.7.52.52,0,1,1-.52-.89Zm1.38-.8a.52.52,0,1,1-.19.71A.51.51,0,0,1,78.35,20.09Zm1.37-.79a.52.52,0,0,1,.71.19.52.52,0,0,1-.9.51A.52.52,0,0,1,79.72,19.3Zm1.38-.8a.52.52,0,0,1,.52.9.52.52,0,0,1-.52-.9Zm-6.88,4a.51.51,0,0,1,.51.89.51.51,0,1,1-.51-.89Zm1.37,1.09a.52.52,0,1,1,.52.89.52.52,0,1,1-.52-.89Zm1.38-.8a.52.52,0,0,1,.71.19.53.53,0,0,1-.19.71.52.52,0,1,1-.52-.9ZM78.35,22a.51.51,0,0,1,.51.89.51.51,0,0,1-.7-.19A.5.5,0,0,1,78.35,22Zm1.37-.8a.52.52,0,1,1-.19.71A.53.53,0,0,1,79.72,21.18Zm1.38-.79a.51.51,0,0,1,.71.19.52.52,0,0,1-.19.7.52.52,0,1,1-.52-.89Zm-6.88,4a.52.52,0,0,1,.51.9.52.52,0,0,1-.51-.9Zm1.37,1.09a.52.52,0,0,1,.52.9.52.52,0,1,1-.52-.9ZM77,24.66a.51.51,0,0,1,.71.19.52.52,0,0,1-.9.51A.51.51,0,0,1,77,24.66Zm1.38-.8a.52.52,0,0,1,.51.9.52.52,0,0,1-.7-.19A.51.51,0,0,1,78.35,23.86Zm1.37-.79a.52.52,0,1,1,.52.89.52.52,0,1,1-.52-.89Zm1.38-.8a.52.52,0,0,1,.71.19.52.52,0,0,1-.9.52A.52.52,0,0,1,81.1,22.27Zm-6.88,4A.51.51,0,1,1,74,27,.51.51,0,0,1,74.22,26.25Zm1.37,1.08a.53.53,0,0,1,.71.19.52.52,0,0,1-.9.52A.53.53,0,0,1,75.59,27.33ZM77,26.54a.52.52,0,0,1,.71.19.52.52,0,0,1-.9.52A.52.52,0,0,1,77,26.54Zm1.38-.8a.52.52,0,0,1,.7.19.52.52,0,1,1-.7-.19ZM79.72,25a.52.52,0,0,1,.52.9.52.52,0,1,1-.52-.9Zm1.38-.79a.51.51,0,0,1,.71.19.52.52,0,0,1-.9.51A.51.51,0,0,1,81.1,24.16Zm1.38-.8a.52.52,0,1,1-.19.71A.51.51,0,0,1,82.48,23.36Zm-8.26,4.77a.51.51,0,0,1,.7.19.5.5,0,0,1-.19.7.51.51,0,0,1-.7-.18A.52.52,0,0,1,74.22,28.13Zm1.37,1.09a.52.52,0,0,1,.71.19.51.51,0,0,1-.19.7.52.52,0,0,1-.71-.18A.53.53,0,0,1,75.59,29.22Zm1.38-.8a.52.52,0,1,1,.52.9.52.52,0,1,1-.52-.9Zm1.38-.79a.52.52,0,0,1,.51.9.52.52,0,0,1-.7-.19A.51.51,0,0,1,78.35,27.63Zm1.37-.8a.53.53,0,0,1,.71.19.52.52,0,0,1-.9.52A.53.53,0,0,1,79.72,26.83ZM81.1,26a.52.52,0,0,1,.71.19.52.52,0,0,1-.9.52A.52.52,0,0,1,81.1,26Zm1.38-.79a.51.51,0,1,1-.19.7A.5.5,0,0,1,82.48,25.25ZM74.22,30a.52.52,0,0,1,.7.19.52.52,0,1,1-.89.52A.52.52,0,0,1,74.22,30Zm1.37,1.09a.53.53,0,0,1,.71.19.52.52,0,0,1-.9.52A.53.53,0,0,1,75.59,31.1ZM77,30.31a.52.52,0,1,1,.52.89.52.52,0,1,1-.52-.89Zm1.38-.8a.52.52,0,0,1,.7.19.52.52,0,1,1-.7-.19Zm1.37-.79a.52.52,0,0,1,.71.19.51.51,0,0,1-.19.7.52.52,0,0,1-.71-.18A.53.53,0,0,1,79.72,28.72Zm1.38-.8a.52.52,0,1,1,.52.9.52.52,0,1,1-.52-.9Zm1.38-.79A.52.52,0,0,1,83,28a.52.52,0,0,1-.7-.19A.51.51,0,0,1,82.48,27.13ZM74.22,31.9a.51.51,0,1,1-.19.7A.51.51,0,0,1,74.22,31.9ZM75.59,33a.52.52,0,0,1,.71.19.52.52,0,0,1-.9.51A.52.52,0,0,1,75.59,33Zm1.38-.8a.52.52,0,0,1,.71.19.53.53,0,0,1-.19.71.52.52,0,0,1-.52-.9Zm1.38-.79a.51.51,0,0,1,.7.19.51.51,0,1,1-.7-.19Zm1.37-.8a.53.53,0,0,1,.71.19.52.52,0,0,1-.9.52A.53.53,0,0,1,79.72,30.6Zm1.38-.79a.52.52,0,0,1,.71.19.52.52,0,1,1-.71-.19Zm1.38-.8a.52.52,0,0,1,.7.19.52.52,0,1,1-.7-.19Zm-8.26,4.77a.52.52,0,1,1-.19.71A.52.52,0,0,1,74.22,33.78Zm1.37,1.09a.52.52,0,1,1-.19.71A.53.53,0,0,1,75.59,34.87ZM77,34.08a.51.51,0,0,1,.71.19.52.52,0,0,1-.19.7.52.52,0,1,1-.52-.89Zm1.38-.8a.52.52,0,1,1-.19.71A.51.51,0,0,1,78.35,33.28Zm1.37-.79a.52.52,0,1,1-.19.7A.52.52,0,0,1,79.72,32.49Zm1.38-.8a.52.52,0,0,1,.71.19.53.53,0,0,1-.19.71.52.52,0,1,1-.52-.9Zm1.38-.79a.51.51,0,0,1,.7.19.51.51,0,1,1-.7-.19Zm-8.26,4.77a.51.51,0,1,1,.51.89.51.51,0,1,1-.51-.89ZM77,36a.52.52,0,0,1,.71.19.52.52,0,0,1-.9.52A.52.52,0,0,1,77,36Zm1.38-.79a.51.51,0,1,1-.19.7A.5.5,0,0,1,78.35,35.17Zm1.37-.8a.52.52,0,1,1-.19.71A.53.53,0,0,1,79.72,34.37Zm1.38-.79a.51.51,0,0,1,.71.19.52.52,0,0,1-.19.7.52.52,0,1,1-.52-.89Zm1.38-.8a.52.52,0,1,1-.19.71A.51.51,0,0,1,82.48,32.78ZM81.1,35.46a.52.52,0,0,1,.71.19.53.53,0,0,1-.19.71.52.52,0,0,1-.52-.9Zm1.38-.79a.51.51,0,1,1-.19.7A.5.5,0,0,1,82.48,34.67Zm.68-13,0,.51a.45.45,0,0,1-.21.22.51.51,0,1,1,.17-.73Zm-.16-2c0,.27,0,.55.07.83l-.08.06a.52.52,0,0,1-.51-.9A.49.49,0,0,1,83,19.6Zm-.19-2c0,.33.07.66.1,1a.49.49,0,0,1-.62-.23.5.5,0,0,1,.19-.7A.55.55,0,0,1,82.81,17.64Zm-.21-1.87q.06.5.12,1a.53.53,0,0,1-.43-.26.51.51,0,0,1,.19-.71ZM82.36,14q.06.39.12.81a.5.5,0,0,1-.19-.19A.52.52,0,0,1,82.36,14Zm-1-5c.08.3.15.62.23,1h0a.52.52,0,1,1-.52-.9A.5.5,0,0,1,81.41,9Zm-.47-1.68c.08.25.16.51.24.79a.51.51,0,0,1-.27-.23A.52.52,0,0,1,80.94,7.34ZM79.51,4.47a3.73,3.73,0,0,1,.52.72.54.54,0,0,1-.5-.26A.5.5,0,0,1,79.51,4.47ZM78.35,4a.89.89,0,0,1,.51,0A.52.52,0,0,1,78.35,4Zm-1,.84a3.4,3.4,0,0,1,.36-.44.47.47,0,0,1-.25.39Zm-1.12,2.5.11-.32A.52.52,0,0,1,76.26,7.37Zm-.57,2.06c.09-.35.17-.68.26-1a.55.55,0,0,1,.35.25.52.52,0,0,1-.19.71A.56.56,0,0,1,75.69,9.43ZM75.36,11c0-.17.07-.34.1-.51l.13-.1a.52.52,0,1,1,.52.89.52.52,0,0,1-.71-.19Zm-.48,2.84c0-.17.05-.35.07-.52A.51.51,0,0,1,74.88,13.83Zm-.28,2.06.12-1a.55.55,0,0,1,.2.2.5.5,0,0,1-.19.7A.38.38,0,0,1,74.6,15.89Zm-.22,1.89c0-.35.08-.69.11-1a.52.52,0,0,1,.24,1A.54.54,0,0,1,74.38,17.78Zm-.17,1.82c0-.32.06-.62.09-.93a.51.51,0,0,1,.43.93A.51.51,0,0,1,74.21,19.6Zm-.14,1.76c0-.24,0-.47.05-.7l.1-.07a.52.52,0,1,1-.15.77Zm2.29,15.73h-1a.48.48,0,0,1,.24-.33.51.51,0,0,1,.71.19A.35.35,0,0,1,76.36,37.09Zm2.56,0h-.63l.06,0A.5.5,0,0,1,78.92,37.09Zm1.41,0h-.69a.69.69,0,0,1-.11-.13.52.52,0,0,1,.19-.7.52.52,0,0,1,.61.83Zm2.91,0h-1a.52.52,0,0,1,.26-.54.51.51,0,0,1,.7.19A.48.48,0,0,1,83.24,37.09Z"/><path class="cls-6" d="M78.6,39.27s-5.07-8.67-8.09-11.34-5.74-3.64-6-3,1.6.42,1.82,1.69.52,3.57,1.73,4.1,2.27,2.94,2.09,4,.9,3.46,1.62,3.72,1.11.64,1.07,2.13.7,3.38,3.68,4.14,3.59-2.69,2.1-5.48"/><path class="cls-7" d="M79.69,39.38s-2.87-11.3-5.39-15.26-5.24-5.91-5.75-5.29,1.64,1,1.49,2.46-.57,4.17.61,5.14,1.6,4,1,5.19-.1,4.16.62,4.68,1,1.07.51,2.72-.31,4,2.77,5.8,4.89-1.85,4.11-5.44"/><path class="cls-3" d="M78.61,39.27s5.07-8.67,8.09-11.34,5.74-3.64,6-3-1.6.42-1.82,1.69-.52,3.57-1.73,4.1-2.27,2.94-2.09,4-.9,3.46-1.62,3.72-1.11.64-1.07,2.13-.7,3.38-3.68,4.14-3.59-2.69-2.1-5.48"/><path class="cls-6" d="M77.52,39.38s2.87-11.3,5.39-15.26,5.24-5.91,5.75-5.29-1.64,1-1.49,2.46.57,4.17-.61,5.14-1.6,4-1,5.19.1,4.16-.62,4.68-1,1.07-.51,2.72.31,4-2.77,5.8S76.74,43,77.52,39.38"/><path class="cls-9" d="M128.13,70.64a2.29,2.29,0,0,1-1.84.15,2.9,2.9,0,0,1-1.53-1.51,3.28,3.28,0,0,1-.51-1.85,1,1,0,0,1,.51-.87,1.33,1.33,0,0,1,.61-.19,1.39,1.39,0,0,1,.56.13,6.24,6.24,0,0,0-.07,1.17,2.34,2.34,0,0,0,.16.89,1.13,1.13,0,0,0,.24.35.21.21,0,0,0,.17.07.38.38,0,0,0,.17-.06.53.53,0,0,0,.22-.46,5.6,5.6,0,0,0,0-.84c0-.32,0-.65,0-1a2.43,2.43,0,0,1,.31-1,1.83,1.83,0,0,1,.77-.74,2.08,2.08,0,0,1,1-.24,2.52,2.52,0,0,1,1,.22,1.27,1.27,0,0,1,1.16.13,3.09,3.09,0,0,1,1.17,1.34c.61,1.18.42,2-.57,2.55a1.38,1.38,0,0,1-1.66-.16,4.19,4.19,0,0,0-.18-2.51,1.38,1.38,0,0,0-.66,1.08,5.39,5.39,0,0,0-.05.71c0,.25,0,.49,0,.74a4.16,4.16,0,0,1-.1.72A1.72,1.72,0,0,1,128.13,70.64Z"/><path class="cls-9" d="M135,74.61c-.32.16-.53.27-.65.31L134,75a1.23,1.23,0,0,1-.39.06,1.29,1.29,0,0,1-.43-.07,1.1,1.1,0,0,1-.66-.75,1.13,1.13,0,0,1-.05-.78,2.36,2.36,0,0,1,.4-.74,7.18,7.18,0,0,0-1.89.46,2.65,2.65,0,0,0-1.63,1.32,1.25,1.25,0,0,0,0,.93,3.27,3.27,0,0,0,.68,1,1.53,1.53,0,0,1-.62.25,1.61,1.61,0,0,1-.62,0,1.37,1.37,0,0,1-.52-.2,2.63,2.63,0,0,1-.93-1.33,2.71,2.71,0,0,1,.17-2.57,3.3,3.3,0,0,1,.82-.8,5.81,5.81,0,0,1,1.32-.69,4.48,4.48,0,0,1,2.43-.3,3.46,3.46,0,0,1,1.74.83,1.64,1.64,0,0,1,.58.19,1.08,1.08,0,0,1,.46.6,2.33,2.33,0,0,1,.08,1.09A2.13,2.13,0,0,0,135,74.61Z"/><path class="cls-9" d="M130.11,83.61a1.56,1.56,0,0,1-.31-.32,1.78,1.78,0,0,1-.3-.68c-.15-.61.21-1.1,1.08-1.48a7.79,7.79,0,0,1-.26-.9,3.74,3.74,0,0,1-.13-.69,2.39,2.39,0,0,1-1.14-.15,1,1,0,0,1-.49-.7,1.41,1.41,0,0,1,0-.5,1.12,1.12,0,0,1,.1-.37l.06-.13c3.51-.54,5.68-.64,6.53-.29a1.38,1.38,0,0,1,.59.42,1.45,1.45,0,0,1,.2.42,2,2,0,0,1,.05.27.45.45,0,0,0,0,.08l.21-.1.13.07a1,1,0,0,1,.27.28,1.3,1.3,0,0,1,.27.58,1.4,1.4,0,0,1-.27,1.28A5.66,5.66,0,0,1,134.77,82a47.17,47.17,0,0,1-4.49,1.74Zm1.39-4.18a6.78,6.78,0,0,1,.22.72,3.86,3.86,0,0,1,.09.45L135,79.1C134,79.15,132.8,79.27,131.5,79.43Z"/><path class="cls-9" d="M138,87.72a1.45,1.45,0,0,1,.44,1,1.4,1.4,0,0,1-.22,1.06,1.62,1.62,0,0,1-1.1.41c-.56.06-1.58.1-3.07.12s-2.57.07-3.21.13a2,2,0,0,1-.47-1.24.68.68,0,0,1,.09-.53c.07-.69,1.45-1.58,4.15-2.65-1.56.1-3,.21-4.26.34q-.29-.19-.36-1c-.06-.54.14-.84.59-.91l6.75-1a3,3,0,0,1,.64,1.42.93.93,0,0,1-.07.52,1.28,1.28,0,0,1,.08.29.75.75,0,0,1-.41.76,10.54,10.54,0,0,1-1.59.69l-1.44.53-.84.32-1,.39c.66,0,1.23-.09,1.71-.14,1.36-.14,2.37-.27,3-.4Z"/><path class="cls-9" d="M138.27,96a2.58,2.58,0,0,1,.07.42,3,3,0,0,1,0,.59.73.73,0,0,1-.19.45,1.54,1.54,0,0,1,0,.49.83.83,0,0,1-.71.77c-.5.09-2,.17-4.47.23,2.27.68,3.63,1.11,4.08,1.3s.69.4.75.63a1.38,1.38,0,0,1-.06.55,3.31,3.31,0,0,1,0,.63c-.07.55-.2.9-.41,1a1.44,1.44,0,0,1-1,.12l-2.65-.45q-2.62-.47-3.81-.6a2.52,2.52,0,0,1-.08-1.13.63.63,0,0,1,.77-.63l4.15.4q-4.28-1.33-4.18-2.11l0-.15A.65.65,0,0,1,131,98a12.86,12.86,0,0,1,4.25-.68c-1.88-.33-3.43-.57-4.67-.71a2.1,2.1,0,0,1-.1-.9c.06-.53.32-.77.77-.74l6.8.51a.54.54,0,0,1,.15.19A1.34,1.34,0,0,1,138.27,96Z"/><path class="cls-9" d="M133.51,108.33l.43-1.54a7.51,7.51,0,0,0-1.16-.38l-.07,0-.53,2.17a2.23,2.23,0,0,1-.5-.07.63.63,0,0,1-.54-.84l.4-1.52c-.55-.08-.9,0-1.07.27a2.2,2.2,0,0,0-.09.21,4.5,4.5,0,0,0,0,1.43c-.15.17-.39.21-.74.12a1.37,1.37,0,0,1-.86-.76,2.34,2.34,0,0,1,0-1.76,2.71,2.71,0,0,1,1.07-1.64,2.93,2.93,0,0,1,2.48-.19,5.4,5.4,0,0,1,2.14,1.07l0-.28a1.55,1.55,0,0,1,1.13,0c1.08.28,1.52.8,1.33,1.54l-.09.35c0,.19-.2.6-.43,1.21a19.42,19.42,0,0,0-.62,2,3.08,3.08,0,0,1-1.08-.15,2.56,2.56,0,0,1-1-.46A.65.65,0,0,1,133.51,108.33Z"/><path class="cls-9" d="M98.17,142.32a2.19,2.19,0,0,1,0-1.84,2.81,2.81,0,0,1,1.62-1.41,3.29,3.29,0,0,1,1.87-.38,1.08,1.08,0,0,1,.84.58,1.32,1.32,0,0,1,.14.62,1.27,1.27,0,0,1-.17.55,6.88,6.88,0,0,0-1.17-.16,2.56,2.56,0,0,0-.9.09,1.07,1.07,0,0,0-.36.22.28.28,0,0,0-.09.17.51.51,0,0,0,0,.17c.05.13.2.21.44.25a6.18,6.18,0,0,0,.84.09,8.35,8.35,0,0,1,1,.1,2.45,2.45,0,0,1,1,.38,1.87,1.87,0,0,1,.68.82,2,2,0,0,1,.16,1.05,2.44,2.44,0,0,1-.29,1,1.28,1.28,0,0,1-.22,1.14,3,3,0,0,1-1.42,1.07c-1.23.53-2.07.27-2.51-.76a1.39,1.39,0,0,1,.29-1.64,4.2,4.2,0,0,0,2.52,0,1.4,1.4,0,0,0-1-.74,5.13,5.13,0,0,0-.7-.1c-.25,0-.5-.05-.74-.09a3.88,3.88,0,0,1-.71-.15A1.71,1.71,0,0,1,98.17,142.32Z"/><path class="cls-9" d="M93.68,148.92a6.1,6.1,0,0,1-.25-.67c0-.12-.07-.24-.1-.36a.9.9,0,0,1,0-.4,1.6,1.6,0,0,1,.1-.42,1.12,1.12,0,0,1,.8-.6,1.22,1.22,0,0,1,.78,0,2.43,2.43,0,0,1,.71.46,7.25,7.25,0,0,0-.32-1.92,2.64,2.64,0,0,0-1.19-1.72,1.23,1.23,0,0,0-.93-.07,3.28,3.28,0,0,0-1.08.6,1.6,1.6,0,0,1-.2-.64,1.75,1.75,0,0,1,0-.62,1.38,1.38,0,0,1,.25-.5,2.62,2.62,0,0,1,1.39-.83,2.71,2.71,0,0,1,2.55.37,3.3,3.3,0,0,1,.74.87,6,6,0,0,1,.59,1.37,4.43,4.43,0,0,1,.11,2.45,3.41,3.41,0,0,1-1,1.67,1.39,1.39,0,0,1-.23.56,1.14,1.14,0,0,1-.63.42,2.36,2.36,0,0,1-1.09,0A2.18,2.18,0,0,0,93.68,148.92Z"/><path class="cls-9" d="M85.09,143.32a1.69,1.69,0,0,1,.34-.28,1.76,1.76,0,0,1,.7-.26c.62-.1,1.08.3,1.39,1.2a7,7,0,0,1,.93-.2,3.34,3.34,0,0,1,.69-.07,2.39,2.39,0,0,1,.23-1.13,1,1,0,0,1,.74-.44,1.67,1.67,0,0,1,.5,0,1.1,1.1,0,0,1,.36.13l.13.07c.27,3.54.2,5.71-.21,6.53a1.36,1.36,0,0,1-.46.56,1.39,1.39,0,0,1-.44.16l-.27,0h-.08l.08.21a.9.9,0,0,1-.07.14,1.12,1.12,0,0,1-.3.24,1.4,1.4,0,0,1-.6.23,1.47,1.47,0,0,1-1.26-.37,5.94,5.94,0,0,1-1.11-2,46.47,46.47,0,0,1-1.4-4.61Zm4.06,1.7a5.36,5.36,0,0,1-.74.16l-.45.06c.49,1.31.91,2.42,1.26,3.32C89.24,147.51,89.22,146.32,89.15,145Z"/><path class="cls-9" d="M80.37,150.89a1.42,1.42,0,0,1-1.05.36,1.44,1.44,0,0,1-1-.29,1.65,1.65,0,0,1-.33-1.14c0-.55,0-1.58.11-3.07s.13-2.56.12-3.21a2.05,2.05,0,0,1,1.26-.38.69.69,0,0,1,.52.14q1,.18,2.34,4.33c0-1.56,0-3,0-4.27.14-.18.48-.27,1-.29s.82.21.85.66l.52,6.81a3,3,0,0,1-1.46.53,1.14,1.14,0,0,1-.53-.1,1,1,0,0,1-.29.05.75.75,0,0,1-.72-.46,10.65,10.65,0,0,1-.57-1.64l-.42-1.48c-.07-.2-.15-.49-.25-.86l-.32-1.06c0,.65,0,1.23,0,1.71,0,1.37.09,2.38.18,3.06Z"/><path class="cls-9" d="M72.12,150.54a2.24,2.24,0,0,1-.43,0,3.09,3.09,0,0,1-.58-.06.68.68,0,0,1-.44-.22,1.45,1.45,0,0,1-.49,0,.81.81,0,0,1-.71-.77,43.71,43.71,0,0,1,.1-4.47c-.85,2.22-1.38,3.54-1.6,4s-.45.66-.69.7a1.11,1.11,0,0,1-.54-.09,3.31,3.31,0,0,1-.62-.05c-.55-.11-.89-.27-1-.49a1.51,1.51,0,0,1,0-1l.65-2.6c.44-1.73.73-3,.88-3.75a2.42,2.42,0,0,1,1.14,0,.62.62,0,0,1,.56.81l-.7,4.1q1.65-4.15,2.41-4l.15,0a.66.66,0,0,1,.49.43,13,13,0,0,1,.36,4.28c.47-1.84.83-3.37,1.06-4.6a2,2,0,0,1,.91,0c.51.1.74.38.67.83l-1,6.74a.76.76,0,0,1-.2.13A1.86,1.86,0,0,1,72.12,150.54Z"/><path class="cls-9" d="M60.17,144.86l1.5.55a8.26,8.26,0,0,0,.47-1.13l0-.07L60,143.52a2,2,0,0,1,.11-.49.62.62,0,0,1,.87-.48l1.49.51c.12-.54.06-.9-.19-1.08a.69.69,0,0,0-.21-.1,4.15,4.15,0,0,0-1.41-.11.67.67,0,0,1-.07-.74,1.45,1.45,0,0,1,.82-.81,2.4,2.4,0,0,1,1.77.09,2.7,2.7,0,0,1,1.54,1.19,2.92,2.92,0,0,1,0,2.49,5.33,5.33,0,0,1-1.23,2l.27.07a1.51,1.51,0,0,1-.07,1.13c-.37,1.06-.91,1.46-1.64,1.21l-.34-.12c-.19-.06-.58-.24-1.17-.51a19.3,19.3,0,0,0-1.9-.77,3.21,3.21,0,0,1,.23-1.06,2.36,2.36,0,0,1,.54-1A.66.66,0,0,1,60.17,144.86Z"/><path class="cls-9" d="M29.84,110a2.23,2.23,0,0,1,1.84,0,2.89,2.89,0,0,1,1.39,1.65,3.4,3.4,0,0,1,.34,1.88,1.12,1.12,0,0,1-.6.83,1.24,1.24,0,0,1-.62.12,1.06,1.06,0,0,1-.54-.18,5.78,5.78,0,0,0,.17-1.16,2.23,2.23,0,0,0-.07-.9,1.09,1.09,0,0,0-.21-.37.29.29,0,0,0-.16-.09.49.49,0,0,0-.18,0c-.13,0-.22.2-.26.43a6.06,6.06,0,0,0-.1.84,8.45,8.45,0,0,1-.12,1,2.25,2.25,0,0,1-.4,1,1.81,1.81,0,0,1-.83.67,2,2,0,0,1-1.06.14,2.36,2.36,0,0,1-1-.31,1.29,1.29,0,0,1-1.15-.24,3,3,0,0,1-1-1.43c-.5-1.24-.23-2.08.81-2.5a1.38,1.38,0,0,1,1.63.32,4.17,4.17,0,0,0,0,2.51,1.44,1.44,0,0,0,.76-1c.05-.22.08-.46.11-.7s.06-.5.1-.74a5.25,5.25,0,0,1,.16-.71A1.69,1.69,0,0,1,29.84,110Z"/><path class="cls-9" d="M23.32,105.37c.34-.13.56-.21.68-.24l.36-.1a1.29,1.29,0,0,1,.4,0,2.17,2.17,0,0,1,.42.11,1.11,1.11,0,0,1,.58.81,1.24,1.24,0,0,1,0,.79,2.23,2.23,0,0,1-.47.69,6.76,6.76,0,0,0,1.93-.28A2.59,2.59,0,0,0,28.94,106,1.23,1.23,0,0,0,29,105a3.53,3.53,0,0,0-.58-1.09,1.58,1.58,0,0,1,.64-.19,1.72,1.72,0,0,1,.62.06,1.34,1.34,0,0,1,.49.25,2.58,2.58,0,0,1,.8,1.41,2.69,2.69,0,0,1-.4,2.54,3.39,3.39,0,0,1-.89.72,5.67,5.67,0,0,1-1.38.57,4.48,4.48,0,0,1-2.45.07,3.33,3.33,0,0,1-1.65-1,1.42,1.42,0,0,1-.56-.24,1.14,1.14,0,0,1-.41-.64,2.26,2.26,0,0,1,0-1.09A2.1,2.1,0,0,0,23.32,105.37Z"/><path class="cls-9" d="M29.07,96.88a1.85,1.85,0,0,1,.28.35,1.7,1.7,0,0,1,.24.7c.09.62-.32,1.08-1.22,1.37a7.71,7.71,0,0,1,.18.93,6.27,6.27,0,0,1,.07.69,2.37,2.37,0,0,1,1.11.26,1,1,0,0,1,.43.74,1.39,1.39,0,0,1,0,.5,1.28,1.28,0,0,1-.13.37l-.07.12c-3.55.21-5.72.1-6.53-.32a1.49,1.49,0,0,1-.55-.47,1.53,1.53,0,0,1-.16-.45,2.57,2.57,0,0,1,0-.27.19.19,0,0,0,0-.08l-.21.08-.13-.08a.93.93,0,0,1-.25-.3,1.75,1.75,0,0,1-.21-.61,1.4,1.4,0,0,1,.39-1.24,5.91,5.91,0,0,1,2-1.08,45.9,45.9,0,0,1,4.63-1.32Zm-1.77,4a7.43,7.43,0,0,1-.15-.74,3.82,3.82,0,0,1,0-.45c-1.32.47-2.43.86-3.34,1.2C24.81,101,26,101,27.3,100.91Z"/><path class="cls-9" d="M21.59,92a1.38,1.38,0,0,1-.35-1,1.42,1.42,0,0,1,.31-1,1.72,1.72,0,0,1,1.15-.31c.55,0,1.57.05,3.06.17S28.32,90,29,90a2,2,0,0,1,.35,1.27.66.66,0,0,1-.14.52c-.13.68-1.59,1.44-4.38,2.26,1.57,0,3,.06,4.28,0,.18.15.26.49.27,1s-.22.82-.67.85l-6.82.4a3,3,0,0,1-.5-1.48,1.1,1.1,0,0,0,.06-.81.75.75,0,0,1,.47-.71,11.24,11.24,0,0,1,1.65-.54L25,92.4l.86-.24,1.07-.3H25.24q-2,0-3.06.12Z"/><path class="cls-9" d="M22.08,83.79a2.46,2.46,0,0,1,0-.43,3.19,3.19,0,0,1,.06-.59.7.7,0,0,1,.23-.43,1.5,1.5,0,0,1,0-.49.82.82,0,0,1,.78-.7c.5,0,2,0,4.48.18-2.21-.88-3.53-1.44-3.95-1.67S23,79.2,23,79a1.18,1.18,0,0,1,.11-.54,2.21,2.21,0,0,1,.06-.62c.11-.55.28-.88.5-1a1.54,1.54,0,0,1,1,0l2.59.7c1.72.46,3,.78,3.74.94a2.6,2.6,0,0,1,0,1.14.63.63,0,0,1-.82.55l-4.1-.78Q30.19,81,30,81.8L30,82a.68.68,0,0,1-.43.48,13.23,13.23,0,0,1-4.3.28c1.84.51,3.37.89,4.58,1.14a2,2,0,0,1,0,.91c-.11.51-.39.73-.83.66L22.3,84.29a.55.55,0,0,1-.13-.19A2.12,2.12,0,0,1,22.08,83.79Z"/><path class="cls-9" d="M28,71.94l-.58,1.48a8.38,8.38,0,0,0,1.12.49l.07,0c.45-1.28.69-2,.73-2.11a2.56,2.56,0,0,1,.49.11.63.63,0,0,1,.46.89l-.54,1.47c.54.14.9.08,1.09-.17a.53.53,0,0,0,.11-.2,4.3,4.3,0,0,0,.13-1.41.67.67,0,0,1,.74-.06,1.41,1.41,0,0,1,.79.83,2.43,2.43,0,0,1-.12,1.77,2.71,2.71,0,0,1-1.21,1.53,3,3,0,0,1-2.5,0,5.48,5.48,0,0,1-2-1.27l-.08.27a1.49,1.49,0,0,1-1.13-.09c-1-.38-1.44-.93-1.17-1.65,0,0,0-.15.12-.34s.25-.58.54-1.17a18.94,18.94,0,0,0,.79-1.88,3,3,0,0,1,1.06.24,2.55,2.55,0,0,1,1,.56A.67.67,0,0,1,28,71.94Z"/></svg>