<svg id="Layer_1" data-name="Layer 1" xmlns="http://www.w3.org/2000/svg" xmlns:xlink="http://www.w3.org/1999/xlink" viewBox="0 0 160 160"><defs><style>.cls-1{fill:url(#linear-gradient);}.cls-2{fill:#302b35;}.cls-3{fill:#ead701;}.cls-4{fill:none;stroke:#302b35;stroke-linecap:round;stroke-linejoin:round;stroke-width:8px;}</style><linearGradient id="linear-gradient" x1="24.65" y1="81.49" x2="139.09" y2="81.49" gradientUnits="userSpaceOnUse"><stop offset="0" stop-color="#ffcc01"/><stop offset="1" stop-color="#ff9000"/></linearGradient></defs><path class="cls-1" d="M139.09,65.26a57.22,57.22,0,1,0-114.44,0c0,31.6,25.61,89.68,57.22,89.68S139.09,96.86,139.09,65.26Z"/><path class="cls-2" d="M81.87,155.81c-19.56,0-34.23-20.95-41.23-33.43C30.39,104.1,23.77,81.68,23.77,65.26a58.1,58.1,0,1,1,116.19,0c0,16.42-6.62,38.84-16.87,57.12C116.09,134.86,101.43,155.81,81.87,155.81Zm0-146.9A56.42,56.42,0,0,0,25.52,65.26c0,16.14,6.54,38.22,16.65,56.26,15.87,28.31,31.68,32.54,39.7,32.54s23.82-4.23,39.7-32.54c10.11-18,16.64-40.12,16.64-56.26A56.41,56.41,0,0,0,81.87,8.91Z"/><path class="cls-2" d="M113.54,107.94C108,120.55,93.89,118.51,89,117.38a8.56,8.56,0,0,0,.46-2.74,8.34,8.34,0,0,0-1.13-4.2,6.94,6.94,0,0,0,1.13-6.09c-1.86,1.19-3.59,2.27-4.62,2.91a7.35,7.35,0,0,0-6,0c-1-.64-2.76-1.72-4.63-2.91a7,7,0,0,0,1.14,6.09,8.27,8.27,0,0,0-.67,6.94c-4.86,1.13-19,3.17-24.52-9.44-13,10.87-19.79,25.22-19.53,29.71,7.21-10.76,15.57-1.39,15.57-1.39s6.13-9.81,13.51-2.95c2.61-5.84,6.61-6.34,10-5.2.84,7.28,6.66,14.39,12.13,14.39S93.15,135.39,94,128.11c3.4-1.14,7.39-.64,10,5.2,7.37-6.86,13.51,2.95,13.51,2.95s8.36-9.37,15.56,1.39C133.33,133.16,126.56,118.81,113.54,107.94Z"/><path class="cls-3" d="M76.4,111.1l4.1,2.16a2.66,2.66,0,0,1-2.6.92C76.2,113.85,76.4,111.1,76.4,111.1Z"/><path class="cls-3" d="M87.33,111.1l-4.1,2.16a2.68,2.68,0,0,0,2.61.92C87.54,113.85,87.33,111.1,87.33,111.1Z"/><path class="cls-3" d="M87.33,115.11a5.34,5.34,0,0,1-.3,1h0a4.53,4.53,0,0,1-1.43,1.67,5.69,5.69,0,0,1-1.14.55l-.29-.56-.62.81a8.39,8.39,0,0,1-3.36,0l-.63-.81-.29.56a5.37,5.37,0,0,1-1.13-.55,4.35,4.35,0,0,1-1.43-1.67h0a4.62,4.62,0,0,1-.3-1s.3.9,2.11,1.48l.47.92.55-.66a15.25,15.25,0,0,0,2.33.25,15.1,15.1,0,0,0,2.32-.25l.55.66.48-.92C87,116,87.31,115.16,87.33,115.11Z"/><path class="cls-4" d="M60.18,137.33a4.74,4.74,0,0,1-.45,3.15,3.38,3.38,0,0,1-2.49,1.66,3.66,3.66,0,0,1-2.59-.18,2.11,2.11,0,0,1-1-1.34,3.12,3.12,0,0,1-.08-1.12,2.24,2.24,0,0,1,.33-.87,9.24,9.24,0,0,0,1.58.76,2.66,2.66,0,0,0,1.25.24,1.29,1.29,0,0,0,.54-.2.42.42,0,0,0,.16-.25,1.28,1.28,0,0,0,0-.31,1,1,0,0,0-.55-.64,7.76,7.76,0,0,0-1.14-.52,11.91,11.91,0,0,1-1.34-.59,4.1,4.1,0,0,1-2.08-2.74,4.55,4.55,0,0,1,0-1.87,4.23,4.23,0,0,1,.64-1.56,2.28,2.28,0,0,1,.59-1.88,3.81,3.81,0,0,1,2.35-1.24c2-.36,3.09.48,3.41,2.45a2.55,2.55,0,0,1-.86,2.67,5.34,5.34,0,0,0-3.59-1.13A2.66,2.66,0,0,0,56,133.53a8.79,8.79,0,0,0,1,.49c.34.15.68.3,1,.48a5.8,5.8,0,0,1,.95.59A3.4,3.4,0,0,1,60.18,137.33Z"/><path class="cls-4" d="M67.35,127.37c.12.63.19,1,.21,1.26l.06.66a2.82,2.82,0,0,1-.05.7,3.62,3.62,0,0,1-.24.7,1.44,1.44,0,0,1-1.26.77,1.48,1.48,0,0,1-1.11-.27,4.1,4.1,0,0,1-.93-1,15.25,15.25,0,0,0,.11,3.45A5.63,5.63,0,0,0,65.51,137a1.47,1.47,0,0,0,1.25.44,3.91,3.91,0,0,0,1.59-.66,3.6,3.6,0,0,1,.13,1.19A4,4,0,0,1,68.3,139a2.49,2.49,0,0,1-.42.77,2.89,2.89,0,0,1-2,1,3.46,3.46,0,0,1-3.38-1.44,7.24,7.24,0,0,1-.9-1.75A12.5,12.5,0,0,1,61,135a9.36,9.36,0,0,1,.16-4.32,5.47,5.47,0,0,1,1.67-2.63,2.47,2.47,0,0,1,.44-.91,1.38,1.38,0,0,1,1-.53,2.85,2.85,0,0,1,1.59.36A2.78,2.78,0,0,0,67.35,127.37Z"/><path class="cls-4" d="M77.61,139.18a2,2,0,0,1-.5.42,1.82,1.82,0,0,1-1,.3c-.83,0-1.4-.76-1.72-2.41a9.29,9.29,0,0,1-1.27.16,4.84,4.84,0,0,1-.94,0,5.28,5.28,0,0,1-.41,1.94,1.17,1.17,0,0,1-1,.65,1.41,1.41,0,0,1-.67-.1,1.48,1.48,0,0,1-.48-.28l-.17-.15c-.21-6.3,0-10.15.71-11.52a2.22,2.22,0,0,1,.71-.92,1.75,1.75,0,0,1,.67-.22l.39,0h.12l-.1-.4.13-.22a1.48,1.48,0,0,1,.47-.38,1.78,1.78,0,0,1,.91-.28,2,2,0,0,1,1.79.9,11.47,11.47,0,0,1,1.29,3.8c.4,1.9.81,4.72,1.2,8.46Zm-5.3-3.85a5.79,5.79,0,0,1,1-.15,5.52,5.52,0,0,1,.62,0c-.52-2.41-1-4.45-1.39-6.11C72.43,130.91,72.34,133,72.31,135.33Z"/><path class="cls-4" d="M84.36,126a1.84,1.84,0,0,1,1.57-.57,1.82,1.82,0,0,1,1.5.61,3.35,3.35,0,0,1,.37,2.06c0,1-.2,2.8-.48,5.44s-.42,4.54-.46,5.69a2.33,2.33,0,0,1-1.72.58.8.8,0,0,1-.69-.28c-.9-.26-1.85-2.87-3-7.84-.06,2.79.37,6-.07,7.62-.07.25-.64.47-1.36.48s-1.09-.38-1.14-1.19c-.32-4.84-.48-7.27-.83-12.12a3.77,3.77,0,0,1,2.15-.93,1.26,1.26,0,0,1,.77.2,1.23,1.23,0,0,1,.43-.09,1.12,1.12,0,0,1,1,.86,20.41,20.41,0,0,1,.75,2.94c.28,1.4.46,2.28.53,2.65s.18.89.3,1.54.26,1.3.38,1.92c0-1.17.07-2.18.08-3,0-2.43,0-4.24,0-5.45C84.4,126.61,84.39,126.4,84.36,126Z"/><path class="cls-4" d="M94.1,126.32a3.38,3.38,0,0,1,1.5-.18.85.85,0,0,1,.66.31,1.67,1.67,0,0,1,.73,0c.63.06,1,.48,1.12,1.23s.2,3.52.16,7.93c1.06-4.07,1.77-6.49,2.07-7.29s.64-1.25,1-1.34a1.5,1.5,0,0,1,.81.09,3.63,3.63,0,0,1,.93,0c.81.12,1.31.37,1.5.74a3.19,3.19,0,0,1,.08,1.76s-.33,1.59-1,4.69-1.05,5.35-1.27,6.74a2.76,2.76,0,0,1-1.53.16c-.61-.09-.86-.54-.77-1.35.35-3,.53-4.42.88-7.37-1.48,5.06-2.5,7.56-3.19,7.48l-.21,0c-.29,0-.52-.25-.68-.66-.39-.88-.64-3.38-.82-7.51-.5,3.36-.44,7.39-1.07,8.34-.13.19-.78.28-1.2.25-.7-.07-1-.5-1-1.3.25-4.85.36-7.28.58-12.13a.85.85,0,0,1,.27-.27A2.09,2.09,0,0,1,94.1,126.32Z"/><path class="cls-4" d="M111,133.34l-2.22-.51a16.47,16.47,0,0,0-.53,2.11l0,.14c1.88.32,2.91.53,3.1.57a6.38,6.38,0,0,1-.11.88c-.19.85-.58,1.21-1.2,1.08l-2.13-.43c-.11,1,0,1.58.39,1.82a.87.87,0,0,0,.29.12,4.83,4.83,0,0,0,2-.25c.24.23.29.66.15,1.28a2.92,2.92,0,0,1-1.07,1.64,2.79,2.79,0,0,1-2.4.4,3.23,3.23,0,0,1-2.24-1.54,6.46,6.46,0,0,1-.39-4.33,11.45,11.45,0,0,1,1.39-4l-.4,0a3.09,3.09,0,0,1-.1-2c.33-2,1-2.85,2.17-2.65l.53.1a16.5,16.5,0,0,1,1.83.54c.92.31,2.64.5,2.91.8a5.24,5.24,0,0,1-.21,1.92,5.5,5.5,0,0,1-.69,1.86A1,1,0,0,1,111,133.34Z"/><path class="cls-3" d="M60.18,137.33a4.74,4.74,0,0,1-.45,3.15,3.38,3.38,0,0,1-2.49,1.66,3.66,3.66,0,0,1-2.59-.18,2.11,2.11,0,0,1-1-1.34,3.12,3.12,0,0,1-.08-1.12,2.24,2.24,0,0,1,.33-.87,9.24,9.24,0,0,0,1.58.76,2.66,2.66,0,0,0,1.25.24,1.29,1.29,0,0,0,.54-.2.42.42,0,0,0,.16-.25,1.28,1.28,0,0,0,0-.31,1,1,0,0,0-.55-.64,7.76,7.76,0,0,0-1.14-.52,11.91,11.91,0,0,1-1.34-.59,4.1,4.1,0,0,1-2.08-2.74,4.55,4.55,0,0,1,0-1.87,4.23,4.23,0,0,1,.64-1.56,2.28,2.28,0,0,1,.59-1.88,3.81,3.81,0,0,1,2.35-1.24c2-.36,3.09.48,3.41,2.45a2.55,2.55,0,0,1-.86,2.67,5.34,5.34,0,0,0-3.59-1.13A2.66,2.66,0,0,0,56,133.53a8.79,8.79,0,0,0,1,.49c.34.15.68.3,1,.48a5.8,5.8,0,0,1,.95.59A3.4,3.4,0,0,1,60.18,137.33Z"/><path class="cls-3" d="M67.35,127.37c.12.63.19,1,.21,1.26l.06.66a2.82,2.82,0,0,1-.05.7,3.62,3.62,0,0,1-.24.7,1.44,1.44,0,0,1-1.26.77,1.48,1.48,0,0,1-1.11-.27,4.1,4.1,0,0,1-.93-1,15.25,15.25,0,0,0,.11,3.45A5.63,5.63,0,0,0,65.51,137a1.47,1.47,0,0,0,1.25.44,3.91,3.91,0,0,0,1.59-.66,3.6,3.6,0,0,1,.13,1.19A4,4,0,0,1,68.3,139a2.49,2.49,0,0,1-.42.77,2.89,2.89,0,0,1-2,1,3.46,3.46,0,0,1-3.38-1.44,7.24,7.24,0,0,1-.9-1.75A12.5,12.5,0,0,1,61,135a9.36,9.36,0,0,1,.16-4.32,5.47,5.47,0,0,1,1.67-2.63,2.47,2.47,0,0,1,.44-.91,1.38,1.38,0,0,1,1-.53,2.85,2.85,0,0,1,1.59.36A2.78,2.78,0,0,0,67.35,127.37Z"/><path class="cls-3" d="M77.61,139.18a2,2,0,0,1-.5.42,1.82,1.82,0,0,1-1,.3c-.83,0-1.4-.76-1.72-2.41a9.29,9.29,0,0,1-1.27.16,4.84,4.84,0,0,1-.94,0,5.28,5.28,0,0,1-.41,1.94,1.17,1.17,0,0,1-1,.65,1.41,1.41,0,0,1-.67-.1,1.48,1.48,0,0,1-.48-.28l-.17-.15c-.21-6.3,0-10.15.71-11.52a2.22,2.22,0,0,1,.71-.92,1.75,1.75,0,0,1,.67-.22l.39,0h.12l-.1-.4.13-.22a1.48,1.48,0,0,1,.47-.38,1.78,1.78,0,0,1,.91-.28,2,2,0,0,1,1.79.9,11.47,11.47,0,0,1,1.29,3.8c.4,1.9.81,4.72,1.2,8.46Zm-5.3-3.85a5.79,5.79,0,0,1,1-.15,5.52,5.52,0,0,1,.62,0c-.52-2.41-1-4.45-1.39-6.11C72.43,130.91,72.34,133,72.31,135.33Z"/><path class="cls-3" d="M84.36,126a1.84,1.84,0,0,1,1.57-.57,1.82,1.82,0,0,1,1.5.61,3.35,3.35,0,0,1,.37,2.06c0,1-.2,2.8-.48,5.44s-.42,4.54-.46,5.69a2.33,2.33,0,0,1-1.72.58.8.8,0,0,1-.69-.28c-.9-.26-1.85-2.87-3-7.84-.06,2.79.37,6-.07,7.62-.07.25-.64.47-1.36.48s-1.09-.38-1.14-1.19c-.32-4.84-.48-7.27-.83-12.12a3.77,3.77,0,0,1,2.15-.93,1.26,1.26,0,0,1,.77.2,1.23,1.23,0,0,1,.43-.09,1.12,1.12,0,0,1,1,.86,20.41,20.41,0,0,1,.75,2.94c.28,1.4.46,2.28.53,2.65s.18.89.3,1.54.26,1.3.38,1.92c0-1.17.07-2.18.08-3,0-2.43,0-4.24,0-5.45C84.4,126.61,84.39,126.4,84.36,126Z"/><path class="cls-3" d="M94.1,126.32a3.38,3.38,0,0,1,1.5-.18.85.85,0,0,1,.66.31,1.67,1.67,0,0,1,.73,0c.63.06,1,.48,1.12,1.23s.2,3.52.16,7.93c1.06-4.07,1.77-6.49,2.07-7.29s.64-1.25,1-1.34a1.5,1.5,0,0,1,.81.09,3.63,3.63,0,0,1,.93,0c.81.12,1.31.37,1.5.74a3.19,3.19,0,0,1,.08,1.76s-.33,1.59-1,4.69-1.05,5.35-1.27,6.74a2.76,2.76,0,0,1-1.53.16c-.61-.09-.86-.54-.77-1.35.35-3,.53-4.42.88-7.37-1.48,5.06-2.5,7.56-3.19,7.48l-.21,0c-.29,0-.52-.25-.68-.66-.39-.88-.64-3.38-.82-7.51-.5,3.36-.44,7.39-1.07,8.34-.13.19-.78.28-1.2.25-.7-.07-1-.5-1-1.3.25-4.85.36-7.28.58-12.13a.85.85,0,0,1,.27-.27A2.09,2.09,0,0,1,94.1,126.32Z"/><path class="cls-3" d="M111,133.34l-2.22-.51a16.47,16.47,0,0,0-.53,2.11l0,.14c1.88.32,2.91.53,3.1.57a6.38,6.38,0,0,1-.11.88c-.19.85-.58,1.21-1.2,1.08l-2.13-.43c-.11,1,0,1.58.39,1.82a.87.87,0,0,0,.29.12,4.83,4.83,0,0,0,2-.25c.24.23.29.66.15,1.28a2.92,2.92,0,0,1-1.07,1.64,2.79,2.79,0,0,1-2.4.4,3.23,3.23,0,0,1-2.24-1.54,6.46,6.46,0,0,1-.39-4.33,11.45,11.45,0,0,1,1.39-4l-.4,0a3.09,3.09,0,0,1-.1-2c.33-2,1-2.85,2.17-2.65l.53.1a16.5,16.5,0,0,1,1.83.54c.92.31,2.64.5,2.91.8a5.24,5.24,0,0,1-.21,1.92,5.5,5.5,0,0,1-.69,1.86A1,1,0,0,1,111,133.34Z"/></svg>