<svg id="Layer_1" data-name="Layer 1" xmlns="http://www.w3.org/2000/svg" viewBox="0 0 160 160"><defs><style>.cls-1{fill:#0a84ff;}.cls-2{fill:#fff;}</style></defs><rect class="cls-1" x="21.68" y="5.28" width="116.65" height="149.45" rx="10.49"/><rect class="cls-2" x="27.62" y="43.52" width="104.77" height="104.77" rx="4.38"/><rect class="cls-2" x="106.8" y="39.07" width="11.16" height="11.16" rx="1.99" transform="translate(64.49 -66.39) rotate(45)"/><path class="cls-2" d="M50.81,28.32a3.36,3.36,0,0,1-1.25-1.85l1.35-.55a2.62,2.62,0,0,0,.72,1.23,1.75,1.75,0,0,0,1.24.48A1.86,1.86,0,0,0,54,27.28a1.13,1.13,0,0,0,.47-1,1.17,1.17,0,0,0-.41-.93,4.81,4.81,0,0,0-1.44-.73l-.57-.2a4.2,4.2,0,0,1-1.54-.91A2.08,2.08,0,0,1,49.9,22a2.3,2.3,0,0,1,.36-1.25,2.69,2.69,0,0,1,1-.91,3.22,3.22,0,0,1,1.48-.33,2.89,2.89,0,0,1,1.9.58,2.8,2.8,0,0,1,1,1.3l-1.29.55a1.65,1.65,0,0,0-.53-.77,1.53,1.53,0,0,0-1-.33,1.74,1.74,0,0,0-1,.32,1,1,0,0,0-.42.81,1,1,0,0,0,.38.78,4,4,0,0,0,1.19.58l.58.19a4.7,4.7,0,0,1,1.81,1.07,2.36,2.36,0,0,1,.64,1.74,2.39,2.39,0,0,1-.46,1.5,2.69,2.69,0,0,1-1.16.89,3.7,3.7,0,0,1-1.46.3A3.3,3.3,0,0,1,50.81,28.32Z"/><path class="cls-2" d="M58.58,28.54a3.06,3.06,0,0,1-1.19-1.23,3.86,3.86,0,0,1,0-3.54,3.13,3.13,0,0,1,1.19-1.23,3.49,3.49,0,0,1,1.74-.44,3.31,3.31,0,0,1,1.82.48,2.63,2.63,0,0,1,1.06,1.31l-1.28.53a1.63,1.63,0,0,0-1.64-1,1.78,1.78,0,0,0-1,.27,1.91,1.91,0,0,0-.7.76,2.37,2.37,0,0,0-.26,1.12,2.41,2.41,0,0,0,.26,1.13,1.85,1.85,0,0,0,.7.76,1.78,1.78,0,0,0,1,.27,2,2,0,0,0,1-.27,1.77,1.77,0,0,0,.67-.78l1.25.54a2.9,2.9,0,0,1-1.11,1.31,3.32,3.32,0,0,1-1.82.49A3.39,3.39,0,0,1,58.58,28.54Z"/><path class="cls-2" d="M65.17,28.71a2.11,2.11,0,0,1-.85-.77A2.21,2.21,0,0,1,64,26.8a1.91,1.91,0,0,1,.75-1.59,3,3,0,0,1,1.92-.58,4.67,4.67,0,0,1,1,.1,5,5,0,0,1,.72.24v-.33a1.22,1.22,0,0,0-.44-1,1.73,1.73,0,0,0-1.15-.38,2,2,0,0,0-.93.22,1.79,1.79,0,0,0-.71.59l-1-.75a3,3,0,0,1,1.12-.92,3.5,3.5,0,0,1,1.53-.33,3.12,3.12,0,0,1,2.17.69,2.49,2.49,0,0,1,.76,1.95v4H68.44V28h-.06a2.25,2.25,0,0,1-.79.7,2.47,2.47,0,0,1-1.17.28A2.8,2.8,0,0,1,65.17,28.71Zm2.41-1.12a1.71,1.71,0,0,0,.63-.65,1.78,1.78,0,0,0,.23-.88,2.47,2.47,0,0,0-.68-.26,3.1,3.1,0,0,0-.81-.11A1.74,1.74,0,0,0,65.8,26a1,1,0,0,0-.37.8.9.9,0,0,0,.34.73,1.36,1.36,0,0,0,.89.29A1.8,1.8,0,0,0,67.58,27.59Z"/><path class="cls-2" d="M71.34,22.3h1.33v.85h.07a2.1,2.1,0,0,1,.83-.75,2.44,2.44,0,0,1,1.18-.3,2.28,2.28,0,0,1,1.79.69,2.74,2.74,0,0,1,.62,1.89v4.1h-1.4V24.87a1.48,1.48,0,0,0-.37-1.12,1.45,1.45,0,0,0-1-.36,1.46,1.46,0,0,0-.84.26,1.87,1.87,0,0,0-.57.7,2.06,2.06,0,0,0-.2.92v3.51h-1.4Z"/><path class="cls-2" d="M83.27,21H80.73V19.68h6.51V21H84.7v7.74H83.27Z"/><path class="cls-2" d="M88.65,28.53a3.18,3.18,0,0,1-1.21-1.23A3.61,3.61,0,0,1,87,25.54a3.55,3.55,0,0,1,.43-1.75,3.14,3.14,0,0,1,1.21-1.24,3.65,3.65,0,0,1,3.51,0,3.23,3.23,0,0,1,1.21,1.25,3.67,3.67,0,0,1,.43,1.74,3.73,3.73,0,0,1-.43,1.76,3.18,3.18,0,0,1-1.21,1.23,3.58,3.58,0,0,1-3.51,0Zm2.75-1.09a2,2,0,0,0,.73-.75,2.33,2.33,0,0,0,.27-1.15,2.29,2.29,0,0,0-.27-1.14,2.1,2.1,0,0,0-.73-.75,2,2,0,0,0-2.72.75,2.29,2.29,0,0,0-.27,1.14,2.33,2.33,0,0,0,.27,1.15,1.88,1.88,0,0,0,.73.75,2,2,0,0,0,2,0Z"/><path class="cls-2" d="M99.89,28.36a4.56,4.56,0,0,1-1.7-1.73,4.94,4.94,0,0,1,0-4.79,4.63,4.63,0,0,1,1.7-1.73,4.68,4.68,0,0,1,2.4-.63A4.69,4.69,0,0,1,107,24.23a4.79,4.79,0,0,1-.61,2.4,4.56,4.56,0,0,1-1.7,1.73,4.89,4.89,0,0,1-4.8,0Zm4-1.17a3,3,0,0,0,1.18-1.2,3.74,3.74,0,0,0,0-3.52,3.09,3.09,0,0,0-1.18-1.2,3.38,3.38,0,0,0-3.3,0,3.19,3.19,0,0,0-1.19,1.2,3.74,3.74,0,0,0,0,3.52,3.05,3.05,0,0,0,1.19,1.2,3.31,3.31,0,0,0,3.3,0Z"/><path class="cls-2" d="M108.4,22.3h1.34v.95h.06a1.78,1.78,0,0,1,.75-.82,2.2,2.2,0,0,1,1.13-.32,2,2,0,0,1,.79.13v1.45a2.89,2.89,0,0,0-1-.21,1.48,1.48,0,0,0-.86.26,1.7,1.7,0,0,0-.59.68,1.93,1.93,0,0,0-.22.93v3.43h-1.4Z"/><path class="cls-2" d="M114.34,28.54a3.13,3.13,0,0,1-1.13-1.23,4,4,0,0,1,0-3.54,3.2,3.2,0,0,1,1.13-1.23,3,3,0,0,1,1.59-.44,2.49,2.49,0,0,1,1.23.3,2.25,2.25,0,0,1,.83.75h.06l-.06-.91V19.68h1.4v9.1h-1.34v-.84H118a2.32,2.32,0,0,1-.83.74,2.5,2.5,0,0,1-1.23.31A2.89,2.89,0,0,1,114.34,28.54Zm2.74-1.11a1.85,1.85,0,0,0,.7-.76,2.3,2.3,0,0,0,.27-1.13,2.26,2.26,0,0,0-.27-1.12,1.91,1.91,0,0,0-.7-.76,1.81,1.81,0,0,0-1.9,0,1.86,1.86,0,0,0-.71.76,2.26,2.26,0,0,0-.27,1.12,2.3,2.3,0,0,0,.27,1.13,1.8,1.8,0,0,0,.71.76,1.81,1.81,0,0,0,1.9,0Z"/><path class="cls-2" d="M122.2,28.54A3.11,3.11,0,0,1,121,27.31a3.53,3.53,0,0,1-.43-1.76,3.65,3.65,0,0,1,.42-1.72,3.11,3.11,0,0,1,1.15-1.26,3,3,0,0,1,1.67-.47,3.21,3.21,0,0,1,1.7.43,2.82,2.82,0,0,1,1.09,1.18A3.72,3.72,0,0,1,127,25.4a2.74,2.74,0,0,1,0,.45h-5a1.92,1.92,0,0,0,2,1.88,1.83,1.83,0,0,0,1-.28,2,2,0,0,0,.71-.74l1.18.56a3.52,3.52,0,0,1-1.19,1.26,3.35,3.35,0,0,1-1.77.46A3.26,3.26,0,0,1,122.2,28.54Zm3.38-3.76a1.6,1.6,0,0,0-.8-1.25,1.86,1.86,0,0,0-1-.23,1.69,1.69,0,0,0-1.13.4,2.12,2.12,0,0,0-.65,1.08Z"/><path class="cls-2" d="M128.27,22.3h1.33v.95h.07a1.78,1.78,0,0,1,.75-.82,2.17,2.17,0,0,1,1.13-.32,2.08,2.08,0,0,1,.79.13v1.45a2.94,2.94,0,0,0-1-.21,1.45,1.45,0,0,0-.85.26,1.72,1.72,0,0,0-.6.68,2.05,2.05,0,0,0-.21.93v3.43h-1.4Z"/><g id="mobile"><path class="cls-2" d="M29.79,12.65h9a1.88,1.88,0,0,1,1.88,1.89v17a1.88,1.88,0,0,1-1.75,1.88H29.79a1.88,1.88,0,0,1-1.88-1.88v-17A1.88,1.88,0,0,1,29.79,12.65Zm-.87,17.92h8.24A13.33,13.33,0,0,1,36.71,29l-3.05-3.67a1,1,0,0,1,.18-1.2A.87.87,0,0,1,35,23.86l3.4,2.85,1.23-1.77V15.28H28.92Z"/><rect class="cls-2" x="32.14" y="13.89" width="3.86" height="0.45" rx="0.05" transform="translate(68.14 28.23) rotate(-180)"/><path class="cls-2" d="M33.66,25.31,36.71,29a13.33,13.33,0,0,0,.45,1.59h2.45V24.94l-1.23,1.77L35,23.86a.87.87,0,0,0-1.14.25A1,1,0,0,0,33.66,25.31Z"/><rect class="cls-2" x="36.52" y="13.89" width="0.45" height="0.45" rx="0.05" transform="translate(73.48 28.23) rotate(-180)"/><path class="cls-2" d="M33.66,25.31,36.71,29a13.33,13.33,0,0,0,.45,1.59,6.81,6.81,0,0,0,1.71,2.85,1.08,1.08,0,0,0,.24.18c1.7,1.15,3.75-.2,4-2.82.22-1.62,0-7.84,0-7.84a3.88,3.88,0,0,0-.24-1.58A15.72,15.72,0,0,0,40.63,19V23.5l-1,1.44-1.23,1.77L35,23.86a.87.87,0,0,0-1.14.25A1,1,0,0,0,33.66,25.31Z"/><circle class="cls-2" cx="34.12" cy="31.98" r="0.96"/></g></svg>