<?xml version="1.0" encoding="UTF-8"?>
<svg id="Layer_1" data-name="Layer 1" xmlns="http://www.w3.org/2000/svg" viewBox="0 0 500 500">
  <defs>
    <style>
      .cls-1, .cls-2, .cls-3, .cls-4, .cls-5, .cls-6, .cls-7, .cls-8, .cls-9, .cls-10, .cls-11, .cls-12, .cls-13, .cls-14, .cls-15, .cls-16, .cls-17, .cls-18, .cls-19, .cls-20, .cls-21, .cls-22, .cls-23, .cls-24, .cls-25, .cls-26 {
        stroke-width: 0px;
      }

      .cls-1, .cls-3, .cls-5, .cls-6, .cls-7, .cls-9, .cls-11, .cls-13, .cls-14, .cls-16, .cls-17, .cls-19, .cls-20, .cls-21, .cls-23, .cls-25, .cls-26 {
        fill-rule: evenodd;
      }

      .cls-1, .cls-15 {
        fill: #edc0a0;
      }

      .cls-2, .cls-17 {
        fill: #6dbf63;
      }

      .cls-3, .cls-22 {
        fill: #f3d332;
      }

      .cls-4, .cls-5 {
        fill: #1d1d4d;
      }

      .cls-6 {
        fill: #f7e170;
      }

      .cls-7, .cls-18 {
        fill: #4a834a;
      }

      .cls-8 {
        fill: #bfbfbf;
      }

      .cls-9, .cls-12 {
        fill: #e79a78;
      }

      .cls-10, .cls-14 {
        fill: #fff;
      }

      .cls-11 {
        fill: #ccc;
      }

      .cls-13 {
        fill: #eaa826;
      }

      .cls-16 {
        fill: #dedede;
      }

      .cls-19, .cls-24 {
        fill: #cd363e;
      }

      .cls-20 {
        fill: #dd4867;
      }

      .cls-21 {
        fill: #955225;
      }

      .cls-23 {
        fill: #1a1850;
      }

      .cls-25 {
        fill: #f5f5f5;
      }

      .cls-26 {
        fill: #ae6d49;
      }
    </style>
  </defs>
  <g>
    <g>
      <path class="cls-7" d="m258.74,209.88c5.49,5.4,13.1,7.72,17.03,2.01,5.26-7.21,10.14-21.06,10.42-29.46,1.07-11.16-12.22-16.7-19.93-7.56,4.37,2.71,1.66,6.98.26,8.39-.02.06-.03.12-.04.17l-7.7,26.35s-.03.07-.03.1h0Z"/>
      <path class="cls-2" d="m242.32,170.35l-11.86,5.96-4.44-2.23-2.39,5.04-13.97,5.18c-.21-.46-.45-.89-.71-1.29l-21.82,6.21c-.97,4.1.02,8.3,3.1,10.26l-.04.17c-7.25-1.97-12.54-5.02-16.26-8.91l-13.35,11.77,12.33,14.22c.17-.19.33-.38.51-.57,13.95-16.32,33.15-28.39,55.75-33.32,11.15-2.43,22.26-2.93,33.01-1.73l-19.84-10.76Z"/>
      <path class="cls-7" d="m243.37,170.92l-1.05-.57-11.86,5.96-4.44-2.23-2.39,5.04-13.97,5.18c-.06-.13-.14-.24-.2-.37.21.48.39.98.51,1.5l14.69-4.58,1.89-4.95,4.13,2.12,12.79-6.97-.1-.15Z"/>
      <path class="cls-18" d="m169.94,216.77l1.64,1.91c.71-.83,1.45-1.65,2.22-2.48,13.93-16.25,33.08-28.26,55.62-33.17,10.89-2.37,21.73-2.9,32.23-1.82.22,0,.42.02.65,0l-7.85-4.14c-7.14.22-14.4,1.08-21.66,2.66-16.18,3.52-30.8,10.2-43.28,19.16.31.29.63.54.98.77l-.04.17c-.55-.15-1.08-.3-1.6-.46-7.02,5.12-13.37,10.96-18.91,17.39h0Z"/>
      <path class="cls-1" d="m245.61,106.11l-.59-4.87c-.84-5.17,4.24-6.32,7.54.07,7.31-5.21,13.01-4.19,10.19,1.17,3.99-1.23,5.34,2.32,2.93,4.83,3.01-.75,4.78,2.09,2.2,5.2,3.18-.73,4.05,2.09,2.01,4.93-2.86,3.8-7.39,8.38-12.63,13.24-4.03-5.08-7.84-10.85-11.22-17.16-.99-1.84-1.92-3.68-2.79-5.51l2.37-1.9Z"/>
      <path class="cls-7" d="m218.68,135.18l12.7,18.01c4.75-4.08,10.1-8.59,15.35-13.14-4.28-5.1-8.32-11.01-11.97-17.5-4.13,4.61-9.66,8.9-16.08,12.63Z"/>
      <path class="cls-14" d="m246.03,113.52c-.99-1.84-1.92-3.68-2.79-5.51l-2.55,2.04c-.45,4.11-1.92,7.91-4.8,11.23-.36.43-.74.86-1.12,1.28,3.65,6.49,7.69,12.4,11.97,17.5,3.64-3.16,7.22-6.32,10.52-9.37-4.03-5.08-7.84-10.85-11.22-17.16Z"/>
      <path class="cls-17" d="m218.68,135.2l24.5,34.72-12.71,6.39-4.44-2.23-2.39,5.04-13.97,5.18c-2.12-4.66-7.46-7.07-13.61-4.87h0c-16.97-5.81-19.09-10.66-20.25-30.73,14.92-1.22,30.52-6.33,42.88-13.5h0Z"/>
      <path class="cls-23" d="m234.27,157.26l5.52,7.86s-44.32,14.52-43.74,14.31c-3.87-1.33-6.97-2.61-9.47-4.03l47.69-18.14Z"/>
      <path class="cls-9" d="m240.61,81.46c.52,1.02.98,2.13,1.38,3.29,2.42,7.08,1.57,13.97-1.8,16.09-.81-4.08-2.28-8.31-4.2-12.57v.02c2.11-1.99,3.63-4.33,4.62-6.84h0Z"/>
      <path class="cls-25" d="m94.77,86.89c10.75-4.61,23.07.22,27.52,10.77,4.45,10.57-.66,22.87-11.41,27.48-10.76,4.61-23.08-.2-27.52-10.77-4.45-10.56.67-22.86,11.42-27.48h0Z"/>
      <path class="cls-16" d="m114.03,122.24c-1.37-8.82-.96-17.21.22-24.59-2.51,2.37-5.03,4.31-7.44,5.81-5.41,3.84-10.3,4.95-12.97,2.48,1.71,6.38,6,8.26,12.08,2.93,2.24-1.73,3.45-2.73,5.71-5.35-.42,7.41-.16,10.32,2.06,18.9.11-.06.22-.11.34-.17Z"/>
      <path class="cls-17" d="m226.84,53.83c-20.96-22.1-53.99-33.42-82.15-25.23-19.25,10.05-42.09,31.98-52.77,67.86-1.52,12.3,6.01,13.3,14.9,6.99,2.4-1.5,4.93-3.44,7.44-5.81-1.22,7.66-1.63,16.39-.07,25.58l4.98-1c-1.53-.21-3.05-.36-4.56-.49,23.44-35.81,68.7-62.29,102.33-68.32,3.66-.66,6.98-.44,9.92.42h0Z"/>
      <path class="cls-7" d="m218.49,46.11c-1-.81-2.02-1.61-3.06-2.37-7.94,1.69-15.06,4.24-21.14,7.47,7.44-2.5,15.55-4.21,24.2-5.1h0Z"/>
      <path class="cls-25" d="m114.59,121.73c23.44-35.81,68.42-62.54,102.33-68.32,23.01-3.66,32.17,22.52,19.07,34.9-2.29-5.11-5.2-10.24-8.29-15.16-27.28,7.31-62.42,22.14-90.4,53.11-7.34-2.24-15.09-3.9-22.71-4.52h0Z"/>
      <path class="cls-11" d="m114.59,121.73c.48-.73.97-1.45,1.46-2.17,7.79.59,15.72,2.27,23.23,4.55-.67.71-1.33,1.42-1.98,2.14-7.34-2.24-15.09-3.9-22.71-4.52h0Zm123.42-35.66c-.6.78-1.27,1.53-2.01,2.24-1.81-4.02-4-8.06-6.35-12.01,1-.18,2-.36,3.01-.51,1.97,3.38,3.8,6.83,5.35,10.28h0Z"/>
      <path class="cls-11" d="m229.89,76.69l-2.18-3.55c1.93-.46,6.55-1.32,6.88.11.19.86-1.71,2.21-4.7,3.44h0Z"/>
      <path class="cls-9" d="m227.71,73.14c10.45,16.65,18.92,35.79,8.18,48.13-15.5,18.73-54.64,32.74-82.11,25.98-19.14,12.63-40.56-3.84-42.97-25.75,8.83.32,17.94,2.14,26.5,4.75,28.76-31.67,61.95-46.03,90.4-53.11h0Z"/>
      <path class="cls-1" d="m230.6,77.91c8.98,15.43,15.01,32.17,5.28,43.36-15.5,18.73-54.64,32.74-82.11,25.98-19.14,12.63-40.56-3.84-42.97-25.75,8.83.32,17.94,2.14,26.5,4.75.81-.89,1.63-1.78,2.45-2.64,29.45-27.08,63.12-41.29,90.84-45.7h0Z"/>
      <path class="cls-7" d="m172.8,148.89l.16,1.95c16.15-.65,33.47-6.09,46.88-14l-1.17-1.66c-13.19,7.67-30.06,12.96-45.87,13.7Z"/>
      <path class="cls-7" d="m110.23,101.09c1.33-1.03,2.67-2.18,4.02-3.44-.18,1.16-.35,2.35-.5,3.54,1.69-12.58,4.7-24.11,8.94-34.33-5.56,9.16-9.91,20.82-12.46,34.24h0Z"/>
      <path class="cls-21" d="m136.55,126.02c7.17,2.52,10.86,5.33,15.41,10.41,3.25-4.56,4.38-16.59-.39-24.24-3.81,3.15-10.17,9.01-14.27,14.06-.26-.08-.5-.15-.75-.23h0Z"/>
      <path class="cls-26" d="m136.55,126.02c7.17,2.52,10.86,5.33,15.41,10.41,3.12-4.37,4.29-15.62.16-23.29-4.52,3.51-8.98,7.29-13.34,11.35-.52.59-1.01,1.18-1.48,1.76-.26-.08-.5-.15-.75-.23h0Z"/>
      <g>
        <path class="cls-5" d="m202.8,112.1c4.91-2.13,9.83-3.01,13.86-2.71,2.68,7.82-.24,16.1-6.87,19-6.63,2.88-14.63-.67-18.45-7.97,2.55-3.17,6.54-6.18,11.46-8.32h0Z"/>
        <path class="cls-20" d="m217.38,118.24c-.81,4.51-3.48,8.36-7.59,10.15-4.09,1.78-8.71,1.1-12.54-1.39,1.14-4.15,3.89-7.67,7.91-9.41,4-1.75,8.45-1.37,12.22.65h0Z"/>
      </g>
      <path class="cls-1" d="m194.28,180.17c14.34-6.85,22.92,10.06,8.54,17.89-18.5,10.08-20.55-12.16-8.54-17.89h0Z"/>
      <path class="cls-12" d="m210.18,186.81c-7.49,3.28-14.5,7.28-20.93,11.9.31.29.63.54.98.77v.05c.22.15.47.28.73.4,5.89-4.28,12.3-7.96,19.14-10.93.12-.74.14-1.48.08-2.19Z"/>
      <path class="cls-17" d="m168.51,230.3c-2.75,7.21-8.7,12.49-14.65,8.92-7.79-4.38-17.98-14.95-21.73-22.45-5.62-9.72,4.16-20.27,14.97-15.18-3.88,3.71-.79,9.25,3.25,7.74.03.05.06.09.11.15l17.97,20.76s.05.04.07.06h0Z"/>
      <path class="cls-7" d="m165.73,227.05l-2.02-2.33c-3.42,4.78-6.44,9.82-9,15.06,1.29.65,2.57.87,3.81.77,2.03-4.63,4.43-9.14,7.2-13.51Z"/>
      <path class="cls-25" d="m172.91,216.74l-13.01-15.01c-.61-.71-1.67-.72-2.41-.12l-6.89,5.46c-.74.58-.74,1.7-.12,2.42l14.99,17.3h0c.19-.3.38-.59.58-.88.26-.4.54-.79.81-1.19.18-.27.36-.52.55-.78.3-.43.6-.86.91-1.28.17-.22.32-.45.49-.67.33-.45.67-.9,1.01-1.34.14-.18.28-.37.42-.55.37-.49.75-.96,1.13-1.44.12-.15.23-.29.35-.43.39-.49.8-.98,1.2-1.48h0Z"/>
      <path class="cls-16" d="m173.15,216.97l-1.68-1.93c-2.77,3.09-5.37,6.32-7.77,9.68l2,2.29c2.27-3.48,4.76-6.85,7.44-10.04h0Z"/>
      <path class="cls-10" d="m216.52,136.41c.61,2.67.09,5.82-1.53,8.15-1.96,2.78-4.89,3.49-7.14,2-.86,3.39-4.25,5.86-8.4,5.79-4.15-.06-7.72-2.63-8.83-6.05h.01s.1-.03.1-.03c.44-.11.88-.22,1.32-.33l.14-.04c.45-.11.91-.23,1.35-.35h.03s.04-.01.04-.01c.44-.12.89-.25,1.34-.37l.16-.05c.43-.12.85-.24,1.28-.37l.11-.04c.45-.12.88-.26,1.31-.39l.16-.06c.42-.13.82-.26,1.24-.39l.21-.07c.39-.12.79-.27,1.18-.39l.24-.09c.4-.13.8-.27,1.19-.42l.23-.08c.38-.13.75-.27,1.13-.41l.27-.12c.36-.13.71-.26,1.06-.41l.4-.15c.34-.13.67-.27,1.01-.39l.32-.14c.34-.14.66-.28.99-.41l.42-.18c.31-.13.62-.27.93-.4l.45-.19c.28-.13.58-.26.86-.39l.46-.21c.28-.13.55-.26.82-.38l.5-.24c.28-.13.56-.27.84-.4l.41-.21c.29-.14.57-.29.85-.43l.52-.26c.23-.12.47-.24.7-.37l.52-.28c.27-.14.52-.27.78-.41h0Z"/>
      <path class="cls-8" d="m216.52,136.41c-.25.14-.51.27-.78.41l-.52.28c-.23.13-.47.25-.7.37l-.52.26c-.12.06-.24.12-.37.18-.04.02-.08.04-.11.06-.12.07-.24.12-.37.19l-.41.21c-.28.13-.56.27-.84.4l-.5.24c-.27.13-.54.25-.82.38l-.46.21c-.28.13-.58.26-.86.39l-.45.19c-.31.13-.62.27-.93.4l-.42.18c-.33.14-.65.27-.99.41l-.32.14c-.34.13-.67.27-1.01.39l-.4.15c-.35.14-.7.27-1.06.41l-.27.12c-.38.13-.75.27-1.13.41l-.23.08c-.39.15-.79.29-1.19.42l-.24.09c-.39.12-.79.27-1.18.39l-.21.07c-.42.13-.82.26-1.24.39l-.16.06c-.43.13-.86.27-1.31.39l-.11.04c-.43.13-.85.25-1.28.37l-.16.05c-.45.12-.89.25-1.34.37h-.04s-.03.01-.03.01c-.45.12-.91.24-1.35.35l-.14.04c-.44.11-.89.22-1.32.33l-.1.02h-.01c.21.66.52,1.29.91,1.88,8.92-2.16,17.6-5.48,25.24-9.6,0-.74-.08-1.47-.24-2.17Z"/>
      <path class="cls-17" d="m175.8,148.7c1.16,20.07,3.28,24.92,20.25,30.73-.58.21-1.17.44-1.77.74-8.25,3.93-9.85,15.62-4.05,19.31l-.04.17c-25.71-6.99-26.66-27.53-21.01-50.67,2.19,0,4.4-.09,6.63-.28h0Z"/>
      <path class="cls-7" d="m175.8,148.7c.03.65.08,1.28.12,1.91-2.42.19-4.82.28-7.19.25.13-.62.28-1.25.44-1.88,2.19,0,4.4-.09,6.63-.28h0Z"/>
      <path class="cls-14" d="m189.39,176.83c1.92.88,4.12,1.74,6.66,2.6-.58.21-1.17.44-1.77.74-8.25,3.93-9.98,16.02-3.41,19.73l-.07.08c-3.63-.99-7.37-2.57-10.06-4.07-.84-6.56,2.13-14.56,8.65-19.09h0Z"/>
      <g>
        <path class="cls-23" d="m210.7,165.76l10.48-3.87c.35-.12.74.05.87.4l2.42,6.63c.12.35-.05.74-.4.88l-10.49,3.86c-.36.14-.76-.05-.88-.4l-2.42-6.63c-.13-.35.04-.74.4-.86h0Z"/>
        <path class="cls-22" d="m224.02,159.19c-.19-.52-.79-.78-1.3-.59l-15.58,5.74c-.52.19-.79.77-.6,1.29l4.1,10.96c.19.52.79.79,1.3.59l15.58-5.74c.52-.19.79-.77.6-1.29l-4.11-10.96Zm.06,10.6l-10.49,3.86c-.36.14-.76-.05-.88-.4l-2.42-6.63c-.13-.35.04-.74.4-.86l10.48-3.87c.35-.12.74.05.87.4l.8,2.18-2.62.93c-.5.17-.78.75-.6,1.26h.02c.17.52.74.78,1.26.6l2.63-.94.95,2.6c.12.35-.05.74-.4.88Z"/>
      </g>
      <g>
        <path class="cls-18" d="m189.24,174.39c-7.41-3.99-10.85-10.3-13.17-21.58.96,12.55,2.88,18.24,10.5,22.59l2.66-1.01Z"/>
        <path class="cls-18" d="m197.17,179.08c1.99-.51,3.36-.55,4.33-.48l.02-.04c-.49-.1-1.25-.25-1.72-.35l-2.63.88Z"/>
        <path class="cls-18" d="m196.05,179.43c-3.75-1.29-6.76-2.53-9.22-3.89,2.45,1.37,5.47,2.61,9.22,3.89Z"/>
      </g>
      <path class="cls-15" d="m212.25,138.59c.13,3.26-2.44,6.65-6.43,8.14-3.93,1.45-8,.62-10.07-1.82l.31-.08c.27-.08.53-.16.8-.24l.6-.18c.3-.09.61-.19.9-.29h.08s.28-.1.28-.1l.26-.08c.27-.09.53-.18.79-.27l.47-.16c.34-.12.68-.23,1-.35l.11-.04.25-.08c.35-.13.7-.25,1.05-.38l.26-.1.09-.03c.39-.15.78-.29,1.16-.44l.09-.03c.43-.16.84-.32,1.25-.49l.26-.1c.33-.14.67-.28,1-.41v-.02s.27-.1.27-.1l.25-.11c.31-.14.61-.25.92-.39l.1-.05.25-.11c.32-.14.66-.28.97-.43h.03s.24-.13.24-.13h.04c.32-.16.64-.3.96-.45l.24-.12.08-.03c.37-.18.72-.35,1.08-.52l.07-.03Z"/>
      <path class="cls-12" d="m212.25,138.59l-.07.03c-.35.17-.71.34-1.08.52l-.08.03-.24.12c-.32.15-.64.29-.96.44h-.04s-.24.13-.24.13h-.03c-.32.16-.65.3-.97.43l-.25.11-.1.05c-.31.14-.61.26-.92.39l-.25.11-.26.1v.02c-.35.12-.68.27-1.01.41l-.26.1c-.41.17-.82.33-1.25.49l-.09.03c-.39.15-.78.29-1.16.44l-.09.03-.26.1c-.35.13-.7.25-1.05.38l-.25.08-.11.04c-.32.12-.66.24-1,.35l-.47.16c-.26.08-.53.18-.79.27l-.26.08-.28.09h-.08c-.29.12-.59.21-.9.31l-.6.18c-.27.08-.53.16-.8.24l-.31.08c.53.63,1.2,1.15,1.97,1.55,4.89-1.49,9.65-3.32,14.13-5.42.29-.8.43-1.63.4-2.45Z"/>
      <g>
        <path class="cls-5" d="m180.99,104.9c3.17-1.75,7.37-.12,9.38,3.65,2.01,3.76,1.07,8.23-2.1,9.98-3.17,1.75-7.37.11-9.38-3.65-2.01-3.76-1.07-8.22,2.11-9.97Z"/>
        <path class="cls-4" d="m197.86,107.86s.05-.12.14-.32c.05-.1.11-.22.18-.35.08-.13.14-.29.27-.43.25-.28.53-.68.92-.96.2-.14.38-.32.6-.44.23-.12.45-.24.68-.37.23-.12.49-.17.72-.26.24-.09.49-.14.73-.17.48-.09.93-.09,1.31-.04.38,0,.69.13.9.19.21.07.33.12.33.12,0,0-.13.03-.34.07-.22.05-.51.05-.86.16-.17.04-.36.08-.56.12-.19.06-.39.13-.6.18-.22.04-.42.14-.63.22-.21.09-.43.14-.63.26-.42.19-.82.4-1.19.63-.19.11-.38.21-.53.33-.16.12-.32.22-.46.32-.15.09-.28.22-.4.31-.12.09-.23.17-.31.24-.18.13-.28.2-.28.2Z"/>
        <path class="cls-4" d="m174.9,101.11s-.01-.15-.02-.43c-.02-.27,0-.67.08-1.15.06-.23.1-.49.2-.76.11-.26.19-.54.37-.81.14-.27.34-.54.56-.79.24-.24.49-.47.79-.65.29-.18.61-.33.93-.42.32-.12.65-.14.96-.18.63-.02,1.2.07,1.66.23.23.05.43.16.61.24.18.07.32.16.44.23.24.14.37.23.37.23,0,0-.15-.02-.43-.06-.13-.02-.3-.05-.48-.06-.19-.01-.39-.05-.61-.05-.44-.03-.95-.01-1.47.06-.26.06-.52.12-.77.21-.26.08-.49.21-.72.36-.24.13-.44.31-.64.49-.17.2-.38.38-.52.61-.32.42-.54.88-.74,1.28-.16.4-.33.76-.41,1.02-.1.25-.16.4-.16.4Z"/>
        <path class="cls-4" d="m213.41,83.74s-.15-.06-.4-.18c-.24-.13-.6-.27-1-.44-.42-.15-.9-.33-1.43-.4-.26-.06-.53-.05-.8-.07-.27.01-.54.02-.8.09-.26.05-.53.12-.76.25-.24.11-.47.24-.7.38-.42.31-.8.65-1.1.98-.16.15-.28.33-.4.46-.12.14-.22.27-.3.38-.17.21-.27.34-.27.34,0,0,.03-.15.1-.42.04-.14.08-.3.16-.48.08-.18.14-.39.27-.59.22-.43.57-.89,1.03-1.32.25-.19.5-.4.81-.54.29-.16.63-.27.96-.35.34-.07.68-.08,1.01-.08.33.03.66.08.96.18.31.06.57.21.83.33.25.12.47.27.67.4.39.29.68.56.86.76.18.21.29.33.29.33Z"/>
        <path class="cls-12" d="m124.51,134.56s.25-.11.69-.28c.22-.08.49-.19.8-.28.31-.09.65-.24,1.06-.27.41-.06.85-.13,1.34-.17.49-.07.98-.07,1.5-.02.51.05,1.06.03,1.59.14.53.11,1.07.24,1.61.37.54.11,1.05.37,1.55.57.51.19.99.43,1.43.72.45.26.86.54,1.25.81.37.3.7.61,1,.89.31.27.57.54.77.81.21.27.37.5.51.7.27.4.4.62.4.62,0,0-.25-.13-.66-.35-.21-.12-.45-.26-.72-.43-.26-.18-.59-.33-.94-.5-.35-.17-.72-.36-1.09-.58-.4-.17-.83-.33-1.26-.53-.22-.09-.43-.21-.66-.29-.23-.06-.47-.14-.7-.23-.47-.14-.92-.37-1.41-.46-.48-.12-.97-.25-1.44-.39-.48-.12-.96-.19-1.42-.28-.46-.09-.91-.2-1.34-.22-.43-.04-.83-.1-1.22-.15-.38-.07-.75-.06-1.08-.08-.33,0-.61-.04-.85-.05-.47-.05-.74-.08-.74-.08Z"/>
        <path class="cls-5" d="m211.64,90.61c3.39-1.22,7.29,1.07,8.71,5.1,1.42,4.03-.18,8.28-3.58,9.5-3.39,1.22-7.29-1.06-8.71-5.1-1.42-4.03.19-8.28,3.58-9.5Z"/>
      </g>
      <g>
        <path class="cls-19" d="m150.85,414.21c-49.3-66.09-36.07-159.83,29.53-209.38,65.61-49.56,158.76-36.15,208.06,29.93,49.3,66.09,36.08,159.84-29.53,209.39-65.61,49.55-158.76,36.15-208.06-29.94Z"/>
        <path class="cls-22" d="m276.13,473.91c12.72-.54,25.42-2.72,37.78-6.59-85.96-29.45-153.8-69.98-189.48-111.3,4.11,19.17,12.06,37.8,23.99,54.75,34.03,23.37,77.58,45.12,127.71,63.13Z"/>
        <path class="cls-22" d="m413.3,286.44c-1.45-5.53-3.23-11-5.33-16.39-67.63-26.65-121.85-59.9-154.99-94.15-6.33.7-12.64,1.8-18.88,3.33,41.07,38.86,103.15,76.32,179.2,107.21Z"/>
        <path class="cls-14" d="m172.63,397.76c-40.26-53.97-29.46-130.53,24.12-170.99,53.58-40.47,129.65-29.52,169.91,24.44,40.26,53.97,29.46,130.53-24.12,171-53.58,40.47-129.65,29.52-169.91-24.45Z"/>
      </g>
      <path class="cls-14" d="m184.39,223.29c34.4-26.17,74.76-37.56,112.7-35.01-37.69-9.64-79.09-2.4-112.55,23.46-20.94,16.18-35.92,37.49-44.6,60.95,11.12-18.45,26-35.36,44.45-49.4Z"/>
    </g>
    <g>
      <path class="cls-3" d="m352.26,238.3h0s20.57-35.46,20.57-35.46h0s0,.02,0,.03c-1.9,3.28-15.9-1.17-31.25-9.93-15.36-8.76-26.27-18.51-24.37-21.79,0,0,.02-.02.02-.03l-.07-.03-20.75,35.77.1.06c-1.05,3.57,9.65,12.99,24.51,21.46,14.87,8.47,28.45,12.9,31.03,10.21l.04.02.18-.31Z"/>
      <path class="cls-13" d="m348.44,181.09c15.37,8.75,26.27,18.51,24.37,21.79-1.9,3.28-15.9-1.17-31.25-9.93-15.36-8.76-26.27-18.51-24.37-21.79,1.9-3.28,15.89,1.17,31.25,9.93Z"/>
      <path class="cls-3" d="m356.22,164.25c9.06,3.17,13.59,13.51,10.12,23.1-1.34,3.71-3.69,6.76-6.58,8.92-2.48-1.07-5.14-2.34-7.89-3.77,3.56-.85,6.71-3.54,8.1-7.38,2.12-5.87-.65-12.2-6.2-14.13-5.54-1.94-11.76,1.25-13.88,7.11-.87,2.41-.91,4.9-.28,7.13-2.66-1.79-5.06-3.56-7.09-5.23.18-1.37.51-2.76,1-4.13,3.47-9.59,13.62-14.79,22.69-11.62Z"/>
      <path class="cls-6" d="m303.92,216.78c2.64,2.21,5.86,4.58,9.53,6.98l22.02-34.48c-3.65-2.32-6.91-4.64-9.64-6.82l-21.92,34.33Z"/>
      <path class="cls-6" d="m347.5,196.16c-1.93-1-3.92-2.06-5.93-3.21-.33-.19-.64-.38-.96-.55l-22.06,34.55c.81.48,1.62.96,2.46,1.44,1.49.84,2.95,1.64,4.4,2.4l22.1-34.62Z"/>
    </g>
  </g>
  <g>
    <rect class="cls-24" x="255.7" y="68.64" width="143.39" height="56.6" rx="6.96" ry="6.96"/>
    <g>
      <path class="cls-10" d="m274.55,105.87c-2.91,0-5.75-.98-6.94-2.85-.96-1.52-.4-2.84,1.19-3.22l.46-.11c1.36-.33,2.24.13,2.92.81.68.68,1.44,1.01,2.32,1.01s1.51-.4,1.51-1.01c0-2.07-8.81-1.06-8.81-7.55,0-3.45,2.94-5.62,7.24-5.62,3.21,0,5.64.78,6.81,2.56,1.17,1.78.68,3.09-1.18,3.42l-.4.07c-2.02.37-2.64-.55-3.46-1.18-.45-.34-.99-.53-1.54-.53-.85,0-1.41.4-1.41.98,0,2.57,8.99,1.11,8.99,7.48,0,3.5-3.28,5.73-7.7,5.73h0Z"/>
      <path class="cls-10" d="m284.17,96.64c0-5.63,3.61-9.3,8.98-9.3,3.53,0,6.39,1.53,7.77,4.35.78,1.69.28,2.78-1.36,3.03l-.98.15c-1.64.28-2.32.1-2.98-.73-.76-.98-1.46-1.36-2.47-1.36-1.59,0-2.62,1.54-2.62,3.86s1.06,3.84,2.62,3.84c1.01,0,1.69-.38,2.4-1.31.61-.81,1.51-1.03,3.05-.81l.98.15c1.82.28,2.12,1.51.91,3.69-1.29,2.4-4.04,3.68-7.32,3.68-5.48,0-8.98-3.5-8.98-9.23Z"/>
      <path class="cls-10" d="m319.17,102.82c.63,1.74-.2,2.9-2.04,2.9h-1.08c-1.49,0-2.4-.68-2.8-2.15l-.06-.2h-5.16l-.06.2c-.4,1.46-1.31,2.15-2.8,2.15h-1.11c-1.84,0-2.65-1.16-2.04-2.9l4.72-13.33c.48-1.39,1.41-2.04,2.88-2.04h1.97c1.46,0,2.4.66,2.88,2.04l4.72,13.33h0Zm-7.14-3.58l-1.44-5.2-1.43,5.2h2.87Z"/>
      <path class="cls-10" d="m321.72,103.2v-13.22c0-1.64.88-2.52,2.52-2.52h1.29c1.39,0,2.32.53,3,1.77l3.71,6.69v-5.93c0-1.64.88-2.52,2.52-2.52h1.06c1.64,0,2.52.88,2.52,2.52v13.22c0,1.64-.88,2.52-2.52,2.52h-1.29c-1.39,0-2.32-.53-3-1.77l-3.68-6.66v5.91c0,1.64-.88,2.52-2.52,2.52h-1.09c-1.64,0-2.52-.88-2.52-2.52Z"/>
      <path class="cls-10" d="m348.02,103.05l1.64-13.25c.2-1.54,1.11-2.35,2.68-2.35h2.88c1.51,0,2.42.73,2.75,2.22l2.14,9.67,2.15-9.67c.33-1.49,1.24-2.22,2.75-2.22h2.88c1.57,0,2.47.81,2.68,2.35l1.64,13.25c.2,1.72-.66,2.68-2.37,2.68h-1.06c-1.56,0-2.47-.83-2.62-2.4l-.78-7.95-1.89,8.15c-.35,1.46-1.26,2.2-2.78,2.2h-1.16c-1.51,0-2.42-.73-2.78-2.2l-1.89-8.15-.78,7.95c-.15,1.56-1.06,2.4-2.62,2.4h-1.06c-1.72,0-2.57-.96-2.37-2.68Z"/>
      <path class="cls-10" d="m375.05,103.2v-13.22c0-1.64.88-2.52,2.52-2.52h7.4c1.64,0,2.52.88,2.52,2.52v.33c0,1.64-.88,2.52-2.52,2.52h-3.81v1.62h3.36c1.64,0,2.52.76,2.52,2.12v.03c0,1.39-.88,2.15-2.52,2.15h-3.36v1.64h3.81c1.64,0,2.52.88,2.52,2.52v.3c0,1.64-.88,2.52-2.52,2.52h-7.4c-1.64,0-2.52-.88-2.52-2.52Z"/>
    </g>
  </g>
</svg>