<svg id="Layer_1" data-name="Layer 1" xmlns="http://www.w3.org/2000/svg" viewBox="0 0 160 160"><defs><style>.cls-1{fill:#fff;}</style></defs><path d="M157.31,80A77.31,77.31,0,1,1,80,2.69,77,77,0,0,1,157.31,80Z"/><path d="M80,157.81a77.81,77.81,0,1,1,57.29-25.16A78,78,0,0,1,80,157.81ZM80,3.19A76.81,76.81,0,1,0,156.81,80,76.9,76.9,0,0,0,80,3.19Z"/><circle class="cls-1" cx="80" cy="60.05" r="40.63"/><path class="cls-1" d="M136.92,131.31a77.31,77.31,0,0,1-114-.17,81.6,81.6,0,0,1,114,.17Z"/><path d="M61.18,129.29a1.42,1.42,0,0,0-.35-1,4.2,4.2,0,0,0-1.29-.74A6,6,0,0,1,57.07,126a3.06,3.06,0,0,1-.75-2.06,2.88,2.88,0,0,1,1-2.31,3.86,3.86,0,0,1,2.59-.87,3.8,3.8,0,0,1,1.87.44,3.06,3.06,0,0,1,1.27,1.25,3.75,3.75,0,0,1,.44,1.83H61.22a1.93,1.93,0,0,0-.34-1.22A1.38,1.38,0,0,0,59,123a1.3,1.3,0,0,0-.34,1,1.17,1.17,0,0,0,.38.84,4.11,4.11,0,0,0,1.33.79,5.57,5.57,0,0,1,2.41,1.48,3.24,3.24,0,0,1,.76,2.22,3,3,0,0,1-1,2.33,3.78,3.78,0,0,1-2.57.83,4.49,4.49,0,0,1-2-.45,3.43,3.43,0,0,1-1.42-1.3,3.78,3.78,0,0,1-.51-2h2.31a2.15,2.15,0,0,0,.38,1.43,1.56,1.56,0,0,0,1.25.44C60.78,130.56,61.18,130.14,61.18,129.29Z"/><path d="M68,130.6c.64,0,1-.42,1-1.25H71a3.13,3.13,0,0,1-.85,2.23,2.89,2.89,0,0,1-2.16.85,3.13,3.13,0,0,1-2.5-1,4.62,4.62,0,0,1-.87-3v-.67a4.71,4.71,0,0,1,.85-3,3,3,0,0,1,2.5-1,2.89,2.89,0,0,1,2.21.86A3.57,3.57,0,0,1,71,127H69a2.19,2.19,0,0,0-.24-1.1.81.81,0,0,0-.75-.38.91.91,0,0,0-.83.41,3.59,3.59,0,0,0-.26,1.59v.86a6.72,6.72,0,0,0,.1,1.44,1,1,0,0,0,.34.6A1,1,0,0,0,68,130.6Z"/><path d="M76.3,132.28a3.05,3.05,0,0,1-.19-.66,1.89,1.89,0,0,1-1.61.81,2.36,2.36,0,0,1-1.76-.7,2.46,2.46,0,0,1-.7-1.82,2.56,2.56,0,0,1,.85-2.06,3.72,3.72,0,0,1,2.44-.74H76v-.68a1.3,1.3,0,0,0-.19-.81.72.72,0,0,0-.57-.23c-.56,0-.83.32-.83,1H72.19a2.48,2.48,0,0,1,.88-1.94,3.33,3.33,0,0,1,2.23-.76,3,3,0,0,1,2.15.72,2.73,2.73,0,0,1,.76,2.07v4a4.1,4.1,0,0,0,.32,1.71v.14ZM75,130.7a1.22,1.22,0,0,0,.63-.15,1.08,1.08,0,0,0,.38-.35v-1.76h-.53a1.14,1.14,0,0,0-.89.36,1.41,1.41,0,0,0-.32,1C74.26,130.39,74.5,130.7,75,130.7Z"/><path d="M81.84,123.82l.06.83a2.37,2.37,0,0,1,2-1c1.45,0,2.2,1,2.24,3.06v5.56H83.89v-5.4a2,2,0,0,0-.21-1,.85.85,0,0,0-.76-.33,1,1,0,0,0-.94.62v6.15H79.76v-8.46Z"/><path d="M98.4,122.81H95.59v9.47H93.28v-9.47H90.51v-1.92H98.4Z"/><path d="M97.73,127.77a4.55,4.55,0,0,1,.91-3,3.43,3.43,0,0,1,5,0,4.59,4.59,0,0,1,.91,3v.54a4.61,4.61,0,0,1-.9,3,3.48,3.48,0,0,1-5.05,0,4.6,4.6,0,0,1-.9-3Zm2.22.56c0,1.51.4,2.27,1.21,2.27s1.15-.63,1.21-1.9v-.93a3.46,3.46,0,0,0-.32-1.71,1,1,0,0,0-.9-.56,1,1,0,0,0-.88.56,3.46,3.46,0,0,0-.32,1.71Z"/><path d="M70.62,143.94a1.41,1.41,0,0,0-.36-1.05,4,4,0,0,0-1.29-.74,6,6,0,0,1-2.46-1.52,3.06,3.06,0,0,1-.75-2.06,2.88,2.88,0,0,1,1-2.31,3.89,3.89,0,0,1,2.6-.87,3.83,3.83,0,0,1,1.87.44,3.13,3.13,0,0,1,1.26,1.24,3.81,3.81,0,0,1,.44,1.83H70.65a1.86,1.86,0,0,0-.34-1.21,1.19,1.19,0,0,0-1-.42,1.22,1.22,0,0,0-.94.36,1.33,1.33,0,0,0-.34,1,1.17,1.17,0,0,0,.38.85,4.3,4.3,0,0,0,1.33.79,5.76,5.76,0,0,1,2.42,1.47,3.32,3.32,0,0,1,.75,2.23,2.92,2.92,0,0,1-.94,2.32,3.74,3.74,0,0,1-2.58.84,4.49,4.49,0,0,1-2-.45,3.41,3.41,0,0,1-1.41-1.3,3.69,3.69,0,0,1-.52-2h2.31a2.22,2.22,0,0,0,.38,1.43,1.61,1.61,0,0,0,1.25.44C70.22,145.21,70.62,144.79,70.62,143.94Z"/><path d="M78.37,146.93a2.57,2.57,0,0,1-.19-.66,1.89,1.89,0,0,1-1.61.81,2.4,2.4,0,0,1-1.77-.7,2.5,2.5,0,0,1-.7-1.82A2.58,2.58,0,0,1,75,142.5a3.75,3.75,0,0,1,2.45-.74h.67v-.68a1.3,1.3,0,0,0-.2-.81.72.72,0,0,0-.57-.23c-.55,0-.83.32-.83,1H74.26a2.45,2.45,0,0,1,.88-1.94,3.28,3.28,0,0,1,2.23-.76,3,3,0,0,1,2.15.72,2.72,2.72,0,0,1,.76,2.07v4a4.28,4.28,0,0,0,.31,1.71v.14Zm-1.31-1.58a1.28,1.28,0,0,0,.63-.15,1.08,1.08,0,0,0,.38-.35v-1.76h-.53a1.14,1.14,0,0,0-.89.36,1.36,1.36,0,0,0-.32,1C76.33,145,76.57,145.35,77.06,145.35Z"/><path d="M84.54,143.8l1.07-5.33h2.31l-2.32,8.46H83.49l-2.33-8.46h2.31Z"/><path d="M92.27,147.08a3.44,3.44,0,0,1-2.65-1,4,4,0,0,1-1-2.9v-.68a4.75,4.75,0,0,1,.88-3.08,3,3,0,0,1,2.51-1.09,2.88,2.88,0,0,1,2.4,1,4.9,4.9,0,0,1,.82,3v1.08h-4.4a2.33,2.33,0,0,0,.41,1.38,1.41,1.41,0,0,0,1.14.43,2.5,2.5,0,0,0,1.85-.75l.87,1.33a2.83,2.83,0,0,1-1.18.91A4,4,0,0,1,92.27,147.08Zm-1.39-5.19H93.1v-.2a2.42,2.42,0,0,0-.25-1.15.88.88,0,0,0-.82-.39.92.92,0,0,0-.84.41A2.91,2.91,0,0,0,90.88,141.89Z"/></svg>