<?xml version="1.0" encoding="utf-8"?>
<!-- Generator: Adobe Illustrator 25.2.1, SVG Export Plug-In . SVG Version: 6.00 Build 0)  -->
<svg version="1.1" id="Layer_1" xmlns="http://www.w3.org/2000/svg" xmlns:xlink="http://www.w3.org/1999/xlink" x="0px" y="0px"
	 viewBox="0 0 237.6 299.2" style="enable-background:new 0 0 237.6 299.2;" xml:space="preserve">
<style type="text/css">
	.st0{fill:#FFFFFF;stroke:#EB8EBB;stroke-width:12;stroke-linecap:round;stroke-linejoin:round;}
	.st1{fill:#E98EBC;stroke:#EA8EBC;stroke-width:18;stroke-linecap:square;stroke-linejoin:round;}
	.st2{fill:none;stroke:#231F20;stroke-width:8;stroke-linecap:round;stroke-linejoin:round;}
	.st3{fill:#FFFFFF;}
</style>
<rect x="7.6" y="6" class="st0" width="214.1" height="214.1"/>
<rect x="9" y="245.9" class="st1" width="211.4" height="44.3"/>
<path class="st2" d="M115.1,225.1"/>
<path class="st2" d="M92.6,245.9"/>
<path class="st2" d="M115.1,225.1"/>
<path class="st2" d="M133.8,246.1"/>
<g>
	<path class="st3" d="M63.7,268.9h-1.3v5.7c0,0.8-0.2,1.3-0.5,1.7c-0.3,0.4-0.8,0.5-1.3,0.5c-0.6,0-1-0.2-1.3-0.6s-0.5-0.9-0.5-1.6
		v-13.8c0-0.8,0.2-1.3,0.5-1.7c0.3-0.3,0.9-0.5,1.7-0.5H67c0.8,0,1.5,0,2.1,0.1c0.6,0.1,1.1,0.2,1.6,0.4c0.6,0.2,1.1,0.6,1.5,1
		c0.4,0.4,0.8,1,1,1.5c0.2,0.6,0.3,1.2,0.3,1.8c0,1.3-0.4,2.4-1.1,3.2c-0.8,0.8-1.9,1.4-3.4,1.7c0.6,0.3,1.3,0.8,1.8,1.5
		c0.6,0.7,1.1,1.4,1.6,2.1c0.5,0.8,0.8,1.4,1.1,2c0.3,0.6,0.4,1,0.4,1.3c0,0.2-0.1,0.5-0.2,0.7c-0.2,0.2-0.4,0.4-0.6,0.5
		c-0.3,0.1-0.6,0.2-0.9,0.2c-0.4,0-0.7-0.1-1-0.3c-0.3-0.2-0.5-0.4-0.7-0.7c-0.2-0.3-0.5-0.7-0.8-1.3l-1.5-2.4c-0.5-0.9-1-1.6-1.4-2
		c-0.4-0.5-0.8-0.8-1.3-1C64.9,269,64.4,268.9,63.7,268.9z M65.8,261.4h-3.3v4.9h3.2c0.9,0,1.6-0.1,2.2-0.2c0.6-0.2,1-0.4,1.4-0.8
		c0.3-0.4,0.5-0.9,0.5-1.5c0-0.5-0.1-0.9-0.4-1.3c-0.3-0.4-0.6-0.7-1-0.8C67.9,261.4,67.1,261.4,65.8,261.4z"/>
	<path class="st3" d="M84.7,275c-0.8,0.6-1.6,1.1-2.3,1.4c-0.8,0.3-1.6,0.5-2.5,0.5c-0.9,0-1.6-0.2-2.3-0.5
		c-0.6-0.3-1.1-0.8-1.5-1.4c-0.4-0.6-0.5-1.2-0.5-1.9c0-0.9,0.3-1.7,0.9-2.3c0.6-0.6,1.4-1.1,2.4-1.3c0.2,0,0.7-0.2,1.6-0.3
		c0.8-0.2,1.6-0.3,2.2-0.5c0.6-0.1,1.2-0.3,1.9-0.5c0-0.9-0.2-1.5-0.5-1.9c-0.3-0.4-1-0.6-1.9-0.6c-0.8,0-1.5,0.1-1.9,0.4
		c-0.4,0.2-0.8,0.6-1.1,1.1c-0.3,0.5-0.5,0.8-0.6,0.9c-0.1,0.2-0.4,0.2-0.8,0.2c-0.4,0-0.7-0.1-1-0.4c-0.3-0.2-0.4-0.5-0.4-0.9
		c0-0.6,0.2-1.2,0.6-1.7s1.1-1,1.9-1.4s2-0.5,3.3-0.5c1.5,0,2.6,0.2,3.5,0.5c0.8,0.3,1.4,0.9,1.8,1.6c0.3,0.7,0.5,1.7,0.5,3
		c0,0.8,0,1.4,0,2c0,0.5,0,1.2,0,1.8c0,0.6,0.1,1.3,0.3,2c0.2,0.7,0.3,1.1,0.3,1.3c0,0.3-0.2,0.7-0.5,0.9c-0.3,0.3-0.7,0.4-1.1,0.4
		c-0.3,0-0.7-0.2-1-0.5C85.4,276,85.1,275.6,84.7,275z M84.5,270.1c-0.5,0.2-1.2,0.4-2.1,0.6c-0.9,0.2-1.6,0.3-1.9,0.4
		c-0.4,0.1-0.7,0.3-1,0.5c-0.3,0.3-0.5,0.7-0.5,1.1c0,0.5,0.2,0.9,0.6,1.3c0.4,0.4,0.9,0.5,1.5,0.5c0.7,0,1.3-0.1,1.8-0.4
		c0.6-0.3,1-0.7,1.2-1.1c0.3-0.5,0.5-1.3,0.5-2.5V270.1z"/>
	<path class="st3" d="M90.7,263.6h0.4v-2c0-0.5,0-1,0-1.3c0-0.3,0.1-0.6,0.2-0.8c0.1-0.2,0.3-0.4,0.6-0.6s0.5-0.2,0.8-0.2
		c0.4,0,0.8,0.2,1.1,0.5c0.2,0.2,0.4,0.5,0.4,0.8c0.1,0.3,0.1,0.7,0.1,1.3v2.3h1.2c0.5,0,0.8,0.1,1.1,0.3c0.2,0.2,0.4,0.5,0.4,0.9
		c0,0.4-0.2,0.8-0.5,0.9c-0.4,0.2-0.9,0.3-1.5,0.3h-0.6v6.1c0,0.5,0,0.9,0.1,1.2c0,0.3,0.1,0.5,0.3,0.7c0.2,0.2,0.4,0.3,0.8,0.3
		c0.2,0,0.5,0,0.8-0.1c0.3-0.1,0.6-0.1,0.8-0.1c0.3,0,0.5,0.1,0.7,0.3c0.2,0.2,0.3,0.5,0.3,0.8c0,0.5-0.3,0.9-0.9,1.2
		c-0.6,0.3-1.4,0.4-2.5,0.4c-1,0-1.8-0.2-2.4-0.5s-0.9-0.8-1.1-1.5c-0.2-0.6-0.2-1.4-0.2-2.5V266h-0.4c-0.5,0-0.8-0.1-1.1-0.3
		c-0.3-0.2-0.4-0.5-0.4-0.9s0.1-0.6,0.4-0.9C89.8,263.7,90.2,263.6,90.7,263.6z"/>
	<path class="st3" d="M108.7,270.9h-6.5c0,0.8,0.2,1.4,0.5,2c0.3,0.6,0.7,1,1.2,1.3c0.5,0.3,1,0.4,1.6,0.4c0.4,0,0.8,0,1.1-0.1
		c0.3-0.1,0.6-0.2,1-0.4c0.3-0.2,0.6-0.4,0.9-0.6c0.3-0.2,0.6-0.5,1-0.9c0.2-0.1,0.4-0.2,0.7-0.2c0.3,0,0.6,0.1,0.8,0.3
		c0.2,0.2,0.3,0.5,0.3,0.8c0,0.3-0.1,0.7-0.4,1.1c-0.2,0.4-0.6,0.8-1.1,1.2c-0.5,0.4-1.1,0.7-1.8,0.9c-0.7,0.2-1.5,0.4-2.5,0.4
		c-2.1,0-3.8-0.6-5-1.8c-1.2-1.2-1.8-2.9-1.8-5c0-1,0.1-1.9,0.4-2.7c0.3-0.8,0.7-1.6,1.3-2.2c0.6-0.6,1.3-1.1,2.1-1.4
		c0.8-0.3,1.7-0.5,2.7-0.5c1.3,0,2.4,0.3,3.4,0.8c0.9,0.5,1.6,1.3,2.1,2.1s0.7,1.8,0.7,2.7c0,0.8-0.2,1.4-0.7,1.6
		C110.2,270.7,109.6,270.9,108.7,270.9z M102.2,269h6c-0.1-1.1-0.4-2-0.9-2.6c-0.5-0.6-1.2-0.8-2.1-0.8c-0.8,0-1.5,0.3-2,0.9
		C102.6,267,102.3,267.9,102.2,269z"/>
	<path class="st3" d="M120.7,269.1v-8.6c0-0.7,0.2-1.3,0.5-1.6c0.3-0.4,0.8-0.5,1.3-0.5c0.6,0,1,0.2,1.3,0.5
		c0.3,0.4,0.5,0.9,0.5,1.6v8.8c0,1,0.1,1.8,0.3,2.5c0.2,0.7,0.6,1.2,1.2,1.6s1.4,0.6,2.4,0.6c1.4,0,2.4-0.4,3-1.1
		c0.6-0.8,0.9-1.9,0.9-3.4v-8.9c0-0.7,0.2-1.3,0.5-1.7s0.8-0.5,1.3-0.5c0.5,0,1,0.2,1.3,0.5s0.5,0.9,0.5,1.7v8.6
		c0,1.4-0.1,2.6-0.4,3.5s-0.8,1.8-1.5,2.5c-0.7,0.6-1.4,1-2.3,1.3c-0.9,0.3-1.9,0.4-3,0.4c-1.4,0-2.6-0.1-3.6-0.4
		c-1-0.3-1.8-0.8-2.4-1.4c-0.6-0.6-1.1-1.4-1.4-2.4S120.7,270.5,120.7,269.1z"/>
	<path class="st3" d="M150.2,272.5c0,0.9-0.2,1.7-0.7,2.4c-0.4,0.7-1.1,1.2-2,1.5c-0.9,0.3-1.9,0.5-3.2,0.5c-1.2,0-2.2-0.2-3.1-0.5
		s-1.5-0.8-1.9-1.4c-0.4-0.5-0.6-1.1-0.6-1.7c0-0.4,0.1-0.7,0.4-0.9s0.6-0.4,1-0.4c0.3,0,0.6,0.1,0.8,0.3c0.2,0.2,0.4,0.4,0.5,0.7
		c0.3,0.6,0.8,1,1.2,1.3c0.5,0.3,1.1,0.4,1.9,0.4c0.7,0,1.2-0.1,1.6-0.4c0.4-0.3,0.6-0.6,0.6-1c0-0.6-0.2-1-0.7-1.3
		s-1.2-0.5-2.2-0.8c-1.1-0.3-2.1-0.6-2.8-0.9c-0.7-0.3-1.3-0.7-1.7-1.2c-0.4-0.5-0.6-1.1-0.6-1.9c0-0.7,0.2-1.3,0.6-1.9
		c0.4-0.6,1-1.1,1.8-1.4c0.8-0.4,1.7-0.5,2.8-0.5c0.9,0,1.6,0.1,2.3,0.3c0.7,0.2,1.3,0.4,1.7,0.7c0.5,0.3,0.8,0.6,1,1
		s0.4,0.7,0.4,1.1c0,0.4-0.1,0.7-0.4,0.9c-0.3,0.2-0.6,0.4-1.1,0.4c-0.3,0-0.6-0.1-0.9-0.3c-0.2-0.2-0.5-0.5-0.8-0.9
		c-0.3-0.3-0.5-0.6-0.9-0.8s-0.8-0.3-1.4-0.3c-0.6,0-1.1,0.1-1.5,0.4c-0.4,0.3-0.6,0.6-0.6,1c0,0.3,0.1,0.6,0.4,0.9s0.7,0.4,1.2,0.6
		c0.5,0.1,1.2,0.3,2.1,0.5c1,0.3,1.9,0.6,2.5,0.9c0.7,0.3,1.2,0.8,1.5,1.2C150,271.3,150.2,271.9,150.2,272.5z"/>
	<path class="st3" d="M164.2,260.5l7,10.5v-10.6c0-0.7,0.1-1.2,0.4-1.6s0.7-0.5,1.2-0.5c0.5,0,0.9,0.2,1.2,0.5s0.5,0.9,0.5,1.6v14.1
		c0,1.6-0.7,2.4-2,2.4c-0.3,0-0.6,0-0.9-0.1c-0.3-0.1-0.5-0.2-0.7-0.4c-0.2-0.2-0.4-0.4-0.6-0.7c-0.2-0.3-0.4-0.6-0.6-0.8l-6.8-10.4
		v10.5c0,0.7-0.2,1.2-0.5,1.5c-0.3,0.3-0.7,0.5-1.2,0.5c-0.5,0-0.9-0.2-1.2-0.5c-0.3-0.4-0.5-0.9-0.5-1.5v-13.8c0-0.6,0.1-1,0.2-1.4
		c0.2-0.4,0.4-0.7,0.8-0.9c0.4-0.2,0.7-0.3,1.2-0.3c0.3,0,0.6,0.1,0.8,0.2c0.2,0.1,0.4,0.2,0.6,0.4s0.4,0.4,0.5,0.7
		C163.9,259.9,164,260.2,164.2,260.5z"/>
	<path class="st3" d="M190.8,270.1c0,1-0.2,1.9-0.5,2.7c-0.3,0.8-0.8,1.6-1.3,2.2c-0.6,0.6-1.3,1.1-2.1,1.4
		c-0.8,0.3-1.7,0.5-2.7,0.5c-1,0-1.9-0.2-2.7-0.5c-0.8-0.3-1.5-0.8-2.1-1.4c-0.6-0.6-1-1.3-1.3-2.1c-0.3-0.8-0.5-1.7-0.5-2.7
		c0-1,0.2-1.9,0.5-2.8s0.8-1.6,1.3-2.1c0.6-0.6,1.3-1.1,2.1-1.4c0.8-0.3,1.7-0.5,2.7-0.5c1,0,1.9,0.2,2.7,0.5
		c0.8,0.3,1.5,0.8,2.1,1.4s1,1.3,1.3,2.1C190.6,268.1,190.8,269.1,190.8,270.1z M187.4,270.1c0-1.4-0.3-2.4-0.9-3.2
		c-0.6-0.8-1.4-1.1-2.4-1.1c-0.7,0-1.2,0.2-1.7,0.5c-0.5,0.3-0.9,0.8-1.1,1.5c-0.3,0.7-0.4,1.4-0.4,2.3c0,0.9,0.1,1.6,0.4,2.3
		s0.6,1.1,1.1,1.5c0.5,0.3,1.1,0.5,1.7,0.5c1,0,1.8-0.4,2.4-1.1C187.1,272.4,187.4,271.4,187.4,270.1z"/>
	<path class="st3" d="M195.5,265.4l2.2,7.4l2-6.9c0.2-0.7,0.4-1.2,0.5-1.5c0.1-0.3,0.3-0.5,0.6-0.8c0.3-0.2,0.7-0.4,1.2-0.4
		c0.5,0,0.9,0.1,1.2,0.4c0.3,0.2,0.5,0.5,0.6,0.8c0.1,0.3,0.3,0.8,0.5,1.5l2,6.9l2.2-7.4c0.1-0.5,0.3-0.9,0.4-1.2
		c0.1-0.2,0.2-0.5,0.5-0.6c0.2-0.2,0.5-0.3,0.9-0.3c0.4,0,0.7,0.1,1,0.4s0.4,0.6,0.4,1c0,0.3-0.1,0.9-0.4,1.5l-2.7,8
		c-0.2,0.7-0.4,1.2-0.5,1.5c-0.1,0.3-0.3,0.6-0.6,0.8c-0.3,0.2-0.7,0.4-1.2,0.4c-0.5,0-0.9-0.1-1.2-0.4s-0.5-0.6-0.6-0.9
		s-0.3-0.8-0.5-1.4l-1.9-6.5l-1.8,6.5c-0.2,0.9-0.5,1.6-0.8,2c-0.3,0.5-0.8,0.7-1.5,0.7c-0.4,0-0.7-0.1-0.9-0.2
		c-0.3-0.1-0.5-0.3-0.6-0.6c-0.2-0.3-0.3-0.6-0.5-0.9c-0.1-0.4-0.2-0.6-0.3-0.9l-2.7-8c-0.3-0.7-0.4-1.3-0.4-1.5
		c0-0.4,0.1-0.7,0.4-1c0.3-0.3,0.6-0.4,1-0.4c0.6,0,0.9,0.2,1.1,0.5S195.2,264.6,195.5,265.4z"/>
	<path class="st3" d="M214.8,268.8l-0.4-5.8c-0.1-1.1-0.1-2-0.1-2.5c0-0.7,0.2-1.2,0.5-1.6c0.4-0.4,0.8-0.6,1.4-0.6
		c0.7,0,1.2,0.2,1.4,0.7c0.2,0.5,0.4,1.2,0.4,2.1c0,0.5,0,1.1-0.1,1.6l-0.5,6c-0.1,0.7-0.2,1.3-0.4,1.6c-0.2,0.4-0.5,0.6-0.9,0.6
		c-0.4,0-0.7-0.2-0.9-0.6C215,270.1,214.9,269.5,214.8,268.8z M216.2,276.8c-0.5,0-0.9-0.2-1.3-0.5c-0.4-0.3-0.6-0.8-0.6-1.3
		c0-0.5,0.2-0.9,0.5-1.3c0.4-0.4,0.8-0.5,1.3-0.5s1,0.2,1.3,0.5c0.4,0.4,0.5,0.8,0.5,1.3c0,0.6-0.2,1-0.5,1.3
		C217.1,276.6,216.6,276.8,216.2,276.8z"/>
</g>
<g>
	<g>
		<path class="st3" d="M49.1,265.1c-0.4-0.6-1.1-1.1-1.8-1.3c0.5-0.9,0.5-2.1-0.2-3c-0.4-0.7-1.1-1.1-1.8-1.3
			c0.1-0.2,0.2-0.5,0.3-0.8c0.2-0.8,0-1.6-0.4-2.2c-0.4-0.6-1.1-1.1-1.8-1.3c0.5-0.9,0.5-2.1-0.2-3c-0.9-1.4-2.7-1.7-4.1-0.8l-3,2
			c-1.6-0.8-3.2-1.4-5-1.7c-0.5-0.8-1.2-1.6-1.9-2.3l-1.2-1.2c-0.9-0.9-2.3-1-3.3-0.3c-1.2,0.8-1.6,2.5-0.8,3.7c0,0,0.1,0.1,0.1,0.1
			c-4,0.8-7.7,2.9-10.4,6.1c-2.9,3.4-4.5,7.7-4.5,12.2c0,0.9,0.1,1.7,0.2,2.6c0.9,6.5,5.2,12.1,11.3,14.6c2.3,0.9,4.7,1.4,7.1,1.4
			c3.9,0,7.6-1.2,10.8-3.5c3.1-2.2,5.4-5.3,6.7-8.8c0.1-0.3-0.1-0.7-0.4-0.8c-0.3-0.1-0.7,0.1-0.8,0.4c-1.2,3.3-3.4,6.2-6.2,8.2
			c-2.9,2.1-6.4,3.2-10.1,3.2c-1.9,0-3.7-0.3-5.5-0.9l5.2-3.4c0,0,0,0,0,0c0,0,0,0,0,0l4.3-2.9h0c0.4-0.3,0.7-0.7,0.7-1.1
			c0.1-0.5,0-0.9-0.3-1.3l-0.1-0.1l0.8-0.6c0.6-0.4,1.3-0.6,2-0.4c1,0.2,2.1-0.1,2.9-0.6l7-4.6c0,0.6-0.1,1.2-0.2,1.8
			c-0.1,0.3,0.2,0.7,0.5,0.7c0,0,0.1,0,0.1,0c0.3,0,0.6-0.2,0.6-0.5c0.2-1,0.3-1.9,0.3-2.9l2-1.3c0.7-0.4,1.1-1.1,1.3-1.9
			C49.7,266.6,49.5,265.8,49.1,265.1L49.1,265.1z M34.9,254.2l-2,1.3l-0.4-1c-0.2-0.4-0.3-0.9-0.5-1.3
			C33,253.5,33.9,253.8,34.9,254.2L34.9,254.2z M14.6,258.7c2.6-3,6.1-5,10-5.7c0.6,1.5,0.8,3.2,0.4,4.8l-1.6,6.7
			c-0.2-0.3-0.6-0.4-0.9-0.5c-0.5-0.1-0.9,0-1.3,0.3l-4.4,2.9c0,0,0,0,0,0c0,0,0,0,0,0l-6.4,4.2c0-0.4-0.1-0.9-0.1-1.4
			C10.4,265.8,11.9,261.8,14.6,258.7L14.6,258.7z M31.2,278.8c0,0.1-0.1,0.2-0.2,0.3l-3.8,2.5l-7.1-10.5c-0.2-0.3-0.6-0.4-0.9-0.2
			c-0.3,0.2-0.4,0.6-0.2,0.9l7,10.5l-5.4,3.6c-5.4-2.4-9.2-7.3-10.2-13.1l6.4-4.2l0.7,1.1c0.1,0.2,0.3,0.3,0.5,0.3
			c0.1,0,0.2,0,0.4-0.1c0.3-0.2,0.4-0.6,0.2-0.9l-0.7-1.1l3.9-2.6c0.1-0.1,0.2-0.1,0.3-0.1c0.1,0,0.2,0.1,0.3,0.2l8.6,13
			C31.2,278.5,31.3,278.7,31.2,278.8L31.2,278.8z M48.3,267.1c-0.1,0.4-0.3,0.8-0.7,1.1l-2.2,1.5c0,0,0,0,0,0l-8,5.3
			c-0.6,0.4-1.3,0.6-2,0.4c-1-0.2-2.1,0.1-2.9,0.6l-0.8,0.6l-7.1-10.7l1.8-7.9c0.5-2,0.2-4.2-0.7-6c0,0,0,0,0-0.1
			c-0.2-0.4-0.4-0.7-0.6-1c-0.4-0.6-0.2-1.5,0.4-1.9c0.5-0.4,1.3-0.3,1.7,0.2l1.2,1.2c1.3,1.3,2.4,2.9,3,4.6l0.7,1.8c0,0,0,0,0,0
			c0,0,0,0,0,0c0,0,0,0,0,0c0,0,0,0.1,0,0.1c0.2,0.3,0.6,0.4,0.9,0.2l6.8-4.5c0.8-0.5,1.8-0.3,2.3,0.5c0.5,0.8,0.3,1.8-0.5,2.3
			l-0.6,0.4c0,0,0,0,0,0l-1.3,0.9c0,0,0,0,0,0c0,0,0,0,0,0c-0.3,0.2-0.3,0.6-0.2,0.9c0.2,0.3,0.6,0.4,0.9,0.2l1.3-0.9
			c0.4-0.2,0.8-0.3,1.3-0.2c0.4,0.1,0.8,0.3,1.1,0.7c0.2,0.4,0.3,0.8,0.2,1.3c-0.1,0.4-0.3,0.8-0.7,1.1l-1.9,1.3
			c-0.3,0.2-0.4,0.6-0.2,0.9c0.1,0.2,0.3,0.3,0.5,0.3c0.1,0,0.2,0,0.4-0.1l0.3-0.2l1-0.7c0.8-0.5,1.8-0.3,2.3,0.5
			c0.5,0.8,0.3,1.8-0.5,2.3l-1,0.6c0,0,0,0,0,0l-0.9,0.6c-0.3,0.2-0.4,0.6-0.2,0.9c0.1,0.2,0.3,0.3,0.5,0.3c0.1,0,0.2,0,0.4-0.1
			l0.3-0.2l1-0.7c0.4-0.2,0.8-0.3,1.3-0.2c0.4,0.1,0.8,0.3,1.1,0.7C48.3,266.2,48.4,266.6,48.3,267.1L48.3,267.1z M48.3,267.1"/>
	</g>
</g>
</svg>
