<?xml version="1.0" encoding="UTF-8"?>
<svg xmlns="http://www.w3.org/2000/svg" viewBox="0 0 500 500">
  <defs>
    <style>
      .cls-1, .cls-2 {
        fill: #f15945;
      }

      .cls-1, .cls-2, .cls-3, .cls-4, .cls-5, .cls-6, .cls-7 {
        stroke-width: 0px;
      }

      .cls-2, .cls-8 {
        mix-blend-mode: multiply;
      }

      .cls-3 {
        fill: #f8aeac;
      }

      .cls-9 {
        isolation: isolate;
      }

      .cls-4 {
        fill: #f5f5f5;
      }

      .cls-5 {
        fill: #0f3835;
      }

      .cls-6 {
        fill: #fff;
      }

      .cls-7 {
        fill: #218e86;
      }
    </style>
  </defs>
  <g class="cls-9">
    <g id="Layer_1" data-name="Layer 1">
      <g>
        <g>
          <path class="cls-4" d="m158.47,468.82c-4.98,0-9.96-.04-14.94-.1-2.44-.03-4.5-.21-6.5-.59-8.86-1.65-15.07-8.86-15.45-17.96-.05-1.17-.05-2.33-.04-3.49,0-.61,0-1.21-.01-1.82l-1.76-62.04c-.25-8.06-.51-16.11-.74-24.17-.21-7.47-.41-14.94-.61-22.4,0-.23-.01-.45-.02-.68-5.75,3.04-11.44,5.72-16.88,8.21-2.15.98-4.46,1.8-7.26,2.58-1.67.46-3.4.7-5.15.69h-.38c-9.47-.08-17-6.88-18.16-16.32-.06-.45-.11-.91-.14-1.39l-.02-.21v-.37s-.03-.82-.03-.82c0,0,.06-.87.07-1.04.04-1.03.13-2.08.28-3.11l.09-.59c.07-.47.14-.93.22-1.39l.38-2.13c1.61-9.02,3.25-18.13,4.9-27.24.63-3.47,1.28-6.93,1.93-10.4-2.19-1.11-4.35-2.18-6.53-3.19-6.11-2.83-12.26-5.59-18.41-8.35-3.29-1.47-6.58-2.95-9.86-4.43-.71-.32-1.45-.66-2.18-1.03-.97-.47-1.92-1-2.84-1.6l-.23-.13-.56-.4-.71-.48-.44-.39c-.39-.31-.78-.64-1.15-.98,0,0-.52-.49-.65-.62-.51-.49-1-.99-1.47-1.54-6.72-7.97-5.89-19.47,1.88-26.19.3-.26.62-.52.96-.78.39-.33.87-.71,1.45-1.12,1.96-1.37,4.13-2.59,6.39-3.58,6.63-2.91,13.28-5.77,19.93-8.63l.48-.21c11.08-5.37,22.58-12.15,37.23-21.93.84-.56,1.68-1.14,2.53-1.74-.26-4.31-.32-8.55-.3-12.42-.32-1.19-.52-2.42-.57-3.68-.1-1.98.16-3.93.72-5.78.06-2.97.12-5.94.12-8.91,0-2,.2-3.81.61-5.53,1.95-8.36,8.64-14.1,17.03-14.61.43-.03.87-.07,1.31-.11,1.27-.11,2.85-.25,4.64-.25h.27c2.12.02,4.23.08,6.34.14,2.19.06,4.38.13,6.57.13.45,0,.91,0,1.36,0-3.71-3.17-6.8-6.49-9.4-10.12-3.6-5.01-5.84-10.62-6.67-16.69-1.52-11.12,2.86-21.18,12.01-27.62,1.19-.83,2.42-1.6,3.69-2.28-.45-2.12-.73-4.23-.84-6.36-.8-14.72,7.96-26.46,22.32-29.9,2.6-.62,5.32-.94,8.08-.94,2.13,0,4.34.19,6.58.56.35-.92.74-1.83,1.17-2.73,4.84-10.14,13.99-16.18,25.11-16.57.52-.02,1.04-.03,1.55-.03,3.93,0,7.51.55,10.96,1.67,3.14,1.03,6.23,2.36,9.16,3.97,8.95,4.92,16.65,11.83,22.89,20.55.44.62.89,1.25,1.33,1.88,1.41-1.94,2.9-3.91,4.5-5.91,6.02-7.55,13.62-13.6,22.61-17.98,5.69-2.77,11.49-4.17,17.25-4.17.66,0,1.33.02,2.01.06,11.05.62,20.08,6.75,24.77,16.82.38.82.73,1.66,1.05,2.51,2.23-.37,4.45-.56,6.59-.56,4,0,7.89.65,11.56,1.93,11.31,3.95,18.9,14.52,18.9,26.3,0,3.04-.32,6.02-.96,9.01,12.93,6.87,18.38,19.17,14.95,33.93-1.16,4.99-3.48,9.64-7.1,14.22-2.3,2.9-4.92,5.63-8.08,8.36,5.12-.05,10.23-.08,15.34-.08,3.6,0,7.64.17,11.77,2.16,3.58,1.68,10.18,6.22,10.83,16.93.07,1,.12,2.11.13,3.49v3.95s.02,2.34.03,2.81c1.09,3.41,1.09,7.01.04,10.33v.29c.13,1.2.13,2.42,0,3.63,0,0,0,2.44,0,3.41,0,.66-.04,1.33-.09,2v1.16c0,.35-.01.7-.02,1.06,8.08,5.72,16.75,10.89,25.79,16.28l.51.3c9.21,5.49,19.3,9.87,27.95,13.43,2.43,1,4.72,2.05,6.65,2.95,1.86.87,3.49,1.77,4.98,2.77,1.13.75,2.17,1.59,3.15,2.53l1.73,1.5.92,1.57c.35.49.67,1,.96,1.51l.18.33c.19.34.52.96.86,1.77,1.94,4.6,1.97,9.63.08,14.24-.47,1.16-.97,2.04-1.26,2.52l-.26.42-.86,1.58-1.8,1.86c-.43.44-.93.88-1.46,1.31-.03.02-.3.25-.3.25-.39.31-.78.62-1.18.91-.3.23-.61.45-.95.67-.5.32-.99.61-1.48.88l-.18.1c-.98.55-2,1.05-3.04,1.52l-2.15.97c-6.38,2.88-12.75,5.76-19.14,8.6l-.4.19c-.63.3-1.51.72-2.59,1.14,0,0-3.21,1.45-4.12,1.87-2.28,1.05-4.55,2.16-6.84,3.31,1.4,7.64,4.32,23.63,4.32,23.63.97,5.31,1.93,10.62,2.82,15.95.15.91.24,1.74.31,2.51.17,1.06.32,2.37.32,3.87.02,5.3-1.91,10.19-5.45,13.74-3.45,3.47-8.11,5.37-13.12,5.37h0c-.32,0-.65,0-.98-.02h-.84s-1.25-.19-1.25-.19c-2.33-.37-4.74-1.09-7.39-2.2-.57-.21-1.14-.44-1.7-.7-5.82-2.72-11.54-5.43-17.13-8.38-.45,14.56-.91,29.13-1.37,43.7l-2.02,68.77-.02.36c-.14,11.81-7.47,19.51-19.14,20.22-2.64.16-5.17.17-7.33.17,0,0-.88.02-1.17.02-12.51-.02-24.99-.05-37.47-.12h-2.28s-.06,0-.06,0c-.46.02-.93.03-1.4.03-.49,0-.98-.01-1.48-.04h-.79c-7.89-.02-15.78-.04-23.67-.04h-2.13c-25.99,0-51.99.02-77.98.04l-45.04.03Z"/>
          <g>
            <g>
              <g>
                <path class="cls-1" d="m466.99,244.96c-.74-.64-1.59-1.18-2.47-1.61-2.66-1.29-5.3-2.67-8.05-3.73-15.57-6-30.1-14.01-44.29-22.72-14.08-8.65-27.37-18.31-39.56-29.47-.73-.67-1.49-1.3-2.3-1.86-.38-.27-.91-.32-1.26-.43-1.2.12-2.1.62-2.42,1.61-.3.92-.34,1.94-.37,2.92-.63,18.45-2.49,36.82-4.15,55.19-1.11,12.31-1.88,24.64-2.54,36.98-.18,3.29-.1,6.59-.17,9.89-.07,2.76.69,5.18,2.69,7.17,1.16,1.16,2.2,2.45,3.36,3.63,6.03,6.15,12.81,11.36,20.03,16.02,9.57,6.18,19.82,11.07,30.11,15.87,1.33.62,2.77,1.03,4.19,1.47,2.45.75,3.87-.25,3.86-2.7,0-.65-.1-1.31-.21-1.96-1.37-7.78-2.73-15.57-4.14-23.34-1.8-9.88-3.68-19.75-5.45-29.63-.56-3.15-.3-3.65,2.51-5.08,5.42-2.77,10.83-5.57,16.36-8.12,10-4.62,20.08-9.08,30.13-13.58,1.51-.68,3.03-1.33,4.22-2.51,1.08-1.08,1.08-3.01-.05-3.99Z"/>
                <path class="cls-3" d="m457.8,247.06c-.08.3-.06.78-.24.88-1,.54-2.02,1.08-3.1,1.45-4.04,1.39-8.12,2.66-12.15,4.07-11.55,4.03-22.35,9.59-32.57,16.26-2.03,1.33-4.47,2.1-5.99,4.17.68,2.19,1.33,4.4,2.03,6.58,4.32,13.49,7.75,27.2,9.89,41.21.25,1.62.32,3.28.43,4.92.04.67-.11,1.53-.82,1.53-.43,0-1.02-.78-1.25-1.34-1.54-3.67-2.17-7.6-2.8-11.48-2.02-12.38-5.36-24.4-9.25-36.3-1.86-5.68-2.28-5.57,3.24-9.78,5.51-4.2,11.65-7.43,17.78-10.6,10.11-5.23,20.83-8.92,31.75-12.04.77-.22,1.61-.21,2.42-.19.21,0,.42.43.62.66Z"/>
              </g>
              <g>
                <path class="cls-1" d="m136.62,229.26c-1.15-13.3-2.37-26.59-2.68-39.94-.02-.66-.02-1.33-.15-1.97-.38-2.01-2.46-2.93-4.13-1.76-1.07.75-2.04,1.67-3.02,2.54-7.87,7.03-16.02,13.74-24.8,19.6-18.37,12.27-37.23,23.65-57.97,31.6-2.76,1.06-5.41,2.4-8.07,3.7-1.02.5-1.99,1.16-2.85,1.91-1.06.91-1.02,2.46-.1,3.56,1.1,1.31,2.59,2.03,4.12,2.63,8.11,3.22,15.86,7.24,23.85,10.72,7.55,3.29,14.82,7.14,22.18,10.8,3.82,1.9,3.91,2.27,3.11,6.6-3.05,16.51-6.1,33.03-9.12,49.55-.27,1.45-.5,2.93-.53,4.41-.03,2.27,1.33,3.23,3.51,2.62,3.99-1.11,7.64-3.03,11.35-4.81,9.51-4.56,18.86-9.41,27.51-15.48,6.77-4.75,13.06-10.02,18.64-16.15,2.24-2.47,3.37-5.19,3.27-8.49-.14-4.45-.23-8.89-.34-13.34-.7-16.15-2.37-32.22-3.77-48.3Z"/>
                <path class="cls-3" d="m83.79,325.22c.92-5.2,1.9-11.38,3.11-17.52,2.1-10.68,5.37-21.04,8.75-31.37.94-2.88.94-2.85-1.74-4.56-8.74-5.59-17.6-10.95-27.2-14.98-6.22-2.61-12.59-4.79-18.99-6.94-1.91-.64-4.79-.18-5.42-3.2,2.18-1.41,4.11.14,6.03.68,15.47,4.34,29.98,10.86,43.47,19.62,2.21,1.44,4.32,2.99,6.25,4.82,1.26,1.19,1.47,2.49,1.04,4.02-.31,1.11-.63,2.22-1.01,3.3-4.43,12.62-7.53,25.56-9.81,38.73-.53,3.08-1.11,6.17-2.38,9.05-.22.51-.52,1.32-1.35,1.01-.73-.27-.73-1-.74-2.66Z"/>
              </g>
              <path class="cls-2" d="m64.31,231.14c-1.23,1.73-2.09,2.9-2.91,4.11-3.46,5.07-3.36,8.7.36,13.55.68.89,1.4,1.76,2.57,3.22-1.45-.16-2.22-.13-2.91-.35-5.03-1.59-10.04-3.23-15.06-4.84-1.07-.34-2.16-.73-3.52.32.51.52.84,1.12,1.33,1.32,1.83.73,3.7,1.38,5.58,1.98,11.96,3.85,23.44,8.75,34.34,15.07,4.42,2.57,6.19,5.87,6.01,10.87-.15,4.26.27,8.55.65,12.81.15,1.69.06,3.26-.41,4.86-2.59,8.71-4.18,17.64-5.68,26.58-.3,1.78-.4,3.6-.5,5.4-.02.38.34.79.52,1.17,1.69-.26,1.69-1.66,1.94-2.66.88-3.51,1.62-7.07,2.35-10.62.73-3.55,1.36-7.12,2.11-10.67.34-1.6.84-3.16,1.38-5.16.9.57,1.66.83,2.11,1.36,2.58,3.04,5.78,3.43,9.43,2.5,3.73-.95,7.11-2.65,10.31-4.7,6.94-4.45,13.79-9.03,20.71-13.52,1.47-.95,2.75-2.35,5.05-2.48.19.84.47,1.58.52,2.33.11,1.81-.02,3.64.17,5.44.54,5.01-1.46,8.82-4.92,12.33-7.47,7.57-15.83,13.93-24.9,19.41-8.34,5.04-17.1,9.26-25.95,13.31-1.64.75-3.38,1.32-5.12,1.8-1.84.51-3.36-.56-3.42-2.44-.04-1.3.18-2.63.41-3.92,1.85-10.38,3.72-20.77,5.61-31.14,1.09-6,2.23-11.99,3.34-17.99.12-.65.23-1.3.31-1.95.38-3.35.14-3.98-2.84-5.53-5.12-2.66-10.23-5.35-15.46-7.78-10.02-4.64-20.12-9.09-30.18-13.64-1.2-.54-2.42-1.09-3.49-1.84-2.42-1.66-2.46-3.94-.1-5.6,1.21-.85,2.52-1.59,3.87-2.18,8.15-3.57,16.33-7.09,24.5-10.61.28-.12.63-.05,1.89-.13Z"/>
              <g class="cls-8">
                <path class="cls-1" d="m435.29,263.03c-1.13-1.7-1.59-3.55-1.63-5.86,1.1-.61,2.15-1.38,3.33-1.81,4.79-1.75,9.62-3.4,14.43-5.09,1.55-.54,3.13-1.04,4.63-1.7.5-.22,1.19-.96,1.12-1.34-.21-1.11-1.23-.77-1.98-.64-.81.14-1.59.41-2.37.67-5.32,1.74-10.63,3.49-15.94,5.24-1.24.41-2.47.84-3.95,1.34-.58-.85-1.28-1.55-1.62-2.4-2.35-5.74-6.01-10.58-10.29-14.97-2.76-2.82-5.66-5.51-8.6-8.15-6.25-5.61-12.56-11.15-18.83-16.73-3.72-3.31-6.82-7.14-9.48-11.33-.59-.93-.97-1.98-1.44-2.95,1.19-.8,1.76.04,2.31.5,12.27,10.06,25.87,18.11,39.44,26.21,10.22,6.1,21.03,10.91,32,15.42,2.13.88,4.23,1.83,6.32,2.81,1.04.49,2.07,1.03,3.02,1.66,2.9,1.93,2.86,4.21-.11,6.15-.82.53-1.73.95-2.63,1.35-7.5,3.39-15,6.78-22.52,10.12-1.61.71-3.15,1.8-5.2,1.5Z"/>
                <path class="cls-1" d="m410.99,331.79c-.65-8.22-1.3-16.56-2-25.41,1.31,2.53,1.53,4.84,1.96,7.1.47,2.43,1,4.84,1.52,7.26.51,2.38.83,4.84,2.29,6.83,1.38-.28,1.34-1.19,1.22-1.97-.95-6.02-1.81-12.06-2.96-18.04-1.87-9.73-4.83-19.17-7.8-28.61-.53-1.7-1.49-3.32-1.24-5.18,3.92-3.43,4.26-3.43,9.16-.13,2.33,12.76,4.65,25.38,6.95,38,1.06,5.84,2.13,11.67,3.1,17.52.27,1.61.34,3.28.25,4.9-.09,1.41-1.45,2.22-2.87,2-2.32-.36-6.16-2.07-9.58-4.29Z"/>
              </g>
            </g>
            <path class="cls-7" d="m371.91,193.91c-.66-.05-1.32.02-1.98.02-15.33.03-30.67.1-46,.09-64.8-.06-129.6-.15-194.4-.23-1.16,0-2.29,0-3.4.42-1.35.52-2.28,1.31-2.34,2.84-.07,1.81-.22,3.62-.19,5.43.18,9.56.35,19.12.63,28.68.78,26.53,1.64,53.06,2.43,79.6.54,18.13.98,36.26,1.49,54.39.34,12.03.74,24.06,1.11,36.09.52,16.64,1.04,33.29,1.54,49.93.05,1.81-.02,3.63.05,5.44.07,1.56.81,2.51,2.29,2.79,1.29.24,2.62.32,3.93.33,5.61.06,11.21.1,16.82.1,43.2-.02,86.4-.09,129.6-.08,24.4,0,48.81.11,73.21.16,2.8,0,5.61.02,8.41-.15,3.29-.2,4.03-1.01,4.07-4.27.27-22.59,1.28-45.16,1.99-67.73.64-20.1,1.2-40.21,1.79-60.32,0,0,.02,0,.03,0,.4-12.52.83-25.05,1.2-37.57.49-16.98.93-33.95,1.4-50.93.07-2.64.26-5.27.32-7.91.23-10.71.48-21.43.61-32.14.04-3.67-1.08-4.72-4.6-4.98Z"/>
            <path class="cls-6" d="m360.76,237.03c-.6-.04-1.2.01-1.8.01-13.93.03-27.85.08-41.78.07-58.85-.05-117.7-.12-176.56-.19-1.05,0-2.08,0-3.09.34-1.22.42-2.07,1.04-2.12,2.27-.07,1.45-.2,2.89-.17,4.34.17,7.64.32,15.27.58,22.91.71,21.19,1.49,42.38,2.21,63.57.49,14.48.89,28.96,1.36,43.44.31,9.61.67,19.22,1.01,28.82.47,13.29.94,26.59,1.4,39.88.05,1.45-.02,2.9.05,4.34.06,1.24.74,2.01,2.08,2.23,1.17.19,2.38.25,3.57.27,5.09.05,10.18.08,15.27.08,39.23-.02,78.47-.07,117.7-.06,22.16,0,44.33.09,66.49.13,2.54,0,5.1.01,7.63-.12,2.99-.16,3.66-.81,3.69-3.41.25-18.04,1.16-36.06,1.8-54.09.58-16.06,1.09-32.11,1.63-48.17,0,0,.02,0,.02,0,.36-10,.76-20,1.09-30.01.45-13.56.84-27.12,1.27-40.67.07-2.11.23-4.21.29-6.32.21-8.56.44-17.11.55-25.67.04-2.93-.98-3.77-4.18-3.98Z"/>
            <path class="cls-5" d="m250.21,82.72c.83-.63,1.08-1.6,1.42-2.52,3.89-10.47,9.93-19.68,16.83-28.34,4.89-6.14,10.99-10.88,18.06-14.32,3.76-1.83,7.68-2.89,11.91-2.65,5.48.31,9.31,3.01,11.59,7.9,1.41,3.02,2.03,6.26,2.06,9.6.02,2.74,0,5.47,0,8.16,1.77.39,2.81-.64,3.95-1.15,4.22-1.92,8.61-3.26,13.16-4.09,3.79-.69,7.56-.63,11.23.65,5.45,1.9,8.47,6.93,8.47,11.6,0,5.96-1.96,11.28-4.72,16.43-.84,1.56-2.23,2.85-2.48,4.77,1.32,1.07,2.87.59,4.28.67,3.67.22,7.16,1.05,10.45,2.68,8.32,4.11,9.41,10.18,7.79,17.17-.72,3.08-2.29,5.8-4.26,8.29-2.99,3.78-6.57,6.92-10.4,9.81-9.69,7.33-20.57,12.35-31.91,16.44-10.87,3.92-22.11,6.46-33.53,8.11-6.52.94-13.04,2.02-19.6,2.55-10.35.85-20.73.94-31.09-.29-8.02-.95-16.03-1.91-23.97-3.37-15.63-2.86-30.65-7.52-44.82-14.81-6.03-3.1-11.68-6.77-16.92-11.05-3.08-2.51-5.87-5.3-8.19-8.54-2.15-3-3.49-6.3-4-9.98-.74-5.44,1.14-9.73,5.57-12.85,3.72-2.62,7.97-3.85,12.49-4.19,1.31-.1,2.65-.06,3.94-.26.73-.11,1.05-.89.73-1.52-.66-1.32-1.52-2.54-2.23-3.84-2.45-4.53-4.29-9.25-4.58-14.48-.4-7.34,3.27-12.27,10.47-13.99,2.94-.71,5.9-.63,8.84-.13,4.06.7,8.03,1.78,11.81,3.47,1.2.54,2.41,1.07,3.63,1.56,1.39.56,2.06.04,2.08-1.56.03-2.64.02-5.27.08-7.91.06-2.84.75-5.55,1.97-8.1,2.34-4.89,6.19-7.57,11.66-7.77,2.48-.09,4.91.12,7.31.9,2.36.77,4.61,1.75,6.78,2.94,7.51,4.12,13.62,9.8,18.58,16.73,5.76,8.05,11.11,16.35,14.35,25.81.22.65.6,1.16,1.23,1.47Zm-37.02,26.58c-3.82-5.76-7.76-11.44-11.41-17.31-4.61-7.41-8.93-15-11.33-23.48-.45-1.6-1.36-2.48-2.77-3.19-3.98-1.99-8-3.85-12.28-5.09-3.33-.96-6.7-1.64-10.21-1.48-7.24.33-10.94,5.43-9.87,11.79,1.07,6.36,3.99,11.77,7.58,16.97,1.11,1.6,2.43,2.49,4.38,2.82,2.75.46,5.48,1.09,8.16,1.87,12.92,3.73,24.72,9.83,35.9,17.2.7,1.14,1.74,1.75,3.19,1.97-.31-.9-.51-1.67-1.32-2.05Zm75.89.02c.28-.18.56-.35.83-.53,13.52-8.69,27.72-15.79,43.76-18.55,1.38-.24,2.4-.91,3.22-2.06,3.09-4.3,5.8-8.77,7.28-13.93.65-2.25.89-4.52.83-6.83-.09-3.7-2.07-6.16-5.37-7.57-1.19-.51-2.52-.83-3.81-.95-2.3-.21-4.6-.13-6.88.36-5.68,1.21-10.97,3.41-16.15,5.98-1.58.78-2.54,1.8-3.04,3.56-1.88,6.53-5.02,12.49-8.38,18.36-4.26,7.44-9.03,14.54-13.96,21.54-.83.74-1.48,1.62-1.89,2.97,1.54-.5,2.68-1.22,3.56-2.37Zm-54.09,40.56c2.54,1.1,5.17,1.14,7.94.9-.3-1.01-.9-1.16-1.53-1.28-1.57-.9-3.13-1.8-4.7-2.69-13.32-7.53-26.59-15.14-39.4-23.51-12.17-7.96-23.62-16.77-33.07-27.96-.21-.25-.43-.5-.63-.76-.66-.81-1.49-1.19-2.55-1.28-3.46-.28-6.92-.36-10.35.22-2.78.47-5.4,1.5-7.68,3.21-3.18,2.38-4.51,5.58-3.84,9.52.57,3.32,2.01,6.25,4.14,8.84,2.73,3.33,5.9,6.19,9.36,8.75,8.94,6.62,18.89,11.28,29.29,15.05,17.14,6.22,35.01,8.95,53.01,10.98Zm22.01.65c3.59.37,6-.38,8.44-.66,10.64-1.22,21.24-2.65,31.72-4.93,12.93-2.81,25.39-6.91,37.2-12.91,7.23-3.68,14-8.02,19.79-13.78,1.99-1.98,3.89-4.08,5.12-6.62,4.13-8.57,1.42-14.34-6.76-17.19-4.15-1.45-8.42-1.27-12.71-1.11-1.66.06-2.72.8-3.73,2-9.29,11.12-20.64,19.85-32.67,27.73-12.95,8.48-26.39,16.17-39.88,23.76-1.84,1.03-3.67,2.09-6.51,3.71Zm-14.3-33.88c1.15-8.28,3.02-16.41,5.04-24.51.42-1.68.02-3.22-.47-4.83-3.92-12.83-10.94-23.9-19.42-34.12-3.93-4.74-8.7-8.5-14.12-11.46-2.92-1.6-5.98-2.74-9.31-3.05-6.09-.55-10.22,2.2-11.82,8.09-1.09,4-1.33,8.11-.92,12.26.3,2.98,1.56,4.92,4.29,6.56,17.31,10.38,31.1,24.26,40.82,42.05,1.34,2.46,2.72,4.89,4.11,7.32.38.67.57,1.57,1.8,1.69Zm14.99.05c1.08-.23,1.29-1.11,1.68-1.79,2.06-3.56,4.06-7.16,6.12-10.72,7.91-13.62,18.59-24.68,31.4-33.74,2.96-2.09,6.06-3.97,9.09-5.94.96-.63,1.87-1.21,2.11-2.54.97-5.44,1.04-10.84-.77-16.1-1.81-5.24-5.46-7.56-10.98-7.19-3.51.24-6.74,1.41-9.81,3.09-5.7,3.13-10.67,7.16-14.76,12.21-8.04,9.91-14.78,20.57-18.67,32.87-.71,2.26-.9,4.38-.3,6.72,1.73,6.86,3.47,13.72,4.29,20.78.09.8.39,1.57.59,2.35Zm-1.05,20.95c1.72-.41,2.18-1.36,2.82-2.07,4.06-4.54,8.12-9.06,12.69-13.11.73-.65,1.38-1.41,2.02-2.16,10.25-12.07,19.18-25.05,26.67-39.01,1.55-2.89,2.83-5.92,4.17-8.92.32-.7.69-1.52.05-2.3-.31.09-.65.11-.9.27-11.79,7.49-21.95,16.75-30.13,28.08-5.79,8.01-10.41,16.73-15,25.47-.61,1.17-1.09,2.37-1.12,3.74-.07,3.29-.34,6.55-1.25,10Zm-61.4-67.23c-.57.78-.11,1.58.19,2.27,1.11,2.56,2.23,5.13,3.52,7.61,5.32,10.26,11.57,19.95,18.5,29.18,3.26,4.35,6.56,8.73,10.35,12.59,4.51,4.58,9.05,9.12,13.34,13.91.46.51.88,1.49,2,.72-.29-2.72-.68-5.5-.84-8.28-.12-2.03-.67-3.85-1.62-5.63-3.66-6.82-7.37-13.61-11.56-20.13-8.33-12.98-19.28-23.3-32.06-31.78-.52-.35-1.07-.7-1.81-.46Zm48.86,75.76c-.4-.54-.72-1.05-1.11-1.49-5-5.7-10.01-11.4-15.04-17.08-.76-.86-1.6-1.66-2.48-2.42-9.27-8-19.16-15.1-30.09-20.66-6.91-3.51-14.05-6.48-21.47-8.73-1.3-.39-2.64-.98-4.17-.53.28.55.36.87.56,1.09.89.98,1.78,1.94,2.71,2.88,7.69,7.78,16.44,14.23,25.54,20.23,14.04,9.25,28.65,17.55,43.16,26.03.64.38,1.27,1.06,2.37.68Zm85.99-50.82c-8.76,1.03-25.6,8.67-38.38,16.85-13.86,8.87-24.81,20.64-34.95,33.29.72.69,1.17.34,1.55.11,15.64-9.12,31.42-18.01,46.44-28.15,8.2-5.54,16.07-11.52,22.98-18.66.88-.91,2.11-1.62,2.36-3.44Zm-79.73,4.23c-1.07,1.06-1.23,2.38-1.5,3.65-1.03,4.83-1.64,9.75-2.63,14.56-1.28,6.22,1.35,11.09,3.99,16.58,1.32-3.13,2.43-5.86,3.62-8.56.49-1.1.66-2.19.55-3.36-.74-7.7-1.8-15.35-4.04-22.86Z"/>
            <g>
              <path class="cls-1" d="m251.21,154.64c39.25.02,78.5.04,117.74.05,4.62,0,9.24-.23,13.85-.11,4.62.12,5.17.71,5.23,5.14.11,9.07.18,18.14.11,27.2-.02,2.95-.37,5.93-.81,8.85-.56,3.66-2.44,5.17-6.05,5.14-61.34-.65-122.68-.62-184.03-.52-23.58.04-47.16.12-70.74.19-2.47,0-4.94.16-7.41.19-3.73.05-5.42-1.25-6.25-4.94-.36-1.6-.5-3.26-.6-4.9-.7-10.71-.05-21.43-.03-32.15,0-.66.04-1.33.19-1.96.28-1.2.91-2.11,2.3-2.19,1.81-.11,3.61-.36,5.42-.35,4.62.04,9.23.29,13.84.29,39.08.04,78.17.05,117.25.07,0,0,0-.01,0-.02Z"/>
              <path class="cls-2" d="m345.99,200.94c.78-2.75,1.69-4.72,1.86-6.75.95-11.49,1.6-23-.77-34.42-.29-1.42-.96-2.84,0-4.67,1.05-.13,2.31-.42,3.57-.44,10.2-.11,20.41-.23,30.61-.24,6.24,0,6.8.59,6.82,6.73.03,9.71.02,19.42-.04,29.13-.01,1.8-.21,3.62-.53,5.39-.68,3.84-3.1,5.48-6.46,5.41-8.56-.17-17.12-.11-25.68-.14-3.11,0-6.22,0-9.39,0Z"/>
              <g>
                <path class="cls-3" d="m250.14,196.13c-20.27,0-40.55.14-60.82-.08-15.65-.17-31.3-.82-46.96-1.19-7.25-.17-14.5-.18-21.75-.28-2.14-.03-4.3.08-6.36-.61-.35-.12-.74-.76-.72-1.15.02-.36.5-.93.86-1.01.94-.2,1.93-.23,2.91-.25,16.82-.4,33.62.32,50.43.68,15.65.33,31.32.88,46.97.61,16.8-.29,33.59.65,50.37-.02,9.22-.37,18.42.15,27.63.05,20.77-.23,41.53-.49,62.29-1.14,9.72-.3,19.45-.07,29.17-.08.33,0,.66.04.99.04.76.02,1.2.54,1.52,1.1.25.43-.79,1.53-1.56,1.58-1.97.14-3.95.3-5.92.31-18.63.13-37.24.85-55.86,1.21-18.95.37-37.91.2-56.86.25-5.44.02-10.88,0-16.32,0,0,0,0,0,0-.01Z"/>
                <path class="cls-3" d="m250.01,189.41c-14.83-.53-29.66-1.05-44.5-1.58-2.64-.09-5.27-.27-7.91-.3-13.03-.13-26.03-.98-39.05-1.62-9.22-.45-18.45-.9-27.66-1.43-4.77-.28-9.53-.74-14.3-1.11-1.49-.12-2.95-.38-4.26-1.12-.22-.12-.38-.54-.39-.82-.01-.53.31-1.02.84-1.01,3.13.08,6.27.08,9.38.36,17.09,1.58,34.23,2.07,51.37,2.75,23.23.92,46.47,1.67,69.71,2.48,3.13.11,6.27.22,9.4.12,14.34-.43,28.68-.94,43.02-1.42,11.04-.37,22.09-.65,33.12-1.17,16.14-.75,32.3-1.07,48.41-2.58,3.28-.31,6.58-.34,9.88-.46.48-.02,1.02.11,1.14.72.15.75-.21,1.19-.92,1.47-1.56.6-3.19.73-4.84.88-18.57,1.71-37.19,2.38-55.81,3.09-23.73.91-47.46,1.71-71.19,2.54-1.81.06-3.63,0-5.44,0,0,.07,0,.13,0,.2Z"/>
                <path class="cls-3" d="m249.68,175.54c-10.22-.25-20.44-.52-30.66-.75-3.79-.09-7.58-.11-11.38-.11-30.67-.03-61.34-.05-92.01-.09-1.3,0-2.61-.12-3.9-.26-.18-.02-.43-.48-.44-.74-.01-.27.15-.68.37-.8,1.49-.83,3.15-.84,4.79-.86,4.45-.07,8.9-.14,13.36-.15,26.88-.05,53.76-.12,80.63-.09,9.73.01,19.45.35,29.18.4,9.4.05,18.8.08,28.19-.15,20.28-.49,40.56,0,60.84-.06,17.81-.06,35.62.09,53.42.16,2.14,0,4.3-.1,6.32.79.24.1.43.46.52.74.22.66-.34.95-.77,1.01-.97.14-1.96.16-2.95.16-29.85,0-59.69-.05-89.54.03-11.7.03-23.41.38-35.11.55-3.63.05-7.26,0-10.88,0,0,.08,0,.16,0,.23Z"/>
                <path class="cls-3" d="m250.78,159.62c7.41-.16,14.83-.3,22.24-.5,9.06-.25,18.11.02,27.17.35,9.55.34,19.11.22,28.67.2,15-.03,29.98.34,44.92,1.86,3.77.38,7.56.44,11.35.66.64.04,1.29.12,1.91.29.29.08.74.44.72.6-.08.45-.26,1.11-.59,1.25-.73.31-1.58.49-2.38.48-2.97-.02-5.94-.04-8.89-.24-6.08-.4-12.15-.93-18.23-1.37-9.05-.65-18.12-.53-27.18-.54-35.92-.06-71.84-.06-107.77-.06-23.23,0-46.47.03-69.7.1-8.74.03-17.43.94-26.14,1.53-3.78.26-7.57.35-11.36.45-.8.02-1.65-.14-2.4-.43-.34-.13-.57-.75-.68-1.19-.04-.16.35-.59.6-.65.79-.19,1.6-.3,2.4-.36,9.69-.69,19.38-1.51,29.09-1.98,7.9-.38,15.81-.35,23.72-.47,3.95-.06,7.91-.03,11.86-.02,10.38.02,20.75-.33,31.12-.5,11.53-.19,23.06.26,34.6.43,1.65.02,3.3,0,4.94,0,0,.04,0,.08,0,.12Z"/>
              </g>
            </g>
          </g>
        </g>
        <g>
          <path class="cls-6" d="m211.82,212.52c.94.43,1.76,1.12,2.47,2.05l-2.02,1.98c-.37-.77-.86-1.34-1.47-1.71-.61-.38-1.38-.56-2.32-.56-.85,0-1.51.16-1.97.48-.46.32-.69.74-.69,1.27,0,.48.23.87.7,1.15.47.28,1.31.53,2.53.74,1.28.24,2.29.54,3.04.89.75.35,1.3.8,1.65,1.33.35.53.52,1.2.52,1.99,0,.86-.24,1.61-.73,2.24s-1.17,1.12-2.04,1.46c-.87.34-1.87.51-2.99.51-1.54,0-2.81-.22-3.8-.65-.99-.43-1.78-1.09-2.39-1.97l1.74-2.08c.52.86,1.13,1.46,1.81,1.8s1.52.5,2.53.5c.91,0,1.6-.14,2.07-.43.47-.28.71-.69.71-1.21,0-.38-.22-.7-.67-.96-.45-.26-1.24-.5-2.39-.72-1.32-.27-2.37-.59-3.16-.96-.79-.37-1.36-.82-1.71-1.36-.35-.54-.53-1.2-.53-2,0-.84.23-1.59.68-2.26s1.12-1.2,1.99-1.58,1.9-.57,3.07-.57c1.3,0,2.42.22,3.36.65Z"/>
          <path class="cls-6" d="m226.83,225.3c-1.05.69-2.3,1.03-3.76,1.03-1.38,0-2.57-.29-3.59-.87-1.02-.58-1.8-1.41-2.35-2.5s-.82-2.37-.82-3.86.27-2.78.82-3.86,1.33-1.92,2.34-2.5c1.01-.58,2.2-.87,3.56-.87,1.46,0,2.7.31,3.71.92s1.71,1.52,2.09,2.72l-2.66,1.13c-.23-.84-.58-1.44-1.06-1.81-.48-.37-1.13-.55-1.96-.55-1.19,0-2.12.42-2.8,1.25-.67.84-1.01,2.03-1.01,3.57s.33,2.74.98,3.57,1.57,1.25,2.77,1.25c1.71,0,2.79-.83,3.23-2.49l2.7.81c-.41,1.35-1.14,2.36-2.19,3.05Z"/>
          <path class="cls-6" d="m239.51,222.7h-5.4l-1.15,3.42h-3l5.13-14.04h3.51l5.12,14.04h-3.04l-1.17-3.42Zm-.72-2.17l-1.32-3.96-.64-2.13h-.04l-.59,2.08-1.36,4h3.96Z"/>
          <path class="cls-6" d="m257.86,226.12h-3.36l-4.91-8.25-1.21-2.36h-.02l.09,2.49v8.12h-2.64v-14.04h3.34l4.91,8.23,1.21,2.38h.04l-.08-2.49v-8.12h2.64v14.04Z"/>
          <path class="cls-6" d="m283.3,226.12h-2.64v-7.32l.13-4.1h-.04l-3.89,11.42h-2.4l-3.87-11.42h-.04l.15,4.1v7.32h-2.66v-14.04h4.25l2.53,7.66.89,3.17h.04l.91-3.15,2.51-7.68h4.13v14.04Z"/>
          <path class="cls-6" d="m297.78,223.76v2.36h-10.83v-14.04h10.53v2.36h-7.59v3.49h5.98v2.25h-5.98v3.57h7.89Z"/>
        </g>
      </g>
    </g>
  </g>
</svg>