<?xml version="1.0" encoding="UTF-8"?>
<svg xmlns="http://www.w3.org/2000/svg" viewBox="0 0 500 500">
  <defs>
    <style>
      .cls-1 {
        fill: #f1c3b0;
      }

      .cls-1, .cls-2, .cls-3, .cls-4, .cls-5, .cls-6, .cls-7, .cls-8, .cls-9, .cls-10, .cls-11, .cls-12, .cls-13, .cls-14, .cls-15 {
        stroke-width: 0px;
      }

      .cls-2 {
        fill: #1c1719;
      }

      .cls-3 {
        fill: #010101;
      }

      .cls-16 {
        isolation: isolate;
      }

      .cls-4 {
        fill: #f3f0ea;
      }

      .cls-5 {
        fill: #f5f5f5;
      }

      .cls-6 {
        fill: #efc330;
      }

      .cls-7 {
        fill: #fff;
      }

      .cls-8 {
        fill: #e2e0da;
      }

      .cls-9 {
        fill: #5e2b70;
      }

      .cls-10 {
        fill: #131112;
      }

      .cls-11 {
        fill: #213a1b;
      }

      .cls-12 {
        fill: #97282d;
      }

      .cls-13 {
        fill: #41853e;
      }

      .cls-14 {
        fill: #cd363e;
      }

      .cls-15 {
        fill: #da8492;
      }

      .cls-17 {
        opacity: .53;
      }

      .cls-17, .cls-18 {
        mix-blend-mode: multiply;
      }

      .cls-18 {
        opacity: .17;
      }
    </style>
  </defs>
  <g class="cls-16">
    <g id="Layer_1" data-name="Layer 1">
      <g>
        <g>
          <g>
            <path class="cls-2" d="m291.79,473.45s8.77,5.84,7.35,10.27c-1.44,4.56-27.84,2.82-31,.31-1.6-1.28-3.16-16.83-4.29-31.79,5.46.4,21.93,1.44,30.72.05l-2.79,21.15Z"/>
            <path class="cls-12" d="m299.14,417.7l-4.56,34.59c-8.8,1.39-25.26.35-30.72-.05-1.09-14.41-1.8-28.25-1.8-28.25,11.89-8.14,37.09-6.29,37.09-6.29Z"/>
            <path class="cls-3" d="m260.75,446.78c-.67,1.64.19,8.45.67,9.22.5.81,9.39,2.11,18.08,2.11,9.83,0,16.34-1.1,17.04-1.82.99-1.01,1.67-9.03.86-9.45s-4.61.75-18.3.75c-14.63,0-17.87-2.01-18.35-.82Z"/>
          </g>
          <g>
            <path class="cls-2" d="m241.39,452.25c-1.14,14.96-2.69,30.51-4.3,31.79-3.16,2.51-29.56,4.25-31-.31-1.4-4.44,7.37-10.27,7.37-10.27l-2.79-21.15c8.78,1.39,25.28.35,30.72-.05Z"/>
            <path class="cls-12" d="m243.2,423.99s-.71,13.84-1.8,28.25c-5.44.4-21.94,1.44-30.72.05l-4.57-34.59s25.21-1.85,37.1,6.29Z"/>
            <path class="cls-3" d="m244.5,446.78c.67,1.64-.19,8.45-.67,9.22-.5.81-9.39,2.11-18.08,2.11-9.83,0-16.34-1.1-17.04-1.82-.99-1.01-1.67-9.03-.86-9.45s4.61.75,18.3.75c14.63,0,17.87-2.01,18.35-.82Z"/>
          </g>
          <g>
            <path class="cls-14" d="m203.76,192.46c-37.25,23.44-60.14,129.26-59.31,144.71.38,7.1,53.04,29.42,121.12,25.82,69.75-3.69,96.05-25.33,96.06-30,.01-14.2-23.15-114.98-67.24-142.42-25.16-15.66-62.75-15.66-90.63,1.88Z"/>
            <path class="cls-7" d="m259.87,348.2c.78-31.88-3.32-168.86-3.32-168.86-4.34-4.21-10.4.3-10.4.3,0,0-2.07,135.43,0,168.56,0,0,2.67,2.75,6.47,2.96,3.8.21,7.25-2.96,7.25-2.96Z"/>
            <path class="cls-14" d="m203.76,192.46c-37.25,23.44-60.14,129.26-59.31,144.71.38,7.1,53.04,29.42,121.12,25.82,69.75-3.69,96.05-25.33,96.06-30,.01-14.2-23.15-114.98-67.24-142.42-25.16-15.66-62.75-15.66-90.63,1.88Z"/>
            <path class="cls-5" d="m259.87,348.2c.78-31.88-3.32-168.86-3.32-168.86-4.34-4.21-10.4.3-10.4.3,0,0-2.07,135.43,0,168.56,0,0,2.67,2.75,6.47,2.96,3.8.21,7.25-2.96,7.25-2.96Z"/>
            <g>
              <path class="cls-10" d="m352.1,289.31s-29.31,20.93-99.97,20.93c-58.39,0-99.11-19.42-99.11-19.42,0,0,1.55-11.39,5.7-19.59,0,0,46.3,19.25,93.9,18.09,53.56-1.31,92.91-19.86,92.91-19.86,0,0,6.74,9.59,6.57,19.86Z"/>
              <path class="cls-6" d="m265.65,315.86h-25.41c-3,0-5.45-2.35-5.63-5.3-.21-1.17-1.09-6.34-1.09-10.35s.88-9.18,1.09-10.35c.17-2.95,2.63-5.3,5.63-5.3h25.41c2.93,0,5.35,2.25,5.61,5.11.34,1.24,1.26,5.1,1.26,10.54s-.92,9.3-1.26,10.54c-.26,2.86-2.68,5.11-5.61,5.11Zm-24.85-6.26h24.29c.02-.11.05-.21.08-.32,0-.03,1.09-3.59,1.09-9.08s-1.08-9.05-1.09-9.09c-.03-.1-.06-.2-.08-.31h-24.29c-.11.59-1.01,5.72-1.01,9.39s.91,8.81,1.01,9.39Z"/>
            </g>
            <g class="cls-18">
              <path class="cls-9" d="m358.92,319c-3.53.36-6.43,1.74-9.81,2.92-29.26,12.03-59.98,21.84-90.77,23.31-1.6.08-3.21.15-4.81.2-1.53.05-3.07.06-4.6.08-.62,0-1.24.02-1.86.03-34.37.15-68.77-9.57-100.94-23.7-1.35,6.98-1.82,15.21-1.66,17.75.38,6.45,53.04,26.7,121.12,23.44,69.75-3.35,96.05-22.99,96.06-27.23,0-2.26-1.3-10.49-2.71-16.8Z"/>
            </g>
            <path class="cls-5" d="m144.88,321.51c4.84-.12,29.84,27.81,108.16,26.73,60.78-.84,99.83-28.82,105.88-29.24,6.06-.42,7.73,11.9,5.64,17.54-2.09,5.64-27.77,30.07-111.3,30.49-83.53.42-108.17-21.72-111.09-25.89-2.92-4.18-1.38-19.52,2.71-19.63Z"/>
          </g>
          <g>
            <g>
              <path class="cls-4" d="m183.3,117.38s-22.97,27.99-22.55,54.4c.48,30.69,16.22,23.01,16.22,23.01,0,0,.02,36.54,26.14,48.65,18.83,8.73,27.55-6.5,27.55-6.5,0,0,11.38,21.08,41.28,15.37,25.98-4.96,24.64-27.44,24.64-27.44,0,0,5.96,10.3,17.04.71,19-16.44,7.24-46.54,7.24-46.54,0,0,12.47,2.37,7.57-24.87-4.01-22.25-26.69-49.86-26.69-49.86,0,0-80.26-14.17-118.43,13.08Z"/>
              <path class="cls-1" d="m196.48,114.87s-6.35,39.99,12.11,44.3c11.9,2.78,19.84-9.41,39.42-10.72,20.64-1.38,20.46,9.95,34.42,6.63,6.71-1.59,15.15-14.54,7.4-46.47,0,0-42.6-16.84-93.36,6.27Z"/>
              <path class="cls-15" d="m258.1,143.77c.43,4.96-4.51,9.44-11.04,10.01-6.53.57-12.18-2.98-12.61-7.94-.43-4.96,4.51-9.44,11.04-10.01,6.53-.57,12.17,2.98,12.61,7.94Z"/>
              <path class="cls-10" d="m227.67,140.7c.25,2.81-1.46,5.26-3.82,5.47-2.36.21-4.46-1.91-4.71-4.72-.25-2.81,1.46-5.26,3.82-5.47,2.36-.21,4.46,1.91,4.71,4.72Z"/>
              <path class="cls-10" d="m271.56,136.85c.25,2.81-1.46,5.26-3.82,5.47-2.36.21-4.46-1.91-4.71-4.72-.25-2.81,1.46-5.26,3.82-5.47,2.36-.21,4.46,1.91,4.71,4.72Z"/>
              <path class="cls-7" d="m225.75,126.62c1.41-1.68,1.05-6.18-4.38-5.62-4.65.49-8.97,3.85-10.22,7.65-.78,2.37,1.18,4.25,2.26,4.29,2.04.08,2.79-.95,5.55-2.54,3.04-1.75,5.57-2.33,6.79-3.78Z"/>
              <path class="cls-7" d="m261.51,124.07c-1.79-1.26-2.59-5.71,2.8-6.55,4.62-.72,9.65,1.43,11.83,4.78,1.36,2.09-.05,4.41-1.09,4.73-1.95.6-2.95-.21-6.02-1.04-3.38-.91-5.98-.83-7.53-1.92Z"/>
              <g>
                <path class="cls-14" d="m303.19,81.54s-14.6-62.55-82.07-61.04c-67.47,1.51-93.49,42.95-98.82,74.38-1.24,7.34,6.5,6.03,6.5,6.03,0,0,12.44-23.1,30.5-21.54,18.06,1.56,19.44,20.93,19.44,20.93,0,0,18.7,5.28,73.51-.78,54.81-6.06,50.93-17.99,50.93-17.99Z"/>
                <path class="cls-5" d="m176.3,93.92c-6.89,3.85-.85,26.8,1.64,30.04,2.48,3.24,22.77-9.85,67.53-12.2,44.76-2.35,61.76,2.65,63.69-.45,1.93-3.1,2.22-26.8-5.96-29.77-27.93-10.13-93.87-6.08-126.89,12.38Z"/>
                <path class="cls-5" d="m138.06,104.82c-.73-8.31-8.06-14.46-16.38-13.74-8.31.73-14.46,8.06-13.74,16.38.73,8.31,8.06,14.46,16.37,13.74,8.31-.73,14.46-8.06,13.74-16.38Z"/>
              </g>
              <g class="cls-17">
                <path class="cls-1" d="m222.71,156.26c-.07.4.06.02-.07.4-4.55,1.81-8.78,3.74-14.04,2.51-3.56-.83-6.19-2.98-8.13-5.92.02-.17.03-.34.07-.52.77-4.88,6.36-8.07,12.48-7.09,6.12.99,10.46,5.72,9.68,10.62Z"/>
              </g>
              <g class="cls-17">
                <path class="cls-1" d="m290.63,146.1s.01,0,0,.01c-2.1,5.49-5.3,8.28-8.18,8.97-5.5,1.3-9.14.41-13.34-1.86-.55-5.32,1.79-9.01,7.81-11.26,5.74-2.15,11.77-.29,13.71,4.14Z"/>
              </g>
            </g>
            <path class="cls-8" d="m218.16,230.7c-12.12,3.11-14.5-14.89-15.08-23.44-.1-1.5-1.9-1.96-2.75-.74-1.2,1.72-2.95,5.1-5.83,3.83-2.25-.99-3.2-6.95-3.35-8.88-.28-3.49.26-6.99.27-10.48,0-.18-.25-.25-.35-.09-3.43,5.91-3.88,15.48.87,20.88,3.2,3.64,6.18,1.98,8.62-.75,1.49,10.28,6.51,29.15,18.24,21.2.76-.52.31-1.76-.64-1.52Z"/>
            <path class="cls-8" d="m305.73,204.15c-.35.87-.77,1.72-1.14,2.58-1.34,3.08-1.2,3.48-4.85,4.44-3.54.93-4.38.33-6.32-2.74-1.02-1.62-1.5-3.53-1.37-5.43.13-1.82-2.68-1.8-2.83,0-.64,7.69-2.98,14.96-6.62,21.75-2.73,5.1-5.24,10.3-11.27,11.83-.34.09-.33.58,0,.68,5.95,1.78,9.33-3.47,11.98-7.94,3.61-6.09,6.34-12.4,7.76-19.17,1.67,2.96,4.35,5.33,7.65,5.53,6.01.36,8.57-6.41,8.59-11.34,0-.96-1.26-1.01-1.58-.21Z"/>
            <path class="cls-8" d="m308.47,183.48c-.26-.54-1.16-.54-1.42,0-.75,1.54-.57,3.02-.41,4.69.12,1.23.12,2.84,1.02,3.76.05.05.14.05.19,0,.89-.92.91-2.54,1.02-3.76.16-1.66.33-3.15-.41-4.69Z"/>
            <path class="cls-8" d="m311.98,175.6c-.07-.63-.37-1.04-.96-1.26-.24-.09-.45-.08-.7,0-.4.14-.85.46-.91.91-.3,2.05-.29,5.73,1.52,7.13.13.1.32.08.38-.1.32-.97.33-2.03.4-3.04.08-1.2.39-2.45.26-3.64Z"/>
            <path class="cls-8" d="m307.95,126.49c-.54-.66-1.73.05-1.44.84.87,2.38,1.76,4.74,2.53,7.15.68,2.11,1.17,4.12,2.64,5.82.55.64,1.6.11,1.6-.66.03-4.32-2.66-9.85-5.34-13.14Z"/>
            <path class="cls-8" d="m314.56,147.35c-.09-.06-.22-.03-.3.04-1.41,1.43-.37,3.66.43,5.1.34.61,1.19.29,1.24-.34.12-1.63.12-3.77-1.38-4.81Z"/>
            <path class="cls-8" d="m179.63,139.7c-.08-.02-.16-.05-.24-.07-.34-.1-.75,0-.99.26-3.33,3.58-4.3,9.64-4.51,14.35-.05,1.08,1.45,1.39,1.97.53,1.8-2.95,2.05-6.28,2.87-9.57.22-.86,2.32-5.07.9-5.5Z"/>
            <path class="cls-8" d="m171.83,163.3c-.09-.12-.28-.18-.4-.05-1.31,1.45-1.51,3.96-1.92,5.83-.51,2.32-.69,4.4-.06,6.71.24.88,1.58.91,1.81,0,.57-2.26.88-4.44,1.08-6.76.16-1.82.63-4.16-.51-5.73Z"/>
            <path class="cls-8" d="m182.7,160.86c-.07-.25-.39-.21-.47,0-1.32,3.3-1.76,6.55-1.47,10.09.07.92,1.48,1.25,1.71.23.78-3.48,1.24-6.83.23-10.32Z"/>
            <path class="cls-8" d="m223.18,186.94c-.27-1.51-.37-3.15-.88-4.59-.32-.91-1.7-1.03-1.97,0-.81,3.08.18,7.31,2.04,9.83.39.52,1.33.4,1.31-.36-.03-1.66-.2-3.26-.5-4.89Z"/>
            <path class="cls-8" d="m227.82,185.32c-.18-.16-.41-.12-.55.07-1.84,2.44.07,6.63.79,9.16.24.85,1.58.7,1.56-.21-.06-2.65.41-7.05-1.8-9.02Z"/>
            <path class="cls-10" d="m235.26,155.15s.1.07.25.18c.17.11.43.28.75.49.32.21.73.44,1.19.72.46.27,1,.53,1.58.83.58.29,1.23.55,1.91.82.68.26,1.42.48,2.17.69.76.2,1.55.35,2.35.43.4.03.81.1,1.21.11h.61s.31.02.31.02h.15s.02,0,.02,0h0c-.24.01-.06,0-.11,0h.04s.09-.01.09-.01l1.36-.12c.33-.07.67-.14,1-.21.72-.22,1.42-.48,2.08-.81,1.31-.68,2.45-1.59,3.37-2.47.92-.89,1.64-1.73,2.12-2.33.24-.31.43-.55.56-.71.12-.16.18-.24.18-.24l.05-.07c.24-.32.69-.38,1-.15.24.18.33.47.27.75,0,0-.03.13-.09.36-.06.23-.14.56-.3.97-.29.81-.78,1.96-1.64,3.21-.84,1.25-2.07,2.63-3.76,3.71-.41.28-.88.5-1.33.75-.47.22-.98.38-1.48.57-.53.16-1.12.27-1.69.39-.5.08-.93.08-1.4.12h-.3s-.19,0-.19,0h-.39s-.77-.05-.77-.05c-.51-.03-1.02-.12-1.52-.18-1-.19-1.95-.45-2.85-.76-.9-.32-1.72-.73-2.48-1.13-.76-.41-1.42-.88-2.03-1.31-1.19-.89-2.05-1.78-2.61-2.43-.28-.33-.48-.6-.62-.79-.14-.2-.21-.3-.21-.3-.25-.35-.16-.84.19-1.09.29-.2.66-.18.93.02l.02.02Z"/>
          </g>
        </g>
        <g>
          <g>
            <rect class="cls-5" x="123.53" y="186.16" width="253.08" height="274.93" rx="17.29" ry="17.29"/>
            <path class="cls-13" d="m359.33,462.59h-218.51c-10.36,0-18.79-8.43-18.79-18.79v-240.35c0-10.36,8.43-18.79,18.79-18.79h218.51c10.36,0,18.79,8.43,18.79,18.79v240.35c0,10.36-8.43,18.79-18.79,18.79ZM140.81,187.66c-8.7,0-15.79,7.08-15.79,15.79v240.35c0,8.7,7.08,15.79,15.79,15.79h218.51c8.7,0,15.79-7.08,15.79-15.79v-240.35c0-8.7-7.08-15.79-15.79-15.79h-218.51Z"/>
          </g>
          <path class="cls-10" d="m177.39,191.61s6.39,3.69,9.48-3.21c1.96-4.37-3.48-13.09-13.22-14.92-8.15-1.53-28.2-.87-35.02,7.28-6.83,8.15-2.86,28.48,18.72,29.58,21.59,1.1,19.6-14.98,20.05-18.73Z"/>
          <path class="cls-10" d="m323.53,191.61s-6.39,3.69-9.48-3.21c-1.96-4.37,3.48-13.09,13.22-14.92,8.15-1.53,28.2-.87,35.02,7.28,6.83,8.15,2.86,28.48-18.72,29.58-21.59,1.1-19.6-14.98-20.05-18.73Z"/>
        </g>
      </g>
      <g>
        <path class="cls-11" d="m205.41,197.47c4.23.9,5.17,8.47,2.22,10.48-.9.65-2.44.57-2.69-.25,1.76-1.69,1-9.51-.72-9.4-1.26.04-4.12,1.79-4.12,5.78,0,11.77,11.01,6.42,8.64,14.96-.75,2.8-5.49,4.81-9.29,3.77-4.2-1.15-5.63-4.7-3.77-7.35.68-.97,2.8-1.9,3.23-.43-1.61,1.33-1.54,3.77,1.44,4.59,2.51.72,7.46-.04,7.46-2.33.25-3.91-11.51-1.29-11.12-12.91.18-5.96,4.59-6.96,7.1-7,.83-.04,1.44.07,1.61.11Z"/>
        <path class="cls-11" d="m219.22,212.29c-.47.93-3.05.22-2.58-.54.47-.75.97-2.87.07-2.58-2.62.75-3.59,13.13-.18,12.45,2.66-.5,4.81-5.13,5.31-6.74.07-.18.21-.29.5-.29.36,0,.47.18.39.36-1.04,2.83-2.47,5.92-5.45,7.46-2.37,1.22-5.27.61-6.03-2.91-1.11-4.99.61-9.9,3.41-10.87.29-.11,1.18-.32,2.15-.29,2.33.07,3.34,2.01,2.4,3.95Z"/>
        <path class="cls-11" d="m233.17,209.31c-.29,2.58-1.61,12.38.21,12.16,1.83-.25,3.73-5.88,4.16-6.71.07-.18.36-.39.65-.22.25.22.07.68.07.68,0,0-2.3,7.39-5.67,7.71-1.79.18-2.73-1.22-3.12-3.16-.39.65-.86,1.26-1.4,1.83-2.04,2.08-3.88,1.36-4.77.43-3.62-3.91-.9-12.56,2.58-13.45,1.54-.39,3.05-.11,4.2.57.04-.22.11-.36.14-.43.14-.25.65-.39,1.15-.39.86-.04,1.87.32,1.79.97Zm-5.49,1.04c-3.12,2.04-3.8,11.95-.9,10.91,1.08-.4,1.9-1.69,2.44-3.12-.18-2.73.21-5.85.57-7.71-.36-.22-.75-.36-1.15-.39-.32,0-.65.11-.97.32Z"/>
        <path class="cls-11" d="m240.99,209.6c-.18,1.72-.21,5.2-.25,8.43,1.58-6.67,3.41-9.58,6.67-9.58,1.29,0,1.97,1.33,1.94,2.48-.11,2.94-.72,10.19.18,10.44,1.83.57,3.77-5.85,4.16-6.67.07-.14.36-.36.65-.18.25.18.07.65.07.65,0,0-2.48,8.93-6.35,7.78-3.55-1.04-2.01-10.48-2.01-12.3,0-.5-.22-.93-.75-.57-2.62,1.76-4.34,10.62-4.59,12.48h-.04c-.21.68-3.05.61-3.16-1.11-.39-6.28.07-12.02.5-12.74.14-.21.39-.29.72-.29.9-.07,2.26.57,2.26,1.18Z"/>
        <path class="cls-11" d="m289.99,197.37c2.19.25,2.4,1.72,2.33,3.01-.11,2.94-2.91,20.38-.47,21.06,1.15.29,3.48-1.72,5.17-6.67.07-.14.39-.36.68-.18.29.18.14.43.07.65-1.08,3.66-4.27,9.04-8.22,7.75-4.12-1.33-.9-17.97-.72-21.81.04-1.33-.47-1.51-.54-1.51-3.16-.32-8.79,19.52-8.47,21.49.04.11.04.18,0,.22,0,.07-.04.14-.11.22,0,0-.04,0-.07.04-.61.39-2.87.39-3.08-.9-.4-2.44,1.22-20.38.29-20.38-1.94-.04-5.92,9.72-7.39,18.04-.04,1.51-.14,4.02-.14,4.34-.04.75-2.94.32-3.05-1.22-.22-3.12.79-18.98-.36-18.87-2.58.25-2.55,4.34-2.04,7.43.11.54-2.76.5-2.76-1.33,0-7.93,8-8.93,8.57-5.45.14.82.11,4.59,0,8.57,2.08-8.79,5.56-13.6,8.61-13.17.93.14,1.4.65,1.94,1.22.72.82.39,6.92.04,12.45,3.19-12.45,7.5-14.85,9.33-15h.39Z"/>
        <path class="cls-11" d="m305.34,209.63c1.26,1.61-1.26,5.92-5.09,5.2-.86,3.08-.43,6.49,1.54,6.49,2.15,0,4.63-4.12,5.52-6.71.04-.14.14-.25.39-.25.39,0,.5.18.47.36-1.04,3.37-3.44,6.46-5.42,7.64-2.26,1.4-5.38.65-6.06-2.87-.93-5.09,2.26-10.15,5.13-10.91.25-.07.65-.14,1.11-.18.75,0,1.65.21,2.4,1.22Zm-4.81,4.27c3.41.43,5.35-4.05,4.09-4.02-1.94.22-3.3,1.97-4.09,4.02Z"/>
      </g>
    </g>
  </g>
</svg>