<svg xmlns="http://www.w3.org/2000/svg" xmlns:xlink="http://www.w3.org/1999/xlink" width="500" zoomAndPan="magnify" viewBox="0 0 375 374.999991" height="500" preserveAspectRatio="xMidYMid meet" version="1.0"><defs><g/><clipPath id="d7eccb37c4"><path d="M 146.730469 200.144531 L 268.230469 200.144531 L 268.230469 321.644531 L 146.730469 321.644531 Z M 146.730469 200.144531 " clip-rule="nonzero"/></clipPath></defs><path fill="#3c2319" d="M 289.585938 203.636719 C 291.03125 201.085938 287.527344 197.84375 285.371094 200.234375 C 282.703125 203.210938 280.3125 206.289062 277.234375 208.894531 C 274.238281 211.464844 270.902344 213.589844 267.355469 215.335938 C 263.90625 217.035156 260.265625 218.300781 256.515625 219.121094 C 254.605469 219.535156 252.667969 219.851562 250.71875 220.015625 C 248.613281 220.179688 246.472656 220.027344 244.382812 220.316406 C 241.691406 220.6875 241.675781 225.039062 244.273438 225.589844 C 248.449219 226.46875 253.425781 225.589844 257.558594 224.722656 C 261.777344 223.832031 265.914062 222.390625 269.800781 220.507812 C 277.277344 216.898438 285.425781 211.011719 289.585938 203.636719 " fill-opacity="1" fill-rule="nonzero"/><path fill="#f04053" d="M 286 204.875 C 285.507812 204.449219 285.011719 204.023438 284.75 203.40625 C 284.433594 202.621094 284.515625 201.6875 284.65625 200.808594 C 285.601562 194.535156 288.089844 188.332031 291.800781 183.019531 C 292.871094 181.46875 294.300781 179.863281 296.019531 179.710938 C 297.996094 179.558594 299.410156 181.550781 299.523438 183.625 C 299.617188 185.695312 298.738281 187.796875 297.886719 189.789062 C 300.703125 185.695312 304.46875 182.292969 308.6875 180.039062 C 311.652344 178.460938 315.144531 177.460938 317.90625 178.75 C 319.871094 179.65625 321.191406 181.621094 321.917969 183.773438 C 323.746094 189.15625 322 196.074219 317.714844 200.46875 C 315.390625 202.84375 312.492188 204.433594 309.660156 205.984375 C 305.992188 207.988281 299.605469 213.136719 295.621094 212.671875 C 292.28125 212.273438 288.40625 206.945312 286 204.875 " fill-opacity="1" fill-rule="nonzero"/><path fill="#f4c68a" d="M 290.535156 213.742188 C 287.222656 209.609375 283.679688 205.671875 279.914062 201.949219 C 278.898438 200.933594 277.703125 199.863281 276.261719 199.835938 C 274.953125 199.792969 273.785156 200.632812 272.796875 201.496094 C 271.421875 202.691406 270.078125 204.257812 270.171875 206.066406 C 270.308594 208.402344 272.644531 209.84375 274.582031 211.160156 C 277.660156 213.289062 280.285156 216.0625 282.238281 219.246094 C 282.785156 220.179688 283.378906 221.210938 284.378906 221.621094 C 285.21875 221.964844 286.167969 221.785156 287.058594 221.621094 C 288.089844 221.414062 289.132812 221.210938 290.039062 220.703125 C 290.960938 220.179688 291.730469 219.316406 291.855469 218.273438 C 292.046875 216.636719 291.550781 215.003906 290.535156 213.742188 " fill-opacity="1" fill-rule="nonzero"/><path fill="#f4c68a" d="M 163.785156 31.125 C 163.785156 41.804688 154.578125 50.46875 143.230469 50.46875 C 131.867188 50.46875 122.660156 41.804688 122.660156 31.125 C 122.660156 20.433594 131.867188 11.769531 143.230469 11.769531 C 154.578125 11.769531 163.785156 20.433594 163.785156 31.125 " fill-opacity="1" fill-rule="nonzero"/><path fill="#f4f2e1" d="M 293.078125 283.519531 C 293.078125 328.902344 250.03125 363.191406 186.386719 363.191406 C 122.757812 363.191406 79.050781 331.015625 79.050781 285.632812 C 79.050781 261.609375 99.988281 220 123.03125 204.984375 C 143.515625 191.625 156.445312 198.847656 186.386719 198.847656 C 214.703125 198.847656 225.984375 186.09375 243.175781 200.769531 C 264.195312 218.683594 293.078125 258.328125 293.078125 283.519531 " fill-opacity="1" fill-rule="nonzero"/><path fill="#f4f2e1" d="M 245.277344 196.253906 C 245.277344 220.34375 216.492188 239.878906 180.972656 239.878906 C 145.453125 239.878906 116.667969 220.34375 116.667969 196.253906 C 116.667969 172.160156 145.453125 152.640625 180.972656 152.640625 C 216.492188 152.640625 245.277344 172.160156 245.277344 196.253906 " fill-opacity="1" fill-rule="nonzero"/><path fill="#f04053" d="M 112.78125 68.464844 C 124.308594 44.632812 146.167969 30.78125 172.851562 32.925781 C 185.863281 33.953125 197.558594 38.277344 208.535156 43.179688 C 231.34375 53.378906 253.246094 67.984375 257.902344 89.960938 C 249.410156 91.871094 241.949219 87.875 234.765625 85.007812 C 211.253906 75.65625 179.722656 78.417969 154.757812 91.980469 C 143.929688 97.882812 134.464844 105.542969 125.777344 113.628906 C 121.78125 117.347656 117.933594 121.191406 114.457031 125.242188 C 112.726562 127.273438 107.710938 136.691406 105.59375 137.472656 C 98.148438 140.246094 99.753906 123.785156 99.824219 120.464844 C 100.210938 103.167969 104.59375 85.417969 112.78125 68.464844 " fill-opacity="1" fill-rule="nonzero"/><path fill="#faf8e8" d="M 256.363281 127.78125 C 256.640625 163.664062 224.953125 197.558594 180.617188 197.898438 C 136.277344 198.242188 103.617188 172.023438 103.34375 136.140625 C 103.066406 100.242188 131.042969 60.847656 175.378906 60.503906 C 219.71875 60.160156 256.089844 91.882812 256.363281 127.78125 " fill-opacity="1" fill-rule="nonzero"/><path fill="#f4a3ad" d="M 152.257812 148.304688 C 150.867188 153.136719 143.722656 155.332031 136.261719 153.21875 C 128.800781 151.105469 123.882812 145.460938 125.257812 140.628906 C 126.632812 135.796875 133.789062 133.585938 141.25 135.714844 C 148.699219 137.828125 153.628906 143.457031 152.257812 148.304688 " fill-opacity="1" fill-rule="nonzero"/><path fill="#f4a3ad" d="M 242.390625 135.304688 C 243.738281 140.148438 238.761719 145.75 231.300781 147.824219 C 223.828125 149.894531 216.695312 147.644531 215.351562 142.796875 C 214.003906 137.964844 218.949219 132.351562 226.425781 130.277344 C 233.886719 128.207031 241.042969 130.457031 242.390625 135.304688 " fill-opacity="1" fill-rule="nonzero"/><path fill="#3c2319" d="M 158.34375 110.042969 C 157.847656 109.414062 157.050781 109.332031 156.351562 109.660156 C 155.828125 109.921875 155.347656 110.304688 154.878906 110.648438 C 154.535156 110.910156 154.261719 111.183594 154.152344 111.609375 C 154.054688 111.996094 154.097656 112.503906 154.316406 112.832031 C 154.769531 113.519531 155.773438 113.886719 156.5 113.378906 L 157.285156 112.859375 L 157.574219 112.625 L 157.628906 112.585938 L 158.246094 112.089844 C 158.796875 111.542969 158.824219 110.648438 158.34375 110.042969 " fill-opacity="1" fill-rule="nonzero"/><path fill="#3c2319" d="M 220.1875 103.742188 C 220.089844 103.304688 219.882812 103.015625 219.570312 102.699219 C 219.210938 102.371094 218.785156 102.082031 218.402344 101.792969 C 217.714844 101.300781 216.640625 101.398438 216.148438 102.125 C 215.652344 102.851562 215.761719 103.828125 216.476562 104.375 C 216.863281 104.664062 217.246094 104.992188 217.671875 105.226562 C 218.058594 105.445312 218.402344 105.597656 218.839844 105.527344 C 219.226562 105.472656 219.664062 105.242188 219.882812 104.910156 C 220.105469 104.566406 220.253906 104.15625 220.1875 103.742188 " fill-opacity="1" fill-rule="nonzero"/><path fill="#f28713" d="M 196.761719 134.546875 C 199.550781 135.796875 202.722656 136.167969 205.730469 135.632812 C 207.339844 135.332031 210.019531 133.613281 211.585938 134.835938 C 213.878906 136.609375 210.390625 139.941406 209.015625 141.234375 C 207.296875 142.8125 205.527344 144.292969 203.671875 145.695312 C 200.03125 148.441406 195.480469 150.679688 190.8125 150.265625 C 181.796875 149.457031 181.21875 144.433594 181.015625 138.84375 C 180.902344 136.070312 181.90625 133.1875 183.996094 131.351562 C 188.078125 127.753906 193.007812 132.859375 196.761719 134.546875 " fill-opacity="1" fill-rule="nonzero"/><path fill="#f04053" d="M 222.660156 291.039062 C 222.660156 295.199219 219.140625 298.578125 214.785156 298.578125 C 210.429688 298.578125 206.898438 295.199219 206.898438 291.039062 C 206.898438 286.867188 210.429688 283.492188 214.785156 283.492188 C 219.140625 283.492188 222.660156 286.867188 222.660156 291.039062 " fill-opacity="1" fill-rule="nonzero"/><path fill="#f04053" d="M 218.234375 244.628906 C 218.234375 248.800781 214.703125 252.179688 210.347656 252.179688 C 206.007812 252.179688 202.476562 248.800781 202.476562 244.628906 C 202.476562 240.46875 206.007812 237.09375 210.347656 237.09375 C 214.703125 237.09375 218.234375 240.46875 218.234375 244.628906 " fill-opacity="1" fill-rule="nonzero"/><path fill="#f4c68a" d="M 268.6875 105.40625 L 268.828125 106.285156 C 269.003906 107.78125 269.074219 109.480469 268.949219 111.226562 C 268.882812 112.035156 268.785156 112.84375 268.632812 113.640625 C 267.933594 117.5 266.132812 121.066406 262.507812 122.261719 C 259.539062 123.25 257.917969 122.507812 256.296875 120.808594 C 255.828125 120.328125 255.375 119.765625 254.878906 119.132812 C 254.359375 118.488281 253.808594 117.773438 253.191406 117.003906 C 252.738281 116.457031 252.242188 115.878906 251.691406 115.273438 C 251.128906 114.644531 250.496094 114 249.78125 113.339844 C 248.683594 112.308594 247.5 111.292969 246.25 110.277344 C 245.621094 109.769531 244.960938 109.25 244.300781 108.742188 C 242.597656 107.449219 240.8125 106.171875 238.957031 104.9375 C 238.296875 104.484375 237.621094 104.046875 236.949219 103.605469 C 234.738281 102.164062 232.484375 100.777344 230.203125 99.449219 C 229.53125 99.050781 228.84375 98.652344 228.15625 98.265625 C 225.667969 96.839844 223.210938 95.492188 220.859375 94.230469 C 220.117188 93.847656 219.402344 93.476562 218.703125 93.105469 L 218.289062 92.886719 C 216.1875 91.800781 214.058594 90.855469 211.902344 90.03125 C 211.089844 89.726562 210.292969 89.441406 209.484375 89.179688 C 207.410156 88.492188 205.292969 87.917969 203.148438 87.476562 C 202.394531 87.3125 201.609375 87.160156 200.839844 87.023438 C 198.339844 86.597656 195.8125 86.335938 193.257812 86.214844 C 192.335938 86.160156 191.429688 86.132812 190.496094 86.132812 C 187.953125 86.117188 185.382812 86.242188 182.8125 86.515625 C 182.003906 86.585938 181.207031 86.695312 180.394531 86.804688 C 178.582031 87.050781 176.769531 87.367188 174.96875 87.738281 C 174.144531 87.917969 173.332031 88.09375 172.507812 88.300781 C 170.859375 88.699219 169.210938 89.136719 167.5625 89.644531 C 166.765625 89.894531 165.96875 90.140625 165.15625 90.414062 C 164.554688 90.621094 163.933594 90.839844 163.316406 91.058594 C 161.820312 91.59375 160.347656 92.1875 158.921875 92.832031 C 158.152344 93.175781 157.382812 93.542969 156.640625 93.914062 C 153.492188 95.480469 150.523438 97.292969 147.707031 99.296875 C 147.035156 99.761719 146.375 100.242188 145.730469 100.75 C 143.917969 102.125 142.15625 103.566406 140.46875 105.074219 C 139.875 105.609375 139.285156 106.144531 138.707031 106.695312 C 136.730469 108.546875 134.820312 110.496094 132.980469 112.503906 C 132.441406 113.078125 131.921875 113.65625 131.398438 114.246094 C 129.804688 116.042969 128.253906 117.882812 126.742188 119.738281 C 126.234375 120.367188 125.738281 120.984375 125.257812 121.617188 C 124.707031 122.289062 124.183594 122.960938 123.648438 123.648438 C 122.714844 124.84375 121.890625 126.09375 121.164062 127.355469 C 120.75 128.027344 120.378906 128.714844 120.035156 129.402344 C 119.199219 131.019531 118.46875 132.652344 117.808594 134.246094 C 117.523438 134.972656 117.234375 135.6875 116.957031 136.386719 C 115.96875 138.941406 115.101562 141.355469 114.128906 143.429688 C 113.796875 144.171875 113.441406 144.886719 113.054688 145.53125 C 112.09375 147.191406 110.996094 148.523438 109.605469 149.347656 C 105.167969 151.96875 100.140625 146.984375 97.160156 140.339844 C 96.664062 139.230469 96.210938 138.046875 95.839844 136.867188 C 95.085938 134.4375 94.617188 131.941406 94.5625 129.59375 C 94.535156 128.933594 94.574219 128.21875 94.644531 127.4375 C 94.726562 126.613281 94.835938 125.734375 95 124.800781 C 95.511719 122 96.417969 118.777344 97.570312 115.425781 C 97.859375 114.617188 98.148438 113.792969 98.464844 112.984375 C 99.605469 109.960938 100.9375 106.886719 102.367188 103.992188 C 102.738281 103.25 103.121094 102.507812 103.507812 101.78125 C 104.386719 100.105469 105.292969 98.527344 106.214844 97.058594 C 107.257812 95.382812 108.425781 93.75 109.691406 92.15625 C 110.238281 91.484375 110.789062 90.8125 111.367188 90.152344 C 113.027344 88.203125 114.855469 86.335938 116.765625 84.527344 C 117.34375 83.976562 117.933594 83.441406 118.523438 82.90625 C 121.300781 80.421875 124.253906 78.058594 127.277344 75.851562 C 128.003906 75.316406 128.734375 74.792969 129.460938 74.285156 C 131.671875 72.71875 133.914062 71.238281 136.140625 69.824219 C 137.226562 69.136719 138.324219 68.476562 139.4375 67.847656 C 140.125 67.449219 140.8125 67.0625 141.511719 66.679688 C 146.527344 63.976562 151.832031 61.710938 157.328125 59.925781 C 158.109375 59.664062 158.90625 59.417969 159.71875 59.183594 C 163.125 58.167969 166.601562 57.332031 170.105469 56.6875 C 170.957031 56.523438 171.835938 56.382812 172.703125 56.246094 C 175.777344 55.765625 178.871094 55.421875 181.976562 55.246094 C 182.839844 55.191406 183.691406 55.148438 184.546875 55.121094 C 188.875 54.984375 193.203125 55.136719 197.472656 55.589844 C 198.300781 55.683594 199.136719 55.78125 199.976562 55.890625 C 202.160156 56.191406 204.332031 56.5625 206.472656 57.03125 C 208.34375 57.429688 210.183594 57.894531 211.996094 58.402344 C 212.78125 58.636719 213.550781 58.855469 214.320312 59.101562 C 217.976562 60.242188 221.519531 61.613281 224.941406 63.179688 C 225.683594 63.523438 226.410156 63.867188 227.140625 64.222656 C 230.3125 65.761719 233.378906 67.476562 236.332031 69.328125 C 237.003906 69.742188 237.664062 70.179688 238.324219 70.621094 C 241.277344 72.570312 244.121094 74.65625 246.828125 76.878906 C 247.433594 77.359375 248.011719 77.839844 248.585938 78.335938 C 250.757812 80.175781 252.820312 82.082031 254.8125 84.058594 C 255.390625 84.621094 255.9375 85.199219 256.5 85.761719 C 257.175781 86.460938 257.835938 87.160156 258.480469 87.863281 C 259.921875 89.441406 261.339844 91.085938 262.628906 92.777344 C 263.097656 93.394531 263.550781 94.011719 263.976562 94.644531 C 265.789062 97.265625 267.261719 100.050781 268.125 103.003906 C 268.359375 103.785156 268.550781 104.59375 268.6875 105.40625 " fill-opacity="1" fill-rule="nonzero"/><path fill="#f04053" d="M 114.128906 143.429688 C 113.796875 144.171875 113.441406 144.886719 113.054688 145.53125 C 108.273438 144.925781 103.644531 143.539062 99.425781 141.523438 C 98.65625 141.152344 97.902344 140.753906 97.160156 140.339844 C 96.664062 139.230469 96.210938 138.046875 95.839844 136.867188 C 96.335938 137.199219 96.84375 137.511719 97.351562 137.828125 C 99.5625 139.160156 101.941406 140.273438 104.425781 141.179688 C 107.546875 142.304688 110.800781 143.046875 114.128906 143.429688 " fill-opacity="1" fill-rule="nonzero"/><path fill="#f04053" d="M 117.808594 134.246094 C 117.523438 134.972656 117.234375 135.6875 116.957031 136.386719 C 111.941406 135.742188 107.105469 134.316406 102.65625 132.242188 C 99.839844 130.910156 97.089844 129.332031 94.644531 127.4375 C 94.726562 126.613281 94.835938 125.734375 95 124.800781 C 100.867188 130.074219 109.457031 133.132812 117.808594 134.246094 " fill-opacity="1" fill-rule="nonzero"/><path fill="#f04053" d="M 121.164062 127.355469 C 120.75 128.027344 120.378906 128.714844 120.035156 129.402344 C 114.554688 127.933594 109.578125 125.199219 105.222656 121.945312 C 102.503906 119.929688 100.003906 117.703125 97.570312 115.425781 C 97.859375 114.617188 98.148438 113.792969 98.464844 112.984375 C 99.441406 113.929688 100.441406 114.863281 101.460938 115.78125 C 104.027344 118.089844 106.734375 120.273438 109.691406 122.179688 C 113.179688 124.429688 117.027344 126.242188 121.164062 127.355469 " fill-opacity="1" fill-rule="nonzero"/><path fill="#f04053" d="M 126.742188 119.738281 C 126.234375 120.367188 125.738281 120.984375 125.257812 121.617188 C 120.226562 119.449219 115.804688 116.289062 111.777344 112.859375 C 108.769531 110.304688 105.9375 107.574219 103.164062 104.816406 L 102.367188 103.992188 C 102.738281 103.25 103.121094 102.507812 103.507812 101.78125 C 104.578125 102.988281 105.800781 104.085938 106.886719 105.128906 C 109.320312 107.503906 111.820312 109.851562 114.472656 112.050781 C 118.179688 115.109375 122.21875 117.800781 126.742188 119.738281 " fill-opacity="1" fill-rule="nonzero"/><path fill="#f04053" d="M 132.980469 112.503906 C 132.441406 113.078125 131.921875 113.65625 131.398438 114.246094 C 126.175781 111.101562 121.519531 107.257812 117.535156 102.921875 C 114.992188 100.148438 112.738281 97.15625 110.789062 94.023438 C 110.417969 93.40625 110.046875 92.789062 109.691406 92.15625 C 110.238281 91.484375 110.789062 90.8125 111.367188 90.152344 C 112.136719 91.582031 112.972656 92.980469 113.878906 94.339844 C 115.761719 97.183594 117.949219 99.871094 120.339844 102.371094 C 124.046875 106.242188 128.308594 109.605469 132.980469 112.503906 " fill-opacity="1" fill-rule="nonzero"/><path fill="#f04053" d="M 140.46875 105.074219 C 139.875 105.609375 139.285156 106.144531 138.707031 106.695312 C 134.367188 103.882812 130.5625 100.421875 127.097656 96.757812 C 124.433594 93.929688 121.933594 90.949219 119.472656 87.972656 C 118.539062 86.84375 117.605469 85.707031 116.765625 84.527344 C 117.34375 83.976562 117.933594 83.441406 118.523438 82.90625 C 119.664062 84.609375 121.082031 86.1875 122.398438 87.777344 C 124.554688 90.347656 126.726562 92.898438 129.035156 95.34375 C 132.457031 98.953125 136.207031 102.300781 140.46875 105.074219 " fill-opacity="1" fill-rule="nonzero"/><path fill="#f04053" d="M 147.707031 99.296875 C 147.035156 99.761719 146.375 100.242188 145.730469 100.75 C 141.675781 97.304688 138.0625 93.433594 135 89.261719 C 132.332031 85.636719 130.050781 81.792969 128.226562 77.757812 C 128.019531 77.304688 127.660156 76.632812 127.277344 75.851562 C 128.003906 75.316406 128.734375 74.792969 129.460938 74.285156 C 130.753906 77.125 132.527344 80.886719 132.8125 81.410156 C 134.65625 84.691406 136.796875 87.804688 139.230469 90.757812 C 141.773438 93.832031 144.617188 96.675781 147.707031 99.296875 " fill-opacity="1" fill-rule="nonzero"/><path fill="#f04053" d="M 158.921875 92.832031 C 158.152344 93.175781 157.382812 93.542969 156.640625 93.914062 C 153.710938 90.265625 150.976562 86.488281 148.367188 82.644531 C 146.003906 79.144531 143.75 75.574219 141.648438 71.925781 C 140.894531 70.621094 140.054688 69.261719 139.4375 67.847656 C 140.125 67.449219 140.8125 67.0625 141.511719 66.679688 C 142.351562 68.863281 143.859375 70.949219 144.972656 72.816406 C 146.964844 76.152344 149.070312 79.433594 151.28125 82.632812 C 153.699219 86.132812 156.269531 89.507812 158.921875 92.832031 " fill-opacity="1" fill-rule="nonzero"/><path fill="#f04053" d="M 167.5625 89.644531 C 166.765625 89.894531 165.96875 90.140625 165.15625 90.414062 C 160.761719 80.792969 158.109375 70.371094 157.328125 59.925781 C 158.109375 59.664062 158.90625 59.417969 159.71875 59.183594 C 160.691406 69.753906 163.332031 79.871094 167.5625 89.644531 " fill-opacity="1" fill-rule="nonzero"/><path fill="#f04053" d="M 172.332031 67.640625 C 172.441406 72.183594 172.8125 76.726562 173.472656 81.21875 C 173.800781 83.46875 174.253906 85.636719 174.96875 87.738281 C 174.144531 87.917969 173.332031 88.09375 172.507812 88.300781 C 171.890625 86.421875 171.492188 84.484375 171.191406 82.550781 C 170.433594 77.867188 170.023438 73.117188 169.882812 68.367188 C 169.773438 64.496094 169.828125 60.585938 170.105469 56.6875 C 170.957031 56.523438 171.835938 56.382812 172.703125 56.246094 C 172.371094 60.035156 172.246094 63.839844 172.332031 67.640625 " fill-opacity="1" fill-rule="nonzero"/><path fill="#f04053" d="M 184.546875 55.121094 C 182.375 65.527344 181.769531 76.042969 182.8125 86.515625 C 182.003906 86.585938 181.207031 86.695312 180.394531 86.804688 C 179.226562 76.34375 179.75 65.679688 181.976562 55.246094 C 182.839844 55.191406 183.691406 55.148438 184.546875 55.121094 " fill-opacity="1" fill-rule="nonzero"/><path fill="#f04053" d="M 199.976562 55.890625 C 198.492188 60.160156 197.199219 64.457031 196.140625 68.835938 C 194.742188 74.628906 193.972656 80.394531 193.257812 86.214844 C 192.335938 86.160156 191.429688 86.132812 190.496094 86.132812 C 191.085938 80.023438 192.40625 73.875 193.859375 67.957031 C 194.878906 63.8125 196.074219 59.679688 197.472656 55.589844 C 198.300781 55.683594 199.136719 55.78125 199.976562 55.890625 " fill-opacity="1" fill-rule="nonzero"/><path fill="#f04053" d="M 214.320312 59.101562 C 212.246094 63.097656 210.363281 67.160156 208.671875 71.292969 C 207.066406 75.246094 205.636719 79.253906 204.414062 83.304688 C 203.988281 84.664062 203.546875 86.0625 203.148438 87.476562 C 202.394531 87.3125 201.609375 87.160156 200.839844 87.023438 C 201.144531 85.882812 201.5 84.730469 201.832031 83.605469 C 203.039062 79.527344 204.425781 75.480469 206.007812 71.484375 C 207.765625 67.035156 209.773438 62.683594 211.996094 58.402344 C 212.78125 58.636719 213.550781 58.855469 214.320312 59.101562 " fill-opacity="1" fill-rule="nonzero"/><path fill="#f04053" d="M 227.140625 64.222656 C 220.792969 72.28125 215.789062 80.886719 211.902344 90.03125 C 211.089844 89.726562 210.292969 89.441406 209.484375 89.179688 C 213.152344 79.980469 218.457031 71.140625 224.941406 63.179688 C 225.683594 63.523438 226.410156 63.867188 227.140625 64.222656 " fill-opacity="1" fill-rule="nonzero"/><path fill="#f04053" d="M 238.324219 70.621094 C 235.492188 73.832031 232.757812 77.125 230.191406 80.53125 C 228.046875 83.34375 226.011719 86.226562 224.074219 89.152344 C 222.976562 90.828125 221.90625 92.515625 220.859375 94.21875 L 220.859375 94.230469 C 220.117188 93.847656 219.402344 93.476562 218.703125 93.105469 C 219.320312 92.144531 219.953125 91.238281 220.503906 90.359375 C 222.535156 87.175781 224.679688 84.03125 226.945312 80.957031 C 229.886719 76.976562 233.007812 73.078125 236.332031 69.328125 C 237.003906 69.742188 237.664062 70.179688 238.324219 70.621094 " fill-opacity="1" fill-rule="nonzero"/><path fill="#f04053" d="M 248.585938 78.335938 C 245.660156 81.191406 242.84375 84.113281 240.136719 87.148438 C 237.621094 89.960938 235.230469 92.859375 232.9375 95.808594 C 232.003906 97.019531 231.097656 98.226562 230.203125 99.449219 C 229.53125 99.050781 228.84375 98.652344 228.15625 98.265625 C 228.484375 97.855469 228.800781 97.457031 229.078125 97.074219 C 231.578125 93.695312 234.230469 90.414062 237.003906 87.214844 C 240.109375 83.648438 243.394531 80.1875 246.828125 76.878906 C 247.433594 77.359375 248.011719 77.839844 248.585938 78.335938 " fill-opacity="1" fill-rule="nonzero"/><path fill="#f04053" d="M 256.5 85.761719 C 250.113281 91.761719 244.273438 98.144531 238.957031 104.9375 C 238.296875 104.484375 237.621094 104.046875 236.949219 103.605469 C 242.210938 96.660156 248.230469 90.097656 254.8125 84.058594 C 255.390625 84.621094 255.9375 85.199219 256.5 85.761719 " fill-opacity="1" fill-rule="nonzero"/><path fill="#f04053" d="M 263.976562 94.644531 C 261.433594 96.453125 258.960938 98.363281 256.585938 100.351562 C 252.859375 103.46875 249.464844 106.804688 246.25 110.277344 C 245.621094 109.769531 244.960938 109.25 244.300781 108.742188 C 249.660156 102.851562 255.898438 97.484375 262.628906 92.777344 C 263.097656 93.394531 263.550781 94.011719 263.976562 94.644531 " fill-opacity="1" fill-rule="nonzero"/><path fill="#f04053" d="M 268.6875 105.40625 C 262.945312 108.699219 257.464844 112.308594 253.191406 117.003906 C 252.738281 116.457031 252.242188 115.878906 251.691406 115.273438 C 256.1875 110.359375 262.023438 106.40625 268.125 103.003906 C 268.359375 103.785156 268.550781 104.59375 268.6875 105.40625 " fill-opacity="1" fill-rule="nonzero"/><path fill="#f04053" d="M 268.949219 111.226562 C 268.882812 112.035156 268.785156 112.84375 268.632812 113.640625 C 264.128906 115.632812 259.648438 117.691406 256.296875 120.808594 C 255.828125 120.328125 255.375 119.765625 254.878906 119.132812 C 258.742188 115.660156 263.878906 113.464844 268.949219 111.226562 " fill-opacity="1" fill-rule="nonzero"/><path fill="#3c2319" d="M 104.621094 230.433594 C 99.082031 230.089844 93.832031 227.578125 89.835938 223.777344 C 85.574219 219.714844 83.5 214.867188 82.320312 209.210938 C 81.660156 206.054688 76.535156 206.742188 76.6875 209.964844 C 77.332031 224.09375 91.042969 235.527344 104.621094 236.132812 C 108.300781 236.296875 108.261719 230.667969 104.621094 230.433594 " fill-opacity="1" fill-rule="nonzero"/><path fill="#f04053" d="M 88.503906 218.09375 C 89.230469 217.820312 89.960938 217.515625 90.507812 216.96875 C 91.195312 216.28125 91.46875 215.292969 91.675781 214.347656 C 93.175781 207.648438 92.886719 200.5625 90.851562 194 C 90.261719 192.09375 89.3125 190.019531 87.429688 189.347656 C 85.261719 188.59375 82.828125 190.214844 81.878906 192.300781 C 80.917969 194.386719 81.054688 196.800781 81.207031 199.09375 C 79.695312 194.054688 76.808594 189.445312 72.960938 185.875 C 70.242188 183.375 66.710938 181.289062 63.054688 181.785156 C 60.460938 182.113281 58.164062 183.71875 56.460938 185.710938 C 52.203125 190.664062 51.351562 198.269531 54.414062 204.050781 C 56.0625 207.179688 58.699219 209.679688 61.285156 212.121094 C 64.59375 215.265625 69.71875 222.457031 74.433594 223.1875 C 78.375 223.789062 84.917969 219.492188 88.503906 218.09375 " fill-opacity="1" fill-rule="nonzero"/><path fill="#f4c68a" d="M 89.164062 213.070312 C 84.285156 215.113281 79.515625 217.433594 74.898438 220 C 73.636719 220.714844 72.289062 221.550781 71.851562 222.9375 C 71.453125 224.1875 71.933594 225.535156 72.496094 226.726562 C 73.265625 228.375 74.390625 230.105469 76.164062 230.503906 C 78.445312 231.023438 80.492188 229.171875 82.292969 227.6875 C 85.175781 225.300781 88.570312 223.558594 92.171875 222.570312 C 93.214844 222.28125 94.371094 222.003906 95.042969 221.15625 C 95.605469 220.441406 95.703125 219.480469 95.785156 218.585938 C 95.867188 217.542969 95.964844 216.472656 95.730469 215.457031 C 95.484375 214.441406 94.863281 213.453125 93.890625 213.054688 C 92.363281 212.425781 90.671875 212.4375 89.164062 213.070312 " fill-opacity="1" fill-rule="nonzero"/><path fill="#3c2319" d="M 177.316406 177.351562 C 176.492188 177.777344 175.738281 178.242188 174.84375 178.53125 C 174.035156 178.792969 173.183594 178.957031 172.332031 179.011719 C 170.597656 179.09375 168.867188 178.765625 167.328125 177.941406 C 164.167969 176.238281 162.273438 173.039062 162.09375 169.472656 C 161.96875 167.082031 162.421875 164.734375 162.851562 162.402344 C 162.933594 161.867188 162.699219 161.316406 162.148438 161.164062 C 161.640625 161.027344 161.035156 161.34375 160.914062 161.867188 C 159.964844 166.3125 159.25 171.242188 161.710938 175.359375 C 163.785156 178.847656 167.578125 181.085938 171.65625 181.125 C 173.992188 181.152344 176.726562 180.492188 178.554688 178.941406 C 179.460938 178.160156 178.292969 176.84375 177.316406 177.351562 " fill-opacity="1" fill-rule="nonzero"/><path fill="#3c2319" d="M 165.226562 161.644531 C 164.566406 160.90625 163.5625 160.5625 162.617188 160.464844 C 162.175781 160.410156 161.722656 160.453125 161.285156 160.535156 L 160.734375 160.699219 L 160.183594 160.972656 L 160.171875 160.972656 L 160.019531 161.070312 C 159.59375 161.34375 159.375 161.949219 159.660156 162.402344 C 159.964844 162.855469 160.515625 163.003906 160.996094 162.746094 L 161.035156 162.730469 L 161.089844 162.71875 L 161.199219 162.675781 L 161.433594 162.59375 L 161.875 162.484375 L 161.929688 162.484375 L 162.191406 162.46875 L 162.410156 162.46875 C 162.507812 162.484375 162.78125 162.539062 162.453125 162.46875 L 162.90625 162.566406 L 163.152344 162.648438 L 163.164062 162.648438 L 163.179688 162.660156 L 164.019531 163.183594 L 164.785156 163.292969 L 165.296875 162.9375 C 165.613281 162.539062 165.542969 162.015625 165.226562 161.644531 " fill-opacity="1" fill-rule="nonzero"/><path fill="#3c2319" d="M 174.308594 126.230469 C 174.210938 125.832031 174.101562 125.378906 173.882812 124.953125 C 173.648438 124.511719 173.359375 124.117188 173.058594 123.730469 C 172.523438 123.070312 171.890625 122.507812 171.191406 122.027344 C 169.734375 121.039062 167.949219 120.492188 166.203125 120.464844 C 162.382812 120.382812 159.25 122.988281 157.902344 126.449219 C 157.160156 128.371094 157.039062 130.566406 157.613281 132.542969 C 157.984375 133.820312 159.964844 133.285156 159.605469 132.007812 C 158.824219 129.195312 159.757812 126.066406 161.929688 124.117188 C 164.03125 122.222656 167.082031 122.140625 169.472656 123.496094 C 170.144531 123.882812 170.710938 124.320312 171.230469 124.910156 C 171.449219 125.171875 171.644531 125.445312 171.835938 125.761719 L 172.109375 126.296875 L 172.207031 126.546875 C 172.277344 126.640625 172.523438 127.09375 172.371094 126.765625 C 172.578125 127.257812 173.042969 127.617188 173.609375 127.464844 C 174.144531 127.3125 174.445312 126.765625 174.308594 126.230469 " fill-opacity="1" fill-rule="nonzero"/><path fill="#3c2319" d="M 217.644531 113.859375 C 214.359375 112.308594 210.542969 113.378906 208.289062 116.179688 C 207.050781 117.746094 206.296875 119.679688 206.460938 121.699219 C 206.5 122.25 206.898438 122.714844 207.476562 122.714844 C 208 122.714844 208.535156 122.25 208.507812 121.699219 C 208.300781 119.0625 210.03125 116.511719 212.492188 115.578125 C 215.007812 114.601562 217.726562 115.742188 219.183594 117.9375 C 220.035156 119.214844 220.378906 120.640625 220.171875 122.167969 C 220.023438 123.347656 222.070312 123.636719 222.261719 122.453125 C 222.8125 118.980469 220.820312 115.371094 217.644531 113.859375 " fill-opacity="1" fill-rule="nonzero"/><g clip-path="url(#d7eccb37c4)"><path fill="#f4f2e1" d="M 207.480469 200.144531 C 173.929688 200.144531 146.730469 227.34375 146.730469 260.894531 C 146.730469 294.445312 173.929688 321.644531 207.480469 321.644531 C 241.03125 321.644531 268.230469 294.445312 268.230469 260.894531 C 268.230469 227.34375 241.03125 200.144531 207.480469 200.144531 " fill-opacity="1" fill-rule="nonzero"/></g><g fill="#000000" fill-opacity="1"><g transform="translate(124.347588, 315.097008)"><g><path d="M -10.523438 3.542969 C -10.398438 4.914062 -10.757812 6.953125 -12.644531 5.636719 L -13.5 4.988281 C -13.773438 4.8125 -14.023438 4.578125 -14.25 4.363281 C -14.984375 3.566406 -15.519531 2.71875 -16.078125 1.886719 C -16.359375 1.472656 -16.613281 1.039062 -16.78125 0.566406 C -16.792969 0.410156 -16.914062 0.273438 -17.105469 0.191406 C -17.398438 -0.00390625 -17.699219 -0.113281 -18.039062 -0.265625 C -18.277344 -0.347656 -18.496094 -0.363281 -18.742188 -0.316406 C -18.984375 -0.265625 -19.25 -0.285156 -19.515625 -0.214844 C -19.804688 -0.167969 -20.140625 -0.0820312 -20.324219 0.0390625 C -20.742188 0.359375 -21.261719 0.566406 -21.820312 0.726562 C -21.980469 0.78125 -22.097656 0.882812 -22.234375 0.960938 C -22.28125 1.003906 -22.351562 1.0625 -22.417969 1.082031 C -22.664062 1.175781 -22.699219 1.324219 -22.6875 1.523438 C -22.65625 2.03125 -22.40625 2.511719 -22.085938 2.972656 L -21.230469 4.28125 C -20.203125 5.648438 -18.996094 6.941406 -17.238281 7.917969 C -16.898438 8.070312 -16.582031 8.292969 -16.222656 8.46875 C -14.894531 8.957031 -13.539062 9.378906 -12.105469 9.320312 C -10.542969 9.273438 -8.898438 8.707031 -8.480469 7.394531 C -8.1875 6.644531 -8 5.824219 -8.050781 4.964844 C -8.0625 4.195312 -8.144531 3.441406 -8.289062 2.664062 C -8.53125 1.394531 -8.75 0.105469 -8.796875 -1.128906 C -8.835938 -1.878906 -8.550781 -2.496094 -8.15625 -3.128906 C -8.078125 -3.320312 -7.828125 -3.414062 -7.484375 -3.347656 C -6.980469 -3.289062 -6.507812 -3.125 -6.105469 -2.945312 C -5.527344 -2.707031 -4.976562 -2.40625 -4.421875 -2.148438 C -3.871094 -1.890625 -3.390625 -1.527344 -2.953125 -1.167969 C -2.703125 -0.976562 -2.519531 -0.722656 -2.429688 -0.472656 C -2.332031 -0.269531 -2.386719 -0.0976562 -2.570312 0.0234375 C -2.824219 0.203125 -3.011719 0.363281 -3.265625 0.5 C -3.65625 0.761719 -4.078125 0.839844 -4.585938 0.871094 L -5.535156 0.960938 C -5.691406 0.972656 -5.78125 1.011719 -5.832031 1.09375 C -5.925781 1.21875 -6.019531 1.300781 -6.136719 1.402344 C -6.097656 1.449219 -6.058594 1.539062 -5.980469 1.679688 L -6.410156 1.515625 C -6.316406 1.765625 -6.023438 1.675781 -5.855469 1.773438 C -5.597656 2.164062 -5.445312 2.199219 -4.929688 2.078125 C -4.820312 2.066406 -4.6875 2.03125 -4.578125 2.058594 C -3.925781 2.148438 -3.285156 2.125 -2.6875 2.058594 C -2.027344 2.015625 -1.445312 1.878906 -0.90625 1.695312 C -0.0703125 1.335938 0.339844 0.8125 0.40625 0.136719 C 0.480469 -0.625 0.140625 -1.398438 -0.316406 -2.109375 C -0.613281 -2.589844 -1.003906 -2.992188 -1.546875 -3.378906 C -1.800781 -3.527344 -1.992188 -3.652344 -2.246094 -3.757812 C -2.546875 -3.863281 -2.734375 -4.03125 -2.917969 -4.242188 C -3.117188 -4.519531 -3.386719 -4.777344 -3.75 -4.914062 C -4.429688 -5.269531 -5.136719 -5.515625 -5.945312 -5.589844 C -6.140625 -5.625 -6.382812 -5.621094 -6.535156 -5.609375 C -6.910156 -5.613281 -7.289062 -5.53125 -7.625 -5.441406 C -8.671875 -5.230469 -9.429688 -4.730469 -9.917969 -4.0625 C -10.601562 -3.054688 -10.9375 -1.976562 -10.949219 -0.859375 C -10.933594 -0.0898438 -10.941406 0.65625 -10.753906 1.441406 C -10.714844 1.53125 -10.703125 1.640625 -10.6875 1.75 C -10.660156 2.347656 -10.617188 2.964844 -10.523438 3.542969 Z M -10.523438 3.542969 "/></g></g></g><g fill="#000000" fill-opacity="1"><g transform="translate(117.129226, 306.855699)"><g><path d="M -11.867188 -5.847656 C -11.710938 -5.761719 -12.242188 -5.566406 -12.089844 -5.546875 C -11.824219 -5.519531 -11.335938 -5.222656 -11.070312 -5.195312 C -10.582031 -5.152344 -9.617188 -4.703125 -9.15625 -4.644531 L -8.441406 -4.515625 C -7.835938 -4.394531 -6.867188 -3.945312 -6.289062 -3.738281 C -5.539062 -3.488281 -4.28125 -2.523438 -3.863281 -1.976562 C -3.730469 -1.804688 -3.078125 -1.28125 -3.164062 -1.054688 C -3.226562 -0.914062 -3.289062 -0.773438 -3.367188 -0.65625 L -3.765625 -0.109375 C -3.910156 0.078125 -4.082031 0.214844 -4.289062 0.292969 C -4.464844 0.359375 -4.601562 0.433594 -4.765625 0.457031 C -5.300781 0.582031 -5.835938 0.707031 -6.363281 0.722656 L -8.078125 0.839844 C -8.519531 0.875 -8.949219 0.871094 -9.367188 0.824219 C -9.789062 0.773438 -10.210938 0.65625 -10.652344 0.695312 L -10.792969 0.632812 C -10.699219 0.613281 -10.644531 0.582031 -10.617188 0.570312 C -9.984375 0.492188 -9.394531 0.339844 -8.761719 0.195312 L -8.339844 0.0625 C -8.1875 0.0117188 -8.140625 -0.0898438 -8.132812 -0.199219 L -8.121094 -0.3125 C -8.132812 -0.519531 -8.160156 -0.753906 -8.101562 -0.964844 C -8.089844 -1.007812 -8.09375 -1.078125 -8.140625 -1.15625 C -8.171875 -1.210938 -8.226562 -1.25 -8.257812 -1.304688 C -8.375 -1.449219 -8.546875 -1.496094 -8.78125 -1.472656 C -9.320312 -1.414062 -9.867188 -1.316406 -10.414062 -1.148438 C -10.566406 -1.101562 -10.699219 -1.023438 -10.835938 -0.945312 C -11.078125 -0.808594 -11.332031 -0.628906 -11.542969 -0.4375 C -11.675781 -0.292969 -11.820312 -0.171875 -11.96875 -0.0546875 L -12.304688 -0.078125 C -12.316406 -0.0351562 -12.382812 -0.0351562 -12.394531 0.0078125 C -12.472656 0.125 -12.566406 0.210938 -12.730469 0.234375 C -12.882812 0.285156 -12.929688 0.382812 -12.964844 0.511719 C -12.972656 0.621094 -12.917969 0.660156 -12.816406 0.710938 C -12.773438 0.722656 -12.757812 0.75 -12.746094 0.777344 C -12.730469 0.804688 -12.742188 0.847656 -12.726562 0.871094 C -12.761719 1.25 -12.699219 1.605469 -12.492188 1.914062 C -12.464844 1.898438 -12.464844 1.898438 -12.476562 1.941406 C -12.394531 2.148438 -12.21875 2.332031 -11.988281 2.484375 C -11.914062 2.550781 -11.84375 2.617188 -11.796875 2.699219 C -11.691406 2.886719 -11.527344 3.046875 -11.289062 3.15625 C -10.847656 3.371094 -10.382812 3.5 -9.929688 3.667969 C -9.558594 3.816406 -9.140625 3.863281 -8.695312 3.898438 L -8.25 3.929688 C -7.582031 3.90625 -6.914062 3.957031 -6.214844 3.808594 L -5.527344 3.703125 C -5.210938 3.632812 -4.910156 3.53125 -4.625 3.40625 C -4.136719 3.199219 -3.675781 2.941406 -3.25 2.625 C -2.515625 2.101562 -2.101562 1.511719 -1.988281 0.769531 C -1.925781 0.308594 -1.9375 -0.148438 -1.988281 -0.617188 C -2.054688 -1.042969 -2.160156 -2.050781 -2.457031 -2.382812 C -2.675781 -2.582031 -3.070312 -3.53125 -3.238281 -3.757812 C -3.359375 -3.976562 -4.421875 -4.65625 -4.636719 -4.78125 C -5.007812 -5 -5.390625 -5.171875 -5.832031 -5.316406 L -7.234375 -5.660156 C -7.558594 -5.726562 -7.921875 -5.734375 -8.296875 -5.773438 C -8.3125 -5.796875 -8.367188 -5.769531 -8.394531 -5.753906 C -8.765625 -5.71875 -9.128906 -5.726562 -9.503906 -5.765625 L -10.453125 -5.867188 C -10.734375 -5.921875 -11.59375 -5.933594 -11.867188 -5.847656 Z M -11.867188 -5.847656 "/></g></g></g><g fill="#000000" fill-opacity="1"><g transform="translate(112.785853, 299.539691)"><g><path d="M -10.398438 -8.070312 C -9.886719 -7.820312 -8.71875 -7.566406 -8.207031 -7.316406 L -7.632812 -6.984375 L -7.03125 -6.472656 C -6.855469 -6.335938 -6.695312 -6.160156 -6.546875 -6.015625 C -6.390625 -5.839844 -6.289062 -5.644531 -6.191406 -5.449219 C -6.148438 -5.332031 -6.179688 -5.222656 -6.246094 -5.136719 C -6.441406 -4.9375 -6.675781 -4.757812 -6.890625 -4.621094 C -7.085938 -4.519531 -7.300781 -4.480469 -7.535156 -4.496094 L -8.496094 -4.625 C -8.566406 -4.636719 -8.605469 -4.65625 -8.664062 -4.636719 C -8.945312 -4.503906 -9.230469 -4.375 -9.425781 -4.078125 L -9.539062 -3.84375 C -9.683594 -3.597656 -9.644531 -3.382812 -9.523438 -3.128906 L -8.316406 -2.855469 C -8.03125 -2.789062 -7.765625 -2.679688 -7.5 -2.574219 L -7.15625 -2.433594 C -6.910156 -2.382812 -6.714844 -2.289062 -6.507812 -2.164062 C -6.121094 -1.902344 -5.71875 -1.679688 -5.324219 -1.484375 L -5.195312 -1.398438 C -5.253906 -1.378906 -5.273438 -1.339844 -5.3125 -1.359375 C -5.65625 -1.308594 -6.019531 -1.3125 -6.402344 -1.378906 C -6.472656 -1.386719 -6.539062 -1.398438 -6.617188 -1.4375 L -7.128906 -1.589844 C -7.53125 -1.714844 -7.925781 -1.808594 -8.308594 -1.972656 L -8.8125 -2.191406 C -9.28125 -2.324219 -9.707031 -2.605469 -10.140625 -2.820312 L -10.167969 -2.808594 C -10.425781 -2.984375 -10.679688 -3.15625 -10.890625 -3.382812 C -11.125 -3.59375 -11.320312 -3.59375 -11.566406 -3.445312 L -11.769531 -3.277344 C -11.933594 -3.089844 -12.011719 -2.832031 -12.128906 -2.597656 C -12.148438 -2.558594 -12.15625 -2.488281 -12.136719 -2.429688 C -12.085938 -2.285156 -12.191406 -2.117188 -12.140625 -1.96875 C -12.140625 -1.96875 -12.132812 -1.941406 -12.152344 -1.902344 C -12.25 -1.800781 -12.207031 -1.683594 -12.1875 -1.527344 C -12.167969 -1.46875 -12.175781 -1.402344 -12.1875 -1.332031 C -12.175781 -1.105469 -12.09375 -0.871094 -12.121094 -0.667969 L -12.089844 -0.578125 C -12.019531 -0.371094 -11.929688 -0.207031 -11.84375 -0.0390625 C -11.8125 0.046875 -11.742188 0.15625 -11.691406 0.203125 C -11.277344 0.550781 -10.863281 0.804688 -10.402344 1.007812 C -9.722656 1.265625 -9.003906 1.542969 -8.289062 1.722656 C -8.25 1.742188 -8.210938 1.761719 -8.179688 1.753906 C -7.757812 1.933594 -7.304688 2.011719 -6.855469 2.085938 C -6.375 2.148438 -5.902344 2.085938 -5.453125 1.867188 C -4.574219 1.46875 -4.089844 0.777344 -4.03125 -0.191406 C -4.023438 -0.359375 -4.011719 -0.527344 -3.976562 -0.703125 C -3.902344 -1.15625 -4.042969 -1.566406 -4.300781 -1.933594 C -4.46875 -2.140625 -4.578125 -2.363281 -4.871094 -2.460938 C -4.871094 -2.460938 -4.910156 -2.480469 -4.921875 -2.507812 L -5.238281 -2.761719 C -5.445312 -2.886719 -5.632812 -3.050781 -5.828125 -3.246094 C -5.65625 -3.503906 -5.597656 -3.816406 -5.570312 -4.121094 L -5.535156 -4.296875 C -5.398438 -4.671875 -5.460938 -5.042969 -5.464844 -5.433594 L -5.554688 -5.699219 C -5.695312 -5.914062 -5.773438 -6.148438 -5.933594 -6.324219 C -6.101562 -6.527344 -6.179688 -6.761719 -6.332031 -7.007812 C -6.460938 -7.191406 -6.609375 -7.335938 -6.816406 -7.464844 C -7.050781 -7.578125 -7.308594 -7.753906 -7.574219 -7.859375 C -7.640625 -7.867188 -7.691406 -7.917969 -7.738281 -7.964844 C -7.878906 -8.082031 -8.007812 -8.167969 -8.210938 -8.195312 C -8.3125 -8.195312 -8.398438 -8.265625 -8.476562 -8.300781 L -8.96875 -8.496094 C -9.019531 -8.542969 -9.117188 -8.542969 -9.175781 -8.621094 C -9.34375 -8.726562 -10.148438 -8.777344 -10.363281 -8.738281 C -10.460938 -8.542969 -10.527344 -8.355469 -10.488281 -8.140625 Z M -10.398438 -8.070312 "/></g></g></g><g fill="#000000" fill-opacity="1"><g transform="translate(109.419584, 291.097932)"><g><path d="M -8.457031 -5.933594 C -9.234375 -6.542969 -7.738281 -6.566406 -7.078125 -6.503906 C -6.679688 -6.542969 -6.304688 -6.550781 -5.902344 -6.558594 C -4.144531 -6.757812 -3.128906 -7.511719 -2.828125 -8.882812 C -2.691406 -9.421875 -2.914062 -11.054688 -3.140625 -11.464844 L -3.300781 -11.824219 C -3.40625 -11.96875 -3.488281 -12.148438 -3.621094 -12.261719 C -3.898438 -12.515625 -5.339844 -13.589844 -5.640625 -13.808594 C -5.976562 -14.054688 -6.65625 -14.300781 -7.082031 -14.539062 C -7.246094 -14.617188 -7.40625 -14.664062 -7.5625 -14.679688 C -7.71875 -14.664062 -7.84375 -14.683594 -7.976562 -14.765625 C -8.203125 -14.835938 -7.953125 -14.828125 -8.167969 -14.808594 C -8.351562 -14.757812 -8.480469 -14.808594 -8.664062 -14.761719 C -8.691406 -14.726562 -8.75 -14.71875 -8.8125 -14.714844 C -8.679688 -14.601562 -8.617188 -14.609375 -8.519531 -14.554688 C -8.15625 -14.34375 -7.9375 -14.363281 -7.542969 -14.152344 C -7.378906 -14.042969 -6.574219 -13.15625 -6.441406 -13.078125 C -5.84375 -12.699219 -4.699219 -11.5 -4.273438 -10.953125 C -4.195312 -10.773438 -4.089844 -10.65625 -4.011719 -10.511719 C -3.828125 -10.214844 -3.511719 -9.21875 -4.246094 -9.085938 C -4.796875 -8.96875 -6.160156 -8.898438 -6.828125 -9.019531 C -7.429688 -9.117188 -7.773438 -9.148438 -8.371094 -9.214844 C -8.847656 -9.292969 -9.179688 -9.195312 -9.636719 -9.089844 C -9.820312 -9.074219 -9.941406 -9.03125 -10.085938 -8.921875 C -10.292969 -8.777344 -10.460938 -8.605469 -10.496094 -8.320312 C -10.519531 -7.945312 -10.453125 -7.578125 -10.476562 -7.171875 L -10.445312 -6.863281 C -10.359375 -6.589844 -10.214844 -6.386719 -9.921875 -6.257812 L -9.246094 -5.734375 C -8.441406 -5.125 -8.191406 -4.808594 -7.257812 -4.183594 C -6.523438 -3.664062 -6.425781 -3.609375 -5.777344 -3.050781 C -5.523438 -2.671875 -5.898438 -2.351562 -6.585938 -2.691406 C -7.109375 -2.984375 -7.007812 -2.867188 -7.554688 -3.0625 C -8.78125 -3.503906 -9.957031 -3.765625 -11.101562 -3.683594 C -11.445312 -3.683594 -11.753906 -3.652344 -11.984375 -3.472656 L -12.558594 -2.949219 C -12.617188 -2.914062 -12.699219 -2.8125 -12.695312 -2.78125 C -12.757812 -2.433594 -12.914062 -2.136719 -13.171875 -1.894531 C -13.257812 -1.824219 -13.273438 -1.667969 -13.167969 -1.519531 C -13.074219 -1.53125 -13.039062 -1.503906 -12.949219 -1.511719 C -12.664062 -1.476562 -12.375 -1.378906 -12.082031 -1.253906 C -11.695312 -1.136719 -11.304688 -0.957031 -10.914062 -0.773438 C -10.292969 -0.492188 -9.609375 -0.15625 -8.925781 0.121094 C -8.121094 0.417969 -7.316406 0.679688 -6.511719 0.914062 C -5.929688 1.136719 -5.355469 1.300781 -4.746094 1.457031 C -3.5625 1.78125 -2.398438 1.914062 -1.265625 2.054688 C -0.605469 2.113281 -0.136719 1.789062 -0.0273438 1.3125 C -0.015625 1.121094 -0.0351562 0.90625 0.00390625 0.683594 C 0.00390625 0.34375 -0.0625 0.0078125 -0.00390625 -0.34375 C 0.0195312 -0.4375 -0.00390625 -0.683594 -0.144531 -0.828125 C -0.253906 -1.003906 -0.328125 -1.121094 -0.339844 -1.242188 C -0.355469 -1.398438 -0.394531 -1.488281 -0.5625 -1.625 C -0.894531 -1.84375 -2.914062 -2.113281 -3.253906 -2.394531 C -3.347656 -2.414062 -3.480469 -2.496094 -3.585938 -2.609375 C -3.753906 -2.75 -3.984375 -2.851562 -4.246094 -2.980469 C -4.539062 -3.109375 -4.769531 -3.242188 -5.007812 -3.4375 C -5.378906 -3.742188 -5.78125 -4.046875 -6.179688 -4.289062 C -6.707031 -4.578125 -7.21875 -5.058594 -7.722656 -5.414062 C -7.957031 -5.578125 -8.195312 -5.804688 -8.457031 -5.933594 Z M -8.457031 -5.933594 "/></g></g></g><g fill="#000000" fill-opacity="1"><g transform="translate(108.324472, 277.607554)"><g/></g></g><g fill="#000000" fill-opacity="1"><g transform="translate(108.098957, 271.479745)"><g><path d="M -3.511719 -7.550781 C -3.628906 -7.691406 -3.789062 -7.882812 -3.914062 -7.996094 C -4.09375 -8.226562 -4.3125 -8.4375 -4.480469 -8.695312 C -4.707031 -8.976562 -4.855469 -9.296875 -5.023438 -9.652344 C -5.199219 -9.980469 -5.425781 -10.261719 -5.722656 -10.535156 C -5.941406 -10.75 -6.066406 -10.957031 -6.203125 -11.207031 C -6.332031 -11.582031 -6.515625 -11.980469 -6.703125 -12.378906 C -6.746094 -12.527344 -6.773438 -12.636719 -6.839844 -12.726562 C -6.914062 -12.882812 -6.871094 -13 -6.75 -13.054688 C -6.554688 -13.050781 -6.441406 -12.910156 -6.367188 -12.75 C -6.035156 -12.398438 -5.78125 -12.007812 -5.476562 -11.667969 C -4.5625 -10.375 -3.535156 -9.210938 -2.25 -8.210938 C -1.972656 -7.980469 -1.703125 -7.816406 -1.382812 -7.699219 C -0.984375 -7.519531 -0.691406 -7.511719 -0.410156 -7.640625 C -0.144531 -7.742188 0.0742188 -7.890625 0.191406 -8.113281 C 0.429688 -8.589844 0.472656 -9.164062 0.265625 -9.769531 C 0.191406 -9.929688 0.105469 -10.058594 0.0234375 -10.1875 C -0.171875 -10.554688 -0.21875 -10.96875 -0.503906 -11.273438 C -0.570312 -11.363281 -0.550781 -11.421875 -0.597656 -11.46875 C -0.734375 -11.914062 -0.847656 -12.320312 -1.074219 -12.699219 C -1.167969 -12.800781 -1.164062 -12.898438 -1.203125 -12.976562 L -1.53125 -13.890625 C -1.59375 -14.078125 -1.628906 -14.253906 -1.488281 -14.367188 C -1.589844 -14.539062 -1.714844 -14.648438 -1.789062 -14.808594 C -1.988281 -15.078125 -1.988281 -15.078125 -2.265625 -15.214844 C -2.3125 -15.363281 -2.316406 -15.53125 -2.324219 -15.695312 C -2.296875 -15.851562 -2.460938 -16.042969 -2.425781 -16.230469 C -2.335938 -16.195312 -2.296875 -16.214844 -2.25 -16.164062 C -2.164062 -16.132812 -2.058594 -16.0625 -1.980469 -16 C -1.378906 -15.484375 -0.742188 -15.054688 -0.0664062 -14.640625 C 0.328125 -14.367188 0.761719 -14.207031 1.167969 -14.226562 C 1.636719 -14.25 2.128906 -14.601562 2.496094 -14.796875 C 2.664062 -14.898438 2.980469 -15.578125 3.03125 -15.722656 C 3.148438 -16.042969 2.722656 -17.585938 2.453125 -17.847656 C 2.445312 -17.914062 2.449219 -18.011719 2.363281 -18.046875 C 2.234375 -18.324219 2.09375 -18.574219 2.015625 -18.898438 C 1.964844 -18.949219 1.910156 -19.066406 1.792969 -19.109375 C 1.5 -19.382812 1.269531 -19.664062 1.015625 -19.957031 C 0.976562 -20.035156 0.890625 -20.066406 0.910156 -20.125 C 1 -20.191406 0.441406 -20.5625 0.558594 -20.519531 C 0.0859375 -20.757812 0.292969 -20.515625 -0.109375 -20.761719 C -0.128906 -20.800781 -0.140625 -20.773438 -0.25 -20.746094 C -0.191406 -20.628906 -0.0703125 -20.515625 0.0664062 -20.433594 C 0.617188 -19.769531 1.128906 -19.089844 1.519531 -18.355469 C 1.789062 -17.925781 2.316406 -16.015625 2.066406 -15.613281 C 1.957031 -15.488281 1.847656 -15.460938 1.644531 -15.535156 C 1.3125 -15.625 1.023438 -15.730469 0.710938 -15.875 C 0.414062 -16.050781 0.0859375 -16.238281 -0.253906 -16.394531 C -0.355469 -16.5625 -0.632812 -16.53125 -0.65625 -16.738281 C -0.855469 -16.910156 -1.039062 -17.042969 -1.242188 -17.117188 C -1.488281 -17.171875 -1.71875 -17.257812 -1.972656 -17.382812 C -2.160156 -17.320312 -2.335938 -17.285156 -2.449219 -17.160156 C -2.609375 -16.988281 -2.835938 -17.003906 -3.003906 -16.902344 C -3.164062 -16.828125 -3.246094 -16.695312 -3.164062 -16.464844 C -3.109375 -16.347656 -3.070312 -16.265625 -3.074219 -16.167969 C -2.972656 -15.539062 -2.746094 -14.894531 -2.480469 -14.269531 C -2.136719 -13.582031 -1.863281 -12.890625 -1.753906 -12.191406 C -1.734375 -12.148438 -1.710938 -12.042969 -1.710938 -11.941406 C -2.011719 -12.117188 -2.230469 -12.332031 -2.472656 -12.484375 C -2.988281 -12.96875 -3.535156 -13.367188 -4.132812 -13.816406 C -4.417969 -14.019531 -4.710938 -14.125 -5.023438 -14.175781 C -5.265625 -14.230469 -5.460938 -14.234375 -5.6875 -14.25 C -5.953125 -14.25 -6.160156 -14.226562 -6.328125 -14.121094 C -6.617188 -13.964844 -6.953125 -13.855469 -7.273438 -13.707031 C -7.351562 -13.671875 -7.414062 -13.59375 -7.511719 -13.5 C -7.617188 -13.304688 -7.683594 -13.035156 -7.664062 -12.730469 C -7.664062 -12.632812 -7.621094 -12.484375 -7.546875 -12.324219 C -7.101562 -11.46875 -6.652344 -10.613281 -6.097656 -9.78125 C -5.898438 -9.511719 -5.789062 -9.273438 -5.628906 -8.984375 C -5.230469 -8.277344 -4.816406 -7.597656 -4.425781 -6.863281 L -3.707031 -5.578125 C -3.6875 -5.535156 -3.710938 -5.476562 -3.703125 -5.410156 C -3.890625 -5.609375 -4.101562 -5.753906 -4.296875 -5.859375 C -4.332031 -5.9375 -4.363281 -5.949219 -4.363281 -5.949219 C -4.390625 -5.957031 -4.410156 -6 -4.410156 -6 C -4.898438 -6.472656 -5.414062 -6.859375 -5.933594 -7.246094 L -6.328125 -7.523438 C -6.519531 -7.726562 -6.757812 -7.878906 -6.949219 -8.082031 C -7.1875 -8.332031 -7.527344 -8.488281 -7.867188 -8.546875 L -8.765625 -8.710938 C -9.304688 -8.773438 -9.808594 -8.660156 -10.316406 -8.617188 C -10.375 -8.636719 -10.464844 -8.570312 -10.515625 -8.523438 C -10.847656 -8.25 -11.199219 -8.015625 -11.519531 -7.769531 C -11.679688 -7.695312 -11.730469 -7.546875 -11.753906 -7.390625 C -11.566406 -7.191406 -11.410156 -7.070312 -11.277344 -6.886719 C -10.792969 -6.316406 -10.28125 -5.734375 -9.675781 -5.3125 C -9.597656 -5.253906 -9.582031 -5.210938 -9.492188 -5.179688 C -8.84375 -4.515625 -8.117188 -3.886719 -7.46875 -3.222656 C -7.097656 -2.886719 -6.722656 -2.554688 -6.28125 -2.226562 C -5.464844 -1.664062 -4.625 -1.160156 -3.742188 -0.773438 C -3.621094 -0.660156 -3.472656 -0.609375 -3.328125 -0.554688 C -2.667969 -0.378906 -2.109375 -0.375 -1.675781 -0.742188 C -1.421875 -0.980469 -1.289062 -1.261719 -1.171875 -1.582031 C -1.074219 -1.941406 -1.101562 -2.316406 -1.160156 -2.699219 C -1.222656 -2.886719 -1.285156 -3.078125 -1.261719 -3.230469 C -1.230469 -3.320312 -1.296875 -3.410156 -1.324219 -3.421875 C -1.496094 -3.582031 -1.53125 -3.757812 -1.617188 -3.890625 C -1.714844 -4.15625 -1.816406 -4.425781 -2.066406 -4.648438 C -2.199219 -4.828125 -2.289062 -5.027344 -2.441406 -5.246094 C -2.488281 -5.296875 -2.507812 -5.335938 -2.566406 -5.359375 C -2.757812 -5.460938 -2.820312 -5.648438 -2.835938 -5.789062 C -2.910156 -5.945312 -3.035156 -6.058594 -3.128906 -6.257812 C -2.972656 -6.496094 -3.097656 -6.707031 -3.34375 -6.929688 C -3.375 -6.941406 -3.402344 -6.949219 -3.390625 -6.980469 C -3.46875 -7.039062 -3.4375 -7.128906 -3.398438 -7.144531 C -3.386719 -7.175781 -3.308594 -7.210938 -3.296875 -7.242188 Z M -3.511719 -7.550781 "/></g></g></g><g fill="#000000" fill-opacity="1"><g transform="translate(114.230813, 255.582356)"><g><path d="M -4.398438 -6.828125 C -4.421875 -6.957031 -4.339844 -7.015625 -4.246094 -6.988281 C -3.957031 -6.96875 -3.65625 -6.910156 -3.382812 -6.867188 C -3.289062 -6.839844 -3.203125 -6.855469 -3.136719 -6.734375 C -3.109375 -6.714844 -3.015625 -6.6875 -2.972656 -6.695312 C -2.789062 -6.792969 -2.472656 -6.757812 -2.355469 -6.980469 C -2.355469 -6.980469 -2.339844 -7.003906 -2.3125 -6.984375 C -2.175781 -6.964844 -2.148438 -7.058594 -2.066406 -7.117188 C -1.9375 -7.25 -1.835938 -7.445312 -1.804688 -7.652344 C -1.730469 -7.863281 -1.730469 -8.132812 -1.863281 -8.375 C -1.96875 -8.601562 -2.046875 -8.8125 -2.191406 -8.988281 C -2.339844 -9.207031 -2.417969 -9.414062 -2.523438 -9.640625 C -2.703125 -10.03125 -2.925781 -10.417969 -3.242188 -10.71875 C -3.519531 -11.027344 -3.816406 -11.199219 -4.15625 -11.363281 C -4.25 -11.390625 -4.367188 -11.4375 -4.453125 -11.421875 C -4.730469 -11.351562 -5.054688 -11.429688 -5.375 -11.464844 C -5.511719 -11.484375 -5.648438 -11.507812 -5.75 -11.464844 C -6.0625 -11.34375 -6.996094 -10.5625 -7.300781 -10.398438 C -7.390625 -10.382812 -7.507812 -10.429688 -7.613281 -10.390625 C -7.699219 -10.375 -7.746094 -10.253906 -7.875 -10.234375 C -8.054688 -10.246094 -8.121094 -10.101562 -8.15625 -9.941406 L -8.210938 -9.597656 C -8.242188 -9.015625 -8.183594 -8.402344 -8.054688 -7.777344 C -7.949219 -7.175781 -7.785156 -6.601562 -7.550781 -6.019531 C -7.34375 -5.453125 -7.074219 -4.921875 -6.761719 -4.398438 C -6.636719 -4.195312 -6.558594 -3.988281 -6.328125 -3.828125 C -6.46875 -4.113281 -6.597656 -4.359375 -6.773438 -4.597656 C -6.886719 -4.753906 -6.886719 -4.867188 -6.871094 -5.046875 C -6.625 -4.910156 -6.625 -4.910156 -6.527344 -4.726562 C -6.050781 -3.898438 -5.433594 -3.15625 -4.652344 -2.601562 C -4.253906 -2.359375 -3.882812 -2.136719 -3.460938 -2.027344 C -3.207031 -1.960938 -2.914062 -1.945312 -2.679688 -2.007812 C -2.039062 -2.164062 -1.484375 -2.035156 -0.503906 -2.671875 C -0.144531 -2.910156 1.191406 -4.207031 1.390625 -4.597656 C 1.578125 -4.917969 1.742188 -5.257812 1.855469 -5.632812 L 1.941406 -5.914062 C 2.085938 -6.230469 2.15625 -6.597656 2.183594 -6.957031 C 2.191406 -7.183594 2.222656 -7.386719 2.253906 -7.59375 L 2.265625 -8.039062 C 2.277344 -8.21875 2.25 -8.394531 2.238281 -8.589844 C 2.214844 -8.988281 2.191406 -9.382812 2.097656 -9.789062 C 2.035156 -10.023438 1.992188 -10.285156 1.972656 -10.523438 C 1.941406 -10.699219 1.917969 -10.828125 1.847656 -10.992188 C 1.785156 -10.960938 1.761719 -10.976562 1.71875 -10.96875 C 1.609375 -11.085938 1.671875 -11.230469 1.539062 -11.363281 L 1.472656 -11.105469 L 1.390625 -11.316406 L 1.265625 -11.78125 C 1.136719 -12.027344 1.074219 -12.261719 1.003906 -12.539062 C 0.988281 -12.625 0.949219 -12.730469 0.890625 -12.808594 C 0.757812 -13.050781 0.59375 -13.246094 0.398438 -13.457031 C 0.34375 -13.269531 0.417969 -13.105469 0.488281 -12.9375 C 0.65625 -12.476562 0.757812 -12.027344 0.839844 -11.554688 L 1.023438 -10.738281 L 1.046875 -10.609375 C 1.09375 -9.929688 1.1875 -9.257812 1.214844 -8.59375 C 1.25 -7.730469 1.167969 -6.917969 0.917969 -6.183594 C 0.851562 -6.039062 0.460938 -5.214844 0.34375 -5.109375 C 0.0351562 -4.71875 -0.726562 -4.613281 -1.332031 -4.507812 C -1.484375 -4.503906 -2.1875 -4.695312 -2.339844 -4.691406 C -2.503906 -4.730469 -2.691406 -4.785156 -2.867188 -4.910156 C -3.046875 -5.035156 -3.195312 -5.144531 -3.390625 -5.242188 C -3.410156 -5.21875 -3.453125 -5.210938 -3.515625 -5.179688 L -3.992188 -5.628906 L -3.957031 -5.679688 C -3.90625 -5.644531 -3.828125 -5.589844 -3.773438 -5.511719 L -3.648438 -5.6875 L -3.671875 -5.707031 C -3.714844 -5.699219 -3.734375 -5.675781 -3.769531 -5.625 C -3.902344 -5.757812 -3.929688 -5.773438 -3.917969 -5.84375 C -3.890625 -5.9375 -3.898438 -5.980469 -3.980469 -6.078125 C -4.054688 -6.128906 -4.046875 -6.199219 -4.054688 -6.242188 C -4.042969 -6.3125 -4.058594 -6.398438 -4.109375 -6.433594 C -4.261719 -6.539062 -4.289062 -6.714844 -4.398438 -6.828125 Z M -5.230469 -9.464844 C -5.265625 -10.058594 -4.921875 -11.03125 -4.246094 -9.945312 C -3.921875 -9.488281 -3.917969 -9.335938 -3.613281 -8.851562 C -3.507812 -8.625 -3.417969 -8.375 -3.492188 -8.164062 C -3.609375 -7.941406 -3.730469 -7.722656 -4.011719 -7.695312 C -4.125 -7.699219 -4.246094 -7.632812 -4.351562 -7.59375 C -4.515625 -7.519531 -4.660156 -7.582031 -4.765625 -7.808594 L -4.921875 -8.183594 C -5.039062 -8.609375 -5.222656 -9.042969 -5.230469 -9.464844 Z M -3.519531 -2.488281 C -3.339844 -2.472656 -3.1875 -2.367188 -2.980469 -2.335938 C -2.820312 -2.296875 -2.664062 -2.300781 -2.484375 -2.285156 C -2.519531 -2.234375 -2.511719 -2.191406 -2.539062 -2.210938 C -2.617188 -2.152344 -2.675781 -2.121094 -2.761719 -2.105469 C -2.917969 -2.101562 -3.046875 -2.078125 -3.183594 -2.097656 C -3.914062 -2.195312 -4.539062 -2.601562 -5.125 -3.167969 L -5.425781 -3.492188 C -5.511719 -3.589844 -5.574219 -3.710938 -5.671875 -3.894531 L -5.496094 -3.769531 C -5.421875 -3.714844 -5.363281 -3.636719 -5.304688 -3.558594 C -4.996094 -3.1875 -4.640625 -2.9375 -4.261719 -2.671875 C -4.238281 -2.652344 -4.230469 -2.609375 -4.1875 -2.617188 C -3.820312 -2.433594 -3.457031 -2.253906 -3.113281 -2.199219 C -3.089844 -2.183594 -3.070312 -2.207031 -3.027344 -2.214844 C -3.09375 -2.335938 -3.195312 -2.296875 -3.273438 -2.351562 L -3.527344 -2.417969 C -3.527344 -2.417969 -3.535156 -2.460938 -3.519531 -2.488281 Z M -5.191406 -3.667969 C -4.984375 -3.636719 -4.824219 -3.484375 -4.664062 -3.335938 L -3.933594 -2.703125 C -3.976562 -2.695312 -3.996094 -2.671875 -4.019531 -2.6875 C -4.4375 -2.90625 -4.832031 -3.148438 -5.148438 -3.5625 C -5.175781 -3.582031 -5.183594 -3.625 -5.191406 -3.667969 Z M -5.191406 -3.667969 "/></g></g></g><g fill="#000000" fill-opacity="1"><g transform="translate(255.91885, 254.29374)"><g><path d="M 11.070312 -0.859375 C 11.285156 -2.21875 12.132812 -4.109375 13.640625 -2.371094 L 14.3125 -1.527344 C 14.535156 -1.292969 14.714844 -1.003906 14.882812 -0.742188 C 15.402344 0.210938 15.714844 1.167969 16.050781 2.105469 C 16.222656 2.578125 16.363281 3.0625 16.40625 3.558594 C 16.378906 3.710938 16.464844 3.878906 16.632812 4.003906 C 16.871094 4.265625 17.132812 4.441406 17.425781 4.675781 C 17.636719 4.8125 17.84375 4.882812 18.09375 4.894531 C 18.34375 4.90625 18.59375 4.988281 18.871094 4.988281 C 19.160156 5.011719 19.507812 5.011719 19.714844 4.941406 C 20.199219 4.730469 20.753906 4.65625 21.335938 4.640625 C 21.5 4.625 21.640625 4.554688 21.792969 4.511719 C 21.847656 4.484375 21.929688 4.441406 22 4.441406 C 22.261719 4.410156 22.332031 4.273438 22.371094 4.078125 C 22.464844 3.578125 22.335938 3.054688 22.140625 2.527344 L 21.632812 1.046875 C 20.972656 -0.53125 20.117188 -2.078125 18.652344 -3.453125 C 18.359375 -3.6875 18.109375 -3.976562 17.800781 -4.238281 C 16.632812 -5.035156 15.421875 -5.777344 14.019531 -6.074219 C 12.492188 -6.410156 10.761719 -6.261719 10.035156 -5.09375 C 9.566406 -4.4375 9.183594 -3.6875 9.019531 -2.839844 C 8.84375 -2.089844 8.738281 -1.34375 8.6875 -0.550781 C 8.613281 0.738281 8.511719 2.042969 8.253906 3.25 C 8.105469 3.984375 7.679688 4.515625 7.140625 5.03125 C 7.019531 5.199219 6.753906 5.226562 6.433594 5.078125 C 5.964844 4.898438 5.546875 4.625 5.195312 4.347656 C 4.695312 3.976562 4.234375 3.550781 3.761719 3.164062 C 3.289062 2.78125 2.910156 2.3125 2.574219 1.855469 C 2.378906 1.609375 2.269531 1.316406 2.238281 1.054688 C 2.195312 0.832031 2.292969 0.679688 2.5 0.609375 C 2.789062 0.496094 3.011719 0.382812 3.289062 0.3125 C 3.730469 0.15625 4.160156 0.183594 4.660156 0.277344 L 5.601562 0.421875 C 5.753906 0.449219 5.851562 0.4375 5.921875 0.367188 C 6.046875 0.269531 6.15625 0.210938 6.292969 0.140625 C 6.265625 0.0859375 6.253906 -0.0117188 6.210938 -0.164062 L 6.585938 0.0976562 C 6.554688 -0.164062 6.25 -0.148438 6.113281 -0.285156 C 5.957031 -0.730469 5.816406 -0.796875 5.289062 -0.808594 C 5.179688 -0.820312 5.042969 -0.820312 4.945312 -0.875 C 4.332031 -1.121094 3.707031 -1.257812 3.109375 -1.335938 C 2.457031 -1.457031 1.863281 -1.46875 1.292969 -1.421875 C 0.394531 -1.277344 -0.128906 -0.871094 -0.363281 -0.234375 C -0.621094 0.488281 -0.476562 1.320312 -0.207031 2.121094 C -0.0390625 2.660156 0.242188 3.144531 0.671875 3.65625 C 0.882812 3.863281 1.035156 4.027344 1.257812 4.191406 C 1.523438 4.371094 1.664062 4.578125 1.789062 4.828125 C 1.917969 5.144531 2.113281 5.464844 2.433594 5.683594 C 3.003906 6.191406 3.628906 6.605469 4.394531 6.878906 C 4.574219 6.960938 4.8125 7.011719 4.964844 7.039062 C 5.324219 7.132812 5.714844 7.144531 6.058594 7.144531 C 7.128906 7.191406 7.984375 6.898438 8.621094 6.367188 C 9.53125 5.554688 10.121094 4.597656 10.40625 3.511719 C 10.582031 2.765625 10.769531 2.042969 10.777344 1.238281 C 10.765625 1.140625 10.777344 1.03125 10.789062 0.917969 C 10.910156 0.335938 11.019531 -0.273438 11.070312 -0.859375 Z M 11.070312 -0.859375 "/></g></g></g><g fill="#000000" fill-opacity="1"><g transform="translate(260.899154, 264.051714)"><g><path d="M 10.074219 8.578125 C 9.945312 8.453125 10.507812 8.394531 10.363281 8.335938 C 10.113281 8.246094 9.710938 7.839844 9.460938 7.75 C 9 7.585938 8.171875 6.914062 7.738281 6.746094 L 7.078125 6.445312 C 6.523438 6.179688 5.695312 5.507812 5.183594 5.164062 C 4.519531 4.738281 3.535156 3.496094 3.261719 2.863281 C 3.175781 2.664062 2.671875 1.996094 2.808594 1.800781 C 2.90625 1.675781 3 1.554688 3.101562 1.460938 L 3.625 1.027344 C 3.8125 0.878906 4.011719 0.792969 4.230469 0.765625 C 4.417969 0.746094 4.566406 0.707031 4.730469 0.722656 C 5.28125 0.734375 5.832031 0.742188 6.34375 0.859375 L 8.035156 1.164062 C 8.472656 1.238281 8.890625 1.347656 9.285156 1.496094 C 9.679688 1.644531 10.058594 1.863281 10.5 1.933594 L 10.621094 2.03125 C 10.523438 2.023438 10.464844 2.039062 10.433594 2.050781 C 9.800781 1.964844 9.191406 1.972656 8.542969 1.957031 L 8.101562 1.984375 C 7.941406 1.996094 7.871094 2.078125 7.835938 2.183594 L 7.800781 2.292969 C 7.757812 2.496094 7.726562 2.730469 7.617188 2.917969 C 7.597656 2.957031 7.582031 3.027344 7.609375 3.117188 C 7.625 3.175781 7.671875 3.226562 7.6875 3.285156 C 7.765625 3.457031 7.917969 3.542969 8.152344 3.578125 C 8.6875 3.652344 9.246094 3.695312 9.816406 3.664062 C 9.972656 3.652344 10.125 3.613281 10.273438 3.570312 C 10.542969 3.496094 10.832031 3.386719 11.085938 3.253906 C 11.25 3.144531 11.417969 3.0625 11.589844 2.984375 L 11.910156 3.089844 C 11.929688 3.050781 12 3.066406 12.019531 3.027344 C 12.125 2.933594 12.234375 2.871094 12.402344 2.890625 C 12.558594 2.878906 12.632812 2.792969 12.695312 2.679688 C 12.730469 2.574219 12.683594 2.523438 12.601562 2.449219 C 12.5625 2.429688 12.554688 2.398438 12.546875 2.367188 C 12.539062 2.339844 12.558594 2.300781 12.550781 2.269531 C 12.679688 1.914062 12.707031 1.550781 12.578125 1.203125 C 12.550781 1.210938 12.550781 1.210938 12.570312 1.171875 C 12.542969 0.953125 12.417969 0.730469 12.230469 0.527344 C 12.179688 0.445312 12.125 0.363281 12.097656 0.273438 C 12.042969 0.0625 11.921875 -0.128906 11.71875 -0.296875 C 11.339844 -0.613281 10.921875 -0.851562 10.523438 -1.125 C 10.203125 -1.359375 9.808594 -1.507812 9.382812 -1.648438 L 8.960938 -1.789062 C 8.308594 -1.933594 7.671875 -2.140625 6.957031 -2.171875 L 6.265625 -2.238281 C 5.941406 -2.246094 5.625 -2.222656 5.320312 -2.171875 C 4.792969 -2.089844 4.285156 -1.949219 3.792969 -1.75 C 2.953125 -1.421875 2.40625 -0.953125 2.113281 -0.261719 C 1.945312 0.171875 1.84375 0.617188 1.777344 1.085938 C 1.734375 1.515625 1.59375 2.519531 1.796875 2.914062 C 1.960938 3.15625 2.113281 4.175781 2.21875 4.4375 C 2.28125 4.675781 3.148438 5.597656 3.324219 5.773438 C 3.632812 6.074219 3.960938 6.335938 4.351562 6.582031 L 5.628906 7.261719 C 5.925781 7.402344 6.273438 7.5 6.632812 7.628906 C 6.640625 7.65625 6.699219 7.640625 6.730469 7.632812 C 7.097656 7.691406 7.445312 7.789062 7.804688 7.917969 L 8.699219 8.25 C 8.957031 8.371094 9.789062 8.589844 10.074219 8.578125 Z M 10.074219 8.578125 "/></g></g></g><g fill="#000000" fill-opacity="1"><g transform="translate(263.318556, 272.208488)"><g><path d="M 8.105469 10.371094 C 7.667969 10.003906 6.597656 9.46875 6.164062 9.101562 L 5.691406 8.644531 L 5.234375 7.996094 C 5.09375 7.820312 4.984375 7.613281 4.875 7.433594 C 4.765625 7.226562 4.714844 7.011719 4.667969 6.800781 C 4.65625 6.675781 4.710938 6.578125 4.800781 6.507812 C 5.035156 6.363281 5.304688 6.25 5.546875 6.167969 C 5.761719 6.117188 5.980469 6.128906 6.203125 6.207031 L 7.105469 6.566406 C 7.167969 6.59375 7.203125 6.621094 7.265625 6.617188 C 7.570312 6.558594 7.878906 6.503906 8.136719 6.261719 L 8.308594 6.0625 C 8.507812 5.859375 8.523438 5.640625 8.46875 5.367188 L 7.363281 4.804688 C 7.105469 4.667969 6.871094 4.5 6.640625 4.335938 L 6.34375 4.109375 C 6.117188 4.003906 5.949219 3.863281 5.777344 3.691406 C 5.46875 3.34375 5.132812 3.027344 4.800781 2.746094 L 4.695312 2.628906 C 4.757812 2.625 4.785156 2.589844 4.820312 2.617188 C 5.164062 2.652344 5.515625 2.746094 5.871094 2.90625 C 5.933594 2.929688 6 2.957031 6.066406 3.011719 L 6.523438 3.285156 C 6.882812 3.503906 7.242188 3.695312 7.574219 3.945312 L 8.003906 4.285156 C 8.429688 4.527344 8.773438 4.90625 9.140625 5.214844 L 9.171875 5.214844 C 9.375 5.445312 9.582031 5.675781 9.730469 5.945312 C 9.90625 6.210938 10.097656 6.257812 10.371094 6.171875 L 10.609375 6.058594 C 10.816406 5.917969 10.953125 5.6875 11.121094 5.488281 C 11.148438 5.453125 11.175781 5.390625 11.171875 5.328125 C 11.15625 5.175781 11.300781 5.039062 11.289062 4.882812 C 11.289062 4.882812 11.285156 4.851562 11.316406 4.820312 C 11.433594 4.746094 11.421875 4.625 11.441406 4.464844 C 11.4375 4.40625 11.460938 4.339844 11.488281 4.277344 C 11.53125 4.054688 11.511719 3.808594 11.589844 3.613281 L 11.582031 3.523438 C 11.5625 3.304688 11.515625 3.121094 11.472656 2.941406 C 11.464844 2.847656 11.421875 2.726562 11.386719 2.667969 C 11.070312 2.226562 10.730469 1.882812 10.332031 1.574219 C 9.738281 1.15625 9.109375 0.710938 8.457031 0.359375 C 8.425781 0.332031 8.390625 0.300781 8.359375 0.304688 C 7.996094 0.0234375 7.574219 -0.160156 7.15625 -0.34375 C 6.707031 -0.523438 6.234375 -0.578125 5.746094 -0.476562 C 4.796875 -0.304688 4.15625 0.246094 3.859375 1.175781 C 3.8125 1.332031 3.761719 1.492188 3.683594 1.65625 C 3.5 2.074219 3.535156 2.507812 3.695312 2.929688 C 3.808594 3.167969 3.859375 3.414062 4.121094 3.578125 C 4.121094 3.578125 4.15625 3.605469 4.15625 3.636719 L 4.402344 3.960938 C 4.570312 4.132812 4.714844 4.339844 4.855469 4.574219 C 4.625 4.78125 4.492188 5.070312 4.394531 5.359375 L 4.3125 5.523438 C 4.089844 5.851562 4.058594 6.226562 3.96875 6.609375 L 3.992188 6.886719 C 4.074219 7.128906 4.09375 7.375 4.203125 7.582031 C 4.316406 7.824219 4.335938 8.070312 4.421875 8.34375 C 4.5 8.554688 4.609375 8.730469 4.777344 8.90625 C 4.980469 9.074219 5.1875 9.308594 5.417969 9.472656 C 5.480469 9.5 5.519531 9.558594 5.554688 9.617188 C 5.660156 9.765625 5.761719 9.882812 5.953125 9.957031 C 6.050781 9.980469 6.121094 10.070312 6.1875 10.125 L 6.617188 10.433594 C 6.652344 10.492188 6.746094 10.515625 6.785156 10.605469 C 6.921875 10.75 7.6875 10.996094 7.90625 11.011719 C 8.050781 10.84375 8.160156 10.679688 8.171875 10.460938 Z M 8.105469 10.371094 "/></g></g></g><g fill="#000000" fill-opacity="1"><g transform="translate(264.514755, 281.217503)"><g><path d="M 6.746094 7.824219 C 7.347656 8.605469 5.894531 8.261719 5.269531 8.042969 C 4.871094 7.980469 4.507812 7.894531 4.117188 7.804688 C 2.363281 7.570312 1.195312 8.050781 0.566406 9.304688 C 0.300781 9.796875 0.117188 11.429688 0.234375 11.886719 L 0.304688 12.273438 C 0.371094 12.441406 0.40625 12.632812 0.507812 12.773438 C 0.710938 13.085938 1.847656 14.484375 2.089844 14.769531 C 2.351562 15.089844 2.949219 15.496094 3.304688 15.832031 C 3.445312 15.945312 3.589844 16.03125 3.738281 16.085938 C 3.890625 16.109375 4.007812 16.15625 4.117188 16.269531 C 4.320312 16.394531 4.078125 16.324219 4.292969 16.359375 C 4.480469 16.355469 4.59375 16.433594 4.78125 16.433594 C 4.816406 16.40625 4.878906 16.414062 4.941406 16.425781 C 4.835938 16.285156 4.777344 16.273438 4.691406 16.199219 C 4.394531 15.902344 4.179688 15.871094 3.847656 15.570312 C 3.714844 15.421875 3.152344 14.367188 3.042969 14.257812 C 2.558594 13.742188 1.742188 12.304688 1.460938 11.664062 C 1.429688 11.472656 1.355469 11.335938 1.316406 11.171875 C 1.210938 10.84375 1.148438 9.800781 1.894531 9.847656 C 2.453125 9.871094 3.792969 10.136719 4.410156 10.417969 C 4.96875 10.660156 5.296875 10.773438 5.859375 10.984375 C 6.300781 11.175781 6.648438 11.164062 7.117188 11.171875 C 7.300781 11.203125 7.425781 11.191406 7.59375 11.121094 C 7.828125 11.03125 8.035156 10.90625 8.136719 10.640625 C 8.253906 10.28125 8.28125 9.90625 8.402344 9.519531 L 8.449219 9.210938 C 8.429688 8.925781 8.339844 8.695312 8.085938 8.5 L 7.5625 7.824219 C 6.929688 7.039062 6.765625 6.667969 6.011719 5.832031 C 5.425781 5.148438 5.34375 5.074219 4.855469 4.371094 C 4.699219 3.941406 5.140625 3.726562 5.722656 4.222656 C 6.164062 4.632812 6.089844 4.496094 6.574219 4.820312 C 7.65625 5.550781 8.734375 6.089844 9.863281 6.292969 C 10.195312 6.375 10.5 6.417969 10.769531 6.304688 L 11.453125 5.9375 C 11.519531 5.914062 11.625 5.835938 11.628906 5.808594 C 11.773438 5.484375 11.996094 5.234375 12.304688 5.0625 C 12.40625 5.015625 12.460938 4.867188 12.394531 4.699219 C 12.300781 4.6875 12.273438 4.652344 12.183594 4.636719 C 11.917969 4.535156 11.660156 4.371094 11.40625 4.175781 C 11.0625 3.964844 10.726562 3.695312 10.390625 3.425781 C 9.859375 3 9.277344 2.503906 8.683594 2.070312 C 7.972656 1.585938 7.257812 1.132812 6.539062 0.707031 C 6.027344 0.347656 5.511719 0.0507812 4.960938 -0.25 C 3.890625 -0.851562 2.792969 -1.269531 1.726562 -1.683594 C 1.101562 -1.902344 0.570312 -1.699219 0.347656 -1.265625 C 0.289062 -1.085938 0.257812 -0.871094 0.164062 -0.664062 C 0.0820312 -0.332031 0.0625 0.0078125 -0.0820312 0.332031 C -0.125 0.417969 -0.164062 0.664062 -0.0625 0.835938 C 0 1.035156 0.0429688 1.167969 0.0234375 1.289062 C 0 1.441406 0.015625 1.539062 0.148438 1.714844 C 0.417969 2.007812 2.308594 2.765625 2.570312 3.117188 C 2.65625 3.160156 2.765625 3.273438 2.839844 3.410156 C 2.96875 3.585938 3.164062 3.738281 3.386719 3.929688 C 3.636719 4.125 3.828125 4.3125 4.011719 4.558594 C 4.296875 4.945312 4.613281 5.339844 4.941406 5.671875 C 5.378906 6.082031 5.761719 6.671875 6.160156 7.140625 C 6.347656 7.359375 6.523438 7.636719 6.746094 7.824219 Z M 6.746094 7.824219 "/></g></g></g><g fill="#000000" fill-opacity="1"><g transform="translate(262.272204, 294.56506)"><g/></g></g><g fill="#000000" fill-opacity="1"><g transform="translate(260.989961, 300.56135)"><g><path d="M 1.554688 8.183594 C 1.632812 8.347656 1.742188 8.570312 1.835938 8.710938 C 1.953125 8.976562 2.113281 9.238281 2.214844 9.53125 C 2.367188 9.859375 2.429688 10.203125 2.503906 10.589844 C 2.597656 10.953125 2.746094 11.28125 2.96875 11.617188 C 3.128906 11.878906 3.195312 12.109375 3.269531 12.386719 C 3.300781 12.78125 3.382812 13.210938 3.464844 13.644531 C 3.472656 13.796875 3.472656 13.910156 3.511719 14.011719 C 3.546875 14.183594 3.476562 14.289062 3.347656 14.3125 C 3.15625 14.257812 3.082031 14.09375 3.050781 13.921875 C 2.8125 13.5 2.664062 13.058594 2.449219 12.652344 C 1.878906 11.175781 1.171875 9.796875 0.167969 8.511719 C -0.0429688 8.21875 -0.265625 7.992188 -0.546875 7.800781 C -0.886719 7.53125 -1.171875 7.453125 -1.472656 7.507812 C -1.757812 7.539062 -2.007812 7.632812 -2.171875 7.820312 C -2.519531 8.222656 -2.707031 8.769531 -2.652344 9.40625 C -2.617188 9.578125 -2.566406 9.726562 -2.519531 9.871094 C -2.417969 10.277344 -2.472656 10.6875 -2.269531 11.050781 C -2.230469 11.15625 -2.265625 11.207031 -2.230469 11.265625 C -2.207031 11.730469 -2.195312 12.152344 -2.070312 12.574219 C -2.003906 12.695312 -2.03125 12.792969 -2.011719 12.878906 L -1.917969 13.839844 C -1.902344 14.039062 -1.914062 14.21875 -2.078125 14.296875 C -2.019531 14.484375 -1.925781 14.625 -1.894531 14.796875 C -1.769531 15.105469 -1.769531 15.105469 -1.527344 15.304688 C -1.523438 15.460938 -1.558594 15.625 -1.59375 15.789062 C -1.65625 15.933594 -1.546875 16.15625 -1.625 16.328125 C -1.703125 16.277344 -1.746094 16.285156 -1.777344 16.222656 C -1.855469 16.171875 -1.941406 16.078125 -2 16 C -2.457031 15.347656 -2.96875 14.777344 -3.523438 14.210938 C -3.835938 13.847656 -4.222656 13.585938 -4.617188 13.507812 C -5.078125 13.414062 -5.640625 13.632812 -6.042969 13.734375 C -6.234375 13.792969 -6.703125 14.371094 -6.792969 14.5 C -6.984375 14.78125 -6.945312 16.382812 -6.753906 16.703125 C -6.761719 16.769531 -6.789062 16.863281 -6.710938 16.917969 C -6.652344 17.21875 -6.578125 17.492188 -6.582031 17.828125 C -6.546875 17.890625 -6.523438 18.019531 -6.421875 18.089844 C -6.199219 18.425781 -6.050781 18.753906 -5.871094 19.101562 C -5.855469 19.1875 -5.777344 19.238281 -5.8125 19.289062 C -5.917969 19.332031 -5.464844 19.824219 -5.570312 19.757812 C -5.167969 20.105469 -5.3125 19.820312 -4.980469 20.15625 C -4.972656 20.199219 -4.953125 20.175781 -4.84375 20.175781 C -4.867188 20.046875 -4.960938 19.90625 -5.070312 19.796875 C -5.441406 19.019531 -5.769531 18.234375 -5.96875 17.421875 C -6.125 16.941406 -6.167969 14.960938 -5.828125 14.628906 C -5.691406 14.535156 -5.578125 14.539062 -5.398438 14.660156 C -5.101562 14.824219 -4.84375 15 -4.582031 15.21875 C -4.332031 15.460938 -4.058594 15.722656 -3.769531 15.957031 C -3.710938 16.144531 -3.4375 16.183594 -3.464844 16.386719 C -3.3125 16.605469 -3.167969 16.777344 -2.988281 16.898438 C -2.765625 17.015625 -2.5625 17.152344 -2.347656 17.335938 C -2.148438 17.320312 -1.96875 17.332031 -1.832031 17.238281 C -1.632812 17.109375 -1.417969 17.183594 -1.226562 17.125 C -1.054688 17.089844 -0.941406 16.980469 -0.964844 16.738281 C -0.992188 16.609375 -1.007812 16.523438 -0.980469 16.429688 C -0.921875 15.792969 -0.984375 15.113281 -1.089844 14.441406 C -1.253906 13.691406 -1.351562 12.953125 -1.285156 12.246094 C -1.292969 12.203125 -1.292969 12.09375 -1.265625 12 C -1.019531 12.242188 -0.859375 12.5 -0.660156 12.710938 C -0.28125 13.304688 0.152344 13.828125 0.621094 14.40625 C 0.851562 14.675781 1.105469 14.851562 1.398438 14.972656 C 1.621094 15.085938 1.808594 15.140625 2.023438 15.210938 C 2.28125 15.273438 2.484375 15.300781 2.675781 15.242188 C 2.996094 15.160156 3.347656 15.136719 3.691406 15.070312 C 3.777344 15.054688 3.855469 14.996094 3.976562 14.929688 C 4.125 14.765625 4.257812 14.519531 4.3125 14.21875 C 4.335938 14.125 4.332031 13.96875 4.296875 13.796875 C 4.074219 12.859375 3.851562 11.917969 3.515625 10.976562 C 3.390625 10.667969 3.339844 10.410156 3.257812 10.089844 C 3.042969 9.304688 2.808594 8.546875 2.609375 7.738281 L 2.226562 6.3125 C 2.21875 6.269531 2.253906 6.21875 2.261719 6.152344 C 2.398438 6.394531 2.570312 6.585938 2.730469 6.730469 C 2.746094 6.816406 2.773438 6.835938 2.773438 6.835938 C 2.796875 6.851562 2.804688 6.894531 2.804688 6.894531 C 3.160156 7.476562 3.570312 7.976562 3.976562 8.480469 L 4.292969 8.84375 C 4.429688 9.085938 4.625 9.292969 4.757812 9.535156 C 4.929688 9.839844 5.21875 10.074219 5.535156 10.214844 L 6.367188 10.59375 C 6.871094 10.785156 7.386719 10.800781 7.894531 10.882812 C 7.945312 10.917969 8.046875 10.875 8.109375 10.839844 C 8.496094 10.65625 8.894531 10.511719 9.265625 10.351562 C 9.4375 10.320312 9.523438 10.191406 9.585938 10.046875 C 9.449219 9.804688 9.332031 9.648438 9.246094 9.441406 C 8.917969 8.769531 8.5625 8.078125 8.078125 7.523438 C 8.019531 7.445312 8.011719 7.402344 7.933594 7.347656 C 7.46875 6.542969 6.917969 5.757812 6.453125 4.953125 C 6.171875 4.539062 5.894531 4.121094 5.542969 3.699219 C 4.890625 2.953125 4.199219 2.257812 3.441406 1.667969 C 3.347656 1.527344 3.21875 1.441406 3.089844 1.351562 C 2.492188 1.019531 1.953125 0.878906 1.441406 1.132812 C 1.140625 1.300781 0.941406 1.539062 0.746094 1.820312 C 0.5625 2.144531 0.5 2.515625 0.460938 2.902344 C 0.476562 3.101562 0.492188 3.296875 0.433594 3.441406 C 0.378906 3.519531 0.421875 3.625 0.445312 3.640625 C 0.574219 3.839844 0.5625 4.019531 0.613281 4.167969 C 0.644531 4.449219 0.675781 4.734375 0.863281 5.011719 C 0.949219 5.21875 0.988281 5.433594 1.082031 5.683594 C 1.113281 5.746094 1.125 5.789062 1.175781 5.824219 C 1.335938 5.972656 1.351562 6.167969 1.332031 6.304688 C 1.367188 6.476562 1.460938 6.617188 1.5 6.832031 C 1.292969 7.027344 1.359375 7.261719 1.546875 7.539062 C 1.570312 7.554688 1.597656 7.574219 1.578125 7.597656 C 1.636719 7.675781 1.585938 7.753906 1.542969 7.761719 C 1.527344 7.785156 1.4375 7.804688 1.421875 7.828125 Z M 1.554688 8.183594 "/></g></g></g><g fill="#000000" fill-opacity="1"><g transform="translate(251.150547, 314.471953)"><g><path d="M 2.589844 7.699219 C 2.582031 7.828125 2.492188 7.867188 2.40625 7.816406 C 2.128906 7.726562 1.851562 7.597656 1.597656 7.488281 C 1.511719 7.4375 1.425781 7.429688 1.390625 7.296875 C 1.371094 7.273438 1.289062 7.222656 1.242188 7.21875 C 1.042969 7.269531 0.742188 7.160156 0.574219 7.34375 C 0.574219 7.34375 0.550781 7.363281 0.53125 7.339844 C 0.402344 7.285156 0.351562 7.371094 0.261719 7.40625 C 0.101562 7.503906 -0.0429688 7.667969 -0.125 7.859375 C -0.25 8.050781 -0.3125 8.308594 -0.246094 8.578125 C -0.199219 8.820312 -0.171875 9.042969 -0.078125 9.25 C 0.0117188 9.5 0.0390625 9.71875 0.0859375 9.964844 C 0.164062 10.390625 0.285156 10.816406 0.519531 11.1875 C 0.710938 11.554688 0.957031 11.792969 1.246094 12.035156 C 1.328125 12.085938 1.433594 12.160156 1.519531 12.164062 C 1.804688 12.164062 2.101562 12.320312 2.402344 12.429688 C 2.527344 12.484375 2.65625 12.539062 2.765625 12.527344 C 3.101562 12.484375 4.195312 11.953125 4.53125 11.871094 C 4.621094 11.878906 4.722656 11.953125 4.835938 11.9375 C 4.921875 11.945312 4.996094 11.839844 5.128906 11.851562 C 5.300781 11.910156 5.398438 11.785156 5.472656 11.636719 L 5.609375 11.316406 C 5.785156 10.757812 5.875 10.148438 5.902344 9.515625 C 5.949219 8.902344 5.929688 8.308594 5.847656 7.6875 C 5.78125 7.085938 5.652344 6.503906 5.476562 5.921875 C 5.40625 5.695312 5.378906 5.472656 5.199219 5.261719 C 5.261719 5.574219 5.328125 5.84375 5.441406 6.117188 C 5.515625 6.296875 5.484375 6.40625 5.425781 6.574219 C 5.222656 6.382812 5.222656 6.382812 5.171875 6.183594 C 4.914062 5.261719 4.496094 4.394531 3.871094 3.664062 C 3.546875 3.332031 3.238281 3.019531 2.859375 2.816406 C 2.628906 2.6875 2.347656 2.601562 2.105469 2.601562 C 1.449219 2.597656 0.941406 2.335938 -0.167969 2.714844 C -0.574219 2.859375 -2.183594 3.789062 -2.472656 4.117188 C -2.734375 4.382812 -2.976562 4.671875 -3.179688 5.007812 L -3.332031 5.261719 C -3.550781 5.527344 -3.707031 5.867188 -3.824219 6.210938 C -3.882812 6.425781 -3.964844 6.617188 -4.046875 6.808594 L -4.167969 7.238281 C -4.222656 7.410156 -4.238281 7.585938 -4.273438 7.78125 C -4.347656 8.171875 -4.421875 8.5625 -4.433594 8.976562 C -4.429688 9.21875 -4.449219 9.480469 -4.492188 9.722656 C -4.503906 9.894531 -4.515625 10.027344 -4.484375 10.207031 C -4.417969 10.1875 -4.394531 10.210938 -4.351562 10.214844 C -4.277344 10.351562 -4.375 10.476562 -4.277344 10.640625 L -4.148438 10.40625 L -4.121094 10.628906 L -4.113281 11.113281 C -4.046875 11.382812 -4.042969 11.625 -4.042969 11.910156 C -4.050781 11.996094 -4.039062 12.109375 -4 12.199219 C -3.933594 12.46875 -3.820312 12.695312 -3.683594 12.949219 C -3.585938 12.78125 -3.613281 12.601562 -3.644531 12.425781 C -3.695312 11.9375 -3.679688 11.476562 -3.644531 10.996094 L -3.625 10.160156 L -3.613281 10.03125 C -3.496094 9.359375 -3.421875 8.683594 -3.28125 8.035156 C -3.105469 7.191406 -2.828125 6.421875 -2.402344 5.773438 C -2.304688 5.648438 -1.722656 4.945312 -1.585938 4.867188 C -1.1875 4.570312 -0.425781 4.648438 0.1875 4.695312 C 0.335938 4.730469 0.96875 5.085938 1.121094 5.121094 C 1.269531 5.199219 1.4375 5.300781 1.578125 5.464844 C 1.71875 5.628906 1.839844 5.769531 2.003906 5.914062 C 2.027344 5.894531 2.070312 5.898438 2.136719 5.882812 L 2.492188 6.4375 L 2.445312 6.476562 C 2.402344 6.429688 2.34375 6.359375 2.304688 6.269531 L 2.140625 6.410156 L 2.160156 6.433594 C 2.207031 6.4375 2.230469 6.417969 2.277344 6.375 C 2.375 6.539062 2.394531 6.5625 2.367188 6.625 C 2.316406 6.707031 2.3125 6.753906 2.371094 6.867188 C 2.429688 6.9375 2.402344 7 2.398438 7.046875 C 2.375 7.109375 2.367188 7.195312 2.40625 7.242188 C 2.527344 7.382812 2.515625 7.558594 2.589844 7.699219 Z M 2.75 10.457031 C 2.640625 11.042969 2.066406 11.898438 1.679688 10.683594 C 1.476562 10.160156 1.511719 10.011719 1.332031 9.46875 C 1.285156 9.222656 1.261719 8.957031 1.386719 8.769531 C 1.554688 8.585938 1.722656 8.398438 2.007812 8.445312 C 2.113281 8.472656 2.25 8.441406 2.359375 8.425781 C 2.539062 8.398438 2.660156 8.496094 2.707031 8.738281 L 2.765625 9.140625 C 2.773438 9.582031 2.847656 10.046875 2.75 10.457031 Z M 2.800781 3.273438 C 2.628906 3.214844 2.511719 3.074219 2.316406 2.992188 C 2.171875 2.917969 2.019531 2.882812 1.847656 2.824219 C 1.894531 2.785156 1.898438 2.742188 1.917969 2.765625 C 2.007812 2.726562 2.078125 2.710938 2.164062 2.71875 C 2.316406 2.75 2.445312 2.761719 2.574219 2.816406 C 3.257812 3.089844 3.761719 3.632812 4.195312 4.324219 L 4.40625 4.714844 C 4.460938 4.832031 4.496094 4.964844 4.546875 5.167969 L 4.40625 5 C 4.34375 4.929688 4.308594 4.839844 4.269531 4.75 C 4.0625 4.316406 3.78125 3.984375 3.476562 3.632812 C 3.457031 3.609375 3.460938 3.566406 3.417969 3.5625 C 3.109375 3.296875 2.800781 3.03125 2.480469 2.894531 C 2.460938 2.871094 2.4375 2.894531 2.390625 2.890625 C 2.425781 3.023438 2.535156 3.011719 2.597656 3.082031 L 2.828125 3.210938 C 2.828125 3.210938 2.824219 3.253906 2.800781 3.273438 Z M 4.132812 4.828125 C 3.941406 4.746094 3.824219 4.5625 3.707031 4.375 L 3.152344 3.585938 C 3.195312 3.589844 3.21875 3.570312 3.238281 3.59375 C 3.589844 3.90625 3.914062 4.238281 4.121094 4.714844 C 4.140625 4.738281 4.136719 4.785156 4.132812 4.828125 Z M 4.132812 4.828125 "/></g></g></g></svg>