<?xml version="1.0" encoding="UTF-8"?>
<svg xmlns="http://www.w3.org/2000/svg" viewBox="0 0 500 500">
  <defs>
    <style>
      .cls-1 {
        fill: #579277;
      }

      .cls-1, .cls-2, .cls-3, .cls-4, .cls-5, .cls-6, .cls-7, .cls-8, .cls-9, .cls-10, .cls-11, .cls-12, .cls-13, .cls-14 {
        stroke-width: 0px;
      }

      .cls-2 {
        fill: #42715b;
      }

      .cls-15 {
        isolation: isolate;
      }

      .cls-3 {
        fill: #f58c90;
      }

      .cls-4 {
        fill: #d74d57;
      }

      .cls-5 {
        fill: #f8e3c7;
      }

      .cls-6 {
        fill: #555c7e;
        mix-blend-mode: multiply;
        opacity: .14;
      }

      .cls-7 {
        fill: #f9b8be;
      }

      .cls-8 {
        fill: #911a1d;
      }

      .cls-9 {
        fill: #fff;
      }

      .cls-10 {
        fill: #231f20;
      }

      .cls-16 {
        fill: none;
        stroke: #d12027;
        stroke-miterlimit: 10;
        stroke-width: 2px;
      }

      .cls-11 {
        fill: #86cdad;
      }

      .cls-12 {
        fill: #f15f6b;
      }

      .cls-13 {
        fill: #fccec5;
      }

      .cls-14 {
        fill: #cd363e;
      }
    </style>
  </defs>
  <g class="cls-15">
    <g id="Layer_1" data-name="Layer 1">
      <g id="Label_4" data-name="Label 4">
        <circle class="cls-9" cx="250" cy="255.72" r="190.75" transform="translate(-107.6 251.68) rotate(-45)"/>
        <g>
          <path class="cls-10" d="m121.91,325.56c1.9,3.68,2.52,7.91.93,10.63-1.3,2.21-3.33,2.36-4.84.6l-.44-.51c-1.3-1.5-1.3-2.91-.88-4.21.41-1.3.34-2.48-.24-3.59-.59-1.15-1.5-1.65-2.26-1.25-2.62,1.35,4.41,11.83-3.79,16.07-4.36,2.25-9.02-.05-11.83-5.49-2.09-4.06-2.69-7.64-1.21-10.29,1.48-2.64,3.46-2.87,5.1-.74l.35.46c1.78,2.31,1.02,3.69.76,5.15-.14.79-.02,1.6.33,2.29.55,1.07,1.42,1.53,2.17,1.15,3.25-1.68-4.47-12.09,3.59-16.25,4.43-2.29,9.38.41,12.26,6h0Z"/>
          <path class="cls-10" d="m106.32,317.45c-6.1,2.01-11.4-1.12-13.29-6.84-1.5-4.54-.76-8.29,1.63-10.37,1.69-1.46,3.39-1.31,4.45.88l.24.49c.84,1.73.45,2.39-.11,3.89-.3.82-.42,1.69-.12,2.61.54,1.64,2.31,2.19,4.59,1.43,2.29-.75,3.38-2.25,2.84-3.89-.3-.92-.93-1.55-1.65-2.03-1.35-.88-2.05-1.18-2.41-3.06l-.1-.53c-.45-2.39.83-3.49,3.05-3.35,3.17.2,5.99,2.82,7.49,7.36,1.89,5.73-.51,11.4-6.61,13.41Z"/>
          <path class="cls-10" d="m99.11,295.04c-6.45,1.03-10.81-1.26-11.62-6.36-.34-2.13.36-4.75,2.07-5.86h-.07c-1.67.28-2.86-.88-3.22-3.11l-.18-1.13c-.37-2.3.67-3.74,2.98-4.11l13.15-2.1c2.31-.37,3.74.67,4.11,2.98l.18,1.13c.35,2.2-.39,3.7-1.95,3.95h-.04c1.9.54,3.32,2.82,3.66,4.95.81,5.07-2.65,8.64-9.07,9.67Zm-2.22-13.68c-2.34.37-3.69,1.68-3.43,3.35.26,1.63,2,2.52,4.31,2.15,2.34-.37,3.72-1.72,3.46-3.39-.27-1.67-1.96-2.49-4.34-2.11Z"/>
          <path class="cls-10" d="m84.97,254.3c.06-5.21,2.73-7.29,9.19-7.22l8.04.09c2.33.03,3.58,1.3,3.55,3.63v1.15c-.04,2.33-1.31,3.58-3.65,3.55l-7.18-.08c-2.33-.03-3.31.68-3.33,2.26-.02,1.72.94,2.31,3.28,2.33l7.18.08c2.33.03,3.58,1.3,3.55,3.63v1.15c-.04,2.33-1.31,3.58-3.64,3.55l-13.36-.15c-2.33-.03-3.58-1.3-3.55-3.63v-1.15c.04-2.02.99-3.22,2.62-3.49-1.64-.95-2.73-3.24-2.71-5.7h0Z"/>
          <path class="cls-10" d="m94.4,203.88c1.44-4.85,4.43-6.14,10.76-4.26l7.71,2.28c2.24.66,3.08,2.22,2.42,4.46l-.33,1.1c-.66,2.24-2.22,3.09-4.46,2.42l-6.88-2.04c-2.41-.71-3.31-.46-3.77,1.09-.44,1.48.16,2.25,2.22,2.87l7.23,2.14c2.24.66,3.08,2.22,2.42,4.46l-.33,1.1c-.66,2.24-2.22,3.08-4.46,2.42l-6.89-2.04c-2.41-.71-3.31-.46-3.77,1.09-.45,1.51.19,2.27,2.57,2.97l6.88,2.04c2.24.66,3.09,2.22,2.42,4.46l-.33,1.1c-.66,2.24-2.22,3.08-4.46,2.42l-12.8-3.79c-2.24-.66-3.09-2.22-2.42-4.46l.33-1.1c.56-1.89,1.64-2.83,3.17-2.71-1.29-1.27-1.54-3.51-.81-5.98.88-2.96,2.3-4.37,4.91-4.84-.84-1.22-2.44-3.53-1.35-7.21h0Z"/>
          <path class="cls-10" d="m123.17,191.55c-3.16,5.84-8.76,7.76-14.44,4.68-5.56-3-7.11-8.86-4.06-14.52,2.85-5.28,7.32-7.23,12.48-5.13,2.24.92,2.71,2.53,1.45,4.87l-4.46,8.24c1.86,1.01,3.61.56,4.59-1.24.53-.98.64-1.94.51-2.99-.18-1.4-.17-2.09.99-3.42l.42-.47c1.65-1.84,3.01-1.48,3.86.94.81,2.3.53,5.57-1.33,9.03h0Zm-10.29-8.74c-1.52-.74-3.01-.24-3.71,1.05-.7,1.3-.3,2.82,1.15,3.68l2.56-4.74Z"/>
        </g>
        <g>
          <path class="cls-10" d="m375.09,192.88c-1.9-3.68-2.52-7.91-.93-10.63,1.3-2.21,3.33-2.36,4.84-.6l.44.51c1.3,1.5,1.3,2.91.88,4.21-.41,1.3-.33,2.48.24,3.59.59,1.15,1.5,1.65,2.26,1.26,2.62-1.35-4.41-11.83,3.79-16.07,4.36-2.25,9.02.05,11.83,5.49,2.09,4.06,2.69,7.64,1.21,10.29-1.48,2.64-3.46,2.87-5.1.74l-.35-.46c-1.78-2.31-1.03-3.69-.76-5.15.14-.79.02-1.6-.33-2.29-.55-1.07-1.42-1.53-2.17-1.15-3.25,1.68,4.47,12.09-3.59,16.25-4.43,2.29-9.38-.41-12.26-6h0Z"/>
          <path class="cls-10" d="m384.07,214.4c-1.89-5.73.51-11.4,6.61-13.41,6.1-2.01,11.4,1.12,13.29,6.85,1.5,4.54.76,8.29-1.63,10.37-1.69,1.46-3.39,1.31-4.45-.88l-.24-.49c-.84-1.73-.45-2.39.11-3.89.3-.82.42-1.69.12-2.61-.54-1.64-2.31-2.19-4.59-1.43-2.28.75-3.38,2.25-2.84,3.89.3.92.93,1.55,1.65,2.03,1.35.88,2.05,1.18,2.41,3.06l.1.53c.45,2.39-.83,3.49-3.05,3.35-3.17-.2-5.99-2.82-7.49-7.36h0Z"/>
          <path class="cls-10" d="m397.89,223.4c6.45-1.03,10.81,1.26,11.62,6.36.34,2.13-.36,4.75-2.07,5.86h.07c1.67-.28,2.87.88,3.22,3.11l.18,1.14c.37,2.3-.67,3.74-2.98,4.11l-13.16,2.1c-2.3.37-3.74-.67-4.11-2.98l-.18-1.13c-.35-2.2.39-3.7,1.95-3.95h.04c-1.9-.54-3.32-2.82-3.66-4.95-.81-5.07,2.65-8.64,9.07-9.67Zm2.22,13.68c2.34-.37,3.69-1.68,3.43-3.35-.26-1.63-2-2.52-4.31-2.15-2.34.37-3.72,1.72-3.46,3.39.27,1.67,1.96,2.49,4.34,2.11Z"/>
          <path class="cls-10" d="m412.03,264.13c-.06,5.21-2.73,7.29-9.19,7.22l-8.04-.09c-2.33-.03-3.58-1.3-3.55-3.63v-1.15c.04-2.33,1.31-3.58,3.64-3.55l7.18.08c2.33.03,3.31-.68,3.33-2.26.02-1.72-.94-2.31-3.28-2.34l-7.18-.08c-2.33-.03-3.58-1.3-3.55-3.63v-1.15c.04-2.33,1.31-3.58,3.65-3.55l13.36.15c2.33.03,3.58,1.3,3.55,3.63v1.15c-.04,2.02-.99,3.22-2.62,3.49,1.64.95,2.73,3.24,2.71,5.7h0Z"/>
          <path class="cls-10" d="m402.6,314.56c-1.44,4.85-4.43,6.14-10.76,4.26l-7.71-2.28c-2.24-.66-3.08-2.22-2.42-4.46l.33-1.1c.66-2.24,2.22-3.08,4.46-2.42l6.88,2.04c2.41.71,3.31.46,3.77-1.09.44-1.48-.16-2.25-2.22-2.87l-7.23-2.14c-2.24-.66-3.09-2.22-2.42-4.46l.33-1.1c.66-2.24,2.22-3.09,4.46-2.42l6.88,2.04c2.41.71,3.31.46,3.77-1.09.45-1.51-.19-2.27-2.57-2.97l-6.88-2.04c-2.24-.66-3.08-2.22-2.42-4.46l.33-1.1c.66-2.24,2.22-3.08,4.46-2.42l12.8,3.79c2.24.66,3.09,2.22,2.42,4.46l-.33,1.1c-.56,1.89-1.64,2.83-3.17,2.71,1.29,1.26,1.54,3.51.81,5.99-.88,2.96-2.31,4.37-4.91,4.83.84,1.22,2.44,3.53,1.35,7.21h0Z"/>
          <path class="cls-10" d="m388.27,322.21c5.56,3,7.12,8.87,4.06,14.52-2.85,5.28-7.32,7.23-12.48,5.13-2.24-.92-2.71-2.53-1.45-4.87l4.46-8.25c-1.86-1.01-3.61-.56-4.59,1.24-.53.98-.64,1.94-.51,2.99.18,1.4.17,2.09-.99,3.42l-.42.47c-1.65,1.84-3.01,1.48-3.86-.94-.81-2.3-.53-5.57,1.33-9.03,3.16-5.84,8.76-7.76,14.44-4.68Zm-4.15,13.43c1.52.74,3.01.24,3.71-1.05.7-1.3.3-2.82-1.15-3.68l-2.56,4.74Z"/>
        </g>
        <path class="cls-16" d="m182.84,434.31c-72.21-27.17-123.59-96.88-123.59-178.59,0-54.34,22.72-103.37,59.18-138.11"/>
        <path class="cls-16" d="m380.1,116.22c37.32,34.82,60.65,84.44,60.65,139.5,0,81.34-50.91,150.79-122.6,178.22"/>
        <g>
          <g>
            <g>
              <g>
                <path class="cls-1" d="m227.32,443.02s-7.65-16.19-14.73-13.43c-7.01,2.74,1.49,13.17,14.73,13.43Z"/>
                <path class="cls-1" d="m223.59,446.05s-10.09,14.8-16.64,10.96c-6.49-3.8,3.53-12.77,16.64-10.96Z"/>
                <path class="cls-11" d="m215.68,443.43s-13.33-11.96-18.78-6.67c-5.4,5.24,6.48,11.56,18.78,6.67Z"/>
              </g>
              <path class="cls-2" d="m236.97,445.71c-.05.16-.2.27-.37.27-5.3-.08-10.74-.52-16.21-1.32-10.33-1.51-17.25-3.8-17.32-3.82-.2-.07-.3-.28-.24-.47.07-.2.28-.3.47-.24.07.02,6.93,2.29,17.19,3.79,4.45.65,9.97,1.21,16.11,1.3.25,0,.43.25.36.49h0Z"/>
              <path class="cls-2" d="m227.1,445.01s0-.02,0-.04c-.05-.2-.25-.33-.45-.28-4.76,1.09-10.41,4.16-10.47,4.19-.18.1-.25.33-.15.51.1.18.33.25.51.15.06-.03,5.61-3.06,10.28-4.12.19-.04.31-.22.29-.41Z"/>
              <path class="cls-2" d="m231.34,445.34c-.02-.14-.11-.26-.25-.31-5.65-2-10.52-8.13-10.57-8.19-.13-.16-.36-.19-.53-.06-.16.13-.19.36-.06.53.2.26,5.04,6.36,10.91,8.43.19.07.41-.03.48-.23.02-.06.03-.12.02-.17Z"/>
              <path class="cls-2" d="m234.78,445.45c-.01-.1-.06-.19-.14-.25-8.26-6.38-12.42-18.66-12.46-18.78-.07-.2-.28-.3-.47-.24-.2.07-.3.28-.24.47.01.03,1.07,3.18,3.15,7.09,1.93,3.61,5.15,8.64,9.56,12.05.16.13.4.1.53-.07.06-.08.09-.18.08-.28Z"/>
              <path class="cls-2" d="m232.69,445.42s-.01-.06-.02-.09c-.08-.19-.3-.28-.49-.21-6.27,2.54-10.74,6.86-13.39,10.03-2.87,3.44-4.25,6.24-4.3,6.36-.09.19-.01.41.17.5.19.09.41.01.5-.17.01-.03,1.4-2.85,4.22-6.23,2.59-3.1,6.97-7.33,13.09-9.8.16-.07.25-.23.23-.39Z"/>
              <path class="cls-2" d="m221.49,444.29c-.02-.14-.12-.27-.26-.31-8.33-2.61-19.83-14.02-19.95-14.14-.15-.15-.38-.15-.53,0-.15.15-.15.38,0,.53.48.47,11.75,11.66,20.26,14.32.2.06.41-.05.47-.25.02-.05.02-.11.01-.16Z"/>
              <path class="cls-2" d="m218.95,444.08s0-.02,0-.03c-.04-.2-.24-.33-.44-.29-12.71,2.56-24.41,7.38-24.52,7.43-.19.08-.28.3-.2.49.08.19.3.28.49.2.12-.05,11.75-4.85,24.38-7.39.19-.04.32-.22.3-.41Z"/>
              <path class="cls-12" d="m197.55,430.17c.13,1.46,1.41,2.53,2.87,2.4,1.46-.13,2.54-1.41,2.41-2.87-.08-.95-.66-1.74-1.46-2.14-.42-.21-.9-.31-1.4-.26-1.46.13-2.54,1.41-2.41,2.87Z"/>
              <path class="cls-12" d="m191.71,450.06c.81-1.21,2.46-1.54,3.67-.72s1.54,2.46.73,3.67c-.53.8-1.42,1.21-2.31,1.17-.47-.02-.94-.17-1.36-.45-1.22-.81-1.54-2.46-.73-3.67Z"/>
              <path class="cls-12" d="m218.26,426.12c.33,1.42,1.74,2.31,3.17,1.99s2.32-1.74,1.99-3.17c-.21-.93-.9-1.64-1.74-1.92-.45-.15-.94-.18-1.43-.07-1.43.33-2.32,1.74-1.99,3.17Z"/>
              <path class="cls-12" d="m211.5,463.53c-.67-1.3-.16-2.89,1.15-3.56s2.9-.16,3.57,1.14c.44.85.37,1.83-.1,2.59-.25.4-.6.74-1.05.97-1.3.67-2.9.16-3.57-1.14Z"/>
            </g>
            <g>
              <g>
                <path class="cls-1" d="m275.63,443.79s8.15-15.95,15.13-12.97c6.92,2.95-1.89,13.11-15.13,12.97Z"/>
                <path class="cls-1" d="m279.27,446.94s9.63,15.1,16.29,11.47c6.61-3.6-3.13-12.87-16.29-11.47Z"/>
                <path class="cls-11" d="m287.26,444.56s13.69-11.54,18.97-6.09c5.23,5.41-6.83,11.35-18.97,6.09Z"/>
              </g>
              <path class="cls-2" d="m265.91,446.18c.05.16.19.28.36.28,5.3.08,10.75-.19,16.24-.82,10.37-1.19,17.36-3.27,17.43-3.29.2-.06.31-.27.25-.47s-.27-.31-.47-.25c-.07.02-6.99,2.08-17.3,3.26-4.46.51-10.01.9-16.14.8-.25,0-.44.24-.37.48h0Z"/>
              <path class="cls-2" d="m275.79,445.78s0-.02,0-.04c.05-.2.26-.32.46-.27,4.73,1.23,10.28,4.48,10.34,4.51.18.1.24.33.13.51-.11.18-.33.24-.51.13-.05-.03-5.52-3.23-10.14-4.43-.19-.05-.31-.23-.28-.42Z"/>
              <path class="cls-2" d="m271.55,445.99c.02-.14.12-.25.26-.3,5.71-1.83,10.76-7.8,10.81-7.86.13-.16.37-.18.53-.05.16.13.18.37.05.53-.21.25-5.24,6.2-11.16,8.1-.2.06-.41-.05-.47-.24-.02-.06-.02-.12-.01-.17Z"/>
              <path class="cls-2" d="m268.11,446c.01-.09.07-.18.15-.24,8.45-6.12,12.99-18.27,13.03-18.39.07-.19.29-.29.48-.22.19.07.29.29.22.48-.01.03-1.17,3.15-3.37,6.99-2.04,3.55-5.41,8.47-9.93,11.75-.17.12-.4.08-.52-.08-.06-.08-.08-.18-.07-.28Z"/>
              <path class="cls-2" d="m270.19,446.02s.01-.06.03-.09c.08-.19.3-.28.49-.19,6.19,2.73,10.53,7.18,13.08,10.44,2.77,3.53,4.05,6.37,4.1,6.49.08.19,0,.41-.19.5-.19.08-.41,0-.5-.19-.01-.03-1.31-2.89-4.02-6.35-2.5-3.18-6.74-7.54-12.78-10.2-.16-.07-.24-.24-.22-.4Z"/>
              <path class="cls-2" d="m281.42,445.24c.02-.14.12-.26.27-.3,8.41-2.35,20.26-13.41,20.37-13.52.15-.14.39-.13.53.02s.13.39-.02.53c-.49.46-12.1,11.29-20.69,13.69-.2.06-.41-.06-.46-.26-.01-.05-.02-.11,0-.16Z"/>
              <path class="cls-2" d="m283.97,445.11s0-.02,0-.03c.05-.2.25-.33.45-.28,12.63,2.95,24.17,8.13,24.28,8.18.19.09.27.31.19.5-.09.19-.31.27-.5.19-.11-.05-11.59-5.21-24.14-8.14-.19-.04-.32-.23-.29-.42Z"/>
              <path class="cls-12" d="m305.79,431.87c-.17,1.45-1.49,2.49-2.94,2.31-1.45-.17-2.49-1.49-2.32-2.94.11-.95.72-1.72,1.53-2.1.43-.19.91-.28,1.41-.22,1.45.17,2.49,1.49,2.32,2.94Z"/>
              <path class="cls-12" d="m311.01,451.92c-.78-1.24-2.41-1.61-3.65-.84-1.24.78-1.62,2.41-.84,3.65.51.81,1.38,1.25,2.28,1.24.47,0,.94-.14,1.37-.4,1.24-.78,1.62-2.41.84-3.65Z"/>
              <path class="cls-12" d="m285.22,427.17c-.37,1.41-1.81,2.26-3.23,1.89-1.42-.37-2.26-1.82-1.89-3.23.24-.93.95-1.61,1.8-1.87.45-.13.94-.15,1.43-.02,1.42.37,2.26,1.82,1.89,3.23Z"/>
              <path class="cls-12" d="m290.82,464.77c.71-1.28.24-2.89-1.04-3.6-1.28-.71-2.89-.25-3.6,1.03-.46.84-.42,1.82.02,2.59.23.41.58.76,1.02,1,1.28.71,2.89.25,3.6-1.03Z"/>
            </g>
            <g>
              <g>
                <g>
                  <path class="cls-1" d="m251.12,445.39s-6.01-23.27-16.03-21.41c-9.93,1.85-1.35,17.73,16.03,21.41Z"/>
                  <path class="cls-2" d="m253.08,446.69s-.02.03-.03.04c-.16.22-.48.27-.7.11-5.29-3.87-10.62-10.66-10.67-10.73-.17-.22-.13-.53.09-.71.22-.17.53-.13.71.09.05.07,5.3,6.75,10.47,10.54.21.15.27.44.14.66Z"/>
                </g>
                <g>
                  <path class="cls-1" d="m252.45,445.11s9.88-21.91,19.44-18.37c9.47,3.51-1.68,17.7-19.44,18.37Z"/>
                  <path class="cls-2" d="m250.3,446.06s.01.03.02.05c.12.25.43.35.67.23,5.87-2.91,12.28-8.7,12.34-8.76.21-.19.22-.5.03-.71-.19-.21-.5-.22-.71-.03-.06.06-6.37,5.75-12.11,8.61-.23.12-.34.39-.25.63Z"/>
                </g>
                <g>
                  <path class="cls-11" d="m251.87,445.27s12.21-20.71,3.81-26.47c-8.33-5.72-13.5,11.58-3.81,26.47Z"/>
                  <path class="cls-2" d="m252.12,447.98s-.09.03-.14.04c-.28.03-.52-.18-.55-.45-.63-6.89.48-16.37.49-16.46.03-.28.28-.47.56-.44.28.03.47.28.44.56-.01.09-1.11,9.46-.49,16.25.02.23-.11.43-.31.51Z"/>
                </g>
              </g>
              <g>
                <g>
                  <path class="cls-14" d="m279.6,472.7s-2.98,9.76-14.25,12.19c0,0-13.53-5.59-14.63-25.02-.07-1.32-.09-2.71-.04-4.17.06-1.9.24-3.91.55-6.03,0-.02,0-.05,0-.07l.18.05.18.05,3.3.88s.1,1.6.68,3.9c1,3.96,3.44,9.98,9.28,13.29,9.21,5.23,14.74,4.94,14.74,4.94Z"/>
                  <path class="cls-14" d="m251.34,455.58c-.15,1.51-.36,2.94-.62,4.29-3.7,19.11-17.86,22.83-17.86,22.83-10.84-3.92-12.48-13.99-12.48-13.99,0,0,5.44,1.02,15.27-2.92,5.12-2.05,8.22-6.23,10-9.76,1.64-3.24,2.18-5.93,2.18-5.93l3.39-.43.19-.02.18-.02s0,.05,0,.07c.02,2.09-.07,4.05-.25,5.89Z"/>
                  <path class="cls-4" d="m255.58,454.47c-1.29.42-2.73.82-4.24,1.11-.22.04-.44.08-.66.12-1.63.28-3.34.42-5.03.33,1.64-3.24,2.18-5.93,2.18-5.93l3.39-.43s0-.05,0-.07l.18.05.18-.02s0,.05,0,.07l3.3.88s.1,1.6.68,3.9Z"/>
                </g>
                <g>
                  <g>
                    <g>
                      <path class="cls-4" d="m273.31,449.22s-.55,5.35-6.11,5.47c-4.05.09-15.01-4.89-15.01-4.89l1.18,1.65s8.53,8.15,16.8,8.35c8.28.2,11.52-9.08,3.15-10.58Z"/>
                      <path class="cls-14" d="m253.36,451.46s19.75,14.52,23.37,2.99c3.11-9.9-24.55-4.64-24.55-4.64l-2.46-3.44s27.02-17.24,31.09,1.77c2.58,12.04-15.02,18.85-27.46,3.32Z"/>
                      <path class="cls-7" d="m279.09,444.8s-2.13-4.89-8.71-4.95c-5.65-.05-13.16,2.93-13.16,2.93,0,0,10.71-2.62,15.39-1.5,4.68,1.11,6.48,3.52,6.48,3.52Z"/>
                    </g>
                    <g>
                      <path class="cls-4" d="m230.23,449.07s.67,5.33,6.23,5.34c4.05,0,14.9-5.21,14.9-5.21l-1.14,1.67s-8.35,8.33-16.62,8.71c-8.27.38-11.71-8.83-3.37-10.51Z"/>
                      <path class="cls-14" d="m250.22,450.87s-19.43,14.95-23.3,3.49c-3.32-9.83,24.44-5.16,24.44-5.16l2.38-3.5s-27.38-16.65-31.04,2.44c-2.32,12.09,15.43,18.52,27.52,2.73Z"/>
                      <path class="cls-7" d="m224.69,444.38s2.21-4.86,8.78-4.81c5.65.04,13.12,3.14,13.12,3.14,0,0-10.67-2.78-15.36-1.74-4.7,1.04-6.54,3.42-6.54,3.42Z"/>
                    </g>
                  </g>
                  <g>
                    <path class="cls-3" d="m255.62,448.99c-.06.22-.13.43-.21.63-.89,2.14-3.24,3.36-5.55,2.76-2.53-.65-4.05-3.23-3.39-5.76.58-2.25,2.69-3.7,4.92-3.53h0c.28.02.56.06.84.14,2.53.65,4.05,3.23,3.39,5.76Z"/>
                    <path class="cls-4" d="m255.41,449.63c-.89,2.14-3.24,3.36-5.55,2.76-2.53-.65-4.05-3.23-3.39-5.76.58-2.25,2.69-3.7,4.92-3.53-.1.04-2.58.77-2.15,3.82.48,3.38,5.02,4.12,6.17,2.71Z"/>
                  </g>
                </g>
              </g>
            </g>
          </g>
          <g>
            <g>
              <path class="cls-1" d="m317.92,65.36s.26,37.45,16.11,38.43c15.71.97,8.77-26.29-16.11-38.43Z"/>
              <path class="cls-1" d="m327.68,62.9s32.16-19.19,41.22-6.15c8.97,12.93-17.93,21.12-41.22,6.15Z"/>
              <path class="cls-11" d="m294.71,50.32s-10.18,36.04,4.77,41.4c14.81,5.31,15.74-22.81-4.77-41.4Z"/>
              <path class="cls-11" d="m302.83,48.12s28.12-24.73,39.41-13.56c11.18,11.07-13.78,24.04-39.41,13.56Z"/>
              <path class="cls-11" d="m340.37,74.84s14.76,34.42,29.75,29.18c14.85-5.19-2.11-27.63-29.75-29.18Z"/>
            </g>
            <path class="cls-2" d="m257.19,36.15s-.01.04-.02.06c-.1.42.17.84.59.94,30.71,6.99,57.13,21.53,73.88,32.5,18.15,11.88,29.16,22.23,29.27,22.34.31.3.81.28,1.11-.03.3-.31.28-.81-.03-1.11-.11-.1-11.22-10.55-29.49-22.51-10.73-7.02-21.79-13.19-32.89-18.34-13.88-6.43-27.84-11.27-41.5-14.38-.4-.09-.8.14-.92.53Z"/>
            <path class="cls-2" d="m292.3,47.7c-.07.22-.04.48.1.69,3.71,5.33,7.55,19.52,7.58,19.66.11.42.54.67.96.55.42-.11.67-.54.55-.96-.16-.59-3.95-14.6-7.81-20.15-.25-.36-.74-.44-1.09-.2-.15.1-.25.25-.3.4Z"/>
            <path class="cls-2" d="m320.08,61.79s-.01.05-.02.08c-.09.42.18.84.6.93,9.99,2.13,23.42,1.27,23.55,1.26.43-.03.76-.4.73-.83-.03-.43-.4-.76-.83-.73-.13,0-13.34.86-23.12-1.23-.4-.09-.79.15-.91.53Z"/>
            <path class="cls-2" d="m312.35,57.42c-.09.27-.02.58.2.8,8.96,8.78,12.8,24.68,12.83,24.84.1.42.52.68.94.58.42-.1.68-.52.58-.94-.16-.67-3.97-16.5-13.26-25.6-.31-.3-.81-.3-1.11.01-.09.09-.15.2-.19.31Z"/>
            <path class="cls-2" d="m293.47,48.32c-.02.07-.04.15-.04.23,0,.43.34.79.77.79,10.78.13,25.36-2.78,25.51-2.81.42-.09.7-.5.61-.92-.09-.42-.5-.7-.92-.61-.14.03-14.56,2.9-25.18,2.78-.35,0-.65.23-.76.55Z"/>
            <path class="cls-2" d="m305.93,54.18c-.06.19-.05.41.05.6,10.05,19.37,7.13,46.33,7.1,46.6-.05.43.26.82.69.87.43.05.82-.26.87-.69,0-.07.78-6.98.27-16.23-.47-8.55-2.16-20.92-7.53-31.27-.2-.38-.67-.53-1.06-.33-.19.1-.32.27-.39.46Z"/>
            <path class="cls-2" d="m309.84,56.09c-.02.06-.03.13-.04.2-.02.43.31.8.74.82,14.12.7,26.42-3.55,34.24-7.24,8.48-4,13.55-8.1,13.76-8.28.34-.27.39-.77.11-1.1-.27-.34-.77-.39-1.1-.11-.05.04-5.16,4.18-13.48,8.09-7.66,3.6-19.67,7.76-33.45,7.07-.36-.02-.68.21-.79.54Z"/>
            <path class="cls-2" d="m330.5,68.28c-.1.28-.03.61.2.82,13.28,12.53,24.47,44.52,24.58,44.84.14.41.59.63,1,.48.41-.14.63-.59.48-1-.46-1.33-11.42-32.68-24.98-45.47-.31-.3-.81-.28-1.11.03-.08.08-.14.18-.17.29Z"/>
            <path class="cls-2" d="m334.73,70.72s-.01.04-.02.06c-.1.42.16.84.58.95,26.36,6.34,52.8,7.48,53.06,7.49.43.02.8-.32.81-.75.02-.43-.32-.8-.75-.81-.26-.01-26.55-1.14-52.76-7.45-.4-.1-.81.14-.93.52Z"/>
            <g>
              <path class="cls-12" d="m362.69,116.25c1.09-2.85-.34-6.05-3.19-7.14-2.86-1.09-6.06.33-7.15,3.18-.72,1.87-.35,3.89.79,5.37.6.78,1.41,1.4,2.4,1.78,2.86,1.09,6.06-.33,7.15-3.18Z"/>
              <path class="cls-8" d="m362.69,116.25c1.09-2.85-.34-6.05-3.19-7.14-2.86-1.09-6.06.33-7.15,3.18-.72,1.87-.35,3.89.79,5.37,0,0-.95-3.69,2.58-5.81,2.87-1.72,7.96.66,6.97,4.4Z"/>
            </g>
            <g>
              <path class="cls-12" d="m391.67,83.36c-2.61,1.59-6.01.75-7.6-1.86-1.59-2.62-.76-6.02,1.85-7.61,1.71-1.04,3.76-1.04,5.42-.18.87.45,1.63,1.14,2.18,2.04,1.59,2.62.76,6.02-1.85,7.61Z"/>
              <path class="cls-8" d="m391.67,83.36c-2.61,1.59-6.01.75-7.6-1.86-1.59-2.62-.76-6.02,1.85-7.61,1.71-1.04,3.76-1.04,5.42-.18,0,0-3.8-.27-5.25,3.58-1.18,3.13,2.07,7.71,5.58,6.07Z"/>
            </g>
            <g>
              <path class="cls-12" d="m320.23,105.41c.64-2.99-1.27-5.92-4.26-6.56-2.99-.64-5.93,1.27-6.57,4.26-.42,1.96.26,3.89,1.62,5.18.71.67,1.62,1.17,2.65,1.38,2.99.64,5.93-1.27,6.57-4.26Z"/>
              <path class="cls-8" d="m320.23,105.41c.64-2.99-1.27-5.92-4.26-6.56-2.99-.64-5.93,1.27-6.57,4.26-.42,1.96.26,3.89,1.62,5.18,0,0-1.51-3.5,1.65-6.14,2.57-2.15,7.96-.59,7.57,3.27Z"/>
            </g>
            <g>
              <path class="cls-12" d="m365.99,40.39c.12,3.05-2.25,5.63-5.31,5.75s-5.63-2.25-5.76-5.3c-.08-2,.91-3.8,2.47-4.83.82-.54,1.79-.88,2.84-.92,3.06-.12,5.63,2.25,5.76,5.3Z"/>
              <path class="cls-8" d="m365.99,40.39c.12,3.05-2.25,5.63-5.31,5.75s-5.63-2.25-5.76-5.3c-.08-2,.91-3.8,2.47-4.83,0,0-2.08,3.2.59,6.33,2.17,2.55,7.75,1.92,8.01-1.94Z"/>
            </g>
          </g>
          <g>
            <g>
              <path class="cls-1" d="m177.61,67.71s-2.46,37.37-18.34,37.42c-15.74.05-7.21-26.76,18.34-37.42Z"/>
              <path class="cls-1" d="m168.02,64.68s-30.98-21.04-40.79-8.55c-9.72,12.38,16.67,22.14,40.79,8.55Z"/>
              <path class="cls-11" d="m201.67,54.06s8.05,36.58-7.19,41.05c-15.1,4.43-14.38-23.69,7.19-41.05Z"/>
              <path class="cls-11" d="m193.68,51.38s-26.63-26.34-38.54-15.84c-11.81,10.4,12.35,24.81,38.54,15.84Z"/>
              <path class="cls-11" d="m154.64,75.86s-16.75,33.5-31.41,27.39c-14.53-6.05,3.72-27.46,31.41-27.39Z"/>
            </g>
            <path class="cls-2" d="m239.95,42.11s.01.04.01.07c.07.43-.22.83-.64.9-31.07,5.18-58.29,18.15-75.66,28.12-18.82,10.8-30.42,20.49-30.53,20.58-.33.28-.83.24-1.1-.1-.28-.33-.24-.83.1-1.1.12-.1,11.82-9.87,30.76-20.74,11.12-6.38,22.53-11.89,33.9-16.38,14.23-5.61,28.45-9.62,42.28-11.93.4-.07.79.19.89.58Z"/>
            <path class="cls-2" d="m204.22,51.58c.06.23.01.48-.14.68-4.01,5.1-8.68,19.05-8.72,19.19-.14.41-.58.63-.99.5-.41-.14-.63-.58-.5-.99.19-.58,4.8-14.35,8.98-19.66.27-.34.76-.4,1.1-.13.14.11.23.26.27.42Z"/>
            <path class="cls-2" d="m175.66,64.02s.01.05.02.08c.07.43-.23.83-.66.89-10.1,1.54-23.45-.1-23.59-.12-.43-.05-.73-.45-.68-.88.05-.43.45-.73.88-.68.13.02,13.27,1.64,23.15.13.4-.06.78.19.88.58Z"/>
            <path class="cls-2" d="m183.64,60.11c.07.28-.01.58-.24.79-9.46,8.24-14.22,23.89-14.27,24.05-.12.41-.56.65-.98.53-.41-.12-.65-.56-.53-.97.2-.66,4.93-16.24,14.74-24.78.33-.28.82-.25,1.11.08.08.1.14.21.17.32Z"/>
            <path class="cls-2" d="m203.02,52.13c.02.07.03.15.02.23-.02.43-.39.77-.82.75-10.77-.5-25.15-4.26-25.3-4.3-.42-.11-.67-.54-.56-.96.11-.42.54-.67.96-.56.14.04,14.37,3.75,24.97,4.25.35.02.64.26.72.59Z"/>
            <path class="cls-2" d="m190.24,57.25c.05.19.02.41-.09.59-11.17,18.75-9.83,45.83-9.82,46.1.02.43-.31.8-.74.83-.43.02-.8-.31-.83-.74,0-.07-.36-7.02.69-16.22.97-8.51,3.38-20.75,9.35-30.78.22-.37.7-.49,1.07-.27.19.11.31.29.36.48Z"/>
            <path class="cls-2" d="m186.22,58.92c.02.06.02.13.02.2,0,.43-.36.78-.79.78-14.14-.12-26.16-5.09-33.76-9.23-8.23-4.49-13.05-8.88-13.25-9.07-.32-.29-.34-.79-.05-1.11.29-.32.79-.34,1.11-.05.05.04,4.91,4.47,12.98,8.87,7.43,4.05,19.18,8.9,32.98,9.02.36,0,.67.25.75.59Z"/>
            <path class="cls-2" d="m164.88,69.89c.08.29,0,.61-.25.81-14,11.73-27.03,43.01-27.16,43.32-.17.4-.62.59-1.02.42-.4-.17-.59-.62-.42-1.02.54-1.3,13.32-31.95,27.61-43.92.33-.28.83-.23,1.1.1.07.09.13.19.16.3Z"/>
            <path class="cls-2" d="m160.51,72.07s0,.04.01.06c.08.43-.21.83-.63.91-26.69,4.79-53.15,4.37-53.41,4.37-.43,0-.78-.37-.77-.8,0-.43.36-.78.8-.77.26,0,26.57.41,53.11-4.35.41-.07.8.18.9.58Z"/>
            <g>
              <path class="cls-12" d="m129.94,115.89c-.92-2.91.69-6.02,3.61-6.95s6.03.69,6.95,3.6c.61,1.91.12,3.9-1.11,5.31-.65.74-1.49,1.32-2.5,1.64-2.92.92-6.03-.69-6.95-3.6Z"/>
              <path class="cls-8" d="m129.94,115.89c-.92-2.91.69-6.02,3.61-6.95s6.03.69,6.95,3.6c.61,1.91.12,3.9-1.11,5.31,0,0,1.16-3.63-2.24-5.95-2.76-1.89-7.98.19-7.22,3.99Z"/>
            </g>
            <g>
              <path class="cls-12" d="m102.93,81.36c2.51,1.74,5.96,1.1,7.7-1.41,1.74-2.52,1.11-5.96-1.4-7.7-1.65-1.14-3.69-1.26-5.4-.5-.9.4-1.7,1.04-2.3,1.91-1.74,2.52-1.11,5.96,1.4,7.7Z"/>
              <path class="cls-8" d="m102.93,81.36c2.51,1.74,5.96,1.1,7.7-1.41,1.74-2.52,1.11-5.96-1.4-7.7-1.65-1.14-3.69-1.26-5.4-.5,0,0,3.81-.05,5.03,3.88.99,3.2-2.52,7.57-5.93,5.73Z"/>
            </g>
            <g>
              <path class="cls-12" d="m172.95,107.55c-.46-3.02,1.62-5.84,4.64-6.3,3.02-.46,5.85,1.61,6.31,4.63.3,1.98-.49,3.87-1.92,5.07-.75.63-1.68,1.07-2.72,1.23-3.02.46-5.85-1.61-6.31-4.63Z"/>
              <path class="cls-8" d="m172.95,107.55c-.46-3.02,1.62-5.84,4.64-6.3,3.02-.46,5.85,1.61,6.31,4.63.3,1.98-.49,3.87-1.92,5.07,0,0,1.71-3.41-1.28-6.23-2.44-2.29-7.91-1.05-7.75,2.82Z"/>
            </g>
            <g>
              <path class="cls-12" d="m131.08,39.97c-.3,3.04,1.92,5.75,4.96,6.05s5.76-1.92,6.06-4.96c.2-1.99-.69-3.84-2.18-4.97-.78-.59-1.73-.98-2.78-1.08-3.04-.3-5.76,1.92-6.06,4.96Z"/>
              <path class="cls-8" d="m131.08,39.97c-.3,3.04,1.92,5.75,4.96,6.05s5.76-1.92,6.06-4.96c.2-1.99-.69-3.84-2.18-4.97,0,0,1.89,3.31-.96,6.28-2.31,2.42-7.85,1.46-7.88-2.41Z"/>
            </g>
          </g>
          <g>
            <path class="cls-14" d="m315.73,70.98c-.1-.04-1.7-.8-4.21-1.56-7.23-2.18-22.02-4.4-30.68,10.16-2.82,4.72-4.99,11.23-6.04,20.09l-21.49-5.69-63.19-16.72s1.11-10.93,6.92-23.73c6.73-14.8,19.77-32.08,44.71-37.83,46.17-10.63,73.58,54.32,73.98,55.28Z"/>
            <path class="cls-11" d="m280.84,79.57c-2.82,4.72-4.99,11.23-6.04,20.09l-21.49-5.69-63.19-16.72s1.11-10.93,6.92-23.73c16.58,1.68,50.9,7.43,83.8,26.05Z"/>
            <path class="cls-6" d="m311.52,69.42c-9.57-2.9-32.44-5.83-36.72,30.24l-21.49-5.69c.63-9.15,4.45-36.82,27.51-35.9,16.98.68,26.16,6.76,30.71,11.34Z"/>
            <path class="cls-5" d="m304.62,71.01c.34,5.37,4.97,9.45,10.34,9.11s9.45-4.97,9.11-10.34c-.34-5.37-4.97-9.45-10.34-9.11s-9.45,4.97-9.11,10.34Z"/>
            <path class="cls-5" d="m196.23,67.12c-6.77-1.12-13.53,1.82-15.41,8.42-1.79,6.31-1.09,12.21,11.31,14.02,50.79,7.43,57.02,29.37,75.73,26.83,8.01-1.09,17.04-17.13,9.11-22.47-29.64-19.98-67.22-24.58-80.74-26.81Z"/>
            <path class="cls-9" d="m203.8,60.6c.05.82-.57,1.53-1.4,1.58s-1.53-.57-1.58-1.4.57-1.53,1.4-1.58,1.53.57,1.58,1.4Z"/>
            <path class="cls-9" d="m253.76,73.33c.05.82-.57,1.53-1.4,1.58s-1.53-.57-1.58-1.4.57-1.53,1.4-1.58,1.53.57,1.58,1.4Z"/>
            <circle class="cls-9" cx="273.62" cy="82.92" r="1.49"/>
            <path class="cls-9" d="m216.54,62.36c.07,1.16-.81,2.16-1.97,2.23s-2.16-.81-2.23-1.97.81-2.16,1.97-2.23,2.16.81,2.23,1.97Z"/>
            <circle class="cls-9" cx="241.21" cy="70.01" r="2.11"/>
            <circle class="cls-9" cx="262.3" cy="78.4" r="2.11"/>
            <path class="cls-9" d="m231.13,65.88c.09,1.46-1.02,2.72-2.48,2.81s-2.72-1.02-2.81-2.48,1.02-2.72,2.48-2.81,2.72,1.02,2.81,2.48Z"/>
            <path class="cls-13" d="m201.59,49.34c16.71-.84,33.89,2.55,48.86,10.08,1.46.82,3.09,1.75,4.5,2.62-17.04-7.08-35.03-10.73-53.36-12.7h0Z"/>
            <path class="cls-13" d="m262.54,64.96c6.41,1.26,12.61,4.26,17.29,8.86-6.13-2.25-11.96-5.08-17.29-8.86h0Z"/>
          </g>
        </g>
      </g>
    </g>
  </g>
</svg>