<svg id="Layer_1" data-name="Layer 1" xmlns="http://www.w3.org/2000/svg" viewBox="0 0 160 160"><defs><style>.cls-1{fill:#0a84ff;}.cls-2{fill:#fff;}</style></defs><rect class="cls-1" x="21.68" y="3.29" width="116.65" height="153.44" rx="11.08"/><rect class="cls-2" x="24" y="5.51" width="112" height="112" rx="8.81"/><rect class="cls-2" x="74.42" y="111.91" width="11.16" height="11.16" rx="1.7" transform="translate(-59.65 90.98) rotate(-45)"/><path class="cls-2" d="M54.47,144.86a3.8,3.8,0,0,1-1.38-2.05l1.5-.61a2.81,2.81,0,0,0,.79,1.36,2,2,0,0,0,1.37.53A2.06,2.06,0,0,0,58,143.7a1.24,1.24,0,0,0,.52-1.06,1.26,1.26,0,0,0-.46-1,5,5,0,0,0-1.59-.81l-.64-.23a4.58,4.58,0,0,1-1.7-1,2.32,2.32,0,0,1-.69-1.75,2.43,2.43,0,0,1,.41-1.38,2.82,2.82,0,0,1,1.13-1,3.51,3.51,0,0,1,1.64-.38,3.28,3.28,0,0,1,2.11.64,3.15,3.15,0,0,1,1.06,1.45l-1.42.6a1.85,1.85,0,0,0-.59-.84,1.69,1.69,0,0,0-1.13-.37,1.9,1.9,0,0,0-1.16.35,1.08,1.08,0,0,0-.47.9,1,1,0,0,0,.42.86,4.47,4.47,0,0,0,1.32.65l.64.21a5,5,0,0,1,2,1.18,2.61,2.61,0,0,1,.71,1.93,2.73,2.73,0,0,1-.5,1.66,3.16,3.16,0,0,1-1.29,1,4.09,4.09,0,0,1-1.61.32A3.72,3.72,0,0,1,54.47,144.86Z"/><path class="cls-2" d="M63.08,145.1a3.39,3.39,0,0,1-1.32-1.36,4,4,0,0,1-.47-2,4,4,0,0,1,.47-2,3.36,3.36,0,0,1,1.32-1.35A3.77,3.77,0,0,1,65,138a3.65,3.65,0,0,1,2,.54A2.9,2.9,0,0,1,68.2,140l-1.42.59A1.8,1.8,0,0,0,65,139.4a2.06,2.06,0,0,0-1.06.29,2.26,2.26,0,0,0-.78.84,2.93,2.93,0,0,0,0,2.5,2.22,2.22,0,0,0,.78.85,2.06,2.06,0,0,0,1.06.29,2.15,2.15,0,0,0,1.16-.3,1.87,1.87,0,0,0,.74-.87l1.4.61A3.37,3.37,0,0,1,67,145.06a3.64,3.64,0,0,1-2,.53A3.76,3.76,0,0,1,63.08,145.1Z"/><path class="cls-2" d="M70.38,145.29a2.3,2.3,0,0,1-.94-.86,2.33,2.33,0,0,1-.34-1.26,2.1,2.1,0,0,1,.84-1.76,3.37,3.37,0,0,1,2.12-.65,5,5,0,0,1,1.14.12,4.42,4.42,0,0,1,.8.26v-.36a1.35,1.35,0,0,0-.49-1.08,1.88,1.88,0,0,0-1.27-.41,2.29,2.29,0,0,0-1,.24,1.94,1.94,0,0,0-.78.66l-1.09-.83a3.2,3.2,0,0,1,1.24-1,3.91,3.91,0,0,1,1.69-.37,3.49,3.49,0,0,1,2.41.77,2.77,2.77,0,0,1,.84,2.16v4.48H74v-.86h-.07a2.42,2.42,0,0,1-.87.77,2.63,2.63,0,0,1-1.3.31A3.11,3.11,0,0,1,70.38,145.29ZM73,144.05a1.94,1.94,0,0,0,1-1.69,3,3,0,0,0-.75-.3,3.82,3.82,0,0,0-.9-.11,2,2,0,0,0-1.28.34,1.13,1.13,0,0,0-.41.9,1,1,0,0,0,.39.81,1.48,1.48,0,0,0,1,.31A2,2,0,0,0,73,144.05Z"/><path class="cls-2" d="M77.21,138.19h1.48v.94h.07a2.35,2.35,0,0,1,.92-.84A2.74,2.74,0,0,1,81,138a2.54,2.54,0,0,1,2,.77,3.06,3.06,0,0,1,.68,2.09v4.55H82.11V141a1.68,1.68,0,0,0-.41-1.24,1.62,1.62,0,0,0-1.15-.39,1.58,1.58,0,0,0-.93.29,1.92,1.92,0,0,0-.63.77,2.35,2.35,0,0,0-.23,1v3.89H77.21Z"/><path class="cls-2" d="M90.43,136.79H87.62v-1.5h7.21v1.5H92v8.58H90.43Z"/><path class="cls-2" d="M96.39,145.09a3.53,3.53,0,0,1-1.34-1.37,4.16,4.16,0,0,1,0-3.88,3.56,3.56,0,0,1,1.34-1.38,3.81,3.81,0,0,1,1.94-.5,3.76,3.76,0,0,1,2,.51,3.6,3.6,0,0,1,1.33,1.38,4.14,4.14,0,0,1,0,3.87,3.5,3.5,0,0,1-1.33,1.37,4,4,0,0,1-3.89,0Zm3-1.21a2.09,2.09,0,0,0,.81-.83,2.84,2.84,0,0,0,0-2.54,2.06,2.06,0,0,0-.81-.82,2.2,2.2,0,0,0-1.1-.29,2.23,2.23,0,0,0-1.1.29,2.2,2.2,0,0,0-.81.82,2.84,2.84,0,0,0,0,2.54,2.23,2.23,0,0,0,.81.83,2.13,2.13,0,0,0,1.1.29A2.11,2.11,0,0,0,99.43,143.88Z"/><path class="cls-2" d="M107.06,135.29h3.49a3.48,3.48,0,0,1,1.64.39,3,3,0,0,1,1.2,1.1,3,3,0,0,1,0,3.18,3,3,0,0,1-1.2,1.1,3.49,3.49,0,0,1-1.64.4h-1.91v3.91h-1.58Zm3.52,4.67a1.72,1.72,0,0,0,.9-.23,1.45,1.45,0,0,0,.58-.6,1.6,1.6,0,0,0,.2-.76,1.63,1.63,0,0,0-.2-.76,1.49,1.49,0,0,0-.58-.59,1.72,1.72,0,0,0-.9-.23h-1.94V140Z"/><path class="cls-2" d="M115.78,145.29a2.26,2.26,0,0,1-1-.86,2.42,2.42,0,0,1-.33-1.26,2.12,2.12,0,0,1,.83-1.76,3.39,3.39,0,0,1,2.12-.65,4.86,4.86,0,0,1,1.14.12,4.56,4.56,0,0,1,.81.26v-.36a1.36,1.36,0,0,0-.5-1.08,1.86,1.86,0,0,0-1.26-.41,2.33,2.33,0,0,0-1,.24,2.09,2.09,0,0,0-.78.66l-1.08-.83a3.2,3.2,0,0,1,1.24-1,3.88,3.88,0,0,1,1.69-.37,3.44,3.44,0,0,1,2.4.77,2.75,2.75,0,0,1,.85,2.16v4.48H119.4v-.86h-.07a2.37,2.37,0,0,1-.88.77,2.57,2.57,0,0,1-1.29.31A3,3,0,0,1,115.78,145.29Zm2.66-1.24a1.93,1.93,0,0,0,.7-.72,2,2,0,0,0,.26-1,3.09,3.09,0,0,0-.76-.3,3.68,3.68,0,0,0-.89-.11,2,2,0,0,0-1.28.34,1.13,1.13,0,0,0-.41.9,1,1,0,0,0,.38.81,1.49,1.49,0,0,0,1,.31A2,2,0,0,0,118.44,144.05Z"/><path class="cls-2" d="M124.66,145l-3-6.78h1.73l2,4.88h0l2-4.88h1.7l-4.44,10.22H123.1Z"/><g id="mobile"><path class="cls-2" d="M35.13,127.28h6.78a3,3,0,0,1,3,3v15.92a1.89,1.89,0,0,1-1.75,1.89h-8a3,3,0,0,1-3-3V130.24A3,3,0,0,1,35.13,127.28Zm-.87,17.91H40A1.08,1.08,0,0,0,41,143.86h0a1.07,1.07,0,0,0-.23-.45l-2.88-3.47a1,1,0,0,1,.17-1.2.9.9,0,0,1,1.15-.25l2.49,2.09a1.09,1.09,0,0,0,1.59-.21l.36-.51a1.13,1.13,0,0,0,.19-.62V131a1.08,1.08,0,0,0-1.08-1.08H34.26A1.08,1.08,0,0,0,33.18,131v13.13A1.08,1.08,0,0,0,34.26,145.19Z"/><rect class="cls-2" x="36.4" y="128.52" width="3.86" height="0.45" rx="0.05" transform="translate(76.66 257.48) rotate(-180)"/><path class="cls-2" d="M37.92,139.93l2.88,3.47a1.07,1.07,0,0,1,.23.45c0,.14.08.33.14.55a1.08,1.08,0,0,0,1,.79h.58a1.08,1.08,0,0,0,1.08-1.08v-4.54l-.55.79a1.09,1.09,0,0,1-1.59.21l-2.49-2.09a.9.9,0,0,0-1.15.25A1,1,0,0,0,37.92,139.93Z"/><rect class="cls-2" x="40.77" y="128.52" width="0.45" height="0.45" rx="0.05" transform="translate(82 257.48) rotate(-180)"/><path class="cls-2" d="M37.92,139.93l2.88,3.47a1.07,1.07,0,0,1,.23.45,11.82,11.82,0,0,0,.39,1.34,6.85,6.85,0,0,0,1.71,2.86l.23.18c1.71,1.15,3.76-.2,4-2.83.22-1.62,0-7.84,0-7.84a3.88,3.88,0,0,0-.24-1.58,2.88,2.88,0,0,0-.3-.43,1.08,1.08,0,0,0-1.93.68v1.88h0l-1,1.45-.55.79a1.09,1.09,0,0,1-1.59.21l-2.49-2.09a.9.9,0,0,0-1.15.25A1,1,0,0,0,37.92,139.93Z"/><circle class="cls-2" cx="38.38" cy="146.6" r="0.96"/></g><path d="M43.31,111.05H36.08a5.69,5.69,0,0,1-5.69-5.69V98.13a1.5,1.5,0,0,1,3,0v7.23a2.7,2.7,0,0,0,2.69,2.69h7.23a1.5,1.5,0,1,1,0,3Z"/><path d="M125,111.05h-7.23a1.5,1.5,0,0,1,0-3H125a2.7,2.7,0,0,0,2.69-2.69V98.13a1.5,1.5,0,0,1,3,0v7.23A5.7,5.7,0,0,1,125,111.05Z"/><path d="M31.89,27.05a1.5,1.5,0,0,1-1.5-1.5V18.31a5.69,5.69,0,0,1,5.69-5.68h7.23a1.5,1.5,0,0,1,0,3H36.08a2.69,2.69,0,0,0-2.69,2.68v7.24A1.5,1.5,0,0,1,31.89,27.05Z"/><path d="M129.19,27.05a1.5,1.5,0,0,1-1.5-1.5V18.31A2.69,2.69,0,0,0,125,15.63h-7.23a1.5,1.5,0,0,1,0-3H125a5.7,5.7,0,0,1,5.69,5.68v7.24A1.51,1.51,0,0,1,129.19,27.05Z"/></svg>