<svg id="Layer_1" data-name="Layer 1" xmlns="http://www.w3.org/2000/svg" xmlns:xlink="http://www.w3.org/1999/xlink" viewBox="0 0 160 160"><defs><style>.cls-1{fill:url(#linear-gradient);}.cls-2{fill:#fff;}</style><linearGradient id="linear-gradient" x1="4.76" y1="79.4" x2="152.69" y2="79.4" gradientTransform="matrix(0.62, -0.79, 0.79, 0.62, -31.06, 92.94)" gradientUnits="userSpaceOnUse"><stop offset="0" stop-color="#e3c21e"/><stop offset="0.13" stop-color="#efd997"/><stop offset="0.29" stop-color="#f1f3c7"/><stop offset="0.41" stop-color="#f5d75b"/><stop offset="0.66" stop-color="#fee764"/><stop offset="0.79" stop-color="#fff"/><stop offset="0.9" stop-color="#f6d371"/><stop offset="1" stop-color="#f4db67"/></linearGradient></defs><circle class="cls-1" cx="80" cy="80" r="73.97"/><circle class="cls-2" cx="80" cy="80" r="58.15"/><path d="M54.66,23.64a3.2,3.2,0,0,1-1.78-1.18L54,21.35a2.18,2.18,0,0,0,1,.76,1.44,1.44,0,0,0,1.13,0,1.52,1.52,0,0,0,.74-.59.85.85,0,0,0,.07-.82,1,1,0,0,0-.63-.58A4.89,4.89,0,0,0,54.89,20l-.55,0a3.64,3.64,0,0,1-1.62-.27,2.05,2.05,0,0,1-1.1-1.14,2.26,2.26,0,0,1,.43-2.4,3.14,3.14,0,0,1,1.19-.83,2.68,2.68,0,0,1,3.19.62l-1.07,1.08a1.37,1.37,0,0,0-.67-.43,1.27,1.27,0,0,0-.87.07,1.47,1.47,0,0,0-.7.55.73.73,0,0,0-.07.71.84.84,0,0,0,.54.48,3.58,3.58,0,0,0,1.17.07l.56,0a4.08,4.08,0,0,1,1.93.28A2.27,2.27,0,0,1,58.41,20a2.24,2.24,0,0,1,.14,1.45,2.66,2.66,0,0,1-.68,1.21,3.59,3.59,0,0,1-1.16.78A3.17,3.17,0,0,1,54.66,23.64Z"/><path d="M62.57,20.77a4.36,4.36,0,0,1-3.08-3.15,4.31,4.31,0,0,1,0-2.31,4.21,4.21,0,0,1,1.14-2,4.39,4.39,0,0,1,2-1.13,4.09,4.09,0,0,1,3.41.52l-.81,1.34A2.58,2.58,0,0,0,63,13.68a3.08,3.08,0,0,0-1.3.72A2.58,2.58,0,0,0,61,15.65a3,3,0,0,0,0,1.56,3,3,0,0,0,.74,1.38,2.64,2.64,0,0,0,1.25.72,2.9,2.9,0,0,0,1.49,0,2.8,2.8,0,0,0,1.87-1.64l1.37.74a4.24,4.24,0,0,1-1.14,1.49,4.56,4.56,0,0,1-1.73.87A4.45,4.45,0,0,1,62.57,20.77Z"/><path d="M71.15,10.79l1.82-.2,4.1,8-1.75.19-.93-1.92-3.21.36-.48,2.09L69,19.54Zm2.56,4.71-1-2-.42-1h-.1L72,13.56l-.51,2.19Z"/><path d="M78.63,10.21l1.85,0L83.76,16h.09l-.06-1.63.09-4,1.58,0-.18,8.45-1.68,0-3.46-6.05h-.09l.06,1.63L80,18.69l-1.57,0Z"/><path d="M92.53,11.24l2,.49.75,6.3.09,0L99,12.83l2,.49-2,8.2-1.53-.37,1-4,.43-1.34-.09,0-3.42,4.89-1.2-.3-.76-5.92-.09,0L93,15.77l-1,4.05-1.52-.38Z"/><path d="M104.15,14.5l4.95,2-.57,1.4-3.48-1.43-.75,1.81,3.14,1.29-.58,1.4-3.13-1.29L103,21.52,106.47,23l-.58,1.4-5-2Z"/><path d="M136.13,54.17a3.28,3.28,0,0,1,1.16-1.79l1.13,1.15a2.14,2.14,0,0,0-.75,1,1.51,1.51,0,0,0,0,1.14,1.57,1.57,0,0,0,.6.73.87.87,0,0,0,.83.06.94.94,0,0,0,.57-.63,4.7,4.7,0,0,0,.09-1.43l0-.55a3.57,3.57,0,0,1,.26-1.63,2,2,0,0,1,1.12-1.1,2.31,2.31,0,0,1,1.24-.16,2.36,2.36,0,0,1,1.17.56,3.24,3.24,0,0,1,.84,1.18,2.68,2.68,0,0,1-.59,3.2l-1.09-1.06a1.38,1.38,0,0,0,.42-.68,1.28,1.28,0,0,0-.08-.87,1.49,1.49,0,0,0-.55-.69.77.77,0,0,0-.72-.06.81.81,0,0,0-.46.54,3.63,3.63,0,0,0-.07,1.17l.05.56a4.27,4.27,0,0,1-.26,1.94A2.53,2.53,0,0,1,138.33,58a2.51,2.51,0,0,1-1.21-.67,3.36,3.36,0,0,1-.8-1.15A3.24,3.24,0,0,1,136.13,54.17Z"/><path d="M139.07,62a4.43,4.43,0,0,1,7.39-2,4.39,4.39,0,0,1,1.15,2,4.06,4.06,0,0,1-.49,3.41l-1.34-.79a2.57,2.57,0,0,0,.38-2.21,2.94,2.94,0,0,0-.73-1.3,2.56,2.56,0,0,0-1.25-.71,3.34,3.34,0,0,0-2.94.81,2.58,2.58,0,0,0-.71,1.25,2.86,2.86,0,0,0,0,1.48,2.77,2.77,0,0,0,1.66,1.86l-.73,1.38a4.13,4.13,0,0,1-1.5-1.13,4.47,4.47,0,0,1-.89-1.72A4.53,4.53,0,0,1,139.07,62Z"/><path d="M149.13,70.55l.23,1.81-8,4.18-.21-1.75,1.91-.94-.39-3.21-2.09-.46-.21-1.74Zm-4.68,2.6,2-1,1-.43v-.1l-1.05-.18-2.2-.49Z"/><path d="M149.82,78.08l0,1.85-5.73,3.28v.1l1.63-.06,4,.08,0,1.58-8.45-.18,0-1.67,6-3.46v-.1l-1.63.06-4.36-.09,0-1.57Z"/><path d="M148.89,91.93l-.47,2-6.3.82,0,.09,5.26,3.55-.47,2-8.22-2,.36-1.54,4.05,1,1.35.42,0-.1-4.93-3.37.29-1.2,5.92-.82,0-.09-1.39-.24-4.05-1,.36-1.53Z"/><path d="M145.74,103.56l-2,5-1.4-.56,1.39-3.5-1.82-.72-1.25,3.14-1.41-.56,1.26-3.14-1.82-.73-1.39,3.5-1.41-.56,2-5Z"/><path d="M106.38,135.93a3.33,3.33,0,0,1,1.8,1.14L107,138.21a2.26,2.26,0,0,0-1-.74,1.51,1.51,0,0,0-1.14.05,1.62,1.62,0,0,0-.72.61.87.87,0,0,0-.06.83,1,1,0,0,0,.64.56,4.46,4.46,0,0,0,1.43.08l.56,0a3.41,3.41,0,0,1,1.62.24,2,2,0,0,1,1.12,1.11,2.22,2.22,0,0,1,.16,1.24,2.41,2.41,0,0,1-.54,1.17,3.07,3.07,0,0,1-1.18.85,2.77,2.77,0,0,1-1.87.23,2.71,2.71,0,0,1-1.33-.79l1-1.1a1.31,1.31,0,0,0,.68.42,1.22,1.22,0,0,0,.87-.09,1.43,1.43,0,0,0,.68-.56.75.75,0,0,0,.06-.71.82.82,0,0,0-.55-.47,3.7,3.7,0,0,0-1.17-.05l-.55.05a4.16,4.16,0,0,1-1.94-.24,2.25,2.25,0,0,1-1.19-1.25,2.28,2.28,0,0,1-.16-1.46,2.55,2.55,0,0,1,.65-1.22,3.46,3.46,0,0,1,1.15-.8A3.17,3.17,0,0,1,106.38,135.93Z"/><path d="M98.55,138.94a4.41,4.41,0,0,1,.11,8.54,4.06,4.06,0,0,1-3.42-.46l.78-1.35a2.51,2.51,0,0,0,2.21.36,2.86,2.86,0,0,0,1.29-.74,2.62,2.62,0,0,0,.7-1.26,3,3,0,0,0-.06-1.56,3.17,3.17,0,0,0-.77-1.37,2.72,2.72,0,0,0-1.26-.7,3,3,0,0,0-1.49,0,2.75,2.75,0,0,0-1.84,1.68l-1.38-.72a4.09,4.09,0,0,1,1.11-1.51,4.25,4.25,0,0,1,1.71-.9A4.33,4.33,0,0,1,98.55,138.94Z"/><path d="M90.12,149.09l-1.82.24-4.25-8,1.74-.23,1,1.91,3.2-.43.44-2.09,1.75-.23Zm-2.65-4.66,1,2,.44,1H89l.17-1,.47-2.21Z"/><path d="M82.61,149.85l-1.86,0-3.33-5.71h-.09l.07,1.63,0,4-1.58,0,.1-8.45,1.67,0,3.52,6h.09l-.07-1.63,0-4.36,1.57,0Z"/><path d="M68.75,149.05l-2-.46-.87-6.28-.1,0-3.49,5.29-2-.45,1.87-8.24,1.54.35-.92,4.06-.4,1.35.09,0,3.32-5L67,140l.88,5.91.09,0,.22-1.39.92-4.06,1.53.35Z"/><path d="M57.08,146l-5-1.94.54-1.4L56.14,144l.71-1.83L53.69,141l.55-1.41,3.16,1.22.71-1.82-3.51-1.36.55-1.41,5,1.94Z"/><path d="M24.35,107a3.25,3.25,0,0,1-1.13,1.81l-1.15-1.12a2.29,2.29,0,0,0,.74-1,1.51,1.51,0,0,0-.07-1.14,1.56,1.56,0,0,0-.61-.72.87.87,0,0,0-.83,0,1,1,0,0,0-.56.65,4.58,4.58,0,0,0-.06,1.43l0,.55a3.53,3.53,0,0,1-.23,1.62,2,2,0,0,1-1.1,1.13,2.22,2.22,0,0,1-1.24.18,2.32,2.32,0,0,1-1.17-.54,3.14,3.14,0,0,1-.87-1.16,2.65,2.65,0,0,1,.53-3.21l1.11,1a1.41,1.41,0,0,0-.41.68,1.29,1.29,0,0,0,.1.87,1.4,1.4,0,0,0,.57.68.72.72,0,0,0,.71,0,.83.83,0,0,0,.46-.55,3.51,3.51,0,0,0,0-1.17l-.06-.56a4.06,4.06,0,0,1,.23-1.94,2.23,2.23,0,0,1,1.24-1.19,2.26,2.26,0,0,1,1.45-.19,2.64,2.64,0,0,1,1.22.65,3.38,3.38,0,0,1,.82,1.14A3.22,3.22,0,0,1,24.35,107Z"/><path d="M21.25,99.16a4.3,4.3,0,0,1-1.07,2,4.61,4.61,0,0,1-4.29,1.27,4.35,4.35,0,0,1-2-1.09,4.42,4.42,0,0,1-1.2-2,4.1,4.1,0,0,1,.43-3.42l1.36.76a2.56,2.56,0,0,0-.34,2.22,2.94,2.94,0,0,0,.75,1.28,2.6,2.6,0,0,0,1.27.69A3.34,3.34,0,0,0,19.1,100a2.69,2.69,0,0,0,.69-1.27,2.87,2.87,0,0,0-.06-1.48A2.79,2.79,0,0,0,18,95.44l.71-1.39a4.11,4.11,0,0,1,1.52,1.1,4.44,4.44,0,0,1,.92,1.7A4.33,4.33,0,0,1,21.25,99.16Z"/><path d="M11,90.84,10.77,89l7.92-4.33.25,1.74-1.9,1,.45,3.2,2.1.42.25,1.74Zm4.63-2.7-2,1-1,.44,0,.1,1,.16,2.21.45Z"/><path d="M10.19,83.32V81.47l5.67-3.38V78l-1.63.09h-4V76.49l8.45,0v1.68l-6,3.57v.09l1.63-.09h4.36v1.57Z"/><path d="M10.86,69.48l.44-2,6.27-.94,0-.09L12.26,63l.44-2L21,62.76l-.34,1.54-4.07-.87L15.2,63l0,.09,5,3.27-.26,1.21-5.9.94,0,.09,1.39.21,4.07.88-.33,1.53Z"/><path d="M13.79,57.76l1.89-5,1.41.53L15.76,56.8l1.83.69,1.2-3.16,1.41.53L19,58l1.83.69,1.33-3.52,1.41.53-1.89,5Z"/></svg>