<svg id="Layer_1" data-name="Layer 1" xmlns="http://www.w3.org/2000/svg" viewBox="0 0 160 160"><defs><style>.cls-1{fill:#fcc410;}.cls-2{fill:#fff;}</style></defs><path class="cls-1" d="M138.65,56H128V22.11A15.47,15.47,0,0,0,112.57,6.64H38.34A15.47,15.47,0,0,0,22.87,22.11V139a15.47,15.47,0,0,0,15.47,15.46h74.23A15.46,15.46,0,0,0,128,139V122.84h10.62a15,15,0,0,0,15-15V71A15,15,0,0,0,138.65,56Zm5.17,47.83a5.42,5.42,0,0,1-5.41,5.41H134.1a5.41,5.41,0,0,1-5.41-5.41V75.18a5.41,5.41,0,0,1,5.41-5.41h4.31a5.41,5.41,0,0,1,5.41,5.41Z"/><path d="M48.38,32.54l-.51-.29L47,31.56l-.35-.49-.16-.46V30.4l-.06-.2,0-.44-.09-.17V28.47l0-.06v-.14l0,.13.09.07h.06v-.24h0l0,.35.09.15h.12l.16-.11v-.15h.07l0-.13.22.22.3.22.29.35.15.41.09.64.24.76.22.35.24.22.22.11.22-.26h.11l.32-.44.07-.42,0-1.24-.16-1,0-.09-.09-.59-.09-.15,0-.2-.48-1.18L48.75,26l-.28-.52-.35-.53-.42-.43-.77-.88-.43-.7-.25-.66v-.35l0-.11,0-.32.29-.68.1-.15,0-.11.3-.31.61-.28.7-.16H49l.41-.06.31.11h.44l.41.15.55.33.22.26,0,.07.18.19.12.24.16.22,0,.35.05.15.08.47-.13.23-.3.2h-.14l-.13,0H51l-.17-.09h-.09l-.11-.07h-.09l-.37-.26-.09-.24-.21-.68-.2-.33-.17-.19h-.2l-.4.08h-.26l-.11.11-.37.2-.22.22-.08.2,0,.24,0,.15,0,.07.25.89.3.4.07.19.85.9L50,25l.26.33.35.53,0,.17.24.61.09.11.26,1.09.05.05.07.35.11.35.13.61v1.75l-.13.42-.11.11h0l-.24.28L51,31.69l-.13.06v.16l-.24.43-.33.2-.32.13-.55.09-.61-.07Z"/><path d="M55.25,32.43l-.11,0-.48-.13-.07-.1-.18,0-.17-.19L54,31.68l-.26-.47-.08-.07,0-.15-.24-.46,0-.16-.26-.81L53,29.24l-.11,0-.21-1-.11-1.64,0-1.51.06-.61v-.31l.13-.56v-.16l.09-.33,0-.37.06-.2.16-.19,0-.26.52-.95.14-.13.08-.21.39-.42.16-.11.37-.33.35-.06.29.06.19-.17.09,0,.44,0h.46l.44.18.19.18.13.19v.07l.11.09.09,0v.15l.11.11.09,0,.11.24.1,0,.09.26.18.29.13.57-.29.17L58,22.26l-.21.17,0,.11h0l-.07.11,0,.15-.26.14,0,.08L57.26,23l0-.2-.09-.07-.13,0-.06.06.07.09-.22-.07-.14.07-.06,0-.09-.24-.22-.22-.15-.81-.11-.24L55.88,21,55.77,21h-.15l-.4.42-.19.28-.11.25,0,.21-.4,1.06,0,.21-.15.6-.06.15v.17h.13l-.13,1.25,0,1.73.06.68-.19.46,0,.33.2.8.17.51.22.5v.09l.31.48.11.07h.3l.33-.09L56,31l.15-.23.42-.48.09-.2.09-.11h.37l0,.11.13,0,.13.09.19,0,.11.11.18-.08,0,.08v.22l0,.15-.11.16V31l.22,0-.11.29-.27.3-.13.2v.08l-.11.16,0-.16-.11.05-.15.24-.24.17-.09-.06-.2.19h-.17l-.13.09-.5.07-.23-.11Zm-.79-4v.22h0v-.14Zm0,.59,0-.13h.07l.19.67,0,.11,0-.08Zm.27.81,0,0,.08.24-.06.05,0-.05Zm.23.63,0,0-.07.14v-.13Zm3.11.18-.11.19v-.08Z"/><path d="M64.41,32.5h-.06l-.38-1,0-.16L64,31.2l0-.56,0-.16,0-.43V30l-.09-.27-.15-.17,0-.09-.09-.08h-.13l0,0-.24.06-.25,0H60.61l-.13.11,0,.19-.2,1.31.12.22.06.68,0,.13,0,.09-.11.11,0,.13-.09.09-.21,0-.12.09-.17.08h-.29l-.17-.08h-.31l0-.24.07-.09.06-.13.05-.07,0-.35h-.2l-.13-.11.11-.28,0-.13,0,0,0-.11,0-.25.07-.08.2-1.07.06-.07,0-.18.06-.06,0-.33,0-.06.15-.64,0-.44.07-.39,0-.17.06-.18,0-.37V26.7l0-.09v-.26h.08l0-.27v-.21l.07-.18,0-.26h0v0l.08-.27,0,0L60,25H60V24.9l.08-.22v-.24l.08-.11,0-.13.05-.24.08-.19,0-.11.09-.11,0-.2.1-.11V23l.09-.16v-.08l0-.29h0l0-.19h.08V22l.1-.26,0-.06.09-.2,0-.18L61,21.1l0-.22.22-.33-.06-.06v-.16l.22-.13,0-.09.07-.09h.06l.07-.08.28-.15.64-.09.06.09h.05l.21.19h.07l.22.29.15.32.11.51.14.33,0,.21.19.42.07.41.09.27,0,.35.09,0v.16h.08l.11.48V24l.06.21,0,.16,0,.08.09.49.26.89V26l.08.22,0,.24.08.3,0,.18.11.17.09.73,0,.15.07.11.55,2.54.06.39,0,.55-.11.15-.18.06,0,.29-.11.11-.11,0-.05.11,0,.2-.09-.05-.48.11Zm-3.32-4.1.79-.08,1,.06.59-.06.07-.07,0-.39-.15-.59-.06-.38-.09-.13,0-.15L63,26.33l-.24-.27,0-.28,0-.05,0-.26,0,0v-.07l-.18-.52,0-.15-.17-.46,0,0-.18-1L62,23l-.19-.09h-.09l0,.12-.11.47-.06.42-.06.2v.13l0,.09-.08.5-.09.22,0,.46-.11.39,0,.35v.15l0,.27v.15l-.06.09,0,.31,0,.06v.28l0,.05-.06.24-.05,0-.08.49.1.06Z"/><path d="M72.14,32.45l-.44-.85-.18-.26L71.41,31l-.32-.57,0-.26L71,30.11l-.23-.54,0-.27L70.54,29l-.07-.21-.06,0,0-.15-.21-.48L70.08,28l0-.18-.22-.39L69.66,27l-.08-.28-.07-.13,0-.07-.15-.22-.16-.53-.08-.08,0-.15,0-.05L68.92,25l-.11-.2-.13-.41L68.52,24l0-.16-.09,0,0,.11v.3l-.09.36v4.87l-.08.31v.29l.07.11,0,.26.07.46-.09.35-.11.17-.06.18v.28l.08.26-.11.33-.15.07h-.17l-.13-.11-.07.09H67l-.28-.24,0-.36,0-.34V30.44l0-.64.2-5.18.07-.35v-1L66.8,23l.19-2.2.07-.24v-.22l.06-.09v-.37l0-.27,0-.06.17-.05.22.09,0,.2.12.13.09,0,0,.07.17,0,.11.11.09.4.06.06.2,0,.15.2V21l.25.25v0l0,.07H69l0,.11.09,0,.17.52.18.29,0,.13.11.29.11.1,0,.24.11.2.13.15.07.2v.16l.11.12.1.33.2.27.16.37V25l.17.15.07.38.19.56.14.27.34.91.09.07,0,.46.35.77.08.33.07-.09v-3.9l.08-.44V23.5L72.4,21l.13-.08.2-.46.46-.31.23,0,.11.05.22-.2.13.11v.13l.11.07H74l-.24,4.35,0,.18,0,1.05.06.13v.9l-.06.24.11,4.31.09.91-.26.25-.14.24-.3.08L73,32.87l-.11,0h-.48l-.17-.09Z"/><path d="M82.44,32.61l-.22-.11H82L82,32.17,81.87,32l-.22-1.95-.07-2.61,0-.1,0-.05L81.52,27V24.68l-.07-.76v-1l0-.06v-.68l0-.31-.09-.44v-.76l-.07-.15.11-.26v-.07l.24-.07.58-.24.28-.06.61,0,.42-.05.92.07.63.13h.13l.4.09.56.22.07.12-.18.11-.11.16-.11.06-.1.2-.24.13-.36,0-.34-.07H84.5l-.84-.17h-.35l-.08.17.06.27v1.64l0,.3v.57l.07.61.11.05.16-.07L85,24.09h.6l.32.24-.11.11-.11.27-.22.21-.21.14-.31.09-.37.08H84l-.5-.06-.07.15v3.09l.07.59,0,1.29.23,1.61-.28.11-.07.2-.45.42-.11-.11-.09.11Z"/><path d="M89.88,32.47l-.13,0-.11-.07-.24-.06-.11-.09-.42-.2-.53-.48L88,31.16l-.7-1.31L87,28.76l-.18-1.69V25.91l0-.18L87,24.6l.1-.37.11-.77.24-.66.16-.37.08-.35.27-.57.26-.41,0-.11.38-.46.26,0,.22-.22.06-.16.33,0,.42-.21.34,0,.16-.07.63,0,1.08.08.41.22.39.16.14.17.19.13.29.44.17.37,0,.17.11.09.11.27.11.5,0,.33.13.52v.26l0,.2.07.11,0,.41.06.11,0,.38.09.41,0,.29v.44l-.19.23-.07.2,0,.72-.11.11-.15,1.65-.16.21-.11,0-.11.11-.1.32,0,.16,0,.5.08.09,0,.15.08.07,0,.7,0,0v.09l-.72.59,0,.19-.11.11-.2,0-.28.18-.24.24-.24,0H90.4L90,32.5Zm1.24-.79.22-.12.35-.23.07-.17.28-.07.29-.78.26-1L92.72,28l-.26-3.42-.11-.32,0-.4L92.18,23,92,22.24l-.13-.36v-.15l-.34-.55,0-.15-.26-.35-.27-.13h-.17l-.33.22-.17.19-.16.36v.24l-.3.44-.07.26-.15.21-.13.25-.13.46-.35,1.66-.18,1.57-.06.14,0,.17,0,1.2.06.44-.06.29h.08l.09.41,0,.33L89,30l.36.66.43.46.37.28.44.16Z"/><path d="M96.05,32.56l-.09-2,0-.22-.07-.74v-2.1l-.06-1,.06-1.6-.08-.16V24.6l0-.15,0-.64,0-.09-.08-.44,0-.89,0-.09V22l0-.22,0-.36.1-.08v-.79l0-.59.08.06h.22l.13.08v-.19l.24-.2h0l.11.07h2.45l.26.11.5,0,.22.08.35.16.86.65.24.24,0,.11.11.09.24.68.07.59,0,.11,0,.26,0,.38L102,24l-.24.24v.22l-.13.3-.18.22,0,.13-.11.11-.09.22-.28.31-.09,0-.61.54-.44.29h-.08l-.7.22-.11.11V27l0,0,0,.22.22.24.43.65,1.21,1.58.41.72.22.3.16.35.11.12,0,.12.17.14v.26l-.06.09.06.17-.06.07v.09l.06.11-.11.06-.39,0-.13,0H101l-.11-.06-.29-.28-.37-.44-.2-.18,0-.11-.22-.21-.57-.81L99,30.15l-.17-.1-.14-.33L98.12,29V29L98,28.76l-.17-.24-.14-.16-.06-.15-.11-.05-.07-.1-.08.06.06.42v1.05l-.15.11,0,.19,0,.05v.61l0,.19.08.55-.19.15v.16l0,.39L97,32l-.25.44-.11,0-.08.07-.16,0-.06-.47-.11.59Zm1.51-6.45.19,0,.59-.06.26-.13.14-.13.22,0,.11-.16.17-.08.07-.11.32,0,.16-.08.19-.18,0-.13.11-.15.16-.49V23.15l0-.76-.1-.18-.16-.54-.24-.33-.57-.4-.44-.19H97.62l-.09,0v.15l.13.27,0,.52,0,.16.08.3,0,.51,0,.67-.08.16.08.17V24l-.1.22-.18,1.67.06.08V26l-.06.06Z"/><path d="M57.29,46.34l-.06-1.6.48-4.14.08-.24.05-.09-.05-.15.09-.43,0-.49.09-.26,0-.06,0-.23,0-.24.11-.59.07-.67L58.3,37v-.09l.11-.11v-.1h.32l.18-.08.24,0,0-.07.22.2.09.24.22.26.07.05.06.35.16.17,0,.46.17.46,0,.39,0,.27.19.39.12.42.13.15.06.44,0,.06,0,.27.09.15,0,.28V42l.1.36.11,0,.07.72.18.81,0,.09,0,.06.07.31,0,.2.41,1.13.09.4h0l.11-.15.28-.88v-.17l.31-.75v-.11l.22-.65L63,43l.16-.36.11-.39.1-.18,0,0,.06-.33L63.7,41l.09-.14.59-1.75.07-.15L65,37.12l.18-.11,0-.11h.07l.08-.08v-.11l.22-.05.07-.13.3-.15.29,0,.28.13.11.14.24,1L67,38l.09.1,0,.14,0,.39.15.22V39l.09.15.07.37,0,.62.07.17,0,.42.09.35,0,0,0,.31,0,.06-.07.35.09.09,0,.22.07.07,0,.63.08.22-.12.57.06.26,0,.24.09.11-.07.15,0,.57.13.15,0,.25.15.39,0,.48v.5l0,.13,0,.42,0,.09,0,.57,0,.22-.06.15.15.2-.15.15-.22,0v.15L68,49l-.33.07h-.22l-.17.11-.36,0-.23.09-.22-.06-.07-.16L66.18,49l0-.48,0-.2-.05-.08L66,47l0-.22,0,0v-.14l-.07-.28,0-.65-.11-.81V44.5l0-.11-.06-1.23,0-.09-.06-.35.06,0,0-.41-.05-.16v-.26l0-.11,0-.55L65.54,41l-.09-.59,0-.39,0-.35-.09-.11-.11.24,0,.13-.08.2-.09.41L64.8,41v.37l.07.07-.17.52v-.26h-.11l-.07.37-.35.9-.19.35,0,.17-.08.18-.11.61v.46l-.07.31-.13.11-.11.59-.11.35-.17.7,0,.52-.13.13-.09.24-.13.18,0,.17-.33.27-.35.1-.11.11-.19.05-.6-.39-1.37-4.27-.33-1.53-.07-.48-.3-1-.05,0,0-.09h-.07l-.11.81,0,.13-.15,1.7,0,.35-.06.44,0,.22,0,.16v1l0,.27-.09.39-.16,1.47V48l0,.37-.09.3-.43.4-.39.15-.33,0,.21-2.49Z"/><path d="M70.46,49.07h-.2L69.93,49l-.19-.17,0-.07v-.17l-.13-.2v-.61l-.06-.24-.16-3.9.15-.65-.23-2.37V39.9l0-1.09,0-.28-.06-.14,0-.15V37.5l.11-.27v-.41l.11-.11v-.09h.16l.39-.11.06-.15h.14l.15.15h.15l.09.07.39-.13,2,.08.62.14,0,.08-.18.13,0,0,.07,0-.15.24v.2l-.24.19-.46.11-.18,0-1.42,0,0,.37.07.06v.09l0,.07,0,.3v.18l0,.3.06,1.18,0,.35v1.3h.11l.44-.18h1.59l.24.22-.1.07v.22l-.35.45-.13.07-.72.09-1,0-.09.07.09.7-.11.7v.93l0,.2v.57l0,.28-.08.13v.2l-.13.68v.35l.34.15.62.09,1.37-.17.71.17-.14.31-.17.08-.13.27,0,.2-.18.1L73,49l-.35.13-1.58,0-.46-.07Zm-.63-.31h.08v0l-.08,0Z"/><path d="M81,49.11l-.45-.85L80.35,48l-.11-.33-.31-.57-.06-.26-.07-.07-.22-.54L79.52,46l-.15-.32-.07-.2,0,0,0-.14-.2-.48-.1-.13,0-.18-.22-.39-.17-.46-.07-.28-.08-.13,0-.07-.15-.22-.16-.54L78,42.31v-.15l0,0-.17-.48-.11-.2L77.51,41l-.16-.37,0-.16-.09,0,0,.11v.29l-.09.37V46.1l-.07.32,0,.29.07.11,0,.26.07.46-.09.35-.11.17,0,.18v.28l.07.26-.11.33-.15.07h-.16l-.13-.11-.08.09h-.57l-.27-.24V47.1l-.06-.64.2-5.18.08-.35V40l-.09-.28.18-2.19.07-.24V37L76,37l0-.37,0-.27v-.06l.16,0,.22.09.06.2.11.13.09,0,.06.07.16,0,.11.11.09.4.06.06.2,0,.15.2v.07l.26.26v0l0,.07h.08l0,.11.1,0,.16.52.19.29v.13l.11.29.12.1,0,.23.11.21.13.14.08.21v.16l.11.11.09.34.2.27.17.37v.13l.16.15.08.38.18.56L80,43l.33.9.09.08,0,.46.35.77.07.33.08-.09v-3.9l.07-.45v-.93l.16-2.55.13-.07.21-.46.46-.31h.22l.11.06.22-.2.13.11v.13l.11.07h.05l-.24,4.35,0,.18,0,1.05.06.13v.9l-.06.24.11,4.31.09.91-.25.25-.15.24-.3.08-.18-.06-.11,0h-.48l-.16-.09Z"/><path d="M86.65,49.13h-.11L86,49l-.4-.33-.43-.41L85,47.87l-.29-.72-.26-1.36-.07-.16V37.8l0-.26v-.35l.06,0,0-.11.15-.14.16,0H85l0-.13.34,0,.09,0,0,.17.09.11-.06,1.08.32,4.33,0,.11,0,.59.11.79v.48l.06.19v1.05l.09.24.13.62.18.48.17.24v.06l.33.46.44.22.9,0,.17-.1.18-.22.1-.31.09-.11L89,47l.09-.13.19-.76.28-4v-3l-.08-1h.08v.29h.07l.11-.77-.07,0-.13.11v-.52l.05-.11,0-.39h.09l.22-.11.08.08.14-.06.06.06h.15l.22.07.07.11h.11l.06.22,0,.59.11.44.15,1.49,0,.76-.11.81v.33l.09.09L91,42.83l-.13.47,0,.5,0,.32,0,.07-.15,1.55-.09.14-.07.5-.15.41-.13.24,0,.18-.15.22-.07.26-.11.15-.15.31-.28.37-.44.35-.31.15-1,.14h-1ZM89.49,37.8l0,.27,0,0Z"/><rect class="cls-2" x="32.12" y="58.73" width="86.34" height="86.34" rx="7.21"/></svg>