<svg id="Layer_1" data-name="Layer 1" xmlns="http://www.w3.org/2000/svg" viewBox="0 0 160 160"><defs><style>.cls-1{fill:#07aaa0;}.cls-2{fill:#fef10d;}.cls-3{fill:#fff;}</style></defs><path class="cls-1" d="M127,51.36c0,.27,0,.54,0,.81v93.12a10.34,10.34,0,0,1-10.35,10.34H43.34A10.34,10.34,0,0,1,33,145.29v-94h0a47,47,0,0,1,94,0Z"/><path class="cls-2" d="M122.06,72.55v71.63a6.31,6.31,0,0,1-6.31,6.3H44.12a6.3,6.3,0,0,1-6.3-6.3V72.55a6.3,6.3,0,0,1,6.3-6.3h56.41l4.63-4.63a1.17,1.17,0,0,1,1.63,0l4.63,4.63h4.33A6.31,6.31,0,0,1,122.06,72.55Z"/><path class="cls-3" d="M49.62,56.06A4.52,4.52,0,0,1,48,53.58l1.8-.73a3.54,3.54,0,0,0,1,1.64,2.37,2.37,0,0,0,1.66.63,2.5,2.5,0,0,0,1.53-.46,1.51,1.51,0,0,0,.63-1.28A1.59,1.59,0,0,0,54,52.14a6.31,6.31,0,0,0-1.92-1l-.77-.27a5.53,5.53,0,0,1-2.05-1.23,2.75,2.75,0,0,1-.83-2.1,3,3,0,0,1,.49-1.67,3.52,3.52,0,0,1,1.37-1.21,4.23,4.23,0,0,1,2-.45,3.94,3.94,0,0,1,2.55.77,3.84,3.84,0,0,1,1.27,1.74l-1.71.73a2.31,2.31,0,0,0-.71-1A2.08,2.08,0,0,0,52.27,46a2.29,2.29,0,0,0-1.4.43,1.31,1.31,0,0,0-.06,2.12,5.57,5.57,0,0,0,1.59.78l.77.26A6.17,6.17,0,0,1,55.59,51a3.22,3.22,0,0,1,.85,2.34,3.17,3.17,0,0,1-.61,2,3.6,3.6,0,0,1-1.55,1.2,5.05,5.05,0,0,1-1.94.39A4.47,4.47,0,0,1,49.62,56.06Z"/><path class="cls-3" d="M60,56.35a4.25,4.25,0,0,1-1.59-1.64,5.21,5.21,0,0,1,0-4.74A4.18,4.18,0,0,1,60,48.33a4.63,4.63,0,0,1,2.32-.59,4.4,4.4,0,0,1,2.43.64,3.53,3.53,0,0,1,1.42,1.75l-1.71.72a2.17,2.17,0,0,0-2.19-1.38,2.38,2.38,0,0,0-1.28.36,2.49,2.49,0,0,0-.94,1,3.13,3.13,0,0,0-.34,1.5,3.2,3.2,0,0,0,.34,1.51,2.58,2.58,0,0,0,.94,1,2.38,2.38,0,0,0,1.28.36,2.54,2.54,0,0,0,1.4-.37,2.28,2.28,0,0,0,.89-1l1.68.73a4,4,0,0,1-1.49,1.75,4.4,4.4,0,0,1-2.43.64A4.63,4.63,0,0,1,60,56.35Z"/><path class="cls-3" d="M68.81,56.58a2.74,2.74,0,0,1-1.14-1A2.88,2.88,0,0,1,67.26,54a2.55,2.55,0,0,1,1-2.12,4.09,4.09,0,0,1,2.56-.78,6.28,6.28,0,0,1,1.37.14,4.76,4.76,0,0,1,1,.32v-.45a1.61,1.61,0,0,0-.59-1.29,2.28,2.28,0,0,0-1.53-.51,2.83,2.83,0,0,0-1.25.29,2.53,2.53,0,0,0-.94.8l-1.31-1A3.84,3.84,0,0,1,69,48.18a4.76,4.76,0,0,1,2-.44,4.21,4.21,0,0,1,2.91.92,3.35,3.35,0,0,1,1,2.61v5.4H73.17v-1h-.08a2.87,2.87,0,0,1-1.06.94,3.16,3.16,0,0,1-1.56.37A3.68,3.68,0,0,1,68.81,56.58ZM72,55.07a2.34,2.34,0,0,0,.85-.86,2.37,2.37,0,0,0,.3-1.17,3.6,3.6,0,0,0-.91-.36,4.2,4.2,0,0,0-1.08-.14,2.34,2.34,0,0,0-1.54.42A1.35,1.35,0,0,0,69.15,54a1.21,1.21,0,0,0,.45,1,1.79,1.79,0,0,0,1.19.39A2.34,2.34,0,0,0,72,55.07Z"/><path class="cls-3" d="M77,48h1.78v1.14h.09a2.8,2.8,0,0,1,1.11-1,3.22,3.22,0,0,1,1.57-.4,3.08,3.08,0,0,1,2.41.92,3.72,3.72,0,0,1,.82,2.53v5.48H83V51.44a2,2,0,0,0-.5-1.49,1.92,1.92,0,0,0-1.38-.48,1.89,1.89,0,0,0-1.12.35,2.31,2.31,0,0,0-.77.92A2.91,2.91,0,0,0,78.91,52v4.69H77Z"/><path class="cls-3" d="M91.2,44.51h2.58l3.5,9.22h.1l3.5-9.22h2.58V56.67h-1.88V49.86l.1-2.19h-.1l-3.48,9H96.57l-3.48-9H93l.1,2.19v6.81H91.2Z"/><path class="cls-3" d="M107.61,56.35A4.2,4.2,0,0,1,106,54.71a5.11,5.11,0,0,1,0-4.65,4.33,4.33,0,0,1,1.54-1.69,4,4,0,0,1,2.24-.63,4.25,4.25,0,0,1,2.26.58,3.75,3.75,0,0,1,1.46,1.57,4.94,4.94,0,0,1,.5,2.26,3.61,3.61,0,0,1,0,.6h-6.64a2.68,2.68,0,0,0,.86,1.86,2.64,2.64,0,0,0,1.76.65,2.58,2.58,0,0,0,1.38-.36,2.85,2.85,0,0,0,1-1l1.57.75a4.59,4.59,0,0,1-1.59,1.68,4.36,4.36,0,0,1-2.36.61A4.51,4.51,0,0,1,107.61,56.35Zm4.51-5a2.15,2.15,0,0,0-.29-.91,2,2,0,0,0-.77-.75,2.38,2.38,0,0,0-1.26-.31,2.23,2.23,0,0,0-1.52.54,2.7,2.7,0,0,0-.86,1.43Z"/><g id="mobile"><path class="cls-3" d="M75.13,17.88h9.14a1.92,1.92,0,0,1,1.93,1.93V37.2a1.92,1.92,0,0,1-1.79,1.92H75.13A1.93,1.93,0,0,1,73.2,37.2V19.81A1.92,1.92,0,0,1,75.13,17.88Zm-.9,18.32h8.43a14.83,14.83,0,0,1-.46-1.62l-3.12-3.75a1,1,0,0,1,.18-1.23.9.9,0,0,1,1.17-.26l3.48,2.92,1.26-1.81V20.57H74.23Z"/><rect class="cls-3" x="77.53" y="19.15" width="3.95" height="0.46" rx="0.05" transform="translate(159 38.76) rotate(-180)"/><path class="cls-3" d="M79.08,30.83l3.12,3.75a14.83,14.83,0,0,0,.46,1.62h2.51V30.45l-1.26,1.81-3.48-2.92a.9.9,0,0,0-1.17.26A1,1,0,0,0,79.08,30.83Z"/><rect class="cls-3" x="82" y="19.15" width="0.46" height="0.46" rx="0.05" transform="translate(164.46 38.76) rotate(-180)"/><path class="cls-3" d="M79.08,30.83l3.12,3.75a14.83,14.83,0,0,0,.46,1.62,6.81,6.81,0,0,0,1.75,2.92,2.23,2.23,0,0,0,.24.19c1.74,1.18,3.84-.21,4.13-2.89.22-1.66,0-8,0-8a4.11,4.11,0,0,0-.25-1.61,15.91,15.91,0,0,0-2.28-2.45V29l-1,1.47-1.26,1.81-3.48-2.92a.9.9,0,0,0-1.17.26A1,1,0,0,0,79.08,30.83Z"/><circle class="cls-3" cx="79.55" cy="37.64" r="0.99"/></g></svg>