<svg id="Layer_1" data-name="Layer 1" xmlns="http://www.w3.org/2000/svg" viewBox="0 0 160 160"><defs><style>.cls-1{opacity:0.2;}.cls-2{fill:#fff;}.cls-3{fill:#ef3333;}</style></defs><path class="cls-1" d="M144,64.89a9.39,9.39,0,0,1-9.1,7.08H123v70.25a14.25,14.25,0,0,1-14.25,14.25H53.18a14.25,14.25,0,0,1-14.25-14.25V72H27.17a9.4,9.4,0,0,1-4.49-17.66L74.33,26.22V26c0-.11,0-.23,0-.34A6.64,6.64,0,0,1,67.87,19a13.4,13.4,0,1,1,23.29,9.06l48.23,26.24A9.35,9.35,0,0,1,144,64.89Z"/><path class="cls-2" d="M141.93,62.8a9.39,9.39,0,0,1-9.1,7.08h-12v70.25a14.25,14.25,0,0,1-14.25,14.25H51.09a14.25,14.25,0,0,1-14.25-14.25V69.88H25.08a9.4,9.4,0,0,1-4.49-17.66L72.24,24.13v-.24c0-.11,0-.23,0-.34a6.64,6.64,0,0,1-6.47-6.63A13.4,13.4,0,1,1,89.07,26L137.3,52.22A9.35,9.35,0,0,1,141.93,62.8Z"/><path d="M136.89,60.89a3.77,3.77,0,0,1-3.7,2.87H121.61a1,1,0,0,1-.38-.08,1,1,0,0,1-.67-1,1,1,0,0,1,.67-1,1.17,1.17,0,0,1,.38-.07h11.58a1.72,1.72,0,0,0,.82-3.24l-12.8-7L95.93,37.72,80.28,29.21v4.84a1,1,0,1,1-2.09,0V29.29L62.68,37.72,37.22,51.58,24.61,58.43a1.73,1.73,0,0,0,.83,3.24H37a.55.55,0,0,1,.18,0,1,1,0,0,1,0,2.05l-.18,0H25.44a3.82,3.82,0,0,1-1.82-7.17L37.5,49,58.31,37.72,78.19,26.91V23.35a1,1,0,0,1,.63-1h0a1,1,0,0,1,.71-.29,5.72,5.72,0,1,0-5.72-5.71,1,1,0,0,1-2.09,0,7.81,7.81,0,1,1,8.55,7.77v2.66l20,10.9,20.57,11.2L135,56.59A3.77,3.77,0,0,1,136.89,60.89Z"/><path d="M52.54,54a2.92,2.92,0,0,1-1.08-1.59l1.16-.47A2.22,2.22,0,0,0,53.24,53a1.54,1.54,0,0,0,1.07.41,1.61,1.61,0,0,0,1-.3,1,1,0,0,0,.41-.83,1,1,0,0,0-.36-.79,4,4,0,0,0-1.24-.63l-.49-.17a3.47,3.47,0,0,1-1.32-.79,1.78,1.78,0,0,1-.54-1.36,1.89,1.89,0,0,1,.32-1.07,2.16,2.16,0,0,1,.88-.78,2.76,2.76,0,0,1,1.27-.29,2.53,2.53,0,0,1,1.64.5A2.42,2.42,0,0,1,56.68,48l-1.1.47a1.47,1.47,0,0,0-.46-.66,1.33,1.33,0,0,0-.88-.28,1.48,1.48,0,0,0-.9.27.86.86,0,0,0-.37.7.83.83,0,0,0,.33.67,3.64,3.64,0,0,0,1,.5l.49.17a3.9,3.9,0,0,1,1.56.91,2.06,2.06,0,0,1,.55,1.5,2.1,2.1,0,0,1-.39,1.29,2.45,2.45,0,0,1-1,.77,3.21,3.21,0,0,1-1.25.25A2.87,2.87,0,0,1,52.54,54Z"/><path d="M60,54a3.71,3.71,0,0,1-1.47-1.47,4.28,4.28,0,0,1,0-4.16A3.78,3.78,0,0,1,60,46.9,4.11,4.11,0,0,1,62,46.36a3.83,3.83,0,0,1,1.61.33,3.73,3.73,0,0,1,1.29,1l-.88.84a2.66,2.66,0,0,0-.89-.71A2.57,2.57,0,0,0,62,47.53a2.9,2.9,0,0,0-1.44.36,2.66,2.66,0,0,0-1,1,3.31,3.31,0,0,0,0,3.08,2.66,2.66,0,0,0,1,1,2.9,2.9,0,0,0,1.44.36,2.81,2.81,0,0,0,2.23-1.09l.89.85a4.12,4.12,0,0,1-1.37,1,4.07,4.07,0,0,1-1.75.37A4.11,4.11,0,0,1,60,54Z"/><path d="M68.72,46.54h1.4l2.94,7.83H71.71l-.7-2H67.85l-.71,2H65.78Zm1.87,4.69-.83-2.33L69.45,48h-.06l-.31.91-.83,2.33Z"/><path d="M74.12,46.54h1.46l3.5,5.69h.06l-.06-1.51V46.54h1.21v7.83H79l-3.67-6h-.07l.07,1.51v4.49H74.12Z"/><path d="M84.64,46.54H89.4v1.17H85.87V50h3.18v1.16H85.87v3.25H84.64Z"/><path d="M92.19,54a3.91,3.91,0,0,1-1.46-1.48,4.09,4.09,0,0,1-.53-2.07,4,4,0,0,1,.53-2.06,3.91,3.91,0,0,1,1.46-1.48,4.15,4.15,0,0,1,4.13,0,4.06,4.06,0,0,1,1.46,1.48,4.29,4.29,0,0,1,0,4.13A3.91,3.91,0,0,1,96.32,54a4.22,4.22,0,0,1-4.13,0Zm3.49-1a2.63,2.63,0,0,0,1-1,3.06,3.06,0,0,0,.38-1.52,3,3,0,0,0-.38-1.51,2.66,2.66,0,0,0-1-1,2.93,2.93,0,0,0-2.85,0,2.75,2.75,0,0,0-1,1,3,3,0,0,0-.38,1.51A3.06,3.06,0,0,0,91.81,52a2.73,2.73,0,0,0,1,1,2.93,2.93,0,0,0,2.85,0Z"/><path d="M99.71,46.54h2.76a2.77,2.77,0,0,1,1.28.3,2.35,2.35,0,0,1,.91.86,2.32,2.32,0,0,1,.34,1.23,2.17,2.17,0,0,1-.51,1.4,2.47,2.47,0,0,1-1.28.82v.06l2.14,3.09v.07h-1.42l-2.06-3.07h-.92v3.07H99.71Zm2.73,3.63a1.36,1.36,0,0,0,.93-.35,1.2,1.2,0,0,0,.38-.9,1.16,1.16,0,0,0-.16-.59,1.21,1.21,0,0,0-.43-.47,1.25,1.25,0,0,0-.68-.18h-1.54v2.49Z"/><path class="cls-3" d="M49.12,70.68a6.21,6.21,0,0,1-2.34-2.35,6.75,6.75,0,0,1,0-6.56,6.31,6.31,0,0,1,2.34-2.36,6.78,6.78,0,0,1,6.61,0,6.31,6.31,0,0,1,2.34,2.36,6.75,6.75,0,0,1,0,6.56,6.21,6.21,0,0,1-2.34,2.35,6.78,6.78,0,0,1-6.61,0Zm5.41-1.9A4,4,0,0,0,56,67.27a4.78,4.78,0,0,0,0-4.45,4,4,0,0,0-1.5-1.51,4.31,4.31,0,0,0-2.1-.53,4.25,4.25,0,0,0-2.1.53,3.93,3.93,0,0,0-1.49,1.51,4.78,4.78,0,0,0,0,4.45,3.86,3.86,0,0,0,1.49,1.51,4.16,4.16,0,0,0,2.1.54A4.21,4.21,0,0,0,54.53,68.78Z"/><path class="cls-3" d="M63.92,58.83h7.89v2.22H66.27v3h5V66.3h-5v5H63.92Z"/><path class="cls-3" d="M76.65,58.83h7.89v2.22H79v3h5V66.3H79v5H76.65Z"/><path class="cls-3" d="M89.39,58.83h7.88v2.22H91.73v2.89h5v2.22h-5V69h5.54v2.23H89.39Z"/><path class="cls-3" d="M102.46,58.83H107a4.59,4.59,0,0,1,2.16.5,3.74,3.74,0,0,1,1.47,1.4,3.93,3.93,0,0,1,.52,2,3.25,3.25,0,0,1-.76,2.12,4.26,4.26,0,0,1-1.9,1.35l0,.12,3.34,4.78v.14h-2.69l-3.22-4.68h-1.09v4.68h-2.35ZM107,64.44a1.76,1.76,0,0,0,1.3-.49,1.61,1.61,0,0,0,.51-1.23A1.68,1.68,0,0,0,107,61h-2.2v3.44Z"/></svg>