<svg id="Layer_1" data-name="Layer 1" xmlns="http://www.w3.org/2000/svg" viewBox="0 0 160 160"><defs><style>.cls-1{fill:#1a2e35;}.cls-2{fill:#e22739;}.cls-3{fill:#ffdce3;}.cls-4{fill:#fff;}</style></defs><path class="cls-1" d="M118.08,125.44l8.9-12.81a49.4,49.4,0,0,0-6.9-5,86.47,86.47,0,0,0-15.57-7l4.9-2.62s10.83,5.7,12.23,6,9.48-2.48,12.5-9.23-3.78-13.83-13.77-19.38c-6.73-3.73-16.62-6-25.81-7.63a34,34,0,0,0,6.25-14.22,34.38,34.38,0,0,0,.32-10.78,16.1,16.1,0,0,0,11.06-12.54c1.64-8.7-3.74-17-12-18.59A15.27,15.27,0,0,0,84.7,18.31a29.82,29.82,0,0,0-8.63-3,30.55,30.55,0,0,0-23.37,5.2,14.8,14.8,0,0,0-9.23-5.92c-8.29-1.56-16.35,4.22-18,12.92s3.74,17,12,18.6c.35.06.7.1,1.05.14a33.26,33.26,0,0,0,8.11,24A91.3,91.3,0,0,0,23.1,76.48C10.44,82,9.49,87,11.91,92.67s8.89,10.73,13.6,10.4,14-7.32,14-7.32S22.82,110.28,16.32,117s-10,12.76-9.22,18.08S18,149.5,22.4,150.64,33.76,149.26,37,146.2s17.09-9,22.53-10.08,21.65-2.31,30.68-.91,12-.34,12-.34,12,1.73,16.88,5.39Z"/><path class="cls-1" d="M24.81,151.24a9.94,9.94,0,0,1-2.49-.29c-2.23-.58-5.83-3-9.18-6.3-1.75-1.7-5.87-6-6.35-9.53C6.07,130,9.12,124,16.1,116.77c4.47-4.62,13.87-13,19.24-17.77-3.09,2-7.13,4.19-9.8,4.38-4.78.33-11.4-4.71-13.92-10.59C9.44,87.7,9.3,82.17,23,76.19A90.25,90.25,0,0,1,46.05,70a33.82,33.82,0,0,1-7.82-23.52,7,7,0,0,1-.78-.11,15.12,15.12,0,0,1-9.94-6.75A16.91,16.91,0,0,1,31.8,16.9a15,15,0,0,1,21,3.13A30.55,30.55,0,0,1,84.6,17.9a15.6,15.6,0,0,1,15.62-6.64c8.44,1.6,14,10.1,12.28,19a16.38,16.38,0,0,1-11,12.71,35,35,0,0,1-.36,10.61,34,34,0,0,1-6,13.94c7.63,1.37,18.32,3.64,25.41,7.57,11.58,6.43,16.65,13.64,13.9,19.78-3,6.82-11.18,9.74-12.83,9.42-1.36-.26-10.82-5.21-12.18-5.93l-4.11,2.21a87.29,87.29,0,0,1,14.94,6.81,49.13,49.13,0,0,1,7,5,.32.32,0,0,1,0,.42l-8.84,12.72.95,14.71a.32.32,0,0,1-.17.3.29.29,0,0,1-.33,0c-4.49-3.39-15.47-5.14-16.63-5.32-.61.3-3.86,1.61-12.1.33-9-1.41-25.16-.19-30.57.91s-19.33,7.08-22.38,10A20,20,0,0,1,24.81,151.24Zm14.7-55.81a.32.32,0,0,1,.25.12.31.31,0,0,1,0,.43c-.17.15-16.76,14.61-23.17,21.23C9.71,124.26,6.72,130.09,7.41,135c.72,5.21,10.74,14.19,15.06,15.31S33.62,149,36.74,146s17-9,22.69-10.17c5.45-1.11,21.68-2.33,30.79-.91,8.76,1.36,11.76-.29,11.78-.31a.39.39,0,0,1,.21,0c.47.06,11.35,1.66,16.47,5.06l-.91-14.16a.3.3,0,0,1,.06-.2l8.73-12.58a48.32,48.32,0,0,0-6.64-4.8,87.08,87.08,0,0,0-15.51-7,.3.3,0,0,1-.21-.27.3.3,0,0,1,.16-.3l4.9-2.63a.3.3,0,0,1,.29,0c3,1.58,11,5.73,12.15,5.94s9.16-2.36,12.15-9c2.6-5.81-2.37-12.72-13.64-19-7.16-4-18.1-6.24-25.71-7.59a.32.32,0,0,1-.19-.5,33.6,33.6,0,0,0,6.19-14.08,34,34,0,0,0,.32-10.69.33.33,0,0,1,.22-.34,15.71,15.71,0,0,0,10.84-12.3c1.61-8.51-3.68-16.69-11.78-18.22A15,15,0,0,0,85,18.48a.32.32,0,0,1-.41.11,29.66,29.66,0,0,0-8.55-3,30.17,30.17,0,0,0-23.13,5.14.31.31,0,0,1-.43-.07,14.41,14.41,0,0,0-20.29-3.23A16.28,16.28,0,0,0,28,39.26a14.49,14.49,0,0,0,9.53,6.49c.29,0,.57.08.85.11l.17,0a.32.32,0,0,1,.28.34A33.15,33.15,0,0,0,46.9,70a.31.31,0,0,1,.06.32.3.3,0,0,1-.25.2,90.39,90.39,0,0,0-23.48,6.24C10.79,82.2,9.83,87,12.2,92.54s8.8,10.53,13.29,10.21,13.74-7.19,13.83-7.26A.35.35,0,0,1,39.51,95.43Z"/><path class="cls-2" d="M54.74,65.5s-15,1-28.69,6.57-14.66,10.8-12,16.67,6.25,10.33,11.36,10S44,92.19,44,92.19s-18,14.9-24.94,21.79S8.4,127.11,9.25,132.63,21.17,147.68,26,148.91s12.31-1.33,15.75-4.47,18.44-9.13,24.33-10.23,23.45-2.2,33.25-.66l9.81,1.54s10.6,7.36,15.56,11.14,14,5.81,20.12-1.25,8.08-19.6,5-23.33-9.2-11.16-18.32-16.41a98.23,98.23,0,0,0-16.95-7.42l5.29-2.67s11.8,6,13.32,6.3S143.39,99,146.6,92s-4.23-14.36-15.11-20.21-29.34-8.38-41.58-10.37S54.74,65.5,54.74,65.5Z"/><path d="M134.71,150h-.39a17.41,17.41,0,0,1-9.83-3.5C119.78,142.9,109.86,136,109,135.39l-9.74-1.53c-9.81-1.54-27.28-.43-33.14.66s-20.91,7.16-24.18,10.16c-3.48,3.18-11.07,5.79-16,4.53-2.41-.61-6.34-3.2-10-6.6-1.92-1.77-6.42-6.29-7-9.93-.82-5.34,2.43-11.53,9.92-18.92,5.62-5.54,18.48-16.39,23.19-20.33-4,1.78-12.67,5.43-16.6,5.66C20.85,99.36,17,96,13.79,88.87c-1.35-3-1.58-5.36-.71-7.56,1.38-3.46,5.46-6.49,12.85-9.53,13.28-5.45,28-6.54,28.76-6.59,1-.25,23.3-6,35.27-4.08l3.47.55c11.93,1.91,28.26,4.52,38.2,9.86,12.8,6.86,18.22,14.19,15.26,20.61-3.24,7-12,10-13.81,9.63-1.47-.28-11.85-5.54-13.26-6.26l-4.47,2.26a98.76,98.76,0,0,1,16.29,7.2c9.17,5.29,15.41,12.85,18.4,16.49,3.15,3.82,1.22,16.5-5,23.74A13.25,13.25,0,0,1,134.71,150ZM86.83,132.48a85.37,85.37,0,0,1,12.53.76l9.88,1.55.06,0c.1.07,10.66,7.41,15.57,11.15,8.28,6.29,16.31,2.73,19.69-1.2A28.6,28.6,0,0,0,150.42,132c.89-4.55.56-8.44-.86-10.16-3-3.61-9.16-11.11-18.24-16.34a98.82,98.82,0,0,0-16.88-7.39l-.74-.23,6.12-3.1.14.08c3.27,1.66,12,6,13.24,6.27s9.93-2.36,13.11-9.27c2.77-6-2.69-13.21-15-19.8-9.85-5.29-26.13-7.89-38-9.78l-3.47-.56c-12-2-34.81,4-35,4.08h-.06c-.15,0-15.11,1-28.59,6.54C19,75.29,15,78.29,13.67,81.54c-.8,2-.58,4.28.69,7.07,3.13,6.88,6.75,10.11,11.05,9.85,5-.29,18.35-6.49,18.48-6.56l2.21-1-1.88,1.56c-.17.15-18,15-24.91,21.77C12,121.45,8.77,127.46,9.56,132.58c.83,5.41,11.8,14.82,16.5,16s12.09-1.31,15.45-4.39S59.85,135.05,66,133.9A139.46,139.46,0,0,1,86.83,132.48Z"/><circle class="cls-3" cx="79.43" cy="111.73" r="43.33"/><circle class="cls-2" cx="105.9" cy="21.84" r="16.59" transform="translate(43.06 109.84) rotate(-66.12)"/><path d="M105.91,38.75A16.9,16.9,0,1,1,122.51,25h0A16.93,16.93,0,0,1,105.91,38.75Zm0-33.18a16.26,16.26,0,1,0,3,.28A16.51,16.51,0,0,0,105.89,5.57Z"/><circle class="cls-4" cx="105.9" cy="21.84" r="7.91"/><path class="cls-1" d="M105.9,30.06a8.07,8.07,0,0,1-1.53-.14A8.22,8.22,0,1,1,114,23.37h0A8.24,8.24,0,0,1,105.9,30.06Zm0-15.81a7.58,7.58,0,1,0,1.43.13A7.68,7.68,0,0,0,105.88,14.25Zm7.79,9.06Z"/><circle class="cls-2" cx="44.47" cy="24.39" r="16.59" transform="matrix(0.4, -0.91, 0.91, 0.4, 4.17, 55.18)"/><path d="M44.47,41.29a16.9,16.9,0,1,1,16.6-13.77h0A16.92,16.92,0,0,1,44.47,41.29Zm0-33.18a16.31,16.31,0,1,0,3,.29A16.53,16.53,0,0,0,44.46,8.11Z"/><circle class="cls-4" cx="44.47" cy="24.39" r="7.91"/><path class="cls-1" d="M44.48,32.61a8.11,8.11,0,0,1-1.54-.15,8.22,8.22,0,1,1,9.6-6.55h0a8.21,8.21,0,0,1-8.06,6.7Zm0-15.82a7.6,7.6,0,1,0,7.47,9h0a7.58,7.58,0,0,0-1.19-5.69,7.49,7.49,0,0,0-4.86-3.18A7.68,7.68,0,0,0,44.46,16.79Z"/><circle class="cls-2" cx="76.57" cy="42.65" r="34.1" transform="translate(10.28 99.99) rotate(-69.98)"/><path d="M76.58,77.07a35,35,0,0,1-6.4-.6,34.42,34.42,0,0,1-13-62.25A34.42,34.42,0,1,1,76.58,77.07ZM76.5,8.85A33.8,33.8,0,0,0,48.66,61.69a33.79,33.79,0,1,0,55.82-38.08A33.51,33.51,0,0,0,82.84,9.45,34,34,0,0,0,76.5,8.85Z"/><circle class="cls-4" cx="77.12" cy="54.32" r="16.74"/><path class="cls-1" d="M77.16,71.38a17.25,17.25,0,0,1-3.2-.3,17.06,17.06,0,1,1,12.77-2.67A16.87,16.87,0,0,1,77.16,71.38Zm0-33.49a16.43,16.43,0,1,0,9.26,30,16.27,16.27,0,0,0,6.88-10.52A16.44,16.44,0,0,0,80.17,38.18,16.74,16.74,0,0,0,77.12,37.89Z"/><path class="cls-1" d="M84.15,45.82c-.27,3.41-3.12,4.22-6.53,4s-6.1-1.52-5.83-4.93a6.2,6.2,0,1,1,12.36,1Z"/><path class="cls-1" d="M78.77,50.13c-.38,0-.77,0-1.18-.05-4.31-.34-6.36-2.11-6.11-5.27A6.51,6.51,0,0,1,82.93,41.1a6.45,6.45,0,0,1,1.53,4.74h0a4.09,4.09,0,0,1-2.26,3.61A7.55,7.55,0,0,1,78.77,50.13ZM78,39.44a5.9,5.9,0,0,0-5.87,5.42c-.22,2.78,1.59,4.28,5.54,4.59a8.11,8.11,0,0,0,4.28-.56,3.48,3.48,0,0,0,1.92-3.1h0a5.89,5.89,0,0,0-5.4-6.33Z"/><path class="cls-1" d="M77.61,61.74A13.85,13.85,0,0,1,75,61.49c-5.56-1.05-9.82-5.29-10.38-10.33a.31.31,0,0,1,.62-.07c.53,4.76,4.59,8.79,9.88,9.79A12.7,12.7,0,0,0,84,59.4a9.93,9.93,0,0,0,4.81-6.66,9.49,9.49,0,0,0,.15-2.06.31.31,0,0,1,.31-.32.29.29,0,0,1,.32.3,9.48,9.48,0,0,1-.17,2.19,10.49,10.49,0,0,1-5.09,7.09A13,13,0,0,1,77.61,61.74Z"/><path class="cls-1" d="M77.66,61.38h0a.33.33,0,0,1-.3-.33l.52-11.53a.32.32,0,0,1,.31-.3h0a.32.32,0,0,1,.3.33L78,61.08A.32.32,0,0,1,77.66,61.38Z"/><circle class="cls-1" cx="67.84" cy="32.34" r="2.33"/><path class="cls-1" d="M67.85,35a2.83,2.83,0,0,1-.5,0A2.64,2.64,0,1,1,70,30.85a2.57,2.57,0,0,1,.41,2h0A2.63,2.63,0,0,1,67.85,35Zm0-4.66a2,2,0,1,0,2,2.39h0a2,2,0,0,0-.32-1.51,2,2,0,0,0-1.29-.84A2.33,2.33,0,0,0,67.84,30.32Z"/><path class="cls-4" d="M68.11,31.58a.92.92,0,1,1-1.81-.34.92.92,0,0,1,1.81.34Z"/><circle class="cls-1" cx="86.72" cy="32.96" r="2.33"/><path class="cls-1" d="M86.72,35.59a2.77,2.77,0,0,1-.49,0,2.64,2.64,0,0,1-1-4.78,2.64,2.64,0,0,1,4.08,2.68h0A2.64,2.64,0,0,1,86.72,35.59Zm0-4.65a2,2,0,1,0,.38,0A2.58,2.58,0,0,0,86.72,30.94ZM89,33.39Z"/><path class="cls-4" d="M86.84,31.8a.93.93,0,1,1-.74-1.08A.94.94,0,0,1,86.84,31.8Z"/><ellipse class="cls-4" cx="140.25" cy="134.87" rx="16.51" ry="10.7" transform="translate(-49.63 177.36) rotate(-56.49)"/><path class="cls-1" d="M135.38,150.17a7.89,7.89,0,0,1-4.42-1.28c-2.47-1.63-3.81-4.64-3.78-8.47a23.66,23.66,0,0,1,13.08-19.75c3.51-1.53,6.8-1.47,9.28.17s3.81,4.65,3.77,8.47A21.93,21.93,0,0,1,149.43,141h0a22.05,22.05,0,0,1-9.19,8.11A12.18,12.18,0,0,1,135.38,150.17Zm9.73-30a11.64,11.64,0,0,0-4.6,1,23,23,0,0,0-12.7,19.18c0,3.6,1.21,6.42,3.5,7.94s5.37,1.56,8.68.12a21.48,21.48,0,0,0,8.92-7.89h0a21.44,21.44,0,0,0,3.78-11.3c0-3.6-1.21-6.42-3.5-7.94A7.35,7.35,0,0,0,145.11,120.2Z"/><ellipse class="cls-4" cx="23.24" cy="135.48" rx="10.7" ry="16.51" transform="translate(-94.11 63.9) rotate(-48.88)"/><path class="cls-1" d="M29.05,149.3c-4.08,0-8.91-1.91-13-5.52-7-6.1-9.43-14.79-5.44-19.36s12.93-3.33,19.92,2.77h0c7,6.1,9.42,14.78,5.43,19.35A8.82,8.82,0,0,1,29.05,149.3Zm-11.62-27A8.18,8.18,0,0,0,11,124.83c-3.77,4.31-1.36,12.6,5.37,18.47s15.26,7.14,19,2.83,1.35-12.6-5.38-18.47h0C26,124.14,21.35,122.27,17.43,122.27Z"/><path d="M112.43,97.64a1.93,1.93,0,0,1,.7-1l.64.69a1.32,1.32,0,0,0-.46.55.89.89,0,0,0,0,.66.88.88,0,0,0,.34.43.49.49,0,0,0,.48,0,.54.54,0,0,0,.34-.35,2.61,2.61,0,0,0,.07-.83V97.5a2,2,0,0,1,.17-.94,1.14,1.14,0,0,1,.67-.62,1.28,1.28,0,0,1,.72-.07,1.38,1.38,0,0,1,.67.34,1.77,1.77,0,0,1,.47.7,1.62,1.62,0,0,1,.09,1.09,1.65,1.65,0,0,1-.49.76l-.61-.64a.84.84,0,0,0,.26-.38.7.7,0,0,0,0-.51.78.78,0,0,0-.31-.41.43.43,0,0,0-.41,0,.51.51,0,0,0-.28.31,1.89,1.89,0,0,0,0,.68v.32a2.38,2.38,0,0,1-.18,1.12,1.3,1.3,0,0,1-.75.66,1.26,1.26,0,0,1-.85.06,1.42,1.42,0,0,1-.69-.4,2,2,0,0,1-.45-.69A1.87,1.87,0,0,1,112.43,97.64Z"/><path d="M114,102.26a2.51,2.51,0,0,1,1.86-1.75,2.44,2.44,0,0,1,1.34,0,2.46,2.46,0,0,1,1.12.68,2.55,2.55,0,0,1,.63,1.18,2.36,2.36,0,0,1-.34,2l-.77-.48a1.43,1.43,0,0,0,.26-1.27,1.68,1.68,0,0,0-.4-.77,1.48,1.48,0,0,0-.71-.43,1.75,1.75,0,0,0-.91,0,1.79,1.79,0,0,0-.81.42,1.5,1.5,0,0,0-.43.71,1.71,1.71,0,0,0,0,.87,1.62,1.62,0,0,0,.93,1.1l-.45.79a2.58,2.58,0,0,1-.85-.68,2.49,2.49,0,0,1-.48-1A2.57,2.57,0,0,1,114,102.26Z"/><path d="M119.7,107.36l.1,1.06-4.71,2.29-.09-1,1.13-.52-.18-1.87-1.2-.3-.1-1Zm-2.76,1.44,1.19-.55.57-.23v0l-.6-.13-1.27-.32Z"/><path d="M120,111.78l-.06,1.07-3.39,1.8v0h.95l2.33.12,0,.92-4.89-.26.05-1,3.58-1.89v0h-.94l-2.53-.13,0-.91Z"/><path d="M119.21,119.77l-.31,1.15-3.66.37v0l3,2.15-.31,1.16-4.74-1.27.24-.88,2.34.62.77.26v0l-2.8-2,.19-.69,3.44-.38,0,0-.8-.16-2.34-.62.24-.88Z"/><path d="M117.19,126.49,116,129.34l-.81-.35.87-2-1-.45-.78,1.8-.8-.35.78-1.8-1-.45-.86,2-.81-.35,1.24-2.85Z"/><path d="M93.8,144.6a1.89,1.89,0,0,1,1,.7l-.68.64a1.23,1.23,0,0,0-.55-.45.89.89,0,0,0-.66,0,.88.88,0,0,0-.43.34.49.49,0,0,0,0,.48.58.58,0,0,0,.36.34,2.61,2.61,0,0,0,.83.07H94a2,2,0,0,1,.94.17,1.14,1.14,0,0,1,.63.66,1.34,1.34,0,0,1-.26,1.39,1.78,1.78,0,0,1-.7.48,1.63,1.63,0,0,1-1.09.1,1.71,1.71,0,0,1-.76-.48l.63-.62a.85.85,0,0,0,.39.25.73.73,0,0,0,.5,0,.8.8,0,0,0,.41-.32.43.43,0,0,0,0-.41.48.48,0,0,0-.31-.28,1.91,1.91,0,0,0-.68,0l-.32,0a2.5,2.5,0,0,1-1.12-.17,1.32,1.32,0,0,1-.67-.75,1.33,1.33,0,0,1-.07-.85,1.51,1.51,0,0,1,.4-.69,1.92,1.92,0,0,1,.68-.45A1.88,1.88,0,0,1,93.8,144.6Z"/><path d="M89.2,146.22a2.48,2.48,0,0,1,1.12.67,2.5,2.5,0,0,1,.65,1.17,2.57,2.57,0,0,1,0,1.35,2.53,2.53,0,0,1-.67,1.12,2.68,2.68,0,0,1-1.18.65,2.38,2.38,0,0,1-2-.33l.48-.77a1.51,1.51,0,0,0,1.28.25,1.76,1.76,0,0,0,.76-.41,1.42,1.42,0,0,0,.42-.72,1.75,1.75,0,0,0,0-.91,1.77,1.77,0,0,0-.43-.8,1.48,1.48,0,0,0-.72-.43,1.79,1.79,0,0,0-.86,0A1.63,1.63,0,0,0,87,148l-.79-.44a2.59,2.59,0,0,1,.67-.86,2.64,2.64,0,0,1,1-.49A2.68,2.68,0,0,1,89.2,146.22Z"/><path d="M84.15,152l-1.05.11-2.34-4.69,1-.11.53,1.13,1.86-.2.29-1.2,1-.11Zm-1.46-2.75.56,1.18.23.57h.06l.12-.6.31-1.27Z"/><path d="M79.7,152.29l-1.07,0-1.79-3.39h-.06v.94l-.13,2.34-.92,0,.27-4.89,1,.05,1.89,3.58h0v-.95l.14-2.52.91.05Z"/><path d="M71.72,151.57l-1.15-.3-.4-3.66h0l-2.13,3-1.16-.3,1.23-4.75.89.23-.61,2.34-.25.78h0l2-2.82.69.18.41,3.44,0,0,.15-.8.6-2.34.89.22Z"/><path d="M65,149.6l-2.86-1.21.34-.81,2,.85.45-1-1.81-.77.34-.81,1.81.77.44-1.05-2-.85.34-.81,2.87,1.22Z"/><path d="M46.69,126.38a2,2,0,0,1-.68,1l-.65-.67a1.32,1.32,0,0,0,.44-.57.82.82,0,0,0,0-.65.88.88,0,0,0-.34-.43.48.48,0,0,0-.48,0,.58.58,0,0,0-.34.36,3,3,0,0,0-.06.83l0,.32a2.27,2.27,0,0,1-.16.94,1.2,1.2,0,0,1-.66.63,1.31,1.31,0,0,1-.73.09,1.56,1.56,0,0,1-.67-.33,1.89,1.89,0,0,1-.48-.7,1.54,1.54,0,0,1,.37-1.85l.62.63a.82.82,0,0,0-.25.38.76.76,0,0,0,0,.51.9.9,0,0,0,.32.41.46.46,0,0,0,.41,0,.48.48,0,0,0,.28-.32,1.89,1.89,0,0,0,0-.67l0-.33a2.39,2.39,0,0,1,.16-1.12,1.35,1.35,0,0,1,.75-.67,1.3,1.3,0,0,1,.84-.08,1.57,1.57,0,0,1,.7.39,2,2,0,0,1,.45.68A1.82,1.82,0,0,1,46.69,126.38Z"/><path d="M45,121.78a2.44,2.44,0,0,1-.66,1.13,2.56,2.56,0,0,1-4.3-1.17,2.41,2.41,0,0,1,.31-2l.78.47a1.47,1.47,0,0,0-.24,1.28,1.72,1.72,0,0,0,.41.75,1.55,1.55,0,0,0,.73.43,1.84,1.84,0,0,0,.9,0,1.72,1.72,0,0,0,.8-.43,1.56,1.56,0,0,0,.43-.73,1.79,1.79,0,0,0,0-.86,1.61,1.61,0,0,0-1-1.09l.43-.79a2.48,2.48,0,0,1,.87.66,2.73,2.73,0,0,1,.5,1A2.54,2.54,0,0,1,45,121.78Z"/><path d="M39.25,116.76l-.12-1.05,4.67-2.37.11,1-1.12.54.21,1.86,1.21.28.11,1ZM42,115.28l-1.18.56-.56.25v0l.61.11,1.27.3Z"/><path d="M38.92,112.44l0-1.07,3.33-1.9v-.06l-1,0-2.34,0,0-.92,4.9.11,0,1-3.51,2v.05l.94,0,2.53.06,0,.91Z"/><path d="M39.53,104.36l.29-1.16,3.66-.43v0l-3-2.1.29-1.16,4.76,1.18-.22.89L42.94,101l-.77-.25,0,0,2.84,2-.18.7-3.44.44v.05l.81.14,2.34.59-.22.88Z"/><path d="M41.44,97.61l1.19-2.88.81.34-.83,2,1,.43.75-1.81.81.33-.75,1.82,1.05.43.83-2,.81.34L46,99.48Z"/></svg>