<svg id="Layer_1" data-name="Layer 1" xmlns="http://www.w3.org/2000/svg" viewBox="0 0 160 160"><defs><style>.cls-1{fill:#5f245b;}.cls-2{fill:#fff900;}.cls-3{fill:#3c1b29;}.cls-4{fill:#fff;}.cls-5{fill:#8f668c;}.cls-6{fill:#4a4653;}</style></defs><path class="cls-1" d="M115.08,67.49c-1.58-.71-3.19-1.37-4.81-2a95.34,95.34,0,0,0-58.43-3.15,94.53,94.53,0,0,0-9.16,2.9q-2.66,1-5.27,2.14c-1,.45-3.16,1-3.81,1.86s.35,4.19.55,5.5q.42,2.7.82,5.39c.68,4.54,1.32,9.09,2,13.64,1.35,9.71,2.63,19.44,3.9,29.16,1.16,8.8,2.29,17.61,3.45,26.42a13.16,13.16,0,0,0,.42,3.16c.61,1.3,1.82.47,3.09.15,3.08-.79,6.19-1.48,9.32-2a77.37,77.37,0,0,1,19-1.22.29.29,0,0,1,.24.15,89.26,89.26,0,0,1,21.68,2q2.46.51,4.9,1.13c1,.25,1.94.57,2.92.77s1.24.58,1.75-.23a8,8,0,0,0,.35-2.57c.16-1.12.31-2.23.47-3.35q2.1-15.28,4.19-30.56c1.37-9.89,2.76-19.78,4.25-29.66q.91-6.12,1.91-12.23c.17-1,.33-2,.5-3,.2-1.15.54-1.69-.27-2.52S116.19,68,115.08,67.49Zm.75,4.54c-4.31,25.56-7.53,51.3-11.12,77a.53.53,0,0,1-.65.37,116.38,116.38,0,0,0-55.86-.23.5.5,0,0,1-.59-.28.06.06,0,0,1,0,0,.42.42,0,0,1,0-.1.32.32,0,0,1,0-.09C44.16,123,41.16,97.26,37.05,71.71a.56.56,0,0,1,.25-.6,93.77,93.77,0,0,1,78.29.32A.54.54,0,0,1,115.83,72Z"/><path class="cls-2" d="M113.26,71.53c-1.13-.56-2.33-1-3.5-1.47a93.85,93.85,0,0,0-11.68-3.73,91.36,91.36,0,0,0-50.3,1.82c-2,.66-4,1.38-6,2.18-.84.34-2.76.74-3.32,1.52-.38.53-.12,1.17,0,1.87q.7,4.57,1.37,9.15,1.5,10.35,2.88,20.71c2,14.8,3.87,29.6,5.81,44.4a117.41,117.41,0,0,1,55.25.23c2.34-16.77,4.6-33.56,7-50.32,1-6.8,2-13.59,3.07-20.37.21-1.36.84-3.13.73-4.49C114.5,72,114.28,72,113.26,71.53Z"/><path class="cls-3" d="M120.24,69.16a97.77,97.77,0,0,0-87.59-.38.38.38,0,0,0-.18.44c4.74,28.11,7.81,56.51,11.59,84.76a.42.42,0,0,0,.52.4A113,113,0,0,1,76.13,150a.27.27,0,0,0,.26-.16c10.62-.27,21.11,1.73,31.28,4.65a.29.29,0,0,0,.34-.2c4.06-28.24,7.4-56.65,12.4-84.75A.37.37,0,0,0,120.24,69.16Zm-.95,2.7c-.17,1-.33,2-.5,3q-1,6.11-1.91,12.23c-1.49,9.88-2.88,19.77-4.25,29.66q-2.11,15.28-4.19,30.56c-.16,1.12-.31,2.23-.47,3.35a8,8,0,0,1-.35,2.57c-.51.81-.62.46-1.75.23s-2-.52-2.92-.77q-2.45-.61-4.9-1.13a89.26,89.26,0,0,0-21.68-2,.29.29,0,0,0-.24-.15,77.37,77.37,0,0,0-19,1.22c-3.13.55-6.24,1.24-9.32,2-1.27.32-2.48,1.15-3.09-.15a13.16,13.16,0,0,1-.42-3.16c-1.16-8.81-2.29-17.62-3.45-26.42-1.27-9.72-2.55-19.45-3.9-29.16-.63-4.55-1.27-9.1-2-13.64q-.4-2.69-.82-5.39c-.2-1.31-1.26-4.51-.55-5.5s2.78-1.41,3.81-1.86q2.61-1.15,5.27-2.14a94.53,94.53,0,0,1,9.16-2.9,95.34,95.34,0,0,1,58.43,3.15c1.62.62,3.23,1.28,4.81,2,1.11.49,3.08,1,3.94,1.85S119.49,70.71,119.29,71.86Z"/><path class="cls-3" d="M115.59,71.43a93.77,93.77,0,0,0-78.29-.32.56.56,0,0,0-.25.6c4.11,25.55,7.11,51.27,10.48,76.92a.32.32,0,0,0,0,.09.42.42,0,0,0,0,.1.06.06,0,0,0,0,0,.5.5,0,0,0,.59.28,116.38,116.38,0,0,1,55.86.23.53.53,0,0,0,.65-.37c3.59-25.67,6.81-51.41,11.12-77A.54.54,0,0,0,115.59,71.43Zm-1.73,6.09c-1.09,6.78-2.09,13.57-3.07,20.37-2.43,16.76-4.69,33.55-7,50.32A117.41,117.41,0,0,0,48.51,148c-1.94-14.8-3.83-29.6-5.81-44.4q-1.39-10.35-2.88-20.71-.66-4.58-1.37-9.15c-.11-.7-.37-1.34,0-1.87.56-.78,2.48-1.18,3.32-1.52,2-.8,4-1.52,6-2.18a91.36,91.36,0,0,1,50.3-1.82,93.85,93.85,0,0,1,11.68,3.73c1.17.47,2.37.91,3.5,1.47s1.24.47,1.33,1.5C114.7,74.39,114.07,76.16,113.86,77.52Z"/><path class="cls-4" d="M48.19,144a.12.12,0,0,1-.08-.11h0a.07.07,0,0,1-.05-.11c.11-.16.31-.2.43-.36s.34-.63-.09-.72a.78.78,0,0,0-.75.32,2.69,2.69,0,0,0-.21.52.09.09,0,0,1-.07.09c-2.71.5-5.72,1.51-8.49,1.43a.1.1,0,0,1-.16,0,.66.66,0,0,0-.68-.29.42.42,0,0,0-.42.39.64.64,0,0,0,.22.58c.11.09.23.13.31.25s0,.08,0,.1h0a5.14,5.14,0,0,0-.22.59.47.47,0,0,0,.38.59.71.71,0,0,0,.64-.42c.08-.14.12-.3.27-.38s.07,0,.08,0h0a16,16,0,0,1,3.5-.87,26.47,26.47,0,0,1,4.42-.73v0a.08.08,0,0,1,.12-.07c.2.12.3.35.5.49a.9.9,0,0,0,.87.1C49.43,145,48.66,144.16,48.19,144Z"/><path class="cls-4" d="M36.17,143.85c-.32-1.87-.6-3.75-.86-5.63a2.5,2.5,0,0,0-2,2.6,16.59,16.59,0,0,0,0,2.73c.11,1.38.37,5.06,2.51,4.49,1.24-.32.87-1,.67-2.08C36.42,145.25,36.29,144.55,36.17,143.85Z"/><path class="cls-4" d="M36.85,138.84c.21.13.45.07.65.19v0s0,0,0,.06c-.09.22-.32.33-.43.55a.5.5,0,0,0,.29.74.65.65,0,0,0,.67-.35c.12-.22,0-.49.18-.69a.09.09,0,0,1,.14,0l0,.06a27.13,27.13,0,0,1,9.08-1.85.13.13,0,0,1,.11,0l0,0c.11.18.14.41.33.53a.61.61,0,0,0,.78-.21.8.8,0,0,0-.58-1.31h0a.11.11,0,0,1-.13-.17c.22-.34.59-.75.35-1.21-.13-.26-.72-.23-.91,0a.94.94,0,0,0-.16.68.12.12,0,0,1-.1.12s0,0-.05,0c-3.13.52-6.15,1.36-9.25,2a.1.1,0,0,1-.11-.14,6.39,6.39,0,0,0-.6-.26c-.3-.09-.51.2-.6.46A.65.65,0,0,0,36.85,138.84Z"/><path class="cls-4" d="M49.53,140.25a.13.13,0,0,1-.09-.11v0h0a.09.09,0,0,1,0-.12c.12-.15.31-.2.43-.35s.34-.63-.09-.72a.77.77,0,0,0-.75.32,4.2,4.2,0,0,0-.22.53.07.07,0,0,1-.11,0c-1.79.24-3.56.56-5.33.94a19,19,0,0,1-4.77.79.09.09,0,0,1-.16,0,.67.67,0,0,0-.68-.29.43.43,0,0,0-.42.4.62.62,0,0,0,.22.58c.1.09.22.12.31.24a.08.08,0,0,1,0,.11h0a4.12,4.12,0,0,0-.23.58.49.49,0,0,0,.39.6.73.73,0,0,0,.64-.42c.08-.14.12-.3.27-.38s.07,0,.08,0,0,0,0,0a27,27,0,0,1,5-1.18,28.87,28.87,0,0,1,4.53-.72h0a.07.07,0,0,1,.11-.07c.21.12.3.35.5.49a1,1,0,0,0,.88.1C50.76,141.29,50,140.44,49.53,140.25Z"/><path class="cls-4" d="M38,137.79l.39-.16a25.9,25.9,0,0,1,2.89-3.8,4.64,4.64,0,0,0-.2-1.37,49.38,49.38,0,0,1-3.88,4.78A1.36,1.36,0,0,1,38,137.79Z"/><path class="cls-3" d="M35.69,138.14s0,0,0,0h0a.1.1,0,0,0,0-.2c-.91.14-1.88.15-2.33,1-.71,1.43-.43,3.82-.23,5.32.13,1,.34,3.71,1.28,4.28.64.39,2.12-.22,2.81-.34a.19.19,0,0,0,.13-.22C36.65,144.71,36.12,141.43,35.69,138.14Zm.18,9.9c-2.14.57-2.4-3.11-2.51-4.49a16.59,16.59,0,0,1,0-2.73,2.5,2.5,0,0,1,2-2.6c.26,1.88.54,3.76.86,5.63.12.7.25,1.4.37,2.11C36.74,147,37.11,147.72,35.87,148Z"/><path class="cls-3" d="M37,139.27a1.47,1.47,0,0,0-.28.54.74.74,0,0,0,.46.84.92.92,0,0,0,1-.28,1.18,1.18,0,0,0,.29-.77,67.89,67.89,0,0,1,9-1.76.72.72,0,0,0,.35.59,1,1,0,0,0,1.18-.22,1.29,1.29,0,0,0,.21-1.25.93.93,0,0,0-.7-.59c.35-.45.47-1.28,0-1.53a1.25,1.25,0,0,0-1.13.11.93.93,0,0,0-.29.81,33.34,33.34,0,0,0-8.29,1.72c1-1.08,1.77-2.35,2.7-3.47.1-.12-.08-.31-.19-.18a25.9,25.9,0,0,0-2.89,3.8l-.39.16a1.36,1.36,0,0,0-.8-.55,50.18,50.18,0,0,0,3.91-4.82c.1-.13-.12-.3-.23-.18a52.32,52.32,0,0,0-3.94,5,1.12,1.12,0,0,0-.7.87,1,1,0,0,0,.36,1A1.13,1.13,0,0,0,37,139.27Zm-.43-1.19c.09-.26.3-.55.6-.46a6.39,6.39,0,0,1,.6.26.1.1,0,0,0,.11.14c3.1-.62,6.12-1.46,9.25-2,0,0,0,0,.05,0a.12.12,0,0,0,.1-.12.94.94,0,0,1,.16-.68c.19-.19.78-.22.91,0,.24.46-.13.87-.35,1.21a.11.11,0,0,0,.13.17h0a.8.8,0,0,1,.58,1.31.61.61,0,0,1-.78.21c-.19-.12-.22-.35-.33-.53l0,0a.13.13,0,0,0-.11,0,27.13,27.13,0,0,0-9.08,1.85l0-.06a.09.09,0,0,0-.14,0c-.14.2-.06.47-.18.69a.65.65,0,0,1-.67.35.5.5,0,0,1-.29-.74c.11-.22.34-.33.43-.55,0,0,0,0,0-.06v0c-.2-.12-.44-.06-.65-.19A.65.65,0,0,1,36.6,138.08Z"/><path class="cls-3" d="M49.72,140.07a1.33,1.33,0,0,0,.48-.53.61.61,0,0,0-.24-.87,1.08,1.08,0,0,0-1,.15,1,1,0,0,0-.41.75,23.36,23.36,0,0,0-4.77.76c-1.72.39-3.55.61-5.25,1.08,0-.3-.34-.47-.61-.51s-.72,0-.93.33a1,1,0,0,0,0,1,.92.92,0,0,0,.46.38c-.37.41-.36,1.25.21,1.44a.89.89,0,0,0,.88-.23,1.23,1.23,0,0,0,.35-.58c1.61-.26,3.22-.67,4.83-1a33.14,33.14,0,0,0,4.76-.95,1.23,1.23,0,0,0,.79.67,1.22,1.22,0,0,0,1.13-.25C51,141.13,50.34,140.26,49.72,140.07Zm.23,1.55a1,1,0,0,1-.88-.1c-.2-.14-.29-.37-.5-.49a.07.07,0,0,0-.11.07h0a28.87,28.87,0,0,0-4.53.72,27,27,0,0,0-5,1.18s0,0,0,0,0,0-.08,0-.19.24-.27.38a.73.73,0,0,1-.64.42.49.49,0,0,1-.39-.6,4.12,4.12,0,0,1,.23-.58h0a.08.08,0,0,0,0-.11c-.09-.12-.21-.15-.31-.24a.62.62,0,0,1-.22-.58.43.43,0,0,1,.42-.4.67.67,0,0,1,.68.29.09.09,0,0,0,.16,0,19,19,0,0,0,4.77-.79c1.77-.38,3.54-.7,5.33-.94a.07.07,0,0,0,.11,0,4.2,4.2,0,0,1,.22-.53.77.77,0,0,1,.75-.32c.43.09.29.49.09.72s-.31.2-.43.35a.09.09,0,0,0,0,.12h0v0a.13.13,0,0,0,.09.11C50,140.44,50.76,141.29,50,141.62Z"/><path class="cls-3" d="M48.38,143.78a1.23,1.23,0,0,0,.49-.53.62.62,0,0,0-.24-.87,1.07,1.07,0,0,0-1,.15,1,1,0,0,0-.41.83,55.36,55.36,0,0,0-8.36,1.53c0-.31-.34-.48-.61-.52s-.72,0-.92.34a1,1,0,0,0,0,.95.93.93,0,0,0,.46.39c-.36.4-.35,1.24.21,1.43a.89.89,0,0,0,.89-.23,1.19,1.19,0,0,0,.35-.63c1.11-.15,2.22-.45,3.33-.66a28.67,28.67,0,0,0,4.6-1,1.27,1.27,0,0,0,.77.65,1.24,1.24,0,0,0,1.14-.25C49.64,144.84,49,144,48.38,143.78Zm.23,1.55a.9.9,0,0,1-.87-.1c-.2-.14-.3-.37-.5-.49a.08.08,0,0,0-.12.07v0a26.47,26.47,0,0,0-4.42.73,16,16,0,0,0-3.5.87h0s-.05,0-.08,0-.19.24-.27.38a.71.71,0,0,1-.64.42.47.47,0,0,1-.38-.59,5.14,5.14,0,0,1,.22-.59h0s.06-.07,0-.1-.2-.16-.31-.25a.64.64,0,0,1-.22-.58.42.42,0,0,1,.42-.39.66.66,0,0,1,.68.29.1.1,0,0,0,.16,0c2.77.08,5.78-.93,8.49-1.43a.09.09,0,0,0,.07-.09,2.69,2.69,0,0,1,.21-.52.78.78,0,0,1,.75-.32c.43.09.29.49.09.72s-.32.2-.43.36a.07.07,0,0,0,.05.11h0a.12.12,0,0,0,.08.11C48.66,144.16,49.43,145,48.61,145.33Z"/><path class="cls-4" d="M109.37,93.63a.09.09,0,0,1,.14.08h0a34.43,34.43,0,0,1,5.24.83,31.59,31.59,0,0,1,5.84,1.38s0-.05,0-.07a.07.07,0,0,1,.09,0c.19.09.24.31.34.48a.79.79,0,0,0,.71.44.57.57,0,0,0,.44-.76c0-.22-.19-.39-.24-.6h0s-.06-.09,0-.12.26-.2.39-.32a.7.7,0,0,0,.22-.64.51.51,0,0,0-.55-.46.74.74,0,0,0-.73.34.11.11,0,0,1-.18,0,22.29,22.29,0,0,1-5.53-.92c-2.05-.44-4.09-.81-6.17-1.09,0,0-.11,0-.13,0a2.46,2.46,0,0,0-.31-.68.86.86,0,0,0-.81-.3c-.53.11-.32.63-.06.89s.33.19.45.35a.1.1,0,0,1,0,.14h-.07s0,0,0,0a.12.12,0,0,1-.09.12c-.54.23-1.41,1.22-.49,1.59a1,1,0,0,0,1-.12C109,94,109.13,93.77,109.37,93.63Z"/><path class="cls-4" d="M110.08,90.29c.21-.14.24-.4.37-.61a.05.05,0,0,1,0,0,.15.15,0,0,1,.13-.06,31.27,31.27,0,0,1,10.51,2.14l.05-.07a.1.1,0,0,1,.16,0c.16.22.07.54.21.79a.75.75,0,0,0,.78.41.57.57,0,0,0,.33-.85c-.12-.26-.39-.39-.5-.64a0,0,0,0,1,0-.07s0,0,0,0c.22-.15.51-.08.75-.23a.75.75,0,0,0,.29-.88c-.11-.3-.35-.63-.7-.53s-.46.2-.69.3a.12.12,0,0,1-.13.16c-3.59-.71-7.08-1.68-10.71-2.29l-.06,0a.16.16,0,0,1-.12-.15,1,1,0,0,0-.18-.78c-.22-.21-.9-.27-1.06,0-.27.53.15,1,.41,1.4a.14.14,0,0,1-.15.2h0a.93.93,0,0,0-.68,1.51A.71.71,0,0,0,110.08,90.29Z"/><path class="cls-4" d="M121.57,97.87a.77.77,0,0,0-.73.34.12.12,0,0,1-.19,0c-3.2.09-6.69-1.08-9.82-1.66-.06,0-.08-.06-.09-.11a2.29,2.29,0,0,0-.29-.66.86.86,0,0,0-.82-.3c-.53.11-.31.62-.06.89s.34.19.45.35a.1.1,0,0,1,0,.14h-.06v0a.14.14,0,0,1-.1.12c-.54.23-1.41,1.22-.49,1.59a1.06,1.06,0,0,0,1-.12c.23-.16.34-.42.58-.56a.09.09,0,0,1,.13.08v0a29.61,29.61,0,0,1,5.11.84,19.44,19.44,0,0,1,4.06,1h0a.08.08,0,0,1,.1,0c.18.1.23.31.34.48a.81.81,0,0,0,.71.45c.39,0,.51-.44.44-.77s-.19-.39-.25-.6h0a.08.08,0,0,1,0-.12c.11-.15.26-.19.4-.32a.72.72,0,0,0,.21-.64A.49.49,0,0,0,121.57,97.87Z"/><path class="cls-4" d="M121.65,89.87a1.63,1.63,0,0,1,.93-.63,58.66,58.66,0,0,1-4.45-5.47c0,.21,0,.43-.07.64a9.15,9.15,0,0,1-.18.91,29.78,29.78,0,0,1,3.32,4.37Z"/><path class="cls-4" d="M124.73,90.38q-.44,3.25-1,6.51c-.14.82-.29,1.63-.44,2.45-.22,1.25-.65,2,.78,2.41,2.5.66,2.77-3.55,2.92-5.2a19.61,19.61,0,0,0,0-3.16A2.88,2.88,0,0,0,124.73,90.38Z"/><path class="cls-3" d="M127.12,91.48c-.46-1.27-1.49-1.29-2.76-1.49-.15,0-.22.18-.07.23h0l0,0c-.5,3.82-1.11,7.61-1.86,11.38a.21.21,0,0,0,.15.26c.73.13,2.52.82,3.24.41,1.07-.6,1.35-3.87,1.49-5A13.41,13.41,0,0,0,127.12,91.48ZM127,96.55c-.15,1.65-.42,5.86-2.92,5.2-1.43-.38-1-1.16-.78-2.41.15-.82.3-1.63.44-2.45q.56-3.26,1-6.51a2.88,2.88,0,0,1,2.27,3A19.61,19.61,0,0,1,127,96.55Z"/><path class="cls-3" d="M110.22,90.64a.85.85,0,0,0,.46-.71,79.2,79.2,0,0,1,10.37,2,1.39,1.39,0,0,0,.34.9,1.05,1.05,0,0,0,1.14.32.85.85,0,0,0,.53-1,1.51,1.51,0,0,0-.33-.62,1.16,1.16,0,0,0,1-1.36,1.27,1.27,0,0,0-.81-1,57.7,57.7,0,0,0-4.57-5.78c-.12-.14-.38.06-.26.21a62,62,0,0,0,4.53,5.58,1.63,1.63,0,0,0-.93.63l-.45-.18a29.7,29.7,0,0,0-3.35-4.4c-.12-.15-.34.06-.21.21,1.07,1.3,2,2.76,3.12,4a39.17,39.17,0,0,0-9.6-2,1.06,1.06,0,0,0-.34-.93,1.48,1.48,0,0,0-1.31-.13c-.58.29-.44,1.25,0,1.77a1.09,1.09,0,0,0-.8.66,1.47,1.47,0,0,0,.23,1.47A1.09,1.09,0,0,0,110.22,90.64Zm-.38-2.1h0a.14.14,0,0,0,.15-.2c-.26-.4-.68-.87-.41-1.4.16-.32.84-.26,1.06,0a1,1,0,0,1,.18.78.16.16,0,0,0,.12.15l.06,0c3.63.61,7.12,1.58,10.71,2.29a.12.12,0,0,0,.13-.16c.23-.1.45-.22.69-.3s.59.23.7.53a.75.75,0,0,1-.29.88c-.24.15-.53.08-.75.23,0,0,0,0,0,0a0,0,0,0,0,0,.07c.11.25.38.38.5.64a.57.57,0,0,1-.33.85.75.75,0,0,1-.78-.41c-.14-.25,0-.57-.21-.79a.1.1,0,0,0-.16,0l-.05.07a31.27,31.27,0,0,0-10.51-2.14.15.15,0,0,0-.13.06.05.05,0,0,0,0,0c-.13.21-.16.47-.37.61a.71.71,0,0,1-.92-.24A.93.93,0,0,1,109.84,88.54Z"/><path class="cls-3" d="M109.47,93.92A37.84,37.84,0,0,0,115,95c1.87.34,3.72.82,5.6,1.12a1.34,1.34,0,0,0,.4.67,1,1,0,0,0,1,.27c.66-.22.67-1.19.25-1.67a1,1,0,0,0,.5-.4,1.11,1.11,0,0,0,0-1.15c-.22-.41-.58-.44-1-.39s-.76.22-.77.6c-2-.55-4.08-.8-6.08-1.25a25.83,25.83,0,0,0-5.52-.88,1.13,1.13,0,0,0-.47-.87,1.23,1.23,0,0,0-1.17-.17.7.7,0,0,0-.29,1,1.5,1.5,0,0,0,.57.61c-.73.23-1.45,1.23-.8,1.89a1.38,1.38,0,0,0,1.31.29A1.43,1.43,0,0,0,109.47,93.92Zm-1.69.39c-.92-.37,0-1.36.49-1.59a.12.12,0,0,0,.09-.12s0,0,0,0h.07a.1.1,0,0,0,0-.14c-.12-.16-.31-.21-.45-.35s-.47-.78.06-.89a.86.86,0,0,1,.81.3,2.46,2.46,0,0,1,.31.68s.09,0,.13,0c2.08.28,4.12.65,6.17,1.09a22.29,22.29,0,0,0,5.53.92.11.11,0,0,0,.18,0,.74.74,0,0,1,.73-.34.51.51,0,0,1,.55.46.7.7,0,0,1-.22.64c-.13.12-.29.16-.39.32s0,.09,0,.12h0c0,.21.19.38.24.6a.57.57,0,0,1-.44.76.79.79,0,0,1-.71-.44c-.1-.17-.15-.39-.34-.48a.07.07,0,0,0-.09,0s0,0,0,.07a31.59,31.59,0,0,0-5.84-1.38,34.43,34.43,0,0,0-5.24-.83h0a.09.09,0,0,0-.14-.08c-.24.14-.35.4-.58.56A1,1,0,0,1,107.78,94.31Z"/><path class="cls-3" d="M122.41,97.89c-.23-.42-.59-.45-1-.4s-.76.23-.76.6A66.43,66.43,0,0,0,111,96.32a1.11,1.11,0,0,0-.47-.95,1.23,1.23,0,0,0-1.17-.17.7.7,0,0,0-.28,1,1.41,1.41,0,0,0,.56.61c-.73.23-1.45,1.23-.8,1.89a1.38,1.38,0,0,0,1.31.29,1.46,1.46,0,0,0,.9-.75,34.29,34.29,0,0,0,5.33,1.1c1.28.24,2.56.59,3.86.76a1.29,1.29,0,0,0,.4.74,1.06,1.06,0,0,0,1,.26c.65-.22.66-1.19.24-1.66a1,1,0,0,0,.5-.4A1.13,1.13,0,0,0,122.41,97.89ZM121.9,99c-.14.13-.29.17-.4.32a.08.08,0,0,0,0,.12h0c.06.21.2.39.25.6s0,.74-.44.77a.81.81,0,0,1-.71-.45c-.11-.17-.16-.38-.34-.48a.08.08,0,0,0-.1,0h0a19.44,19.44,0,0,0-4.06-1,29.61,29.61,0,0,0-5.11-.84v0a.09.09,0,0,0-.13-.08c-.24.14-.35.4-.58.56a1.06,1.06,0,0,1-1,.12c-.92-.37,0-1.36.49-1.59a.14.14,0,0,0,.1-.12v0H110a.1.1,0,0,0,0-.14c-.11-.16-.31-.21-.45-.35s-.47-.78.06-.89a.86.86,0,0,1,.82.3,2.29,2.29,0,0,1,.29.66s0,.1.09.11c3.13.58,6.62,1.75,9.82,1.66a.12.12,0,0,0,.19,0,.77.77,0,0,1,.73-.34.49.49,0,0,1,.54.46A.72.72,0,0,1,121.9,99Z"/><path class="cls-5" d="M63.76,18.4A31.44,31.44,0,0,0,70,15.94a63.93,63.93,0,0,1-.48-9.53,29.7,29.7,0,0,0-8.1.19,27.64,27.64,0,0,0-3.9.93c-.79.25-3.56,1-4.13,1.73A42,42,0,0,1,56.11,16c.35,1.06.76,2.17,1.11,3.3A45.37,45.37,0,0,0,63.76,18.4Z"/><path class="cls-5" d="M56.42,27.08a32,32,0,0,0,7.65-1,55.58,55.58,0,0,0,7.85-2c1.18-.42,4.41-1.52,4.49-3.12.07-1.34-1.93-1.6-2.84-1.65s-1.57,0-2.35,0c.06.61.11,1.22.16,1.83a.26.26,0,0,1-.36.25c-3.63,2.19-9.08,2.82-13.17,2.05a.09.09,0,0,1-.07-.13.22.22,0,0,1-.25-.11c-.19-.41-.35-.84-.5-1.27a7.44,7.44,0,0,0-3.55,1.69C51.38,26,54.6,27,56.42,27.08Z"/><path class="cls-4" d="M61.3,44.34c-1.09,2.31,1.85,3.91,3.53,2.41a2.79,2.79,0,0,0-.53-2.89A1.72,1.72,0,0,0,61.3,44.34Z"/><path class="cls-6" d="M64.81,34.52A5.68,5.68,0,0,0,61,31.91l0,0c-3.89,1.33-5.1,5.07-5.25,9-.14,3.71,1.12,8.25,5.81,7.62a5.72,5.72,0,0,0,1.81-.56,3.05,3.05,0,0,1-1.63-.45,2.73,2.73,0,0,1-.65-3.87c1.83-2.54,4.71.32,4.29,2.57a9.64,9.64,0,0,0,1.25-7.35A14.57,14.57,0,0,0,64.81,34.52Z"/><path class="cls-4" d="M82.85,56.75c-.88.27-1.75.56-2.62.85a10.93,10.93,0,0,1,1,1.57,7.88,7.88,0,0,1,.94,2c0,.17-.18.33-.31.18a9,9,0,0,1-1.06-1.92,11.23,11.23,0,0,1-.81-1.72c-1.08.37-2.16.75-3.23,1.14a32.34,32.34,0,0,1,1.75,3.84c.12.29-.3.54-.43.25a29.85,29.85,0,0,1-1.61-4l-3.2,1.18c.46,1.33.76,2.71,1.28,4,.12.31-.38.45-.5.14a19,19,0,0,1-1.09-4.06c-1.24.46-2.48.91-3.73,1.33a8,8,0,0,1,.59,1.79c.22.78.49,1.55.67,2.34a.2.2,0,0,1-.39.11,21.45,21.45,0,0,1-.75-2.48A6.51,6.51,0,0,1,69,61.65l-2,.65c.06,3.36-.48,7.33,3.62,8.52a13.69,13.69,0,0,0,8.4-.75c2.7-1,6.21-2.51,7.33-5.36C87.65,61.39,85.63,58.44,82.85,56.75Z"/><path class="cls-1" d="M57.31,19.63A15.28,15.28,0,0,1,58,23.17a.25.25,0,0,1,0,.15,45,45,0,0,0,7-.43,44.55,44.55,0,0,0,5.9-1.78c-.31-1.49-.56-3-.77-4.6A21.93,21.93,0,0,1,57.31,19.63Z"/><path class="cls-6" d="M75.22,30h0c-1.46,3-2,6.25-.71,9.43a8.05,8.05,0,0,0,4.37,3.94,2.77,2.77,0,0,1,.08-3.22c2-2.72,5.2.93,4.07,3.18a3.92,3.92,0,0,0,1-.78c2.36-2.64.92-6.54-.72-9.13a21,21,0,0,0-2.72-3.63C78.68,27.94,77,28.39,75.22,30Z"/><path class="cls-4" d="M79.22,40.68a2.08,2.08,0,0,0,1,3.06,4.54,4.54,0,0,0,1.91-.08,2,2,0,0,0,.51-.38C83.55,41.12,80.68,38.18,79.22,40.68Z"/><path class="cls-4" d="M86.27,24.4c-3.09-1.72-6.29-2-9.73-2.31a5.15,5.15,0,0,1-.65.67c-3.11,2.66-8.14,3.17-12,3.95-3,.61-8,2.1-10.72.07l-.29-.23c-3.76,1.51-7,3.76-9,7.37s-2.82,8.3-1.2,12.19c3.46,8.33,13.14,8.85,20.75,7.38-.09-.43-.19-.87-.26-1.31a.12.12,0,0,1,.22-.07c.19.49.38,1,.55,1.48a.35.35,0,0,1,.08.22c.54,1.48,1,3,1.5,4.48a.31.31,0,0,1,0,.09l2.5-.64c-.41-1.64-.73-3.34-1.27-4.94,0-.14.17-.23.24-.1a24.7,24.7,0,0,1,1.55,4.9l2.9-.72a30,30,0,0,1-1.19-5.27c0-.17.23-.32.31-.13A27,27,0,0,1,72,56.74l3.2-.78c-.33-1.75-.87-3.47-1.16-5.23,0-.17.2-.3.29-.13a17.31,17.31,0,0,1,1.44,5.23l3.72-.9A8.38,8.38,0,0,1,79,52.71a16.87,16.87,0,0,1-.55-3,.13.13,0,0,1,.24-.06,9.64,9.64,0,0,1,1,3,6,6,0,0,1,.3,2.09l3.13-.76a34.89,34.89,0,0,1-1-4.95c0-.13.18-.13.22,0s.11.3.16.45c3.5-1,7.12-2.12,9.59-5,2.91-3.36,2.36-7.72,1-11.63A14.73,14.73,0,0,0,86.27,24.4Zm-25,24.81c-4.89.41-6.37-4.33-6.2-8.34.15-3.65,1.53-8.87,5.8-9.36a.23.23,0,0,1,.19-.1c4-.18,6,5.22,6.37,8.42C67.91,43.93,66,48.83,61.31,49.21Zm9.5-.64c-.06.08-.2.11-.25,0a5,5,0,0,1-.24-1.65,8.23,8.23,0,0,0-.58-2.12.14.14,0,0,1,.22-.13C70.7,45.56,71.6,47.5,70.81,48.57Zm3.25-1.72c-1-.17-1.46-1.85-1.6-2.69a.17.17,0,0,1,.32-.09,4.92,4.92,0,0,0,.72,1.45c.26.36.66.68.76,1.13A.17.17,0,0,1,74.06,46.85ZM84.62,43c-2.53,3-7.9,1.08-10-1.59-2.52-3.29-2.07-8.4.2-11.72h0a3.41,3.41,0,0,1,3.83-1.88c2,.38,3.11,2.3,4.22,3.82C85.15,34.72,87.52,39.61,84.62,43Z"/><path class="cls-3" d="M94,33.06c-2.29-7.19-9.59-12.28-17.26-11.26a1.67,1.67,0,0,0,0-2.06c-1.14-1.44-3.91-1.33-5.53-.85-.37-4.18-.79-8.42-1.4-12.54.18-.17.16-.56-.13-.6A25.87,25.87,0,0,0,60.83,6a29.81,29.81,0,0,0-4.9,1.41,7.23,7.23,0,0,0-3,1.55.26.26,0,0,0,0,.33l.14.16c.71,2.41,1.65,4.76,2.42,7.15.54,1.67.88,3.48,1.45,5.17-2.08.37-6.33,2.33-4.33,4.52-8.06,2.06-13.82,11.79-10.76,19.78,3.26,8.54,13.82,10.23,21.69,8.1.35,1.45.78,2.89,1.27,4.31a.41.41,0,0,0,.07.11.16.16,0,0,0,.18.21,159.75,159.75,0,0,0,18.43-4.26.28.28,0,0,0,.14-.44.31.31,0,0,0,0-.14c-.28-1.25-.52-2.55-.89-3.8,3.82-.81,7.91-2.44,10.36-5.63C95.73,41.12,95.24,36.93,94,33.06ZM57.31,19.63A21.93,21.93,0,0,0,70,16.51c.21,1.57.46,3.11.77,4.6a44.55,44.55,0,0,1-5.9,1.78,45,45,0,0,1-7,.43.25.25,0,0,0,0-.15A15.28,15.28,0,0,0,57.31,19.63Zm-4-10.37c.57-.76,3.34-1.48,4.13-1.73a27.64,27.64,0,0,1,3.9-.93,29.7,29.7,0,0,1,8.1-.19A63.93,63.93,0,0,0,70,15.94a31.44,31.44,0,0,1-6.19,2.46,45.37,45.37,0,0,1-6.54.93c-.35-1.13-.76-2.24-1.11-3.3A42,42,0,0,0,53.34,9.26Zm.14,14.46A7.44,7.44,0,0,1,57,22c.15.43.31.86.5,1.27a.22.22,0,0,0,.25.11.09.09,0,0,0,.07.13c4.09.77,9.54.14,13.17-2.05a.26.26,0,0,0,.36-.25c0-.61-.1-1.22-.16-1.83.78,0,1.56-.07,2.35,0s2.91.31,2.84,1.65c-.08,1.6-3.31,2.7-4.49,3.12a55.58,55.58,0,0,1-7.85,2,32,32,0,0,1-7.65,1C54.6,27,51.38,26,53.48,23.72ZM92.14,44.55c-2.47,2.85-6.09,4-9.59,5,0-.15-.1-.3-.16-.45s-.23-.1-.22,0a34.89,34.89,0,0,0,1,4.95L80,54.81a6,6,0,0,0-.3-2.09,9.64,9.64,0,0,0-1-3,.13.13,0,0,0-.24.06,16.87,16.87,0,0,0,.55,3,8.38,8.38,0,0,0,.48,2.22l-3.72.9a17.31,17.31,0,0,0-1.44-5.23c-.09-.17-.32,0-.29.13.29,1.76.83,3.48,1.16,5.23l-3.2.78a27,27,0,0,0-1.47-5.26c-.08-.19-.33,0-.31.13a30,30,0,0,0,1.19,5.27l-2.9.72A24.7,24.7,0,0,0,67,52.7c-.07-.13-.29,0-.24.1.54,1.6.86,3.3,1.27,4.94l-2.5.64a.31.31,0,0,0,0-.09c-.48-1.5-1-3-1.5-4.48a.35.35,0,0,0-.08-.22c-.17-.5-.36-1-.55-1.48a.12.12,0,0,0-.22.07c.07.44.17.88.26,1.31-7.61,1.47-17.29.95-20.75-7.38-1.62-3.89-.82-8.59,1.2-12.19s5.28-5.86,9-7.37l.29.23c2.71,2,7.74.54,10.72-.07,3.87-.78,8.9-1.29,12-3.95a5.15,5.15,0,0,0,.65-.67c3.44.3,6.64.59,9.73,2.31a14.73,14.73,0,0,1,6.92,8.52C94.5,36.83,95.05,41.19,92.14,44.55Z"/><path class="cls-3" d="M61.1,31.41a.23.23,0,0,0-.19.1c-4.27.49-5.65,5.71-5.8,9.36-.17,4,1.31,8.75,6.2,8.34,4.64-.38,6.6-5.28,6.16-9.38C67.12,36.63,65.08,31.23,61.1,31.41Zm3.73,15.34c-1.68,1.5-4.62-.1-3.53-2.41a1.72,1.72,0,0,1,3-.48A2.79,2.79,0,0,1,64.83,46.75Zm.54-.57c.42-2.25-2.46-5.11-4.29-2.57a2.73,2.73,0,0,0,.65,3.87,3.05,3.05,0,0,0,1.63.45,5.72,5.72,0,0,1-1.81.56c-4.69.63-5.95-3.91-5.81-7.62.15-3.91,1.36-7.65,5.25-9l0,0a5.68,5.68,0,0,1,3.78,2.61,14.57,14.57,0,0,1,1.81,4.31A9.64,9.64,0,0,1,65.37,46.18Z"/><path class="cls-3" d="M69.74,44.8a8.23,8.23,0,0,1,.58,2.12,5,5,0,0,0,.24,1.65c0,.11.19.08.25,0,.79-1.07-.11-3-.85-3.9A.14.14,0,0,0,69.74,44.8Z"/><path class="cls-3" d="M72.78,44.07a.17.17,0,0,0-.32.09c.14.84.6,2.52,1.6,2.69a.17.17,0,0,0,.2-.2c-.1-.45-.5-.77-.76-1.13A4.92,4.92,0,0,1,72.78,44.07Z"/><path class="cls-3" d="M78.71,27.84a3.41,3.41,0,0,0-3.83,1.88h0c-2.27,3.32-2.72,8.43-.2,11.72,2,2.67,7.42,4.59,10,1.59,2.9-3.43.53-8.32-1.69-11.38C81.82,30.14,80.68,28.22,78.71,27.84Zm.51,12.84c1.46-2.5,4.33.44,3.44,2.6a2,2,0,0,1-.51.38,4.54,4.54,0,0,1-1.91.08A2.08,2.08,0,0,1,79.22,40.68ZM84,42.54a3.92,3.92,0,0,1-1,.78c1.13-2.25-2.06-5.9-4.07-3.18a2.77,2.77,0,0,0-.08,3.22,8.05,8.05,0,0,1-4.37-3.94c-1.32-3.18-.75-6.45.71-9.43h0c1.73-1.59,3.46-2,5.31-.2a21,21,0,0,1,2.72,3.63C84.89,36,86.33,39.9,84,42.54Z"/><path class="cls-3" d="M83.07,56.28a.23.23,0,0,0-.23-.05c-5.33,1.62-11,3.25-15.93,5.82a.11.11,0,0,0-.13.07c-.78,2.9-.69,7,2.24,8.72,3.2,1.87,7.74.81,10.93-.48s6.73-3,7.36-6.69A6.85,6.85,0,0,0,83.07,56.28Zm3.28,8.43c-1.12,2.85-4.63,4.36-7.33,5.36a13.69,13.69,0,0,1-8.4.75c-4.1-1.19-3.56-5.16-3.62-8.52l2-.65a6.51,6.51,0,0,0,.34,1.68,21.45,21.45,0,0,0,.75,2.48.2.2,0,0,0,.39-.11c-.18-.79-.45-1.56-.67-2.34a8,8,0,0,0-.59-1.79c1.25-.42,2.49-.87,3.73-1.33A19,19,0,0,0,74,64.3c.12.31.62.17.5-.14-.52-1.32-.82-2.7-1.28-4L76.42,59a29.85,29.85,0,0,0,1.61,4c.13.29.55,0,.43-.25a32.34,32.34,0,0,0-1.75-3.84c1.07-.39,2.15-.77,3.23-1.14a11.23,11.23,0,0,0,.81,1.72,9,9,0,0,0,1.06,1.92c.13.15.35,0,.31-.18a7.88,7.88,0,0,0-.94-2,10.93,10.93,0,0,0-1-1.57c.87-.29,1.74-.58,2.62-.85C85.63,58.44,87.65,61.39,86.35,64.71Z"/></svg>