<svg id="Layer_1" data-name="Layer 1" xmlns="http://www.w3.org/2000/svg" viewBox="0 0 160 160"><defs><style>.cls-1{fill:#ac8e68;}.cls-2{fill:#fff;}</style></defs><circle class="cls-1" cx="80" cy="80" r="73.97"/><circle class="cls-2" cx="80" cy="80" r="58.15"/><path class="cls-2" d="M53.94,24a3.28,3.28,0,0,1-1.79-1.16l1.14-1.13a2.23,2.23,0,0,0,1,.75,1.48,1.48,0,0,0,1.13-.05,1.52,1.52,0,0,0,.73-.6.87.87,0,0,0,.06-.83,1,1,0,0,0-.64-.57,4.44,4.44,0,0,0-1.43-.08l-.55,0A3.68,3.68,0,0,1,52,20.06a2,2,0,0,1-1.11-1.12,2.25,2.25,0,0,1-.16-1.25,2.35,2.35,0,0,1,.55-1.16,3.15,3.15,0,0,1,1.18-.85,2.66,2.66,0,0,1,3.2.58l-1.06,1.1a1.37,1.37,0,0,0-.67-.43A1.28,1.28,0,0,0,53,17a1.36,1.36,0,0,0-.69.56.75.75,0,0,0-.06.71.79.79,0,0,0,.54.46,3.41,3.41,0,0,0,1.17.06l.56,0a4,4,0,0,1,1.94.25,2.54,2.54,0,0,1,1.33,2.72A2.62,2.62,0,0,1,57.14,23a3.4,3.4,0,0,1-1.16.8A3.2,3.2,0,0,1,53.94,24Z"/><path class="cls-2" d="M61.81,21a4.36,4.36,0,0,1-3.12-3.11,4.42,4.42,0,0,1,0-2.31,4.39,4.39,0,0,1,3.12-3.12,4.11,4.11,0,0,1,3.42.48l-.79,1.35a2.56,2.56,0,0,0-2.22-.38,3,3,0,0,0-1.28.73,2.58,2.58,0,0,0-.72,1.26A3.29,3.29,0,0,0,61,18.8a2.49,2.49,0,0,0,1.26.71,2.87,2.87,0,0,0,1.48,0,2.75,2.75,0,0,0,1.85-1.66l1.38.73A4.11,4.11,0,0,1,65.85,20a4.34,4.34,0,0,1-1.72.89A4.46,4.46,0,0,1,61.81,21Z"/><path class="cls-2" d="M70.26,10.89l1.82-.23,4.21,8-1.75.22-1-1.91-3.21.4-.45,2.09-1.74.22Zm2.63,4.67-1-2-.44-1h-.09l-.18,1.05-.48,2.2Z"/><path class="cls-2" d="M77.73,10.2l1.86,0,3.35,5.69H83L83,14.28l0-4,1.58,0-.07,8.44H82.82l-3.54-6h-.09l.08,1.63,0,4.35H77.66Z"/><path class="cls-2" d="M91.65,11.05l2,.47.84,6.28.09,0,3.53-5.28,2,.47L98.2,21.25l-1.54-.36,1-4.05L98,15.49l-.09,0L94.57,20.4l-1.2-.28-.85-5.91-.09,0-.22,1.39-.95,4.06-1.53-.36Z"/><path class="cls-2" d="M103.31,14.16l5,2-.56,1.4-3.5-1.38L103.51,18l3.15,1.24-.55,1.41L103,19.37l-.72,1.83,3.5,1.38-.56,1.4-5-2Z"/><path class="cls-2" d="M135.8,53.41a3.26,3.26,0,0,1,1.14-1.8l1.15,1.13a2.29,2.29,0,0,0-.75,1,1.51,1.51,0,0,0,.06,1.14,1.62,1.62,0,0,0,.61.72.85.85,0,0,0,.83.05.94.94,0,0,0,.56-.64,4.78,4.78,0,0,0,.08-1.43l0-.55a3.56,3.56,0,0,1,.23-1.63,2,2,0,0,1,1.12-1.12,2.27,2.27,0,0,1,1.23-.17,2.49,2.49,0,0,1,1.18.54,3.11,3.11,0,0,1,.85,1.17,2.77,2.77,0,0,1,.24,1.87A2.7,2.7,0,0,1,143.5,55l-1.1-1a1.45,1.45,0,0,0,.42-.68,1.29,1.29,0,0,0-.1-.87,1.43,1.43,0,0,0-.56-.68.74.74,0,0,0-.72,0,.81.81,0,0,0-.46.55,3.43,3.43,0,0,0,0,1.16L141,54a4.16,4.16,0,0,1-.24,1.94,2.52,2.52,0,0,1-2.7,1.36,2.55,2.55,0,0,1-1.22-.65,3.43,3.43,0,0,1-.81-1.15A3.21,3.21,0,0,1,135.8,53.41Z"/><path class="cls-2" d="M138.85,61.23a4.28,4.28,0,0,1,1.08-2,4.38,4.38,0,0,1,2-1.18,4.34,4.34,0,0,1,4.28,1,4.4,4.4,0,0,1,1.19,2,4.13,4.13,0,0,1-.45,3.43l-1.36-.78a2.54,2.54,0,0,0,.36-2.21,2.88,2.88,0,0,0-.75-1.29,2.62,2.62,0,0,0-1.26-.7,3.09,3.09,0,0,0-1.56.07,3,3,0,0,0-1.36.78,2.55,2.55,0,0,0-.7,1.26,3,3,0,0,0,.05,1.48A2.76,2.76,0,0,0,142.05,65l-.72,1.39a4.24,4.24,0,0,1-1.52-1.11,4.37,4.37,0,0,1-.9-1.71A4.33,4.33,0,0,1,138.85,61.23Z"/><path class="cls-2" d="M149,69.61l.25,1.82-8,4.28L141.09,74l1.9-1-.44-3.2-2.09-.43-.24-1.74Zm-4.65,2.67,2-1,1-.44v-.09l-1.05-.17-2.21-.46Z"/><path class="cls-2" d="M149.81,77.14l0,1.85-5.69,3.35v.1l1.63-.08,4,0V84l-8.45-.07,0-1.67,6-3.54v-.1l-1.63.09-4.35,0V77.07Z"/><path class="cls-2" d="M149.05,91l-.44,2-6.28.89,0,.1,5.3,3.47-.45,2-8.24-1.84.34-1.54,4.07.91,1.35.39,0-.09-5-3.31L140,92.8l5.9-.89,0-.09-1.39-.22-4.06-.9.34-1.53Z"/><path class="cls-2" d="M146.06,102.68l-1.92,5-1.41-.54,1.35-3.51-1.83-.7L141,106.08l-1.41-.54,1.21-3.16-1.83-.71-1.35,3.52-1.41-.55,1.93-5Z"/><path class="cls-2" d="M107.12,135.55a3.23,3.23,0,0,1,1.81,1.12l-1.12,1.15a2.21,2.21,0,0,0-1-.73,1.63,1.63,0,0,0-1.85.69.85.85,0,0,0,0,.83,1,1,0,0,0,.64.55,4.31,4.31,0,0,0,1.43.06l.55,0a3.55,3.55,0,0,1,1.63.22,2,2,0,0,1,1.13,1.1,2.21,2.21,0,0,1,.18,1.24,2.37,2.37,0,0,1-.52,1.17,3,3,0,0,1-1.17.87,2.76,2.76,0,0,1-1.86.26,2.84,2.84,0,0,1-1.35-.78l1-1.11a1.36,1.36,0,0,0,.68.41,1.29,1.29,0,0,0,.87-.1,1.4,1.4,0,0,0,.68-.57.77.77,0,0,0,0-.72.81.81,0,0,0-.56-.45,3.23,3.23,0,0,0-1.17,0l-.55.06a4.11,4.11,0,0,1-1.95-.22,2.23,2.23,0,0,1-1.19-1.24,2.26,2.26,0,0,1-.19-1.45,2.53,2.53,0,0,1,.64-1.22,3.56,3.56,0,0,1,1.14-.83A3.21,3.21,0,0,1,107.12,135.55Z"/><path class="cls-2" d="M99.34,138.66a4.35,4.35,0,0,1,2,1.07,4.51,4.51,0,0,1,1.2,2,4.43,4.43,0,0,1,.08,2.31,4.39,4.39,0,0,1-3.06,3.18,4.06,4.06,0,0,1-3.42-.41l.76-1.36a2.58,2.58,0,0,0,2.22.33,2.83,2.83,0,0,0,1.27-.76,2.56,2.56,0,0,0,.69-1.27,3.3,3.3,0,0,0-.87-2.91,2.61,2.61,0,0,0-1.27-.69,2.91,2.91,0,0,0-1.49.07,2.73,2.73,0,0,0-1.81,1.7l-1.4-.7a4.15,4.15,0,0,1,1.09-1.53,4.69,4.69,0,0,1,4-1Z"/><path class="cls-2" d="M91,148.92l-1.81.26-4.35-7.9,1.74-.25,1,1.89,3.2-.46.41-2.1,1.74-.25Zm-2.71-4.62,1,2,.45,1h.1l.15-1.05L90.5,144Z"/><path class="cls-2" d="M83.53,149.78H81.68l-3.41-5.66h-.09l.1,1.63v4H76.7v-8.45h1.68l3.59,6h.09L82,145.68v-4.35h1.57Z"/><path class="cls-2" d="M69.67,149.16l-2-.43-1-6.27-.09,0-3.42,5.34-2-.43,1.75-8.26,1.55.32-.87,4.08-.38,1.35.09,0,3.26-5,1.21.26,1,5.89.1,0,.2-1.39.86-4.07,1.54.32Z"/><path class="cls-2" d="M58,146.27l-5-1.87.53-1.41L57,144.3l.69-1.83-3.17-1.19.52-1.41,3.18,1.18.68-1.83-3.52-1.32.52-1.41,5,1.87Z"/><path class="cls-2" d="M24.72,107.66a3.27,3.27,0,0,1-1.1,1.83l-1.17-1.11a2.19,2.19,0,0,0,.72-1,1.44,1.44,0,0,0-.08-1.13,1.5,1.5,0,0,0-.62-.71.85.85,0,0,0-.83,0,1,1,0,0,0-.55.65,4.82,4.82,0,0,0,0,1.44l0,.55a3.52,3.52,0,0,1-.2,1.62,2,2,0,0,1-1.09,1.15,2.19,2.19,0,0,1-1.23.19,2.35,2.35,0,0,1-1.19-.52,3.1,3.1,0,0,1-.87-1.15,2.78,2.78,0,0,1-.28-1.86,2.89,2.89,0,0,1,.76-1.36l1.13,1a1.44,1.44,0,0,0-.41.69,1.26,1.26,0,0,0,.11.86,1.47,1.47,0,0,0,.58.68.77.77,0,0,0,.72,0,.85.85,0,0,0,.45-.56,3.35,3.35,0,0,0,0-1.17l-.06-.56a4,4,0,0,1,.2-1.94A2.23,2.23,0,0,1,21,104.07a2.35,2.35,0,0,1,1.45-.21,2.56,2.56,0,0,1,1.23.64,3.51,3.51,0,0,1,.84,1.12A3.22,3.22,0,0,1,24.72,107.66Z"/><path class="cls-2" d="M21.52,99.9a4.5,4.5,0,0,1-5.32,3.32,4.24,4.24,0,0,1-2-1.06,4.36,4.36,0,0,1-1.22-2,4.06,4.06,0,0,1,.38-3.42l1.37.75a2.54,2.54,0,0,0-.31,2.22A2.91,2.91,0,0,0,15.2,101a2.61,2.61,0,0,0,1.27.67,3.15,3.15,0,0,0,1.57-.1,3.1,3.1,0,0,0,1.34-.8,2.6,2.6,0,0,0,.67-1.28A2.88,2.88,0,0,0,20,98a2.73,2.73,0,0,0-1.72-1.8l.69-1.4a4.23,4.23,0,0,1,1.54,1.07,4.57,4.57,0,0,1,.94,1.69A4.47,4.47,0,0,1,21.52,99.9Z"/><path class="cls-2" d="M11.19,91.71l-.28-1.81,7.86-4.43L19,87.2l-1.89,1,.5,3.2,2.1.39L20,93.53ZM15.79,89,13.8,90l-1,.46v.09l1.05.15,2.22.42Z"/><path class="cls-2" d="M10.26,84.2l0-1.85,5.62-3.46V78.8l-1.63.11-4,0,0-1.58,8.45-.09,0,1.68-5.94,3.65v.09l1.62-.11,4.36,0v1.57Z"/><path class="cls-2" d="M10.75,70.35l.4-2,6.26-1,0-.09-5.37-3.37.41-2,8.28,1.68-.31,1.55-4.09-.83L15,63.85l0,.1,5,3.2-.25,1.22-5.88,1,0,.09,1.39.19,4.09.82L19,72Z"/><path class="cls-2" d="M13.52,58.59l1.82-5,1.42.51-1.28,3.54,1.84.67,1.16-3.18,1.42.51-1.16,3.18,1.84.67,1.29-3.54,1.42.52-1.83,5Z"/></svg>