<?xml version="1.0" encoding="utf-8"?>
<!-- Generator: Adobe Illustrator 25.2.1, SVG Export Plug-In . SVG Version: 6.00 Build 0)  -->
<svg version="1.1" id="Layer_1" xmlns="http://www.w3.org/2000/svg" xmlns:xlink="http://www.w3.org/1999/xlink" x="0px" y="0px"
	 viewBox="0 0 250.4 286.2" style="enable-background:new 0 0 250.4 286.2;" xml:space="preserve">
<style type="text/css">
	.st0{fill:#00AEEF;}
	.st1{fill:url(#SVGID_1_);}
	.st2{fill:#FFFFFF;}
	.st3{enable-background:new    ;}
</style>
<rect x="16.5" y="18.8" class="st0" width="190.8" height="197.1"/>
<linearGradient id="SVGID_1_" gradientUnits="userSpaceOnUse" x1="-33.67" y1="144.885" x2="190.79" y2="144.885" gradientTransform="matrix(1 0 0 -1 0 288)">
	<stop  offset="0" style="stop-color:#FFF33B"/>
	<stop  offset="2.000000e-02" style="stop-color:#FEE72E"/>
	<stop  offset="6.000000e-02" style="stop-color:#FED51B"/>
	<stop  offset="0.1" style="stop-color:#FDCA10"/>
	<stop  offset="0.14" style="stop-color:#FDC70C"/>
	<stop  offset="0.67" style="stop-color:#F3903F"/>
	<stop  offset="0.81" style="stop-color:#EE6F3D"/>
	<stop  offset="0.89" style="stop-color:#ED683C"/>
	<stop  offset="1" style="stop-color:#E93E3A"/>
</linearGradient>
<rect class="st1" width="224.5" height="286.2"/>
<rect x="16.8" y="18.8" class="st2" width="190.8" height="197.1"/>
<g class="st3">
	<path class="st2" d="M76.3,253c0,1.6-0.4,3-1.2,4.2c-0.8,1.2-1.9,2.2-3.4,2.9s-3.3,1.1-5.3,1.1c-2.5,0-4.5-0.5-6.1-1.4
		c-1.1-0.7-2.1-1.6-2.8-2.8c-0.7-1.2-1.1-2.3-1.1-3.4c0-0.6,0.2-1.2,0.6-1.6s1-0.7,1.6-0.7c0.5,0,1,0.2,1.4,0.5
		c0.4,0.4,0.7,0.9,0.9,1.6c0.3,0.8,0.7,1.5,1,2.1c0.4,0.6,0.9,1,1.6,1.4c0.7,0.4,1.6,0.5,2.6,0.5c1.5,0,2.7-0.4,3.7-1.1
		c0.9-0.7,1.4-1.6,1.4-2.7c0-0.9-0.3-1.5-0.8-2.1c-0.5-0.5-1.2-0.9-2-1.2s-1.9-0.6-3.2-0.9c-1.8-0.4-3.3-0.9-4.5-1.5
		s-2.2-1.4-2.9-2.4c-0.7-1-1.1-2.2-1.1-3.7c0-1.4,0.4-2.7,1.1-3.8c0.8-1.1,1.8-1.9,3.3-2.5s3.1-0.9,5-0.9c1.5,0,2.9,0.2,4,0.6
		s2,0.9,2.8,1.6s1.3,1.3,1.6,2c0.3,0.7,0.5,1.4,0.5,2.1c0,0.6-0.2,1.2-0.6,1.7s-1,0.7-1.6,0.7c-0.6,0-1-0.1-1.3-0.4s-0.6-0.8-1-1.5
		c-0.5-1-1-1.7-1.6-2.3s-1.7-0.8-3.1-0.8c-1.3,0-2.4,0.3-3.2,0.9s-1.2,1.3-1.2,2.1c0,0.5,0.1,1,0.4,1.3s0.6,0.7,1.1,1s1,0.5,1.4,0.6
		s1.3,0.4,2.4,0.7c1.4,0.3,2.7,0.7,3.8,1.1c1.1,0.4,2.1,0.9,2.9,1.5c0.8,0.6,1.4,1.3,1.9,2.2C76.1,250.6,76.3,251.7,76.3,253z"/>
	<path class="st2" d="M97,255.3c0,0.6-0.2,1.2-0.5,1.9s-0.9,1.3-1.6,1.9c-0.7,0.6-1.6,1.1-2.7,1.5c-1.1,0.4-2.3,0.6-3.6,0.6
		c-2.9,0-5.1-0.9-6.7-2.6c-1.6-1.7-2.4-4-2.4-7c0-2,0.4-3.7,1.1-5.2c0.7-1.5,1.8-2.7,3.2-3.5c1.4-0.8,3.1-1.2,5-1.2
		c1.2,0,2.3,0.2,3.3,0.5s1.9,0.8,2.6,1.4s1.2,1.2,1.6,1.8c0.4,0.7,0.6,1.3,0.6,1.8c0,0.6-0.2,1.1-0.6,1.5c-0.4,0.4-0.9,0.6-1.5,0.6
		c-0.4,0-0.7-0.1-1-0.3c-0.3-0.2-0.5-0.5-0.9-1c-0.6-0.9-1.2-1.6-1.8-2s-1.4-0.7-2.4-0.7c-1.4,0-2.5,0.6-3.3,1.7s-1.3,2.6-1.3,4.5
		c0,0.9,0.1,1.7,0.3,2.5c0.2,0.8,0.5,1.4,0.9,1.9s0.9,0.9,1.5,1.2s1.2,0.4,1.9,0.4c0.9,0,1.7-0.2,2.4-0.7c0.7-0.4,1.3-1.1,1.8-2
		c0.3-0.5,0.6-1,0.9-1.3s0.7-0.5,1.2-0.5c0.6,0,1,0.2,1.4,0.7S97,254.8,97,255.3z"/>
	<path class="st2" d="M112.8,258.5c-1.1,0.9-2.2,1.6-3.3,2s-2.2,0.7-3.5,0.7c-1.2,0-2.2-0.2-3.1-0.7c-0.9-0.5-1.6-1.1-2.1-2
		s-0.7-1.7-0.7-2.7c0-1.3,0.4-2.4,1.2-3.4c0.8-0.9,1.9-1.5,3.3-1.9c0.3-0.1,1-0.2,2.2-0.5c1.2-0.2,2.2-0.5,3-0.7s1.7-0.5,2.7-0.7
		c-0.1-1.3-0.3-2.2-0.7-2.8c-0.4-0.6-1.3-0.9-2.7-0.9c-1.2,0-2.1,0.2-2.7,0.5s-1.1,0.8-1.5,1.5s-0.7,1.1-0.9,1.3
		c-0.2,0.2-0.6,0.3-1.1,0.3c-0.5,0-1-0.2-1.4-0.5s-0.6-0.8-0.6-1.3c0-0.8,0.3-1.7,0.9-2.5c0.6-0.8,1.5-1.5,2.7-2
		c1.2-0.5,2.8-0.8,4.6-0.8c2,0,3.7,0.2,4.8,0.7c1.2,0.5,2,1.3,2.5,2.4c0.5,1.1,0.7,2.5,0.7,4.3c0,1.1,0,2.1,0,2.9s0,1.7,0,2.6
		c0,0.9,0.1,1.8,0.4,2.8c0.3,1,0.4,1.6,0.4,1.9c0,0.5-0.2,0.9-0.7,1.3s-1,0.6-1.5,0.6c-0.5,0-0.9-0.2-1.4-0.7
		C113.8,260.1,113.4,259.4,112.8,258.5z M112.5,251.6c-0.7,0.3-1.7,0.5-3,0.8s-2.2,0.5-2.7,0.6c-0.5,0.1-1,0.4-1.4,0.8
		s-0.7,0.9-0.7,1.6c0,0.7,0.3,1.3,0.8,1.9c0.5,0.5,1.2,0.8,2.1,0.8c0.9,0,1.8-0.2,2.5-0.6c0.8-0.4,1.4-1,1.7-1.6
		c0.4-0.7,0.6-1.9,0.6-3.6V251.6z"/>
	<path class="st2" d="M126,244.4v0.6c0.8-1.1,1.7-1.9,2.7-2.5s2.1-0.8,3.4-0.8c1.2,0,2.3,0.3,3.3,0.8c1,0.6,1.7,1.3,2.2,2.3
		c0.3,0.6,0.5,1.2,0.6,1.9s0.1,1.5,0.1,2.6v8.9c0,1-0.2,1.7-0.6,2.2s-1,0.7-1.7,0.7c-0.7,0-1.3-0.3-1.7-0.8s-0.6-1.2-0.6-2.2v-8
		c0-1.6-0.2-2.8-0.6-3.6s-1.3-1.3-2.5-1.3c-0.8,0-1.6,0.3-2.3,0.8c-0.7,0.5-1.2,1.2-1.5,2.1c-0.2,0.7-0.3,2.1-0.3,4v6
		c0,1-0.2,1.7-0.7,2.2c-0.4,0.5-1,0.7-1.7,0.7c-0.7,0-1.2-0.3-1.7-0.8s-0.6-1.2-0.6-2.2v-13.9c0-0.9,0.2-1.6,0.6-2
		c0.4-0.5,0.9-0.7,1.6-0.7c0.4,0,0.8,0.1,1.1,0.3s0.6,0.5,0.8,0.9C125.9,243.3,126,243.8,126,244.4z"/>
	<path class="st2" d="M160.4,256.9l-4-16.4v17.8c0,1-0.2,1.7-0.6,2.2s-1,0.7-1.7,0.7c-0.7,0-1.2-0.2-1.7-0.7
		c-0.4-0.5-0.6-1.2-0.6-2.2v-20.4c0-1.1,0.3-1.9,0.9-2.3s1.3-0.6,2.3-0.6h1.6c0.9,0,1.6,0.1,2.1,0.3c0.4,0.2,0.7,0.5,0.9,0.9
		c0.2,0.5,0.4,1.2,0.7,2.2l3.6,14.1l3.6-14.1c0.3-1,0.5-1.8,0.7-2.2s0.5-0.8,0.9-0.9s1.1-0.3,2.1-0.3h1.6c1,0,1.7,0.2,2.3,0.6
		s0.9,1.2,0.9,2.3v20.4c0,1-0.2,1.7-0.6,2.2s-1,0.7-1.7,0.7c-0.7,0-1.2-0.2-1.7-0.7s-0.6-1.2-0.6-2.2v-17.8l-4,16.4
		c-0.3,1.1-0.5,1.8-0.6,2.3s-0.5,1-0.9,1.4s-1.1,0.6-1.8,0.6c-0.6,0-1.1-0.1-1.5-0.4s-0.7-0.6-1-1s-0.4-0.9-0.5-1.4
		S160.5,257.4,160.4,256.9z"/>
	<path class="st2" d="M193.7,252.6h-9.1c0,1.1,0.2,2.1,0.6,2.9s1,1.5,1.7,1.9s1.4,0.6,2.3,0.6c0.6,0,1.1-0.1,1.5-0.2
		c0.5-0.1,0.9-0.3,1.3-0.6c0.4-0.3,0.8-0.6,1.2-0.9s0.8-0.8,1.4-1.3c0.2-0.2,0.6-0.3,1-0.3c0.5,0,0.9,0.1,1.2,0.4s0.4,0.7,0.4,1.1
		c0,0.4-0.2,0.9-0.5,1.5c-0.3,0.6-0.8,1.1-1.5,1.7s-1.5,1-2.5,1.3s-2.2,0.5-3.5,0.5c-3,0-5.3-0.9-7-2.6s-2.5-4.1-2.5-7.2
		c0-1.4,0.2-2.7,0.6-3.9c0.4-1.2,1-2.3,1.8-3.1s1.8-1.5,2.9-2c1.1-0.5,2.4-0.7,3.8-0.7c1.8,0,3.4,0.4,4.7,1.2s2.3,1.8,2.9,3.1
		s1,2.5,1,3.8c0,1.2-0.3,2-1,2.3C195.9,252.5,194.9,252.6,193.7,252.6z M184.6,249.9h8.4c-0.1-1.6-0.5-2.9-1.3-3.7
		c-0.7-0.8-1.7-1.2-2.9-1.2c-1.2,0-2.1,0.4-2.9,1.2S184.8,248.3,184.6,249.9z"/>
	<path class="st2" d="M203,249.6l-0.5-8.4c-0.1-1.6-0.2-2.8-0.2-3.5c0-1,0.2-1.7,0.7-2.3s1.1-0.8,2-0.8c1,0,1.6,0.3,2,1
		s0.5,1.7,0.5,3c0,0.8,0,1.6-0.1,2.4l-0.7,8.7c-0.1,1-0.3,1.8-0.5,2.4c-0.3,0.6-0.7,0.8-1.3,0.8c-0.6,0-1-0.3-1.3-0.8
		S203.1,250.7,203,249.6z M204.9,261.2c-0.7,0-1.3-0.2-1.8-0.7s-0.8-1.1-0.8-1.9c0-0.7,0.2-1.3,0.7-1.9s1.1-0.8,1.8-0.8
		c0.7,0,1.3,0.3,1.8,0.8c0.5,0.5,0.8,1.1,0.8,1.9c0,0.8-0.3,1.5-0.8,1.9C206.2,261,205.6,261.2,204.9,261.2z"/>
</g>
<path class="st2" d="M42.3,226H22.7c-3.2,0-5.9,2.6-5.9,5.9l0,0v35.3c0,3.2,2.6,5.9,5.9,5.9h19.6c3.3,0,5.9-2.6,5.9-5.9v0v-35.3
	C48.2,228.7,45.6,226,42.3,226z M22.7,230h19.6c1.1,0,2,0.9,2,2v33.3H20.8v-33.4C20.8,230.8,21.7,229.9,22.7,230L22.7,230z"/>
<path class="st2" d="M24.2,245.6c-0.8,0-1.5-0.7-1.5-1.5l0,0v-2.9c0-1.9,1.5-3.4,3.4-3.4h2.9c0.8,0,1.5,0.7,1.5,1.5
	s-0.7,1.5-1.5,1.5h-2.9c-0.3,0-0.5,0.2-0.5,0.5v2.9C25.7,245,25,245.6,24.2,245.6L24.2,245.6z"/>
<path class="st2" d="M40.8,245.6c-0.8,0-1.5-0.7-1.5-1.5l0,0v-2.9c0-0.3-0.2-0.5-0.5-0.5h-2.9c-0.8,0-1.5-0.7-1.5-1.5
	s0.7-1.5,1.5-1.5h2.9c1.9,0,3.4,1.5,3.4,3.4v2.9C42.3,245,41.7,245.6,40.8,245.6L40.8,245.6z"/>
<path class="st2" d="M29.1,257.4h-2.9c-1.9,0-3.4-1.5-3.4-3.4v-3c0-0.8,0.7-1.5,1.5-1.5s1.5,0.7,1.5,1.5v3c0,0.3,0.2,0.5,0.5,0.5
	h2.9c0.8,0,1.5,0.7,1.5,1.5S29.9,257.4,29.1,257.4L29.1,257.4z"/>
<path class="st2" d="M38.9,257.4h-2.9c-0.8,0-1.5-0.7-1.5-1.5s0.7-1.5,1.5-1.5h2.9c0.3,0,0.5-0.2,0.5-0.5v-3c0-0.8,0.7-1.5,1.5-1.5
	s1.5,0.7,1.5,1.5v3C42.3,255.9,40.8,257.4,38.9,257.4L38.9,257.4z"/>
</svg>
