<?xml version="1.0" encoding="utf-8"?>
<!-- Generator: Adobe Illustrator 25.2.1, SVG Export Plug-In . SVG Version: 6.00 Build 0)  -->
<svg version="1.1" id="Layer_1" xmlns="http://www.w3.org/2000/svg" xmlns:xlink="http://www.w3.org/1999/xlink" x="0px" y="0px"
	 viewBox="0 0 149 215.6" style="enable-background:new 0 0 149 215.6;" xml:space="preserve">
<style type="text/css">
	.st0{fill:#231F20;stroke:#231F20;stroke-width:6;stroke-miterlimit:10;}
	.st1{fill:#FFFFFF;stroke:#231F20;stroke-width:6;stroke-miterlimit:10;}
	.st2{enable-background:new    ;}
	.st3{fill:#FFFFFF;}
</style>
<path class="st0" d="M22,3h105c10.5,0,19,8.5,19,19v105c0,10.5-8.5,19-19,19H22c-10.5,0-19-8.5-19-19V22C3,11.5,11.5,3,22,3z"/>
<path class="st1" d="M25.6,10.6h97.7c8.3,0,15,6.7,15,15v97.7c0,8.3-6.7,15-15,15H25.6c-8.3,0-15-6.7-15-15V25.7
	C10.6,17.4,17.3,10.6,25.6,10.6z"/>
<polygon class="st0" points="74.5,159.3 67.1,150.6 59.7,141.9 74.5,141.9 89.3,141.9 81.9,150.6 "/>
<path class="st0" d="M12.2,172.6h124.6c5.1,0,9.2,4.1,9.2,9.2v21.6c0,5.1-4.1,9.2-9.2,9.2H12.2c-5.1,0-9.2-4.1-9.2-9.2v-21.6
	C3,176.7,7.1,172.6,12.2,172.6z"/>
<g class="st2">
	<path class="st3" d="M38.6,194.2c0,1.1-0.3,2.1-0.8,2.9c-0.6,0.9-1.4,1.5-2.4,2s-2.3,0.7-3.8,0.7c-1.8,0-3.2-0.3-4.4-1
		c-0.8-0.5-1.5-1.1-2-1.9c-0.5-0.8-0.8-1.6-0.8-2.3c0-0.4,0.2-0.8,0.5-1.1c0.3-0.3,0.7-0.5,1.2-0.5c0.4,0,0.7,0.1,1,0.4
		c0.3,0.2,0.5,0.6,0.7,1.1c0.2,0.6,0.5,1,0.7,1.4c0.3,0.4,0.6,0.7,1.1,0.9s1.1,0.4,1.9,0.4c1.1,0,1.9-0.3,2.6-0.8
		c0.7-0.5,1-1.1,1-1.9c0-0.6-0.2-1.1-0.5-1.4c-0.4-0.4-0.8-0.7-1.4-0.8c-0.6-0.2-1.3-0.4-2.3-0.6c-1.3-0.3-2.4-0.7-3.2-1.1
		c-0.9-0.4-1.6-1-2.1-1.6c-0.5-0.7-0.8-1.6-0.8-2.6c0-1,0.3-1.9,0.8-2.6c0.5-0.8,1.3-1.4,2.3-1.8c1-0.4,2.2-0.6,3.6-0.6
		c1.1,0,2,0.1,2.9,0.4c0.8,0.3,1.5,0.6,2,1.1c0.5,0.5,0.9,0.9,1.2,1.4s0.4,1,0.4,1.5c0,0.4-0.2,0.8-0.5,1.2
		c-0.3,0.3-0.7,0.5-1.1,0.5c-0.4,0-0.7-0.1-0.9-0.3c-0.2-0.2-0.5-0.5-0.7-1c-0.3-0.7-0.7-1.2-1.2-1.6c-0.5-0.4-1.2-0.6-2.2-0.6
		c-0.9,0-1.7,0.2-2.3,0.6c-0.6,0.4-0.9,0.9-0.9,1.5c0,0.4,0.1,0.7,0.3,0.9c0.2,0.3,0.5,0.5,0.8,0.7c0.3,0.2,0.7,0.3,1,0.4
		c0.3,0.1,0.9,0.3,1.7,0.5c1,0.2,1.9,0.5,2.7,0.8c0.8,0.3,1.5,0.6,2.1,1c0.6,0.4,1,0.9,1.3,1.5S38.6,193.3,38.6,194.2z"/>
	<path class="st3" d="M53.4,195.7c0,0.4-0.1,0.9-0.4,1.3c-0.2,0.5-0.6,0.9-1.1,1.3c-0.5,0.4-1.1,0.8-1.9,1c-0.8,0.3-1.6,0.4-2.6,0.4
		c-2.1,0-3.7-0.6-4.8-1.8c-1.2-1.2-1.7-2.8-1.7-4.8c0-1.4,0.3-2.6,0.8-3.6c0.5-1.1,1.3-1.9,2.3-2.4c1-0.6,2.2-0.9,3.6-0.9
		c0.9,0,1.7,0.1,2.4,0.4c0.7,0.3,1.3,0.6,1.8,1c0.5,0.4,0.9,0.8,1.1,1.3c0.3,0.5,0.4,0.9,0.4,1.3c0,0.4-0.1,0.7-0.4,1
		c-0.3,0.3-0.7,0.4-1.1,0.4c-0.3,0-0.5-0.1-0.7-0.2c-0.2-0.1-0.4-0.4-0.6-0.7c-0.4-0.6-0.8-1.1-1.3-1.4c-0.4-0.3-1-0.5-1.7-0.5
		c-1,0-1.8,0.4-2.4,1.2c-0.6,0.8-0.9,1.8-0.9,3.2c0,0.6,0.1,1.2,0.2,1.7s0.4,1,0.7,1.3c0.3,0.4,0.6,0.7,1.1,0.8s0.9,0.3,1.4,0.3
		c0.7,0,1.2-0.2,1.7-0.5c0.5-0.3,0.9-0.8,1.3-1.4c0.2-0.4,0.4-0.7,0.7-0.9c0.2-0.2,0.5-0.3,0.9-0.3c0.4,0,0.7,0.2,1,0.5
		C53.3,195,53.4,195.4,53.4,195.7z"/>
	<path class="st3" d="M64.8,198c-0.8,0.6-1.6,1.1-2.3,1.4c-0.8,0.3-1.6,0.5-2.5,0.5c-0.9,0-1.6-0.2-2.3-0.5
		c-0.6-0.3-1.1-0.8-1.5-1.4c-0.4-0.6-0.5-1.2-0.5-1.9c0-0.9,0.3-1.7,0.9-2.3c0.6-0.6,1.4-1.1,2.4-1.3c0.2,0,0.7-0.2,1.6-0.3
		c0.8-0.2,1.6-0.3,2.2-0.5c0.6-0.1,1.2-0.3,1.9-0.5c0-0.9-0.2-1.5-0.5-1.9c-0.3-0.4-1-0.6-1.9-0.6c-0.8,0-1.5,0.1-1.9,0.4
		c-0.4,0.2-0.8,0.6-1.1,1.1c-0.3,0.5-0.5,0.8-0.6,0.9c-0.1,0.2-0.4,0.2-0.8,0.2c-0.4,0-0.7-0.1-1-0.4c-0.3-0.2-0.4-0.5-0.4-0.9
		c0-0.6,0.2-1.2,0.6-1.7s1.1-1,1.9-1.4s2-0.5,3.3-0.5c1.5,0,2.6,0.2,3.5,0.5c0.8,0.3,1.4,0.9,1.8,1.6c0.3,0.8,0.5,1.7,0.5,3
		c0,0.8,0,1.4,0,2c0,0.5,0,1.2,0,1.8c0,0.6,0.1,1.3,0.3,2c0.2,0.7,0.3,1.1,0.3,1.3c0,0.3-0.2,0.7-0.5,0.9c-0.3,0.3-0.7,0.4-1.1,0.4
		c-0.3,0-0.7-0.2-1-0.5C65.5,199,65.1,198.6,64.8,198z M64.5,193.1c-0.5,0.2-1.2,0.4-2.1,0.6c-0.9,0.2-1.6,0.3-1.9,0.4
		c-0.4,0.1-0.7,0.3-1,0.6c-0.3,0.3-0.5,0.7-0.5,1.1c0,0.5,0.2,0.9,0.6,1.3c0.4,0.4,0.9,0.5,1.5,0.5c0.7,0,1.3-0.1,1.8-0.4
		c0.6-0.3,1-0.7,1.2-1.1c0.3-0.5,0.5-1.3,0.5-2.5V193.1z"/>
	<path class="st3" d="M74.2,188.1v0.4c0.6-0.8,1.2-1.3,1.9-1.7c0.7-0.4,1.5-0.5,2.4-0.5c0.9,0,1.7,0.2,2.4,0.6
		c0.7,0.4,1.2,0.9,1.5,1.6c0.2,0.4,0.4,0.8,0.4,1.3c0.1,0.5,0.1,1.1,0.1,1.8v6.2c0,0.7-0.2,1.2-0.5,1.5c-0.3,0.3-0.7,0.5-1.2,0.5
		c-0.5,0-0.9-0.2-1.2-0.5c-0.3-0.3-0.5-0.8-0.5-1.5v-5.6c0-1.1-0.2-1.9-0.5-2.5c-0.3-0.6-0.9-0.9-1.8-0.9c-0.6,0-1.1,0.2-1.6,0.5
		s-0.8,0.8-1.1,1.5c-0.2,0.5-0.2,1.4-0.2,2.8v4.2c0,0.7-0.2,1.2-0.5,1.5c-0.3,0.3-0.7,0.5-1.2,0.5c-0.5,0-0.9-0.2-1.2-0.5
		s-0.5-0.8-0.5-1.5v-9.6c0-0.6,0.1-1.1,0.4-1.4c0.3-0.3,0.7-0.5,1.1-0.5c0.3,0,0.6,0.1,0.8,0.2s0.4,0.3,0.6,0.6
		C74.2,187.4,74.2,187.7,74.2,188.1z"/>
	<path class="st3" d="M103.6,193.3v4.4c0,0.7-0.2,1.2-0.5,1.6s-0.7,0.5-1.3,0.5c-0.5,0-0.9-0.2-1.2-0.5c-0.3-0.3-0.5-0.9-0.5-1.6
		v-5.3c0-0.8,0-1.5-0.1-2c-0.1-0.5-0.2-0.8-0.5-1.1c-0.3-0.3-0.7-0.4-1.2-0.4c-1.1,0-1.8,0.4-2.2,1.1c-0.3,0.7-0.5,1.8-0.5,3.2v4.5
		c0,0.7-0.2,1.2-0.5,1.6s-0.7,0.5-1.2,0.5c-0.5,0-0.9-0.2-1.2-0.5c-0.3-0.4-0.5-0.9-0.5-1.6v-9.5c0-0.6,0.1-1.1,0.4-1.4
		c0.3-0.3,0.7-0.5,1.1-0.5c0.5,0,0.8,0.2,1.1,0.5c0.3,0.3,0.5,0.7,0.5,1.3v0.3c0.6-0.7,1.2-1.2,1.9-1.5s1.4-0.5,2.2-0.5
		c0.8,0,1.6,0.2,2.2,0.5s1.1,0.8,1.5,1.5c0.6-0.7,1.2-1.2,1.8-1.5s1.4-0.5,2.1-0.5c0.9,0,1.7,0.2,2.4,0.5s1.2,0.9,1.5,1.5
		c0.3,0.6,0.4,1.5,0.4,2.8v6.5c0,0.7-0.2,1.2-0.5,1.6s-0.7,0.5-1.3,0.5c-0.5,0-0.9-0.2-1.2-0.5c-0.3-0.4-0.5-0.9-0.5-1.6v-5.6
		c0-0.7,0-1.3-0.1-1.7c-0.1-0.4-0.2-0.8-0.5-1.1s-0.7-0.4-1.2-0.4c-0.4,0-0.9,0.1-1.3,0.4c-0.4,0.3-0.7,0.6-0.9,1
		C103.8,190.9,103.6,191.9,103.6,193.3z"/>
	<path class="st3" d="M124,193.9h-6.5c0,0.8,0.2,1.4,0.5,2c0.3,0.6,0.7,1,1.2,1.3s1,0.4,1.6,0.4c0.4,0,0.8,0,1.1-0.1
		c0.3-0.1,0.6-0.2,1-0.4c0.3-0.2,0.6-0.4,0.9-0.6c0.3-0.2,0.6-0.5,1-0.9c0.2-0.1,0.4-0.2,0.7-0.2c0.3,0,0.6,0.1,0.8,0.3
		s0.3,0.5,0.3,0.8c0,0.3-0.1,0.7-0.4,1.1c-0.2,0.4-0.6,0.8-1.1,1.2c-0.5,0.4-1.1,0.7-1.8,0.9c-0.7,0.2-1.5,0.4-2.5,0.4
		c-2.1,0-3.8-0.6-5-1.8s-1.8-2.9-1.8-5c0-1,0.1-1.9,0.4-2.7c0.3-0.8,0.7-1.6,1.3-2.2c0.6-0.6,1.3-1.1,2.1-1.4
		c0.8-0.3,1.7-0.5,2.7-0.5c1.3,0,2.4,0.3,3.4,0.8s1.6,1.3,2.1,2.1c0.5,0.9,0.7,1.8,0.7,2.7c0,0.8-0.2,1.4-0.7,1.6
		C125.5,193.8,124.8,193.9,124,193.9z M117.5,192h6c-0.1-1.1-0.4-2-0.9-2.6c-0.5-0.6-1.2-0.8-2.1-0.8c-0.8,0-1.5,0.3-2,0.9
		C117.9,190,117.6,190.9,117.5,192z"/>
</g>
</svg>
