<?xml version="1.0" encoding="utf-8"?>
<!-- Generator: Adobe Illustrator 25.2.1, SVG Export Plug-In . SVG Version: 6.00 Build 0)  -->
<svg version="1.1" id="Layer_1" xmlns="http://www.w3.org/2000/svg" xmlns:xlink="http://www.w3.org/1999/xlink" x="0px" y="0px"
	 viewBox="0 0 240.6 349.8" style="enable-background:new 0 0 240.6 349.8;" xml:space="preserve">
<style type="text/css">
	.st0{fill:#9E1F63;stroke:#9E1F63;stroke-width:6;stroke-miterlimit:10;}
	.st1{fill:#FFFFFF;stroke:#9E1F63;stroke-width:6;stroke-miterlimit:10;}
	.st2{enable-background:new    ;}
	.st3{fill:#FFFFFF;}
</style>
<path class="st0" d="M22,3h196.6c10.5,0,19,8.5,19,19v196.6c0,10.5-8.5,19-19,19H22c-10.5,0-19-8.5-19-19V22C3,11.5,11.5,3,22,3z"/>
<path class="st1" d="M30.5,15.5H210c8.3,0,15,6.7,15,15V210c0,8.3-6.7,15-15,15H30.5c-8.3,0-15-6.7-15-15V30.5
	C15.5,22.2,22.2,15.5,30.5,15.5z"/>
<polygon class="st0" points="120.3,259.4 108.1,245.1 95.9,230.8 120.3,230.8 144.6,230.8 132.5,245.1 "/>
<path class="st0" d="M12.2,281.2h216.2c5.1,0,9.2,4.1,9.2,9.2v47.2c0,5.1-4.1,9.2-9.2,9.2H12.2c-5.1,0-9.2-4.1-9.2-9.2v-47.2
	C3,285.3,7.1,281.2,12.2,281.2z"/>
<g class="st2">
	<path class="st3" d="M57.4,320c0,1.9-0.5,3.5-1.4,5c-1,1.5-2.4,2.6-4.2,3.5s-4,1.3-6.6,1.3c-3,0-5.5-0.6-7.5-1.7
		c-1.4-0.8-2.5-1.9-3.4-3.3c-0.9-1.4-1.3-2.7-1.3-4c0-0.8,0.3-1.4,0.8-1.9c0.5-0.5,1.2-0.8,2-0.8c0.7,0,1.2,0.2,1.7,0.6
		c0.5,0.4,0.8,1,1.2,1.9c0.4,1,0.8,1.8,1.3,2.5c0.5,0.7,1.1,1.2,1.9,1.6c0.8,0.4,1.9,0.6,3.3,0.6c1.8,0,3.3-0.4,4.5-1.3
		c1.2-0.9,1.7-1.9,1.7-3.2c0-1-0.3-1.9-0.9-2.5c-0.6-0.6-1.4-1.1-2.4-1.5c-1-0.3-2.3-0.7-4-1.1c-2.2-0.5-4.1-1.1-5.6-1.8
		c-1.5-0.7-2.7-1.6-3.5-2.8c-0.9-1.2-1.3-2.7-1.3-4.5c0-1.7,0.5-3.2,1.4-4.5s2.3-2.3,4-3c1.8-0.7,3.8-1.1,6.2-1.1
		c1.9,0,3.5,0.2,4.9,0.7c1.4,0.5,2.5,1.1,3.4,1.9c0.9,0.8,1.6,1.6,2,2.4s0.6,1.7,0.6,2.5c0,0.7-0.3,1.4-0.8,2
		c-0.5,0.6-1.2,0.9-2,0.9c-0.7,0-1.3-0.2-1.6-0.5c-0.4-0.4-0.8-0.9-1.2-1.8c-0.6-1.2-1.2-2.1-2-2.7c-0.8-0.7-2-1-3.8-1
		c-1.6,0-2.9,0.4-3.9,1.1c-1,0.7-1.5,1.6-1.5,2.6c0,0.6,0.2,1.1,0.5,1.6s0.8,0.8,1.4,1.2c0.6,0.3,1.2,0.6,1.8,0.8
		c0.6,0.2,1.6,0.4,3,0.8c1.7,0.4,3.3,0.9,4.7,1.3c1.4,0.5,2.6,1.1,3.6,1.8c1,0.7,1.8,1.6,2.3,2.7C57.1,317.1,57.4,318.4,57.4,320z"
		/>
	<path class="st3" d="M82.9,322.6c0,0.7-0.2,1.5-0.6,2.3c-0.4,0.8-1.1,1.6-2,2.3c-0.9,0.7-2,1.3-3.3,1.8c-1.3,0.4-2.8,0.7-4.5,0.7
		c-3.5,0-6.3-1-8.3-3.1c-2-2.1-3-4.8-3-8.3c0-2.4,0.5-4.4,1.4-6.2c0.9-1.8,2.2-3.2,3.9-4.2c1.7-1,3.8-1.5,6.2-1.5
		c1.5,0,2.8,0.2,4.1,0.7c1.2,0.4,2.3,1,3.1,1.7c0.9,0.7,1.5,1.4,2,2.2c0.5,0.8,0.7,1.5,0.7,2.2c0,0.7-0.3,1.3-0.8,1.7
		c-0.5,0.5-1.1,0.7-1.9,0.7c-0.5,0-0.9-0.1-1.2-0.4c-0.3-0.2-0.7-0.6-1.1-1.2c-0.7-1.1-1.4-1.9-2.2-2.4c-0.8-0.5-1.7-0.8-2.9-0.8
		c-1.7,0-3.1,0.7-4.1,2c-1,1.3-1.6,3.1-1.6,5.4c0,1.1,0.1,2.1,0.4,3c0.3,0.9,0.7,1.7,1.2,2.3c0.5,0.6,1.1,1.1,1.8,1.4
		s1.5,0.5,2.4,0.5c1.1,0,2.1-0.3,2.9-0.8c0.8-0.5,1.5-1.3,2.2-2.4c0.3-0.6,0.7-1.1,1.1-1.5c0.4-0.4,0.9-0.5,1.5-0.5
		c0.7,0,1.3,0.3,1.7,0.8S82.9,322,82.9,322.6z"/>
	<path class="st3" d="M102.3,326.5c-1.4,1.1-2.7,1.9-4,2.4c-1.3,0.5-2.7,0.8-4.4,0.8c-1.5,0-2.8-0.3-3.9-0.9c-1.1-0.6-2-1.4-2.6-2.4
		c-0.6-1-0.9-2.1-0.9-3.2c0-1.6,0.5-2.9,1.5-4s2.4-1.8,4.1-2.2c0.4-0.1,1.3-0.3,2.7-0.6c1.4-0.3,2.7-0.6,3.7-0.8
		c1-0.2,2.1-0.5,3.3-0.9c-0.1-1.5-0.4-2.6-0.9-3.3c-0.5-0.7-1.7-1.1-3.3-1.1c-1.5,0-2.6,0.2-3.3,0.6c-0.7,0.4-1.4,1-1.9,1.8
		c-0.5,0.8-0.9,1.3-1.1,1.6c-0.2,0.3-0.7,0.4-1.4,0.4c-0.6,0-1.2-0.2-1.7-0.6c-0.5-0.4-0.7-0.9-0.7-1.6c0-1,0.4-2,1.1-2.9
		c0.7-1,1.8-1.7,3.3-2.4c1.5-0.6,3.4-0.9,5.6-0.9c2.5,0,4.5,0.3,5.9,0.9c1.4,0.6,2.5,1.5,3.1,2.8c0.6,1.3,0.9,3,0.9,5.1
		c0,1.3,0,2.5,0,3.4c0,0.9,0,2,0,3.1c0,1.1,0.2,2.2,0.5,3.4c0.4,1.2,0.5,1.9,0.5,2.3c0,0.6-0.3,1.1-0.8,1.6
		c-0.6,0.5-1.2,0.7-1.9,0.7c-0.6,0-1.2-0.3-1.7-0.8C103.6,328.4,103,327.6,102.3,326.5z M102,318.2c-0.8,0.3-2.1,0.6-3.7,1
		c-1.6,0.3-2.7,0.6-3.3,0.8c-0.6,0.2-1.2,0.5-1.8,0.9c-0.6,0.5-0.8,1.1-0.8,2c0,0.9,0.3,1.6,1,2.2c0.7,0.6,1.5,0.9,2.6,0.9
		c1.1,0,2.2-0.2,3.1-0.7s1.7-1.1,2.1-1.9c0.5-0.9,0.8-2.3,0.8-4.3V318.2z"/>
	<path class="st3" d="M118.6,309.6v0.7c1-1.3,2.1-2.3,3.3-2.9c1.2-0.6,2.6-0.9,4.1-0.9c1.5,0,2.9,0.3,4.1,1s2.1,1.6,2.7,2.8
		c0.4,0.7,0.6,1.5,0.7,2.3c0.1,0.8,0.2,1.8,0.2,3.1v10.7c0,1.1-0.3,2-0.8,2.6c-0.5,0.6-1.2,0.9-2,0.9c-0.9,0-1.5-0.3-2.1-0.9
		s-0.8-1.5-0.8-2.6v-9.6c0-1.9-0.3-3.3-0.8-4.3c-0.5-1-1.6-1.5-3.1-1.5c-1,0-2,0.3-2.8,0.9c-0.8,0.6-1.5,1.4-1.8,2.5
		c-0.3,0.9-0.4,2.4-0.4,4.8v7.2c0,1.2-0.3,2-0.8,2.6c-0.5,0.6-1.2,0.9-2.1,0.9c-0.8,0-1.5-0.3-2-0.9c-0.5-0.6-0.8-1.5-0.8-2.6v-16.6
		c0-1.1,0.2-1.9,0.7-2.4c0.5-0.5,1.1-0.8,2-0.8c0.5,0,1,0.1,1.4,0.4c0.4,0.2,0.7,0.6,1,1.1C118.5,308.3,118.6,308.9,118.6,309.6z"/>
	<path class="st3" d="M169.2,318.5v7.6c0,1.2-0.3,2.1-0.8,2.7s-1.3,0.9-2.2,0.9c-0.9,0-1.6-0.3-2.1-0.9c-0.5-0.6-0.8-1.5-0.8-2.7
		V317c0-1.4,0-2.6-0.1-3.4s-0.4-1.5-0.8-2s-1.1-0.8-2.1-0.8c-1.9,0-3.1,0.6-3.7,1.9c-0.6,1.3-0.9,3.1-0.9,5.5v7.7
		c0,1.2-0.3,2.1-0.8,2.7c-0.5,0.6-1.2,0.9-2.1,0.9c-0.9,0-1.6-0.3-2.1-0.9c-0.6-0.6-0.8-1.5-0.8-2.7v-16.4c0-1.1,0.2-1.9,0.7-2.5
		c0.5-0.6,1.2-0.8,2-0.8c0.8,0,1.4,0.3,2,0.8c0.5,0.5,0.8,1.2,0.8,2.2v0.5c1-1.2,2.1-2.1,3.2-2.6c1.1-0.6,2.4-0.8,3.8-0.8
		c1.4,0,2.7,0.3,3.7,0.9c1,0.6,1.9,1.4,2.6,2.6c1-1.2,2-2,3.1-2.6c1.1-0.6,2.3-0.8,3.7-0.8c1.6,0,2.9,0.3,4.1,0.9
		c1.1,0.6,2,1.5,2.5,2.6c0.5,1,0.7,2.7,0.7,4.9v11.2c0,1.2-0.3,2.1-0.8,2.7s-1.3,0.9-2.2,0.9c-0.9,0-1.6-0.3-2.1-0.9
		c-0.6-0.6-0.8-1.5-0.8-2.7v-9.6c0-1.2-0.1-2.2-0.2-3c-0.1-0.7-0.4-1.4-0.9-1.9s-1.2-0.8-2.1-0.8c-0.8,0-1.5,0.2-2.2,0.7
		c-0.7,0.4-1.2,1-1.6,1.8C169.4,314.4,169.2,316.1,169.2,318.5z"/>
	<path class="st3" d="M204.2,319.5H193c0,1.3,0.3,2.4,0.8,3.4c0.5,1,1.2,1.7,2,2.2s1.8,0.8,2.8,0.8c0.7,0,1.3-0.1,1.9-0.2
		c0.6-0.2,1.1-0.4,1.6-0.8s1-0.7,1.5-1.1s1-0.9,1.7-1.6c0.3-0.3,0.7-0.4,1.3-0.4c0.6,0,1.1,0.2,1.4,0.5c0.4,0.3,0.5,0.8,0.5,1.4
		c0,0.5-0.2,1.1-0.6,1.8c-0.4,0.7-1,1.4-1.8,2c-0.8,0.6-1.8,1.2-3.1,1.6c-1.2,0.4-2.7,0.6-4.3,0.6c-3.7,0-6.5-1.1-8.6-3.2
		c-2-2.1-3.1-4.9-3.1-8.5c0-1.7,0.3-3.3,0.8-4.7c0.5-1.4,1.2-2.7,2.2-3.7s2.2-1.8,3.6-2.4s3-0.8,4.7-0.8c2.2,0,4.2,0.5,5.8,1.4
		c1.6,0.9,2.8,2.2,3.6,3.7c0.8,1.5,1.2,3,1.2,4.6c0,1.4-0.4,2.4-1.2,2.8S205.7,319.5,204.2,319.5z M193,316.2h10.4
		c-0.1-2-0.7-3.4-1.6-4.4c-0.9-1-2.1-1.5-3.6-1.5c-1.4,0-2.6,0.5-3.5,1.5C193.7,312.9,193.2,314.3,193,316.2z"/>
</g>
</svg>
