<svg id="Layer_1" data-name="Layer 1" xmlns="http://www.w3.org/2000/svg" viewBox="0 0 160 160"><path d="M46.44,30l0-.07c0-.16-.13-.25-.4-.26A4.14,4.14,0,0,1,45,28.63a5.16,5.16,0,0,1-.72-1.16.83.83,0,0,1-.07-.26.2.2,0,0,1,.09-.18l.24-.12.22-.08a1.3,1.3,0,0,1,.65-.29c.16,0,.29.1.4.31a2.61,2.61,0,0,0,1.08,1,3.36,3.36,0,0,0,1.65.4A3.59,3.59,0,0,0,50,28a.9.9,0,0,0,.62-.84,1.94,1.94,0,0,0-.36-1,.66.66,0,0,0-.16-.26,2.47,2.47,0,0,0-.29-.24,8.4,8.4,0,0,1-.84-.74,5.76,5.76,0,0,1-.79-.39l-.5-.24a6,6,0,0,1-1.34-.92,4.06,4.06,0,0,1-1-1.18,2,2,0,0,1-.53-1.53,4.4,4.4,0,0,1,.53-2.11,10.34,10.34,0,0,1,1.39-2,8.47,8.47,0,0,1,1.63-1.67l.62-.6a.13.13,0,0,1,.07-.11h.07l.5-.23a3.12,3.12,0,0,0,.91-.63,14.36,14.36,0,0,1,2.6-1A7.72,7.72,0,0,1,55,12a3.07,3.07,0,0,1,1.74.67,2.27,2.27,0,0,1,.92,1.44,2.33,2.33,0,0,1,0,.38,3.76,3.76,0,0,1-.72,2A4.61,4.61,0,0,1,55.44,18a1.53,1.53,0,0,1-.7.17,1,1,0,0,1-.65-.21.62.62,0,0,1-.23-.55,1.08,1.08,0,0,1,.15-.5,6.87,6.87,0,0,1,.71-.89,3.89,3.89,0,0,0,.81-1.73c0-.24-.14-.38-.43-.43a4.42,4.42,0,0,0-1.42.21c-.78.18-1.16.31-1.16.39s0,.05,0,.09,0,.05-.09,0a8,8,0,0,0-1.35.79,7.14,7.14,0,0,0-1.3.93.56.56,0,0,1-.18.26,1.72,1.72,0,0,1-.38.22,3.06,3.06,0,0,0-.77.72,13,13,0,0,0-.9,1.44,3.91,3.91,0,0,0-.47.88,2.5,2.5,0,0,0-.18.86,1.53,1.53,0,0,0,.07.46,1.27,1.27,0,0,0,.52.66c.28.2.82.54,1.62,1a18.73,18.73,0,0,1,2.2,1.48,4.26,4.26,0,0,1,1.19,1.23A2.43,2.43,0,0,1,52.88,27a4.66,4.66,0,0,1-.19,1.31,3.91,3.91,0,0,1-.56.85c-.22.26-.42.39-.59.37a1.74,1.74,0,0,0-.41.18,1.77,1.77,0,0,1-.29.16,5.56,5.56,0,0,1-1.47.34,11,11,0,0,1-2,.16Z"/><path d="M57.23,28.91a2.58,2.58,0,0,1-1.73-.64,2,2,0,0,1-.76-1.61l0-.39a8.38,8.38,0,0,1,.5-2.6,8,8,0,0,1,1.25-2.42c.4-.46.74-.84,1-1.13a2.58,2.58,0,0,1,.79-.57,5.31,5.31,0,0,1,.79-.22,4.21,4.21,0,0,1,.71-.09,4.38,4.38,0,0,1,.9.33q.42.22.42.48l.12.12c.11,0,.24.18.4.53a2.45,2.45,0,0,1,.22,1,.73.73,0,0,1-.07.35,2.63,2.63,0,0,1-.37.89c-.18.29-.34.43-.47.43s-.26.05-.26.14-.1.12-.29.12a1.35,1.35,0,0,1-.5-.1c-.18-.08-.28-.17-.31-.28a8,8,0,0,1,.19-1,2.9,2.9,0,0,0,.07-.59c0-.29-.09-.44-.29-.44a2.39,2.39,0,0,0-.35.1,3.22,3.22,0,0,0-1,.78,4.49,4.49,0,0,0-.66,1.21c-.19.51-.41,1.25-.67,2.22a2.67,2.67,0,0,0-.07.53,1.5,1.5,0,0,0,.07.47c.05.12.1.18.15.2a1.34,1.34,0,0,0,.43.05,1.8,1.8,0,0,0,1-.22,8.39,8.39,0,0,0,.83-.54l.51-.37a2.77,2.77,0,0,0,.19-.27.73.73,0,0,1,.31-.3.57.57,0,0,1,.36-.27,2.09,2.09,0,0,1,.43,0h.29a1.26,1.26,0,0,1,.59.43c.2.22.23.36.1.43a.11.11,0,0,0-.1.05.25.25,0,0,0,0,.07c0,.08-.1.29-.38.63a8.87,8.87,0,0,1-1,1c-.35.32-.59.47-.72.47l-.17,0a.13.13,0,0,0-.07.12c0,.07-.24.22-.73.45a5.4,5.4,0,0,1-1.18.44A3.31,3.31,0,0,1,57.23,28.91Z"/><path d="M63.67,27.88c-.22-.16-.33-.26-.33-.29a.65.65,0,0,0-.11-.27L63,27c-.13-.12,0-.54.26-1.24s.71-1.53,1.22-2.49a3.57,3.57,0,0,0,.37-.5,1.77,1.77,0,0,1,.3-.41.27.27,0,0,1,.07-.18.2.2,0,0,1,.17-.08l.19-.39a5.89,5.89,0,0,1,.93-1,8.29,8.29,0,0,1,1.32-1.1,1.75,1.75,0,0,1,1-.31,1.46,1.46,0,0,1,1,.34l.65.55.81.69.89.79-.41,1.2a4,4,0,0,0-.21,1.22,3.07,3.07,0,0,0,.5,1.7,1.11,1.11,0,0,0,.32.41,1.49,1.49,0,0,0,.54.19c.35.06.53.24.53.52a1.39,1.39,0,0,1-.19.79.84.84,0,0,1-.46.34l-.53.05A2.31,2.31,0,0,1,71,27.69a2.94,2.94,0,0,1-1-1.22,3.42,3.42,0,0,1-.25-.53,2.92,2.92,0,0,1-.18-.53A5.75,5.75,0,0,1,69,26c-1.64,1.66-3,2.48-4,2.48a1.63,1.63,0,0,1-.93-.26A1.55,1.55,0,0,0,63.67,27.88Zm3.21-2.47.26-.22.31-.28a12.84,12.84,0,0,0,1-.92,8.12,8.12,0,0,0,.76-.9l.52-.86a2.19,2.19,0,0,0-.43-.71.54.54,0,0,0-.38-.18c-.32,0-.72.29-1.2.85A20.24,20.24,0,0,0,66,24.77a4.87,4.87,0,0,0-.43.89c-.11.32-.18.52-.22.61C65.65,26.31,66.14,26,66.88,25.41Z"/><path d="M82.75,25.13c0,.14-.1.45-.21.92a9.29,9.29,0,0,0-.18,1.06,1.49,1.49,0,0,0,.11.54,1.9,1.9,0,0,1,.11.32.66.66,0,0,1-.22.47.72.72,0,0,1-.55.23,1.31,1.31,0,0,1-1-.52,2.06,2.06,0,0,1-.43-1.35,12.88,12.88,0,0,1,.53-2.68c0-.17.06-.31.08-.39a.74.74,0,0,0,0-.23c0-.08,0-.12-.07-.12a.91.91,0,0,0-.48.23l-.67.51-.6.5a17.45,17.45,0,0,0-1.6,1.32c-.11.08-.38.3-.8.66a3.27,3.27,0,0,1-.73.54,1.43,1.43,0,0,1-.42-.16,2.38,2.38,0,0,1-.6-.39.71.71,0,0,1-.28-.55,7.93,7.93,0,0,1,.43-1.66,22,22,0,0,1,1-2.53,4.26,4.26,0,0,0,.17-.72,2,2,0,0,1,.31-1.08.45.45,0,0,1,.41-.24,1.2,1.2,0,0,1,.9.48,1.56,1.56,0,0,1,.42,1.05,3.5,3.5,0,0,1-.23,1.07,3.24,3.24,0,0,1-.33.78,3.68,3.68,0,0,0,.3-.25,5.1,5.1,0,0,1,.61-.45A13.82,13.82,0,0,1,80,21.64a6.47,6.47,0,0,0,.57-.34l.15-.11.09,0,.27-.1a.91.91,0,0,1,.33-.09,1.45,1.45,0,0,1,.75.25c.26.17.4.34.4.52s0,.13.16.25a1.48,1.48,0,0,1,.29.43,1.83,1.83,0,0,1,.12.75A12.92,12.92,0,0,1,82.75,25.13Z"/><path d="M107.4,15.41a12.44,12.44,0,0,0-.37,1.52,7,7,0,0,0-.13,1.21l0,.24a4.12,4.12,0,0,0-.24.95,4.83,4.83,0,0,1-.09.52.43.43,0,0,1-.17.25,1.61,1.61,0,0,0,0,.31,2.6,2.6,0,0,1,0,.36v.29a27.56,27.56,0,0,0-.45,4.62,7.12,7.12,0,0,0,.15,1.65c.11.4.24.61.42.64a.08.08,0,0,1,.07,0s0,.05,0,.12a1.11,1.11,0,0,1-.16.57,2.9,2.9,0,0,1-.35.49l-.28.33a1.11,1.11,0,0,0-.11.16.19.19,0,0,1-.18.1,2.74,2.74,0,0,1-.6-.12,1.14,1.14,0,0,0-.45-.35,1.46,1.46,0,0,1-.63-.82,6.52,6.52,0,0,1-.24-2.11,5.55,5.55,0,0,1,0-.65v-.07a1.83,1.83,0,0,1,0-.4,19.34,19.34,0,0,1,.26-2.79c.16-1.13.34-2.14.53-3.05q.19-.82.51-2c.2-.83.31-1.28.31-1.35l0,0A11.5,11.5,0,0,1,104.24,18c-.73,1.23-1.18,2-1.34,2.19a7.53,7.53,0,0,0-.45.86l-.67,1.39c-1.31,1.94-2.32,2.92-3,2.92a1.24,1.24,0,0,1-1.3-.72,3.91,3.91,0,0,1-.33-1.27c0-.37,0-.59,0-.67a3.61,3.61,0,0,0,0-.62v-.26a3.41,3.41,0,0,1,.06-.4c0-.21.07-.46.1-.73,0-.1.08-.59.24-1.48a13.51,13.51,0,0,0,.34-2.09.17.17,0,0,0,0-.12V17a2,2,0,0,1-.28.53,8.74,8.74,0,0,0-.83,1.34c-.31.59-.75,1.47-1.33,2.66-.11.2-.28.55-.5,1a10.09,10.09,0,0,1-1,2.71l-.21.55c-.48,1.2-.86,2.07-1.14,2.62s-.49.82-.63.8a1.34,1.34,0,0,1-.5-.24,3.27,3.27,0,0,1-.7-.59,1.09,1.09,0,0,1-.31-.72s.14-.32.41-.86c.44-.91.69-1.46.74-1.63s0-.15.06-.27a4,4,0,0,1,.51-.86,3.31,3.31,0,0,1,.23-.73c.15-.39.36-.84.61-1.35a1,1,0,0,0,.19-.55,4.58,4.58,0,0,0,.55-1.17c.08-.23.17-.44.25-.65a1.73,1.73,0,0,1,.28-.48,1.07,1.07,0,0,0,.24-.34l.26-.47c.53-.93.94-1.61,1.22-2.06l.29-.53c.06-.17.12-.27.18-.28a8.37,8.37,0,0,0,.78-1.32c.72-1,1.13-1.51,1.24-1.51a1.63,1.63,0,0,1,.52.17,3.25,3.25,0,0,1,.67.41c.2.16.3.3.3.43s0,.18,0,.4,0,.47,0,.72q0,.93-.79,6.23l-.12.76c0,.05,0,.14.08.28a2,2,0,0,1,0,.44c.21-.32.4-.57.55-.77a12.91,12.91,0,0,0,.89-1.43.46.46,0,0,1,.08-.24,3.16,3.16,0,0,0,.18-.27,2.42,2.42,0,0,0,.3-.43.71.71,0,0,0,.11-.4c.45-.64.85-1.25,1.2-1.82A28.63,28.63,0,0,1,105,13.54a1.52,1.52,0,0,1,.51-.24,2.61,2.61,0,0,1,.66-.09,1.33,1.33,0,0,1,1,.39,1.42,1.42,0,0,1,.36,1A2.84,2.84,0,0,1,107.4,15.41Z"/><path d="M108.09,26.08a7,7,0,0,1,.57-2.55A10.91,10.91,0,0,1,110.07,21a4.74,4.74,0,0,1,1.69-1.52,2.2,2.2,0,0,1,1-.24,3.69,3.69,0,0,1,1.88.47,1.87,1.87,0,0,1,.8,1.76,3.38,3.38,0,0,1-.5,1.63,5.23,5.23,0,0,1-1.26,1.49,2.33,2.33,0,0,1-1.47.61,2.56,2.56,0,0,1-1.82-.69A3.49,3.49,0,0,0,110,26a2.29,2.29,0,0,0,.15.92c.09.21.32.32.67.32a2.07,2.07,0,0,0,.81-.14,3.18,3.18,0,0,0,.57-.34l.41-.29.1,0h0l.64-.37a1.42,1.42,0,0,1,.34-.18,1.21,1.21,0,0,1,.68.21.64.64,0,0,1,.31.53,1.69,1.69,0,0,1-.43.78,2.72,2.72,0,0,1-.89.75l-.29.14h0c-.15.19-.29.29-.43.29h-.2c-.06.13-.27.26-.63.38a3,3,0,0,1-1,.19C109,29.19,108.09,28.16,108.09,26.08Zm5.09-3.23a1.83,1.83,0,0,0,.44-1.15.91.91,0,0,0-.13-.48.4.4,0,0,0-.35-.21,1.61,1.61,0,0,0-.91.38,3.64,3.64,0,0,0-.88,1l-.31.5a.39.39,0,0,1,.14,0,.31.31,0,0,1,.29.17,1.27,1.27,0,0,0,.21.29.54.54,0,0,0,.39.12A1.35,1.35,0,0,0,113.18,22.85Z"/><path d="M16.94,55a2,2,0,0,1-2-2V32.26a9.89,9.89,0,0,1,9.88-9.87H34a2,2,0,0,1,0,4H24.82a5.88,5.88,0,0,0-5.88,5.87V53A2,2,0,0,1,16.94,55Z"/><path d="M143.06,55a2,2,0,0,1-2-2V32.26a5.88,5.88,0,0,0-5.88-5.87H126a2,2,0,0,1,0-4h9.18a9.89,9.89,0,0,1,9.88,9.87V53A2,2,0,0,1,143.06,55Z"/><path d="M45.58,152.5H24.82a9.89,9.89,0,0,1-9.88-9.87V121.87a2,2,0,0,1,4,0v20.76a5.88,5.88,0,0,0,5.88,5.87H45.58a2,2,0,0,1,0,4Z"/><path d="M135.18,152.5H114.42a2,2,0,0,1,0-4h20.76a5.88,5.88,0,0,0,5.88-5.87V121.87a2,2,0,0,1,4,0v20.76A9.89,9.89,0,0,1,135.18,152.5Z"/></svg>