<?xml version="1.0" encoding="UTF-8"?>
<svg xmlns="http://www.w3.org/2000/svg" viewBox="0 0 500 500">
  <defs>
    <style>
      .cls-1, .cls-2 {
        fill: #f8aeac;
      }

      .cls-1, .cls-2, .cls-3, .cls-4, .cls-5, .cls-6, .cls-7, .cls-8, .cls-9, .cls-10, .cls-11, .cls-12, .cls-13 {
        stroke-width: 0px;
      }

      .cls-1, .cls-8, .cls-9, .cls-13 {
        mix-blend-mode: multiply;
      }

      .cls-1, .cls-13 {
        opacity: .5;
      }

      .cls-3 {
        fill: #180d0d;
      }

      .cls-14 {
        isolation: isolate;
      }

      .cls-4 {
        fill: #f59492;
      }

      .cls-5 {
        fill: #feeeed;
      }

      .cls-6 {
        fill: #f5f5f5;
      }

      .cls-7 {
        fill: #fdf1f0;
      }

      .cls-8 {
        fill: #d9d9d9;
      }

      .cls-9 {
        fill: #f2f2f2;
      }

      .cls-10 {
        fill: #fff;
      }

      .cls-11, .cls-13 {
        fill: #c82f27;
      }

      .cls-12 {
        fill: #f26c68;
      }
    </style>
  </defs>
  <g class="cls-14">
    <g id="Layer_1" data-name="Layer 1">
      <g>
        <g>
          <path class="cls-6" d="m251.74,478.74c-12.5,0-42.57-3.64-51.46-10.82-.19-.15-.37-.3-.56-.45-6.06,3.6-12.72,5.43-19.84,5.43-2.6,0-5.27-.25-7.95-.75-16.36-3.04-28.69-13.01-35.67-28.83-.83-1.88-1.51-3.84-2.05-5.85-.43.02-.87.02-1.3.02-9.87,0-18.62-4.02-25.31-11.63-4.49-5.11-7.21-11.49-8.31-19.5-.5-3.69-.46-7.56.12-11.85.04-.3.09-.6.14-.9-2.8-1.18-5.39-2.89-7.69-5.13-5.13-4.97-8.09-11.39-8.55-18.56-.49-7.61,10.24-15.97,4.96-21.57-7.95-8.45,11.5-90.61,28.04-89.46-3.09-4.83-3.96-10.76-2.45-16.74,1.18-4.67,3.5-8.14,5.14-10.34,3.08-4.13,6.91-7.79,12.05-11.52,1.35-.98,2.7-1.88,4.04-2.72-1.84-2.53-3.44-5.18-4.8-7.93-.77-.21-1.54-.44-2.3-.68-1.07-.34-2.13-.74-3.16-1.22-.98.35-1.99.66-3.01.93-2.5.65-4.69.78-6.3.88l-.9.06h-.4c-8.85,0-16.87-3.28-23.17-9.46-8.95-8.76-12.95-20.31-11.56-33.4.98-9.29,5.13-17.62,12-24.08,6.24-5.87,13.76-8.98,21.75-8.98,3.5,0,7.08.6,10.64,1.77,2.61.86,5.07,2.02,7.36,3.47,1.28-5.06,3.07-10.06,5.36-14.93,7.01-14.94,15.56-26.74,26.15-36.06,13.15-11.58,26.3-19.68,40.21-24.76,11.08-4.05,22.8-6.47,35.85-7.41,3.02-.22,6.13-.33,9.24-.33,10.37,0,21.48,1.21,33.97,3.7,11.56,2.3,22.44,6.07,32.34,11.19,12.87,6.65,23.31,15.57,31.04,26.49,8.35,11.8,13.43,24.34,15.12,37.27.46,3.57.59,7.22.38,11.11.4,2.77.56,5.58.45,8.37-.13,3.39-.44,6.57-.93,9.57,9.21,3.61,15.65,11.97,16.85,22.68.88,7.79-.49,15.26-4.05,22.2l-.56,1.09c-1.33,2.62-2.83,5.56-4.9,8.47.62.39,1.24.79,1.86,1.2,6.2,4.12,10.99,8.57,14.66,13.61,2.03,2.79,3.48,5.64,4.43,8.69,1.12,3.6,1.27,7.29.45,10.96-.58,2.57-1.46,4.85-2.63,6.84,14.01-1.85,37.95,77.72,27.1,87.78-5.23,4.84,5.7,12.6,6,19.33.02.43.02.88.02,1.33.03,2.11-.16,4.24-.59,6.31l-.09.41c-.14.64-.28,1.18-.43,1.72-.1.35-.24.81-.38,1.25l-.17.48c-.86,2.43-2.02,4.71-3.47,6.81-2.93,4.33-6.75,7.51-11.16,9.36.52,2.8.71,5.72.57,8.75,0,.2-.05.9-.05.9l-.04.58h0c-.18,2.56-.61,5.1-1.27,7.57-1.43,5.68-3.92,10.55-7.4,14.49-6.01,7.2-14.42,11.22-24.33,11.62-.46.02-.91.03-1.37.03-.34,0-.67,0-1.01-.02-.25.87-.53,1.73-.84,2.6-1.35,3.76-3.15,7.37-5.33,10.75-.34.54-.77,1.19-1.21,1.82l-.1.14c-.18.27-.36.53-.55.78-5.69,7.79-13.26,13.34-22.5,16.52-1.09.39-2.35.77-3.64,1.09-.75.2-1.5.4-2.28.57-3.1.68-6.19,1.02-9.21,1.02-7.06,0-13.74-1.83-19.92-5.44-2.68,2.11-5.21,3.81-7.84,5.28-4.45,2.48-27.95,4.01-32.29,4.67-.82.12-1.64.27-2.47.42l-.88.16-.26.04c-2.15.37-4.47.7-6.98.71h-.43Z"/>
          <g>
            <path class="cls-11" d="m143.82,199.68c-4.2-.14-8.22-.95-12.18-2.2-2.22-.7-4.18-1.86-5.95-3.36-.83-.7-1.25-1.55-1.31-2.67-.22-4.66.62-9.15,2.22-13.49,1-2.73,2.45-3.43,5.39-3.03,1.25.17,2.47.52,3.72.6,2.35.14,3.36-.65,3.85-2.96.29-1.34.47-2.72.58-4.09.3-3.54.57-7.09.78-10.64.67-11.61,3.69-22.51,8.99-32.91,7.86-15.4,19.13-27.57,33.25-37.4,13.11-9.13,27.44-15.15,43.14-17.9,8.38-1.47,16.85-1.95,25.35-1.72,14.98.41,29.63,2.79,43.82,7.68,9.71,3.35,18.76,8.02,26.75,14.54,7.82,6.39,14.15,14.03,18.68,23.11,2.87,5.76,5.21,11.68,6.55,18.04,1.67,7.92,1.33,15.72-.45,23.53-1.33,5.83-3.43,11.41-5.82,16.88-.59,1.36-1.36,2.66-2.19,3.89-.5.73-1.23,1.35-1.96,1.88-.85.63-1.73.48-2.46-.3-.31-.33-.59-.71-.81-1.1-.28-.5-.53-1.02-.74-1.55-2.97-7.59-7.86-13.93-13.02-20.12-7.89-9.49-17.56-16.73-28.22-22.77-4.96-2.81-10.33-4.39-15.9-5.25-5.2-.8-10.44-1.47-15.69-1.89-5.72-.46-11.44-.42-17.18.19-4.22.45-8.41,1.04-12.55,1.98-6.77,1.53-13.06,4.28-18.97,7.85-7,4.22-13.48,9.14-19.17,15.04-4.56,4.72-8.67,9.79-12.02,15.44-2.57,4.34-5.11,8.7-7.67,13.05-2.69,4.56-5.68,8.89-9.35,12.73-3.73,3.9-8.14,6.7-13.4,8-1.98.49-4.06.62-6.09.92Z"/>
            <path class="cls-2" d="m332.81,178.18c2.21-1.44,4.22-2.71,6.47-3.6,2.05-.81,4.12-1.39,6.34-1.34,1.84.04,3.68-.06,5.51.07,8.79.6,13.42,7.1,14.18,13.88.6,5.35-.3,10.5-2.79,15.35-1.52,2.96-2.95,5.96-4.96,8.64-4.95,6.59-11.44,10.41-19.71,11.09-.68.06-1.37.13-2.04.27-1.71.36-3.4.36-5.11-.08-.66-.17-1.36-.22-2.04-.29-.86-.09-1.61,0-1.82,1.07-.16.83-.72,1.42-1.28,2-5.56,5.81-11.32,11.38-18.07,15.83-6.86,4.52-14.23,7.84-22.16,9.96-4.42,1.18-8.82,2.45-13.37,3.08-3.06.42-6.12.78-9.19,1.16-1.59.19-3.18.39-4.78.51-2.18.17-4.36-.35-6.51-.27-2.17.08-4.38.57-6.5.22-3.17-.53-6.38-.54-9.56-.96-4.21-.55-8.37-1.27-12.48-2.3-7.68-1.93-15.22-4.25-22.18-8.19-6.02-3.4-11.62-7.35-16.6-12.16-2.06-1.99-4.09-4.03-6.1-6.07-.88-.89-1.86-1.72-2.16-3.04-.15-.66-.66-.87-1.29-.87-.23,0-.47-.02-.69.04-3.06.84-6.1.45-9.19.09-7.55-.87-13.77-4.09-18.53-10-4.16-5.17-7.05-10.99-8.41-17.5-.76-3.64-.73-7.33.43-10.88,1.97-6.04,6.87-10.11,13.45-10.59,1.14-.08,2.29-.03,3.44-.09,5.13-.25,9.71,1.23,13.82,4.3,1.07.8,1.61.63,2.05-.57.82-2.26,1.55-4.55,2.41-6.8,2.46-6.48,6.08-12.3,10.2-17.86,6.91-9.31,15.67-16.36,25.98-21.5,6.8-3.39,14-5.67,21.47-7.07,4.39-.83,8.82-1.33,13.3-1.42,2.17-.04,4.35-.54,6.5-.43,5.03.25,10.05.52,15.07,1.01,6.56.65,12.84,2.3,19.01,4.43,8.65,2.99,16.49,7.45,23.44,13.41,10.6,9.09,18.01,20.36,22.67,33.49.45,1.28.6,2.71,1.77,3.99Zm-127.53,55.04c4.55-.13,9.06-1.15,12.77-4.48,4.63-4.15,6.27-9.51,5.95-15.5-.2-3.78-1.23-7.44-2.86-10.91-4.3-9.14-11.24-15.57-20.36-19.61-4.99-2.21-10.26-3.08-15.77-1.87-6.51,1.43-11.7,6.59-13.18,13.07-1.06,4.65-.53,9.15.96,13.54,3.16,9.28,9.09,16.36,17.56,21.28,4.52,2.63,9.37,4.26,14.92,4.47Zm92.13-.04c4.43.11,10.25-1.67,14.42-4,8.12-4.53,13.91-11.13,17.5-19.66,1.58-3.74,2.44-7.67,2.2-11.73-.71-12.21-9.93-18.39-20.73-17.34-4.22.41-8.2,1.8-12,3.9-6.71,3.73-12.02,8.8-15.76,15.44-3.27,5.82-5.01,12.06-3.78,18.81,1.11,6.05,4.38,10.54,10.1,13,2.53,1.09,5.23,1.69,8.04,1.59Zm-13.5-96.48c-2.54-.13-5.95.79-9.17,2.41-2.74,1.38-4.83,3.47-6.05,6.34-1.55,3.66.62,6.8,4.23,6.62,1.37-.07,2.75-.05,4.09-.47.87-.27,1.79-.41,2.68-.62,4.5-1.05,8.38.21,11.79,3.17.78.68,1.48,1.44,2.22,2.16,1.01.98,2.2,1.64,3.52,2.11,3.97,1.41,7.82-1.11,8.15-5.31.07-.92-.08-1.81-.35-2.7-.64-2.16-2.04-3.81-3.39-5.53-4.22-5.41-9.68-8.25-17.71-8.17Zm-66.18.05c-1.82.04-3.63.01-5.44.53-5.98,1.7-10.15,5.61-13.32,10.73-.65,1.05-1.08,2.3-1.35,3.51-.98,4.43,3.14,8.3,7.49,7.07,1.56-.44,2.97-1.21,4.14-2.38.65-.65,1.27-1.33,1.97-1.92,3.51-2.98,7.45-4.43,12.09-3.26,1.11.28,2.24.48,3.35.74,1.36.31,2.73.37,4.1.24,2.56-.24,3.84-1.75,3.86-4.34.01-1.69-.61-3.13-1.64-4.42-1.75-2.2-3.86-3.93-6.51-4.9-2.81-1.03-5.68-1.81-8.73-1.58Zm-62.74,65.15c.12-1.25.12-2.53.39-3.75.39-1.72,1.28-3.19,2.94-4.02,1.05-.53,2.11-.27,2.65.73,1.59,2.95,2.74,6.04,2.61,9.47-.11,2.93-1.11,5.36-3.9,6.74-.31.15-.63.29-.88.51-.45.4-.7.91-.48,1.53.22.62.74.83,1.34.87,1.35.1,2.44-.47,3.43-1.31,3.43-2.88,4.18-6.71,3.69-10.88-.52-4.42-2.33-8.36-5.08-11.83-2.24-2.83-5-5.02-8.58-5.98-1.95-.52-3.86-.49-5.64.55-.38.22-.74.57-.96.94-.14.24-.06.66.03.96.05.17.33.34.52.37.33.05.68.01,1.01-.05,4.05-.79,7.07,1.05,9.69,3.84.36.38.25.95-.25,1.12-2.67.92-3.91,3.06-4.73,5.51-.36,1.07-.55,2.23-.68,3.36-.24,2.08.38,4.08.73,6.1.05.31.3.63.53.87.41.43.92.72,1.52.43.55-.26.99-.75.84-1.35-.37-1.56-.69-3.12-.76-4.74Zm198.62-15.45c.79.2,1.12.3,1.45.37.48.11.95.02,1.2-.4.36-.58.09-1.12-.38-1.5-1.01-.83-2.19-1.19-3.49-1.24-2.26-.08-4.33.59-6.17,1.8-6.5,4.28-9.72,10.5-10.24,18.13-.16,2.41.52,4.77,1.82,6.88.93,1.51,2.22,2.61,3.88,3.26.65.25,1.32.31,2.02.14.79-.2,1.15-1.31.67-1.96-.44-.59-1.12-.77-1.7-1.12-1.22-.72-2.23-1.67-2.68-3.02-.55-1.63-.99-3.32-.71-5.06.39-2.5,1.07-4.91,2.17-7.21.87-1.81,2.24-2.3,4.15-.71.68.56,1.26,1.4,1.55,2.23.7,1.94,1.18,3.95.72,6.06-.24,1.12-.4,2.25-.53,3.39-.08.76.31,1.34,1.05,1.58.56.18,1.4-.35,1.56-1.05.36-1.56.87-3.1.81-4.73-.17-4.36-.7-8.54-5.45-10.54-.48-.2-.64-.69-.28-1.12,2.37-2.76,5.37-4.15,8.58-4.17Zm-69.18-21.79c-.06-1.87-.27-3.68-1.26-5.29-1.36-2.19-3.64-2.42-5.46-.58-.91.91-1.42,2.06-1.84,3.25-1.12,3.18-.65,6.31.42,9.38.5,1.45,1.35,2.78,3.04,2.9,1.88.14,2.78-1.27,3.55-2.73,1.15-2.18,1.38-4.56,1.57-6.93Zm-65.92.13c.03,2.55.5,5,1.73,7.25.67,1.23,1.58,2.36,3.14,2.31,1.71-.05,2.54-1.33,3.17-2.74.05-.1.11-.2.15-.31.66-2.2,1.14-4.42.88-6.74-.22-1.96-.8-3.81-2.05-5.36-1.94-2.41-4.62-2.13-6.06.61-.82,1.56-1,3.25-.96,4.98Z"/>
            <path class="cls-4" d="m205.28,233.22c-5.55-.21-10.4-1.85-14.92-4.47-8.47-4.92-14.4-12-17.56-21.28-1.49-4.39-2.03-8.88-.96-13.54,1.48-6.48,6.67-11.64,13.18-13.07,5.51-1.21,10.78-.35,15.77,1.87,9.12,4.05,16.06,10.48,20.36,19.61,1.63,3.47,2.66,7.13,2.86,10.91.32,5.98-1.33,11.35-5.95,15.5-3.71,3.33-8.22,4.34-12.77,4.48Z"/>
            <path class="cls-4" d="m297.41,233.18c-2.8.1-5.5-.5-8.04-1.59-5.72-2.45-9-6.95-10.1-13-1.23-6.75.51-12.99,3.78-18.81,3.74-6.64,9.04-11.71,15.76-15.44,3.8-2.11,7.78-3.49,12-3.9,10.8-1.06,20.02,5.13,20.73,17.34.24,4.06-.63,8-2.2,11.73-3.6,8.53-9.39,15.13-17.5,19.66-4.17,2.33-9.99,4.11-14.42,4Z"/>
            <path class="cls-3" d="m284.42,164.66c-.19,2.37-.42,4.75-1.57,6.93-.77,1.46-1.67,2.87-3.55,2.73-1.69-.13-2.53-1.45-3.04-2.9-1.07-3.07-1.54-6.2-.42-9.38.42-1.19.93-2.33,1.84-3.25,1.83-1.84,4.1-1.61,5.46.58,1,1.61,1.2,3.42,1.26,5.29Z"/>
            <path class="cls-3" d="m218.51,164.79c-.04-1.73.14-3.42.96-4.98,1.44-2.74,4.11-3.02,6.06-.61,1.25,1.55,1.83,3.41,2.05,5.36.26,2.31-.22,4.54-.88,6.74-.03.11-.1.21-.15.31-.63,1.42-1.46,2.69-3.17,2.74-1.55.05-2.46-1.08-3.14-2.31-1.23-2.25-1.7-4.7-1.73-7.25Z"/>
            <path class="cls-7" d="m384.55,382.71c.02.91.75,1.39,1.26,1.96,5.99,6.63,7.16,14.39,5.32,22.82-.92,4.21-2.58,8.09-5.66,11.22-5.48,5.57-12.11,7.65-19.77,6.35-2.02-.34-4-.97-5.99-1.52-1.84-.5-2.04-.39-2.02,1.39,0,.57.02,1.15.06,1.72.21,3.26-.37,6.4-1.47,9.45-3.69,10.24-10.46,17.67-20.48,22.01-5.38,2.33-11.08,2.85-16.87,2.33-2.53-.23-4.91-1.12-7.19-2.23-3.01-1.46-5.77-3.29-8.27-5.52-.89-.79-1.24-.77-2.07-.06-.61.53-1.16,1.12-1.76,1.64-1.56,1.36-3.09,2.74-4.71,4.03-5.33,4.23-30.59,6.64-37.33,7.76-6.55,1.09-12.81.13-19.03-1.52-4.38-1.16-27.37-3.68-30.9-6.46-2.16-1.7-4.14-3.63-6.21-5.44-.85-.74-1.19-.77-2.06.02-1.89,1.69-3.96,3.11-6.12,4.43-5.68,3.49-11.85,4.11-18.25,3.18-15.48-2.25-26.85-14.78-29.6-28.46-.41-2.06-.43-4.11-.3-6.17.16-2.47-.16-2.66-2.35-1.97-1.96.62-3.97,1.17-6,1.47-7.97,1.16-14.77-1.17-20.11-7.24-3.29-3.74-4.75-8.33-5.42-13.18-.39-2.86-.27-5.74.12-8.59.54-3.97,2.33-7.41,4.86-10.48.87-1.05,1.8-2.06,2.87-3.27-.96-.39-1.63.14-2.31.22-.68.08-1.38.14-2.04.32-1.91.51-3.86.5-5.81.49-3.38-.02-6.26-1.26-8.67-3.6-3.01-2.92-4.65-6.51-4.92-10.68-.34-5.29.82-10.25,3.43-14.87-11.48-10.61,11.62-93.84,34.28-95.15.76-.66,1.74-1.11,2.16-2.12-.52-.89-1.43-.61-2.17-.72-5.83-.8-8.93-5.44-7.48-11.18.57-2.27,1.73-4.23,3.11-6.08,2.63-3.53,5.92-6.4,9.46-8.96,1.58-1.14,3.22-2.22,4.91-3.18,8.6-4.88,17.57-8.93,27.03-11.84,3.51-1.08,7.14-1.66,10.76-2.22,4.76-.73,9.54-1.32,14.27-2.18,4.85-.88,9.6-2.26,14.12-4.26,4.72-2.09,9.45-4.17,13.68-7.18.65-.46,1.38-.82,2.08-1.22.85-.48,1.72-.59,2.62-.11,1.88.99,3.9,1.2,5.99,1.27,1.83.06,3.66.31,5.46.65,2.72.52,5.47.56,8.2.88,4.84.57,9.63-.05,14.41-.55,3.07-.32,6.11-1.01,9.21-1.05,1.41-.02,2.75-.4,3.96-1.04,1.3-.69,2.41-.49,3.55.24.68.43,1.37.84,2.05,1.26,8.12,5.12,16.79,8.94,26.22,10.85,3.7.75,7.47,1.15,11.21,1.7,8.18,1.2,16.25,2.83,23.91,6.08,7.28,3.1,14.54,6.25,21.17,10.65,4.42,2.94,8.44,6.34,11.59,10.67,1.15,1.59,2.08,3.28,2.67,5.17.49,1.58.56,3.14.2,4.75-.97,4.3-3.08,6.26-7.48,6.84-.57.08-1.14.11-1.71.21-.19.04-.42.21-.5.38-.07.16-.04.48.08.6.5.47,1.06.88,1.58,1.33,17.14-.09,46.46,80.22,33.92,94.13,2.54,4.21,4.06,8.7,4.27,13.63.2,4.42-.93,8.42-3.68,11.89-2.48,3.13-5.73,4.89-9.77,4.99-1.95.05-3.89.02-5.82-.42-1.21-.28-2.45-.61-3.73-.32,0-.47-.18-.53-.52-.24.16.09.32.19.49.28Z"/>
            <path class="cls-12" d="m251.1,173.35c6.28-.25,11.97,1.13,17.65,2.49,3.15.76,6.03,2.17,8.52,4.28,2.63,2.24,4.25,5.04,4.77,8.49.7,4.6-1.1,8.08-4.82,10.6-3.45,2.33-7.3,3.79-11.35,4.72-10.83,2.51-21.58,2.31-32.24-.95-2.53-.78-4.88-1.94-7.17-3.26-6.07-3.49-7.39-9.91-3.91-16,1.46-2.55,3.66-4.36,6.23-5.75,2.75-1.49,5.68-2.42,8.74-2.96,4.62-.81,9.19-2.05,13.58-1.66Z"/>
            <path class="cls-10" d="m384.55,390.03c-.16-.09-.32-.19-.49-.28.35-.29.53-.23.52.24,0,0-.04.04-.04.04Z"/>
            <path class="cls-9" d="m377.11,264.56c.02-7.12,20.85,31.12,22.12,40.51,7.52,23,10.03,40.27,4.09,47.84,1.76,3.42,4.3,7.63,4.26,13.7.25,3.79-.69,7.3-2.7,10.49-2.64,4.18-6.41,6.51-11.43,6.45-1.94-.02-3.88-.31-5.82-.48-.88-.08-1.76-.15-2.62-.23,0,.44-.08.71.02.87.3.48.64.95,1.02,1.37,7.86,8.74,6.97,21.43,2.34,29.65-3.9,6.92-10.05,10.49-18.02,10.81-3.37.14-6.62-.53-9.82-1.48-.85-.25-1.68-.84-2.64-.26-.57,1.07-.26,2.24-.23,3.36.08,3.14-.38,6.18-1.49,9.11-4.75,12.62-13.42,20.89-26.75,23.82-8.95,1.97-17.07,0-24.27-5.67-.89-.7-1.79-1.39-2.62-2.03-1.4.26-2.07,1.26-2.89,2.01-3.24,2.93-3.54,5.83-23.32,9.02-2.83,1.58-12.16,1.57-15.37,2.06-2.94.45-8.24,1.5-11.19,1.52-9.2.06-26.59-3.67-36.06-6.87-4.97-.74-10.41-4.19-10.81-5.85-.77-.66-1.55-1.32-2.56-2.19-.81.62-1.36,1.03-1.89,1.45-.63.5-1.24,1.02-1.88,1.51-6.69,5.13-14.25,6.74-22.43,5.22-12.87-2.39-21.63-10.03-26.83-21.84-1.19-2.71-1.95-5.63-2.27-8.62-.05-.43,0-.87,0-1.96.63.8.97,1.07,1.1,1.43,2.89,7.57,8.27,12.81,15.29,16.57,4.16,2.23,8.44,4.16,13.11,5.07,7.46,1.45,14.84.95,22.13-1.11.77-.22,1.54-.44,2.32-.65.11-.03.23-.03.62-.07.68.43,1.55.96,2.39,1.53,9.21,6.25,38.67,8.68,49.64,7.68,7.46-.68,33.48-3.48,39.39-8.14,2.43-1.91,4.63-4.11,6.93-6.18.75-.68,1.5-1.36,2.37-2.15.74.52,1.42.91,2,1.43,1.37,1.23,2.64,2.56,4.02,3.76,4.65,4.02,10.06,5.34,16.05,4.2,5.82-1.11,10.71-4.04,14.9-8.12,1.88-1.83,3.61-3.87,5.13-6,3.4-4.76,6.67-9.63,9.15-14.95.93-1.99,2.3-3.03,4.36-3.42,2.72-.51,5.29-1.48,7.79-2.66,2.32-1.09,4.31-2.62,6.09-4.43,4.29-4.34,5.74-9.55,4.52-15.47-.62-3.03-1.5-6-2.26-9-.39-1.55-.87-3.09-1.14-4.67-.41-2.43.51-4.31,2.78-5.35,1.98-.91,4.04-1.63,6.02-2.53,2.39-1.1,4.82-2.15,7.08-3.48,6.33-3.74,8.84-9.65,9.14-16.73,7.72-28.32-2.01-58.68-18.84-89.86Z"/>
            <path class="cls-1" d="m358.11,192.65c-.22,7.72-3,14.31-8.68,19.57-1.15,1.07-2.54,1.99-3.98,2.62-2.5,1.11-4.76.56-6.51-1.52-.86-1.02-1.58-2.29-1.95-3.56-1.19-4.1-1.03-8.19.93-12.05,2.8-5.51,7-9.59,12.77-11.95.84-.34,1.75-.61,2.64-.69,2.8-.27,4.09.72,4.51,3.48.21,1.35.19,2.74.28,4.11Z"/>
            <path class="cls-1" d="m165.56,205.2c-.1.57-.2,1.72-.54,2.8-1.31,4.23-5.34,5.95-9.3,3.99-2.19-1.09-4.01-2.66-5.41-4.66-3.13-4.49-5.07-9.47-5.84-14.89-.3-2.1.1-4.11,1.2-5.95.84-1.4,2.07-2.07,3.73-1.93,3.07.26,5.82,1.23,7.98,3.51,2.78,2.93,5.11,6.17,6.73,9.89.93,2.12,1.43,4.34,1.44,7.24Z"/>
            <path class="cls-1" d="m223.97,155.71c-3.63-.65-6.92.55-10.08,2.35-2.21,1.27-4.54,2.19-7.09,2.49-1.76.21-3.43-.02-4.98-.9-.62-.36-1.1-.86-1.01-1.64.09-.82.7-1.23,1.42-1.2,3.82.14,6.87-1.63,9.66-3.91,3.32-2.71,7.07-3.64,11.25-3.16,1.02.12,2.06.19,3.07.38,2.18.42,4.32.5,6.44-.27.42-.15.89-.21,1.34-.23.77-.03,1.4,1.07,1.02,1.77-.22.4-.48.79-.79,1.12-1.55,1.64-3.47,2.63-5.7,2.91-1.47.18-2.97.2-4.55.29Z"/>
            <path class="cls-1" d="m279.16,155.36c-2.02.12-4.3.09-6.52-.62-1.51-.48-2.65-1.31-3-2.96-.21-1,.42-1.85,1.44-1.86.45,0,.93,0,1.36.13,2.58.76,5.2.63,7.83.5.8-.04,1.6-.06,2.4-.12,4.17-.31,7.91.74,11.2,3.39,2.14,1.72,4.37,3.31,7.26,3.62.93.1,1.49.91,1.47,1.65-.02.91-.57,1.46-1.36,1.8-1.29.55-2.65.8-4.02.44-.99-.25-1.97-.59-2.89-1.03-1.03-.49-2-1.11-2.96-1.72-5-3.15-6.02-3.44-12.21-3.22Z"/>
            <path class="cls-10" d="m283.91,136.7c8.03-.08,13.48,2.76,17.71,8.17,1.34,1.72,2.74,3.37,3.39,5.53.27.9.42,1.78.35,2.7-.32,4.2-4.18,6.71-8.15,5.31-1.31-.46-2.51-1.13-3.52-2.11-.74-.72-1.44-1.48-2.22-2.16-3.41-2.96-7.29-4.22-11.79-3.17-.89.21-1.81.35-2.68.62-1.34.41-2.71.4-4.09.47-3.61.18-5.78-2.96-4.23-6.62,1.22-2.87,3.31-4.96,6.05-6.34,3.22-1.62,6.63-2.54,9.17-2.41Z"/>
            <path class="cls-10" d="m217.73,136.75c3.05-.23,5.92.55,8.73,1.58,2.66.98,4.77,2.71,6.51,4.9,1.03,1.29,1.65,2.73,1.64,4.42-.02,2.6-1.3,4.1-3.86,4.34-1.37.13-2.75.07-4.1-.24-1.11-.26-2.24-.46-3.35-.74-4.64-1.17-8.58.28-12.09,3.26-.7.59-1.32,1.28-1.97,1.92-1.17,1.16-2.58,1.93-4.14,2.38-4.35,1.24-8.46-2.64-7.49-7.07.27-1.21.7-2.46,1.35-3.51,3.17-5.12,7.35-9.03,13.32-10.73,1.81-.52,3.62-.49,5.44-.53Z"/>
            <path class="cls-12" d="m154.98,201.9c.07,1.62.39,3.18.76,4.74.14.6-.29,1.09-.84,1.35-.6.28-1.12,0-1.52-.43-.23-.24-.48-.55-.53-.87-.35-2.02-.97-4.02-.73-6.1.13-1.13.32-2.28.68-3.36.82-2.45,2.06-4.59,4.73-5.51.49-.17.6-.74.25-1.12-2.62-2.8-5.63-4.63-9.69-3.84-.33.06-.68.1-1.01.05-.2-.03-.47-.2-.52-.37-.09-.3-.17-.72-.03-.96.22-.38.58-.72.96-.94,1.79-1.04,3.69-1.07,5.64-.55,3.58.96,6.34,3.15,8.58,5.98,2.75,3.47,4.56,7.41,5.08,11.83.49,4.17-.26,8-3.69,10.88-.99.84-2.08,1.41-3.43,1.31-.6-.05-1.12-.26-1.34-.87-.22-.61.03-1.13.48-1.53.25-.22.58-.36.88-.51,2.8-1.38,3.79-3.81,3.9-6.74.13-3.43-1.02-6.52-2.61-9.47-.54-1-1.61-1.26-2.65-.73-1.65.84-2.55,2.3-2.94,4.02-.27,1.22-.27,2.49-.39,3.75Z"/>
            <path class="cls-12" d="m353.6,186.45c-3.21.02-6.21,1.41-8.58,4.17-.36.43-.2.92.28,1.12,4.75,2.01,5.29,6.18,5.45,10.54.06,1.63-.45,3.17-.81,4.73-.16.7-1,1.23-1.56,1.05-.74-.24-1.13-.82-1.05-1.58.12-1.14.28-2.28.53-3.39.46-2.11-.03-4.12-.72-6.06-.3-.83-.88-1.66-1.55-2.23-1.91-1.59-3.28-1.1-4.15.71-1.1,2.3-1.78,4.71-2.17,7.21-.28,1.74.16,3.43.71,5.06.46,1.35,1.47,2.3,2.68,3.02.59.34,1.26.52,1.7,1.12.48.65.12,1.76-.67,1.96-.69.18-1.37.12-2.02-.14-1.66-.65-2.94-1.74-3.88-3.26-1.3-2.11-1.99-4.48-1.82-6.88.52-7.63,3.73-13.85,10.24-18.13,1.84-1.21,3.91-1.88,6.17-1.8,1.3.04,2.49.41,3.49,1.24.47.39.73.92.38,1.5-.26.42-.72.51-1.2.4-.34-.07-.67-.17-1.45-.37Z"/>
            <path class="cls-8" d="m329.37,171.22c-.53-.61-1.05-1.19-1.55-1.77-3.05-3.58-5.93-7.32-9.19-10.7-11.54-11.96-25.29-20.39-41.2-25.26-14.06-4.3-28.32-5.35-42.86-3.04-8.45,1.34-16.5,3.83-24.24,7.47-7.91,3.71-14.63,8.96-20.54,15.35-5.88,6.36-10.53,13.58-15.04,20.92-.78,1.27-1.62,2.5-2.49,3.71-.12.17-.6.15-.89.11-.1-.02-.24-.4-.2-.59.13-.67.29-1.34.5-1.99,2.9-9.19,7.59-17.39,13.6-24.91,8.55-10.7,19.43-18.03,32.15-22.81,7.79-2.93,15.85-4.57,24.14-5.13,11.03-.74,22.03-.55,32.88,1.81,13.48,2.93,25.6,8.7,35.88,18,5.55,5.03,10.17,10.84,13.96,17.34,1.85,3.18,3.71,6.32,5.09,9.73.17.42.26.88.36,1.32.01.07-.13.17-.36.44Z"/>
            <path class="cls-13" d="m139.52,180.99c1.89-3.42,4.89-5.9,8.69-7.03,1.5-2.63,2.56-5.44,3-8.44.56-3.85.82-7.75,1.34-11.61.59-4.43,1.09-8.89,2.03-13.25,2.06-9.62,6.19-18.48,10.93-27.01,6.64-11.96,16.44-20.82,28.31-27.41,9.3-5.16,19.28-8.52,29.65-10.76,6.52-1.41,13.15-2,19.79-2.41,7.92-.49,15.83-.18,23.7.84,4.88.63,9.77,1.43,14.57,2.52,9.13,2.08,17.68,5.55,25.38,11.05,11.42,8.16,19.67,18.78,25.27,31.57,5.15,11.75,7.24,24.11,7.48,36.84.1,5.63-.27,11.23-1.08,16.81-.11.77-.19,1.54-.27,2.31.33-.15.65-.31.98-.44.4-.16.79-.29,1.19-.43.39-.68.73-1.39,1.04-2.12,2.73-6.33,5.11-12.78,6.42-19.58,1.08-5.56,1.37-11.17.64-16.78-1.53-11.75-6.22-22.28-13-31.86-6.95-9.83-16.07-17.23-26.74-22.75-9.24-4.78-18.97-8.04-29.16-10.07-13.22-2.63-26.48-4.14-39.99-3.17-11.18.8-22.05,2.86-32.57,6.71-13.66,4.99-25.54,12.94-36.38,22.49-10.15,8.94-17.49,19.96-23.2,32.13-3.14,6.7-5.24,13.71-6.13,21.05-.55,4.55-.89,9.13-1.32,13.69-.27,2.85-.42,5.73-.86,8.55-.37,2.34-1.55,3.09-3.89,2.83-1.25-.14-2.48-.49-3.73-.59-3.5-.29-5.09,1.16-5.48,4.89,3.44,1.78,7.75,2.27,11.99,1.7.49-.07.96-.16,1.42-.27Z"/>
            <path class="cls-5" d="m251.57,95.87c20.26-.01,39.48,4.61,57.91,12.91,8.85,3.99,16.93,9.13,24.48,15.19,2.51,2.01,4.84,4.23,7.05,6.56,6.01,6.34,8.63,13.95,8.31,22.6-.19,5.17-.87,10.27-2.56,15.21-.86,2.51-1.88,4.92-3.28,7.18-.79,1.28-1.75,2.4-2.78,3.49-2.69,2.83-6.95,3.45-9.85-1-.75-1.15-1.42-2.35-2.08-3.56-1.81-3.32-3.52-6.7-5.41-9.98-3.5-6.08-7.48-11.84-12.37-16.9-7.7-7.96-16.93-13.61-27.21-17.62-13.53-5.27-27.57-6.66-41.92-5.35-13.22,1.21-25.53,5.31-36.8,12.36-7.06,4.42-13.23,9.85-18.25,16.55-4.21,5.62-7.86,11.57-11.06,17.8-1.05,2.04-2.07,4.1-3.28,6.04-3.04,4.87-7.06,5.2-10.93.97-2.04-2.23-3.48-4.84-4.57-7.63-2.97-7.63-3.93-15.57-3.05-23.66.66-6.09,3.29-11.41,7.45-15.94,2.41-2.63,5.02-5.02,7.78-7.29,9.93-8.18,21.09-14.16,33.07-18.71,11.08-4.21,22.49-7.02,34.27-8.41,5.03-.6,10.06-.75,15.11-.82Z"/>
            <path class="cls-5" d="m114.26,197.57c-5.89,0-10.76-2.1-14.75-6.02-6.6-6.46-8.97-14.48-8.01-23.52.69-6.52,3.57-12.15,8.27-16.58,5.77-5.43,12.68-7.07,20.36-4.54,4.63,1.53,8.24,4.44,11.08,8.33,6.81,9.33,7.09,22.74.66,32.33-3.18,4.74-7.46,7.99-13.05,9.44-1.58.41-3.17.46-4.56.55Z"/>
          </g>
        </g>
        <g>
          <path class="cls-11" d="m134.52,108.13c-1.82,3.19-4.67,5.71-7.47,5.84-2.28.11-3.37-1.34-2.8-3.31l.17-.58c.49-1.69,1.54-2.38,2.71-2.7,1.17-.32,2.01-.95,2.56-1.92.57-1,.5-1.92-.16-2.3-2.27-1.29-6.67,9.02-13.79,4.97-3.79-2.15-4.33-6.74-1.65-11.46,2-3.52,4.38-5.71,7.07-5.89,2.69-.18,3.81,1.18,3.03,3.44l-.17.49c-.86,2.45-2.25,2.55-3.46,3.07-.66.28-1.2.76-1.54,1.36-.53.93-.45,1.8.2,2.17,2.83,1.61,6.83-9.19,13.83-5.21,3.85,2.19,4.24,7.18,1.48,12.03h0Z"/>
          <path class="cls-11" d="m147.13,89.81c-3.39,4.15-8.78,5.05-13.2,1.44-4.42-3.61-4.6-9.07-1.21-13.22,2.69-3.28,5.85-4.52,8.55-3.72,1.9.57,2.59,1.92,1.46,3.75l-.25.41c-.9,1.45-1.57,1.47-2.97,1.77-.75.17-1.47.49-2.01,1.15-.97,1.19-.54,2.77,1.12,4.13,1.65,1.35,3.3,1.46,4.27.28.54-.67.72-1.43.73-2.21.02-1.43-.1-2.1,1.15-3.26l.35-.33c1.57-1.47,3.01-1.05,3.97.69,1.36,2.47.74,5.84-1.94,9.12h0Z"/>
          <path class="cls-11" d="m148.48,73.95c-3.77-4.42-4.04-8.78-.55-11.76,1.46-1.24,3.77-1.92,5.4-1.14l-.04-.05c-.97-1.14-.65-2.58.88-3.89l.78-.66c1.58-1.34,3.15-1.22,4.49.36l7.68,9.01c1.34,1.58,1.22,3.15-.36,4.5l-.78.66c-1.5,1.28-2.99,1.41-3.9.35l-.02-.02c.48,1.69-.6,3.82-2.06,5.06-3.47,2.96-7.78,1.98-11.53-2.41Zm9.35-8.01c-1.37-1.6-2.98-2.03-4.12-1.05-1.12.95-.98,2.68.36,4.26,1.37,1.6,3.03,2.03,4.17,1.06,1.14-.97.98-2.64-.41-4.26Z"/>
          <path class="cls-11" d="m174.67,43.63c4.04-2.25,6.83-1.12,9.62,3.89l3.48,6.24c1.01,1.81.58,3.33-1.23,4.34l-.89.5c-1.81,1.01-3.33.58-4.34-1.23l-3.11-5.57c-1.01-1.81-1.99-2.25-3.21-1.57-1.34.75-1.36,1.75-.35,3.56l3.11,5.57c1.01,1.81.58,3.33-1.23,4.34l-.89.5c-1.81,1.01-3.33.58-4.34-1.23l-5.78-10.36c-1.01-1.81-.58-3.33,1.23-4.34l.89-.5c1.56-.87,2.91-.67,3.84.46,0-1.68,1.29-3.54,3.2-4.6h0Z"/>
          <path class="cls-11" d="m200.96,47.88l-1.32-16.82c-.14-1.96.78-3.19,2.72-3.58l3.56-.73c1.88-.38,3.19.29,3.97,2.05l5.1,11.43.21-12.51c.03-1.93.97-3.06,2.85-3.45l3.56-.73c1.94-.4,3.27.37,3.91,2.23l5.38,15.99c.68,2.07-.14,3.48-2.26,3.91l-1.31.27c-1.94.39-3.27-.41-3.86-2.31l-2.98-9.65-.28,10.57c-.07,1.9-1.01,3.04-2.88,3.42l-1.44.29c-1.88.38-3.19-.3-3.99-2.02l-4.4-9.62,1.04,10.04c.21,1.98-.71,3.24-2.64,3.63l-1.31.27c-2.12.43-3.43-.54-3.61-2.71Z"/>
          <path class="cls-11" d="m244.67,45.43c-5.9.08-9.81-3.44-9.88-9.18-.07-5.61,3.8-9.35,9.51-9.43,5.33-.07,8.77,2.55,9.38,7.46.25,2.13-.79,3.2-3.15,3.23l-8.32.11c.02,1.88,1.12,3.05,2.94,3.02.99-.01,1.78-.34,2.54-.89,1.01-.75,1.55-1.04,3.08-.71l.54.12c2.14.48,2.45,1.69.94,3.4-1.43,1.62-4.09,2.83-7.59,2.87h0Zm2.33-11.77c-.08-1.5-1.12-2.44-2.42-2.42-1.31.02-2.32.99-2.36,2.49l4.78-.06Z"/>
        </g>
      </g>
    </g>
  </g>
</svg>